M48
; DRILL file {KiCad 5.1.10-88a1d61d58~90~ubuntu20.04.1} date Fri Nov  5 17:14:23 2021
; FORMAT={-:-/ absolute / inch / decimal}
; #@! TF.CreationDate,2021-11-05T17:14:23+01:00
; #@! TF.GenerationSoftware,Kicad,Pcbnew,5.1.10-88a1d61d58~90~ubuntu20.04.1
; #@! TF.FileFunction,Plated,1,4,PTH
FMAT,2
INCH
T1C0.0118
T2C0.0157
T3C0.0197
T4C0.0276
T5C0.0300
T6C0.0315
T7C0.0394
T8C0.0433
T9C0.0472
T10C0.0520
T11C0.0598
T12C0.1260
%
G90
G05
T1
X5.248Y-3.748
X5.248Y-3.7874
X5.248Y-3.8268
X5.248Y-3.8661
X5.248Y-3.9055
X5.248Y-3.9449
X5.248Y-3.9843
X5.248Y-4.0236
X5.2874Y-3.748
X5.2874Y-3.7874
X5.2874Y-3.8268
X5.2874Y-3.8661
X5.2874Y-3.9055
X5.2874Y-3.9449
X5.2874Y-3.9843
X5.2874Y-4.0236
X5.3268Y-3.748
X5.3268Y-3.7874
X5.3268Y-3.8268
X5.3268Y-3.8661
X5.3268Y-3.9055
X5.3268Y-3.9449
X5.3268Y-3.9843
X5.3268Y-4.0236
X5.3661Y-3.748
X5.3661Y-3.7874
X5.3661Y-3.8268
X5.3661Y-3.8661
X5.3661Y-3.9055
X5.3661Y-3.9449
X5.3661Y-3.9843
X5.3661Y-4.0236
X5.4055Y-3.748
X5.4055Y-3.7874
X5.4055Y-3.8268
X5.4055Y-3.8661
X5.4055Y-3.9055
X5.4055Y-3.9449
X5.4055Y-3.9843
X5.4055Y-4.0236
X5.4449Y-3.748
X5.4449Y-3.7874
X5.4449Y-3.8268
X5.4449Y-3.8661
X5.4449Y-3.9055
X5.4449Y-3.9449
X5.4449Y-3.9843
X5.4449Y-4.0236
X5.4843Y-3.748
X5.4843Y-3.7874
X5.4843Y-3.8268
X5.4843Y-3.8661
X5.4843Y-3.9055
X5.4843Y-3.9449
X5.4843Y-3.9843
X5.4843Y-4.0236
X5.5236Y-3.748
X5.5236Y-3.7874
X5.5236Y-3.8268
X5.5236Y-3.8661
X5.5236Y-3.9055
X5.5236Y-3.9449
X5.5236Y-3.9843
X5.5236Y-4.0236
X5.563Y-3.748
X5.563Y-3.7874
X5.563Y-3.8268
X5.563Y-3.8661
X5.563Y-3.9055
X5.563Y-3.9449
X5.563Y-3.9843
X5.563Y-4.0236
X5.7126Y-3.7559
X5.7126Y-3.7953
X5.7126Y-3.8346
X5.7126Y-3.874
X5.7126Y-3.9134
X5.7126Y-3.9528
X5.7126Y-3.9921
X5.7126Y-4.0315
X5.752Y-3.7559
X5.752Y-3.7953
X5.752Y-3.8346
X5.752Y-3.874
X5.752Y-3.9134
X5.752Y-3.9528
X5.752Y-3.9921
X5.752Y-4.0315
X5.7913Y-3.7559
X5.7913Y-3.7953
X5.7913Y-3.8346
X5.7913Y-3.874
X5.7913Y-3.9134
X5.7913Y-3.9528
X5.7913Y-3.9921
X5.7913Y-4.0315
X5.8307Y-3.7559
X5.8307Y-3.7953
X5.8307Y-3.8346
X5.8307Y-3.874
X5.8307Y-3.9134
X5.8307Y-3.9528
X5.8307Y-3.9921
X5.8307Y-4.0315
X5.8701Y-3.7559
X5.8701Y-3.7953
X5.8701Y-3.8346
X5.8701Y-3.874
X5.8701Y-3.9134
X5.8701Y-3.9528
X5.8701Y-3.9921
X5.8701Y-4.0315
X5.9094Y-3.7559
X5.9094Y-3.7953
X5.9094Y-3.8346
X5.9094Y-3.874
X5.9094Y-3.9134
X5.9094Y-3.9528
X5.9094Y-3.9921
X5.9094Y-4.0315
X5.9488Y-3.7559
X5.9488Y-3.7953
X5.9488Y-3.8346
X5.9488Y-3.874
X5.9488Y-3.9134
X5.9488Y-3.9528
X5.9488Y-3.9921
X5.9488Y-4.0315
X5.9882Y-3.7559
X5.9882Y-3.7953
X5.9882Y-3.8346
X5.9882Y-3.874
X5.9882Y-3.9134
X5.9882Y-3.9528
X5.9882Y-3.9921
X5.9882Y-4.0315
X6.0276Y-3.7559
X6.0276Y-3.7953
X6.0276Y-3.8346
X6.0276Y-3.874
X6.0276Y-3.9134
X6.0276Y-3.9528
X6.0276Y-3.9921
X6.0276Y-4.0315
T2
X3.4283Y-3.7748
X3.4726Y-3.45
X3.5012Y-2.8732
X3.5268Y-3.6941
X3.5425Y-2.7768
X3.5425Y-3.1724
X3.5524Y-3.6488
X3.6311Y-3.515
X3.6902Y-3.3437
X3.7415Y-3.299
X3.8087Y-2.8744
X3.822Y-2.9815
X3.8504Y-3.2209
X3.8571Y-3.2705
X3.8571Y-3.2705
X3.8575Y-3.45
X3.8693Y-2.7728
X3.9028Y-3.3437
X3.948Y-3.7768
X3.9835Y-3.263
X3.9992Y-3.1232
X4.011Y-3.3437
X4.0335Y-3.2795
X4.0602Y-3.389
X4.0752Y-3.2555
X4.1469Y-3.1744
X4.1488Y-3.389
X4.1606Y-2.9717
X4.1685Y-3.4362
X4.1764Y-2.8634
X4.2343Y-3.2744
X4.2469Y-3.2366
X4.2571Y-3.5189
X4.3276Y-2.9874
X4.3713Y-3.2768
X4.4638Y-3.45
X4.4795Y-3.1724
X4.5858Y-2.7646
X7.2638Y-2.4124
T3
X3.1449Y-2.515
X3.1449Y-3.8142
X3.1726Y-2.4481
X3.1726Y-2.5818
X3.1726Y-3.7474
X3.1726Y-3.881
X3.2394Y-2.4205
X3.2394Y-2.6094
X3.2394Y-3.7197
X3.2394Y-3.9087
X3.3062Y-2.4481
X3.3062Y-2.5818
X3.3062Y-3.7474
X3.3062Y-3.881
X3.3339Y-2.515
X3.3339Y-3.8142
X4.6803Y-2.515
X4.6803Y-3.8142
X4.708Y-2.4481
X4.708Y-2.5818
X4.708Y-3.7474
X4.708Y-3.881
X4.7748Y-2.4205
X4.7748Y-2.6094
X4.7748Y-3.7197
X4.7748Y-3.9087
X4.8416Y-2.4481
X4.8416Y-2.5818
X4.8416Y-3.7474
X4.8416Y-3.881
X4.8693Y-2.515
X4.8693Y-3.8142
X5.2864Y-3.06
X5.374Y-2.4213
X5.4134Y-2.9921
X5.5362Y-3.1299
X5.5906Y-3.1102
X5.5906Y-3.3465
X5.7087Y-3.0512
X5.7547Y-2.9397
X5.7677Y-2.7165
X5.7911Y-2.9033
X5.9646Y-4.685
X5.9663Y-3.6238
X5.9724Y-3.689
X6.0039Y-3.6024
X6.0433Y-2.9528
X6.0709Y-3.6142
X6.1631Y-2.8226
X6.1811Y-2.7165
X6.252Y-3.6171
X6.3307Y-3.6417
X6.3976Y-3.4055
X6.3985Y-3.3473
X6.4567Y-2.7165
X6.4764Y-2.8551
X6.4961Y-2.4803
X6.4961Y-2.7559
X6.4961Y-2.9528
X6.5551Y-2.9134
X6.5551Y-3.1102
X6.5551Y-3.3439
X6.5551Y-3.4055
X6.5551Y-4.0157
X6.5748Y-2.3848
X6.5795Y-4.3188
X6.7126Y-3.3071
X6.7323Y-2.7953
X6.7717Y-4.6504
X6.9882Y-2.4803
X6.9897Y-3.4439
X7.0052Y-2.7536
X7.043Y-3.7402
X7.0472Y-2.8346
X7.0581Y-3.3858
X7.0669Y-2.4803
X7.1063Y-2.4409
X7.126Y-3.8976
X7.1269Y-3.6
X7.1457Y-2.7165
X7.1654Y-2.4409
X7.1654Y-4.0945
X7.185Y-4.0157
X7.2638Y-4.2323
X7.2766Y-2.6624
X7.2835Y-2.5
X7.2835Y-3.7402
X7.3228Y-2.4409
X7.3425Y-2.9528
X7.3622Y-3.0315
X7.3622Y-3.5039
X7.3622Y-4.3307
X7.3622Y-4.6063
X7.3819Y-2.4578
X7.3819Y-2.4578
X7.3819Y-3.8976
X7.4016Y-2.7953
X7.4016Y-3.6614
X7.4409Y-3.0709
X7.4606Y-3.9173
X7.5394Y-3.9892
X7.5591Y-3.7008
X7.5595Y-3.6487
X7.5787Y-3.9567
X7.5984Y-2.5
X7.6102Y-3.7927
X7.6181Y-4.1732
X7.6772Y-2.4409
X7.6772Y-3.3858
X7.6772Y-4.9213
X7.7165Y-4.2913
X7.7362Y-2.7559
X7.7436Y-3.2603
X7.7559Y-3.0709
X7.7559Y-3.1496
X7.7559Y-3.6024
X7.7559Y-3.8976
X7.7559Y-4.0157
X7.7756Y-2.5
X7.7756Y-2.815
X7.7844Y-2.9331
X7.7844Y-3.248
X7.815Y-3.4449
X7.815Y-3.5039
X7.815Y-3.8189
X7.815Y-3.8976
X7.8415Y-3.3268
X7.8455Y-3.0709
X7.8543Y-2.5197
X7.8543Y-3.2283
X7.8543Y-3.5827
X7.8543Y-4.1339
X7.8593Y-2.5805
X7.8593Y-3.0118
X7.8652Y-3.2677
X7.874Y-2.4409
X7.874Y-3.1102
X7.874Y-4.0157
X7.874Y-4.0945
X7.874Y-4.4882
X7.8866Y-4.3648
X7.8937Y-3.1693
X7.8937Y-3.4449
X7.8937Y-3.7402
X7.9134Y-3.4843
X7.9134Y-3.9764
X7.9209Y-3.5509
X7.9283Y-5.2165
X7.9331Y-3.6673
X7.9331Y-4.9102
X7.9504Y-3.607
X7.9921Y-4.0354
X8.0118Y-3.8671
X8.0118Y-3.9567
X8.0315Y-3.4449
X8.0315Y-3.5236
X8.0315Y-4.803
X8.0709Y-3.0709
X8.1299Y-2.5591
X8.1299Y-3.4843
X8.1432Y-3.5236
X8.1693Y-3.2283
X8.1717Y-3.7774
X8.2084Y-3.5426
X8.3465Y-4.5079
X8.3661Y-3.8976
X8.3661Y-4.6063
X8.3858Y-3.6417
X8.4055Y-4.4685
X8.4055Y-4.7638
X8.4055Y-4.8425
X8.4287Y-3.3499
X8.5433Y-2.5
X8.5433Y-2.5
X8.6614Y-3.189
X8.7008Y-4.0354
X8.7096Y-4.1535
X8.7205Y-3.1102
X8.7795Y-2.6772
X8.7795Y-2.9331
X8.7795Y-4.1142
X8.8189Y-4.0748
T4
X5.2362Y-3.1299
X5.2362Y-3.248
X5.2362Y-3.3858
X5.2512Y-4.5669
X5.5362Y-3.1299
X5.5362Y-3.248
X5.5362Y-3.3858
X5.5512Y-4.5669
X5.7087Y-3.1299
X5.7087Y-3.248
X5.7087Y-3.3661
X6.0087Y-3.1299
X6.0087Y-3.248
X6.0087Y-3.3661
X6.2008Y-3.0906
X6.2008Y-3.2087
X6.2795Y-4.1732
X6.2992Y-4.9016
X6.2992Y-5.0
X6.5008Y-3.0906
X6.5008Y-3.2087
X6.5795Y-4.1732
X6.5945Y-4.5031
X6.5945Y-4.8031
X6.5992Y-4.9016
X6.5992Y-5.0
X6.6929Y-4.5276
X6.6929Y-4.8276
X6.7717Y-4.3504
X6.7717Y-4.6504
X6.7866Y-4.8425
X6.7866Y-4.9606
X6.8898Y-4.3457
X6.8898Y-4.6457
X7.0866Y-4.8425
X7.0866Y-4.9606
X7.185Y-4.685
X7.185Y-4.985
X7.2197Y-3.7402
X7.2244Y-3.8583
X7.3031Y-4.6803
X7.3031Y-4.9803
X7.4409Y-4.5472
X7.4409Y-4.8472
X7.5197Y-3.7402
X7.5197Y-4.4094
X7.5244Y-3.8583
X7.5346Y-5.2165
X7.5394Y-4.9803
X7.5394Y-5.0984
X7.5394Y-5.315
X7.5591Y-4.5472
X7.5591Y-4.8472
X7.6724Y-3.563
X7.6724Y-3.7008
X7.6724Y-4.2323
X7.6772Y-3.4449
X7.6772Y-3.8189
X7.6772Y-4.1142
X7.6772Y-4.5425
X7.6772Y-4.8425
X7.815Y-4.5472
X7.815Y-4.8472
X7.8197Y-4.4094
X7.8346Y-5.2165
X7.8394Y-4.9803
X7.8394Y-5.0984
X7.8394Y-5.315
X7.9331Y-4.5472
X7.9331Y-4.8472
X7.9331Y-5.0984
X7.9724Y-3.563
X7.9724Y-3.7008
X7.9724Y-4.2323
X7.9772Y-3.4449
X7.9772Y-3.8189
X7.9772Y-4.1142
X8.2331Y-5.0984
T5
X7.1084Y-3.1483
X7.1084Y-3.2483
X7.1084Y-3.3483
X7.1084Y-3.4483
X7.1084Y-3.5483
X7.1084Y-3.6483
X7.1084Y-3.7483
X7.1084Y-3.8483
X7.1084Y-3.9483
X7.1084Y-4.0483
X7.1084Y-4.1483
X7.1084Y-4.2483
X7.1084Y-4.3483
X7.1084Y-4.4483
X7.1084Y-4.4483
X7.1084Y-4.5483
X8.0884Y-3.1483
X8.0884Y-3.2483
X8.0884Y-3.3483
X8.0884Y-3.4483
X8.0884Y-3.5483
X8.0884Y-3.6483
X8.0884Y-3.7483
X8.0884Y-3.8483
X8.0884Y-3.9483
X8.0884Y-4.0483
X8.0884Y-4.1483
X8.0884Y-4.2483
X8.0884Y-4.3483
X8.0884Y-4.4483
X8.0884Y-4.5483
T6
X3.4291Y-2.7646
X3.4291Y-2.8646
X3.4291Y-2.9646
X3.4291Y-3.0646
X3.4291Y-3.1646
X3.6291Y-2.7646
X3.6291Y-2.8646
X3.6291Y-2.9646
X3.6291Y-3.0646
X3.6291Y-3.1646
X3.748Y-2.7646
X3.748Y-2.8646
X3.748Y-2.9646
X3.748Y-3.0646
X3.748Y-3.1646
X3.948Y-2.7646
X3.948Y-2.8646
X3.948Y-2.9646
X3.948Y-3.0646
X3.948Y-3.1646
X4.0669Y-2.7646
X4.0669Y-2.8646
X4.0669Y-2.9646
X4.0669Y-3.0646
X4.0669Y-3.1646
X4.2669Y-2.7646
X4.2669Y-2.8646
X4.2669Y-2.9646
X4.2669Y-3.0646
X4.2669Y-3.1646
X4.3858Y-2.7646
X4.3858Y-2.8646
X4.3858Y-2.9646
X4.3858Y-3.0646
X4.3858Y-3.1646
X4.5858Y-2.7646
X4.5858Y-2.8646
X4.5858Y-2.9646
X4.5858Y-3.0646
X4.5858Y-3.1646
X5.315Y-4.0945
X5.315Y-4.3307
X5.315Y-4.4291
X5.5118Y-4.3307
X5.5118Y-4.4291
X5.6727Y-4.1555
X5.7677Y-4.0945
X5.7677Y-4.3307
X5.7677Y-4.4291
X5.9646Y-4.3307
X5.9646Y-4.4291
X6.0433Y-4.0945
X6.0433Y-4.685
X6.1024Y-3.0709
X6.1024Y-3.2677
X6.1567Y-4.311
X6.1567Y-4.411
X6.1567Y-4.511
X6.1567Y-4.611
X6.1764Y-3.3465
X6.1764Y-3.4465
X6.1764Y-3.5465
X6.1764Y-3.6465
X6.1764Y-3.7465
X6.1764Y-3.8465
X6.1764Y-3.9465
X6.1764Y-4.0465
X6.4567Y-4.311
X6.4567Y-4.411
X6.4567Y-4.511
X6.4567Y-4.611
X6.4764Y-3.3465
X6.4764Y-3.4465
X6.4764Y-3.5465
X6.4764Y-3.6465
X6.4764Y-3.7465
X6.4764Y-3.8465
X6.4764Y-3.9465
X6.4764Y-4.0465
X6.6291Y-2.9724
X6.6291Y-3.0724
X6.6291Y-3.1724
X6.6291Y-3.2724
X6.6291Y-3.3724
X6.6291Y-3.4724
X6.6291Y-3.5724
X6.6291Y-3.6724
X6.6291Y-3.7724
X6.6291Y-3.8724
X6.6732Y-4.0945
X6.6732Y-4.2913
X6.811Y-2.8543
X6.811Y-3.0512
X6.9291Y-2.9724
X6.9291Y-3.0724
X6.9291Y-3.1724
X6.9291Y-3.2724
X6.9291Y-3.3724
X6.9291Y-3.4724
X6.9291Y-3.5724
X6.9291Y-3.6724
X6.9291Y-3.7724
X6.9291Y-3.8724
X6.9685Y-4.252
X6.9685Y-4.5472
X7.1063Y-4.7047
X7.2394Y-2.874
X7.2394Y-2.974
X7.2394Y-3.074
X7.2394Y-3.174
X7.2394Y-3.274
X7.2394Y-3.374
X7.2394Y-3.474
X7.2394Y-3.574
X7.3425Y-2.6181
X7.5394Y-2.6181
X7.5394Y-2.874
X7.5394Y-2.974
X7.5394Y-3.074
X7.5394Y-3.174
X7.5394Y-3.274
X7.5394Y-3.374
X7.5394Y-3.474
X7.5394Y-3.574
X7.6724Y-2.6181
X7.6724Y-2.7181
X7.6724Y-2.8181
X7.6724Y-2.9181
X7.6724Y-3.0181
X7.6724Y-3.1181
X7.6724Y-3.2181
X7.6724Y-3.3181
X7.9724Y-2.6181
X7.9724Y-2.7181
X7.9724Y-2.8181
X7.9724Y-2.9181
X7.9724Y-3.0181
X7.9724Y-3.1181
X7.9724Y-3.2181
X7.9724Y-3.3181
X8.0906Y-2.7953
X8.0906Y-2.9921
X8.2433Y-2.9921
X8.2433Y-3.0921
X8.2433Y-3.1921
X8.2433Y-3.2921
X8.2433Y-3.3921
X8.2433Y-3.4921
X8.2433Y-3.5921
X8.2433Y-3.6921
X8.2433Y-3.7921
X8.2433Y-3.8921
X8.248Y-3.9961
X8.263Y-4.1142
X8.263Y-4.2142
X8.263Y-4.3142
X8.263Y-4.4142
X8.263Y-4.5142
X8.263Y-4.6142
X8.263Y-4.7142
X8.4449Y-3.9961
X8.5433Y-2.9921
X8.5433Y-3.0921
X8.5433Y-3.1921
X8.5433Y-3.2921
X8.5433Y-3.3921
X8.5433Y-3.4921
X8.5433Y-3.5921
X8.5433Y-3.6921
X8.5433Y-3.7921
X8.5433Y-3.8921
X8.563Y-4.1142
X8.563Y-4.2142
X8.563Y-4.3142
X8.563Y-4.4142
X8.563Y-4.5142
X8.563Y-4.6142
X8.563Y-4.7142
T7
X3.6551Y-3.5976
X3.6551Y-3.6976
X3.7551Y-3.5976
X3.7551Y-3.6976
X3.8551Y-3.5976
X3.8551Y-3.6976
X3.9551Y-3.5976
X3.9551Y-3.6976
X4.0551Y-3.5976
X4.0551Y-3.6976
X4.1551Y-3.5976
X4.1551Y-3.6976
X4.2551Y-3.5976
X4.2551Y-3.6976
X5.3346Y-3.1299
X5.3346Y-3.248
X5.3346Y-3.3858
X5.4346Y-3.1299
X5.4346Y-3.248
X5.4346Y-3.3858
X5.8071Y-3.1299
X5.8071Y-3.248
X5.8071Y-3.3661
X5.9071Y-3.1299
X5.9071Y-3.248
X5.9071Y-3.3661
X6.1811Y-4.8425
X6.1811Y-4.9425
X6.1811Y-5.0425
X6.1811Y-5.1425
X6.1811Y-5.2425
X6.2992Y-3.0906
X6.2992Y-3.2087
X6.3992Y-3.0906
X6.3992Y-3.2087
X6.5945Y-2.5575
X6.5945Y-2.6575
X6.6945Y-2.5575
X6.6945Y-2.6575
X6.7945Y-2.5575
X6.7945Y-2.6575
X6.8945Y-2.5575
X6.8945Y-2.6575
X6.9945Y-2.5575
X6.9945Y-2.6575
X7.0945Y-2.5575
X7.0945Y-2.6575
X7.1945Y-2.5575
X7.1945Y-2.6575
X8.2087Y-2.615
X8.2087Y-2.715
X8.2087Y-2.815
T8
X5.2559Y-4.685
X5.315Y-4.2323
X5.415Y-4.2323
X5.515Y-4.2323
X5.5559Y-4.685
X5.7646Y-4.5669
X5.7677Y-4.2323
X5.8646Y-4.5669
X5.8677Y-4.2323
X5.9646Y-4.5669
X5.9677Y-4.2323
T9
X5.8071Y-2.815
X6.0039Y-2.815
T10
X5.2953Y-2.7756
X5.2953Y-5.0787
X5.4921Y-2.7756
X5.4921Y-5.0787
X8.4055Y-5.0787
X8.4449Y-2.7756
X8.6024Y-5.0787
X8.6417Y-2.7756
T11
X6.5551Y-5.1969
X6.7551Y-5.1969
X6.9551Y-5.1969
X7.1551Y-5.1969
X7.3551Y-5.1969
T12
X3.2394Y-2.515
X3.2394Y-3.8142
X4.7748Y-2.515
X4.7748Y-3.8142
T0
M30
