%TF.GenerationSoftware,KiCad,Pcbnew,5.1.10-88a1d61d58~90~ubuntu20.04.1*%
%TF.CreationDate,2021-11-05T17:14:26+01:00*%
%TF.ProjectId,menelaos-v2,6d656e65-6c61-46f7-932d-76322e6b6963,rev?*%
%TF.SameCoordinates,Original*%
%TF.FileFunction,Legend,Bot*%
%TF.FilePolarity,Positive*%
%FSLAX46Y46*%
G04 Gerber Fmt 4.6, Leading zero omitted, Abs format (unit mm)*
G04 Created by KiCad (PCBNEW 5.1.10-88a1d61d58~90~ubuntu20.04.1) date 2021-11-05 17:14:26*
%MOMM*%
%LPD*%
G01*
G04 APERTURE LIST*
%ADD10C,0.120000*%
%ADD11C,0.150000*%
G04 APERTURE END LIST*
D10*
%TO.C,J2*%
X163870000Y-80170000D02*
X163870000Y-82830000D01*
X161270000Y-80170000D02*
X163870000Y-80170000D01*
X161270000Y-82830000D02*
X163870000Y-82830000D01*
X161270000Y-80170000D02*
X161270000Y-82830000D01*
X160000000Y-80170000D02*
X158670000Y-80170000D01*
X158670000Y-80170000D02*
X158670000Y-81500000D01*
%TO.C,J3*%
X146170000Y-84170000D02*
X146170000Y-85500000D01*
X147500000Y-84170000D02*
X146170000Y-84170000D01*
X148770000Y-84170000D02*
X148770000Y-86830000D01*
X148770000Y-86830000D02*
X151370000Y-86830000D01*
X148770000Y-84170000D02*
X151370000Y-84170000D01*
X151370000Y-84170000D02*
X151370000Y-86830000D01*
%TO.C,J4*%
X151370000Y-78170000D02*
X151370000Y-80830000D01*
X148770000Y-78170000D02*
X151370000Y-78170000D01*
X148770000Y-80830000D02*
X151370000Y-80830000D01*
X148770000Y-78170000D02*
X148770000Y-80830000D01*
X147500000Y-78170000D02*
X146170000Y-78170000D01*
X146170000Y-78170000D02*
X146170000Y-79500000D01*
%TO.C,J5*%
X146170000Y-81170000D02*
X146170000Y-82500000D01*
X147500000Y-81170000D02*
X146170000Y-81170000D01*
X148770000Y-81170000D02*
X148770000Y-83830000D01*
X148770000Y-83830000D02*
X151370000Y-83830000D01*
X148770000Y-81170000D02*
X151370000Y-81170000D01*
X151370000Y-81170000D02*
X151370000Y-83830000D01*
%TO.C,J6*%
X139370000Y-84670000D02*
X139370000Y-87330000D01*
X136770000Y-84670000D02*
X139370000Y-84670000D01*
X136770000Y-87330000D02*
X139370000Y-87330000D01*
X136770000Y-84670000D02*
X136770000Y-87330000D01*
X135500000Y-84670000D02*
X134170000Y-84670000D01*
X134170000Y-84670000D02*
X134170000Y-86000000D01*
%TO.C,J7*%
X134170000Y-81170000D02*
X134170000Y-82500000D01*
X135500000Y-81170000D02*
X134170000Y-81170000D01*
X136770000Y-81170000D02*
X136770000Y-83830000D01*
X136770000Y-83830000D02*
X139370000Y-83830000D01*
X136770000Y-81170000D02*
X139370000Y-81170000D01*
X139370000Y-81170000D02*
X139370000Y-83830000D01*
%TO.C,J8*%
X134170000Y-78170000D02*
X134170000Y-79500000D01*
X135500000Y-78170000D02*
X134170000Y-78170000D01*
X136770000Y-78170000D02*
X136770000Y-80830000D01*
X136770000Y-80830000D02*
X139370000Y-80830000D01*
X136770000Y-78170000D02*
X139370000Y-78170000D01*
X139370000Y-78170000D02*
X139370000Y-80830000D01*
%TO.C,J9*%
X163870000Y-77170000D02*
X163870000Y-79830000D01*
X161270000Y-77170000D02*
X163870000Y-77170000D01*
X161270000Y-79830000D02*
X163870000Y-79830000D01*
X161270000Y-77170000D02*
X161270000Y-79830000D01*
X160000000Y-77170000D02*
X158670000Y-77170000D01*
X158670000Y-77170000D02*
X158670000Y-78500000D01*
%TO.C,U4*%
X166940000Y-74110000D02*
X177440000Y-74110000D01*
X166940000Y-99750000D02*
X166940000Y-74110000D01*
X177440000Y-99750000D02*
X166940000Y-99750000D01*
X177440000Y-74110000D02*
X177440000Y-99750000D01*
X169940000Y-74170000D02*
X171190000Y-74170000D01*
X169940000Y-99690000D02*
X169940000Y-74170000D01*
X174440000Y-99690000D02*
X169940000Y-99690000D01*
X174440000Y-74170000D02*
X174440000Y-99690000D01*
X173190000Y-74170000D02*
X174440000Y-74170000D01*
X171190000Y-74170000D02*
G75*
G03*
X173190000Y-74170000I1000000J0D01*
G01*
%TO.C,U5*%
X193440000Y-65110000D02*
X203940000Y-65110000D01*
X193440000Y-85670000D02*
X193440000Y-65110000D01*
X203940000Y-85670000D02*
X193440000Y-85670000D01*
X203940000Y-65110000D02*
X203940000Y-85670000D01*
X196440000Y-65170000D02*
X197690000Y-65170000D01*
X196440000Y-85610000D02*
X196440000Y-65170000D01*
X200940000Y-85610000D02*
X196440000Y-85610000D01*
X200940000Y-65170000D02*
X200940000Y-85610000D01*
X199690000Y-65170000D02*
X200940000Y-65170000D01*
X197690000Y-65170000D02*
G75*
G03*
X199690000Y-65170000I1000000J0D01*
G01*
%TO.C,U6*%
X208440000Y-103110000D02*
X218940000Y-103110000D01*
X208440000Y-121130000D02*
X208440000Y-103110000D01*
X218940000Y-121130000D02*
X208440000Y-121130000D01*
X218940000Y-103110000D02*
X218940000Y-121130000D01*
X211440000Y-103170000D02*
X212690000Y-103170000D01*
X211440000Y-121070000D02*
X211440000Y-103170000D01*
X215940000Y-121070000D02*
X211440000Y-121070000D01*
X215940000Y-103170000D02*
X215940000Y-121070000D01*
X214690000Y-103170000D02*
X215940000Y-103170000D01*
X212690000Y-103170000D02*
G75*
G03*
X214690000Y-103170000I1000000J0D01*
G01*
%TO.C,U7*%
X155440000Y-83610000D02*
X165940000Y-83610000D01*
X155440000Y-104170000D02*
X155440000Y-83610000D01*
X165940000Y-104170000D02*
X155440000Y-104170000D01*
X165940000Y-83610000D02*
X165940000Y-104170000D01*
X158440000Y-83670000D02*
X159690000Y-83670000D01*
X158440000Y-104110000D02*
X158440000Y-83670000D01*
X162940000Y-104110000D02*
X158440000Y-104110000D01*
X162940000Y-83670000D02*
X162940000Y-104110000D01*
X161690000Y-83670000D02*
X162940000Y-83670000D01*
X159690000Y-83670000D02*
G75*
G03*
X161690000Y-83670000I1000000J0D01*
G01*
%TO.C,U8*%
X214190000Y-74670000D02*
X215440000Y-74670000D01*
X215440000Y-74670000D02*
X215440000Y-100190000D01*
X215440000Y-100190000D02*
X210940000Y-100190000D01*
X210940000Y-100190000D02*
X210940000Y-74670000D01*
X210940000Y-74670000D02*
X212190000Y-74670000D01*
X218440000Y-74610000D02*
X218440000Y-100250000D01*
X218440000Y-100250000D02*
X207940000Y-100250000D01*
X207940000Y-100250000D02*
X207940000Y-74610000D01*
X207940000Y-74610000D02*
X218440000Y-74610000D01*
X212190000Y-74670000D02*
G75*
G03*
X214190000Y-74670000I1000000J0D01*
G01*
%TO.C,U9*%
X188690000Y-71670000D02*
X189940000Y-71670000D01*
X189940000Y-71670000D02*
X189940000Y-92110000D01*
X189940000Y-92110000D02*
X185440000Y-92110000D01*
X185440000Y-92110000D02*
X185440000Y-71670000D01*
X185440000Y-71670000D02*
X186690000Y-71670000D01*
X192940000Y-71610000D02*
X192940000Y-92170000D01*
X192940000Y-92170000D02*
X182440000Y-92170000D01*
X182440000Y-92170000D02*
X182440000Y-71610000D01*
X182440000Y-71610000D02*
X192940000Y-71610000D01*
X186690000Y-71670000D02*
G75*
G03*
X188690000Y-71670000I1000000J0D01*
G01*
%TO.C,U1*%
X154940000Y-108110000D02*
X165440000Y-108110000D01*
X154940000Y-118510000D02*
X154940000Y-108110000D01*
X165440000Y-118510000D02*
X154940000Y-118510000D01*
X165440000Y-108110000D02*
X165440000Y-118510000D01*
X157940000Y-108170000D02*
X159190000Y-108170000D01*
X157940000Y-118450000D02*
X157940000Y-108170000D01*
X162440000Y-118450000D02*
X157940000Y-118450000D01*
X162440000Y-108170000D02*
X162440000Y-118450000D01*
X161190000Y-108170000D02*
X162440000Y-108170000D01*
X159190000Y-108170000D02*
G75*
G03*
X161190000Y-108170000I1000000J0D01*
G01*
%TO.C,J2*%
D11*
X157122380Y-81166666D02*
X157836666Y-81166666D01*
X157979523Y-81119047D01*
X158074761Y-81023809D01*
X158122380Y-80880952D01*
X158122380Y-80785714D01*
X157217619Y-81595238D02*
X157170000Y-81642857D01*
X157122380Y-81738095D01*
X157122380Y-81976190D01*
X157170000Y-82071428D01*
X157217619Y-82119047D01*
X157312857Y-82166666D01*
X157408095Y-82166666D01*
X157550952Y-82119047D01*
X158122380Y-81547619D01*
X158122380Y-82166666D01*
%TO.C,J3*%
X144622380Y-85166666D02*
X145336666Y-85166666D01*
X145479523Y-85119047D01*
X145574761Y-85023809D01*
X145622380Y-84880952D01*
X145622380Y-84785714D01*
X144622380Y-85547619D02*
X144622380Y-86166666D01*
X145003333Y-85833333D01*
X145003333Y-85976190D01*
X145050952Y-86071428D01*
X145098571Y-86119047D01*
X145193809Y-86166666D01*
X145431904Y-86166666D01*
X145527142Y-86119047D01*
X145574761Y-86071428D01*
X145622380Y-85976190D01*
X145622380Y-85690476D01*
X145574761Y-85595238D01*
X145527142Y-85547619D01*
%TO.C,J4*%
X144622380Y-79166666D02*
X145336666Y-79166666D01*
X145479523Y-79119047D01*
X145574761Y-79023809D01*
X145622380Y-78880952D01*
X145622380Y-78785714D01*
X144955714Y-80071428D02*
X145622380Y-80071428D01*
X144574761Y-79833333D02*
X145289047Y-79595238D01*
X145289047Y-80214285D01*
%TO.C,J5*%
X144622380Y-82166666D02*
X145336666Y-82166666D01*
X145479523Y-82119047D01*
X145574761Y-82023809D01*
X145622380Y-81880952D01*
X145622380Y-81785714D01*
X144622380Y-83119047D02*
X144622380Y-82642857D01*
X145098571Y-82595238D01*
X145050952Y-82642857D01*
X145003333Y-82738095D01*
X145003333Y-82976190D01*
X145050952Y-83071428D01*
X145098571Y-83119047D01*
X145193809Y-83166666D01*
X145431904Y-83166666D01*
X145527142Y-83119047D01*
X145574761Y-83071428D01*
X145622380Y-82976190D01*
X145622380Y-82738095D01*
X145574761Y-82642857D01*
X145527142Y-82595238D01*
%TO.C,J6*%
X132622380Y-85666666D02*
X133336666Y-85666666D01*
X133479523Y-85619047D01*
X133574761Y-85523809D01*
X133622380Y-85380952D01*
X133622380Y-85285714D01*
X132622380Y-86571428D02*
X132622380Y-86380952D01*
X132670000Y-86285714D01*
X132717619Y-86238095D01*
X132860476Y-86142857D01*
X133050952Y-86095238D01*
X133431904Y-86095238D01*
X133527142Y-86142857D01*
X133574761Y-86190476D01*
X133622380Y-86285714D01*
X133622380Y-86476190D01*
X133574761Y-86571428D01*
X133527142Y-86619047D01*
X133431904Y-86666666D01*
X133193809Y-86666666D01*
X133098571Y-86619047D01*
X133050952Y-86571428D01*
X133003333Y-86476190D01*
X133003333Y-86285714D01*
X133050952Y-86190476D01*
X133098571Y-86142857D01*
X133193809Y-86095238D01*
%TO.C,J7*%
X132622380Y-82166666D02*
X133336666Y-82166666D01*
X133479523Y-82119047D01*
X133574761Y-82023809D01*
X133622380Y-81880952D01*
X133622380Y-81785714D01*
X132622380Y-82547619D02*
X132622380Y-83214285D01*
X133622380Y-82785714D01*
%TO.C,J8*%
X132622380Y-79166666D02*
X133336666Y-79166666D01*
X133479523Y-79119047D01*
X133574761Y-79023809D01*
X133622380Y-78880952D01*
X133622380Y-78785714D01*
X133050952Y-79785714D02*
X133003333Y-79690476D01*
X132955714Y-79642857D01*
X132860476Y-79595238D01*
X132812857Y-79595238D01*
X132717619Y-79642857D01*
X132670000Y-79690476D01*
X132622380Y-79785714D01*
X132622380Y-79976190D01*
X132670000Y-80071428D01*
X132717619Y-80119047D01*
X132812857Y-80166666D01*
X132860476Y-80166666D01*
X132955714Y-80119047D01*
X133003333Y-80071428D01*
X133050952Y-79976190D01*
X133050952Y-79785714D01*
X133098571Y-79690476D01*
X133146190Y-79642857D01*
X133241428Y-79595238D01*
X133431904Y-79595238D01*
X133527142Y-79642857D01*
X133574761Y-79690476D01*
X133622380Y-79785714D01*
X133622380Y-79976190D01*
X133574761Y-80071428D01*
X133527142Y-80119047D01*
X133431904Y-80166666D01*
X133241428Y-80166666D01*
X133146190Y-80119047D01*
X133098571Y-80071428D01*
X133050952Y-79976190D01*
%TO.C,J9*%
X157122380Y-78166666D02*
X157836666Y-78166666D01*
X157979523Y-78119047D01*
X158074761Y-78023809D01*
X158122380Y-77880952D01*
X158122380Y-77785714D01*
X158122380Y-78690476D02*
X158122380Y-78880952D01*
X158074761Y-78976190D01*
X158027142Y-79023809D01*
X157884285Y-79119047D01*
X157693809Y-79166666D01*
X157312857Y-79166666D01*
X157217619Y-79119047D01*
X157170000Y-79071428D01*
X157122380Y-78976190D01*
X157122380Y-78785714D01*
X157170000Y-78690476D01*
X157217619Y-78642857D01*
X157312857Y-78595238D01*
X157550952Y-78595238D01*
X157646190Y-78642857D01*
X157693809Y-78690476D01*
X157741428Y-78785714D01*
X157741428Y-78976190D01*
X157693809Y-79071428D01*
X157646190Y-79119047D01*
X157550952Y-79166666D01*
%TO.C,U4*%
X172951904Y-72622380D02*
X172951904Y-73431904D01*
X172904285Y-73527142D01*
X172856666Y-73574761D01*
X172761428Y-73622380D01*
X172570952Y-73622380D01*
X172475714Y-73574761D01*
X172428095Y-73527142D01*
X172380476Y-73431904D01*
X172380476Y-72622380D01*
X171475714Y-72955714D02*
X171475714Y-73622380D01*
X171713809Y-72574761D02*
X171951904Y-73289047D01*
X171332857Y-73289047D01*
%TO.C,U5*%
X199451904Y-63622380D02*
X199451904Y-64431904D01*
X199404285Y-64527142D01*
X199356666Y-64574761D01*
X199261428Y-64622380D01*
X199070952Y-64622380D01*
X198975714Y-64574761D01*
X198928095Y-64527142D01*
X198880476Y-64431904D01*
X198880476Y-63622380D01*
X197928095Y-63622380D02*
X198404285Y-63622380D01*
X198451904Y-64098571D01*
X198404285Y-64050952D01*
X198309047Y-64003333D01*
X198070952Y-64003333D01*
X197975714Y-64050952D01*
X197928095Y-64098571D01*
X197880476Y-64193809D01*
X197880476Y-64431904D01*
X197928095Y-64527142D01*
X197975714Y-64574761D01*
X198070952Y-64622380D01*
X198309047Y-64622380D01*
X198404285Y-64574761D01*
X198451904Y-64527142D01*
%TO.C,U6*%
X214451904Y-101622380D02*
X214451904Y-102431904D01*
X214404285Y-102527142D01*
X214356666Y-102574761D01*
X214261428Y-102622380D01*
X214070952Y-102622380D01*
X213975714Y-102574761D01*
X213928095Y-102527142D01*
X213880476Y-102431904D01*
X213880476Y-101622380D01*
X212975714Y-101622380D02*
X213166190Y-101622380D01*
X213261428Y-101670000D01*
X213309047Y-101717619D01*
X213404285Y-101860476D01*
X213451904Y-102050952D01*
X213451904Y-102431904D01*
X213404285Y-102527142D01*
X213356666Y-102574761D01*
X213261428Y-102622380D01*
X213070952Y-102622380D01*
X212975714Y-102574761D01*
X212928095Y-102527142D01*
X212880476Y-102431904D01*
X212880476Y-102193809D01*
X212928095Y-102098571D01*
X212975714Y-102050952D01*
X213070952Y-102003333D01*
X213261428Y-102003333D01*
X213356666Y-102050952D01*
X213404285Y-102098571D01*
X213451904Y-102193809D01*
%TO.C,U7*%
X161451904Y-82122380D02*
X161451904Y-82931904D01*
X161404285Y-83027142D01*
X161356666Y-83074761D01*
X161261428Y-83122380D01*
X161070952Y-83122380D01*
X160975714Y-83074761D01*
X160928095Y-83027142D01*
X160880476Y-82931904D01*
X160880476Y-82122380D01*
X160499523Y-82122380D02*
X159832857Y-82122380D01*
X160261428Y-83122380D01*
%TO.C,U8*%
X213951904Y-73122380D02*
X213951904Y-73931904D01*
X213904285Y-74027142D01*
X213856666Y-74074761D01*
X213761428Y-74122380D01*
X213570952Y-74122380D01*
X213475714Y-74074761D01*
X213428095Y-74027142D01*
X213380476Y-73931904D01*
X213380476Y-73122380D01*
X212761428Y-73550952D02*
X212856666Y-73503333D01*
X212904285Y-73455714D01*
X212951904Y-73360476D01*
X212951904Y-73312857D01*
X212904285Y-73217619D01*
X212856666Y-73170000D01*
X212761428Y-73122380D01*
X212570952Y-73122380D01*
X212475714Y-73170000D01*
X212428095Y-73217619D01*
X212380476Y-73312857D01*
X212380476Y-73360476D01*
X212428095Y-73455714D01*
X212475714Y-73503333D01*
X212570952Y-73550952D01*
X212761428Y-73550952D01*
X212856666Y-73598571D01*
X212904285Y-73646190D01*
X212951904Y-73741428D01*
X212951904Y-73931904D01*
X212904285Y-74027142D01*
X212856666Y-74074761D01*
X212761428Y-74122380D01*
X212570952Y-74122380D01*
X212475714Y-74074761D01*
X212428095Y-74027142D01*
X212380476Y-73931904D01*
X212380476Y-73741428D01*
X212428095Y-73646190D01*
X212475714Y-73598571D01*
X212570952Y-73550952D01*
%TO.C,U9*%
X188451904Y-70122380D02*
X188451904Y-70931904D01*
X188404285Y-71027142D01*
X188356666Y-71074761D01*
X188261428Y-71122380D01*
X188070952Y-71122380D01*
X187975714Y-71074761D01*
X187928095Y-71027142D01*
X187880476Y-70931904D01*
X187880476Y-70122380D01*
X187356666Y-71122380D02*
X187166190Y-71122380D01*
X187070952Y-71074761D01*
X187023333Y-71027142D01*
X186928095Y-70884285D01*
X186880476Y-70693809D01*
X186880476Y-70312857D01*
X186928095Y-70217619D01*
X186975714Y-70170000D01*
X187070952Y-70122380D01*
X187261428Y-70122380D01*
X187356666Y-70170000D01*
X187404285Y-70217619D01*
X187451904Y-70312857D01*
X187451904Y-70550952D01*
X187404285Y-70646190D01*
X187356666Y-70693809D01*
X187261428Y-70741428D01*
X187070952Y-70741428D01*
X186975714Y-70693809D01*
X186928095Y-70646190D01*
X186880476Y-70550952D01*
%TO.C,U1*%
X160951904Y-106622380D02*
X160951904Y-107431904D01*
X160904285Y-107527142D01*
X160856666Y-107574761D01*
X160761428Y-107622380D01*
X160570952Y-107622380D01*
X160475714Y-107574761D01*
X160428095Y-107527142D01*
X160380476Y-107431904D01*
X160380476Y-106622380D01*
X159380476Y-107622380D02*
X159951904Y-107622380D01*
X159666190Y-107622380D02*
X159666190Y-106622380D01*
X159761428Y-106765238D01*
X159856666Y-106860476D01*
X159951904Y-106908095D01*
%TD*%
M02*
