%TF.GenerationSoftware,KiCad,Pcbnew,5.1.10-88a1d61d58~90~ubuntu20.04.1*%
%TF.CreationDate,2021-11-05T17:14:26+01:00*%
%TF.ProjectId,menelaos-v2,6d656e65-6c61-46f7-932d-76322e6b6963,rev?*%
%TF.SameCoordinates,Original*%
%TF.FileFunction,Soldermask,Top*%
%TF.FilePolarity,Negative*%
%FSLAX46Y46*%
G04 Gerber Fmt 4.6, Leading zero omitted, Abs format (unit mm)*
G04 Created by KiCad (PCBNEW 5.1.10-88a1d61d58~90~ubuntu20.04.1) date 2021-11-05 17:14:26*
%MOMM*%
%LPD*%
G01*
G04 APERTURE LIST*
%ADD10O,1.700000X1.700000*%
%ADD11R,1.700000X1.700000*%
%ADD12C,0.800000*%
%ADD13C,6.400000*%
%ADD14C,1.600000*%
%ADD15R,1.600000X1.600000*%
%ADD16R,2.400000X2.400000*%
%ADD17C,2.400000*%
%ADD18R,2.200000X2.200000*%
%ADD19O,2.200000X2.200000*%
%ADD20C,3.000000*%
%ADD21R,3.000000X3.000000*%
%ADD22O,3.500000X3.500000*%
%ADD23R,1.905000X2.000000*%
%ADD24O,1.905000X2.000000*%
%ADD25O,1.400000X1.400000*%
%ADD26C,1.400000*%
%ADD27R,1.980000X3.960000*%
%ADD28O,1.980000X3.960000*%
%ADD29R,2.400000X1.600000*%
%ADD30O,2.400000X1.600000*%
%ADD31C,1.524000*%
%ADD32C,0.254000*%
%ADD33C,0.100000*%
G04 APERTURE END LIST*
D10*
%TO.C,J21*%
X92840000Y-93920000D03*
X92840000Y-91380000D03*
X95380000Y-93920000D03*
X95380000Y-91380000D03*
X97920000Y-93920000D03*
X97920000Y-91380000D03*
X100460000Y-93920000D03*
X100460000Y-91380000D03*
X103000000Y-93920000D03*
X103000000Y-91380000D03*
X105540000Y-93920000D03*
X105540000Y-91380000D03*
X108080000Y-93920000D03*
D11*
X108080000Y-91380000D03*
%TD*%
D12*
%TO.C,H4*%
X122977056Y-95182944D03*
X121280000Y-94480000D03*
X119582944Y-95182944D03*
X118880000Y-96880000D03*
X119582944Y-98577056D03*
X121280000Y-99280000D03*
X122977056Y-98577056D03*
X123680000Y-96880000D03*
D13*
X121280000Y-96880000D03*
%TD*%
D12*
%TO.C,H2*%
X83977056Y-62182944D03*
X82280000Y-61480000D03*
X80582944Y-62182944D03*
X79880000Y-63880000D03*
X80582944Y-65577056D03*
X82280000Y-66280000D03*
X83977056Y-65577056D03*
X84680000Y-63880000D03*
D13*
X82280000Y-63880000D03*
%TD*%
D12*
%TO.C,H1*%
X122977056Y-62182944D03*
X121280000Y-61480000D03*
X119582944Y-62182944D03*
X118880000Y-63880000D03*
X119582944Y-65577056D03*
X121280000Y-66280000D03*
X122977056Y-65577056D03*
X123680000Y-63880000D03*
D13*
X121280000Y-63880000D03*
%TD*%
D12*
%TO.C,H3*%
X83977056Y-95182944D03*
X82280000Y-94480000D03*
X80582944Y-95182944D03*
X79880000Y-96880000D03*
X80582944Y-98577056D03*
X82280000Y-99280000D03*
X83977056Y-98577056D03*
X84680000Y-96880000D03*
D13*
X82280000Y-96880000D03*
%TD*%
D14*
%TO.C,U14*%
X92180000Y-70220000D03*
X92180000Y-72760000D03*
X92180000Y-75300000D03*
X92180000Y-77840000D03*
X92180000Y-80380000D03*
X87100000Y-80380000D03*
X87100000Y-77840000D03*
X87100000Y-75300000D03*
X87100000Y-72760000D03*
D15*
X87100000Y-70220000D03*
%TD*%
%TO.C,U12*%
X111400000Y-70220000D03*
D14*
X111400000Y-72760000D03*
X111400000Y-75300000D03*
X111400000Y-77840000D03*
X111400000Y-80380000D03*
X116480000Y-80380000D03*
X116480000Y-77840000D03*
X116480000Y-75300000D03*
X116480000Y-72760000D03*
X116480000Y-70220000D03*
%TD*%
%TO.C,U10*%
X108380000Y-70220000D03*
X108380000Y-72760000D03*
X108380000Y-75300000D03*
X108380000Y-77840000D03*
X108380000Y-80380000D03*
X103300000Y-80380000D03*
X103300000Y-77840000D03*
X103300000Y-75300000D03*
X103300000Y-72760000D03*
D15*
X103300000Y-70220000D03*
%TD*%
%TO.C,U8*%
X95200000Y-70220000D03*
D14*
X95200000Y-72760000D03*
X95200000Y-75300000D03*
X95200000Y-77840000D03*
X95200000Y-80380000D03*
X100280000Y-80380000D03*
X100280000Y-77840000D03*
X100280000Y-75300000D03*
X100280000Y-72760000D03*
X100280000Y-70220000D03*
%TD*%
D16*
%TO.C,C2*%
X147500000Y-71500000D03*
D17*
X152500000Y-71500000D03*
%TD*%
D18*
%TO.C,D1*%
X133500000Y-119000000D03*
D19*
X141120000Y-119000000D03*
%TD*%
D11*
%TO.C,J1*%
X157000000Y-123000000D03*
D10*
X157000000Y-125540000D03*
X157000000Y-128080000D03*
X157000000Y-130620000D03*
X157000000Y-133160000D03*
%TD*%
%TO.C,J2*%
X162540000Y-81500000D03*
D11*
X160000000Y-81500000D03*
%TD*%
%TO.C,J3*%
X147500000Y-85500000D03*
D10*
X150040000Y-85500000D03*
%TD*%
%TO.C,J4*%
X150040000Y-79500000D03*
D11*
X147500000Y-79500000D03*
%TD*%
%TO.C,J5*%
X147500000Y-82500000D03*
D10*
X150040000Y-82500000D03*
%TD*%
%TO.C,J6*%
X138040000Y-86000000D03*
D11*
X135500000Y-86000000D03*
%TD*%
%TO.C,J7*%
X135500000Y-82500000D03*
D10*
X138040000Y-82500000D03*
%TD*%
D11*
%TO.C,J8*%
X135500000Y-79500000D03*
D10*
X138040000Y-79500000D03*
%TD*%
%TO.C,J9*%
X162540000Y-78500000D03*
D11*
X160000000Y-78500000D03*
%TD*%
%TO.C,J10*%
X208500000Y-71500000D03*
D10*
X208500000Y-68960000D03*
X208500000Y-66420000D03*
%TD*%
D11*
%TO.C,J11*%
X167500000Y-67500000D03*
D10*
X167500000Y-64960000D03*
X170040000Y-67500000D03*
X170040000Y-64960000D03*
X172580000Y-67500000D03*
X172580000Y-64960000D03*
X175120000Y-67500000D03*
X175120000Y-64960000D03*
X177660000Y-67500000D03*
X177660000Y-64960000D03*
X180200000Y-67500000D03*
X180200000Y-64960000D03*
X182740000Y-67500000D03*
X182740000Y-64960000D03*
%TD*%
D20*
%TO.C,J23*%
X171580000Y-132000000D03*
X176660000Y-132000000D03*
D21*
X166500000Y-132000000D03*
D20*
X181740000Y-132000000D03*
X186820000Y-132000000D03*
%TD*%
D14*
%TO.C,Murata-Ceramic-Capacitor-50v1-22uF1*%
X146500000Y-112500000D03*
X146500000Y-110000000D03*
%TD*%
%TO.C,Murata-Ceramic-Capacitor-50v1-22uF2*%
X135000000Y-110000000D03*
X135000000Y-112500000D03*
%TD*%
%TO.C,Murata-Ceramic-Capacitor-50v1-22uF3*%
X151500000Y-110000000D03*
X151500000Y-112500000D03*
%TD*%
%TO.C,Murata-Ceramic-Capacitor-50v1-22uF4*%
X140000000Y-112500000D03*
X140000000Y-110000000D03*
%TD*%
D22*
%TO.C,Q1*%
X148960000Y-132660000D03*
D23*
X151500000Y-116000000D03*
D24*
X148960000Y-116000000D03*
X146420000Y-116000000D03*
%TD*%
D25*
%TO.C,R1*%
X183380000Y-95000000D03*
D26*
X191000000Y-95000000D03*
%TD*%
%TO.C,R2*%
X183500000Y-98000000D03*
D25*
X191120000Y-98000000D03*
%TD*%
%TO.C,R3*%
X202620000Y-87500000D03*
D26*
X195000000Y-87500000D03*
%TD*%
%TO.C,R4*%
X202500000Y-90500000D03*
D25*
X194880000Y-90500000D03*
%TD*%
%TO.C,R5*%
X202620000Y-97000000D03*
D26*
X195000000Y-97000000D03*
%TD*%
%TO.C,R6*%
X202500000Y-94000000D03*
D25*
X194880000Y-94000000D03*
%TD*%
%TO.C,R7*%
X202620000Y-104500000D03*
D26*
X195000000Y-104500000D03*
%TD*%
%TO.C,R8*%
X202500000Y-107500000D03*
D25*
X194880000Y-107500000D03*
%TD*%
%TO.C,R9*%
X133380000Y-116000000D03*
D26*
X141000000Y-116000000D03*
%TD*%
%TO.C,R21*%
X159500000Y-106000000D03*
D25*
X167120000Y-106000000D03*
%TD*%
%TO.C,R11*%
X192000000Y-123120000D03*
D26*
X192000000Y-115500000D03*
%TD*%
%TO.C,R12*%
X201500000Y-129500000D03*
D25*
X209120000Y-129500000D03*
%TD*%
D26*
%TO.C,R13*%
X191000000Y-112000000D03*
D25*
X198620000Y-112000000D03*
%TD*%
D26*
%TO.C,R14*%
X195000000Y-123000000D03*
D25*
X195000000Y-115380000D03*
%TD*%
%TO.C,R15*%
X198500000Y-123120000D03*
D26*
X198500000Y-115500000D03*
%TD*%
D25*
%TO.C,R16*%
X189000000Y-123120000D03*
D26*
X189000000Y-115500000D03*
%TD*%
%TO.C,R17*%
X191500000Y-129500000D03*
D25*
X199120000Y-129500000D03*
%TD*%
%TO.C,R18*%
X201500000Y-123120000D03*
D26*
X201500000Y-115500000D03*
%TD*%
%TO.C,R19*%
X191500000Y-126500000D03*
D25*
X199120000Y-126500000D03*
%TD*%
D27*
%TO.C,S1*%
X219500000Y-70500000D03*
D28*
X214500000Y-70500000D03*
%TD*%
%TO.C,S2*%
X218500000Y-129000000D03*
D27*
X213500000Y-129000000D03*
%TD*%
%TO.C,S3*%
X139500000Y-70500000D03*
D28*
X134500000Y-70500000D03*
%TD*%
%TO.C,S4*%
X139500000Y-129000000D03*
D27*
X134500000Y-129000000D03*
%TD*%
D29*
%TO.C,U4*%
X176000000Y-75500000D03*
D30*
X168380000Y-98360000D03*
X176000000Y-78040000D03*
X168380000Y-95820000D03*
X176000000Y-80580000D03*
X168380000Y-93280000D03*
X176000000Y-83120000D03*
X168380000Y-90740000D03*
X176000000Y-85660000D03*
X168380000Y-88200000D03*
X176000000Y-88200000D03*
X168380000Y-85660000D03*
X176000000Y-90740000D03*
X168380000Y-83120000D03*
X176000000Y-93280000D03*
X168380000Y-80580000D03*
X176000000Y-95820000D03*
X168380000Y-78040000D03*
X176000000Y-98360000D03*
X168380000Y-75500000D03*
%TD*%
D29*
%TO.C,U5*%
X202500000Y-66500000D03*
D30*
X194880000Y-84280000D03*
X202500000Y-69040000D03*
X194880000Y-81740000D03*
X202500000Y-71580000D03*
X194880000Y-79200000D03*
X202500000Y-74120000D03*
X194880000Y-76660000D03*
X202500000Y-76660000D03*
X194880000Y-74120000D03*
X202500000Y-79200000D03*
X194880000Y-71580000D03*
X202500000Y-81740000D03*
X194880000Y-69040000D03*
X202500000Y-84280000D03*
X194880000Y-66500000D03*
%TD*%
D29*
%TO.C,U6*%
X217500000Y-104500000D03*
D30*
X209880000Y-119740000D03*
X217500000Y-107040000D03*
X209880000Y-117200000D03*
X217500000Y-109580000D03*
X209880000Y-114660000D03*
X217500000Y-112120000D03*
X209880000Y-112120000D03*
X217500000Y-114660000D03*
X209880000Y-109580000D03*
X217500000Y-117200000D03*
X209880000Y-107040000D03*
X217500000Y-119740000D03*
X209880000Y-104500000D03*
%TD*%
D29*
%TO.C,U7*%
X164500000Y-85000000D03*
D30*
X156880000Y-102780000D03*
X164500000Y-87540000D03*
X156880000Y-100240000D03*
X164500000Y-90080000D03*
X156880000Y-97700000D03*
X164500000Y-92620000D03*
X156880000Y-95160000D03*
X164500000Y-95160000D03*
X156880000Y-92620000D03*
X164500000Y-97700000D03*
X156880000Y-90080000D03*
X164500000Y-100240000D03*
X156880000Y-87540000D03*
X164500000Y-102780000D03*
X156880000Y-85000000D03*
%TD*%
%TO.C,U8*%
X209380000Y-76000000D03*
X217000000Y-98860000D03*
X209380000Y-78540000D03*
X217000000Y-96320000D03*
X209380000Y-81080000D03*
X217000000Y-93780000D03*
X209380000Y-83620000D03*
X217000000Y-91240000D03*
X209380000Y-86160000D03*
X217000000Y-88700000D03*
X209380000Y-88700000D03*
X217000000Y-86160000D03*
X209380000Y-91240000D03*
X217000000Y-83620000D03*
X209380000Y-93780000D03*
X217000000Y-81080000D03*
X209380000Y-96320000D03*
X217000000Y-78540000D03*
X209380000Y-98860000D03*
D29*
X217000000Y-76000000D03*
%TD*%
D30*
%TO.C,U9*%
X183880000Y-73000000D03*
X191500000Y-90780000D03*
X183880000Y-75540000D03*
X191500000Y-88240000D03*
X183880000Y-78080000D03*
X191500000Y-85700000D03*
X183880000Y-80620000D03*
X191500000Y-83160000D03*
X183880000Y-83160000D03*
X191500000Y-80620000D03*
X183880000Y-85700000D03*
X191500000Y-78080000D03*
X183880000Y-88240000D03*
X191500000Y-75540000D03*
X183880000Y-90780000D03*
D29*
X191500000Y-73000000D03*
%TD*%
%TO.C,U1*%
X164000000Y-109500000D03*
D30*
X156380000Y-117120000D03*
X164000000Y-112040000D03*
X156380000Y-114580000D03*
X164000000Y-114580000D03*
X156380000Y-112040000D03*
X164000000Y-117120000D03*
X156380000Y-109500000D03*
%TD*%
D31*
%TO.C,U24*%
X180554000Y-79966000D03*
X180554000Y-82506000D03*
X180554000Y-85046000D03*
X180554000Y-87586000D03*
X180554000Y-90126000D03*
X180554000Y-92666000D03*
X180554000Y-95206000D03*
X180554000Y-97746000D03*
X180554000Y-100286000D03*
X180554000Y-102826000D03*
X180554000Y-105366000D03*
X180554000Y-107906000D03*
X180554000Y-110446000D03*
X180554000Y-112986000D03*
X180554000Y-112986000D03*
X180554000Y-115526000D03*
X205446000Y-115526000D03*
X205446000Y-112986000D03*
X205446000Y-110446000D03*
X205446000Y-107906000D03*
X205446000Y-105366000D03*
X205446000Y-102826000D03*
X205446000Y-100286000D03*
X205446000Y-97746000D03*
X205446000Y-95206000D03*
X205446000Y-92666000D03*
X205446000Y-90126000D03*
X205446000Y-87586000D03*
X205446000Y-85046000D03*
X205446000Y-82506000D03*
X205446000Y-79966000D03*
%TD*%
D14*
%TO.C,C1*%
X169500000Y-104000000D03*
X169500000Y-109000000D03*
%TD*%
%TO.C,C3*%
X191500000Y-66500000D03*
X186500000Y-66500000D03*
%TD*%
%TO.C,C4*%
X173000000Y-77500000D03*
X173000000Y-72500000D03*
%TD*%
%TO.C,C5*%
X205500000Y-71000000D03*
X205500000Y-76000000D03*
%TD*%
%TO.C,C6*%
X155000000Y-78000000D03*
X155000000Y-83000000D03*
%TD*%
%TO.C,C7*%
X209500000Y-101500000D03*
X214500000Y-101500000D03*
%TD*%
D25*
%TO.C,R10*%
X167500000Y-114380000D03*
D26*
X167500000Y-122000000D03*
%TD*%
%TO.C,R20*%
X170000000Y-115000000D03*
D25*
X170000000Y-122620000D03*
%TD*%
%TO.C,R22*%
X172000000Y-118120000D03*
D26*
X172000000Y-110500000D03*
%TD*%
%TO.C,R23*%
X175000000Y-118000000D03*
D25*
X175000000Y-110380000D03*
%TD*%
%TO.C,R24*%
X165120000Y-81500000D03*
D26*
X157500000Y-81500000D03*
%TD*%
%TO.C,R25*%
X145000000Y-85500000D03*
D25*
X152620000Y-85500000D03*
%TD*%
%TO.C,R26*%
X152620000Y-79500000D03*
D26*
X145000000Y-79500000D03*
%TD*%
%TO.C,R27*%
X145000000Y-82500000D03*
D25*
X152620000Y-82500000D03*
%TD*%
D26*
%TO.C,R28*%
X182500000Y-119000000D03*
D25*
X182500000Y-126620000D03*
%TD*%
%TO.C,R29*%
X185500000Y-118880000D03*
D26*
X185500000Y-126500000D03*
%TD*%
D25*
%TO.C,R30*%
X167620000Y-124500000D03*
D26*
X160000000Y-124500000D03*
%TD*%
D25*
%TO.C,R31*%
X167620000Y-127000000D03*
D26*
X160000000Y-127000000D03*
%TD*%
%TO.C,R32*%
X199000000Y-132500000D03*
D25*
X191380000Y-132500000D03*
%TD*%
%TO.C,R33*%
X199120000Y-135000000D03*
D26*
X191500000Y-135000000D03*
%TD*%
D25*
%TO.C,R34*%
X172380000Y-123000000D03*
D26*
X180000000Y-123000000D03*
%TD*%
%TO.C,R35*%
X180000000Y-126000000D03*
D25*
X172380000Y-126000000D03*
%TD*%
%TO.C,R36*%
X140620000Y-86000000D03*
D26*
X133000000Y-86000000D03*
%TD*%
%TO.C,R37*%
X133000000Y-82500000D03*
D25*
X140620000Y-82500000D03*
%TD*%
D26*
%TO.C,R38*%
X133000000Y-79500000D03*
D25*
X140620000Y-79500000D03*
%TD*%
D26*
%TO.C,R39*%
X157500000Y-78500000D03*
D25*
X165120000Y-78500000D03*
%TD*%
D24*
%TO.C,U2*%
X151580000Y-107500000D03*
X149040000Y-107500000D03*
D23*
X146500000Y-107500000D03*
D22*
X149040000Y-90840000D03*
%TD*%
%TO.C,U3*%
X137540000Y-90840000D03*
D23*
X135000000Y-107500000D03*
D24*
X137540000Y-107500000D03*
X140080000Y-107500000D03*
%TD*%
D32*
X153673000Y-103073000D02*
X144427000Y-103073000D01*
X144427000Y-94827000D01*
X153673000Y-94827000D01*
X153673000Y-103073000D01*
D33*
G36*
X153673000Y-103073000D02*
G01*
X144427000Y-103073000D01*
X144427000Y-94827000D01*
X153673000Y-94827000D01*
X153673000Y-103073000D01*
G37*
D32*
X142073000Y-102873000D02*
X132927000Y-102873000D01*
X132927000Y-94827000D01*
X142073000Y-94827000D01*
X142073000Y-102873000D01*
D33*
G36*
X142073000Y-102873000D02*
G01*
X132927000Y-102873000D01*
X132927000Y-94827000D01*
X142073000Y-94827000D01*
X142073000Y-102873000D01*
G37*
M02*
