%TF.GenerationSoftware,KiCad,Pcbnew,5.1.10-88a1d61d58~90~ubuntu20.04.1*%
%TF.CreationDate,2021-11-05T17:14:26+01:00*%
%TF.ProjectId,menelaos-v2,6d656e65-6c61-46f7-932d-76322e6b6963,rev?*%
%TF.SameCoordinates,Original*%
%TF.FileFunction,Legend,Top*%
%TF.FilePolarity,Positive*%
%FSLAX46Y46*%
G04 Gerber Fmt 4.6, Leading zero omitted, Abs format (unit mm)*
G04 Created by KiCad (PCBNEW 5.1.10-88a1d61d58~90~ubuntu20.04.1) date 2021-11-05 17:14:26*
%MOMM*%
%LPD*%
G01*
G04 APERTURE LIST*
%ADD10C,0.150000*%
%ADD11C,0.120000*%
G04 APERTURE END LIST*
D10*
X201779523Y-138332380D02*
X201779523Y-137665714D01*
X201779523Y-137332380D02*
X201731904Y-137380000D01*
X201779523Y-137427619D01*
X201827142Y-137380000D01*
X201779523Y-137332380D01*
X201779523Y-137427619D01*
X202255714Y-137665714D02*
X202255714Y-138332380D01*
X202255714Y-137760952D02*
X202303333Y-137713333D01*
X202398571Y-137665714D01*
X202541428Y-137665714D01*
X202636666Y-137713333D01*
X202684285Y-137808571D01*
X202684285Y-138332380D01*
X203017619Y-137665714D02*
X203398571Y-137665714D01*
X203160476Y-138332380D02*
X203160476Y-137475238D01*
X203208095Y-137380000D01*
X203303333Y-137332380D01*
X203398571Y-137332380D01*
X203874761Y-138332380D02*
X203779523Y-138284761D01*
X203731904Y-138237142D01*
X203684285Y-138141904D01*
X203684285Y-137856190D01*
X203731904Y-137760952D01*
X203779523Y-137713333D01*
X203874761Y-137665714D01*
X204017619Y-137665714D01*
X204112857Y-137713333D01*
X204160476Y-137760952D01*
X204208095Y-137856190D01*
X204208095Y-138141904D01*
X204160476Y-138237142D01*
X204112857Y-138284761D01*
X204017619Y-138332380D01*
X203874761Y-138332380D01*
X205255714Y-137856190D02*
X205208095Y-137808571D01*
X205112857Y-137760952D01*
X205017619Y-137760952D01*
X204922380Y-137808571D01*
X204874761Y-137856190D01*
X204827142Y-137951428D01*
X204827142Y-138046666D01*
X204874761Y-138141904D01*
X204922380Y-138189523D01*
X205017619Y-138237142D01*
X205112857Y-138237142D01*
X205208095Y-138189523D01*
X205255714Y-138141904D01*
X205255714Y-137760952D02*
X205255714Y-138141904D01*
X205303333Y-138189523D01*
X205350952Y-138189523D01*
X205446190Y-138141904D01*
X205493809Y-138046666D01*
X205493809Y-137808571D01*
X205398571Y-137665714D01*
X205255714Y-137570476D01*
X205065238Y-137522857D01*
X204874761Y-137570476D01*
X204731904Y-137665714D01*
X204636666Y-137808571D01*
X204589047Y-137999047D01*
X204636666Y-138189523D01*
X204731904Y-138332380D01*
X204874761Y-138427619D01*
X205065238Y-138475238D01*
X205255714Y-138427619D01*
X205398571Y-138332380D01*
X206350952Y-138332380D02*
X206350952Y-137808571D01*
X206303333Y-137713333D01*
X206208095Y-137665714D01*
X206017619Y-137665714D01*
X205922380Y-137713333D01*
X206350952Y-138284761D02*
X206255714Y-138332380D01*
X206017619Y-138332380D01*
X205922380Y-138284761D01*
X205874761Y-138189523D01*
X205874761Y-138094285D01*
X205922380Y-137999047D01*
X206017619Y-137951428D01*
X206255714Y-137951428D01*
X206350952Y-137903809D01*
X206827142Y-137665714D02*
X206827142Y-138332380D01*
X206827142Y-137760952D02*
X206874761Y-137713333D01*
X206970000Y-137665714D01*
X207112857Y-137665714D01*
X207208095Y-137713333D01*
X207255714Y-137808571D01*
X207255714Y-138332380D01*
X207589047Y-137665714D02*
X207970000Y-137665714D01*
X207731904Y-137332380D02*
X207731904Y-138189523D01*
X207779523Y-138284761D01*
X207874761Y-138332380D01*
X207970000Y-138332380D01*
X208446190Y-138332380D02*
X208350952Y-138284761D01*
X208303333Y-138237142D01*
X208255714Y-138141904D01*
X208255714Y-137856190D01*
X208303333Y-137760952D01*
X208350952Y-137713333D01*
X208446190Y-137665714D01*
X208589047Y-137665714D01*
X208684285Y-137713333D01*
X208731904Y-137760952D01*
X208779523Y-137856190D01*
X208779523Y-138141904D01*
X208731904Y-138237142D01*
X208684285Y-138284761D01*
X208589047Y-138332380D01*
X208446190Y-138332380D01*
X209208095Y-137665714D02*
X209208095Y-138332380D01*
X209208095Y-137760952D02*
X209255714Y-137713333D01*
X209350952Y-137665714D01*
X209493809Y-137665714D01*
X209589047Y-137713333D01*
X209636666Y-137808571D01*
X209636666Y-138332380D01*
X210112857Y-138332380D02*
X210112857Y-137665714D01*
X210112857Y-137332380D02*
X210065238Y-137380000D01*
X210112857Y-137427619D01*
X210160476Y-137380000D01*
X210112857Y-137332380D01*
X210112857Y-137427619D01*
X210731904Y-138332380D02*
X210636666Y-138284761D01*
X210589047Y-138237142D01*
X210541428Y-138141904D01*
X210541428Y-137856190D01*
X210589047Y-137760952D01*
X210636666Y-137713333D01*
X210731904Y-137665714D01*
X210874761Y-137665714D01*
X210970000Y-137713333D01*
X211017619Y-137760952D01*
X211065238Y-137856190D01*
X211065238Y-138141904D01*
X211017619Y-138237142D01*
X210970000Y-138284761D01*
X210874761Y-138332380D01*
X210731904Y-138332380D01*
X211922380Y-138284761D02*
X211827142Y-138332380D01*
X211636666Y-138332380D01*
X211541428Y-138284761D01*
X211493809Y-138237142D01*
X211446190Y-138141904D01*
X211446190Y-137856190D01*
X211493809Y-137760952D01*
X211541428Y-137713333D01*
X211636666Y-137665714D01*
X211827142Y-137665714D01*
X211922380Y-137713333D01*
X212779523Y-138332380D02*
X212779523Y-137808571D01*
X212731904Y-137713333D01*
X212636666Y-137665714D01*
X212446190Y-137665714D01*
X212350952Y-137713333D01*
X212779523Y-138284761D02*
X212684285Y-138332380D01*
X212446190Y-138332380D01*
X212350952Y-138284761D01*
X212303333Y-138189523D01*
X212303333Y-138094285D01*
X212350952Y-137999047D01*
X212446190Y-137951428D01*
X212684285Y-137951428D01*
X212779523Y-137903809D01*
X213208095Y-138284761D02*
X213303333Y-138332380D01*
X213493809Y-138332380D01*
X213589047Y-138284761D01*
X213636666Y-138189523D01*
X213636666Y-138141904D01*
X213589047Y-138046666D01*
X213493809Y-137999047D01*
X213350952Y-137999047D01*
X213255714Y-137951428D01*
X213208095Y-137856190D01*
X213208095Y-137808571D01*
X213255714Y-137713333D01*
X213350952Y-137665714D01*
X213493809Y-137665714D01*
X213589047Y-137713333D01*
X213922380Y-137665714D02*
X214303333Y-137665714D01*
X214065238Y-137332380D02*
X214065238Y-138189523D01*
X214112857Y-138284761D01*
X214208095Y-138332380D01*
X214303333Y-138332380D01*
X214779523Y-138332380D02*
X214684285Y-138284761D01*
X214636666Y-138189523D01*
X214636666Y-137332380D01*
X215541428Y-138284761D02*
X215446190Y-138332380D01*
X215255714Y-138332380D01*
X215160476Y-138284761D01*
X215112857Y-138189523D01*
X215112857Y-137808571D01*
X215160476Y-137713333D01*
X215255714Y-137665714D01*
X215446190Y-137665714D01*
X215541428Y-137713333D01*
X215589047Y-137808571D01*
X215589047Y-137903809D01*
X215112857Y-137999047D01*
X215970000Y-138284761D02*
X216065238Y-138332380D01*
X216255714Y-138332380D01*
X216350952Y-138284761D01*
X216398571Y-138189523D01*
X216398571Y-138141904D01*
X216350952Y-138046666D01*
X216255714Y-137999047D01*
X216112857Y-137999047D01*
X216017619Y-137951428D01*
X215970000Y-137856190D01*
X215970000Y-137808571D01*
X216017619Y-137713333D01*
X216112857Y-137665714D01*
X216255714Y-137665714D01*
X216350952Y-137713333D01*
X216827142Y-138237142D02*
X216874761Y-138284761D01*
X216827142Y-138332380D01*
X216779523Y-138284761D01*
X216827142Y-138237142D01*
X216827142Y-138332380D01*
X217303333Y-137665714D02*
X217303333Y-138332380D01*
X217303333Y-137760952D02*
X217350952Y-137713333D01*
X217446190Y-137665714D01*
X217589047Y-137665714D01*
X217684285Y-137713333D01*
X217731904Y-137808571D01*
X217731904Y-138332380D01*
X218589047Y-138284761D02*
X218493809Y-138332380D01*
X218303333Y-138332380D01*
X218208095Y-138284761D01*
X218160476Y-138189523D01*
X218160476Y-137808571D01*
X218208095Y-137713333D01*
X218303333Y-137665714D01*
X218493809Y-137665714D01*
X218589047Y-137713333D01*
X218636666Y-137808571D01*
X218636666Y-137903809D01*
X218160476Y-137999047D01*
X218922380Y-137665714D02*
X219303333Y-137665714D01*
X219065238Y-137332380D02*
X219065238Y-138189523D01*
X219112857Y-138284761D01*
X219208095Y-138332380D01*
X219303333Y-138332380D01*
X171970000Y-138512380D02*
X171970000Y-137512380D01*
X172303333Y-138226666D01*
X172636666Y-137512380D01*
X172636666Y-138512380D01*
X173493809Y-138464761D02*
X173398571Y-138512380D01*
X173208095Y-138512380D01*
X173112857Y-138464761D01*
X173065238Y-138369523D01*
X173065238Y-137988571D01*
X173112857Y-137893333D01*
X173208095Y-137845714D01*
X173398571Y-137845714D01*
X173493809Y-137893333D01*
X173541428Y-137988571D01*
X173541428Y-138083809D01*
X173065238Y-138179047D01*
X173970000Y-137845714D02*
X173970000Y-138512380D01*
X173970000Y-137940952D02*
X174017619Y-137893333D01*
X174112857Y-137845714D01*
X174255714Y-137845714D01*
X174350952Y-137893333D01*
X174398571Y-137988571D01*
X174398571Y-138512380D01*
X175255714Y-138464761D02*
X175160476Y-138512380D01*
X174970000Y-138512380D01*
X174874761Y-138464761D01*
X174827142Y-138369523D01*
X174827142Y-137988571D01*
X174874761Y-137893333D01*
X174970000Y-137845714D01*
X175160476Y-137845714D01*
X175255714Y-137893333D01*
X175303333Y-137988571D01*
X175303333Y-138083809D01*
X174827142Y-138179047D01*
X175874761Y-138512380D02*
X175779523Y-138464761D01*
X175731904Y-138369523D01*
X175731904Y-137512380D01*
X176684285Y-138512380D02*
X176684285Y-137988571D01*
X176636666Y-137893333D01*
X176541428Y-137845714D01*
X176350952Y-137845714D01*
X176255714Y-137893333D01*
X176684285Y-138464761D02*
X176589047Y-138512380D01*
X176350952Y-138512380D01*
X176255714Y-138464761D01*
X176208095Y-138369523D01*
X176208095Y-138274285D01*
X176255714Y-138179047D01*
X176350952Y-138131428D01*
X176589047Y-138131428D01*
X176684285Y-138083809D01*
X177303333Y-138512380D02*
X177208095Y-138464761D01*
X177160476Y-138417142D01*
X177112857Y-138321904D01*
X177112857Y-138036190D01*
X177160476Y-137940952D01*
X177208095Y-137893333D01*
X177303333Y-137845714D01*
X177446190Y-137845714D01*
X177541428Y-137893333D01*
X177589047Y-137940952D01*
X177636666Y-138036190D01*
X177636666Y-138321904D01*
X177589047Y-138417142D01*
X177541428Y-138464761D01*
X177446190Y-138512380D01*
X177303333Y-138512380D01*
X178017619Y-138464761D02*
X178112857Y-138512380D01*
X178303333Y-138512380D01*
X178398571Y-138464761D01*
X178446190Y-138369523D01*
X178446190Y-138321904D01*
X178398571Y-138226666D01*
X178303333Y-138179047D01*
X178160476Y-138179047D01*
X178065238Y-138131428D01*
X178017619Y-138036190D01*
X178017619Y-137988571D01*
X178065238Y-137893333D01*
X178160476Y-137845714D01*
X178303333Y-137845714D01*
X178398571Y-137893333D01*
X179493809Y-137512380D02*
X179827142Y-138512380D01*
X180160476Y-137512380D01*
X180446190Y-137607619D02*
X180493809Y-137560000D01*
X180589047Y-137512380D01*
X180827142Y-137512380D01*
X180922380Y-137560000D01*
X180970000Y-137607619D01*
X181017619Y-137702857D01*
X181017619Y-137798095D01*
X180970000Y-137940952D01*
X180398571Y-138512380D01*
X181017619Y-138512380D01*
X139089047Y-137871428D02*
X139850952Y-137871428D01*
X139470000Y-138252380D02*
X139470000Y-137490476D01*
X133629047Y-137891428D02*
X134390952Y-137891428D01*
D11*
%TO.C,J21*%
X109410000Y-90050000D02*
X109410000Y-91380000D01*
X108080000Y-90050000D02*
X109410000Y-90050000D01*
X109410000Y-92650000D02*
X109410000Y-95250000D01*
X106810000Y-92650000D02*
X109410000Y-92650000D01*
X106810000Y-90050000D02*
X106810000Y-92650000D01*
X109410000Y-95250000D02*
X91510000Y-95250000D01*
X106810000Y-90050000D02*
X91510000Y-90050000D01*
X91510000Y-90050000D02*
X91510000Y-95250000D01*
D10*
%TO.C,U14*%
X93450000Y-68950000D02*
X85830000Y-68950000D01*
X85830000Y-68950000D02*
X85830000Y-81650000D01*
X85830000Y-81650000D02*
X93450000Y-81650000D01*
X93450000Y-81650000D02*
X93450000Y-68950000D01*
D11*
X85470000Y-70220000D02*
X85470000Y-68590000D01*
X85470000Y-68590000D02*
X87100000Y-68590000D01*
%TO.C,U12*%
X109770000Y-68590000D02*
X111400000Y-68590000D01*
X109770000Y-70220000D02*
X109770000Y-68590000D01*
D10*
X117750000Y-81650000D02*
X117750000Y-68950000D01*
X110130000Y-81650000D02*
X117750000Y-81650000D01*
X110130000Y-68950000D02*
X110130000Y-81650000D01*
X117750000Y-68950000D02*
X110130000Y-68950000D01*
%TO.C,U10*%
X109650000Y-68950000D02*
X102030000Y-68950000D01*
X102030000Y-68950000D02*
X102030000Y-81650000D01*
X102030000Y-81650000D02*
X109650000Y-81650000D01*
X109650000Y-81650000D02*
X109650000Y-68950000D01*
D11*
X101670000Y-70220000D02*
X101670000Y-68590000D01*
X101670000Y-68590000D02*
X103300000Y-68590000D01*
%TO.C,U8*%
X93570000Y-68590000D02*
X95200000Y-68590000D01*
X93570000Y-70220000D02*
X93570000Y-68590000D01*
D10*
X101550000Y-81650000D02*
X101550000Y-68950000D01*
X93930000Y-81650000D02*
X101550000Y-81650000D01*
X93930000Y-68950000D02*
X93930000Y-81650000D01*
X101550000Y-68950000D02*
X93930000Y-68950000D01*
D11*
%TO.C,C2*%
X143565431Y-67135000D02*
X143565431Y-68435000D01*
X142915431Y-67785000D02*
X144215431Y-67785000D01*
X156601000Y-71025000D02*
X156601000Y-71975000D01*
X156561000Y-70650000D02*
X156561000Y-72350000D01*
X156521000Y-70393000D02*
X156521000Y-72607000D01*
X156481000Y-70185000D02*
X156481000Y-72815000D01*
X156441000Y-70006000D02*
X156441000Y-72994000D01*
X156401000Y-69847000D02*
X156401000Y-73153000D01*
X156361000Y-69702000D02*
X156361000Y-73298000D01*
X156321000Y-69569000D02*
X156321000Y-73431000D01*
X156281000Y-69445000D02*
X156281000Y-73555000D01*
X156241000Y-69329000D02*
X156241000Y-73671000D01*
X156201000Y-69219000D02*
X156201000Y-73781000D01*
X156161000Y-69115000D02*
X156161000Y-73885000D01*
X156121000Y-69016000D02*
X156121000Y-73984000D01*
X156081000Y-68921000D02*
X156081000Y-74079000D01*
X156041000Y-68830000D02*
X156041000Y-74170000D01*
X156001000Y-68742000D02*
X156001000Y-74258000D01*
X155961000Y-68658000D02*
X155961000Y-74342000D01*
X155921000Y-68577000D02*
X155921000Y-74423000D01*
X155881000Y-68498000D02*
X155881000Y-74502000D01*
X155841000Y-68422000D02*
X155841000Y-74578000D01*
X155801000Y-68348000D02*
X155801000Y-74652000D01*
X155761000Y-68277000D02*
X155761000Y-74723000D01*
X155721000Y-68207000D02*
X155721000Y-74793000D01*
X155681000Y-68139000D02*
X155681000Y-74861000D01*
X155641000Y-68073000D02*
X155641000Y-74927000D01*
X155601000Y-68009000D02*
X155601000Y-74991000D01*
X155561000Y-67946000D02*
X155561000Y-75054000D01*
X155521000Y-67885000D02*
X155521000Y-75115000D01*
X155481000Y-67825000D02*
X155481000Y-75175000D01*
X155441000Y-67767000D02*
X155441000Y-75233000D01*
X155401000Y-67710000D02*
X155401000Y-75290000D01*
X155361000Y-67654000D02*
X155361000Y-75346000D01*
X155321000Y-67600000D02*
X155321000Y-75400000D01*
X155281000Y-67546000D02*
X155281000Y-75454000D01*
X155241000Y-67494000D02*
X155241000Y-75506000D01*
X155201000Y-67443000D02*
X155201000Y-75557000D01*
X155161000Y-67392000D02*
X155161000Y-75608000D01*
X155121000Y-67343000D02*
X155121000Y-75657000D01*
X155081000Y-67295000D02*
X155081000Y-75705000D01*
X155041000Y-67247000D02*
X155041000Y-75753000D01*
X155001000Y-67201000D02*
X155001000Y-75799000D01*
X154961000Y-67155000D02*
X154961000Y-75845000D01*
X154921000Y-67110000D02*
X154921000Y-75890000D01*
X154881000Y-67066000D02*
X154881000Y-75934000D01*
X154841000Y-67023000D02*
X154841000Y-75977000D01*
X154801000Y-66981000D02*
X154801000Y-76019000D01*
X154761000Y-66939000D02*
X154761000Y-76061000D01*
X154721000Y-66898000D02*
X154721000Y-76102000D01*
X154681000Y-66857000D02*
X154681000Y-76143000D01*
X154641000Y-66818000D02*
X154641000Y-76182000D01*
X154601000Y-66779000D02*
X154601000Y-76221000D01*
X154561000Y-66740000D02*
X154561000Y-76260000D01*
X154521000Y-66703000D02*
X154521000Y-76297000D01*
X154481000Y-66666000D02*
X154481000Y-76334000D01*
X154441000Y-66629000D02*
X154441000Y-76371000D01*
X154401000Y-66593000D02*
X154401000Y-76407000D01*
X154361000Y-66558000D02*
X154361000Y-76442000D01*
X154321000Y-66523000D02*
X154321000Y-76477000D01*
X154281000Y-66489000D02*
X154281000Y-76511000D01*
X154241000Y-66456000D02*
X154241000Y-76544000D01*
X154201000Y-66422000D02*
X154201000Y-76578000D01*
X154161000Y-66390000D02*
X154161000Y-76610000D01*
X154121000Y-66358000D02*
X154121000Y-76642000D01*
X154081000Y-66326000D02*
X154081000Y-76674000D01*
X154041000Y-66295000D02*
X154041000Y-76705000D01*
X154001000Y-66265000D02*
X154001000Y-76735000D01*
X153961000Y-66235000D02*
X153961000Y-76765000D01*
X153921000Y-72940000D02*
X153921000Y-76795000D01*
X153921000Y-66205000D02*
X153921000Y-70060000D01*
X153881000Y-72940000D02*
X153881000Y-76824000D01*
X153881000Y-66176000D02*
X153881000Y-70060000D01*
X153841000Y-72940000D02*
X153841000Y-76853000D01*
X153841000Y-66147000D02*
X153841000Y-70060000D01*
X153801000Y-72940000D02*
X153801000Y-76881000D01*
X153801000Y-66119000D02*
X153801000Y-70060000D01*
X153761000Y-72940000D02*
X153761000Y-76909000D01*
X153761000Y-66091000D02*
X153761000Y-70060000D01*
X153721000Y-72940000D02*
X153721000Y-76936000D01*
X153721000Y-66064000D02*
X153721000Y-70060000D01*
X153681000Y-72940000D02*
X153681000Y-76963000D01*
X153681000Y-66037000D02*
X153681000Y-70060000D01*
X153641000Y-72940000D02*
X153641000Y-76990000D01*
X153641000Y-66010000D02*
X153641000Y-70060000D01*
X153601000Y-72940000D02*
X153601000Y-77016000D01*
X153601000Y-65984000D02*
X153601000Y-70060000D01*
X153561000Y-72940000D02*
X153561000Y-77042000D01*
X153561000Y-65958000D02*
X153561000Y-70060000D01*
X153521000Y-72940000D02*
X153521000Y-77067000D01*
X153521000Y-65933000D02*
X153521000Y-70060000D01*
X153481000Y-72940000D02*
X153481000Y-77092000D01*
X153481000Y-65908000D02*
X153481000Y-70060000D01*
X153441000Y-72940000D02*
X153441000Y-77117000D01*
X153441000Y-65883000D02*
X153441000Y-70060000D01*
X153401000Y-72940000D02*
X153401000Y-77141000D01*
X153401000Y-65859000D02*
X153401000Y-70060000D01*
X153361000Y-72940000D02*
X153361000Y-77164000D01*
X153361000Y-65836000D02*
X153361000Y-70060000D01*
X153321000Y-72940000D02*
X153321000Y-77188000D01*
X153321000Y-65812000D02*
X153321000Y-70060000D01*
X153281000Y-72940000D02*
X153281000Y-77211000D01*
X153281000Y-65789000D02*
X153281000Y-70060000D01*
X153241000Y-72940000D02*
X153241000Y-77233000D01*
X153241000Y-65767000D02*
X153241000Y-70060000D01*
X153201000Y-72940000D02*
X153201000Y-77256000D01*
X153201000Y-65744000D02*
X153201000Y-70060000D01*
X153161000Y-72940000D02*
X153161000Y-77278000D01*
X153161000Y-65722000D02*
X153161000Y-70060000D01*
X153121000Y-72940000D02*
X153121000Y-77299000D01*
X153121000Y-65701000D02*
X153121000Y-70060000D01*
X153081000Y-72940000D02*
X153081000Y-77320000D01*
X153081000Y-65680000D02*
X153081000Y-70060000D01*
X153041000Y-72940000D02*
X153041000Y-77341000D01*
X153041000Y-65659000D02*
X153041000Y-70060000D01*
X153001000Y-72940000D02*
X153001000Y-77362000D01*
X153001000Y-65638000D02*
X153001000Y-70060000D01*
X152961000Y-72940000D02*
X152961000Y-77382000D01*
X152961000Y-65618000D02*
X152961000Y-70060000D01*
X152921000Y-72940000D02*
X152921000Y-77402000D01*
X152921000Y-65598000D02*
X152921000Y-70060000D01*
X152881000Y-72940000D02*
X152881000Y-77421000D01*
X152881000Y-65579000D02*
X152881000Y-70060000D01*
X152841000Y-72940000D02*
X152841000Y-77440000D01*
X152841000Y-65560000D02*
X152841000Y-70060000D01*
X152801000Y-72940000D02*
X152801000Y-77459000D01*
X152801000Y-65541000D02*
X152801000Y-70060000D01*
X152761000Y-72940000D02*
X152761000Y-77478000D01*
X152761000Y-65522000D02*
X152761000Y-70060000D01*
X152721000Y-72940000D02*
X152721000Y-77496000D01*
X152721000Y-65504000D02*
X152721000Y-70060000D01*
X152681000Y-72940000D02*
X152681000Y-77514000D01*
X152681000Y-65486000D02*
X152681000Y-70060000D01*
X152641000Y-72940000D02*
X152641000Y-77531000D01*
X152641000Y-65469000D02*
X152641000Y-70060000D01*
X152601000Y-72940000D02*
X152601000Y-77549000D01*
X152601000Y-65451000D02*
X152601000Y-70060000D01*
X152561000Y-72940000D02*
X152561000Y-77565000D01*
X152561000Y-65435000D02*
X152561000Y-70060000D01*
X152521000Y-72940000D02*
X152521000Y-77582000D01*
X152521000Y-65418000D02*
X152521000Y-70060000D01*
X152481000Y-72940000D02*
X152481000Y-77598000D01*
X152481000Y-65402000D02*
X152481000Y-70060000D01*
X152441000Y-72940000D02*
X152441000Y-77614000D01*
X152441000Y-65386000D02*
X152441000Y-70060000D01*
X152401000Y-72940000D02*
X152401000Y-77630000D01*
X152401000Y-65370000D02*
X152401000Y-70060000D01*
X152361000Y-72940000D02*
X152361000Y-77646000D01*
X152361000Y-65354000D02*
X152361000Y-70060000D01*
X152321000Y-72940000D02*
X152321000Y-77661000D01*
X152321000Y-65339000D02*
X152321000Y-70060000D01*
X152281000Y-72940000D02*
X152281000Y-77675000D01*
X152281000Y-65325000D02*
X152281000Y-70060000D01*
X152241000Y-72940000D02*
X152241000Y-77690000D01*
X152241000Y-65310000D02*
X152241000Y-70060000D01*
X152201000Y-72940000D02*
X152201000Y-77704000D01*
X152201000Y-65296000D02*
X152201000Y-70060000D01*
X152161000Y-72940000D02*
X152161000Y-77718000D01*
X152161000Y-65282000D02*
X152161000Y-70060000D01*
X152121000Y-72940000D02*
X152121000Y-77732000D01*
X152121000Y-65268000D02*
X152121000Y-70060000D01*
X152081000Y-72940000D02*
X152081000Y-77745000D01*
X152081000Y-65255000D02*
X152081000Y-70060000D01*
X152041000Y-72940000D02*
X152041000Y-77758000D01*
X152041000Y-65242000D02*
X152041000Y-70060000D01*
X152001000Y-72940000D02*
X152001000Y-77771000D01*
X152001000Y-65229000D02*
X152001000Y-70060000D01*
X151961000Y-72940000D02*
X151961000Y-77784000D01*
X151961000Y-65216000D02*
X151961000Y-70060000D01*
X151921000Y-72940000D02*
X151921000Y-77796000D01*
X151921000Y-65204000D02*
X151921000Y-70060000D01*
X151881000Y-72940000D02*
X151881000Y-77808000D01*
X151881000Y-65192000D02*
X151881000Y-70060000D01*
X151841000Y-72940000D02*
X151841000Y-77820000D01*
X151841000Y-65180000D02*
X151841000Y-70060000D01*
X151801000Y-72940000D02*
X151801000Y-77831000D01*
X151801000Y-65169000D02*
X151801000Y-70060000D01*
X151761000Y-72940000D02*
X151761000Y-77842000D01*
X151761000Y-65158000D02*
X151761000Y-70060000D01*
X151721000Y-72940000D02*
X151721000Y-77853000D01*
X151721000Y-65147000D02*
X151721000Y-70060000D01*
X151681000Y-72940000D02*
X151681000Y-77864000D01*
X151681000Y-65136000D02*
X151681000Y-70060000D01*
X151641000Y-72940000D02*
X151641000Y-77874000D01*
X151641000Y-65126000D02*
X151641000Y-70060000D01*
X151601000Y-72940000D02*
X151601000Y-77884000D01*
X151601000Y-65116000D02*
X151601000Y-70060000D01*
X151561000Y-72940000D02*
X151561000Y-77894000D01*
X151561000Y-65106000D02*
X151561000Y-70060000D01*
X151521000Y-72940000D02*
X151521000Y-77904000D01*
X151521000Y-65096000D02*
X151521000Y-70060000D01*
X151481000Y-72940000D02*
X151481000Y-77913000D01*
X151481000Y-65087000D02*
X151481000Y-70060000D01*
X151441000Y-72940000D02*
X151441000Y-77922000D01*
X151441000Y-65078000D02*
X151441000Y-70060000D01*
X151401000Y-72940000D02*
X151401000Y-77931000D01*
X151401000Y-65069000D02*
X151401000Y-70060000D01*
X151361000Y-72940000D02*
X151361000Y-77939000D01*
X151361000Y-65061000D02*
X151361000Y-70060000D01*
X151321000Y-72940000D02*
X151321000Y-77948000D01*
X151321000Y-65052000D02*
X151321000Y-70060000D01*
X151281000Y-72940000D02*
X151281000Y-77956000D01*
X151281000Y-65044000D02*
X151281000Y-70060000D01*
X151241000Y-72940000D02*
X151241000Y-77963000D01*
X151241000Y-65037000D02*
X151241000Y-70060000D01*
X151201000Y-72940000D02*
X151201000Y-77971000D01*
X151201000Y-65029000D02*
X151201000Y-70060000D01*
X151161000Y-72940000D02*
X151161000Y-77978000D01*
X151161000Y-65022000D02*
X151161000Y-70060000D01*
X151121000Y-72940000D02*
X151121000Y-77985000D01*
X151121000Y-65015000D02*
X151121000Y-70060000D01*
X151081000Y-72940000D02*
X151081000Y-77992000D01*
X151081000Y-65008000D02*
X151081000Y-70060000D01*
X151041000Y-65002000D02*
X151041000Y-77998000D01*
X151001000Y-64995000D02*
X151001000Y-78005000D01*
X150961000Y-64989000D02*
X150961000Y-78011000D01*
X150921000Y-64984000D02*
X150921000Y-78016000D01*
X150881000Y-64978000D02*
X150881000Y-78022000D01*
X150841000Y-64973000D02*
X150841000Y-78027000D01*
X150801000Y-64968000D02*
X150801000Y-78032000D01*
X150761000Y-64963000D02*
X150761000Y-78037000D01*
X150721000Y-64959000D02*
X150721000Y-78041000D01*
X150680000Y-64955000D02*
X150680000Y-78045000D01*
X150640000Y-64951000D02*
X150640000Y-78049000D01*
X150600000Y-64947000D02*
X150600000Y-78053000D01*
X150560000Y-64943000D02*
X150560000Y-78057000D01*
X150520000Y-64940000D02*
X150520000Y-78060000D01*
X150480000Y-64937000D02*
X150480000Y-78063000D01*
X150440000Y-64934000D02*
X150440000Y-78066000D01*
X150400000Y-64932000D02*
X150400000Y-78068000D01*
X150360000Y-64929000D02*
X150360000Y-78071000D01*
X150320000Y-64927000D02*
X150320000Y-78073000D01*
X150280000Y-64925000D02*
X150280000Y-78075000D01*
X150240000Y-64924000D02*
X150240000Y-78076000D01*
X150200000Y-64923000D02*
X150200000Y-78077000D01*
X150160000Y-64921000D02*
X150160000Y-78079000D01*
X150120000Y-64921000D02*
X150120000Y-78079000D01*
X150080000Y-64920000D02*
X150080000Y-78080000D01*
X150040000Y-64920000D02*
X150040000Y-78080000D01*
X150000000Y-64920000D02*
X150000000Y-78080000D01*
X156620000Y-71500000D02*
G75*
G03*
X156620000Y-71500000I-6620000J0D01*
G01*
%TO.C,D1*%
X135370000Y-117530000D02*
X135370000Y-120470000D01*
X135610000Y-117530000D02*
X135610000Y-120470000D01*
X135490000Y-117530000D02*
X135490000Y-120470000D01*
X140030000Y-120470000D02*
X140030000Y-120340000D01*
X134590000Y-120470000D02*
X140030000Y-120470000D01*
X134590000Y-120340000D02*
X134590000Y-120470000D01*
X140030000Y-117530000D02*
X140030000Y-117660000D01*
X134590000Y-117530000D02*
X140030000Y-117530000D01*
X134590000Y-117660000D02*
X134590000Y-117530000D01*
%TO.C,J1*%
X155670000Y-121670000D02*
X157000000Y-121670000D01*
X155670000Y-123000000D02*
X155670000Y-121670000D01*
X155670000Y-124270000D02*
X158330000Y-124270000D01*
X158330000Y-124270000D02*
X158330000Y-134490000D01*
X155670000Y-124270000D02*
X155670000Y-134490000D01*
X155670000Y-134490000D02*
X158330000Y-134490000D01*
%TO.C,J10*%
X209830000Y-72830000D02*
X208500000Y-72830000D01*
X209830000Y-71500000D02*
X209830000Y-72830000D01*
X209830000Y-70230000D02*
X207170000Y-70230000D01*
X207170000Y-70230000D02*
X207170000Y-65090000D01*
X209830000Y-70230000D02*
X209830000Y-65090000D01*
X209830000Y-65090000D02*
X207170000Y-65090000D01*
%TO.C,J11*%
X166170000Y-68830000D02*
X166170000Y-67500000D01*
X167500000Y-68830000D02*
X166170000Y-68830000D01*
X166170000Y-66230000D02*
X166170000Y-63630000D01*
X168770000Y-66230000D02*
X166170000Y-66230000D01*
X168770000Y-68830000D02*
X168770000Y-66230000D01*
X166170000Y-63630000D02*
X184070000Y-63630000D01*
X168770000Y-68830000D02*
X184070000Y-68830000D01*
X184070000Y-68830000D02*
X184070000Y-63630000D01*
%TO.C,J23*%
X163960000Y-128190000D02*
X163960000Y-135810000D01*
X189360000Y-128190000D02*
X189360000Y-135810000D01*
X163960000Y-128190000D02*
X189360000Y-128190000D01*
X163960000Y-134540000D02*
X189360000Y-134540000D01*
X163960000Y-135810000D02*
X189360000Y-135810000D01*
%TO.C,Murata-Ceramic-Capacitor-50v1-22uF1*%
X147420000Y-110621000D02*
X147420000Y-111879000D01*
X145580000Y-110621000D02*
X145580000Y-111879000D01*
%TO.C,Murata-Ceramic-Capacitor-50v1-22uF2*%
X134080000Y-110621000D02*
X134080000Y-111879000D01*
X135920000Y-110621000D02*
X135920000Y-111879000D01*
%TO.C,Murata-Ceramic-Capacitor-50v1-22uF3*%
X150580000Y-110621000D02*
X150580000Y-111879000D01*
X152420000Y-110621000D02*
X152420000Y-111879000D01*
%TO.C,Murata-Ceramic-Capacitor-50v1-22uF4*%
X140920000Y-110621000D02*
X140920000Y-111879000D01*
X139080000Y-110621000D02*
X139080000Y-111879000D01*
%TO.C,Q1*%
X146420000Y-119690000D02*
X146420000Y-117150000D01*
X148960000Y-119690000D02*
X148960000Y-117150000D01*
X151500000Y-119690000D02*
X151500000Y-117150000D01*
X143840000Y-135580000D02*
X143840000Y-119690000D01*
X154080000Y-135580000D02*
X154080000Y-119690000D01*
X154080000Y-135580000D02*
X143840000Y-135580000D01*
X154080000Y-119690000D02*
X143840000Y-119690000D01*
%TO.C,R1*%
X189110000Y-95920000D02*
X189110000Y-94080000D01*
X189110000Y-94080000D02*
X185270000Y-94080000D01*
X185270000Y-94080000D02*
X185270000Y-95920000D01*
X185270000Y-95920000D02*
X189110000Y-95920000D01*
X190060000Y-95000000D02*
X189110000Y-95000000D01*
X184320000Y-95000000D02*
X185270000Y-95000000D01*
%TO.C,R2*%
X190180000Y-98000000D02*
X189230000Y-98000000D01*
X184440000Y-98000000D02*
X185390000Y-98000000D01*
X189230000Y-97080000D02*
X185390000Y-97080000D01*
X189230000Y-98920000D02*
X189230000Y-97080000D01*
X185390000Y-98920000D02*
X189230000Y-98920000D01*
X185390000Y-97080000D02*
X185390000Y-98920000D01*
%TO.C,R3*%
X196890000Y-86580000D02*
X196890000Y-88420000D01*
X196890000Y-88420000D02*
X200730000Y-88420000D01*
X200730000Y-88420000D02*
X200730000Y-86580000D01*
X200730000Y-86580000D02*
X196890000Y-86580000D01*
X195940000Y-87500000D02*
X196890000Y-87500000D01*
X201680000Y-87500000D02*
X200730000Y-87500000D01*
%TO.C,R4*%
X195820000Y-90500000D02*
X196770000Y-90500000D01*
X201560000Y-90500000D02*
X200610000Y-90500000D01*
X196770000Y-91420000D02*
X200610000Y-91420000D01*
X196770000Y-89580000D02*
X196770000Y-91420000D01*
X200610000Y-89580000D02*
X196770000Y-89580000D01*
X200610000Y-91420000D02*
X200610000Y-89580000D01*
%TO.C,R5*%
X196890000Y-96080000D02*
X196890000Y-97920000D01*
X196890000Y-97920000D02*
X200730000Y-97920000D01*
X200730000Y-97920000D02*
X200730000Y-96080000D01*
X200730000Y-96080000D02*
X196890000Y-96080000D01*
X195940000Y-97000000D02*
X196890000Y-97000000D01*
X201680000Y-97000000D02*
X200730000Y-97000000D01*
%TO.C,R6*%
X195820000Y-94000000D02*
X196770000Y-94000000D01*
X201560000Y-94000000D02*
X200610000Y-94000000D01*
X196770000Y-94920000D02*
X200610000Y-94920000D01*
X196770000Y-93080000D02*
X196770000Y-94920000D01*
X200610000Y-93080000D02*
X196770000Y-93080000D01*
X200610000Y-94920000D02*
X200610000Y-93080000D01*
%TO.C,R7*%
X196890000Y-103580000D02*
X196890000Y-105420000D01*
X196890000Y-105420000D02*
X200730000Y-105420000D01*
X200730000Y-105420000D02*
X200730000Y-103580000D01*
X200730000Y-103580000D02*
X196890000Y-103580000D01*
X195940000Y-104500000D02*
X196890000Y-104500000D01*
X201680000Y-104500000D02*
X200730000Y-104500000D01*
%TO.C,R8*%
X195820000Y-107500000D02*
X196770000Y-107500000D01*
X201560000Y-107500000D02*
X200610000Y-107500000D01*
X196770000Y-108420000D02*
X200610000Y-108420000D01*
X196770000Y-106580000D02*
X196770000Y-108420000D01*
X200610000Y-106580000D02*
X196770000Y-106580000D01*
X200610000Y-108420000D02*
X200610000Y-106580000D01*
%TO.C,R9*%
X139110000Y-116920000D02*
X139110000Y-115080000D01*
X139110000Y-115080000D02*
X135270000Y-115080000D01*
X135270000Y-115080000D02*
X135270000Y-116920000D01*
X135270000Y-116920000D02*
X139110000Y-116920000D01*
X140060000Y-116000000D02*
X139110000Y-116000000D01*
X134320000Y-116000000D02*
X135270000Y-116000000D01*
%TO.C,R21*%
X166180000Y-106000000D02*
X165230000Y-106000000D01*
X160440000Y-106000000D02*
X161390000Y-106000000D01*
X165230000Y-105080000D02*
X161390000Y-105080000D01*
X165230000Y-106920000D02*
X165230000Y-105080000D01*
X161390000Y-106920000D02*
X165230000Y-106920000D01*
X161390000Y-105080000D02*
X161390000Y-106920000D01*
%TO.C,R11*%
X192920000Y-117390000D02*
X191080000Y-117390000D01*
X191080000Y-117390000D02*
X191080000Y-121230000D01*
X191080000Y-121230000D02*
X192920000Y-121230000D01*
X192920000Y-121230000D02*
X192920000Y-117390000D01*
X192000000Y-116440000D02*
X192000000Y-117390000D01*
X192000000Y-122180000D02*
X192000000Y-121230000D01*
%TO.C,R12*%
X208180000Y-129500000D02*
X207230000Y-129500000D01*
X202440000Y-129500000D02*
X203390000Y-129500000D01*
X207230000Y-128580000D02*
X203390000Y-128580000D01*
X207230000Y-130420000D02*
X207230000Y-128580000D01*
X203390000Y-130420000D02*
X207230000Y-130420000D01*
X203390000Y-128580000D02*
X203390000Y-130420000D01*
%TO.C,R13*%
X197680000Y-112000000D02*
X196730000Y-112000000D01*
X191940000Y-112000000D02*
X192890000Y-112000000D01*
X196730000Y-111080000D02*
X192890000Y-111080000D01*
X196730000Y-112920000D02*
X196730000Y-111080000D01*
X192890000Y-112920000D02*
X196730000Y-112920000D01*
X192890000Y-111080000D02*
X192890000Y-112920000D01*
%TO.C,R14*%
X195000000Y-116320000D02*
X195000000Y-117270000D01*
X195000000Y-122060000D02*
X195000000Y-121110000D01*
X194080000Y-117270000D02*
X194080000Y-121110000D01*
X195920000Y-117270000D02*
X194080000Y-117270000D01*
X195920000Y-121110000D02*
X195920000Y-117270000D01*
X194080000Y-121110000D02*
X195920000Y-121110000D01*
%TO.C,R15*%
X199420000Y-117390000D02*
X197580000Y-117390000D01*
X197580000Y-117390000D02*
X197580000Y-121230000D01*
X197580000Y-121230000D02*
X199420000Y-121230000D01*
X199420000Y-121230000D02*
X199420000Y-117390000D01*
X198500000Y-116440000D02*
X198500000Y-117390000D01*
X198500000Y-122180000D02*
X198500000Y-121230000D01*
%TO.C,R16*%
X189920000Y-117390000D02*
X188080000Y-117390000D01*
X188080000Y-117390000D02*
X188080000Y-121230000D01*
X188080000Y-121230000D02*
X189920000Y-121230000D01*
X189920000Y-121230000D02*
X189920000Y-117390000D01*
X189000000Y-116440000D02*
X189000000Y-117390000D01*
X189000000Y-122180000D02*
X189000000Y-121230000D01*
%TO.C,R17*%
X198180000Y-129500000D02*
X197230000Y-129500000D01*
X192440000Y-129500000D02*
X193390000Y-129500000D01*
X197230000Y-128580000D02*
X193390000Y-128580000D01*
X197230000Y-130420000D02*
X197230000Y-128580000D01*
X193390000Y-130420000D02*
X197230000Y-130420000D01*
X193390000Y-128580000D02*
X193390000Y-130420000D01*
%TO.C,R18*%
X202420000Y-117390000D02*
X200580000Y-117390000D01*
X200580000Y-117390000D02*
X200580000Y-121230000D01*
X200580000Y-121230000D02*
X202420000Y-121230000D01*
X202420000Y-121230000D02*
X202420000Y-117390000D01*
X201500000Y-116440000D02*
X201500000Y-117390000D01*
X201500000Y-122180000D02*
X201500000Y-121230000D01*
%TO.C,R19*%
X198180000Y-126500000D02*
X197230000Y-126500000D01*
X192440000Y-126500000D02*
X193390000Y-126500000D01*
X197230000Y-125580000D02*
X193390000Y-125580000D01*
X197230000Y-127420000D02*
X197230000Y-125580000D01*
X193390000Y-127420000D02*
X197230000Y-127420000D01*
X193390000Y-125580000D02*
X193390000Y-127420000D01*
%TO.C,S1*%
X211300000Y-76800000D02*
X222150000Y-76800000D01*
X211300000Y-71700000D02*
X211300000Y-76800000D01*
X211800000Y-72000000D02*
X211300000Y-71700000D01*
X211800000Y-66600000D02*
X211800000Y-72000000D01*
X211300000Y-66850000D02*
X211800000Y-66600000D01*
X211300000Y-66800000D02*
X211300000Y-66850000D01*
X211300000Y-64900000D02*
X211300000Y-66800000D01*
X211800000Y-65150000D02*
X211300000Y-64900000D01*
X211800000Y-64200000D02*
X211800000Y-65150000D01*
X222150000Y-64200000D02*
X211800000Y-64200000D01*
X222150000Y-76800000D02*
X222150000Y-64200000D01*
%TO.C,S2*%
X210850000Y-122700000D02*
X210850000Y-135300000D01*
X210850000Y-135300000D02*
X221200000Y-135300000D01*
X221200000Y-135300000D02*
X221200000Y-134350000D01*
X221200000Y-134350000D02*
X221700000Y-134600000D01*
X221700000Y-134600000D02*
X221700000Y-132700000D01*
X221700000Y-132700000D02*
X221700000Y-132650000D01*
X221700000Y-132650000D02*
X221200000Y-132900000D01*
X221200000Y-132900000D02*
X221200000Y-127500000D01*
X221200000Y-127500000D02*
X221700000Y-127800000D01*
X221700000Y-127800000D02*
X221700000Y-122700000D01*
X221700000Y-122700000D02*
X210850000Y-122700000D01*
%TO.C,S3*%
X131300000Y-76800000D02*
X142150000Y-76800000D01*
X131300000Y-71700000D02*
X131300000Y-76800000D01*
X131800000Y-72000000D02*
X131300000Y-71700000D01*
X131800000Y-66600000D02*
X131800000Y-72000000D01*
X131300000Y-66850000D02*
X131800000Y-66600000D01*
X131300000Y-66800000D02*
X131300000Y-66850000D01*
X131300000Y-64900000D02*
X131300000Y-66800000D01*
X131800000Y-65150000D02*
X131300000Y-64900000D01*
X131800000Y-64200000D02*
X131800000Y-65150000D01*
X142150000Y-64200000D02*
X131800000Y-64200000D01*
X142150000Y-76800000D02*
X142150000Y-64200000D01*
%TO.C,S4*%
X131850000Y-122700000D02*
X131850000Y-135300000D01*
X131850000Y-135300000D02*
X142200000Y-135300000D01*
X142200000Y-135300000D02*
X142200000Y-134350000D01*
X142200000Y-134350000D02*
X142700000Y-134600000D01*
X142700000Y-134600000D02*
X142700000Y-132700000D01*
X142700000Y-132700000D02*
X142700000Y-132650000D01*
X142700000Y-132650000D02*
X142200000Y-132900000D01*
X142200000Y-132900000D02*
X142200000Y-127500000D01*
X142200000Y-127500000D02*
X142700000Y-127800000D01*
X142700000Y-127800000D02*
X142700000Y-122700000D01*
X142700000Y-122700000D02*
X131850000Y-122700000D01*
%TO.C,U24*%
X195540000Y-120860000D02*
X195540000Y-123908000D01*
X190460000Y-120860000D02*
X195540000Y-120860000D01*
X190460000Y-123908000D02*
X190460000Y-120860000D01*
X178500000Y-124000000D02*
X207500000Y-124000000D01*
X178500000Y-72000000D02*
X207500000Y-72000000D01*
X207500000Y-72000000D02*
X207500000Y-124000000D01*
X178500000Y-72000000D02*
X178500000Y-124000000D01*
%TO.C,C1*%
X170555000Y-104230000D02*
X170570000Y-104230000D01*
X168430000Y-104230000D02*
X168445000Y-104230000D01*
X170555000Y-108770000D02*
X170570000Y-108770000D01*
X168430000Y-108770000D02*
X168445000Y-108770000D01*
X170570000Y-108770000D02*
X170570000Y-104230000D01*
X168430000Y-108770000D02*
X168430000Y-104230000D01*
%TO.C,C3*%
X191270000Y-67570000D02*
X186730000Y-67570000D01*
X191270000Y-65430000D02*
X186730000Y-65430000D01*
X191270000Y-67570000D02*
X191270000Y-67555000D01*
X191270000Y-65445000D02*
X191270000Y-65430000D01*
X186730000Y-67570000D02*
X186730000Y-67555000D01*
X186730000Y-65445000D02*
X186730000Y-65430000D01*
%TO.C,C4*%
X171930000Y-77270000D02*
X171930000Y-72730000D01*
X174070000Y-77270000D02*
X174070000Y-72730000D01*
X171930000Y-77270000D02*
X171945000Y-77270000D01*
X174055000Y-77270000D02*
X174070000Y-77270000D01*
X171930000Y-72730000D02*
X171945000Y-72730000D01*
X174055000Y-72730000D02*
X174070000Y-72730000D01*
%TO.C,C5*%
X206555000Y-71230000D02*
X206570000Y-71230000D01*
X204430000Y-71230000D02*
X204445000Y-71230000D01*
X206555000Y-75770000D02*
X206570000Y-75770000D01*
X204430000Y-75770000D02*
X204445000Y-75770000D01*
X206570000Y-75770000D02*
X206570000Y-71230000D01*
X204430000Y-75770000D02*
X204430000Y-71230000D01*
%TO.C,C6*%
X156055000Y-78230000D02*
X156070000Y-78230000D01*
X153930000Y-78230000D02*
X153945000Y-78230000D01*
X156055000Y-82770000D02*
X156070000Y-82770000D01*
X153930000Y-82770000D02*
X153945000Y-82770000D01*
X156070000Y-82770000D02*
X156070000Y-78230000D01*
X153930000Y-82770000D02*
X153930000Y-78230000D01*
%TO.C,C7*%
X209730000Y-100430000D02*
X214270000Y-100430000D01*
X209730000Y-102570000D02*
X214270000Y-102570000D01*
X209730000Y-100430000D02*
X209730000Y-100445000D01*
X209730000Y-102555000D02*
X209730000Y-102570000D01*
X214270000Y-100430000D02*
X214270000Y-100445000D01*
X214270000Y-102555000D02*
X214270000Y-102570000D01*
%TO.C,R10*%
X167500000Y-115320000D02*
X167500000Y-116270000D01*
X167500000Y-121060000D02*
X167500000Y-120110000D01*
X166580000Y-116270000D02*
X166580000Y-120110000D01*
X168420000Y-116270000D02*
X166580000Y-116270000D01*
X168420000Y-120110000D02*
X168420000Y-116270000D01*
X166580000Y-120110000D02*
X168420000Y-120110000D01*
%TO.C,R20*%
X170920000Y-116890000D02*
X169080000Y-116890000D01*
X169080000Y-116890000D02*
X169080000Y-120730000D01*
X169080000Y-120730000D02*
X170920000Y-120730000D01*
X170920000Y-120730000D02*
X170920000Y-116890000D01*
X170000000Y-115940000D02*
X170000000Y-116890000D01*
X170000000Y-121680000D02*
X170000000Y-120730000D01*
%TO.C,R22*%
X172000000Y-117180000D02*
X172000000Y-116230000D01*
X172000000Y-111440000D02*
X172000000Y-112390000D01*
X172920000Y-116230000D02*
X172920000Y-112390000D01*
X171080000Y-116230000D02*
X172920000Y-116230000D01*
X171080000Y-112390000D02*
X171080000Y-116230000D01*
X172920000Y-112390000D02*
X171080000Y-112390000D01*
%TO.C,R23*%
X174080000Y-116110000D02*
X175920000Y-116110000D01*
X175920000Y-116110000D02*
X175920000Y-112270000D01*
X175920000Y-112270000D02*
X174080000Y-112270000D01*
X174080000Y-112270000D02*
X174080000Y-116110000D01*
X175000000Y-117060000D02*
X175000000Y-116110000D01*
X175000000Y-111320000D02*
X175000000Y-112270000D01*
%TO.C,R24*%
X164180000Y-81500000D02*
X163230000Y-81500000D01*
X158440000Y-81500000D02*
X159390000Y-81500000D01*
X163230000Y-80580000D02*
X159390000Y-80580000D01*
X163230000Y-82420000D02*
X163230000Y-80580000D01*
X159390000Y-82420000D02*
X163230000Y-82420000D01*
X159390000Y-80580000D02*
X159390000Y-82420000D01*
%TO.C,R25*%
X146890000Y-84580000D02*
X146890000Y-86420000D01*
X146890000Y-86420000D02*
X150730000Y-86420000D01*
X150730000Y-86420000D02*
X150730000Y-84580000D01*
X150730000Y-84580000D02*
X146890000Y-84580000D01*
X145940000Y-85500000D02*
X146890000Y-85500000D01*
X151680000Y-85500000D02*
X150730000Y-85500000D01*
%TO.C,R26*%
X151680000Y-79500000D02*
X150730000Y-79500000D01*
X145940000Y-79500000D02*
X146890000Y-79500000D01*
X150730000Y-78580000D02*
X146890000Y-78580000D01*
X150730000Y-80420000D02*
X150730000Y-78580000D01*
X146890000Y-80420000D02*
X150730000Y-80420000D01*
X146890000Y-78580000D02*
X146890000Y-80420000D01*
%TO.C,R27*%
X146890000Y-81580000D02*
X146890000Y-83420000D01*
X146890000Y-83420000D02*
X150730000Y-83420000D01*
X150730000Y-83420000D02*
X150730000Y-81580000D01*
X150730000Y-81580000D02*
X146890000Y-81580000D01*
X145940000Y-82500000D02*
X146890000Y-82500000D01*
X151680000Y-82500000D02*
X150730000Y-82500000D01*
%TO.C,R28*%
X183420000Y-120890000D02*
X181580000Y-120890000D01*
X181580000Y-120890000D02*
X181580000Y-124730000D01*
X181580000Y-124730000D02*
X183420000Y-124730000D01*
X183420000Y-124730000D02*
X183420000Y-120890000D01*
X182500000Y-119940000D02*
X182500000Y-120890000D01*
X182500000Y-125680000D02*
X182500000Y-124730000D01*
%TO.C,R29*%
X185500000Y-119820000D02*
X185500000Y-120770000D01*
X185500000Y-125560000D02*
X185500000Y-124610000D01*
X184580000Y-120770000D02*
X184580000Y-124610000D01*
X186420000Y-120770000D02*
X184580000Y-120770000D01*
X186420000Y-124610000D02*
X186420000Y-120770000D01*
X184580000Y-124610000D02*
X186420000Y-124610000D01*
%TO.C,R30*%
X166680000Y-124500000D02*
X165730000Y-124500000D01*
X160940000Y-124500000D02*
X161890000Y-124500000D01*
X165730000Y-123580000D02*
X161890000Y-123580000D01*
X165730000Y-125420000D02*
X165730000Y-123580000D01*
X161890000Y-125420000D02*
X165730000Y-125420000D01*
X161890000Y-123580000D02*
X161890000Y-125420000D01*
%TO.C,R31*%
X166680000Y-127000000D02*
X165730000Y-127000000D01*
X160940000Y-127000000D02*
X161890000Y-127000000D01*
X165730000Y-126080000D02*
X161890000Y-126080000D01*
X165730000Y-127920000D02*
X165730000Y-126080000D01*
X161890000Y-127920000D02*
X165730000Y-127920000D01*
X161890000Y-126080000D02*
X161890000Y-127920000D01*
%TO.C,R32*%
X197110000Y-133420000D02*
X197110000Y-131580000D01*
X197110000Y-131580000D02*
X193270000Y-131580000D01*
X193270000Y-131580000D02*
X193270000Y-133420000D01*
X193270000Y-133420000D02*
X197110000Y-133420000D01*
X198060000Y-132500000D02*
X197110000Y-132500000D01*
X192320000Y-132500000D02*
X193270000Y-132500000D01*
%TO.C,R33*%
X198180000Y-135000000D02*
X197230000Y-135000000D01*
X192440000Y-135000000D02*
X193390000Y-135000000D01*
X197230000Y-134080000D02*
X193390000Y-134080000D01*
X197230000Y-135920000D02*
X197230000Y-134080000D01*
X193390000Y-135920000D02*
X197230000Y-135920000D01*
X193390000Y-134080000D02*
X193390000Y-135920000D01*
%TO.C,R34*%
X173320000Y-123000000D02*
X174270000Y-123000000D01*
X179060000Y-123000000D02*
X178110000Y-123000000D01*
X174270000Y-123920000D02*
X178110000Y-123920000D01*
X174270000Y-122080000D02*
X174270000Y-123920000D01*
X178110000Y-122080000D02*
X174270000Y-122080000D01*
X178110000Y-123920000D02*
X178110000Y-122080000D01*
%TO.C,R35*%
X178110000Y-126920000D02*
X178110000Y-125080000D01*
X178110000Y-125080000D02*
X174270000Y-125080000D01*
X174270000Y-125080000D02*
X174270000Y-126920000D01*
X174270000Y-126920000D02*
X178110000Y-126920000D01*
X179060000Y-126000000D02*
X178110000Y-126000000D01*
X173320000Y-126000000D02*
X174270000Y-126000000D01*
%TO.C,R36*%
X139680000Y-86000000D02*
X138730000Y-86000000D01*
X133940000Y-86000000D02*
X134890000Y-86000000D01*
X138730000Y-85080000D02*
X134890000Y-85080000D01*
X138730000Y-86920000D02*
X138730000Y-85080000D01*
X134890000Y-86920000D02*
X138730000Y-86920000D01*
X134890000Y-85080000D02*
X134890000Y-86920000D01*
%TO.C,R37*%
X134890000Y-81580000D02*
X134890000Y-83420000D01*
X134890000Y-83420000D02*
X138730000Y-83420000D01*
X138730000Y-83420000D02*
X138730000Y-81580000D01*
X138730000Y-81580000D02*
X134890000Y-81580000D01*
X133940000Y-82500000D02*
X134890000Y-82500000D01*
X139680000Y-82500000D02*
X138730000Y-82500000D01*
%TO.C,R38*%
X134890000Y-78580000D02*
X134890000Y-80420000D01*
X134890000Y-80420000D02*
X138730000Y-80420000D01*
X138730000Y-80420000D02*
X138730000Y-78580000D01*
X138730000Y-78580000D02*
X134890000Y-78580000D01*
X133940000Y-79500000D02*
X134890000Y-79500000D01*
X139680000Y-79500000D02*
X138730000Y-79500000D01*
%TO.C,R39*%
X159390000Y-77580000D02*
X159390000Y-79420000D01*
X159390000Y-79420000D02*
X163230000Y-79420000D01*
X163230000Y-79420000D02*
X163230000Y-77580000D01*
X163230000Y-77580000D02*
X159390000Y-77580000D01*
X158440000Y-78500000D02*
X159390000Y-78500000D01*
X164180000Y-78500000D02*
X163230000Y-78500000D01*
%TO.C,U2*%
X151580000Y-103810000D02*
X151580000Y-106350000D01*
X149040000Y-103810000D02*
X149040000Y-106350000D01*
X146500000Y-103810000D02*
X146500000Y-106350000D01*
X154160000Y-87920000D02*
X154160000Y-103810000D01*
X143920000Y-87920000D02*
X143920000Y-103810000D01*
X143920000Y-87920000D02*
X154160000Y-87920000D01*
X143920000Y-103810000D02*
X154160000Y-103810000D01*
%TO.C,U3*%
X132420000Y-103810000D02*
X142660000Y-103810000D01*
X132420000Y-87920000D02*
X142660000Y-87920000D01*
X132420000Y-87920000D02*
X132420000Y-103810000D01*
X142660000Y-87920000D02*
X142660000Y-103810000D01*
X135000000Y-103810000D02*
X135000000Y-106350000D01*
X137540000Y-103810000D02*
X137540000Y-106350000D01*
X140080000Y-103810000D02*
X140080000Y-106350000D01*
%TO.C,J21*%
D10*
X109862380Y-93459523D02*
X110576666Y-93459523D01*
X110719523Y-93507142D01*
X110814761Y-93602380D01*
X110862380Y-93745238D01*
X110862380Y-93840476D01*
X109957619Y-93030952D02*
X109910000Y-92983333D01*
X109862380Y-92888095D01*
X109862380Y-92650000D01*
X109910000Y-92554761D01*
X109957619Y-92507142D01*
X110052857Y-92459523D01*
X110148095Y-92459523D01*
X110290952Y-92507142D01*
X110862380Y-93078571D01*
X110862380Y-92459523D01*
X110862380Y-91507142D02*
X110862380Y-92078571D01*
X110862380Y-91792857D02*
X109862380Y-91792857D01*
X110005238Y-91888095D01*
X110100476Y-91983333D01*
X110148095Y-92078571D01*
%TO.C,H4*%
X120518095Y-93132380D02*
X120518095Y-92132380D01*
X120518095Y-92608571D02*
X121089523Y-92608571D01*
X121089523Y-93132380D02*
X121089523Y-92132380D01*
X121994285Y-92465714D02*
X121994285Y-93132380D01*
X121756190Y-92084761D02*
X121518095Y-92799047D01*
X122137142Y-92799047D01*
%TO.C,H2*%
X81518095Y-60132380D02*
X81518095Y-59132380D01*
X81518095Y-59608571D02*
X82089523Y-59608571D01*
X82089523Y-60132380D02*
X82089523Y-59132380D01*
X82518095Y-59227619D02*
X82565714Y-59180000D01*
X82660952Y-59132380D01*
X82899047Y-59132380D01*
X82994285Y-59180000D01*
X83041904Y-59227619D01*
X83089523Y-59322857D01*
X83089523Y-59418095D01*
X83041904Y-59560952D01*
X82470476Y-60132380D01*
X83089523Y-60132380D01*
%TO.C,H1*%
X120518095Y-60132380D02*
X120518095Y-59132380D01*
X120518095Y-59608571D02*
X121089523Y-59608571D01*
X121089523Y-60132380D02*
X121089523Y-59132380D01*
X122089523Y-60132380D02*
X121518095Y-60132380D01*
X121803809Y-60132380D02*
X121803809Y-59132380D01*
X121708571Y-59275238D01*
X121613333Y-59370476D01*
X121518095Y-59418095D01*
%TO.C,H3*%
X81518095Y-93132380D02*
X81518095Y-92132380D01*
X81518095Y-92608571D02*
X82089523Y-92608571D01*
X82089523Y-93132380D02*
X82089523Y-92132380D01*
X82470476Y-92132380D02*
X83089523Y-92132380D01*
X82756190Y-92513333D01*
X82899047Y-92513333D01*
X82994285Y-92560952D01*
X83041904Y-92608571D01*
X83089523Y-92703809D01*
X83089523Y-92941904D01*
X83041904Y-93037142D01*
X82994285Y-93084761D01*
X82899047Y-93132380D01*
X82613333Y-93132380D01*
X82518095Y-93084761D01*
X82470476Y-93037142D01*
%TO.C,U14*%
X88401904Y-67513380D02*
X88401904Y-68322904D01*
X88449523Y-68418142D01*
X88497142Y-68465761D01*
X88592380Y-68513380D01*
X88782857Y-68513380D01*
X88878095Y-68465761D01*
X88925714Y-68418142D01*
X88973333Y-68322904D01*
X88973333Y-67513380D01*
X89973333Y-68513380D02*
X89401904Y-68513380D01*
X89687619Y-68513380D02*
X89687619Y-67513380D01*
X89592380Y-67656238D01*
X89497142Y-67751476D01*
X89401904Y-67799095D01*
X90830476Y-67846714D02*
X90830476Y-68513380D01*
X90592380Y-67465761D02*
X90354285Y-68180047D01*
X90973333Y-68180047D01*
%TO.C,U12*%
X112701904Y-67513380D02*
X112701904Y-68322904D01*
X112749523Y-68418142D01*
X112797142Y-68465761D01*
X112892380Y-68513380D01*
X113082857Y-68513380D01*
X113178095Y-68465761D01*
X113225714Y-68418142D01*
X113273333Y-68322904D01*
X113273333Y-67513380D01*
X114273333Y-68513380D02*
X113701904Y-68513380D01*
X113987619Y-68513380D02*
X113987619Y-67513380D01*
X113892380Y-67656238D01*
X113797142Y-67751476D01*
X113701904Y-67799095D01*
X114654285Y-67608619D02*
X114701904Y-67561000D01*
X114797142Y-67513380D01*
X115035238Y-67513380D01*
X115130476Y-67561000D01*
X115178095Y-67608619D01*
X115225714Y-67703857D01*
X115225714Y-67799095D01*
X115178095Y-67941952D01*
X114606666Y-68513380D01*
X115225714Y-68513380D01*
%TO.C,U10*%
X104601904Y-67513380D02*
X104601904Y-68322904D01*
X104649523Y-68418142D01*
X104697142Y-68465761D01*
X104792380Y-68513380D01*
X104982857Y-68513380D01*
X105078095Y-68465761D01*
X105125714Y-68418142D01*
X105173333Y-68322904D01*
X105173333Y-67513380D01*
X106173333Y-68513380D02*
X105601904Y-68513380D01*
X105887619Y-68513380D02*
X105887619Y-67513380D01*
X105792380Y-67656238D01*
X105697142Y-67751476D01*
X105601904Y-67799095D01*
X106792380Y-67513380D02*
X106887619Y-67513380D01*
X106982857Y-67561000D01*
X107030476Y-67608619D01*
X107078095Y-67703857D01*
X107125714Y-67894333D01*
X107125714Y-68132428D01*
X107078095Y-68322904D01*
X107030476Y-68418142D01*
X106982857Y-68465761D01*
X106887619Y-68513380D01*
X106792380Y-68513380D01*
X106697142Y-68465761D01*
X106649523Y-68418142D01*
X106601904Y-68322904D01*
X106554285Y-68132428D01*
X106554285Y-67894333D01*
X106601904Y-67703857D01*
X106649523Y-67608619D01*
X106697142Y-67561000D01*
X106792380Y-67513380D01*
%TO.C,U8*%
X96978095Y-67513380D02*
X96978095Y-68322904D01*
X97025714Y-68418142D01*
X97073333Y-68465761D01*
X97168571Y-68513380D01*
X97359047Y-68513380D01*
X97454285Y-68465761D01*
X97501904Y-68418142D01*
X97549523Y-68322904D01*
X97549523Y-67513380D01*
X98168571Y-67941952D02*
X98073333Y-67894333D01*
X98025714Y-67846714D01*
X97978095Y-67751476D01*
X97978095Y-67703857D01*
X98025714Y-67608619D01*
X98073333Y-67561000D01*
X98168571Y-67513380D01*
X98359047Y-67513380D01*
X98454285Y-67561000D01*
X98501904Y-67608619D01*
X98549523Y-67703857D01*
X98549523Y-67751476D01*
X98501904Y-67846714D01*
X98454285Y-67894333D01*
X98359047Y-67941952D01*
X98168571Y-67941952D01*
X98073333Y-67989571D01*
X98025714Y-68037190D01*
X97978095Y-68132428D01*
X97978095Y-68322904D01*
X98025714Y-68418142D01*
X98073333Y-68465761D01*
X98168571Y-68513380D01*
X98359047Y-68513380D01*
X98454285Y-68465761D01*
X98501904Y-68418142D01*
X98549523Y-68322904D01*
X98549523Y-68132428D01*
X98501904Y-68037190D01*
X98454285Y-67989571D01*
X98359047Y-67941952D01*
%TO.C,C2*%
X149833333Y-64107142D02*
X149785714Y-64154761D01*
X149642857Y-64202380D01*
X149547619Y-64202380D01*
X149404761Y-64154761D01*
X149309523Y-64059523D01*
X149261904Y-63964285D01*
X149214285Y-63773809D01*
X149214285Y-63630952D01*
X149261904Y-63440476D01*
X149309523Y-63345238D01*
X149404761Y-63250000D01*
X149547619Y-63202380D01*
X149642857Y-63202380D01*
X149785714Y-63250000D01*
X149833333Y-63297619D01*
X150214285Y-63297619D02*
X150261904Y-63250000D01*
X150357142Y-63202380D01*
X150595238Y-63202380D01*
X150690476Y-63250000D01*
X150738095Y-63297619D01*
X150785714Y-63392857D01*
X150785714Y-63488095D01*
X150738095Y-63630952D01*
X150166666Y-64202380D01*
X150785714Y-64202380D01*
%TO.C,D1*%
X136571904Y-116982380D02*
X136571904Y-115982380D01*
X136810000Y-115982380D01*
X136952857Y-116030000D01*
X137048095Y-116125238D01*
X137095714Y-116220476D01*
X137143333Y-116410952D01*
X137143333Y-116553809D01*
X137095714Y-116744285D01*
X137048095Y-116839523D01*
X136952857Y-116934761D01*
X136810000Y-116982380D01*
X136571904Y-116982380D01*
X138095714Y-116982380D02*
X137524285Y-116982380D01*
X137810000Y-116982380D02*
X137810000Y-115982380D01*
X137714761Y-116125238D01*
X137619523Y-116220476D01*
X137524285Y-116268095D01*
X133238095Y-117352380D02*
X133238095Y-116352380D01*
X133809523Y-117352380D02*
X133380952Y-116780952D01*
X133809523Y-116352380D02*
X133238095Y-116923809D01*
%TO.C,J1*%
X156666666Y-120122380D02*
X156666666Y-120836666D01*
X156619047Y-120979523D01*
X156523809Y-121074761D01*
X156380952Y-121122380D01*
X156285714Y-121122380D01*
X157666666Y-121122380D02*
X157095238Y-121122380D01*
X157380952Y-121122380D02*
X157380952Y-120122380D01*
X157285714Y-120265238D01*
X157190476Y-120360476D01*
X157095238Y-120408095D01*
%TO.C,J10*%
X207690476Y-73282380D02*
X207690476Y-73996666D01*
X207642857Y-74139523D01*
X207547619Y-74234761D01*
X207404761Y-74282380D01*
X207309523Y-74282380D01*
X208690476Y-74282380D02*
X208119047Y-74282380D01*
X208404761Y-74282380D02*
X208404761Y-73282380D01*
X208309523Y-73425238D01*
X208214285Y-73520476D01*
X208119047Y-73568095D01*
X209309523Y-73282380D02*
X209404761Y-73282380D01*
X209500000Y-73330000D01*
X209547619Y-73377619D01*
X209595238Y-73472857D01*
X209642857Y-73663333D01*
X209642857Y-73901428D01*
X209595238Y-74091904D01*
X209547619Y-74187142D01*
X209500000Y-74234761D01*
X209404761Y-74282380D01*
X209309523Y-74282380D01*
X209214285Y-74234761D01*
X209166666Y-74187142D01*
X209119047Y-74091904D01*
X209071428Y-73901428D01*
X209071428Y-73663333D01*
X209119047Y-73472857D01*
X209166666Y-73377619D01*
X209214285Y-73330000D01*
X209309523Y-73282380D01*
%TO.C,J11*%
X164622380Y-67039523D02*
X165336666Y-67039523D01*
X165479523Y-67087142D01*
X165574761Y-67182380D01*
X165622380Y-67325238D01*
X165622380Y-67420476D01*
X165622380Y-66039523D02*
X165622380Y-66610952D01*
X165622380Y-66325238D02*
X164622380Y-66325238D01*
X164765238Y-66420476D01*
X164860476Y-66515714D01*
X164908095Y-66610952D01*
X165622380Y-65087142D02*
X165622380Y-65658571D01*
X165622380Y-65372857D02*
X164622380Y-65372857D01*
X164765238Y-65468095D01*
X164860476Y-65563333D01*
X164908095Y-65658571D01*
%TO.C,J23*%
X175840476Y-126902380D02*
X175840476Y-127616666D01*
X175792857Y-127759523D01*
X175697619Y-127854761D01*
X175554761Y-127902380D01*
X175459523Y-127902380D01*
X176269047Y-126997619D02*
X176316666Y-126950000D01*
X176411904Y-126902380D01*
X176650000Y-126902380D01*
X176745238Y-126950000D01*
X176792857Y-126997619D01*
X176840476Y-127092857D01*
X176840476Y-127188095D01*
X176792857Y-127330952D01*
X176221428Y-127902380D01*
X176840476Y-127902380D01*
X177173809Y-126902380D02*
X177792857Y-126902380D01*
X177459523Y-127283333D01*
X177602380Y-127283333D01*
X177697619Y-127330952D01*
X177745238Y-127378571D01*
X177792857Y-127473809D01*
X177792857Y-127711904D01*
X177745238Y-127807142D01*
X177697619Y-127854761D01*
X177602380Y-127902380D01*
X177316666Y-127902380D01*
X177221428Y-127854761D01*
X177173809Y-127807142D01*
%TO.C,Q1*%
X148864761Y-137127619D02*
X148769523Y-137080000D01*
X148674285Y-136984761D01*
X148531428Y-136841904D01*
X148436190Y-136794285D01*
X148340952Y-136794285D01*
X148388571Y-137032380D02*
X148293333Y-136984761D01*
X148198095Y-136889523D01*
X148150476Y-136699047D01*
X148150476Y-136365714D01*
X148198095Y-136175238D01*
X148293333Y-136080000D01*
X148388571Y-136032380D01*
X148579047Y-136032380D01*
X148674285Y-136080000D01*
X148769523Y-136175238D01*
X148817142Y-136365714D01*
X148817142Y-136699047D01*
X148769523Y-136889523D01*
X148674285Y-136984761D01*
X148579047Y-137032380D01*
X148388571Y-137032380D01*
X149769523Y-137032380D02*
X149198095Y-137032380D01*
X149483809Y-137032380D02*
X149483809Y-136032380D01*
X149388571Y-136175238D01*
X149293333Y-136270476D01*
X149198095Y-136318095D01*
%TO.C,R1*%
X187023333Y-97372380D02*
X186690000Y-96896190D01*
X186451904Y-97372380D02*
X186451904Y-96372380D01*
X186832857Y-96372380D01*
X186928095Y-96420000D01*
X186975714Y-96467619D01*
X187023333Y-96562857D01*
X187023333Y-96705714D01*
X186975714Y-96800952D01*
X186928095Y-96848571D01*
X186832857Y-96896190D01*
X186451904Y-96896190D01*
X187975714Y-97372380D02*
X187404285Y-97372380D01*
X187690000Y-97372380D02*
X187690000Y-96372380D01*
X187594761Y-96515238D01*
X187499523Y-96610476D01*
X187404285Y-96658095D01*
%TO.C,R2*%
X187143333Y-96532380D02*
X186810000Y-96056190D01*
X186571904Y-96532380D02*
X186571904Y-95532380D01*
X186952857Y-95532380D01*
X187048095Y-95580000D01*
X187095714Y-95627619D01*
X187143333Y-95722857D01*
X187143333Y-95865714D01*
X187095714Y-95960952D01*
X187048095Y-96008571D01*
X186952857Y-96056190D01*
X186571904Y-96056190D01*
X187524285Y-95627619D02*
X187571904Y-95580000D01*
X187667142Y-95532380D01*
X187905238Y-95532380D01*
X188000476Y-95580000D01*
X188048095Y-95627619D01*
X188095714Y-95722857D01*
X188095714Y-95818095D01*
X188048095Y-95960952D01*
X187476666Y-96532380D01*
X188095714Y-96532380D01*
%TO.C,R3*%
X198643333Y-86032380D02*
X198310000Y-85556190D01*
X198071904Y-86032380D02*
X198071904Y-85032380D01*
X198452857Y-85032380D01*
X198548095Y-85080000D01*
X198595714Y-85127619D01*
X198643333Y-85222857D01*
X198643333Y-85365714D01*
X198595714Y-85460952D01*
X198548095Y-85508571D01*
X198452857Y-85556190D01*
X198071904Y-85556190D01*
X198976666Y-85032380D02*
X199595714Y-85032380D01*
X199262380Y-85413333D01*
X199405238Y-85413333D01*
X199500476Y-85460952D01*
X199548095Y-85508571D01*
X199595714Y-85603809D01*
X199595714Y-85841904D01*
X199548095Y-85937142D01*
X199500476Y-85984761D01*
X199405238Y-86032380D01*
X199119523Y-86032380D01*
X199024285Y-85984761D01*
X198976666Y-85937142D01*
%TO.C,R4*%
X198523333Y-92872380D02*
X198190000Y-92396190D01*
X197951904Y-92872380D02*
X197951904Y-91872380D01*
X198332857Y-91872380D01*
X198428095Y-91920000D01*
X198475714Y-91967619D01*
X198523333Y-92062857D01*
X198523333Y-92205714D01*
X198475714Y-92300952D01*
X198428095Y-92348571D01*
X198332857Y-92396190D01*
X197951904Y-92396190D01*
X199380476Y-92205714D02*
X199380476Y-92872380D01*
X199142380Y-91824761D02*
X198904285Y-92539047D01*
X199523333Y-92539047D01*
%TO.C,R5*%
X198643333Y-95532380D02*
X198310000Y-95056190D01*
X198071904Y-95532380D02*
X198071904Y-94532380D01*
X198452857Y-94532380D01*
X198548095Y-94580000D01*
X198595714Y-94627619D01*
X198643333Y-94722857D01*
X198643333Y-94865714D01*
X198595714Y-94960952D01*
X198548095Y-95008571D01*
X198452857Y-95056190D01*
X198071904Y-95056190D01*
X199548095Y-94532380D02*
X199071904Y-94532380D01*
X199024285Y-95008571D01*
X199071904Y-94960952D01*
X199167142Y-94913333D01*
X199405238Y-94913333D01*
X199500476Y-94960952D01*
X199548095Y-95008571D01*
X199595714Y-95103809D01*
X199595714Y-95341904D01*
X199548095Y-95437142D01*
X199500476Y-95484761D01*
X199405238Y-95532380D01*
X199167142Y-95532380D01*
X199071904Y-95484761D01*
X199024285Y-95437142D01*
%TO.C,R6*%
X198523333Y-96372380D02*
X198190000Y-95896190D01*
X197951904Y-96372380D02*
X197951904Y-95372380D01*
X198332857Y-95372380D01*
X198428095Y-95420000D01*
X198475714Y-95467619D01*
X198523333Y-95562857D01*
X198523333Y-95705714D01*
X198475714Y-95800952D01*
X198428095Y-95848571D01*
X198332857Y-95896190D01*
X197951904Y-95896190D01*
X199380476Y-95372380D02*
X199190000Y-95372380D01*
X199094761Y-95420000D01*
X199047142Y-95467619D01*
X198951904Y-95610476D01*
X198904285Y-95800952D01*
X198904285Y-96181904D01*
X198951904Y-96277142D01*
X198999523Y-96324761D01*
X199094761Y-96372380D01*
X199285238Y-96372380D01*
X199380476Y-96324761D01*
X199428095Y-96277142D01*
X199475714Y-96181904D01*
X199475714Y-95943809D01*
X199428095Y-95848571D01*
X199380476Y-95800952D01*
X199285238Y-95753333D01*
X199094761Y-95753333D01*
X198999523Y-95800952D01*
X198951904Y-95848571D01*
X198904285Y-95943809D01*
%TO.C,R7*%
X198643333Y-103032380D02*
X198310000Y-102556190D01*
X198071904Y-103032380D02*
X198071904Y-102032380D01*
X198452857Y-102032380D01*
X198548095Y-102080000D01*
X198595714Y-102127619D01*
X198643333Y-102222857D01*
X198643333Y-102365714D01*
X198595714Y-102460952D01*
X198548095Y-102508571D01*
X198452857Y-102556190D01*
X198071904Y-102556190D01*
X198976666Y-102032380D02*
X199643333Y-102032380D01*
X199214761Y-103032380D01*
%TO.C,R8*%
X198523333Y-109872380D02*
X198190000Y-109396190D01*
X197951904Y-109872380D02*
X197951904Y-108872380D01*
X198332857Y-108872380D01*
X198428095Y-108920000D01*
X198475714Y-108967619D01*
X198523333Y-109062857D01*
X198523333Y-109205714D01*
X198475714Y-109300952D01*
X198428095Y-109348571D01*
X198332857Y-109396190D01*
X197951904Y-109396190D01*
X199094761Y-109300952D02*
X198999523Y-109253333D01*
X198951904Y-109205714D01*
X198904285Y-109110476D01*
X198904285Y-109062857D01*
X198951904Y-108967619D01*
X198999523Y-108920000D01*
X199094761Y-108872380D01*
X199285238Y-108872380D01*
X199380476Y-108920000D01*
X199428095Y-108967619D01*
X199475714Y-109062857D01*
X199475714Y-109110476D01*
X199428095Y-109205714D01*
X199380476Y-109253333D01*
X199285238Y-109300952D01*
X199094761Y-109300952D01*
X198999523Y-109348571D01*
X198951904Y-109396190D01*
X198904285Y-109491428D01*
X198904285Y-109681904D01*
X198951904Y-109777142D01*
X198999523Y-109824761D01*
X199094761Y-109872380D01*
X199285238Y-109872380D01*
X199380476Y-109824761D01*
X199428095Y-109777142D01*
X199475714Y-109681904D01*
X199475714Y-109491428D01*
X199428095Y-109396190D01*
X199380476Y-109348571D01*
X199285238Y-109300952D01*
%TO.C,R9*%
X137023333Y-118372380D02*
X136690000Y-117896190D01*
X136451904Y-118372380D02*
X136451904Y-117372380D01*
X136832857Y-117372380D01*
X136928095Y-117420000D01*
X136975714Y-117467619D01*
X137023333Y-117562857D01*
X137023333Y-117705714D01*
X136975714Y-117800952D01*
X136928095Y-117848571D01*
X136832857Y-117896190D01*
X136451904Y-117896190D01*
X137499523Y-118372380D02*
X137690000Y-118372380D01*
X137785238Y-118324761D01*
X137832857Y-118277142D01*
X137928095Y-118134285D01*
X137975714Y-117943809D01*
X137975714Y-117562857D01*
X137928095Y-117467619D01*
X137880476Y-117420000D01*
X137785238Y-117372380D01*
X137594761Y-117372380D01*
X137499523Y-117420000D01*
X137451904Y-117467619D01*
X137404285Y-117562857D01*
X137404285Y-117800952D01*
X137451904Y-117896190D01*
X137499523Y-117943809D01*
X137594761Y-117991428D01*
X137785238Y-117991428D01*
X137880476Y-117943809D01*
X137928095Y-117896190D01*
X137975714Y-117800952D01*
%TO.C,R21*%
X162667142Y-104532380D02*
X162333809Y-104056190D01*
X162095714Y-104532380D02*
X162095714Y-103532380D01*
X162476666Y-103532380D01*
X162571904Y-103580000D01*
X162619523Y-103627619D01*
X162667142Y-103722857D01*
X162667142Y-103865714D01*
X162619523Y-103960952D01*
X162571904Y-104008571D01*
X162476666Y-104056190D01*
X162095714Y-104056190D01*
X163048095Y-103627619D02*
X163095714Y-103580000D01*
X163190952Y-103532380D01*
X163429047Y-103532380D01*
X163524285Y-103580000D01*
X163571904Y-103627619D01*
X163619523Y-103722857D01*
X163619523Y-103818095D01*
X163571904Y-103960952D01*
X163000476Y-104532380D01*
X163619523Y-104532380D01*
X164571904Y-104532380D02*
X164000476Y-104532380D01*
X164286190Y-104532380D02*
X164286190Y-103532380D01*
X164190952Y-103675238D01*
X164095714Y-103770476D01*
X164000476Y-103818095D01*
%TO.C,R11*%
X194372380Y-119952857D02*
X193896190Y-120286190D01*
X194372380Y-120524285D02*
X193372380Y-120524285D01*
X193372380Y-120143333D01*
X193420000Y-120048095D01*
X193467619Y-120000476D01*
X193562857Y-119952857D01*
X193705714Y-119952857D01*
X193800952Y-120000476D01*
X193848571Y-120048095D01*
X193896190Y-120143333D01*
X193896190Y-120524285D01*
X194372380Y-119000476D02*
X194372380Y-119571904D01*
X194372380Y-119286190D02*
X193372380Y-119286190D01*
X193515238Y-119381428D01*
X193610476Y-119476666D01*
X193658095Y-119571904D01*
X194372380Y-118048095D02*
X194372380Y-118619523D01*
X194372380Y-118333809D02*
X193372380Y-118333809D01*
X193515238Y-118429047D01*
X193610476Y-118524285D01*
X193658095Y-118619523D01*
%TO.C,R12*%
X204667142Y-128032380D02*
X204333809Y-127556190D01*
X204095714Y-128032380D02*
X204095714Y-127032380D01*
X204476666Y-127032380D01*
X204571904Y-127080000D01*
X204619523Y-127127619D01*
X204667142Y-127222857D01*
X204667142Y-127365714D01*
X204619523Y-127460952D01*
X204571904Y-127508571D01*
X204476666Y-127556190D01*
X204095714Y-127556190D01*
X205619523Y-128032380D02*
X205048095Y-128032380D01*
X205333809Y-128032380D02*
X205333809Y-127032380D01*
X205238571Y-127175238D01*
X205143333Y-127270476D01*
X205048095Y-127318095D01*
X206000476Y-127127619D02*
X206048095Y-127080000D01*
X206143333Y-127032380D01*
X206381428Y-127032380D01*
X206476666Y-127080000D01*
X206524285Y-127127619D01*
X206571904Y-127222857D01*
X206571904Y-127318095D01*
X206524285Y-127460952D01*
X205952857Y-128032380D01*
X206571904Y-128032380D01*
%TO.C,R13*%
X194167142Y-110532380D02*
X193833809Y-110056190D01*
X193595714Y-110532380D02*
X193595714Y-109532380D01*
X193976666Y-109532380D01*
X194071904Y-109580000D01*
X194119523Y-109627619D01*
X194167142Y-109722857D01*
X194167142Y-109865714D01*
X194119523Y-109960952D01*
X194071904Y-110008571D01*
X193976666Y-110056190D01*
X193595714Y-110056190D01*
X195119523Y-110532380D02*
X194548095Y-110532380D01*
X194833809Y-110532380D02*
X194833809Y-109532380D01*
X194738571Y-109675238D01*
X194643333Y-109770476D01*
X194548095Y-109818095D01*
X195452857Y-109532380D02*
X196071904Y-109532380D01*
X195738571Y-109913333D01*
X195881428Y-109913333D01*
X195976666Y-109960952D01*
X196024285Y-110008571D01*
X196071904Y-110103809D01*
X196071904Y-110341904D01*
X196024285Y-110437142D01*
X195976666Y-110484761D01*
X195881428Y-110532380D01*
X195595714Y-110532380D01*
X195500476Y-110484761D01*
X195452857Y-110437142D01*
%TO.C,R14*%
X193532380Y-119832857D02*
X193056190Y-120166190D01*
X193532380Y-120404285D02*
X192532380Y-120404285D01*
X192532380Y-120023333D01*
X192580000Y-119928095D01*
X192627619Y-119880476D01*
X192722857Y-119832857D01*
X192865714Y-119832857D01*
X192960952Y-119880476D01*
X193008571Y-119928095D01*
X193056190Y-120023333D01*
X193056190Y-120404285D01*
X193532380Y-118880476D02*
X193532380Y-119451904D01*
X193532380Y-119166190D02*
X192532380Y-119166190D01*
X192675238Y-119261428D01*
X192770476Y-119356666D01*
X192818095Y-119451904D01*
X192865714Y-118023333D02*
X193532380Y-118023333D01*
X192484761Y-118261428D02*
X193199047Y-118499523D01*
X193199047Y-117880476D01*
%TO.C,R15*%
X200872380Y-119952857D02*
X200396190Y-120286190D01*
X200872380Y-120524285D02*
X199872380Y-120524285D01*
X199872380Y-120143333D01*
X199920000Y-120048095D01*
X199967619Y-120000476D01*
X200062857Y-119952857D01*
X200205714Y-119952857D01*
X200300952Y-120000476D01*
X200348571Y-120048095D01*
X200396190Y-120143333D01*
X200396190Y-120524285D01*
X200872380Y-119000476D02*
X200872380Y-119571904D01*
X200872380Y-119286190D02*
X199872380Y-119286190D01*
X200015238Y-119381428D01*
X200110476Y-119476666D01*
X200158095Y-119571904D01*
X199872380Y-118095714D02*
X199872380Y-118571904D01*
X200348571Y-118619523D01*
X200300952Y-118571904D01*
X200253333Y-118476666D01*
X200253333Y-118238571D01*
X200300952Y-118143333D01*
X200348571Y-118095714D01*
X200443809Y-118048095D01*
X200681904Y-118048095D01*
X200777142Y-118095714D01*
X200824761Y-118143333D01*
X200872380Y-118238571D01*
X200872380Y-118476666D01*
X200824761Y-118571904D01*
X200777142Y-118619523D01*
%TO.C,R16*%
X191372380Y-119952857D02*
X190896190Y-120286190D01*
X191372380Y-120524285D02*
X190372380Y-120524285D01*
X190372380Y-120143333D01*
X190420000Y-120048095D01*
X190467619Y-120000476D01*
X190562857Y-119952857D01*
X190705714Y-119952857D01*
X190800952Y-120000476D01*
X190848571Y-120048095D01*
X190896190Y-120143333D01*
X190896190Y-120524285D01*
X191372380Y-119000476D02*
X191372380Y-119571904D01*
X191372380Y-119286190D02*
X190372380Y-119286190D01*
X190515238Y-119381428D01*
X190610476Y-119476666D01*
X190658095Y-119571904D01*
X190372380Y-118143333D02*
X190372380Y-118333809D01*
X190420000Y-118429047D01*
X190467619Y-118476666D01*
X190610476Y-118571904D01*
X190800952Y-118619523D01*
X191181904Y-118619523D01*
X191277142Y-118571904D01*
X191324761Y-118524285D01*
X191372380Y-118429047D01*
X191372380Y-118238571D01*
X191324761Y-118143333D01*
X191277142Y-118095714D01*
X191181904Y-118048095D01*
X190943809Y-118048095D01*
X190848571Y-118095714D01*
X190800952Y-118143333D01*
X190753333Y-118238571D01*
X190753333Y-118429047D01*
X190800952Y-118524285D01*
X190848571Y-118571904D01*
X190943809Y-118619523D01*
%TO.C,R17*%
X194667142Y-128032380D02*
X194333809Y-127556190D01*
X194095714Y-128032380D02*
X194095714Y-127032380D01*
X194476666Y-127032380D01*
X194571904Y-127080000D01*
X194619523Y-127127619D01*
X194667142Y-127222857D01*
X194667142Y-127365714D01*
X194619523Y-127460952D01*
X194571904Y-127508571D01*
X194476666Y-127556190D01*
X194095714Y-127556190D01*
X195619523Y-128032380D02*
X195048095Y-128032380D01*
X195333809Y-128032380D02*
X195333809Y-127032380D01*
X195238571Y-127175238D01*
X195143333Y-127270476D01*
X195048095Y-127318095D01*
X195952857Y-127032380D02*
X196619523Y-127032380D01*
X196190952Y-128032380D01*
%TO.C,R18*%
X203872380Y-119952857D02*
X203396190Y-120286190D01*
X203872380Y-120524285D02*
X202872380Y-120524285D01*
X202872380Y-120143333D01*
X202920000Y-120048095D01*
X202967619Y-120000476D01*
X203062857Y-119952857D01*
X203205714Y-119952857D01*
X203300952Y-120000476D01*
X203348571Y-120048095D01*
X203396190Y-120143333D01*
X203396190Y-120524285D01*
X203872380Y-119000476D02*
X203872380Y-119571904D01*
X203872380Y-119286190D02*
X202872380Y-119286190D01*
X203015238Y-119381428D01*
X203110476Y-119476666D01*
X203158095Y-119571904D01*
X203300952Y-118429047D02*
X203253333Y-118524285D01*
X203205714Y-118571904D01*
X203110476Y-118619523D01*
X203062857Y-118619523D01*
X202967619Y-118571904D01*
X202920000Y-118524285D01*
X202872380Y-118429047D01*
X202872380Y-118238571D01*
X202920000Y-118143333D01*
X202967619Y-118095714D01*
X203062857Y-118048095D01*
X203110476Y-118048095D01*
X203205714Y-118095714D01*
X203253333Y-118143333D01*
X203300952Y-118238571D01*
X203300952Y-118429047D01*
X203348571Y-118524285D01*
X203396190Y-118571904D01*
X203491428Y-118619523D01*
X203681904Y-118619523D01*
X203777142Y-118571904D01*
X203824761Y-118524285D01*
X203872380Y-118429047D01*
X203872380Y-118238571D01*
X203824761Y-118143333D01*
X203777142Y-118095714D01*
X203681904Y-118048095D01*
X203491428Y-118048095D01*
X203396190Y-118095714D01*
X203348571Y-118143333D01*
X203300952Y-118238571D01*
%TO.C,R19*%
X194667142Y-125032380D02*
X194333809Y-124556190D01*
X194095714Y-125032380D02*
X194095714Y-124032380D01*
X194476666Y-124032380D01*
X194571904Y-124080000D01*
X194619523Y-124127619D01*
X194667142Y-124222857D01*
X194667142Y-124365714D01*
X194619523Y-124460952D01*
X194571904Y-124508571D01*
X194476666Y-124556190D01*
X194095714Y-124556190D01*
X195619523Y-125032380D02*
X195048095Y-125032380D01*
X195333809Y-125032380D02*
X195333809Y-124032380D01*
X195238571Y-124175238D01*
X195143333Y-124270476D01*
X195048095Y-124318095D01*
X196095714Y-125032380D02*
X196286190Y-125032380D01*
X196381428Y-124984761D01*
X196429047Y-124937142D01*
X196524285Y-124794285D01*
X196571904Y-124603809D01*
X196571904Y-124222857D01*
X196524285Y-124127619D01*
X196476666Y-124080000D01*
X196381428Y-124032380D01*
X196190952Y-124032380D01*
X196095714Y-124080000D01*
X196048095Y-124127619D01*
X196000476Y-124222857D01*
X196000476Y-124460952D01*
X196048095Y-124556190D01*
X196095714Y-124603809D01*
X196190952Y-124651428D01*
X196381428Y-124651428D01*
X196476666Y-124603809D01*
X196524285Y-124556190D01*
X196571904Y-124460952D01*
%TO.C,S1*%
X220658095Y-77894761D02*
X220800952Y-77942380D01*
X221039047Y-77942380D01*
X221134285Y-77894761D01*
X221181904Y-77847142D01*
X221229523Y-77751904D01*
X221229523Y-77656666D01*
X221181904Y-77561428D01*
X221134285Y-77513809D01*
X221039047Y-77466190D01*
X220848571Y-77418571D01*
X220753333Y-77370952D01*
X220705714Y-77323333D01*
X220658095Y-77228095D01*
X220658095Y-77132857D01*
X220705714Y-77037619D01*
X220753333Y-76990000D01*
X220848571Y-76942380D01*
X221086666Y-76942380D01*
X221229523Y-76990000D01*
X222181904Y-77942380D02*
X221610476Y-77942380D01*
X221896190Y-77942380D02*
X221896190Y-76942380D01*
X221800952Y-77085238D01*
X221705714Y-77180476D01*
X221610476Y-77228095D01*
%TO.C,S2*%
X210818095Y-122414761D02*
X210960952Y-122462380D01*
X211199047Y-122462380D01*
X211294285Y-122414761D01*
X211341904Y-122367142D01*
X211389523Y-122271904D01*
X211389523Y-122176666D01*
X211341904Y-122081428D01*
X211294285Y-122033809D01*
X211199047Y-121986190D01*
X211008571Y-121938571D01*
X210913333Y-121890952D01*
X210865714Y-121843333D01*
X210818095Y-121748095D01*
X210818095Y-121652857D01*
X210865714Y-121557619D01*
X210913333Y-121510000D01*
X211008571Y-121462380D01*
X211246666Y-121462380D01*
X211389523Y-121510000D01*
X211770476Y-121557619D02*
X211818095Y-121510000D01*
X211913333Y-121462380D01*
X212151428Y-121462380D01*
X212246666Y-121510000D01*
X212294285Y-121557619D01*
X212341904Y-121652857D01*
X212341904Y-121748095D01*
X212294285Y-121890952D01*
X211722857Y-122462380D01*
X212341904Y-122462380D01*
%TO.C,S3*%
X140658095Y-77894761D02*
X140800952Y-77942380D01*
X141039047Y-77942380D01*
X141134285Y-77894761D01*
X141181904Y-77847142D01*
X141229523Y-77751904D01*
X141229523Y-77656666D01*
X141181904Y-77561428D01*
X141134285Y-77513809D01*
X141039047Y-77466190D01*
X140848571Y-77418571D01*
X140753333Y-77370952D01*
X140705714Y-77323333D01*
X140658095Y-77228095D01*
X140658095Y-77132857D01*
X140705714Y-77037619D01*
X140753333Y-76990000D01*
X140848571Y-76942380D01*
X141086666Y-76942380D01*
X141229523Y-76990000D01*
X141562857Y-76942380D02*
X142181904Y-76942380D01*
X141848571Y-77323333D01*
X141991428Y-77323333D01*
X142086666Y-77370952D01*
X142134285Y-77418571D01*
X142181904Y-77513809D01*
X142181904Y-77751904D01*
X142134285Y-77847142D01*
X142086666Y-77894761D01*
X141991428Y-77942380D01*
X141705714Y-77942380D01*
X141610476Y-77894761D01*
X141562857Y-77847142D01*
%TO.C,S4*%
X131818095Y-122414761D02*
X131960952Y-122462380D01*
X132199047Y-122462380D01*
X132294285Y-122414761D01*
X132341904Y-122367142D01*
X132389523Y-122271904D01*
X132389523Y-122176666D01*
X132341904Y-122081428D01*
X132294285Y-122033809D01*
X132199047Y-121986190D01*
X132008571Y-121938571D01*
X131913333Y-121890952D01*
X131865714Y-121843333D01*
X131818095Y-121748095D01*
X131818095Y-121652857D01*
X131865714Y-121557619D01*
X131913333Y-121510000D01*
X132008571Y-121462380D01*
X132246666Y-121462380D01*
X132389523Y-121510000D01*
X133246666Y-121795714D02*
X133246666Y-122462380D01*
X133008571Y-121414761D02*
X132770476Y-122129047D01*
X133389523Y-122129047D01*
%TO.C,U24*%
X191761904Y-112452380D02*
X191761904Y-113261904D01*
X191809523Y-113357142D01*
X191857142Y-113404761D01*
X191952380Y-113452380D01*
X192142857Y-113452380D01*
X192238095Y-113404761D01*
X192285714Y-113357142D01*
X192333333Y-113261904D01*
X192333333Y-112452380D01*
X192761904Y-112547619D02*
X192809523Y-112500000D01*
X192904761Y-112452380D01*
X193142857Y-112452380D01*
X193238095Y-112500000D01*
X193285714Y-112547619D01*
X193333333Y-112642857D01*
X193333333Y-112738095D01*
X193285714Y-112880952D01*
X192714285Y-113452380D01*
X193333333Y-113452380D01*
X194190476Y-112785714D02*
X194190476Y-113452380D01*
X193952380Y-112404761D02*
X193714285Y-113119047D01*
X194333333Y-113119047D01*
X191738095Y-119042380D02*
X191738095Y-119851904D01*
X191785714Y-119947142D01*
X191833333Y-119994761D01*
X191928571Y-120042380D01*
X192119047Y-120042380D01*
X192214285Y-119994761D01*
X192261904Y-119947142D01*
X192309523Y-119851904D01*
X192309523Y-119042380D01*
X192738095Y-119994761D02*
X192880952Y-120042380D01*
X193119047Y-120042380D01*
X193214285Y-119994761D01*
X193261904Y-119947142D01*
X193309523Y-119851904D01*
X193309523Y-119756666D01*
X193261904Y-119661428D01*
X193214285Y-119613809D01*
X193119047Y-119566190D01*
X192928571Y-119518571D01*
X192833333Y-119470952D01*
X192785714Y-119423333D01*
X192738095Y-119328095D01*
X192738095Y-119232857D01*
X192785714Y-119137619D01*
X192833333Y-119090000D01*
X192928571Y-119042380D01*
X193166666Y-119042380D01*
X193309523Y-119090000D01*
X194071428Y-119518571D02*
X194214285Y-119566190D01*
X194261904Y-119613809D01*
X194309523Y-119709047D01*
X194309523Y-119851904D01*
X194261904Y-119947142D01*
X194214285Y-119994761D01*
X194119047Y-120042380D01*
X193738095Y-120042380D01*
X193738095Y-119042380D01*
X194071428Y-119042380D01*
X194166666Y-119090000D01*
X194214285Y-119137619D01*
X194261904Y-119232857D01*
X194261904Y-119328095D01*
X194214285Y-119423333D01*
X194166666Y-119470952D01*
X194071428Y-119518571D01*
X193738095Y-119518571D01*
%TO.C,C1*%
X167657142Y-106666666D02*
X167704761Y-106714285D01*
X167752380Y-106857142D01*
X167752380Y-106952380D01*
X167704761Y-107095238D01*
X167609523Y-107190476D01*
X167514285Y-107238095D01*
X167323809Y-107285714D01*
X167180952Y-107285714D01*
X166990476Y-107238095D01*
X166895238Y-107190476D01*
X166800000Y-107095238D01*
X166752380Y-106952380D01*
X166752380Y-106857142D01*
X166800000Y-106714285D01*
X166847619Y-106666666D01*
X167752380Y-105714285D02*
X167752380Y-106285714D01*
X167752380Y-106000000D02*
X166752380Y-106000000D01*
X166895238Y-106095238D01*
X166990476Y-106190476D01*
X167038095Y-106285714D01*
%TO.C,C3*%
X188833333Y-69057142D02*
X188785714Y-69104761D01*
X188642857Y-69152380D01*
X188547619Y-69152380D01*
X188404761Y-69104761D01*
X188309523Y-69009523D01*
X188261904Y-68914285D01*
X188214285Y-68723809D01*
X188214285Y-68580952D01*
X188261904Y-68390476D01*
X188309523Y-68295238D01*
X188404761Y-68200000D01*
X188547619Y-68152380D01*
X188642857Y-68152380D01*
X188785714Y-68200000D01*
X188833333Y-68247619D01*
X189166666Y-68152380D02*
X189785714Y-68152380D01*
X189452380Y-68533333D01*
X189595238Y-68533333D01*
X189690476Y-68580952D01*
X189738095Y-68628571D01*
X189785714Y-68723809D01*
X189785714Y-68961904D01*
X189738095Y-69057142D01*
X189690476Y-69104761D01*
X189595238Y-69152380D01*
X189309523Y-69152380D01*
X189214285Y-69104761D01*
X189166666Y-69057142D01*
%TO.C,C4*%
X171157142Y-75166666D02*
X171204761Y-75214285D01*
X171252380Y-75357142D01*
X171252380Y-75452380D01*
X171204761Y-75595238D01*
X171109523Y-75690476D01*
X171014285Y-75738095D01*
X170823809Y-75785714D01*
X170680952Y-75785714D01*
X170490476Y-75738095D01*
X170395238Y-75690476D01*
X170300000Y-75595238D01*
X170252380Y-75452380D01*
X170252380Y-75357142D01*
X170300000Y-75214285D01*
X170347619Y-75166666D01*
X170585714Y-74309523D02*
X171252380Y-74309523D01*
X170204761Y-74547619D02*
X170919047Y-74785714D01*
X170919047Y-74166666D01*
%TO.C,C5*%
X203657142Y-73666666D02*
X203704761Y-73714285D01*
X203752380Y-73857142D01*
X203752380Y-73952380D01*
X203704761Y-74095238D01*
X203609523Y-74190476D01*
X203514285Y-74238095D01*
X203323809Y-74285714D01*
X203180952Y-74285714D01*
X202990476Y-74238095D01*
X202895238Y-74190476D01*
X202800000Y-74095238D01*
X202752380Y-73952380D01*
X202752380Y-73857142D01*
X202800000Y-73714285D01*
X202847619Y-73666666D01*
X202752380Y-72761904D02*
X202752380Y-73238095D01*
X203228571Y-73285714D01*
X203180952Y-73238095D01*
X203133333Y-73142857D01*
X203133333Y-72904761D01*
X203180952Y-72809523D01*
X203228571Y-72761904D01*
X203323809Y-72714285D01*
X203561904Y-72714285D01*
X203657142Y-72761904D01*
X203704761Y-72809523D01*
X203752380Y-72904761D01*
X203752380Y-73142857D01*
X203704761Y-73238095D01*
X203657142Y-73285714D01*
%TO.C,C6*%
X153157142Y-80666666D02*
X153204761Y-80714285D01*
X153252380Y-80857142D01*
X153252380Y-80952380D01*
X153204761Y-81095238D01*
X153109523Y-81190476D01*
X153014285Y-81238095D01*
X152823809Y-81285714D01*
X152680952Y-81285714D01*
X152490476Y-81238095D01*
X152395238Y-81190476D01*
X152300000Y-81095238D01*
X152252380Y-80952380D01*
X152252380Y-80857142D01*
X152300000Y-80714285D01*
X152347619Y-80666666D01*
X152252380Y-79809523D02*
X152252380Y-80000000D01*
X152300000Y-80095238D01*
X152347619Y-80142857D01*
X152490476Y-80238095D01*
X152680952Y-80285714D01*
X153061904Y-80285714D01*
X153157142Y-80238095D01*
X153204761Y-80190476D01*
X153252380Y-80095238D01*
X153252380Y-79904761D01*
X153204761Y-79809523D01*
X153157142Y-79761904D01*
X153061904Y-79714285D01*
X152823809Y-79714285D01*
X152728571Y-79761904D01*
X152680952Y-79809523D01*
X152633333Y-79904761D01*
X152633333Y-80095238D01*
X152680952Y-80190476D01*
X152728571Y-80238095D01*
X152823809Y-80285714D01*
%TO.C,C7*%
X211833333Y-99657142D02*
X211785714Y-99704761D01*
X211642857Y-99752380D01*
X211547619Y-99752380D01*
X211404761Y-99704761D01*
X211309523Y-99609523D01*
X211261904Y-99514285D01*
X211214285Y-99323809D01*
X211214285Y-99180952D01*
X211261904Y-98990476D01*
X211309523Y-98895238D01*
X211404761Y-98800000D01*
X211547619Y-98752380D01*
X211642857Y-98752380D01*
X211785714Y-98800000D01*
X211833333Y-98847619D01*
X212166666Y-98752380D02*
X212833333Y-98752380D01*
X212404761Y-99752380D01*
%TO.C,R10*%
X166032380Y-118832857D02*
X165556190Y-119166190D01*
X166032380Y-119404285D02*
X165032380Y-119404285D01*
X165032380Y-119023333D01*
X165080000Y-118928095D01*
X165127619Y-118880476D01*
X165222857Y-118832857D01*
X165365714Y-118832857D01*
X165460952Y-118880476D01*
X165508571Y-118928095D01*
X165556190Y-119023333D01*
X165556190Y-119404285D01*
X166032380Y-117880476D02*
X166032380Y-118451904D01*
X166032380Y-118166190D02*
X165032380Y-118166190D01*
X165175238Y-118261428D01*
X165270476Y-118356666D01*
X165318095Y-118451904D01*
X165032380Y-117261428D02*
X165032380Y-117166190D01*
X165080000Y-117070952D01*
X165127619Y-117023333D01*
X165222857Y-116975714D01*
X165413333Y-116928095D01*
X165651428Y-116928095D01*
X165841904Y-116975714D01*
X165937142Y-117023333D01*
X165984761Y-117070952D01*
X166032380Y-117166190D01*
X166032380Y-117261428D01*
X165984761Y-117356666D01*
X165937142Y-117404285D01*
X165841904Y-117451904D01*
X165651428Y-117499523D01*
X165413333Y-117499523D01*
X165222857Y-117451904D01*
X165127619Y-117404285D01*
X165080000Y-117356666D01*
X165032380Y-117261428D01*
%TO.C,R20*%
X172372380Y-119452857D02*
X171896190Y-119786190D01*
X172372380Y-120024285D02*
X171372380Y-120024285D01*
X171372380Y-119643333D01*
X171420000Y-119548095D01*
X171467619Y-119500476D01*
X171562857Y-119452857D01*
X171705714Y-119452857D01*
X171800952Y-119500476D01*
X171848571Y-119548095D01*
X171896190Y-119643333D01*
X171896190Y-120024285D01*
X171467619Y-119071904D02*
X171420000Y-119024285D01*
X171372380Y-118929047D01*
X171372380Y-118690952D01*
X171420000Y-118595714D01*
X171467619Y-118548095D01*
X171562857Y-118500476D01*
X171658095Y-118500476D01*
X171800952Y-118548095D01*
X172372380Y-119119523D01*
X172372380Y-118500476D01*
X171372380Y-117881428D02*
X171372380Y-117786190D01*
X171420000Y-117690952D01*
X171467619Y-117643333D01*
X171562857Y-117595714D01*
X171753333Y-117548095D01*
X171991428Y-117548095D01*
X172181904Y-117595714D01*
X172277142Y-117643333D01*
X172324761Y-117690952D01*
X172372380Y-117786190D01*
X172372380Y-117881428D01*
X172324761Y-117976666D01*
X172277142Y-118024285D01*
X172181904Y-118071904D01*
X171991428Y-118119523D01*
X171753333Y-118119523D01*
X171562857Y-118071904D01*
X171467619Y-118024285D01*
X171420000Y-117976666D01*
X171372380Y-117881428D01*
%TO.C,R22*%
X174372380Y-114952857D02*
X173896190Y-115286190D01*
X174372380Y-115524285D02*
X173372380Y-115524285D01*
X173372380Y-115143333D01*
X173420000Y-115048095D01*
X173467619Y-115000476D01*
X173562857Y-114952857D01*
X173705714Y-114952857D01*
X173800952Y-115000476D01*
X173848571Y-115048095D01*
X173896190Y-115143333D01*
X173896190Y-115524285D01*
X173467619Y-114571904D02*
X173420000Y-114524285D01*
X173372380Y-114429047D01*
X173372380Y-114190952D01*
X173420000Y-114095714D01*
X173467619Y-114048095D01*
X173562857Y-114000476D01*
X173658095Y-114000476D01*
X173800952Y-114048095D01*
X174372380Y-114619523D01*
X174372380Y-114000476D01*
X173467619Y-113619523D02*
X173420000Y-113571904D01*
X173372380Y-113476666D01*
X173372380Y-113238571D01*
X173420000Y-113143333D01*
X173467619Y-113095714D01*
X173562857Y-113048095D01*
X173658095Y-113048095D01*
X173800952Y-113095714D01*
X174372380Y-113667142D01*
X174372380Y-113048095D01*
%TO.C,R23*%
X173532380Y-114832857D02*
X173056190Y-115166190D01*
X173532380Y-115404285D02*
X172532380Y-115404285D01*
X172532380Y-115023333D01*
X172580000Y-114928095D01*
X172627619Y-114880476D01*
X172722857Y-114832857D01*
X172865714Y-114832857D01*
X172960952Y-114880476D01*
X173008571Y-114928095D01*
X173056190Y-115023333D01*
X173056190Y-115404285D01*
X172627619Y-114451904D02*
X172580000Y-114404285D01*
X172532380Y-114309047D01*
X172532380Y-114070952D01*
X172580000Y-113975714D01*
X172627619Y-113928095D01*
X172722857Y-113880476D01*
X172818095Y-113880476D01*
X172960952Y-113928095D01*
X173532380Y-114499523D01*
X173532380Y-113880476D01*
X172532380Y-113547142D02*
X172532380Y-112928095D01*
X172913333Y-113261428D01*
X172913333Y-113118571D01*
X172960952Y-113023333D01*
X173008571Y-112975714D01*
X173103809Y-112928095D01*
X173341904Y-112928095D01*
X173437142Y-112975714D01*
X173484761Y-113023333D01*
X173532380Y-113118571D01*
X173532380Y-113404285D01*
X173484761Y-113499523D01*
X173437142Y-113547142D01*
%TO.C,R24*%
X160667142Y-80032380D02*
X160333809Y-79556190D01*
X160095714Y-80032380D02*
X160095714Y-79032380D01*
X160476666Y-79032380D01*
X160571904Y-79080000D01*
X160619523Y-79127619D01*
X160667142Y-79222857D01*
X160667142Y-79365714D01*
X160619523Y-79460952D01*
X160571904Y-79508571D01*
X160476666Y-79556190D01*
X160095714Y-79556190D01*
X161048095Y-79127619D02*
X161095714Y-79080000D01*
X161190952Y-79032380D01*
X161429047Y-79032380D01*
X161524285Y-79080000D01*
X161571904Y-79127619D01*
X161619523Y-79222857D01*
X161619523Y-79318095D01*
X161571904Y-79460952D01*
X161000476Y-80032380D01*
X161619523Y-80032380D01*
X162476666Y-79365714D02*
X162476666Y-80032380D01*
X162238571Y-78984761D02*
X162000476Y-79699047D01*
X162619523Y-79699047D01*
%TO.C,R25*%
X148167142Y-84032380D02*
X147833809Y-83556190D01*
X147595714Y-84032380D02*
X147595714Y-83032380D01*
X147976666Y-83032380D01*
X148071904Y-83080000D01*
X148119523Y-83127619D01*
X148167142Y-83222857D01*
X148167142Y-83365714D01*
X148119523Y-83460952D01*
X148071904Y-83508571D01*
X147976666Y-83556190D01*
X147595714Y-83556190D01*
X148548095Y-83127619D02*
X148595714Y-83080000D01*
X148690952Y-83032380D01*
X148929047Y-83032380D01*
X149024285Y-83080000D01*
X149071904Y-83127619D01*
X149119523Y-83222857D01*
X149119523Y-83318095D01*
X149071904Y-83460952D01*
X148500476Y-84032380D01*
X149119523Y-84032380D01*
X150024285Y-83032380D02*
X149548095Y-83032380D01*
X149500476Y-83508571D01*
X149548095Y-83460952D01*
X149643333Y-83413333D01*
X149881428Y-83413333D01*
X149976666Y-83460952D01*
X150024285Y-83508571D01*
X150071904Y-83603809D01*
X150071904Y-83841904D01*
X150024285Y-83937142D01*
X149976666Y-83984761D01*
X149881428Y-84032380D01*
X149643333Y-84032380D01*
X149548095Y-83984761D01*
X149500476Y-83937142D01*
%TO.C,R26*%
X148167142Y-78032380D02*
X147833809Y-77556190D01*
X147595714Y-78032380D02*
X147595714Y-77032380D01*
X147976666Y-77032380D01*
X148071904Y-77080000D01*
X148119523Y-77127619D01*
X148167142Y-77222857D01*
X148167142Y-77365714D01*
X148119523Y-77460952D01*
X148071904Y-77508571D01*
X147976666Y-77556190D01*
X147595714Y-77556190D01*
X148548095Y-77127619D02*
X148595714Y-77080000D01*
X148690952Y-77032380D01*
X148929047Y-77032380D01*
X149024285Y-77080000D01*
X149071904Y-77127619D01*
X149119523Y-77222857D01*
X149119523Y-77318095D01*
X149071904Y-77460952D01*
X148500476Y-78032380D01*
X149119523Y-78032380D01*
X149976666Y-77032380D02*
X149786190Y-77032380D01*
X149690952Y-77080000D01*
X149643333Y-77127619D01*
X149548095Y-77270476D01*
X149500476Y-77460952D01*
X149500476Y-77841904D01*
X149548095Y-77937142D01*
X149595714Y-77984761D01*
X149690952Y-78032380D01*
X149881428Y-78032380D01*
X149976666Y-77984761D01*
X150024285Y-77937142D01*
X150071904Y-77841904D01*
X150071904Y-77603809D01*
X150024285Y-77508571D01*
X149976666Y-77460952D01*
X149881428Y-77413333D01*
X149690952Y-77413333D01*
X149595714Y-77460952D01*
X149548095Y-77508571D01*
X149500476Y-77603809D01*
%TO.C,R27*%
X148167142Y-81032380D02*
X147833809Y-80556190D01*
X147595714Y-81032380D02*
X147595714Y-80032380D01*
X147976666Y-80032380D01*
X148071904Y-80080000D01*
X148119523Y-80127619D01*
X148167142Y-80222857D01*
X148167142Y-80365714D01*
X148119523Y-80460952D01*
X148071904Y-80508571D01*
X147976666Y-80556190D01*
X147595714Y-80556190D01*
X148548095Y-80127619D02*
X148595714Y-80080000D01*
X148690952Y-80032380D01*
X148929047Y-80032380D01*
X149024285Y-80080000D01*
X149071904Y-80127619D01*
X149119523Y-80222857D01*
X149119523Y-80318095D01*
X149071904Y-80460952D01*
X148500476Y-81032380D01*
X149119523Y-81032380D01*
X149452857Y-80032380D02*
X150119523Y-80032380D01*
X149690952Y-81032380D01*
%TO.C,R28*%
X184872380Y-123452857D02*
X184396190Y-123786190D01*
X184872380Y-124024285D02*
X183872380Y-124024285D01*
X183872380Y-123643333D01*
X183920000Y-123548095D01*
X183967619Y-123500476D01*
X184062857Y-123452857D01*
X184205714Y-123452857D01*
X184300952Y-123500476D01*
X184348571Y-123548095D01*
X184396190Y-123643333D01*
X184396190Y-124024285D01*
X183967619Y-123071904D02*
X183920000Y-123024285D01*
X183872380Y-122929047D01*
X183872380Y-122690952D01*
X183920000Y-122595714D01*
X183967619Y-122548095D01*
X184062857Y-122500476D01*
X184158095Y-122500476D01*
X184300952Y-122548095D01*
X184872380Y-123119523D01*
X184872380Y-122500476D01*
X184300952Y-121929047D02*
X184253333Y-122024285D01*
X184205714Y-122071904D01*
X184110476Y-122119523D01*
X184062857Y-122119523D01*
X183967619Y-122071904D01*
X183920000Y-122024285D01*
X183872380Y-121929047D01*
X183872380Y-121738571D01*
X183920000Y-121643333D01*
X183967619Y-121595714D01*
X184062857Y-121548095D01*
X184110476Y-121548095D01*
X184205714Y-121595714D01*
X184253333Y-121643333D01*
X184300952Y-121738571D01*
X184300952Y-121929047D01*
X184348571Y-122024285D01*
X184396190Y-122071904D01*
X184491428Y-122119523D01*
X184681904Y-122119523D01*
X184777142Y-122071904D01*
X184824761Y-122024285D01*
X184872380Y-121929047D01*
X184872380Y-121738571D01*
X184824761Y-121643333D01*
X184777142Y-121595714D01*
X184681904Y-121548095D01*
X184491428Y-121548095D01*
X184396190Y-121595714D01*
X184348571Y-121643333D01*
X184300952Y-121738571D01*
%TO.C,R29*%
X184032380Y-123332857D02*
X183556190Y-123666190D01*
X184032380Y-123904285D02*
X183032380Y-123904285D01*
X183032380Y-123523333D01*
X183080000Y-123428095D01*
X183127619Y-123380476D01*
X183222857Y-123332857D01*
X183365714Y-123332857D01*
X183460952Y-123380476D01*
X183508571Y-123428095D01*
X183556190Y-123523333D01*
X183556190Y-123904285D01*
X183127619Y-122951904D02*
X183080000Y-122904285D01*
X183032380Y-122809047D01*
X183032380Y-122570952D01*
X183080000Y-122475714D01*
X183127619Y-122428095D01*
X183222857Y-122380476D01*
X183318095Y-122380476D01*
X183460952Y-122428095D01*
X184032380Y-122999523D01*
X184032380Y-122380476D01*
X184032380Y-121904285D02*
X184032380Y-121713809D01*
X183984761Y-121618571D01*
X183937142Y-121570952D01*
X183794285Y-121475714D01*
X183603809Y-121428095D01*
X183222857Y-121428095D01*
X183127619Y-121475714D01*
X183080000Y-121523333D01*
X183032380Y-121618571D01*
X183032380Y-121809047D01*
X183080000Y-121904285D01*
X183127619Y-121951904D01*
X183222857Y-121999523D01*
X183460952Y-121999523D01*
X183556190Y-121951904D01*
X183603809Y-121904285D01*
X183651428Y-121809047D01*
X183651428Y-121618571D01*
X183603809Y-121523333D01*
X183556190Y-121475714D01*
X183460952Y-121428095D01*
%TO.C,R30*%
X163167142Y-123032380D02*
X162833809Y-122556190D01*
X162595714Y-123032380D02*
X162595714Y-122032380D01*
X162976666Y-122032380D01*
X163071904Y-122080000D01*
X163119523Y-122127619D01*
X163167142Y-122222857D01*
X163167142Y-122365714D01*
X163119523Y-122460952D01*
X163071904Y-122508571D01*
X162976666Y-122556190D01*
X162595714Y-122556190D01*
X163500476Y-122032380D02*
X164119523Y-122032380D01*
X163786190Y-122413333D01*
X163929047Y-122413333D01*
X164024285Y-122460952D01*
X164071904Y-122508571D01*
X164119523Y-122603809D01*
X164119523Y-122841904D01*
X164071904Y-122937142D01*
X164024285Y-122984761D01*
X163929047Y-123032380D01*
X163643333Y-123032380D01*
X163548095Y-122984761D01*
X163500476Y-122937142D01*
X164738571Y-122032380D02*
X164833809Y-122032380D01*
X164929047Y-122080000D01*
X164976666Y-122127619D01*
X165024285Y-122222857D01*
X165071904Y-122413333D01*
X165071904Y-122651428D01*
X165024285Y-122841904D01*
X164976666Y-122937142D01*
X164929047Y-122984761D01*
X164833809Y-123032380D01*
X164738571Y-123032380D01*
X164643333Y-122984761D01*
X164595714Y-122937142D01*
X164548095Y-122841904D01*
X164500476Y-122651428D01*
X164500476Y-122413333D01*
X164548095Y-122222857D01*
X164595714Y-122127619D01*
X164643333Y-122080000D01*
X164738571Y-122032380D01*
%TO.C,R31*%
X163167142Y-125532380D02*
X162833809Y-125056190D01*
X162595714Y-125532380D02*
X162595714Y-124532380D01*
X162976666Y-124532380D01*
X163071904Y-124580000D01*
X163119523Y-124627619D01*
X163167142Y-124722857D01*
X163167142Y-124865714D01*
X163119523Y-124960952D01*
X163071904Y-125008571D01*
X162976666Y-125056190D01*
X162595714Y-125056190D01*
X163500476Y-124532380D02*
X164119523Y-124532380D01*
X163786190Y-124913333D01*
X163929047Y-124913333D01*
X164024285Y-124960952D01*
X164071904Y-125008571D01*
X164119523Y-125103809D01*
X164119523Y-125341904D01*
X164071904Y-125437142D01*
X164024285Y-125484761D01*
X163929047Y-125532380D01*
X163643333Y-125532380D01*
X163548095Y-125484761D01*
X163500476Y-125437142D01*
X165071904Y-125532380D02*
X164500476Y-125532380D01*
X164786190Y-125532380D02*
X164786190Y-124532380D01*
X164690952Y-124675238D01*
X164595714Y-124770476D01*
X164500476Y-124818095D01*
%TO.C,R32*%
X194547142Y-134872380D02*
X194213809Y-134396190D01*
X193975714Y-134872380D02*
X193975714Y-133872380D01*
X194356666Y-133872380D01*
X194451904Y-133920000D01*
X194499523Y-133967619D01*
X194547142Y-134062857D01*
X194547142Y-134205714D01*
X194499523Y-134300952D01*
X194451904Y-134348571D01*
X194356666Y-134396190D01*
X193975714Y-134396190D01*
X194880476Y-133872380D02*
X195499523Y-133872380D01*
X195166190Y-134253333D01*
X195309047Y-134253333D01*
X195404285Y-134300952D01*
X195451904Y-134348571D01*
X195499523Y-134443809D01*
X195499523Y-134681904D01*
X195451904Y-134777142D01*
X195404285Y-134824761D01*
X195309047Y-134872380D01*
X195023333Y-134872380D01*
X194928095Y-134824761D01*
X194880476Y-134777142D01*
X195880476Y-133967619D02*
X195928095Y-133920000D01*
X196023333Y-133872380D01*
X196261428Y-133872380D01*
X196356666Y-133920000D01*
X196404285Y-133967619D01*
X196451904Y-134062857D01*
X196451904Y-134158095D01*
X196404285Y-134300952D01*
X195832857Y-134872380D01*
X196451904Y-134872380D01*
%TO.C,R33*%
X194667142Y-133532380D02*
X194333809Y-133056190D01*
X194095714Y-133532380D02*
X194095714Y-132532380D01*
X194476666Y-132532380D01*
X194571904Y-132580000D01*
X194619523Y-132627619D01*
X194667142Y-132722857D01*
X194667142Y-132865714D01*
X194619523Y-132960952D01*
X194571904Y-133008571D01*
X194476666Y-133056190D01*
X194095714Y-133056190D01*
X195000476Y-132532380D02*
X195619523Y-132532380D01*
X195286190Y-132913333D01*
X195429047Y-132913333D01*
X195524285Y-132960952D01*
X195571904Y-133008571D01*
X195619523Y-133103809D01*
X195619523Y-133341904D01*
X195571904Y-133437142D01*
X195524285Y-133484761D01*
X195429047Y-133532380D01*
X195143333Y-133532380D01*
X195048095Y-133484761D01*
X195000476Y-133437142D01*
X195952857Y-132532380D02*
X196571904Y-132532380D01*
X196238571Y-132913333D01*
X196381428Y-132913333D01*
X196476666Y-132960952D01*
X196524285Y-133008571D01*
X196571904Y-133103809D01*
X196571904Y-133341904D01*
X196524285Y-133437142D01*
X196476666Y-133484761D01*
X196381428Y-133532380D01*
X196095714Y-133532380D01*
X196000476Y-133484761D01*
X195952857Y-133437142D01*
%TO.C,R34*%
X175547142Y-125372380D02*
X175213809Y-124896190D01*
X174975714Y-125372380D02*
X174975714Y-124372380D01*
X175356666Y-124372380D01*
X175451904Y-124420000D01*
X175499523Y-124467619D01*
X175547142Y-124562857D01*
X175547142Y-124705714D01*
X175499523Y-124800952D01*
X175451904Y-124848571D01*
X175356666Y-124896190D01*
X174975714Y-124896190D01*
X175880476Y-124372380D02*
X176499523Y-124372380D01*
X176166190Y-124753333D01*
X176309047Y-124753333D01*
X176404285Y-124800952D01*
X176451904Y-124848571D01*
X176499523Y-124943809D01*
X176499523Y-125181904D01*
X176451904Y-125277142D01*
X176404285Y-125324761D01*
X176309047Y-125372380D01*
X176023333Y-125372380D01*
X175928095Y-125324761D01*
X175880476Y-125277142D01*
X177356666Y-124705714D02*
X177356666Y-125372380D01*
X177118571Y-124324761D02*
X176880476Y-125039047D01*
X177499523Y-125039047D01*
%TO.C,R35*%
X175547142Y-128372380D02*
X175213809Y-127896190D01*
X174975714Y-128372380D02*
X174975714Y-127372380D01*
X175356666Y-127372380D01*
X175451904Y-127420000D01*
X175499523Y-127467619D01*
X175547142Y-127562857D01*
X175547142Y-127705714D01*
X175499523Y-127800952D01*
X175451904Y-127848571D01*
X175356666Y-127896190D01*
X174975714Y-127896190D01*
X175880476Y-127372380D02*
X176499523Y-127372380D01*
X176166190Y-127753333D01*
X176309047Y-127753333D01*
X176404285Y-127800952D01*
X176451904Y-127848571D01*
X176499523Y-127943809D01*
X176499523Y-128181904D01*
X176451904Y-128277142D01*
X176404285Y-128324761D01*
X176309047Y-128372380D01*
X176023333Y-128372380D01*
X175928095Y-128324761D01*
X175880476Y-128277142D01*
X177404285Y-127372380D02*
X176928095Y-127372380D01*
X176880476Y-127848571D01*
X176928095Y-127800952D01*
X177023333Y-127753333D01*
X177261428Y-127753333D01*
X177356666Y-127800952D01*
X177404285Y-127848571D01*
X177451904Y-127943809D01*
X177451904Y-128181904D01*
X177404285Y-128277142D01*
X177356666Y-128324761D01*
X177261428Y-128372380D01*
X177023333Y-128372380D01*
X176928095Y-128324761D01*
X176880476Y-128277142D01*
%TO.C,R36*%
X136167142Y-84532380D02*
X135833809Y-84056190D01*
X135595714Y-84532380D02*
X135595714Y-83532380D01*
X135976666Y-83532380D01*
X136071904Y-83580000D01*
X136119523Y-83627619D01*
X136167142Y-83722857D01*
X136167142Y-83865714D01*
X136119523Y-83960952D01*
X136071904Y-84008571D01*
X135976666Y-84056190D01*
X135595714Y-84056190D01*
X136500476Y-83532380D02*
X137119523Y-83532380D01*
X136786190Y-83913333D01*
X136929047Y-83913333D01*
X137024285Y-83960952D01*
X137071904Y-84008571D01*
X137119523Y-84103809D01*
X137119523Y-84341904D01*
X137071904Y-84437142D01*
X137024285Y-84484761D01*
X136929047Y-84532380D01*
X136643333Y-84532380D01*
X136548095Y-84484761D01*
X136500476Y-84437142D01*
X137976666Y-83532380D02*
X137786190Y-83532380D01*
X137690952Y-83580000D01*
X137643333Y-83627619D01*
X137548095Y-83770476D01*
X137500476Y-83960952D01*
X137500476Y-84341904D01*
X137548095Y-84437142D01*
X137595714Y-84484761D01*
X137690952Y-84532380D01*
X137881428Y-84532380D01*
X137976666Y-84484761D01*
X138024285Y-84437142D01*
X138071904Y-84341904D01*
X138071904Y-84103809D01*
X138024285Y-84008571D01*
X137976666Y-83960952D01*
X137881428Y-83913333D01*
X137690952Y-83913333D01*
X137595714Y-83960952D01*
X137548095Y-84008571D01*
X137500476Y-84103809D01*
%TO.C,R37*%
X136167142Y-81032380D02*
X135833809Y-80556190D01*
X135595714Y-81032380D02*
X135595714Y-80032380D01*
X135976666Y-80032380D01*
X136071904Y-80080000D01*
X136119523Y-80127619D01*
X136167142Y-80222857D01*
X136167142Y-80365714D01*
X136119523Y-80460952D01*
X136071904Y-80508571D01*
X135976666Y-80556190D01*
X135595714Y-80556190D01*
X136500476Y-80032380D02*
X137119523Y-80032380D01*
X136786190Y-80413333D01*
X136929047Y-80413333D01*
X137024285Y-80460952D01*
X137071904Y-80508571D01*
X137119523Y-80603809D01*
X137119523Y-80841904D01*
X137071904Y-80937142D01*
X137024285Y-80984761D01*
X136929047Y-81032380D01*
X136643333Y-81032380D01*
X136548095Y-80984761D01*
X136500476Y-80937142D01*
X137452857Y-80032380D02*
X138119523Y-80032380D01*
X137690952Y-81032380D01*
%TO.C,R38*%
X136167142Y-78032380D02*
X135833809Y-77556190D01*
X135595714Y-78032380D02*
X135595714Y-77032380D01*
X135976666Y-77032380D01*
X136071904Y-77080000D01*
X136119523Y-77127619D01*
X136167142Y-77222857D01*
X136167142Y-77365714D01*
X136119523Y-77460952D01*
X136071904Y-77508571D01*
X135976666Y-77556190D01*
X135595714Y-77556190D01*
X136500476Y-77032380D02*
X137119523Y-77032380D01*
X136786190Y-77413333D01*
X136929047Y-77413333D01*
X137024285Y-77460952D01*
X137071904Y-77508571D01*
X137119523Y-77603809D01*
X137119523Y-77841904D01*
X137071904Y-77937142D01*
X137024285Y-77984761D01*
X136929047Y-78032380D01*
X136643333Y-78032380D01*
X136548095Y-77984761D01*
X136500476Y-77937142D01*
X137690952Y-77460952D02*
X137595714Y-77413333D01*
X137548095Y-77365714D01*
X137500476Y-77270476D01*
X137500476Y-77222857D01*
X137548095Y-77127619D01*
X137595714Y-77080000D01*
X137690952Y-77032380D01*
X137881428Y-77032380D01*
X137976666Y-77080000D01*
X138024285Y-77127619D01*
X138071904Y-77222857D01*
X138071904Y-77270476D01*
X138024285Y-77365714D01*
X137976666Y-77413333D01*
X137881428Y-77460952D01*
X137690952Y-77460952D01*
X137595714Y-77508571D01*
X137548095Y-77556190D01*
X137500476Y-77651428D01*
X137500476Y-77841904D01*
X137548095Y-77937142D01*
X137595714Y-77984761D01*
X137690952Y-78032380D01*
X137881428Y-78032380D01*
X137976666Y-77984761D01*
X138024285Y-77937142D01*
X138071904Y-77841904D01*
X138071904Y-77651428D01*
X138024285Y-77556190D01*
X137976666Y-77508571D01*
X137881428Y-77460952D01*
%TO.C,R39*%
X160667142Y-77032380D02*
X160333809Y-76556190D01*
X160095714Y-77032380D02*
X160095714Y-76032380D01*
X160476666Y-76032380D01*
X160571904Y-76080000D01*
X160619523Y-76127619D01*
X160667142Y-76222857D01*
X160667142Y-76365714D01*
X160619523Y-76460952D01*
X160571904Y-76508571D01*
X160476666Y-76556190D01*
X160095714Y-76556190D01*
X161000476Y-76032380D02*
X161619523Y-76032380D01*
X161286190Y-76413333D01*
X161429047Y-76413333D01*
X161524285Y-76460952D01*
X161571904Y-76508571D01*
X161619523Y-76603809D01*
X161619523Y-76841904D01*
X161571904Y-76937142D01*
X161524285Y-76984761D01*
X161429047Y-77032380D01*
X161143333Y-77032380D01*
X161048095Y-76984761D01*
X161000476Y-76937142D01*
X162095714Y-77032380D02*
X162286190Y-77032380D01*
X162381428Y-76984761D01*
X162429047Y-76937142D01*
X162524285Y-76794285D01*
X162571904Y-76603809D01*
X162571904Y-76222857D01*
X162524285Y-76127619D01*
X162476666Y-76080000D01*
X162381428Y-76032380D01*
X162190952Y-76032380D01*
X162095714Y-76080000D01*
X162048095Y-76127619D01*
X162000476Y-76222857D01*
X162000476Y-76460952D01*
X162048095Y-76556190D01*
X162095714Y-76603809D01*
X162190952Y-76651428D01*
X162381428Y-76651428D01*
X162476666Y-76603809D01*
X162524285Y-76556190D01*
X162571904Y-76460952D01*
%TO.C,U2*%
X148278095Y-86372380D02*
X148278095Y-87181904D01*
X148325714Y-87277142D01*
X148373333Y-87324761D01*
X148468571Y-87372380D01*
X148659047Y-87372380D01*
X148754285Y-87324761D01*
X148801904Y-87277142D01*
X148849523Y-87181904D01*
X148849523Y-86372380D01*
X149278095Y-86467619D02*
X149325714Y-86420000D01*
X149420952Y-86372380D01*
X149659047Y-86372380D01*
X149754285Y-86420000D01*
X149801904Y-86467619D01*
X149849523Y-86562857D01*
X149849523Y-86658095D01*
X149801904Y-86800952D01*
X149230476Y-87372380D01*
X149849523Y-87372380D01*
%TO.C,U3*%
X136778095Y-86372380D02*
X136778095Y-87181904D01*
X136825714Y-87277142D01*
X136873333Y-87324761D01*
X136968571Y-87372380D01*
X137159047Y-87372380D01*
X137254285Y-87324761D01*
X137301904Y-87277142D01*
X137349523Y-87181904D01*
X137349523Y-86372380D01*
X137730476Y-86372380D02*
X138349523Y-86372380D01*
X138016190Y-86753333D01*
X138159047Y-86753333D01*
X138254285Y-86800952D01*
X138301904Y-86848571D01*
X138349523Y-86943809D01*
X138349523Y-87181904D01*
X138301904Y-87277142D01*
X138254285Y-87324761D01*
X138159047Y-87372380D01*
X137873333Y-87372380D01*
X137778095Y-87324761D01*
X137730476Y-87277142D01*
%TD*%
M02*
