M48
; DRILL file {KiCad 7.0.8} date Fri 24 Nov 2023 11:58:02 AM CET
; FORMAT={-:-/ absolute / metric / decimal}
; #@! TF.CreationDate,2023-11-24T11:58:02+01:00
; #@! TF.GenerationSoftware,Kicad,Pcbnew,7.0.8
; #@! TF.FileFunction,MixedPlating,1,4
FMAT,2
METRIC
; #@! TA.AperFunction,Plated,PTH,ViaDrill
T1C0.250
; #@! TA.AperFunction,Plated,PTH,ViaDrill
T2C0.400
; #@! TA.AperFunction,Plated,PTH,ComponentDrill
T3C0.600
; #@! TA.AperFunction,Plated,PTH,ComponentDrill
T4C1.000
; #@! TA.AperFunction,Plated,PTH,ComponentDrill
T5C1.150
; #@! TA.AperFunction,Plated,PTH,ComponentDrill
T6C2.000
; #@! TA.AperFunction,NonPlated,NPTH,ComponentDrill
T7C3.500
%
G90
G05
T1
X189.705Y-50.215
X189.705Y-52.755
X189.705Y-55.295
X189.705Y-57.835
X189.705Y-60.375
X189.705Y-62.915
X189.705Y-65.455
X189.705Y-67.995
X189.705Y-70.535
X189.705Y-73.075
X189.705Y-75.615
X189.705Y-78.155
X189.705Y-80.695
X189.705Y-83.235
X189.705Y-85.775
X189.705Y-88.315
X189.705Y-90.855
X189.705Y-95.935
X189.705Y-98.475
X189.705Y-113.715
X189.705Y-116.255
X189.705Y-118.795
X189.705Y-121.335
X189.705Y-123.875
X189.705Y-126.415
X189.705Y-128.955
X189.705Y-131.495
X189.705Y-134.035
X192.245Y-50.215
X192.245Y-52.755
X192.245Y-67.995
X192.245Y-70.535
X192.245Y-73.075
X192.245Y-75.615
X192.245Y-78.155
X192.245Y-80.695
X192.245Y-83.235
X192.245Y-85.775
X192.245Y-88.315
X192.245Y-90.855
X192.245Y-98.475
X192.245Y-113.715
X192.245Y-118.795
X192.245Y-121.335
X193.4Y-115.2
X194.785Y-50.215
X194.785Y-52.755
X194.785Y-55.295
X194.785Y-57.835
X194.785Y-60.375
X194.785Y-62.915
X194.785Y-67.995
X194.785Y-70.535
X194.785Y-73.075
X194.785Y-75.615
X194.785Y-83.235
X194.785Y-85.775
X194.785Y-88.315
X194.785Y-90.855
X194.785Y-98.475
X194.785Y-121.335
X195.8Y-118.6
X197.325Y-50.215
X197.325Y-52.755
X197.325Y-67.995
X197.325Y-70.535
X197.325Y-73.075
X197.325Y-75.615
X197.325Y-83.235
X197.325Y-85.775
X197.325Y-88.315
X197.325Y-90.855
X197.325Y-93.395
X197.325Y-95.935
X199.865Y-50.215
X199.865Y-52.755
X199.865Y-55.295
X199.865Y-57.835
X199.865Y-60.375
X199.865Y-62.915
X199.865Y-85.775
X199.865Y-88.315
X199.865Y-90.855
X199.865Y-93.395
X199.865Y-128.955
X199.865Y-131.495
X201.0Y-65.85
X202.405Y-50.215
X202.405Y-52.755
X202.405Y-55.295
X202.405Y-57.835
X202.405Y-60.375
X202.405Y-62.915
X202.405Y-70.535
X202.405Y-73.075
X202.405Y-75.615
X202.405Y-88.315
X202.405Y-90.855
X202.405Y-93.395
X204.945Y-50.215
X204.945Y-52.755
X204.945Y-55.295
X204.945Y-57.835
X204.945Y-60.375
X204.945Y-90.855
X204.945Y-93.395
X204.945Y-95.935
X204.945Y-98.475
X205.0Y-64.2
X207.485Y-50.215
X207.485Y-52.755
X207.485Y-55.295
X207.485Y-57.835
X207.485Y-60.375
X207.485Y-62.915
X207.485Y-67.995
X207.485Y-70.535
X207.485Y-73.075
X207.485Y-75.615
X207.485Y-78.155
X207.485Y-80.695
X207.485Y-83.235
X207.485Y-98.475
X207.485Y-101.015
X210.025Y-50.215
X210.025Y-52.755
X210.025Y-55.295
X210.025Y-57.835
X210.025Y-60.375
X210.025Y-62.915
X210.025Y-65.455
X210.025Y-67.995
X210.025Y-70.535
X210.025Y-73.075
X210.025Y-75.615
X210.025Y-98.475
X210.025Y-101.015
X210.025Y-123.875
X210.4Y-89.6
X211.096Y-92.304
X212.565Y-50.215
X212.565Y-52.755
X212.565Y-55.295
X212.565Y-57.835
X212.565Y-60.375
X212.565Y-62.915
X212.565Y-65.455
X212.565Y-101.015
X212.565Y-108.635
X212.565Y-113.715
X212.565Y-116.255
X212.565Y-118.795
X212.565Y-121.335
X212.565Y-123.875
X214.0Y-96.4
X214.45Y-122.55
X215.105Y-50.215
X215.105Y-52.755
X215.105Y-55.295
X215.105Y-57.835
X215.105Y-60.375
X215.105Y-62.915
X215.105Y-67.995
X215.105Y-90.855
X215.7Y-100.95
X215.8Y-86.4
X216.6Y-71.2
X216.6Y-73.0
X217.0Y-122.0
X217.4Y-79.8
X217.4Y-87.0
X217.4Y-92.0
X217.645Y-50.215
X217.645Y-52.755
X217.645Y-55.295
X217.645Y-57.835
X217.645Y-60.375
X217.645Y-62.915
X217.645Y-93.395
X218.2Y-74.6
X219.6Y-69.2
X219.6Y-84.4
X220.0Y-66.0
X220.185Y-50.215
X220.185Y-52.755
X220.185Y-55.295
X220.185Y-90.855
X220.185Y-113.715
X220.185Y-116.255
X220.185Y-118.795
X220.185Y-123.875
X220.185Y-126.415
X220.185Y-128.955
X220.185Y-131.495
X220.355Y-70.755
X220.75Y-111.95
X221.0Y-63.0
X221.0Y-80.989
X221.2Y-82.8
X221.724Y-66.0
X222.25Y-63.0
X222.725Y-50.215
X222.725Y-113.715
X222.725Y-116.255
X222.725Y-118.795
X222.725Y-123.875
X222.725Y-126.415
X222.725Y-128.955
X222.725Y-131.495
X223.0Y-103.2
X223.2Y-55.4
X224.3Y-62.2
X224.4Y-74.6
X224.485Y-78.115
X224.8Y-79.2
X224.8Y-81.8
X225.0Y-71.4
X225.0Y-84.4
X225.05Y-63.1
X225.2Y-86.8
X225.2Y-92.0
X225.265Y-50.215
X225.265Y-118.795
X225.265Y-123.875
X225.265Y-126.415
X225.265Y-128.955
X225.265Y-131.495
X225.4Y-88.4
X225.6Y-64.165
X226.0Y-79.979
X226.2Y-83.0
X226.4Y-60.4
X226.8Y-66.2
X227.2Y-59.0
X227.2Y-72.8
X227.805Y-50.215
X227.805Y-118.795
X228.0Y-74.4
X228.2Y-81.8
X228.6Y-84.0
X228.8Y-79.2
X229.0Y-86.8
X229.2Y-83.0
X229.4Y-80.6
X229.4Y-85.8
X229.75Y-115.9
X229.8Y-59.0
X230.0Y-111.95
X230.345Y-50.215
X230.345Y-126.415
X230.345Y-128.955
X230.345Y-131.495
X231.45Y-111.85
X232.2Y-62.125
X232.378Y-68.222
X232.8Y-76.579
X232.885Y-98.475
X232.885Y-103.555
X232.885Y-108.635
X233.0Y-58.8
X233.0Y-69.0
X233.2Y-86.2
X233.4Y-75.297
X233.4Y-77.85
X233.7Y-101.4
X233.8Y-95.6
X234.0Y-67.2
X234.4Y-87.779
X234.6Y-62.125
X235.357Y-67.8
X235.425Y-90.855
X235.425Y-95.935
X235.425Y-98.475
X235.425Y-126.415
X235.425Y-128.955
X235.425Y-131.495
X235.8Y-84.2
X236.0Y-81.8
X236.05Y-52.3
X236.2Y-59.0
X236.3Y-50.45
X236.534Y-62.813
X236.6Y-62.0
X237.6Y-67.0
X237.6Y-67.8
X237.965Y-93.395
X237.965Y-95.935
X237.965Y-98.475
X237.965Y-108.635
X237.965Y-111.175
X237.965Y-113.715
X237.965Y-123.875
X238.0Y-69.4
X238.0Y-106.2
X238.2Y-88.2
X238.8Y-60.8
X238.8Y-86.6
X239.0Y-50.4
X239.0Y-67.8
X239.0Y-102.0
X239.2Y-73.8
X239.6Y-108.2
X239.8Y-63.0
X240.4Y-58.8
X240.505Y-95.935
X240.505Y-98.475
X240.505Y-131.495
X240.505Y-134.035
X241.2Y-63.2
X241.285Y-90.4
X241.793Y-83.007
X242.0Y-88.0
X242.2Y-69.8
X242.4Y-84.2
X242.8Y-85.8
X243.045Y-50.215
X243.045Y-73.075
X243.045Y-75.615
X243.045Y-78.155
X243.045Y-108.635
X243.045Y-111.175
X243.554Y-90.4
X244.0Y-58.8
X244.0Y-70.4
X244.175Y-91.6
X244.6Y-62.2
X244.7Y-99.3
X245.4Y-54.6
X245.4Y-65.6
X245.561Y-71.839
X245.585Y-50.215
X245.585Y-52.755
X245.585Y-75.615
X245.585Y-78.155
X245.585Y-111.175
X245.585Y-123.875
X245.585Y-126.415
X245.585Y-134.035
X245.6Y-84.4
X246.8Y-84.4
X246.8Y-89.8
X247.6Y-84.4
X248.125Y-50.215
X248.125Y-52.755
X248.125Y-55.295
X248.125Y-57.835
X248.125Y-60.375
X248.125Y-62.915
X248.125Y-67.995
X248.125Y-103.555
X248.125Y-123.875
X248.4Y-84.2
X248.8Y-94.495
X249.161Y-99.439
X249.2Y-91.6
X249.8Y-84.2
X250.665Y-50.215
X250.665Y-52.755
X250.665Y-55.295
X250.665Y-57.835
X250.665Y-60.375
X250.665Y-62.915
X250.665Y-123.875
X250.665Y-126.415
X250.665Y-128.955
X250.665Y-131.495
X250.665Y-134.035
X252.6Y-80.4
X252.6Y-93.4
X253.2Y-90.6
X253.205Y-50.215
X253.205Y-52.755
X253.205Y-55.295
X253.205Y-57.835
X253.205Y-60.375
X253.205Y-62.915
X253.205Y-67.995
X253.205Y-78.155
X253.205Y-118.795
X253.205Y-123.875
X253.8Y-114.4
X254.4Y-111.2
X255.0Y-109.6
X255.2Y-101.0
X255.4Y-115.2
X255.745Y-50.215
X255.745Y-52.755
X255.745Y-55.295
X255.745Y-57.835
X255.745Y-60.375
X255.745Y-62.915
X255.745Y-67.995
X255.745Y-78.155
X255.745Y-118.795
X256.0Y-96.4
X256.1Y-122.2
X256.2Y-114.8
X257.639Y-106.161
X257.8Y-116.2
X258.285Y-50.215
X258.285Y-52.755
X258.285Y-55.295
X258.285Y-57.835
X258.285Y-60.375
X258.285Y-62.915
X258.285Y-80.695
X258.285Y-83.235
X258.4Y-122.2
X258.879Y-133.225
X259.2Y-130.0
X259.378Y-112.361
X259.4Y-108.6
X259.439Y-107.761
X259.8Y-85.0
X259.87Y-130.335
X260.0Y-64.4
X260.172Y-103.028
X260.8Y-111.2
X260.8Y-112.443
X260.825Y-50.215
X260.825Y-52.755
X260.825Y-55.295
X260.825Y-57.835
X260.825Y-60.375
X260.825Y-62.915
X260.825Y-78.155
X260.825Y-80.695
X260.825Y-83.235
X261.2Y-107.8
X262.2Y-107.2
X263.2Y-111.9
X263.365Y-50.215
X263.365Y-52.755
X263.365Y-57.835
X263.365Y-62.915
X263.365Y-80.695
X263.365Y-83.235
X263.365Y-121.335
X263.365Y-123.875
X263.4Y-116.4
X264.322Y-111.709
X264.95Y-72.65
X265.05Y-70.4
X265.2Y-114.621
X265.905Y-50.215
X265.905Y-52.755
X265.905Y-57.835
X265.905Y-62.915
X265.905Y-65.455
X265.905Y-93.395
X265.905Y-128.955
X265.905Y-131.495
X265.905Y-134.035
X266.2Y-59.2
X266.558Y-104.442
X267.4Y-93.4
X268.2Y-123.6
X268.4Y-131.2
X268.445Y-50.215
X268.445Y-52.755
X268.445Y-57.835
X268.445Y-60.375
X268.445Y-62.915
X268.445Y-65.455
X268.445Y-78.155
X268.445Y-118.795
X268.445Y-121.335
X268.445Y-126.415
X268.445Y-128.955
X268.445Y-134.035
X268.8Y-105.8
X268.819Y-103.265
X269.0Y-107.45
X270.85Y-111.3
X270.985Y-50.215
X270.985Y-52.755
X270.985Y-65.455
X270.985Y-67.995
X270.985Y-70.535
X270.985Y-73.075
X270.985Y-118.795
X270.985Y-134.035
X273.525Y-50.215
X273.525Y-52.755
X273.525Y-55.295
X273.525Y-57.835
X273.525Y-60.375
X273.525Y-67.995
X273.525Y-70.535
X273.525Y-73.075
X273.525Y-98.475
X273.525Y-106.095
X273.525Y-118.795
X273.525Y-121.335
X273.525Y-126.415
X273.525Y-128.955
X273.525Y-131.495
X273.525Y-134.035
X275.95Y-100.5
X276.024Y-107.2
X276.065Y-50.215
X276.065Y-52.755
X276.065Y-70.535
X276.065Y-73.075
X276.065Y-75.615
X276.065Y-78.155
X276.065Y-90.855
X276.065Y-134.035
X277.2Y-115.8
X278.3Y-107.7
X278.605Y-50.215
X278.605Y-52.755
X278.605Y-55.295
X278.605Y-57.835
X278.605Y-62.915
X278.605Y-65.455
X278.605Y-73.075
X278.605Y-75.615
X278.605Y-121.335
X278.605Y-123.875
X278.605Y-126.415
X278.605Y-128.955
X278.605Y-131.495
X278.605Y-134.035
X280.6Y-109.0
T2
X191.1Y-92.5
X194.8Y-113.0
X201.4Y-105.7
X202.1Y-102.5
X202.7Y-96.2
X206.8Y-93.8
X207.2Y-107.2
X209.8Y-112.2
X213.5Y-106.7
X214.4Y-114.7
X217.3Y-107.4
X217.8Y-110.1
X221.4Y-58.9
X222.9Y-97.162
X222.9Y-98.7
X226.85Y-94.65
X228.1Y-65.4
X230.2Y-98.6
X245.6Y-101.9
X249.5Y-118.5
X252.6Y-117.1
X252.8Y-126.1
X254.3Y-133.7
X258.0Y-89.6
X260.0Y-99.4
X260.6Y-95.6
X263.4Y-133.65
X263.6Y-100.0
X264.863Y-126.15
X265.1Y-121.5
X267.0Y-86.6
X269.5Y-102.8
X273.4Y-76.0
X278.95Y-85.45
X279.0Y-77.0
X279.167Y-81.317
T4
X216.9Y-124.66
X216.9Y-127.2
X216.9Y-129.74
X216.9Y-132.28
X216.9Y-134.82
X227.375Y-53.985
X227.375Y-56.525
X229.915Y-53.985
X229.915Y-56.525
X232.455Y-53.985
X232.455Y-56.525
X234.995Y-53.985
X234.995Y-56.525
X237.535Y-53.985
X237.535Y-56.525
X240.075Y-53.985
X240.075Y-56.525
X242.615Y-53.985
X242.615Y-56.525
X267.4Y-69.45
X267.4Y-71.99
X267.4Y-74.53
X271.05Y-79.12
X271.05Y-81.66
X271.05Y-84.2
X271.05Y-86.74
X271.05Y-89.28
X273.59Y-79.12
X273.59Y-81.66
X273.59Y-84.2
X273.59Y-86.74
X273.59Y-89.28
T5
X192.15Y-125.15
X192.15Y-130.15
X192.5Y-56.4
X192.5Y-61.4
X197.15Y-125.15
X197.15Y-130.15
X197.5Y-56.4
X197.5Y-61.4
X227.2Y-127.25
X227.2Y-132.25
X232.2Y-127.25
X232.2Y-132.25
X237.2Y-127.25
X237.2Y-132.25
X242.2Y-127.25
X242.2Y-132.25
X247.2Y-127.25
X247.2Y-132.25
X270.25Y-125.15
X270.25Y-130.15
X270.65Y-56.3
X270.65Y-61.3
X275.25Y-125.15
X275.25Y-130.15
X275.65Y-56.3
X275.65Y-61.3
T6
X196.85Y-79.6
X201.85Y-79.6
T7
X112.2Y-158.75
X112.45Y-168.1
X112.45Y-176.65
X112.45Y-185.2
T3
G00X254.43Y-131.11
M15
G01X254.43Y-132.11
M16
G05
G00X254.43Y-136.22
M15
G01X254.43Y-137.72
M16
G05
G00X263.07Y-131.11
M15
G01X263.07Y-132.11
M16
G05
G00X263.07Y-136.22
M15
G01X263.07Y-137.72
M16
G05
T0
M30
