M48
; DRILL file {KiCad 5.1.10-88a1d61d58~90~ubuntu20.04.1} date Thu Oct 14 14:42:17 2021
; FORMAT={-:-/ absolute / inch / decimal}
; #@! TF.CreationDate,2021-10-14T14:42:17+02:00
; #@! TF.GenerationSoftware,Kicad,Pcbnew,5.1.10-88a1d61d58~90~ubuntu20.04.1
; #@! TF.FileFunction,Plated,1,4,PTH
FMAT,2
INCH
T1C0.0157
T2C0.0197
T3C0.0276
T4C0.0300
T5C0.0315
T6C0.0394
T7C0.0433
T8C0.0472
T9C0.0520
T10C0.0598
T11C0.1260
%
G90
G05
T1
X2.5472Y-6.0079
X2.5504Y-4.2323
X2.5915Y-5.6831
X2.5947Y-3.9075
X2.6201Y-5.1063
X2.6232Y-3.3307
X2.6457Y-5.9272
X2.6488Y-4.1516
X2.6614Y-5.0098
X2.6614Y-5.4055
X2.6646Y-3.2343
X2.6646Y-3.6299
X2.6713Y-5.8819
X2.6744Y-4.1063
X2.75Y-5.748
X2.7531Y-3.9724
X2.8091Y-5.5768
X2.8122Y-3.8012
X2.8604Y-5.5321
X2.8636Y-3.7565
X2.9276Y-5.1075
X2.9307Y-3.3319
X2.9409Y-5.2146
X2.9441Y-3.439
X2.9693Y-5.4539
X2.9724Y-3.6783
X2.976Y-5.5035
X2.976Y-5.5035
X2.9764Y-5.6831
X2.9791Y-3.728
X2.9791Y-3.728
X2.9795Y-3.9075
X2.9882Y-5.0059
X2.9913Y-3.2303
X3.0217Y-5.5768
X3.0248Y-3.8012
X3.0669Y-6.0098
X3.0701Y-4.2343
X3.1024Y-5.4961
X3.1055Y-3.7205
X3.1181Y-5.3563
X3.1213Y-3.5807
X3.1299Y-5.5768
X3.1331Y-3.8012
X3.1524Y-5.5126
X3.1555Y-3.737
X3.1791Y-5.622
X3.1823Y-3.8465
X3.1941Y-5.4886
X3.1972Y-3.713
X3.2657Y-5.4075
X3.2677Y-5.622
X3.2689Y-3.6319
X3.2709Y-3.8465
X3.2795Y-5.2047
X3.2827Y-3.4291
X3.2874Y-5.6693
X3.2906Y-3.8937
X3.2953Y-5.0965
X3.2984Y-3.3209
X3.3531Y-5.5075
X3.3563Y-3.7319
X3.3657Y-5.4697
X3.3689Y-3.6941
X3.376Y-5.752
X3.3791Y-3.9764
X3.4465Y-5.2205
X3.4496Y-3.4449
X3.4902Y-5.5098
X3.4933Y-3.7343
X3.5827Y-5.6831
X3.5858Y-3.9075
X3.5984Y-5.4055
X3.6016Y-3.6299
X3.7047Y-4.9976
X3.7079Y-3.222
X4.3996Y-4.6575
X4.4587Y-4.9665
X4.8529Y-4.1049
X4.8573Y-5.3602
X4.8848Y-3.4055
X4.9429Y-5.0925
X4.9921Y-3.9035
X5.0433Y-3.9331
X5.0925Y-4.2923
X5.1506Y-5.4616
X5.3307Y-5.1634
X5.3337Y-3.2726
X5.4035Y-4.562
X5.4104Y-4.748
X5.4124Y-5.4813
X5.439Y-4.6368
X5.4537Y-4.2608
X5.5709Y-3.4518
X5.6093Y-4.1978
X5.628Y-4.7549
X5.628Y-4.8652
X5.6385Y-4.0963
X5.6417Y-4.4675
X5.6516Y-3.4429
X5.7441Y-3.5433
X5.7441Y-3.8514
X5.7785Y-4.0719
X5.7977Y-3.2564
X5.8169Y-4.3632
X5.8189Y-4.2264
X5.8268Y-6.1457
X5.8445Y-3.5394
X5.876Y-4.3711
X5.8819Y-4.6063
X5.8839Y-4.7687
X5.8848Y-5.0758
X5.8917Y-5.6102
X5.938Y-4.7618
X5.94Y-4.9724
X5.9439Y-4.561
X6.0846Y-4.0325
X6.0876Y-3.7677
X6.1112Y-5.0049
X6.127Y-4.0738
X6.1398Y-4.3061
X6.1427Y-4.5679
X6.1427Y-5.1604
X6.1437Y-4.8632
X6.1506Y-4.3809
X6.1516Y-4.5049
X6.1575Y-4.2539
X6.1634Y-5.4203
X6.2598Y-4.1604
X6.2844Y-3.2116
X6.2943Y-4.3524
X6.3051Y-3.8081
X6.3081Y-4.6388
X6.311Y-4.7608
X6.315Y-5.0394
X6.4242Y-5.5226
X6.4272Y-4.4626
X6.4321Y-4.876
X6.5699Y-4.0079
X6.5699Y-4.4504
X6.5728Y-5.4242
X6.5758Y-5.186
X6.5787Y-3.7756
X6.5797Y-4.5157
X6.5984Y-4.1742
X6.5994Y-4.3366
X6.6073Y-4.0404
X6.6122Y-5.2707
X6.6201Y-3.7156
X6.6476Y-4.1742
X6.6476Y-4.4183
X6.6545Y-4.6841
X6.6634Y-4.935
X6.6821Y-4.7195
X6.689Y-4.2746
X6.6909Y-3.7746
X6.6949Y-4.7766
X6.7047Y-5.3199
X6.7156Y-4.9232
X6.7156Y-5.1132
X6.7195Y-3.935
X6.7195Y-4.0876
X6.7864Y-3.6152
X6.8465Y-4.4219
X6.875Y-4.5738
X6.9429Y-5.6791
X6.9724Y-3.5876
X7.015Y-5.5335
X7.0197Y-4.688
X7.0404Y-5.0315
X7.0413Y-3.9163
X7.0413Y-5.186
X7.0502Y-4.2756
X7.0502Y-4.4437
X7.0551Y-4.6585
X7.0551Y-4.7687
X7.063Y-4.8396
X7.0758Y-3.9537
X7.0876Y-5.3248
X7.0906Y-3.25
X7.0906Y-5.1319
X7.1368Y-4.373
X7.1388Y-4.0187
X7.1417Y-3.6161
X7.1634Y-5.4961
X7.1654Y-4.9744
X7.1673Y-3.6464
X7.3031Y-3.5994
X7.3376Y-3.5728
X7.4124Y-4.3543
X7.4469Y-5.4518
X7.5807Y-6.1299
X7.6483Y-5.0627
X7.6692Y-3.8229
X7.7037Y-5.0049
T2
X2.2638Y-4.748
X2.2638Y-6.0472
X2.2669Y-2.9724
X2.2669Y-4.2717
X2.2915Y-4.6812
X2.2915Y-4.8148
X2.2915Y-5.9804
X2.2915Y-6.1141
X2.2946Y-2.9056
X2.2946Y-3.0393
X2.2946Y-4.2048
X2.2946Y-4.3385
X2.3583Y-4.6535
X2.3583Y-4.8425
X2.3583Y-5.9528
X2.3583Y-6.1417
X2.3614Y-2.878
X2.3614Y-3.0669
X2.3614Y-4.1772
X2.3614Y-4.3661
X2.4251Y-4.6812
X2.4251Y-4.8148
X2.4251Y-5.9804
X2.4251Y-6.1141
X2.4282Y-2.9056
X2.4282Y-3.0393
X2.4282Y-4.2048
X2.4282Y-4.3385
X2.4528Y-4.748
X2.4528Y-6.0472
X2.4559Y-2.9724
X2.4559Y-4.2717
X3.7992Y-4.748
X3.7992Y-6.0472
X3.8024Y-2.9724
X3.8024Y-4.2717
X3.8269Y-4.6812
X3.8269Y-4.8148
X3.8269Y-5.9804
X3.8269Y-6.1141
X3.83Y-2.9056
X3.83Y-3.0393
X3.83Y-4.2048
X3.83Y-4.3385
X3.8937Y-4.6535
X3.8937Y-4.8425
X3.8937Y-5.9528
X3.8937Y-6.1417
X3.8969Y-2.878
X3.8969Y-3.0669
X3.8969Y-4.1772
X3.8969Y-4.3661
X3.9605Y-4.6812
X3.9605Y-4.8148
X3.9605Y-5.9804
X3.9605Y-6.1141
X3.9637Y-2.9056
X3.9637Y-3.0393
X3.9637Y-4.2048
X3.9637Y-4.3385
X3.9882Y-4.748
X3.9882Y-6.0472
X3.9913Y-2.9724
X3.9913Y-4.2717
T3
X4.5327Y-3.8484
X4.8327Y-3.8484
X4.9232Y-3.8406
X4.9232Y-4.1406
X4.9508Y-3.4547
X4.9508Y-3.7547
X5.072Y-3.3248
X5.2904Y-5.0248
X5.2904Y-5.3248
X5.372Y-3.3248
X5.4626Y-3.3189
X5.4626Y-3.6189
X5.5748Y-3.3169
X5.5748Y-3.6169
X6.2028Y-5.6102
X6.5028Y-5.6102
X6.5866Y-5.6102
X6.8866Y-5.6102
X6.9134Y-3.4232
X6.9146Y-3.3209
X7.1663Y-5.2807
X7.1663Y-5.5807
X7.2134Y-3.4232
X7.2146Y-3.3209
X7.2579Y-5.2795
X7.2579Y-5.5795
X7.3622Y-5.5807
X7.3622Y-5.8807
X7.502Y-5.3996
X7.6535Y-4.25
X7.7323Y-3.8457
X7.7323Y-4.1457
X7.802Y-5.3996
X7.9331Y-3.8457
X7.9331Y-4.1457
X7.9409Y-5.0591
X7.9409Y-5.3591
X7.9535Y-4.25
T4
X6.3761Y-3.9022
X6.3761Y-4.0022
X6.3761Y-4.1022
X6.3761Y-4.2022
X6.3761Y-4.3022
X6.3761Y-4.4022
X6.3761Y-4.5022
X6.3761Y-4.6022
X6.3761Y-4.7022
X6.3761Y-4.8022
X6.3761Y-4.9022
X6.3761Y-5.0022
X6.3761Y-5.1022
X6.3761Y-5.2022
X6.3761Y-5.2022
X6.3761Y-5.3022
X7.3561Y-3.9022
X7.3561Y-4.0022
X7.3561Y-4.1022
X7.3561Y-4.2022
X7.3561Y-4.3022
X7.3561Y-4.4022
X7.3561Y-4.5022
X7.3561Y-4.6022
X7.3561Y-4.7022
X7.3561Y-4.8022
X7.3561Y-4.9022
X7.3561Y-5.0022
X7.3561Y-5.1022
X7.3561Y-5.2022
X7.3561Y-5.3022
T5
X2.548Y-4.9976
X2.548Y-5.0976
X2.548Y-5.1976
X2.548Y-5.2976
X2.548Y-5.3976
X2.5512Y-3.222
X2.5512Y-3.322
X2.5512Y-3.422
X2.5512Y-3.522
X2.5512Y-3.622
X2.748Y-4.9976
X2.748Y-5.0976
X2.748Y-5.1976
X2.748Y-5.2976
X2.748Y-5.3976
X2.7512Y-3.222
X2.7512Y-3.322
X2.7512Y-3.422
X2.7512Y-3.522
X2.7512Y-3.622
X2.8669Y-4.9976
X2.8669Y-5.0976
X2.8669Y-5.1976
X2.8669Y-5.2976
X2.8669Y-5.3976
X2.8701Y-3.222
X2.8701Y-3.322
X2.8701Y-3.422
X2.8701Y-3.522
X2.8701Y-3.622
X3.0669Y-4.9976
X3.0669Y-5.0976
X3.0669Y-5.1976
X3.0669Y-5.2976
X3.0669Y-5.3976
X3.0701Y-3.222
X3.0701Y-3.322
X3.0701Y-3.422
X3.0701Y-3.522
X3.0701Y-3.622
X3.1858Y-4.9976
X3.1858Y-5.0976
X3.1858Y-5.1976
X3.1858Y-5.2976
X3.1858Y-5.3976
X3.189Y-3.222
X3.189Y-3.322
X3.189Y-3.422
X3.189Y-3.522
X3.189Y-3.622
X3.3858Y-4.9976
X3.3858Y-5.0976
X3.3858Y-5.1976
X3.3858Y-5.2976
X3.3858Y-5.3976
X3.389Y-3.222
X3.389Y-3.322
X3.389Y-3.422
X3.389Y-3.522
X3.389Y-3.622
X3.5047Y-4.9976
X3.5047Y-5.0976
X3.5047Y-5.1976
X3.5047Y-5.2976
X3.5047Y-5.3976
X3.5079Y-3.222
X3.5079Y-3.322
X3.5079Y-3.422
X3.5079Y-3.522
X3.5079Y-3.622
X3.7047Y-4.9976
X3.7047Y-5.0976
X3.7047Y-5.1976
X3.7047Y-5.2976
X3.7047Y-5.3976
X3.7079Y-3.222
X3.7079Y-3.322
X3.7079Y-3.422
X3.7079Y-3.522
X3.7079Y-3.622
X4.4724Y-5.2421
X4.5736Y-4.0059
X4.5736Y-4.252
X4.5736Y-4.5374
X4.5736Y-4.8228
X4.5736Y-5.1083
X4.5736Y-5.3937
X4.5835Y-5.1772
X4.6736Y-4.0059
X4.6736Y-4.252
X4.6736Y-4.5374
X4.6736Y-4.8228
X4.6736Y-5.1083
X4.6736Y-5.3937
X4.7736Y-4.0059
X4.7736Y-4.252
X4.7736Y-4.5374
X4.7736Y-4.8228
X4.7736Y-5.1083
X4.7736Y-5.3937
X5.002Y-5.4598
X5.002Y-5.5598
X5.002Y-5.6598
X5.002Y-5.7598
X5.05Y-5.9469
X5.15Y-5.9469
X5.2315Y-3.9173
X5.2315Y-4.0173
X5.2315Y-4.1173
X5.2315Y-4.2173
X5.2315Y-4.3173
X5.2315Y-4.4173
X5.2315Y-4.5173
X5.2315Y-4.6173
X5.2323Y-5.0728
X5.2323Y-5.1728
X5.2323Y-5.2728
X5.2372Y-3.7982
X5.2382Y-4.7402
X5.25Y-5.9469
X5.2598Y-3.5008
X5.2598Y-3.6008
X5.2598Y-3.7008
X5.302Y-5.4598
X5.302Y-5.5598
X5.302Y-5.6598
X5.302Y-5.7598
X5.3366Y-4.7402
X5.4557Y-5.4203
X5.5315Y-3.9173
X5.5315Y-4.0173
X5.5315Y-4.1173
X5.5315Y-4.2173
X5.5315Y-4.3173
X5.5315Y-4.4173
X5.5315Y-4.5173
X5.5315Y-4.6173
X5.6535Y-3.9449
X5.6535Y-4.0433
X5.687Y-5.1752
X5.7382Y-4.163
X5.7382Y-4.263
X5.7382Y-4.363
X5.7382Y-4.463
X5.7382Y-4.563
X5.7382Y-4.663
X5.7382Y-4.763
X5.7382Y-4.863
X5.7382Y-4.963
X5.7382Y-5.063
X5.7803Y-3.9724
X5.7854Y-5.1752
X5.7992Y-5.2717
X5.7992Y-5.3701
X5.8453Y-5.5453
X5.8803Y-3.9724
X5.9453Y-5.5453
X5.9803Y-3.9724
X6.0382Y-4.163
X6.0382Y-4.263
X6.0382Y-4.363
X6.0382Y-4.463
X6.0382Y-4.563
X6.0382Y-4.663
X6.0382Y-4.763
X6.0382Y-4.863
X6.0382Y-4.963
X6.0382Y-5.063
X6.0453Y-5.5453
X6.3484Y-6.0354
X6.4902Y-3.674
X6.4902Y-3.774
X6.4902Y-3.874
X6.4902Y-3.974
X6.4902Y-4.074
X6.4902Y-4.174
X6.4902Y-4.274
X6.4902Y-4.374
X6.498Y-4.5232
X6.498Y-4.6232
X6.498Y-4.7232
X6.498Y-4.8232
X6.498Y-4.9232
X6.498Y-5.0232
X6.498Y-5.1232
X6.498Y-5.2232
X6.498Y-5.3232
X6.498Y-5.4232
X6.7902Y-3.674
X6.7902Y-3.774
X6.7902Y-3.874
X6.7902Y-3.974
X6.7902Y-4.074
X6.7902Y-4.174
X6.7902Y-4.274
X6.7902Y-4.374
X6.798Y-4.5232
X6.798Y-4.6232
X6.798Y-4.7232
X6.798Y-4.8232
X6.798Y-4.9232
X6.798Y-5.0232
X6.798Y-5.1232
X6.798Y-5.2232
X6.798Y-5.3232
X6.798Y-5.4232
X6.9409Y-3.674
X6.9409Y-3.774
X6.9409Y-3.874
X6.9409Y-3.974
X6.9409Y-4.074
X6.9409Y-4.174
X6.9409Y-4.274
X6.9409Y-4.374
X6.9409Y-4.528
X6.9409Y-4.628
X6.9409Y-4.728
X6.9409Y-4.828
X6.9409Y-4.928
X6.9409Y-5.028
X6.9409Y-5.128
X6.9508Y-5.7618
X7.0508Y-5.7618
X7.1508Y-5.7618
X7.2409Y-3.674
X7.2409Y-3.774
X7.2409Y-3.874
X7.2409Y-3.974
X7.2409Y-4.074
X7.2409Y-4.174
X7.2409Y-4.274
X7.2409Y-4.374
X7.2409Y-4.528
X7.2409Y-4.628
X7.2409Y-4.728
X7.2409Y-4.828
X7.2409Y-4.928
X7.2409Y-5.028
X7.2409Y-5.128
X7.3183Y-5.5172
X7.4213Y-6.0354
X7.815Y-4.25
X7.815Y-4.9587
X7.8976Y-4.6693
X7.8976Y-4.7693
X7.8976Y-4.8693
T6
X2.774Y-5.8307
X2.774Y-5.9307
X2.7772Y-4.0551
X2.7772Y-4.1551
X2.874Y-5.8307
X2.874Y-5.9307
X2.8772Y-4.0551
X2.8772Y-4.1551
X2.974Y-5.8307
X2.974Y-5.9307
X2.9772Y-4.0551
X2.9772Y-4.1551
X3.074Y-5.8307
X3.074Y-5.9307
X3.0772Y-4.0551
X3.0772Y-4.1551
X3.174Y-5.8307
X3.174Y-5.9307
X3.1772Y-4.0551
X3.1772Y-4.1551
X3.274Y-5.8307
X3.274Y-5.9307
X3.2772Y-4.0551
X3.2772Y-4.1551
X3.374Y-5.8307
X3.374Y-5.9307
X3.3772Y-4.0551
X3.3772Y-4.1551
X4.5807Y-5.2421
X4.6807Y-5.2421
X4.7807Y-5.2421
X4.9469Y-4.6594
X4.9492Y-4.3504
X4.9508Y-4.5059
X4.9921Y-4.2067
X4.9941Y-4.0157
X5.0079Y-5.1874
X5.0079Y-5.2874
X5.0469Y-4.6594
X5.0492Y-4.3504
X5.0508Y-4.5059
X5.065Y-3.4528
X5.065Y-3.5528
X5.065Y-3.6528
X5.065Y-3.7528
X5.065Y-3.8528
X5.0921Y-4.2067
X5.0941Y-4.0157
X5.5039Y-4.8327
X5.5039Y-4.9327
X5.5039Y-5.0327
X5.6516Y-3.3429
X5.6516Y-3.4429
X5.7516Y-3.3429
X5.7516Y-3.4429
X5.8701Y-3.6677
X5.8701Y-3.7677
X5.8764Y-3.3445
X5.8764Y-3.4445
X5.9276Y-5.2283
X5.9276Y-5.3283
X5.9764Y-3.3445
X5.9764Y-3.4445
X6.0079Y-3.6677
X6.0079Y-3.7677
X6.0276Y-5.2283
X6.0276Y-5.3283
X6.0764Y-3.3445
X6.0764Y-3.4445
X6.1764Y-3.3445
X6.1764Y-3.4445
X6.2146Y-3.9035
X6.2146Y-4.0035
X6.2146Y-4.1035
X6.2146Y-4.2035
X6.2146Y-4.3035
X6.2146Y-4.4035
X6.2146Y-4.5035
X6.2146Y-4.6035
X6.2146Y-4.7035
X6.2146Y-4.8035
X6.2146Y-4.9035
X6.2146Y-5.0035
X6.2146Y-5.1035
X6.2146Y-5.2035
X6.2146Y-5.3035
X6.2764Y-3.3445
X6.2764Y-3.4445
X6.3764Y-3.3445
X6.3764Y-3.4445
X6.4764Y-3.3445
X6.4764Y-3.4445
X6.6913Y-3.3504
X6.6913Y-3.4504
X6.7913Y-3.3504
X6.7913Y-3.4504
X6.8283Y-5.9646
X6.9283Y-5.9646
X6.9555Y-3.5
X7.0283Y-5.9646
X7.0555Y-3.5
X7.1283Y-5.9646
X7.1555Y-3.5
X7.2283Y-5.9646
X7.5118Y-5.6299
X7.5118Y-5.7299
X7.5118Y-5.8299
X7.5118Y-5.9299
X7.5118Y-6.0299
X7.5295Y-3.9035
X7.5295Y-4.0035
X7.5295Y-4.1035
X7.5295Y-4.2035
X7.5295Y-4.3035
X7.5295Y-4.4035
X7.5295Y-4.5035
X7.5295Y-4.6035
X7.5295Y-4.7035
X7.5295Y-4.8035
X7.5295Y-4.9035
X7.5295Y-5.0035
X7.5295Y-5.1035
X7.5295Y-5.2035
X7.5295Y-5.3035
X7.5587Y-5.5059
X7.6496Y-4.4114
X7.6496Y-4.6024
X7.6496Y-4.8976
X7.6587Y-5.5059
X7.7189Y-5.0925
X7.7189Y-5.1925
X7.7587Y-5.5059
X7.8189Y-5.0925
X7.8189Y-5.1925
X7.8587Y-5.5059
X7.9449Y-4.4114
X7.9587Y-5.5059
T7
X4.5413Y-5.5187
X4.8413Y-5.5187
X5.4843Y-5.2776
X5.5843Y-5.2776
X5.6843Y-5.2776
T8
X4.8701Y-4.9606
X5.0669Y-4.9606
T9
X4.5669Y-5.7972
X4.5866Y-3.5433
X4.7638Y-5.7972
X4.7835Y-3.5433
X7.6575Y-3.5433
X7.6969Y-5.8268
X7.8543Y-3.5433
X7.8937Y-5.8268
T10
X5.8437Y-5.8268
X6.0437Y-5.8268
X6.2437Y-5.8268
X6.4437Y-5.8268
X6.6437Y-5.8268
T11
X2.3583Y-4.748
X2.3583Y-6.0472
X2.3614Y-2.9724
X2.3614Y-4.2717
X3.8937Y-4.748
X3.8937Y-6.0472
X3.8969Y-2.9724
X3.8969Y-4.2717
T0
M30
