%TF.GenerationSoftware,KiCad,Pcbnew,5.1.10-88a1d61d58~90~ubuntu20.04.1*%
%TF.CreationDate,2021-10-14T14:42:22+02:00*%
%TF.ProjectId,menelaos,6d656e65-6c61-46f7-932e-6b696361645f,rev?*%
%TF.SameCoordinates,Original*%
%TF.FileFunction,Copper,L1,Top*%
%TF.FilePolarity,Positive*%
%FSLAX46Y46*%
G04 Gerber Fmt 4.6, Leading zero omitted, Abs format (unit mm)*
G04 Created by KiCad (PCBNEW 5.1.10-88a1d61d58~90~ubuntu20.04.1) date 2021-10-14 14:42:22*
%MOMM*%
%LPD*%
G01*
G04 APERTURE LIST*
%TA.AperFunction,ComponentPad*%
%ADD10R,1.700000X1.700000*%
%TD*%
%TA.AperFunction,ComponentPad*%
%ADD11O,1.700000X1.700000*%
%TD*%
%TA.AperFunction,ComponentPad*%
%ADD12C,6.400000*%
%TD*%
%TA.AperFunction,ComponentPad*%
%ADD13C,0.800000*%
%TD*%
%TA.AperFunction,ComponentPad*%
%ADD14R,1.600000X1.600000*%
%TD*%
%TA.AperFunction,ComponentPad*%
%ADD15C,1.600000*%
%TD*%
%TA.AperFunction,ComponentPad*%
%ADD16C,2.000000*%
%TD*%
%TA.AperFunction,ComponentPad*%
%ADD17O,1.980000X3.960000*%
%TD*%
%TA.AperFunction,ComponentPad*%
%ADD18R,1.980000X3.960000*%
%TD*%
%TA.AperFunction,ComponentPad*%
%ADD19O,2.400000X1.600000*%
%TD*%
%TA.AperFunction,ComponentPad*%
%ADD20R,2.400000X1.600000*%
%TD*%
%TA.AperFunction,ComponentPad*%
%ADD21R,2.400000X2.400000*%
%TD*%
%TA.AperFunction,ComponentPad*%
%ADD22C,2.400000*%
%TD*%
%TA.AperFunction,ComponentPad*%
%ADD23R,2.200000X2.200000*%
%TD*%
%TA.AperFunction,ComponentPad*%
%ADD24O,2.200000X2.200000*%
%TD*%
%TA.AperFunction,ComponentPad*%
%ADD25C,3.000000*%
%TD*%
%TA.AperFunction,ComponentPad*%
%ADD26R,3.000000X3.000000*%
%TD*%
%TA.AperFunction,ComponentPad*%
%ADD27R,1.905000X2.000000*%
%TD*%
%TA.AperFunction,ComponentPad*%
%ADD28O,1.905000X2.000000*%
%TD*%
%TA.AperFunction,ComponentPad*%
%ADD29O,1.400000X1.400000*%
%TD*%
%TA.AperFunction,ComponentPad*%
%ADD30C,1.400000*%
%TD*%
%TA.AperFunction,ComponentPad*%
%ADD31C,1.440000*%
%TD*%
%TA.AperFunction,ComponentPad*%
%ADD32C,1.800000*%
%TD*%
%TA.AperFunction,ComponentPad*%
%ADD33R,1.800000X1.800000*%
%TD*%
%TA.AperFunction,ComponentPad*%
%ADD34C,1.524000*%
%TD*%
%TA.AperFunction,ViaPad*%
%ADD35C,0.800000*%
%TD*%
%TA.AperFunction,ViaPad*%
%ADD36C,1.500000*%
%TD*%
%TA.AperFunction,Conductor*%
%ADD37C,0.250000*%
%TD*%
%TA.AperFunction,Conductor*%
%ADD38C,0.800000*%
%TD*%
G04 APERTURE END LIST*
D10*
%TO.P,J21,1*%
%TO.N,N/C*%
X85780000Y-103000000D03*
D11*
%TO.P,J21,14*%
X85780000Y-105540000D03*
%TO.P,J21,2*%
X83240000Y-103000000D03*
%TO.P,J21,13*%
X83240000Y-105540000D03*
%TO.P,J21,3*%
X80700000Y-103000000D03*
%TO.P,J21,12*%
X80700000Y-105540000D03*
%TO.P,J21,4*%
X78160000Y-103000000D03*
%TO.P,J21,11*%
X78160000Y-105540000D03*
%TO.P,J21,5*%
X75620000Y-103000000D03*
%TO.P,J21,10*%
X75620000Y-105540000D03*
%TO.P,J21,6*%
X73080000Y-103000000D03*
%TO.P,J21,9*%
X73080000Y-105540000D03*
%TO.P,J21,7*%
X70540000Y-103000000D03*
%TO.P,J21,8*%
X70540000Y-105540000D03*
%TD*%
D12*
%TO.P,H3,1*%
%TO.N,N/C*%
X59980000Y-108500000D03*
D13*
X62380000Y-108500000D03*
X61677056Y-110197056D03*
X59980000Y-110900000D03*
X58282944Y-110197056D03*
X57580000Y-108500000D03*
X58282944Y-106802944D03*
X59980000Y-106100000D03*
X61677056Y-106802944D03*
%TD*%
D12*
%TO.P,H1,1*%
%TO.N,N/C*%
X98980000Y-75500000D03*
D13*
X101380000Y-75500000D03*
X100677056Y-77197056D03*
X98980000Y-77900000D03*
X97282944Y-77197056D03*
X96580000Y-75500000D03*
X97282944Y-73802944D03*
X98980000Y-73100000D03*
X100677056Y-73802944D03*
%TD*%
D14*
%TO.P,U14,1*%
%TO.N,N/C*%
X64800000Y-81840000D03*
D15*
%TO.P,U14,2*%
X64800000Y-84380000D03*
%TO.P,U14,3*%
X64800000Y-86920000D03*
%TO.P,U14,4*%
X64800000Y-89460000D03*
%TO.P,U14,5*%
X64800000Y-92000000D03*
%TO.P,U14,6*%
X69880000Y-92000000D03*
%TO.P,U14,7*%
X69880000Y-89460000D03*
%TO.P,U14,8*%
X69880000Y-86920000D03*
%TO.P,U14,9*%
X69880000Y-84380000D03*
%TO.P,U14,10*%
X69880000Y-81840000D03*
%TD*%
%TO.P,U12,10*%
%TO.N,N/C*%
X94180000Y-81840000D03*
%TO.P,U12,9*%
X94180000Y-84380000D03*
%TO.P,U12,8*%
X94180000Y-86920000D03*
%TO.P,U12,7*%
X94180000Y-89460000D03*
%TO.P,U12,6*%
X94180000Y-92000000D03*
%TO.P,U12,5*%
X89100000Y-92000000D03*
%TO.P,U12,4*%
X89100000Y-89460000D03*
%TO.P,U12,3*%
X89100000Y-86920000D03*
%TO.P,U12,2*%
X89100000Y-84380000D03*
D14*
%TO.P,U12,1*%
X89100000Y-81840000D03*
%TD*%
%TO.P,U10,1*%
%TO.N,N/C*%
X81000000Y-81840000D03*
D15*
%TO.P,U10,2*%
X81000000Y-84380000D03*
%TO.P,U10,3*%
X81000000Y-86920000D03*
%TO.P,U10,4*%
X81000000Y-89460000D03*
%TO.P,U10,5*%
X81000000Y-92000000D03*
%TO.P,U10,6*%
X86080000Y-92000000D03*
%TO.P,U10,7*%
X86080000Y-89460000D03*
%TO.P,U10,8*%
X86080000Y-86920000D03*
%TO.P,U10,9*%
X86080000Y-84380000D03*
%TO.P,U10,10*%
X86080000Y-81840000D03*
%TD*%
%TO.P,U8,10*%
%TO.N,N/C*%
X77980000Y-81840000D03*
%TO.P,U8,9*%
X77980000Y-84380000D03*
%TO.P,U8,8*%
X77980000Y-86920000D03*
%TO.P,U8,7*%
X77980000Y-89460000D03*
%TO.P,U8,6*%
X77980000Y-92000000D03*
%TO.P,U8,5*%
X72900000Y-92000000D03*
%TO.P,U8,4*%
X72900000Y-89460000D03*
%TO.P,U8,3*%
X72900000Y-86920000D03*
%TO.P,U8,2*%
X72900000Y-84380000D03*
D14*
%TO.P,U8,1*%
X72900000Y-81840000D03*
%TD*%
D12*
%TO.P,H2,1*%
%TO.N,N/C*%
X59980000Y-75500000D03*
D13*
X62380000Y-75500000D03*
X61677056Y-77197056D03*
X59980000Y-77900000D03*
X58282944Y-77197056D03*
X57580000Y-75500000D03*
X58282944Y-73802944D03*
X59980000Y-73100000D03*
X61677056Y-73802944D03*
%TD*%
D12*
%TO.P,H4,1*%
%TO.N,N/C*%
X98980000Y-108500000D03*
D13*
X101380000Y-108500000D03*
X100677056Y-110197056D03*
X98980000Y-110900000D03*
X97282944Y-110197056D03*
X96580000Y-108500000D03*
X97282944Y-106802944D03*
X98980000Y-106100000D03*
X100677056Y-106802944D03*
%TD*%
D11*
%TO.P,J2,2*%
%TO.N,_ones*%
X146090000Y-84910000D03*
%TO.P,J2,3*%
%TO.N,_onesBoard*%
X143550000Y-84910000D03*
%TO.P,J2,1*%
%TO.N,ones33*%
X146090000Y-87450000D03*
D10*
%TO.P,J2,4*%
%TO.N,_onesBoard*%
X143550000Y-87450000D03*
%TD*%
D11*
%TO.P,J21,8*%
%TO.N,Net-(J21-Pad8)*%
X70460000Y-150640000D03*
%TO.P,J21,7*%
%TO.N,Net-(J21-Pad7)*%
X70460000Y-148100000D03*
%TO.P,J21,9*%
%TO.N,+g*%
X73000000Y-150640000D03*
%TO.P,J21,6*%
%TO.N,+f*%
X73000000Y-148100000D03*
%TO.P,J21,10*%
%TO.N,+dp*%
X75540000Y-150640000D03*
%TO.P,J21,5*%
%TO.N,+e*%
X75540000Y-148100000D03*
%TO.P,J21,11*%
%TO.N,+ones*%
X78080000Y-150640000D03*
%TO.P,J21,4*%
%TO.N,+d*%
X78080000Y-148100000D03*
%TO.P,J21,12*%
%TO.N,+tens*%
X80620000Y-150640000D03*
%TO.P,J21,3*%
%TO.N,+c*%
X80620000Y-148100000D03*
%TO.P,J21,13*%
%TO.N,+hundreds*%
X83160000Y-150640000D03*
%TO.P,J21,2*%
%TO.N,+b*%
X83160000Y-148100000D03*
%TO.P,J21,14*%
%TO.N,+thousands*%
X85700000Y-150640000D03*
D10*
%TO.P,J21,1*%
%TO.N,+a*%
X85700000Y-148100000D03*
%TD*%
D11*
%TO.P,J20,8*%
%TO.N,Net-(J20-Pad8)*%
X149260000Y-87490000D03*
%TO.P,J20,7*%
%TO.N,Net-(J20-Pad7)*%
X149260000Y-84950000D03*
%TO.P,J20,9*%
%TO.N,_g*%
X151800000Y-87490000D03*
%TO.P,J20,6*%
%TO.N,_f*%
X151800000Y-84950000D03*
%TO.P,J20,10*%
%TO.N,_dp*%
X154340000Y-87490000D03*
%TO.P,J20,5*%
%TO.N,_e*%
X154340000Y-84950000D03*
%TO.P,J20,11*%
%TO.N,ones*%
X156880000Y-87490000D03*
%TO.P,J20,4*%
%TO.N,_d*%
X156880000Y-84950000D03*
%TO.P,J20,12*%
%TO.N,tens*%
X159420000Y-87490000D03*
%TO.P,J20,3*%
%TO.N,_c*%
X159420000Y-84950000D03*
%TO.P,J20,13*%
%TO.N,hundreds*%
X161960000Y-87490000D03*
%TO.P,J20,2*%
%TO.N,_b*%
X161960000Y-84950000D03*
%TO.P,J20,14*%
%TO.N,thousands*%
X164500000Y-87490000D03*
D10*
%TO.P,J20,1*%
%TO.N,_a*%
X164500000Y-84950000D03*
%TD*%
D13*
%TO.P,H4,1*%
%TO.N,N/C*%
X100597056Y-151902944D03*
X98900000Y-151200000D03*
X97202944Y-151902944D03*
X96500000Y-153600000D03*
X97202944Y-155297056D03*
X98900000Y-156000000D03*
X100597056Y-155297056D03*
X101300000Y-153600000D03*
D12*
X98900000Y-153600000D03*
%TD*%
D13*
%TO.P,H3,1*%
%TO.N,N/C*%
X61597056Y-151902944D03*
X59900000Y-151200000D03*
X58202944Y-151902944D03*
X57500000Y-153600000D03*
X58202944Y-155297056D03*
X59900000Y-156000000D03*
X61597056Y-155297056D03*
X62300000Y-153600000D03*
D12*
X59900000Y-153600000D03*
%TD*%
D13*
%TO.P,H2,1*%
%TO.N,N/C*%
X61597056Y-118902944D03*
X59900000Y-118200000D03*
X58202944Y-118902944D03*
X57500000Y-120600000D03*
X58202944Y-122297056D03*
X59900000Y-123000000D03*
X61597056Y-122297056D03*
X62300000Y-120600000D03*
D12*
X59900000Y-120600000D03*
%TD*%
D13*
%TO.P,H1,1*%
%TO.N,N/C*%
X100597056Y-118902944D03*
X98900000Y-118200000D03*
X97202944Y-118902944D03*
X96500000Y-120600000D03*
X97202944Y-122297056D03*
X98900000Y-123000000D03*
X100597056Y-122297056D03*
X101300000Y-120600000D03*
D12*
X98900000Y-120600000D03*
%TD*%
D15*
%TO.P,Murata-Ceramic-Capacitor-50v1-22uF1,2*%
%TO.N,POWER-IN-*%
X147300000Y-133900000D03*
%TO.P,Murata-Ceramic-Capacitor-50v1-22uF1,1*%
%TO.N,+12V*%
X147300000Y-136400000D03*
%TD*%
D16*
%TO.P,C2,2*%
%TO.N,POWER-IN-*%
X194300000Y-124400000D03*
%TO.P,C2,1*%
%TO.N,_chB*%
X194300000Y-116900000D03*
%TD*%
%TO.P,C3,2*%
%TO.N,POWER-IN-*%
X201800000Y-112050000D03*
%TO.P,C3,1*%
%TO.N,_chA*%
X194300000Y-112050000D03*
%TD*%
D15*
%TO.P,Murata-Ceramic-Capacitor-50v1-22uF2,2*%
%TO.N,POWER-IN-*%
X144450000Y-131450000D03*
%TO.P,Murata-Ceramic-Capacitor-50v1-22uF2,1*%
%TO.N,+12V*%
X146950000Y-131450000D03*
%TD*%
%TO.P,Murata-Ceramic-Capacitor-50v1-22uF3,2*%
%TO.N,POWER-IN-*%
X143600000Y-100200000D03*
%TO.P,Murata-Ceramic-Capacitor-50v1-22uF3,1*%
%TO.N,+5VP*%
X143600000Y-102700000D03*
%TD*%
%TO.P,Murata-Ceramic-Capacitor-50v1-22uF4,2*%
%TO.N,POWER-IN-*%
X133050000Y-120400000D03*
%TO.P,Murata-Ceramic-Capacitor-50v1-22uF4,1*%
%TO.N,+5VL*%
X135550000Y-120400000D03*
%TD*%
D17*
%TO.P,S4,2*%
%TO.N,POWER-IN+*%
X121000000Y-147250000D03*
D18*
%TO.P,S4,1*%
%TO.N,POWER-IN-*%
X116000000Y-147250000D03*
%TD*%
D19*
%TO.P,U16,8*%
%TO.N,+5VL*%
X134670000Y-146300000D03*
%TO.P,U16,4*%
%TO.N,POWER-IN-*%
X127050000Y-138680000D03*
%TO.P,U16,7*%
%TO.N,_save*%
X134670000Y-143760000D03*
%TO.P,U16,3*%
%TO.N,Net-(U16-Pad3)*%
X127050000Y-141220000D03*
%TO.P,U16,6*%
%TO.N,Net-(RV9-Pad2)*%
X134670000Y-141220000D03*
%TO.P,U16,2*%
%TO.N,Net-(U16-Pad2)*%
X127050000Y-143760000D03*
%TO.P,U16,5*%
%TO.N,Net-(RV10-Pad2)*%
X134670000Y-138680000D03*
D20*
%TO.P,U16,1*%
%TO.N,Net-(U16-Pad1)*%
X127050000Y-146300000D03*
%TD*%
D21*
%TO.P,C1,1*%
%TO.N,+5VL*%
X123700000Y-126000000D03*
D22*
%TO.P,C1,2*%
%TO.N,POWER-IN-*%
X128700000Y-126000000D03*
%TD*%
D23*
%TO.P,D1,1*%
%TO.N,+12V*%
X115350000Y-140175000D03*
D24*
%TO.P,D1,2*%
%TO.N,Net-(D1-Pad2)*%
X122970000Y-140175000D03*
%TD*%
D10*
%TO.P,J1,1*%
%TO.N,POWER-IN-*%
X202150000Y-139850000D03*
D11*
%TO.P,J1,2*%
X199610000Y-139850000D03*
%TO.P,J1,3*%
X197070000Y-139850000D03*
%TO.P,J1,4*%
X194530000Y-139850000D03*
%TO.P,J1,5*%
X191990000Y-139850000D03*
%TD*%
D10*
%TO.P,J3,1*%
%TO.N,+12V*%
X128650000Y-87700000D03*
D11*
%TO.P,J3,2*%
X128650000Y-90240000D03*
%TO.P,J3,3*%
X128650000Y-92780000D03*
%TO.P,J3,4*%
X128650000Y-95320000D03*
%TO.P,J3,5*%
X128650000Y-97860000D03*
%TD*%
%TO.P,J4,5*%
%TO.N,+5VP*%
X173440000Y-151500000D03*
%TO.P,J4,4*%
X175980000Y-151500000D03*
%TO.P,J4,3*%
X178520000Y-151500000D03*
%TO.P,J4,2*%
X181060000Y-151500000D03*
D10*
%TO.P,J4,1*%
X183600000Y-151500000D03*
%TD*%
D11*
%TO.P,J5,5*%
%TO.N,+3V3*%
X190800000Y-153160000D03*
%TO.P,J5,4*%
X190800000Y-150620000D03*
%TO.P,J5,3*%
X190800000Y-148080000D03*
%TO.P,J5,2*%
X190800000Y-145540000D03*
D10*
%TO.P,J5,1*%
X190800000Y-143000000D03*
%TD*%
%TO.P,J6,4*%
%TO.N,_thousandsBoard*%
X198600000Y-129350000D03*
D11*
%TO.P,J6,1*%
%TO.N,thousands33*%
X196060000Y-129350000D03*
%TO.P,J6,3*%
%TO.N,_thousandsBoard*%
X198600000Y-131890000D03*
%TO.P,J6,2*%
%TO.N,_thousands*%
X196060000Y-131890000D03*
%TD*%
D10*
%TO.P,J7,4*%
%TO.N,_tensBoard*%
X153100000Y-132800000D03*
D11*
%TO.P,J7,1*%
%TO.N,Net-(J7-Pad1)*%
X150560000Y-132800000D03*
%TO.P,J7,3*%
%TO.N,_tensBoard*%
X153100000Y-135340000D03*
%TO.P,J7,2*%
%TO.N,_tens*%
X150560000Y-135340000D03*
%TD*%
%TO.P,J8,2*%
%TO.N,_hundreds*%
X169960000Y-87640000D03*
%TO.P,J8,3*%
%TO.N,_hundredsBoard*%
X172500000Y-87640000D03*
%TO.P,J8,1*%
%TO.N,hundreds33*%
X169960000Y-85100000D03*
D10*
%TO.P,J8,4*%
%TO.N,_hundredsBoard*%
X172500000Y-85100000D03*
%TD*%
D11*
%TO.P,J9,15*%
%TO.N,+5VL*%
X157850000Y-134710000D03*
%TO.P,J9,14*%
%TO.N,POWER-IN-*%
X157850000Y-132170000D03*
%TO.P,J9,13*%
%TO.N,_mode*%
X157850000Y-129630000D03*
%TO.P,J9,12*%
%TO.N,_dpBoard*%
X157850000Y-127090000D03*
%TO.P,J9,11*%
%TO.N,_zero*%
X157850000Y-124550000D03*
%TO.P,J9,10*%
%TO.N,_a1*%
X157850000Y-122010000D03*
%TO.P,J9,9*%
%TO.N,_a2*%
X157850000Y-119470000D03*
%TO.P,J9,8*%
%TO.N,_onesBoard*%
X157850000Y-116930000D03*
%TO.P,J9,7*%
%TO.N,Net-(J9-Pad7)*%
X157850000Y-114390000D03*
%TO.P,J9,6*%
%TO.N,_clk*%
X157850000Y-111850000D03*
%TO.P,J9,5*%
%TO.N,Net-(J9-Pad5)*%
X157850000Y-109310000D03*
%TO.P,J9,4*%
%TO.N,_config*%
X157850000Y-106770000D03*
%TO.P,J9,3*%
%TO.N,Net-(J9-Pad3)*%
X157850000Y-104230000D03*
%TO.P,J9,2*%
%TO.N,Net-(J9-Pad2)*%
X157850000Y-101690000D03*
D10*
%TO.P,J9,1*%
%TO.N,Net-(J9-Pad1)*%
X157850000Y-99150000D03*
%TD*%
%TO.P,J10,1*%
%TO.N,_tensBoard*%
X191250000Y-99150000D03*
D11*
%TO.P,J10,2*%
%TO.N,_hundredsBoard*%
X191250000Y-101690000D03*
%TO.P,J10,3*%
%TO.N,Net-(J10-Pad3)*%
X191250000Y-104230000D03*
%TO.P,J10,4*%
%TO.N,Net-(J10-Pad4)*%
X191250000Y-106770000D03*
%TO.P,J10,5*%
%TO.N,_chA*%
X191250000Y-109310000D03*
%TO.P,J10,6*%
%TO.N,_a4*%
X191250000Y-111850000D03*
%TO.P,J10,7*%
%TO.N,_a3*%
X191250000Y-114390000D03*
%TO.P,J10,8*%
%TO.N,_chB*%
X191250000Y-116930000D03*
%TO.P,J10,9*%
%TO.N,Net-(J10-Pad9)*%
X191250000Y-119470000D03*
%TO.P,J10,10*%
%TO.N,Net-(J10-Pad10)*%
X191250000Y-122010000D03*
%TO.P,J10,11*%
%TO.N,_thousandsBoard*%
X191250000Y-124550000D03*
%TO.P,J10,12*%
%TO.N,Net-(J10-Pad12)*%
X191250000Y-127090000D03*
%TO.P,J10,13*%
%TO.N,_save*%
X191250000Y-129630000D03*
%TO.P,J10,14*%
%TO.N,POWER-IN-*%
X191250000Y-132170000D03*
%TO.P,J10,15*%
%TO.N,+3V3*%
X191250000Y-134710000D03*
%TD*%
%TO.P,J11,2*%
%TO.N,a*%
X125710000Y-110500000D03*
D10*
%TO.P,J11,1*%
%TO.N,_a*%
X128250000Y-110500000D03*
%TD*%
D11*
%TO.P,J12,2*%
%TO.N,b*%
X129340000Y-106850000D03*
D10*
%TO.P,J12,1*%
%TO.N,_b*%
X126800000Y-106850000D03*
%TD*%
%TO.P,J13,1*%
%TO.N,_c*%
X125750000Y-114450000D03*
D11*
%TO.P,J13,2*%
%TO.N,c*%
X128290000Y-114450000D03*
%TD*%
D10*
%TO.P,J14,1*%
%TO.N,_d*%
X125650000Y-118350000D03*
D11*
%TO.P,J14,2*%
%TO.N,d*%
X128190000Y-118350000D03*
%TD*%
D10*
%TO.P,J15,1*%
%TO.N,_e*%
X127200000Y-134300000D03*
D11*
%TO.P,J15,2*%
%TO.N,e*%
X127200000Y-131760000D03*
%TD*%
%TO.P,J16,2*%
%TO.N,f*%
X129390000Y-102000000D03*
D10*
%TO.P,J16,1*%
%TO.N,_f*%
X126850000Y-102000000D03*
%TD*%
D11*
%TO.P,J17,2*%
%TO.N,g*%
X149100000Y-93160000D03*
D10*
%TO.P,J17,1*%
%TO.N,_g*%
X149100000Y-95700000D03*
%TD*%
%TO.P,J18,1*%
%TO.N,_dp*%
X152600000Y-95700000D03*
D11*
%TO.P,J18,2*%
%TO.N,_dpBoard*%
X152600000Y-93160000D03*
%TD*%
D10*
%TO.P,J19,1*%
%TO.N,+5VP*%
X181750000Y-88900000D03*
D11*
%TO.P,J19,2*%
%TO.N,Net-(J19-Pad2)*%
X179210000Y-88900000D03*
%TO.P,J19,3*%
%TO.N,POWER-IN-*%
X176670000Y-88900000D03*
%TD*%
D25*
%TO.P,J23,2*%
%TO.N,POWER-IN-*%
X163670000Y-148000000D03*
%TO.P,J23,3*%
%TO.N,white*%
X158590000Y-148000000D03*
D26*
%TO.P,J23,1*%
%TO.N,POWER-IN-*%
X168750000Y-148000000D03*
D25*
%TO.P,J23,4*%
%TO.N,yellow*%
X153510000Y-148000000D03*
%TO.P,J23,5*%
%TO.N,gray*%
X148430000Y-148000000D03*
%TD*%
D27*
%TO.P,Q1,1*%
%TO.N,Net-(D1-Pad2)*%
X139300000Y-134050000D03*
D28*
%TO.P,Q1,2*%
%TO.N,POWER-IN+*%
X141840000Y-134050000D03*
%TO.P,Q1,3*%
%TO.N,+12V*%
X144380000Y-134050000D03*
%TD*%
D29*
%TO.P,R1,2*%
%TO.N,ones33*%
X141600000Y-91870000D03*
D30*
%TO.P,R1,1*%
%TO.N,_ones*%
X141600000Y-84250000D03*
%TD*%
%TO.P,R2,1*%
%TO.N,ones33*%
X136450000Y-84450000D03*
D29*
%TO.P,R2,2*%
%TO.N,POWER-IN-*%
X128830000Y-84450000D03*
%TD*%
D30*
%TO.P,R3,1*%
%TO.N,_tens*%
X157550000Y-142500000D03*
D29*
%TO.P,R3,2*%
%TO.N,tens33*%
X165170000Y-142500000D03*
%TD*%
D30*
%TO.P,R4,1*%
%TO.N,tens33*%
X167300000Y-142500000D03*
D29*
%TO.P,R4,2*%
%TO.N,POWER-IN-*%
X174920000Y-142500000D03*
%TD*%
%TO.P,R5,2*%
%TO.N,hundreds33*%
X183220000Y-86950000D03*
D30*
%TO.P,R5,1*%
%TO.N,_hundreds*%
X175600000Y-86950000D03*
%TD*%
%TO.P,R6,1*%
%TO.N,hundreds33*%
X183250000Y-84350000D03*
D29*
%TO.P,R6,2*%
%TO.N,POWER-IN-*%
X175630000Y-84350000D03*
%TD*%
D30*
%TO.P,R7,1*%
%TO.N,_thousands*%
X138750000Y-84300000D03*
D29*
%TO.P,R7,2*%
%TO.N,thousands33*%
X138750000Y-91920000D03*
%TD*%
%TO.P,R8,2*%
%TO.N,POWER-IN-*%
X201700000Y-136120000D03*
D30*
%TO.P,R8,1*%
%TO.N,thousands33*%
X201700000Y-128500000D03*
%TD*%
D29*
%TO.P,R9,2*%
%TO.N,POWER-IN-*%
X134375000Y-127630000D03*
D30*
%TO.P,R9,1*%
%TO.N,Net-(D1-Pad2)*%
X134375000Y-135250000D03*
%TD*%
D29*
%TO.P,R10,2*%
%TO.N,_save*%
X182025000Y-134130000D03*
D30*
%TO.P,R10,1*%
%TO.N,+5VL*%
X182025000Y-141750000D03*
%TD*%
D29*
%TO.P,R11,2*%
%TO.N,Net-(R11-Pad2)*%
X184350000Y-141720000D03*
D30*
%TO.P,R11,1*%
%TO.N,+5VL*%
X184350000Y-134100000D03*
%TD*%
%TO.P,R12,1*%
%TO.N,Net-(R11-Pad2)*%
X190550000Y-137150000D03*
D29*
%TO.P,R12,2*%
%TO.N,POWER-IN-*%
X198170000Y-137150000D03*
%TD*%
%TO.P,R13,2*%
%TO.N,Net-(R13-Pad2)*%
X202020000Y-107950000D03*
D30*
%TO.P,R13,1*%
%TO.N,+5VL*%
X194400000Y-107950000D03*
%TD*%
%TO.P,R14,1*%
%TO.N,Net-(R11-Pad2)*%
X187000000Y-141750000D03*
D29*
%TO.P,R14,2*%
%TO.N,_zero*%
X187000000Y-149370000D03*
%TD*%
D30*
%TO.P,R15,1*%
%TO.N,Net-(R13-Pad2)*%
X201500000Y-105300000D03*
D29*
%TO.P,R15,2*%
%TO.N,POWER-IN-*%
X201500000Y-97680000D03*
%TD*%
D30*
%TO.P,R16,1*%
%TO.N,+5VL*%
X125750000Y-87750000D03*
D29*
%TO.P,R16,2*%
%TO.N,Net-(R16-Pad2)*%
X125750000Y-95370000D03*
%TD*%
%TO.P,R17,2*%
%TO.N,POWER-IN-*%
X125050000Y-105170000D03*
D30*
%TO.P,R17,1*%
%TO.N,Net-(R16-Pad2)*%
X125050000Y-97550000D03*
%TD*%
%TO.P,R18,1*%
%TO.N,Net-(R13-Pad2)*%
X196400000Y-105300000D03*
D29*
%TO.P,R18,2*%
%TO.N,_mode*%
X196400000Y-97680000D03*
%TD*%
%TO.P,R19,2*%
%TO.N,_config*%
X115130000Y-97750000D03*
D30*
%TO.P,R19,1*%
%TO.N,Net-(R16-Pad2)*%
X122750000Y-97750000D03*
%TD*%
D31*
%TO.P,RV1,1*%
%TO.N,_a*%
X121250000Y-108000000D03*
%TO.P,RV1,2*%
%TO.N,a*%
X118710000Y-108000000D03*
%TO.P,RV1,3*%
%TO.N,POWER-IN-*%
X116170000Y-108000000D03*
%TD*%
%TO.P,RV2,3*%
%TO.N,POWER-IN-*%
X116170000Y-115250000D03*
%TO.P,RV2,2*%
%TO.N,b*%
X118710000Y-115250000D03*
%TO.P,RV2,1*%
%TO.N,_b*%
X121250000Y-115250000D03*
%TD*%
%TO.P,RV3,1*%
%TO.N,_c*%
X121250000Y-122500000D03*
%TO.P,RV3,2*%
%TO.N,c*%
X118710000Y-122500000D03*
%TO.P,RV3,3*%
%TO.N,POWER-IN-*%
X116170000Y-122500000D03*
%TD*%
%TO.P,RV4,3*%
%TO.N,POWER-IN-*%
X116170000Y-129750000D03*
%TO.P,RV4,2*%
%TO.N,d*%
X118710000Y-129750000D03*
%TO.P,RV4,1*%
%TO.N,_d*%
X121250000Y-129750000D03*
%TD*%
%TO.P,RV5,1*%
%TO.N,_e*%
X121250000Y-137000000D03*
%TO.P,RV5,2*%
%TO.N,e*%
X118710000Y-137000000D03*
%TO.P,RV5,3*%
%TO.N,POWER-IN-*%
X116170000Y-137000000D03*
%TD*%
%TO.P,RV6,3*%
%TO.N,POWER-IN-*%
X116170000Y-101750000D03*
%TO.P,RV6,2*%
%TO.N,f*%
X118710000Y-101750000D03*
%TO.P,RV6,1*%
%TO.N,_f*%
X121250000Y-101750000D03*
%TD*%
%TO.P,RV7,1*%
%TO.N,_g*%
X133600000Y-94000000D03*
%TO.P,RV7,2*%
%TO.N,g*%
X133600000Y-91460000D03*
%TO.P,RV7,3*%
%TO.N,POWER-IN-*%
X133600000Y-88920000D03*
%TD*%
%TO.P,RV8,1*%
%TO.N,_dp*%
X151900000Y-100900000D03*
%TO.P,RV8,2*%
%TO.N,_dpBoard*%
X149360000Y-100900000D03*
%TO.P,RV8,3*%
%TO.N,POWER-IN-*%
X146820000Y-100900000D03*
%TD*%
%TO.P,RV9,3*%
%TO.N,POWER-IN-*%
X132900000Y-133930000D03*
%TO.P,RV9,2*%
%TO.N,Net-(RV9-Pad2)*%
X132900000Y-131390000D03*
%TO.P,RV9,1*%
%TO.N,+12V*%
X132900000Y-128850000D03*
%TD*%
%TO.P,RV10,1*%
%TO.N,+5VL*%
X133350000Y-151050000D03*
%TO.P,RV10,2*%
%TO.N,Net-(RV10-Pad2)*%
X130810000Y-151050000D03*
%TO.P,RV10,3*%
%TO.N,POWER-IN-*%
X128270000Y-151050000D03*
%TD*%
%TO.P,RV11,3*%
%TO.N,POWER-IN-*%
X200600000Y-123680000D03*
%TO.P,RV11,2*%
%TO.N,_chB*%
X200600000Y-121140000D03*
%TO.P,RV11,1*%
%TO.N,gray*%
X200600000Y-118600000D03*
%TD*%
%TO.P,RV12,3*%
%TO.N,POWER-IN-*%
X148470000Y-140850000D03*
%TO.P,RV12,2*%
%TO.N,_chA*%
X151010000Y-140850000D03*
%TO.P,RV12,1*%
%TO.N,yellow*%
X153550000Y-140850000D03*
%TD*%
%TO.P,RV13,1*%
%TO.N,+5VP*%
X176550000Y-146350000D03*
%TO.P,RV13,2*%
%TO.N,white*%
X179090000Y-146350000D03*
%TO.P,RV13,3*%
%TO.N,POWER-IN-*%
X181630000Y-146350000D03*
%TD*%
D18*
%TO.P,S1,1*%
%TO.N,_zero*%
X195500000Y-148000000D03*
D17*
%TO.P,S1,2*%
%TO.N,POWER-IN-*%
X200500000Y-148000000D03*
%TD*%
D18*
%TO.P,S2,1*%
%TO.N,_mode*%
X194500000Y-90000000D03*
D17*
%TO.P,S2,2*%
%TO.N,POWER-IN-*%
X199500000Y-90000000D03*
%TD*%
%TO.P,S3,2*%
%TO.N,POWER-IN-*%
X121500000Y-90000000D03*
D18*
%TO.P,S3,1*%
%TO.N,_config*%
X116500000Y-90000000D03*
%TD*%
D19*
%TO.P,U1,20*%
%TO.N,+5VP*%
X172670000Y-137750000D03*
%TO.P,U1,10*%
%TO.N,POWER-IN-*%
X165050000Y-114890000D03*
%TO.P,U1,19*%
%TO.N,_ones*%
X172670000Y-135210000D03*
%TO.P,U1,9*%
%TO.N,/7-segmet-display/BCD_out4*%
X165050000Y-117430000D03*
%TO.P,U1,18*%
%TO.N,/7-segmet-display/BCD_out1*%
X172670000Y-132670000D03*
%TO.P,U1,8*%
%TO.N,_a4*%
X165050000Y-119970000D03*
%TO.P,U1,17*%
%TO.N,_a1*%
X172670000Y-130130000D03*
%TO.P,U1,7*%
%TO.N,/7-segmet-display/BCD_out3*%
X165050000Y-122510000D03*
%TO.P,U1,16*%
%TO.N,/7-segmet-display/BCD_out2*%
X172670000Y-127590000D03*
%TO.P,U1,6*%
%TO.N,_a3*%
X165050000Y-125050000D03*
%TO.P,U1,15*%
%TO.N,_a2*%
X172670000Y-125050000D03*
%TO.P,U1,5*%
%TO.N,/7-segmet-display/BCD_out2*%
X165050000Y-127590000D03*
%TO.P,U1,14*%
%TO.N,/7-segmet-display/BCD_out3*%
X172670000Y-122510000D03*
%TO.P,U1,4*%
%TO.N,_a2*%
X165050000Y-130130000D03*
%TO.P,U1,13*%
%TO.N,_a3*%
X172670000Y-119970000D03*
%TO.P,U1,3*%
%TO.N,/7-segmet-display/BCD_out1*%
X165050000Y-132670000D03*
%TO.P,U1,12*%
%TO.N,/7-segmet-display/BCD_out4*%
X172670000Y-117430000D03*
%TO.P,U1,2*%
%TO.N,_a1*%
X165050000Y-135210000D03*
%TO.P,U1,11*%
%TO.N,_a4*%
X172670000Y-114890000D03*
D20*
%TO.P,U1,1*%
%TO.N,_thousands*%
X165050000Y-137750000D03*
%TD*%
%TO.P,U2,1*%
%TO.N,Net-(U2-Pad1)*%
X164850000Y-111100000D03*
D19*
%TO.P,U2,9*%
%TO.N,Net-(U2-Pad9)*%
X172470000Y-93320000D03*
%TO.P,U2,2*%
%TO.N,Net-(U2-Pad2)*%
X164850000Y-108560000D03*
%TO.P,U2,10*%
%TO.N,Net-(U2-Pad10)*%
X172470000Y-95860000D03*
%TO.P,U2,3*%
%TO.N,Net-(U2-Pad3)*%
X164850000Y-106020000D03*
%TO.P,U2,11*%
%TO.N,Net-(U2-Pad11)*%
X172470000Y-98400000D03*
%TO.P,U2,4*%
%TO.N,Net-(U2-Pad4)*%
X164850000Y-103480000D03*
%TO.P,U2,12*%
%TO.N,Net-(J19-Pad2)*%
X172470000Y-100940000D03*
%TO.P,U2,5*%
%TO.N,Net-(U2-Pad5)*%
X164850000Y-100940000D03*
%TO.P,U2,13*%
%TO.N,POWER-IN-*%
X172470000Y-103480000D03*
%TO.P,U2,6*%
%TO.N,Net-(U2-Pad6)*%
X164850000Y-98400000D03*
%TO.P,U2,14*%
%TO.N,_clk*%
X172470000Y-106020000D03*
%TO.P,U2,7*%
%TO.N,Net-(U2-Pad7)*%
X164850000Y-95860000D03*
%TO.P,U2,15*%
%TO.N,Net-(U2-Pad10)*%
X172470000Y-108560000D03*
%TO.P,U2,8*%
%TO.N,POWER-IN-*%
X164850000Y-93320000D03*
%TO.P,U2,16*%
%TO.N,+5VP*%
X172470000Y-111100000D03*
%TD*%
D20*
%TO.P,U3,1*%
%TO.N,Net-(U2-Pad3)*%
X176300000Y-130250000D03*
D19*
%TO.P,U3,8*%
%TO.N,_hundreds*%
X183920000Y-115010000D03*
%TO.P,U3,2*%
%TO.N,_thousands*%
X176300000Y-127710000D03*
%TO.P,U3,9*%
%TO.N,Net-(U2-Pad7)*%
X183920000Y-117550000D03*
%TO.P,U3,3*%
%TO.N,Net-(U2-Pad2)*%
X176300000Y-125170000D03*
%TO.P,U3,10*%
%TO.N,N/C*%
X183920000Y-120090000D03*
%TO.P,U3,4*%
%TO.N,_ones*%
X176300000Y-122630000D03*
%TO.P,U3,11*%
%TO.N,N/C*%
X183920000Y-122630000D03*
%TO.P,U3,5*%
%TO.N,Net-(U2-Pad4)*%
X176300000Y-120090000D03*
%TO.P,U3,12*%
%TO.N,N/C*%
X183920000Y-125170000D03*
%TO.P,U3,6*%
%TO.N,_tens*%
X176300000Y-117550000D03*
%TO.P,U3,13*%
%TO.N,N/C*%
X183920000Y-127710000D03*
%TO.P,U3,7*%
%TO.N,POWER-IN-*%
X176300000Y-115010000D03*
%TO.P,U3,14*%
%TO.N,+5VP*%
X183920000Y-130250000D03*
%TD*%
%TO.P,U4,16*%
%TO.N,+5VP*%
X132880000Y-99500000D03*
%TO.P,U4,8*%
%TO.N,POWER-IN-*%
X140500000Y-117280000D03*
%TO.P,U4,15*%
%TO.N,f*%
X132880000Y-102040000D03*
%TO.P,U4,7*%
%TO.N,/7-segmet-display/BCD_out1*%
X140500000Y-114740000D03*
%TO.P,U4,14*%
%TO.N,g*%
X132880000Y-104580000D03*
%TO.P,U4,6*%
%TO.N,/7-segmet-display/BCD_out4*%
X140500000Y-112200000D03*
%TO.P,U4,13*%
%TO.N,a*%
X132880000Y-107120000D03*
%TO.P,U4,5*%
%TO.N,POWER-IN-*%
X140500000Y-109660000D03*
%TO.P,U4,12*%
%TO.N,b*%
X132880000Y-109660000D03*
%TO.P,U4,4*%
%TO.N,+5VP*%
X140500000Y-107120000D03*
%TO.P,U4,11*%
%TO.N,c*%
X132880000Y-112200000D03*
%TO.P,U4,3*%
%TO.N,+5VP*%
X140500000Y-104580000D03*
%TO.P,U4,10*%
%TO.N,d*%
X132880000Y-114740000D03*
%TO.P,U4,2*%
%TO.N,/7-segmet-display/BCD_out3*%
X140500000Y-102040000D03*
%TO.P,U4,9*%
%TO.N,e*%
X132880000Y-117280000D03*
D20*
%TO.P,U4,1*%
%TO.N,/7-segmet-display/BCD_out2*%
X140500000Y-99500000D03*
%TD*%
%TO.P,U5,1*%
%TO.N,_tens*%
X145750000Y-128600000D03*
D19*
%TO.P,U5,11*%
%TO.N,_a4*%
X153370000Y-105740000D03*
%TO.P,U5,2*%
%TO.N,_a1*%
X145750000Y-126060000D03*
%TO.P,U5,12*%
%TO.N,/7-segmet-display/BCD_out4*%
X153370000Y-108280000D03*
%TO.P,U5,3*%
%TO.N,/7-segmet-display/BCD_out1*%
X145750000Y-123520000D03*
%TO.P,U5,13*%
%TO.N,_a3*%
X153370000Y-110820000D03*
%TO.P,U5,4*%
%TO.N,_a2*%
X145750000Y-120980000D03*
%TO.P,U5,14*%
%TO.N,/7-segmet-display/BCD_out3*%
X153370000Y-113360000D03*
%TO.P,U5,5*%
%TO.N,/7-segmet-display/BCD_out2*%
X145750000Y-118440000D03*
%TO.P,U5,15*%
%TO.N,_a2*%
X153370000Y-115900000D03*
%TO.P,U5,6*%
%TO.N,_a3*%
X145750000Y-115900000D03*
%TO.P,U5,16*%
%TO.N,/7-segmet-display/BCD_out2*%
X153370000Y-118440000D03*
%TO.P,U5,7*%
%TO.N,/7-segmet-display/BCD_out3*%
X145750000Y-113360000D03*
%TO.P,U5,17*%
%TO.N,_a1*%
X153370000Y-120980000D03*
%TO.P,U5,8*%
%TO.N,_a4*%
X145750000Y-110820000D03*
%TO.P,U5,18*%
%TO.N,/7-segmet-display/BCD_out1*%
X153370000Y-123520000D03*
%TO.P,U5,9*%
%TO.N,/7-segmet-display/BCD_out4*%
X145750000Y-108280000D03*
%TO.P,U5,19*%
%TO.N,_hundreds*%
X153370000Y-126060000D03*
%TO.P,U5,10*%
%TO.N,POWER-IN-*%
X145750000Y-105740000D03*
%TO.P,U5,20*%
%TO.N,+5VP*%
X153370000Y-128600000D03*
%TD*%
D20*
%TO.P,U6,1*%
%TO.N,Net-(U2-Pad3)*%
X176300000Y-111100000D03*
D19*
%TO.P,U6,9*%
%TO.N,Net-(U6-Pad9)*%
X183920000Y-93320000D03*
%TO.P,U6,2*%
%TO.N,Net-(U2-Pad2)*%
X176300000Y-108560000D03*
%TO.P,U6,10*%
%TO.N,Net-(U6-Pad10)*%
X183920000Y-95860000D03*
%TO.P,U6,3*%
%TO.N,Net-(U2-Pad4)*%
X176300000Y-106020000D03*
%TO.P,U6,11*%
%TO.N,Net-(U6-Pad11)*%
X183920000Y-98400000D03*
%TO.P,U6,4*%
%TO.N,Net-(U2-Pad7)*%
X176300000Y-103480000D03*
%TO.P,U6,12*%
%TO.N,Net-(U6-Pad12)*%
X183920000Y-100940000D03*
%TO.P,U6,5*%
%TO.N,Net-(U6-Pad5)*%
X176300000Y-100940000D03*
%TO.P,U6,13*%
%TO.N,hundreds*%
X183920000Y-103480000D03*
%TO.P,U6,6*%
%TO.N,Net-(U6-Pad6)*%
X176300000Y-98400000D03*
%TO.P,U6,14*%
%TO.N,tens*%
X183920000Y-106020000D03*
%TO.P,U6,7*%
%TO.N,Net-(U6-Pad7)*%
X176300000Y-95860000D03*
%TO.P,U6,15*%
%TO.N,ones*%
X183920000Y-108560000D03*
%TO.P,U6,8*%
%TO.N,POWER-IN-*%
X176300000Y-93320000D03*
%TO.P,U6,16*%
%TO.N,thousands*%
X183920000Y-111100000D03*
%TD*%
D14*
%TO.P,U8,1*%
%TO.N,+ones*%
X72820000Y-126940000D03*
D15*
%TO.P,U8,2*%
%TO.N,+f*%
X72820000Y-129480000D03*
%TO.P,U8,3*%
%TO.N,+g*%
X72820000Y-132020000D03*
%TO.P,U8,4*%
%TO.N,+e*%
X72820000Y-134560000D03*
%TO.P,U8,5*%
%TO.N,+d*%
X72820000Y-137100000D03*
%TO.P,U8,6*%
%TO.N,+ones*%
X77900000Y-137100000D03*
%TO.P,U8,7*%
%TO.N,+dp*%
X77900000Y-134560000D03*
%TO.P,U8,8*%
%TO.N,+c*%
X77900000Y-132020000D03*
%TO.P,U8,9*%
%TO.N,+b*%
X77900000Y-129480000D03*
%TO.P,U8,10*%
%TO.N,+a*%
X77900000Y-126940000D03*
%TD*%
%TO.P,U10,10*%
%TO.N,+a*%
X86000000Y-126940000D03*
%TO.P,U10,9*%
%TO.N,+b*%
X86000000Y-129480000D03*
%TO.P,U10,8*%
%TO.N,+c*%
X86000000Y-132020000D03*
%TO.P,U10,7*%
%TO.N,+dp*%
X86000000Y-134560000D03*
%TO.P,U10,6*%
%TO.N,+tens*%
X86000000Y-137100000D03*
%TO.P,U10,5*%
%TO.N,+d*%
X80920000Y-137100000D03*
%TO.P,U10,4*%
%TO.N,+e*%
X80920000Y-134560000D03*
%TO.P,U10,3*%
%TO.N,+g*%
X80920000Y-132020000D03*
%TO.P,U10,2*%
%TO.N,+f*%
X80920000Y-129480000D03*
D14*
%TO.P,U10,1*%
%TO.N,+tens*%
X80920000Y-126940000D03*
%TD*%
%TO.P,U12,1*%
%TO.N,+hundreds*%
X89020000Y-126940000D03*
D15*
%TO.P,U12,2*%
%TO.N,+f*%
X89020000Y-129480000D03*
%TO.P,U12,3*%
%TO.N,+g*%
X89020000Y-132020000D03*
%TO.P,U12,4*%
%TO.N,+e*%
X89020000Y-134560000D03*
%TO.P,U12,5*%
%TO.N,+d*%
X89020000Y-137100000D03*
%TO.P,U12,6*%
%TO.N,+hundreds*%
X94100000Y-137100000D03*
%TO.P,U12,7*%
%TO.N,+dp*%
X94100000Y-134560000D03*
%TO.P,U12,8*%
%TO.N,+c*%
X94100000Y-132020000D03*
%TO.P,U12,9*%
%TO.N,+b*%
X94100000Y-129480000D03*
%TO.P,U12,10*%
%TO.N,+a*%
X94100000Y-126940000D03*
%TD*%
%TO.P,U14,10*%
%TO.N,+a*%
X69800000Y-126940000D03*
%TO.P,U14,9*%
%TO.N,+b*%
X69800000Y-129480000D03*
%TO.P,U14,8*%
%TO.N,+c*%
X69800000Y-132020000D03*
%TO.P,U14,7*%
%TO.N,+dp*%
X69800000Y-134560000D03*
%TO.P,U14,6*%
%TO.N,+thousands*%
X69800000Y-137100000D03*
%TO.P,U14,5*%
%TO.N,+d*%
X64720000Y-137100000D03*
%TO.P,U14,4*%
%TO.N,+e*%
X64720000Y-134560000D03*
%TO.P,U14,3*%
%TO.N,+g*%
X64720000Y-132020000D03*
%TO.P,U14,2*%
%TO.N,+f*%
X64720000Y-129480000D03*
D14*
%TO.P,U14,1*%
%TO.N,+thousands*%
X64720000Y-126940000D03*
%TD*%
D32*
%TO.P,U17,3*%
%TO.N,+5VP*%
X121430000Y-133150000D03*
%TO.P,U17,2*%
%TO.N,POWER-IN-*%
X118890000Y-133150000D03*
D33*
%TO.P,U17,1*%
%TO.N,+12V*%
X116350000Y-133150000D03*
%TD*%
%TO.P,U18,1*%
%TO.N,+12V*%
X139800000Y-122750000D03*
D32*
%TO.P,U18,2*%
%TO.N,POWER-IN-*%
X139800000Y-125290000D03*
%TO.P,U18,3*%
%TO.N,+5VL*%
X139800000Y-127830000D03*
%TD*%
D34*
%TO.P,U24,1*%
%TO.N,Net-(J9-Pad1)*%
X161954000Y-99116000D03*
%TO.P,U24,2*%
%TO.N,Net-(J9-Pad2)*%
X161954000Y-101656000D03*
%TO.P,U24,3*%
%TO.N,Net-(J9-Pad3)*%
X161954000Y-104196000D03*
%TO.P,U24,4*%
%TO.N,_config*%
X161954000Y-106736000D03*
%TO.P,U24,5*%
%TO.N,Net-(J9-Pad5)*%
X161954000Y-109276000D03*
%TO.P,U24,6*%
%TO.N,_clk*%
X161954000Y-111816000D03*
%TO.P,U24,7*%
%TO.N,Net-(J9-Pad7)*%
X161954000Y-114356000D03*
%TO.P,U24,8*%
%TO.N,_onesBoard*%
X161954000Y-116896000D03*
%TO.P,U24,9*%
%TO.N,_a2*%
X161954000Y-119436000D03*
%TO.P,U24,10*%
%TO.N,_a1*%
X161954000Y-121976000D03*
%TO.P,U24,11*%
%TO.N,_zero*%
X161954000Y-124516000D03*
%TO.P,U24,12*%
%TO.N,_dpBoard*%
X161954000Y-127056000D03*
%TO.P,U24,13*%
%TO.N,_mode*%
X161954000Y-129596000D03*
%TO.P,U24,14*%
%TO.N,POWER-IN-*%
X161954000Y-132136000D03*
X161954000Y-132136000D03*
%TO.P,U24,15*%
%TO.N,+5VL*%
X161954000Y-134676000D03*
%TO.P,U24,16*%
%TO.N,+3V3*%
X186846000Y-134676000D03*
%TO.P,U24,17*%
%TO.N,POWER-IN-*%
X186846000Y-132136000D03*
%TO.P,U24,18*%
%TO.N,_save*%
X186846000Y-129596000D03*
%TO.P,U24,19*%
%TO.N,Net-(J10-Pad12)*%
X186846000Y-127056000D03*
%TO.P,U24,20*%
%TO.N,_thousandsBoard*%
X186846000Y-124516000D03*
%TO.P,U24,21*%
%TO.N,Net-(J10-Pad10)*%
X186846000Y-121976000D03*
%TO.P,U24,22*%
%TO.N,Net-(J10-Pad9)*%
X186846000Y-119436000D03*
%TO.P,U24,23*%
%TO.N,_chB*%
X186846000Y-116896000D03*
%TO.P,U24,24*%
%TO.N,_a3*%
X186846000Y-114356000D03*
%TO.P,U24,25*%
%TO.N,_a4*%
X186846000Y-111816000D03*
%TO.P,U24,26*%
%TO.N,_chA*%
X186846000Y-109276000D03*
%TO.P,U24,27*%
%TO.N,Net-(J10-Pad4)*%
X186846000Y-106736000D03*
%TO.P,U24,28*%
%TO.N,Net-(J10-Pad3)*%
X186846000Y-104196000D03*
%TO.P,U24,29*%
%TO.N,_hundredsBoard*%
X186846000Y-101656000D03*
%TO.P,U24,30*%
%TO.N,_tensBoard*%
X186846000Y-99116000D03*
%TD*%
D35*
%TO.N,*%
X75500000Y-93430000D03*
X85570000Y-93830000D03*
X83380000Y-87100000D03*
X83580000Y-98900000D03*
X67280000Y-105450000D03*
X66630000Y-84600000D03*
X75670000Y-94690000D03*
X75670000Y-94690000D03*
X78880000Y-94500000D03*
X79279999Y-90949999D03*
X87620000Y-87500000D03*
X75680000Y-99250000D03*
X65905000Y-99250000D03*
X75980000Y-82050000D03*
X64780000Y-107500000D03*
X77980000Y-107550000D03*
X85250000Y-94790000D03*
X81210000Y-94310000D03*
X80150000Y-94920000D03*
X72734999Y-95415001D03*
X83030000Y-92250000D03*
X83080000Y-97700000D03*
X80830000Y-97700000D03*
X79580000Y-96550000D03*
X71430000Y-96550000D03*
X74780000Y-87350000D03*
X76830000Y-96550000D03*
X91480000Y-92200000D03*
X91080000Y-99250000D03*
X74440000Y-84630000D03*
X83780000Y-84350000D03*
X69930000Y-100900000D03*
X85830000Y-101000000D03*
X67680000Y-82150000D03*
X67680000Y-92200000D03*
X67930000Y-104300000D03*
X88730000Y-94850000D03*
X94180000Y-81840000D03*
D36*
%TO.N,+5VL*%
X138575001Y-137674999D03*
D35*
X113250000Y-126150000D03*
D36*
X198500000Y-107950000D03*
X198500000Y-125950000D03*
X185885851Y-140135851D03*
X188500000Y-153300000D03*
X161250000Y-153300000D03*
D35*
%TO.N,_chA*%
X189150000Y-138475000D03*
D36*
%TO.N,+12V*%
X133025000Y-96475000D03*
X113600000Y-133150000D03*
X116421849Y-131501993D03*
D35*
%TO.N,Net-(D1-Pad2)*%
X123375000Y-136150000D03*
%TO.N,_ones*%
X180100000Y-82550000D03*
X180025000Y-135250000D03*
X179400000Y-122925000D03*
%TO.N,_onesBoard*%
X149400000Y-117000000D03*
X143550000Y-87450000D03*
%TO.N,ones33*%
X141500000Y-87675000D03*
%TO.N,thousands33*%
X195675000Y-127125000D03*
X194797347Y-97102653D03*
%TO.N,_thousands*%
X178850000Y-131725000D03*
X178825000Y-127800000D03*
X167025000Y-131725000D03*
X166950000Y-137775000D03*
X156550000Y-137675000D03*
X147262347Y-82712347D03*
%TO.N,_tensBoard*%
X179725000Y-100425000D03*
X178300000Y-119075000D03*
X169025000Y-118975000D03*
X167950000Y-133875000D03*
%TO.N,_tens*%
X149650000Y-142500000D03*
X176350000Y-144250001D03*
X149475000Y-128925000D03*
%TO.N,_hundreds*%
X177100000Y-91125000D03*
X185500000Y-91425000D03*
X182000000Y-126350000D03*
%TO.N,_hundredsBoard*%
X181325000Y-102075000D03*
X181400000Y-91850000D03*
X172375000Y-91825000D03*
%TO.N,_mode*%
X194266693Y-128591999D03*
%TO.N,_dpBoard*%
X155625000Y-103475000D03*
X155225000Y-127125000D03*
%TO.N,_zero*%
X163175000Y-140275000D03*
X178180000Y-140550000D03*
%TO.N,_a1*%
X150875000Y-126300000D03*
X150825000Y-120950000D03*
X170300000Y-135125000D03*
X170050000Y-121325000D03*
%TO.N,_a2*%
X170575000Y-125050000D03*
X170575000Y-129875000D03*
X156025000Y-116025000D03*
X149450000Y-121125000D03*
X150975000Y-115850000D03*
X163375000Y-123850000D03*
%TO.N,_clk*%
X168850000Y-106025000D03*
X168850000Y-112225000D03*
%TO.N,_a4*%
X147800000Y-107350000D03*
X147750000Y-110825000D03*
X154550000Y-102425000D03*
X170675000Y-103825000D03*
X173900000Y-112314990D03*
%TO.N,_a3*%
X167125000Y-114700000D03*
X169725000Y-119875000D03*
X169250000Y-125350000D03*
X149250000Y-111025000D03*
X156225000Y-111275000D03*
X156250000Y-114425000D03*
%TO.N,_save*%
X181950000Y-139600000D03*
X137475000Y-139225000D03*
%TO.N,a*%
X123263618Y-104263618D03*
%TO.N,_a*%
X159875000Y-110550000D03*
%TO.N,b*%
X129350000Y-109025000D03*
%TO.N,_b*%
X160149990Y-96725000D03*
X128100000Y-99900010D03*
%TO.N,_c*%
X137250000Y-115875000D03*
X135475000Y-83125000D03*
X159625000Y-81575000D03*
%TO.N,_d*%
X124075000Y-86500000D03*
X111750000Y-118300000D03*
%TO.N,d*%
X125550000Y-129350000D03*
%TO.N,_e*%
X137425000Y-120600000D03*
X142950000Y-120775000D03*
X146774046Y-103425954D03*
X142474999Y-106625001D03*
%TO.N,_f*%
X145900000Y-97825000D03*
X126800000Y-99150000D03*
X148450000Y-89900000D03*
X145900000Y-90000000D03*
%TO.N,_dp*%
X154625000Y-95700000D03*
%TO.N,Net-(J19-Pad2)*%
X178850000Y-99475000D03*
%TO.N,thousands*%
X186375000Y-90750000D03*
X188275000Y-110600000D03*
%TO.N,hundreds*%
X182050000Y-92618222D03*
X168150000Y-94375000D03*
%TO.N,tens*%
X159000000Y-105675000D03*
%TO.N,ones*%
X156400000Y-108050000D03*
%TO.N,+g*%
X75420000Y-138530000D03*
X85490000Y-138930000D03*
X83300000Y-132200000D03*
X83500000Y-144000000D03*
%TO.N,+f*%
X67200000Y-150550000D03*
X66550000Y-129700000D03*
%TO.N,+dp*%
X75590000Y-139790000D03*
X75590000Y-139790000D03*
X78800000Y-139600000D03*
X79199999Y-136049999D03*
%TO.N,+e*%
X87540000Y-132600000D03*
X75600000Y-144350000D03*
X65825000Y-144350000D03*
%TO.N,+ones*%
X75900000Y-127150000D03*
%TO.N,+d*%
X64700000Y-152600000D03*
X77900000Y-152650000D03*
X85170000Y-139890000D03*
X81130000Y-139410000D03*
X80070000Y-140020000D03*
X72654999Y-140515001D03*
%TO.N,+tens*%
X82950000Y-137350000D03*
X83000000Y-142800000D03*
X80750000Y-142800000D03*
%TO.N,+c*%
X79500000Y-141650000D03*
X71350000Y-141650000D03*
X74700000Y-132450000D03*
X76750000Y-141650000D03*
%TO.N,+hundreds*%
X91400000Y-137300000D03*
X91000000Y-144350000D03*
%TO.N,+b*%
X74360000Y-129730000D03*
X83700000Y-129450000D03*
%TO.N,+thousands*%
X69850000Y-146000000D03*
X85750000Y-146100000D03*
X67600000Y-127250000D03*
X67600000Y-137300000D03*
%TO.N,+a*%
X67850000Y-149400000D03*
X88650000Y-139950000D03*
X94100000Y-126940000D03*
%TO.N,gray*%
X192550000Y-155700000D03*
X148000000Y-156100000D03*
%TO.N,Net-(RV9-Pad2)*%
X135400000Y-131150000D03*
%TO.N,Net-(RV10-Pad2)*%
X130825000Y-138725000D03*
%TO.N,/7-segmet-display/BCD_out4*%
X138525000Y-108225000D03*
X155950000Y-109375000D03*
X160225000Y-117825000D03*
%TO.N,/7-segmet-display/BCD_out1*%
X142950000Y-123575000D03*
X156050000Y-123525000D03*
X156025000Y-131075000D03*
%TO.N,/7-segmet-display/BCD_out3*%
X143218748Y-104047091D03*
X143300000Y-113475000D03*
X163250000Y-113350000D03*
%TO.N,/7-segmet-display/BCD_out2*%
X138150000Y-117775000D03*
X160300000Y-120925000D03*
X160400000Y-128000000D03*
%TO.N,Net-(U2-Pad2)*%
X179075000Y-108600000D03*
X179200000Y-118325000D03*
X179200000Y-121125000D03*
X166875000Y-113039990D03*
X179075000Y-112869001D03*
%TO.N,Net-(U2-Pad10)*%
X169950000Y-95875000D03*
X169900000Y-108575000D03*
%TO.N,Net-(U2-Pad3)*%
X167625000Y-110150000D03*
X167600000Y-106025000D03*
X180100000Y-130350000D03*
X181275000Y-111075000D03*
%TO.N,Net-(U2-Pad4)*%
X170675000Y-99950000D03*
X166875000Y-101800000D03*
%TO.N,Net-(U2-Pad7)*%
X174625000Y-116175000D03*
X167100000Y-95900000D03*
X167825000Y-102625000D03*
%TD*%
D37*
%TO.N,*%
X72900000Y-86920000D02*
X74025001Y-88045001D01*
X74025001Y-94824999D02*
X74105001Y-94824999D01*
X74025001Y-88045001D02*
X74025001Y-94824999D01*
X74255001Y-104364999D02*
X74255001Y-94675001D01*
X73080000Y-105540000D02*
X74255001Y-104364999D01*
X74255000Y-94675000D02*
X75500000Y-93430000D01*
X74255001Y-94675001D02*
X74255000Y-94675000D01*
X74105001Y-94824999D02*
X74255000Y-94675000D01*
X84915011Y-93175011D02*
X85570000Y-93830000D01*
X84915011Y-85964989D02*
X84915011Y-93175011D01*
X85085001Y-85794999D02*
X84915011Y-85964989D01*
X87974999Y-85794999D02*
X85085001Y-85794999D01*
X89100000Y-86920000D02*
X87974999Y-85794999D01*
X83805001Y-98674999D02*
X83580000Y-98900000D01*
X83805001Y-87525001D02*
X83805001Y-98674999D01*
X83380000Y-87100000D02*
X83805001Y-87525001D01*
X66630000Y-104800000D02*
X66630000Y-84600000D01*
X67280000Y-105450000D02*
X66630000Y-104800000D01*
X90225001Y-103330001D02*
X85280001Y-108275001D01*
X90225001Y-85505001D02*
X90225001Y-103330001D01*
X89100000Y-84380000D02*
X90225001Y-85505001D01*
X68041999Y-80714999D02*
X66630000Y-82126998D01*
X73960001Y-80714999D02*
X68041999Y-80714999D01*
X74025001Y-80779999D02*
X73960001Y-80714999D01*
X74025001Y-82900001D02*
X74025001Y-80779999D01*
X75165001Y-84978001D02*
X75165001Y-84040001D01*
X74788001Y-85355001D02*
X75165001Y-84978001D01*
X71005001Y-84920001D02*
X71440001Y-85355001D01*
X71545002Y-84380000D02*
X71005001Y-84920001D01*
X66630000Y-82126998D02*
X66630000Y-84600000D01*
X75165001Y-84040001D02*
X74025001Y-82900001D01*
X71440001Y-85355001D02*
X74788001Y-85355001D01*
X72900000Y-84380000D02*
X71545002Y-84380000D01*
X75165001Y-81791997D02*
X75165001Y-84040001D01*
X76328001Y-81324999D02*
X75631999Y-81324999D01*
X76705001Y-81701999D02*
X76328001Y-81324999D01*
X76705001Y-85514999D02*
X76705001Y-81701999D01*
X76985001Y-85794999D02*
X76705001Y-85514999D01*
X78230003Y-85794999D02*
X76985001Y-85794999D01*
X79105001Y-81549997D02*
X79105001Y-84920001D01*
X79939999Y-80714999D02*
X79105001Y-81549997D01*
X75631999Y-81324999D02*
X75165001Y-81791997D01*
X79105001Y-84920001D02*
X78230003Y-85794999D01*
X82060001Y-80714999D02*
X79939999Y-80714999D01*
X82125001Y-80779999D02*
X82060001Y-80714999D01*
X82125001Y-83254999D02*
X82125001Y-80779999D01*
X81000000Y-84380000D02*
X82125001Y-83254999D01*
X79279999Y-90949999D02*
X77990000Y-89660000D01*
X79279999Y-94100001D02*
X79279999Y-90949999D01*
X78880000Y-94500000D02*
X79279999Y-94100001D01*
X95305001Y-98886411D02*
X95305001Y-90585001D01*
X85466402Y-108725010D02*
X95305001Y-98886411D01*
X95305001Y-90585001D02*
X94180000Y-89460000D01*
X77602929Y-108725010D02*
X85466402Y-108725010D01*
X75620000Y-106742081D02*
X77602929Y-108725010D01*
X75620000Y-105540000D02*
X75620000Y-106742081D01*
X66130000Y-90980000D02*
X64810000Y-89660000D01*
X89100000Y-88980000D02*
X89100000Y-89460000D01*
X87620000Y-87500000D02*
X89100000Y-88980000D01*
X75620000Y-99310000D02*
X75680000Y-99250000D01*
X75620000Y-103000000D02*
X75620000Y-99310000D01*
X66130000Y-99025000D02*
X65905000Y-99250000D01*
X66130000Y-90980000D02*
X66130000Y-99025000D01*
X75980000Y-82050000D02*
X75980000Y-92150000D01*
X76030000Y-92200000D02*
X77990000Y-92200000D01*
X75980000Y-92150000D02*
X76030000Y-92200000D01*
X78660009Y-105253599D02*
X78660009Y-105626401D01*
X76984999Y-103578589D02*
X78660009Y-105253599D01*
X76984999Y-102435999D02*
X76984999Y-103578589D01*
X77980000Y-101440998D02*
X76984999Y-102435999D01*
X78660009Y-105626401D02*
X78453205Y-105833205D01*
X77980000Y-92000000D02*
X77980000Y-101440998D01*
X77980000Y-105670000D02*
X78210000Y-105440000D01*
X77990000Y-102680000D02*
X78210000Y-102900000D01*
X64810000Y-107470000D02*
X64780000Y-107500000D01*
X64810000Y-92200000D02*
X64810000Y-107470000D01*
X86310000Y-94790000D02*
X85250000Y-94790000D01*
X89100000Y-92000000D02*
X86310000Y-94790000D01*
X81210000Y-92210000D02*
X81000000Y-92000000D01*
X81210000Y-94310000D02*
X81210000Y-92210000D01*
X81000000Y-94070000D02*
X81000000Y-92000000D01*
X80150000Y-94920000D02*
X81000000Y-94070000D01*
X72900000Y-95250000D02*
X72734999Y-95415001D01*
X72900000Y-92000000D02*
X72900000Y-95250000D01*
X78854999Y-96215001D02*
X80150000Y-94920000D01*
X78854999Y-102305001D02*
X78854999Y-96215001D01*
X78160000Y-103000000D02*
X78854999Y-102305001D01*
X83030000Y-97650000D02*
X83080000Y-97700000D01*
X83030000Y-92250000D02*
X83030000Y-97650000D01*
X81875001Y-104364999D02*
X80700000Y-105540000D01*
X81875001Y-98745001D02*
X81875001Y-104364999D01*
X80830000Y-97700000D02*
X81875001Y-98745001D01*
X81550001Y-88245001D02*
X83030000Y-89725000D01*
X83030000Y-89725000D02*
X83030000Y-92250000D01*
X79555011Y-87330013D02*
X80469999Y-88245001D01*
X79555011Y-83574989D02*
X79555011Y-87330013D01*
X79884999Y-83245001D02*
X79555011Y-83574989D01*
X80469999Y-88245001D02*
X81550001Y-88245001D01*
X79884999Y-83165001D02*
X79884999Y-83245001D01*
X81010000Y-82040000D02*
X79884999Y-83165001D01*
X80830000Y-102820000D02*
X80750000Y-102900000D01*
X79574999Y-96555001D02*
X79580000Y-96550000D01*
X71430000Y-88660000D02*
X69890000Y-87120000D01*
X71430000Y-96550000D02*
X71430000Y-88660000D01*
X74780000Y-91586410D02*
X76830000Y-93636410D01*
X76830000Y-93636410D02*
X76830000Y-96550000D01*
X74780000Y-87350000D02*
X74780000Y-91586410D01*
X79580000Y-101880000D02*
X80700000Y-103000000D01*
X79580000Y-96550000D02*
X79580000Y-101880000D01*
X91480000Y-92200000D02*
X91480000Y-81900000D01*
X89250000Y-81900000D02*
X89110000Y-82040000D01*
X91480000Y-81900000D02*
X89250000Y-81900000D01*
X91480000Y-98850000D02*
X91480000Y-92200000D01*
X91080000Y-99250000D02*
X91480000Y-98850000D01*
X82064999Y-106715001D02*
X83240000Y-105540000D01*
X80135999Y-106715001D02*
X82064999Y-106715001D01*
X79524999Y-106104001D02*
X80135999Y-106715001D01*
X74440000Y-84254998D02*
X74440000Y-84630000D01*
X73440001Y-83254999D02*
X74440000Y-84254998D01*
X71005001Y-83254999D02*
X73440001Y-83254999D01*
X69880000Y-84380000D02*
X71005001Y-83254999D01*
X84465001Y-101774999D02*
X83240000Y-103000000D01*
X84465001Y-85035001D02*
X84465001Y-101774999D01*
X83780000Y-84350000D02*
X84465001Y-85035001D01*
X69890000Y-100860000D02*
X69930000Y-100900000D01*
X69890000Y-92200000D02*
X69890000Y-100860000D01*
X67680000Y-82150000D02*
X67680000Y-92200000D01*
X86395685Y-101000000D02*
X85830000Y-101000000D01*
X86955001Y-101559316D02*
X86395685Y-101000000D01*
X86955001Y-104364999D02*
X86955001Y-101559316D01*
X85780000Y-105540000D02*
X86955001Y-104364999D01*
X68405001Y-83524999D02*
X69890000Y-82040000D01*
X68405001Y-103824999D02*
X68405001Y-83524999D01*
X67930000Y-104300000D02*
X68405001Y-103824999D01*
X85104999Y-98475001D02*
X88730000Y-94850000D01*
X85104999Y-102324999D02*
X85104999Y-98475001D01*
X85780000Y-103000000D02*
X85104999Y-102324999D01*
%TO.N,+5VL*%
X161875000Y-134755000D02*
X161954000Y-134676000D01*
D38*
X137647499Y-129982501D02*
X139800000Y-127830000D01*
X138575001Y-136537503D02*
X137647499Y-135610001D01*
X137647499Y-135610001D02*
X137647499Y-129982501D01*
X138575001Y-145824999D02*
X138575001Y-136537503D01*
X133350000Y-151050000D02*
X138575001Y-145824999D01*
X134670000Y-149730000D02*
X133350000Y-151050000D01*
X134670000Y-146300000D02*
X134670000Y-149730000D01*
X115488399Y-106579999D02*
X113250000Y-108818398D01*
X119391601Y-106579999D02*
X115488399Y-106579999D01*
X123422001Y-102549599D02*
X119391601Y-106579999D01*
X113250000Y-108818398D02*
X113250000Y-126150000D01*
X123422001Y-100494003D02*
X123422001Y-102549599D01*
X121349999Y-98422001D02*
X123422001Y-100494003D01*
X125750000Y-92677998D02*
X121349999Y-97077999D01*
X121349999Y-97077999D02*
X121349999Y-98422001D01*
X125750000Y-87750000D02*
X125750000Y-92677998D01*
X184350000Y-139425000D02*
X184350000Y-134100000D01*
X194400000Y-107950000D02*
X194575000Y-108125000D01*
X198500000Y-107950000D02*
X198500000Y-125950000D01*
X183639149Y-140135851D02*
X182937500Y-140837500D01*
X185885851Y-140135851D02*
X183639149Y-140135851D01*
X182937500Y-140837500D02*
X184350000Y-139425000D01*
X182025000Y-141750000D02*
X182937500Y-140837500D01*
X188500000Y-148225000D02*
X188500000Y-153300000D01*
X182025000Y-141750000D02*
X188500000Y-148225000D01*
X161250000Y-135380000D02*
X161954000Y-134676000D01*
X161250000Y-153300000D02*
X161250000Y-135380000D01*
D37*
%TO.N,_chA*%
X189150000Y-111410000D02*
X191250000Y-109310000D01*
X189150000Y-138475000D02*
X189150000Y-111410000D01*
X191560000Y-109310000D02*
X191250000Y-109310000D01*
X194300000Y-112050000D02*
X191560000Y-109310000D01*
%TO.N,+12V*%
X115124999Y-139949999D02*
X115350000Y-140175000D01*
D38*
X128650000Y-87700000D02*
X128650000Y-97860000D01*
X134780010Y-98230010D02*
X133025000Y-96475000D01*
X134780010Y-116030010D02*
X134780010Y-98230010D01*
X139800000Y-121050000D02*
X134780010Y-116030010D01*
X139800000Y-122750000D02*
X139800000Y-121050000D01*
X137182998Y-122750000D02*
X139800000Y-122750000D01*
X132900000Y-127032998D02*
X137182998Y-122750000D01*
X132900000Y-128850000D02*
X132900000Y-127032998D01*
X113600000Y-138425000D02*
X115350000Y-140175000D01*
X113600000Y-133150000D02*
X113600000Y-138425000D01*
X116421849Y-133078151D02*
X116350000Y-133150000D01*
X116421849Y-131501993D02*
X116421849Y-133078151D01*
D37*
%TO.N,Net-(D1-Pad2)*%
X123375000Y-139770000D02*
X122970000Y-140175000D01*
X123375000Y-136150000D02*
X123375000Y-139770000D01*
%TO.N,_ones*%
X180499999Y-118430001D02*
X176300000Y-122630000D01*
X180499999Y-82949999D02*
X180499999Y-118430001D01*
X180100000Y-82550000D02*
X180499999Y-82949999D01*
X179550001Y-123075001D02*
X179400000Y-122925000D01*
X179374999Y-130698001D02*
X179374999Y-128323003D01*
X179550001Y-128148001D02*
X179550001Y-123075001D01*
X179374999Y-128323003D02*
X179550001Y-128148001D01*
X180025000Y-131348002D02*
X179374999Y-130698001D01*
X180025000Y-135250000D02*
X180025000Y-131348002D01*
%TO.N,_onesBoard*%
X146615994Y-112234990D02*
X149400000Y-115018996D01*
X145150000Y-112234990D02*
X146615994Y-112234990D01*
X144224990Y-111309980D02*
X145150000Y-112234990D01*
X149400000Y-115018996D02*
X149400000Y-117000000D01*
X143550000Y-84910000D02*
X143550000Y-87450000D01*
X144725001Y-88625001D02*
X143550000Y-87450000D01*
X144725001Y-103240001D02*
X144725001Y-88625001D01*
X144224990Y-103740012D02*
X144725001Y-103240001D01*
X144224990Y-111309980D02*
X144224990Y-103740012D01*
%TO.N,ones33*%
X136450000Y-86720000D02*
X141600000Y-91870000D01*
X136450000Y-84450000D02*
X136450000Y-86720000D01*
X141600000Y-87775000D02*
X141500000Y-87675000D01*
X141600000Y-91870000D02*
X141600000Y-87775000D01*
%TO.N,+3V3*%
X190800000Y-139300998D02*
X190800000Y-143000000D01*
X192099999Y-138000999D02*
X190800000Y-139300998D01*
X192099999Y-135559999D02*
X192099999Y-138000999D01*
X191250000Y-134710000D02*
X192099999Y-135559999D01*
X190800000Y-143000000D02*
X190800000Y-153160000D01*
%TO.N,_thousandsBoard*%
X198600000Y-129350000D02*
X198600000Y-131890000D01*
%TO.N,thousands33*%
X195675000Y-128965000D02*
X196060000Y-129350000D01*
X195675000Y-127125000D02*
X195675000Y-128965000D01*
X203125001Y-127074999D02*
X201700000Y-128500000D01*
X203125001Y-105407999D02*
X203125001Y-127074999D01*
X201992001Y-104274999D02*
X203125001Y-105407999D01*
X201404008Y-104274999D02*
X201992001Y-104274999D01*
X194797347Y-97668338D02*
X201404008Y-104274999D01*
X194797347Y-97102653D02*
X194797347Y-97668338D01*
%TO.N,_thousands*%
X178850000Y-131725000D02*
X178850000Y-127725000D01*
X178850000Y-127775000D02*
X178825000Y-127800000D01*
X178850000Y-127725000D02*
X178850000Y-127775000D01*
X167025000Y-137700000D02*
X166950000Y-137775000D01*
X167025000Y-131725000D02*
X167025000Y-137700000D01*
X156550000Y-137050998D02*
X156550000Y-137675000D01*
X153664001Y-134164999D02*
X156550000Y-137050998D01*
X151735001Y-133720003D02*
X152179997Y-134164999D01*
X145600010Y-103599006D02*
X151735001Y-109733997D01*
X145600010Y-99197992D02*
X145600010Y-103599006D01*
X152179997Y-134164999D02*
X153664001Y-134164999D01*
X151735001Y-109733997D02*
X151735001Y-133720003D01*
X147662346Y-97135656D02*
X145600010Y-99197992D01*
X147662346Y-83112346D02*
X147662346Y-97135656D01*
X147262347Y-82712347D02*
X147662346Y-83112346D01*
%TO.N,_tensBoard*%
X178300000Y-101850000D02*
X178300000Y-119075000D01*
X179725000Y-100425000D02*
X178300000Y-101850000D01*
X167950000Y-120050000D02*
X167950000Y-133875000D01*
X169025000Y-118975000D02*
X167950000Y-120050000D01*
%TO.N,_tens*%
X149650000Y-136250000D02*
X150560000Y-135340000D01*
X149650000Y-142500000D02*
X149650000Y-136250000D01*
X174774990Y-119075010D02*
X176300000Y-117550000D01*
X174774990Y-131309992D02*
X174774990Y-119075010D01*
X176350000Y-132885002D02*
X174774990Y-131309992D01*
X176350000Y-144250001D02*
X176350000Y-132885002D01*
X149384999Y-129015001D02*
X149475000Y-128925000D01*
X149384999Y-134164999D02*
X149384999Y-129015001D01*
X150560000Y-135340000D02*
X149384999Y-134164999D01*
%TO.N,_hundreds*%
X174900001Y-87649999D02*
X174900001Y-88925001D01*
X174900001Y-88925001D02*
X177100000Y-91125000D01*
X175600000Y-86950000D02*
X174900001Y-87649999D01*
X185500000Y-113430000D02*
X183920000Y-115010000D01*
X185500000Y-91425000D02*
X185500000Y-113430000D01*
X182000000Y-116930000D02*
X183920000Y-115010000D01*
X182000000Y-126350000D02*
X182000000Y-116930000D01*
%TO.N,_hundredsBoard*%
X172500000Y-85100000D02*
X172500000Y-87640000D01*
X181325000Y-91925000D02*
X181400000Y-91850000D01*
X181325000Y-102075000D02*
X181325000Y-91925000D01*
X172375000Y-87765000D02*
X172500000Y-87640000D01*
X172375000Y-91825000D02*
X172375000Y-87765000D01*
%TO.N,hundreds33*%
X183250000Y-86920000D02*
X183220000Y-86950000D01*
X183250000Y-84350000D02*
X183250000Y-86920000D01*
%TO.N,_mode*%
X194500000Y-95780000D02*
X196400000Y-97680000D01*
X194500000Y-90000000D02*
X194500000Y-95780000D01*
X194072346Y-90427654D02*
X194500000Y-90000000D01*
X194072346Y-104489348D02*
X194072346Y-90427654D01*
X196175011Y-106592013D02*
X194072346Y-104489348D01*
X196175011Y-125551987D02*
X196175011Y-106592013D01*
X194266693Y-127460305D02*
X196175011Y-125551987D01*
X194266693Y-128591999D02*
X194266693Y-127460305D01*
%TO.N,_dpBoard*%
X155225000Y-103875000D02*
X155225000Y-127125000D01*
X155625000Y-103475000D02*
X155225000Y-103875000D01*
X151424999Y-98835001D02*
X149360000Y-100900000D01*
X151424999Y-94335001D02*
X151424999Y-98835001D01*
X152600000Y-93160000D02*
X151424999Y-94335001D01*
%TO.N,_zero*%
X187000000Y-149370000D02*
X178180000Y-140550000D01*
X163175000Y-125737000D02*
X161954000Y-124516000D01*
X163175000Y-140275000D02*
X163175000Y-125737000D01*
%TO.N,_a1*%
X150875000Y-121000000D02*
X150825000Y-120950000D01*
X150875000Y-126300000D02*
X150875000Y-121000000D01*
X170300000Y-132500000D02*
X172670000Y-130130000D01*
X170300000Y-135125000D02*
X170300000Y-132500000D01*
X173325000Y-129200000D02*
X173325000Y-129475000D01*
X173325000Y-129475000D02*
X172670000Y-130130000D01*
X173475000Y-129050000D02*
X173325000Y-129200000D01*
X173475000Y-128900000D02*
X173475000Y-129050000D01*
X173575000Y-128676004D02*
X173575000Y-128800000D01*
X174195010Y-128055994D02*
X173575000Y-128676004D01*
X174195010Y-124584006D02*
X174195010Y-128055994D01*
X173575000Y-128800000D02*
X173475000Y-128900000D01*
X170409305Y-123924990D02*
X173535994Y-123924990D01*
X170000000Y-123515685D02*
X170409305Y-123924990D01*
X173535994Y-123924990D02*
X174195010Y-124584006D01*
X170000000Y-122950000D02*
X170000000Y-123515685D01*
X170000000Y-121375000D02*
X170050000Y-121325000D01*
X170000000Y-122950000D02*
X170000000Y-121375000D01*
%TO.N,_a2*%
X170575000Y-125050000D02*
X170575000Y-129875000D01*
X156025000Y-117645000D02*
X157850000Y-119470000D01*
X156025000Y-116025000D02*
X156025000Y-117645000D01*
X150975000Y-119600000D02*
X150975000Y-115850000D01*
X149450000Y-121125000D02*
X150975000Y-119600000D01*
X163375000Y-121788238D02*
X163375000Y-123850000D01*
X161954000Y-120367238D02*
X163375000Y-121788238D01*
X161954000Y-119436000D02*
X161954000Y-120367238D01*
%TO.N,_clk*%
X168850000Y-106025000D02*
X168850000Y-112225000D01*
%TO.N,_config*%
X116500000Y-96380000D02*
X115130000Y-97750000D01*
X116500000Y-90000000D02*
X116500000Y-96380000D01*
%TO.N,_a4*%
X172675000Y-114885000D02*
X172670000Y-114890000D01*
X147800000Y-110775000D02*
X147750000Y-110825000D01*
X147800000Y-107350000D02*
X147800000Y-110775000D01*
X153370000Y-103605000D02*
X154550000Y-102425000D01*
X153370000Y-105740000D02*
X153370000Y-103605000D01*
X170675000Y-112895000D02*
X172670000Y-114890000D01*
X170675000Y-103825000D02*
X170675000Y-112895000D01*
X173900000Y-113660000D02*
X172670000Y-114890000D01*
X173900000Y-112314990D02*
X173900000Y-113660000D01*
%TO.N,_a3*%
X167125000Y-122975000D02*
X165050000Y-125050000D01*
X167125000Y-114700000D02*
X167125000Y-122975000D01*
X169250000Y-120350000D02*
X169250000Y-125350000D01*
X169725000Y-119875000D02*
X169250000Y-120350000D01*
X147575001Y-117725001D02*
X145750000Y-115900000D01*
X149748001Y-117725001D02*
X147575001Y-117725001D01*
X150125001Y-117348001D02*
X149748001Y-117725001D01*
X150125001Y-111900001D02*
X150125001Y-117348001D01*
X149250000Y-111025000D02*
X150125001Y-111900001D01*
X156225000Y-114400000D02*
X156250000Y-114425000D01*
X156225000Y-111275000D02*
X156225000Y-114400000D01*
%TO.N,_save*%
X182312000Y-134130000D02*
X182025000Y-134130000D01*
X186846000Y-129596000D02*
X182312000Y-134130000D01*
X182025000Y-139525000D02*
X181950000Y-139600000D01*
X182025000Y-134130000D02*
X182025000Y-139525000D01*
X137475000Y-139225000D02*
X137475000Y-143550000D01*
X137265000Y-143760000D02*
X134670000Y-143760000D01*
X137475000Y-143550000D02*
X137265000Y-143760000D01*
%TO.N,a*%
X119527236Y-108000000D02*
X118710000Y-108000000D01*
X123263618Y-104263618D02*
X119527236Y-108000000D01*
%TO.N,_a*%
X163984006Y-94734990D02*
X159875000Y-98843996D01*
X167436988Y-94734990D02*
X163984006Y-94734990D01*
X167801999Y-95100001D02*
X167436988Y-94734990D01*
X159875000Y-98843996D02*
X159875000Y-110550000D01*
X168498001Y-95100001D02*
X167801999Y-95100001D01*
X168875001Y-94723001D02*
X168498001Y-95100001D01*
X168875001Y-89225001D02*
X168875001Y-94723001D01*
X164650000Y-85000000D02*
X168875001Y-89225001D01*
%TO.N,b*%
X124635001Y-109324999D02*
X118710000Y-115250000D01*
X126865001Y-109324999D02*
X124635001Y-109324999D01*
X129340000Y-106850000D02*
X126865001Y-109324999D01*
X129340000Y-109015000D02*
X129350000Y-109025000D01*
X129340000Y-106850000D02*
X129340000Y-109015000D01*
%TO.N,_b*%
X120204999Y-116295001D02*
X121250000Y-115250000D01*
X118208399Y-116295001D02*
X120204999Y-116295001D01*
X117664999Y-115751601D02*
X118208399Y-116295001D01*
X125563398Y-106850000D02*
X117664999Y-114748399D01*
X117664999Y-114748399D02*
X117664999Y-115751601D01*
X126800000Y-106850000D02*
X125563398Y-106850000D01*
X128100000Y-105550000D02*
X126800000Y-106850000D01*
X128100000Y-99900010D02*
X128100000Y-105550000D01*
X160595001Y-96279989D02*
X160149990Y-96725000D01*
X160595001Y-86314999D02*
X160595001Y-96279989D01*
X161960000Y-84950000D02*
X160595001Y-86314999D01*
%TO.N,_c*%
X121250000Y-118950000D02*
X121250000Y-122500000D01*
X125750000Y-114450000D02*
X121250000Y-118950000D01*
X135424999Y-86331409D02*
X135424999Y-83175001D01*
X137250000Y-88156410D02*
X135424999Y-86331409D01*
X135424999Y-83175001D02*
X135475000Y-83125000D01*
X137250000Y-115875000D02*
X137250000Y-88156410D01*
X159625000Y-84945000D02*
X159570000Y-85000000D01*
X159625000Y-81575000D02*
X159625000Y-84945000D01*
%TO.N,c*%
X122295001Y-123001601D02*
X121751601Y-123545001D01*
X122295001Y-119419997D02*
X122295001Y-123001601D01*
X124539999Y-117174999D02*
X122295001Y-119419997D01*
X125565001Y-117174999D02*
X124539999Y-117174999D01*
X119755001Y-123545001D02*
X118710000Y-122500000D01*
X121751601Y-123545001D02*
X119755001Y-123545001D01*
X128290000Y-114450000D02*
X125565001Y-117174999D01*
%TO.N,_d*%
X121250000Y-125464998D02*
X121250000Y-129750000D01*
X125650000Y-118350000D02*
X125650000Y-121064998D01*
X111750000Y-91194998D02*
X111750000Y-118300000D01*
X116444998Y-86500000D02*
X111750000Y-91194998D01*
X124075000Y-86500000D02*
X116444998Y-86500000D01*
X125650000Y-121064998D02*
X125014998Y-121064998D01*
X121250000Y-124829996D02*
X121250000Y-125464998D01*
X125014998Y-121064998D02*
X121250000Y-124829996D01*
%TO.N,d*%
X131800000Y-114740000D02*
X128190000Y-118350000D01*
X132880000Y-114740000D02*
X131800000Y-114740000D01*
X128190000Y-120685000D02*
X125225001Y-123649999D01*
X128190000Y-118350000D02*
X128190000Y-120685000D01*
X125550000Y-123974998D02*
X125225001Y-123649999D01*
X125550000Y-129350000D02*
X125550000Y-123974998D01*
%TO.N,_e*%
X128375001Y-129649999D02*
X137425000Y-120600000D01*
X128375001Y-133124999D02*
X128375001Y-129649999D01*
X127200000Y-134300000D02*
X128375001Y-133124999D01*
X142474999Y-99659999D02*
X143059999Y-99074999D01*
X142950000Y-120775000D02*
X142474999Y-120299999D01*
X154350000Y-84860000D02*
X154490000Y-85000000D01*
X153775999Y-99774000D02*
X153750000Y-99799999D01*
X153775999Y-88665001D02*
X153775999Y-99774000D01*
X153164999Y-88054001D02*
X153775999Y-88665001D01*
X153164999Y-86125001D02*
X153164999Y-88054001D01*
X154340000Y-84950000D02*
X153164999Y-86125001D01*
X150920648Y-103425954D02*
X146774046Y-103425954D01*
X153775999Y-100570603D02*
X150920648Y-103425954D01*
X153775999Y-99774000D02*
X153775999Y-100570603D01*
X142474999Y-106625001D02*
X142474999Y-99659999D01*
X142474999Y-120299999D02*
X142474999Y-106625001D01*
%TO.N,e*%
X127174999Y-131734999D02*
X127200000Y-131760000D01*
X127174999Y-122985001D02*
X127174999Y-131734999D01*
X132880000Y-117280000D02*
X127174999Y-122985001D01*
%TO.N,_f*%
X145900000Y-91050000D02*
X145900000Y-97825000D01*
X126800000Y-101950000D02*
X126850000Y-102000000D01*
X126800000Y-99150000D02*
X126800000Y-101950000D01*
X150435001Y-88054001D02*
X148489002Y-90000000D01*
X150435001Y-86314999D02*
X150435001Y-88054001D01*
X151800000Y-84950000D02*
X150435001Y-86314999D01*
X148489002Y-89939002D02*
X148450000Y-89900000D01*
X148489002Y-90000000D02*
X148489002Y-89939002D01*
X145900000Y-90000000D02*
X145900000Y-91050000D01*
%TO.N,g*%
X131000000Y-102700000D02*
X132880000Y-104580000D01*
X132460999Y-95299999D02*
X131000000Y-96760998D01*
X133825001Y-95299999D02*
X132460999Y-95299999D01*
X134645001Y-94479999D02*
X133825001Y-95299999D01*
X134645001Y-92505001D02*
X134645001Y-94479999D01*
X131000000Y-96760998D02*
X131000000Y-102700000D01*
X133600000Y-91460000D02*
X134645001Y-92505001D01*
%TO.N,_g*%
X151950000Y-92070998D02*
X149100000Y-94920998D01*
X149100000Y-94920998D02*
X149100000Y-95700000D01*
X151950000Y-87540000D02*
X151950000Y-92070998D01*
%TO.N,_dp*%
X154490000Y-95565000D02*
X154625000Y-95700000D01*
X154490000Y-87540000D02*
X154490000Y-95565000D01*
X152600000Y-100200000D02*
X151900000Y-100900000D01*
X152600000Y-95700000D02*
X152600000Y-100200000D01*
%TO.N,+5VP*%
X176550000Y-150930000D02*
X175980000Y-151500000D01*
X176550000Y-146350000D02*
X176550000Y-150930000D01*
X172670000Y-142470000D02*
X176550000Y-146350000D01*
X172670000Y-137750000D02*
X172670000Y-142470000D01*
%TO.N,Net-(J19-Pad2)*%
X179210000Y-99115000D02*
X178850000Y-99475000D01*
X179210000Y-88900000D02*
X179210000Y-99115000D01*
%TO.N,thousands*%
X188275000Y-92650000D02*
X188275000Y-110600000D01*
X186375000Y-90750000D02*
X188275000Y-92650000D01*
%TO.N,hundreds*%
X182050000Y-101610000D02*
X182050000Y-92618222D01*
X183920000Y-103480000D02*
X182050000Y-101610000D01*
X162110000Y-88335000D02*
X162110000Y-87540000D01*
X168150000Y-94375000D02*
X162110000Y-88335000D01*
%TO.N,tens*%
X159424990Y-105250010D02*
X159000000Y-105675000D01*
X159424990Y-87685010D02*
X159424990Y-105250010D01*
X159570000Y-87540000D02*
X159424990Y-87685010D01*
%TO.N,ones*%
X156400000Y-88170000D02*
X157030000Y-87540000D01*
X156400000Y-108050000D02*
X156400000Y-88170000D01*
%TO.N,+g*%
X72820000Y-132020000D02*
X73945001Y-133145001D01*
X73945001Y-139924999D02*
X74025001Y-139924999D01*
X73945001Y-133145001D02*
X73945001Y-139924999D01*
X74175001Y-149464999D02*
X74175001Y-139775001D01*
X73000000Y-150640000D02*
X74175001Y-149464999D01*
X74175000Y-139775000D02*
X75420000Y-138530000D01*
X74175001Y-139775001D02*
X74175000Y-139775000D01*
X74025001Y-139924999D02*
X74175000Y-139775000D01*
X84835011Y-138275011D02*
X85490000Y-138930000D01*
X84835011Y-131064989D02*
X84835011Y-138275011D01*
X85005001Y-130894999D02*
X84835011Y-131064989D01*
X87894999Y-130894999D02*
X85005001Y-130894999D01*
X89020000Y-132020000D02*
X87894999Y-130894999D01*
X83725001Y-143774999D02*
X83500000Y-144000000D01*
X83725001Y-132625001D02*
X83725001Y-143774999D01*
X83300000Y-132200000D02*
X83725001Y-132625001D01*
%TO.N,+f*%
X66550000Y-149900000D02*
X66550000Y-129700000D01*
X67200000Y-150550000D02*
X66550000Y-149900000D01*
X90145001Y-148430001D02*
X85200001Y-153375001D01*
X90145001Y-130605001D02*
X90145001Y-148430001D01*
X89020000Y-129480000D02*
X90145001Y-130605001D01*
X67961999Y-125814999D02*
X66550000Y-127226998D01*
X73880001Y-125814999D02*
X67961999Y-125814999D01*
X73945001Y-125879999D02*
X73880001Y-125814999D01*
X73945001Y-128000001D02*
X73945001Y-125879999D01*
X75085001Y-130078001D02*
X75085001Y-129140001D01*
X74708001Y-130455001D02*
X75085001Y-130078001D01*
X70925001Y-130020001D02*
X71360001Y-130455001D01*
X71465002Y-129480000D02*
X70925001Y-130020001D01*
X66550000Y-127226998D02*
X66550000Y-129700000D01*
X75085001Y-129140001D02*
X73945001Y-128000001D01*
X71360001Y-130455001D02*
X74708001Y-130455001D01*
X72820000Y-129480000D02*
X71465002Y-129480000D01*
X75085001Y-126891997D02*
X75085001Y-129140001D01*
X76248001Y-126424999D02*
X75551999Y-126424999D01*
X76625001Y-126801999D02*
X76248001Y-126424999D01*
X76625001Y-130614999D02*
X76625001Y-126801999D01*
X76905001Y-130894999D02*
X76625001Y-130614999D01*
X78150003Y-130894999D02*
X76905001Y-130894999D01*
X79025001Y-126649997D02*
X79025001Y-130020001D01*
X79859999Y-125814999D02*
X79025001Y-126649997D01*
X75551999Y-126424999D02*
X75085001Y-126891997D01*
X79025001Y-130020001D02*
X78150003Y-130894999D01*
X81980001Y-125814999D02*
X79859999Y-125814999D01*
X82045001Y-125879999D02*
X81980001Y-125814999D01*
X82045001Y-128354999D02*
X82045001Y-125879999D01*
X80920000Y-129480000D02*
X82045001Y-128354999D01*
%TO.N,+dp*%
X79199999Y-136049999D02*
X77910000Y-134760000D01*
X79199999Y-139200001D02*
X79199999Y-136049999D01*
X78800000Y-139600000D02*
X79199999Y-139200001D01*
X95225001Y-143986411D02*
X95225001Y-135685001D01*
X85386402Y-153825010D02*
X95225001Y-143986411D01*
X95225001Y-135685001D02*
X94100000Y-134560000D01*
X77522929Y-153825010D02*
X85386402Y-153825010D01*
X75540000Y-151842081D02*
X77522929Y-153825010D01*
X75540000Y-150640000D02*
X75540000Y-151842081D01*
%TO.N,+e*%
X66050000Y-136080000D02*
X64730000Y-134760000D01*
X89020000Y-134080000D02*
X89020000Y-134560000D01*
X87540000Y-132600000D02*
X89020000Y-134080000D01*
X75540000Y-144410000D02*
X75600000Y-144350000D01*
X75540000Y-148100000D02*
X75540000Y-144410000D01*
X66050000Y-144125000D02*
X65825000Y-144350000D01*
X66050000Y-136080000D02*
X66050000Y-144125000D01*
%TO.N,+ones*%
X75900000Y-127150000D02*
X75900000Y-137250000D01*
X75950000Y-137300000D02*
X77910000Y-137300000D01*
X75900000Y-137250000D02*
X75950000Y-137300000D01*
X78580009Y-150353599D02*
X78580009Y-150726401D01*
X76904999Y-148678589D02*
X78580009Y-150353599D01*
X76904999Y-147535999D02*
X76904999Y-148678589D01*
X77900000Y-146540998D02*
X76904999Y-147535999D01*
X78580009Y-150726401D02*
X78373205Y-150933205D01*
X77900000Y-137100000D02*
X77900000Y-146540998D01*
X77900000Y-150770000D02*
X78130000Y-150540000D01*
%TO.N,+d*%
X77910000Y-147780000D02*
X78130000Y-148000000D01*
X64730000Y-152570000D02*
X64700000Y-152600000D01*
X64730000Y-137300000D02*
X64730000Y-152570000D01*
X86230000Y-139890000D02*
X85170000Y-139890000D01*
X89020000Y-137100000D02*
X86230000Y-139890000D01*
X81130000Y-137310000D02*
X80920000Y-137100000D01*
X81130000Y-139410000D02*
X81130000Y-137310000D01*
X80920000Y-139170000D02*
X80920000Y-137100000D01*
X80070000Y-140020000D02*
X80920000Y-139170000D01*
X72820000Y-140350000D02*
X72654999Y-140515001D01*
X72820000Y-137100000D02*
X72820000Y-140350000D01*
X78774999Y-141315001D02*
X80070000Y-140020000D01*
X78774999Y-147405001D02*
X78774999Y-141315001D01*
X78080000Y-148100000D02*
X78774999Y-147405001D01*
%TO.N,+tens*%
X82950000Y-142750000D02*
X83000000Y-142800000D01*
X82950000Y-137350000D02*
X82950000Y-142750000D01*
X81795001Y-149464999D02*
X80620000Y-150640000D01*
X81795001Y-143845001D02*
X81795001Y-149464999D01*
X80750000Y-142800000D02*
X81795001Y-143845001D01*
X81470001Y-133345001D02*
X82950000Y-134825000D01*
X82950000Y-134825000D02*
X82950000Y-137350000D01*
X79475011Y-132430013D02*
X80389999Y-133345001D01*
X79475011Y-128674989D02*
X79475011Y-132430013D01*
X79804999Y-128345001D02*
X79475011Y-128674989D01*
X80389999Y-133345001D02*
X81470001Y-133345001D01*
X79804999Y-128265001D02*
X79804999Y-128345001D01*
X80930000Y-127140000D02*
X79804999Y-128265001D01*
%TO.N,+c*%
X80750000Y-147920000D02*
X80670000Y-148000000D01*
X79494999Y-141655001D02*
X79500000Y-141650000D01*
X71350000Y-133760000D02*
X69810000Y-132220000D01*
X71350000Y-141650000D02*
X71350000Y-133760000D01*
X74700000Y-136686410D02*
X76750000Y-138736410D01*
X76750000Y-138736410D02*
X76750000Y-141650000D01*
X74700000Y-132450000D02*
X74700000Y-136686410D01*
X79500000Y-146980000D02*
X80620000Y-148100000D01*
X79500000Y-141650000D02*
X79500000Y-146980000D01*
%TO.N,+hundreds*%
X91400000Y-137300000D02*
X91400000Y-127000000D01*
X89170000Y-127000000D02*
X89030000Y-127140000D01*
X91400000Y-127000000D02*
X89170000Y-127000000D01*
X91400000Y-143950000D02*
X91400000Y-137300000D01*
X91000000Y-144350000D02*
X91400000Y-143950000D01*
X81984999Y-151815001D02*
X83160000Y-150640000D01*
X80055999Y-151815001D02*
X81984999Y-151815001D01*
X79444999Y-151204001D02*
X80055999Y-151815001D01*
%TO.N,+b*%
X74360000Y-129354998D02*
X74360000Y-129730000D01*
X73360001Y-128354999D02*
X74360000Y-129354998D01*
X70925001Y-128354999D02*
X73360001Y-128354999D01*
X69800000Y-129480000D02*
X70925001Y-128354999D01*
X84385001Y-146874999D02*
X83160000Y-148100000D01*
X84385001Y-130135001D02*
X84385001Y-146874999D01*
X83700000Y-129450000D02*
X84385001Y-130135001D01*
%TO.N,+thousands*%
X69810000Y-145960000D02*
X69850000Y-146000000D01*
X69810000Y-137300000D02*
X69810000Y-145960000D01*
X67600000Y-127250000D02*
X67600000Y-137300000D01*
X86315685Y-146100000D02*
X85750000Y-146100000D01*
X86875001Y-146659316D02*
X86315685Y-146100000D01*
X86875001Y-149464999D02*
X86875001Y-146659316D01*
X85700000Y-150640000D02*
X86875001Y-149464999D01*
%TO.N,+a*%
X68325001Y-128624999D02*
X69810000Y-127140000D01*
X68325001Y-148924999D02*
X68325001Y-128624999D01*
X67850000Y-149400000D02*
X68325001Y-148924999D01*
X85024999Y-143575001D02*
X88650000Y-139950000D01*
X85024999Y-147424999D02*
X85024999Y-143575001D01*
X85700000Y-148100000D02*
X85024999Y-147424999D01*
%TO.N,yellow*%
X153510000Y-140890000D02*
X153550000Y-140850000D01*
X153510000Y-148000000D02*
X153510000Y-140890000D01*
%TO.N,gray*%
X200785001Y-139285999D02*
X200785001Y-144865295D01*
X199184990Y-149065010D02*
X192550000Y-155700000D01*
X199184990Y-146465306D02*
X199184990Y-149065010D01*
X200600000Y-125226602D02*
X200600000Y-139100998D01*
X200600000Y-139100998D02*
X200785001Y-139285999D01*
X199554999Y-124181601D02*
X200600000Y-125226602D01*
X199554999Y-119645001D02*
X199554999Y-124181601D01*
X200785001Y-144865295D02*
X199184990Y-146465306D01*
X200600000Y-118600000D02*
X199554999Y-119645001D01*
X148000000Y-148430000D02*
X148430000Y-148000000D01*
X148000000Y-156100000D02*
X148000000Y-148430000D01*
D38*
%TO.N,POWER-IN+*%
X121550010Y-147800010D02*
X121000000Y-147250000D01*
X135000000Y-153125000D02*
X126875000Y-153125000D01*
X141840000Y-146285000D02*
X135000000Y-153125000D01*
X126875000Y-153125000D02*
X121000000Y-147250000D01*
X141840000Y-134050000D02*
X141840000Y-146285000D01*
D37*
%TO.N,Net-(R11-Pad2)*%
X190550000Y-138200000D02*
X187000000Y-141750000D01*
X190550000Y-137150000D02*
X190550000Y-138200000D01*
X186970000Y-141720000D02*
X187000000Y-141750000D01*
X184350000Y-141720000D02*
X186970000Y-141720000D01*
%TO.N,Net-(R13-Pad2)*%
X201500000Y-107430000D02*
X202020000Y-107950000D01*
X201500000Y-105300000D02*
X201500000Y-107430000D01*
%TO.N,Net-(R16-Pad2)*%
X124850000Y-97750000D02*
X125050000Y-97550000D01*
X122750000Y-97750000D02*
X124850000Y-97750000D01*
X125050000Y-96070000D02*
X125750000Y-95370000D01*
X125050000Y-97550000D02*
X125050000Y-96070000D01*
%TO.N,Net-(RV9-Pad2)*%
X136195010Y-131945010D02*
X135400000Y-131150000D01*
X136195010Y-139694990D02*
X136195010Y-131945010D01*
X134670000Y-141220000D02*
X136195010Y-139694990D01*
%TO.N,Net-(RV10-Pad2)*%
X130810000Y-138740000D02*
X130825000Y-138725000D01*
X130810000Y-151050000D02*
X130810000Y-138740000D01*
%TO.N,/7-segmet-display/BCD_out4*%
X138525000Y-110225000D02*
X140500000Y-112200000D01*
X138525000Y-108225000D02*
X138525000Y-110225000D01*
X158414001Y-110674999D02*
X160225000Y-112485998D01*
X157249999Y-110674999D02*
X158414001Y-110674999D01*
X160225000Y-112485998D02*
X160225000Y-117825000D01*
X155950000Y-109375000D02*
X157249999Y-110674999D01*
X163524990Y-115904990D02*
X165050000Y-117430000D01*
X163524990Y-114424006D02*
X163524990Y-115904990D01*
X169004990Y-113764990D02*
X164184006Y-113764990D01*
X164184006Y-113764990D02*
X163524990Y-114424006D01*
X172670000Y-117430000D02*
X169004990Y-113764990D01*
%TO.N,/7-segmet-display/BCD_out1*%
X142950000Y-123033260D02*
X142950000Y-123575000D01*
X138974990Y-119058250D02*
X142950000Y-123033260D01*
X138974990Y-116265010D02*
X138974990Y-119058250D01*
X140500000Y-114740000D02*
X138974990Y-116265010D01*
X156050000Y-131050000D02*
X156025000Y-131075000D01*
X156050000Y-123525000D02*
X156050000Y-131050000D01*
%TO.N,/7-segmet-display/BCD_out3*%
X143218748Y-113393748D02*
X143300000Y-113475000D01*
X143218748Y-104047091D02*
X143218748Y-113393748D01*
X163074981Y-120534981D02*
X165050000Y-122510000D01*
X163074981Y-114090704D02*
X163074981Y-120534981D01*
X163250000Y-113915685D02*
X163074981Y-114090704D01*
X163250000Y-113350000D02*
X163250000Y-113915685D01*
%TO.N,/7-segmet-display/BCD_out2*%
X138150000Y-115703630D02*
X138150000Y-117775000D01*
X137799999Y-115353629D02*
X138150000Y-115703630D01*
X137799999Y-102200001D02*
X137799999Y-115353629D01*
X140500000Y-99500000D02*
X137799999Y-102200001D01*
X160300000Y-127900000D02*
X160400000Y-128000000D01*
X160300000Y-120925000D02*
X160300000Y-127900000D01*
%TO.N,Net-(U2-Pad2)*%
X179075000Y-118200000D02*
X179200000Y-118325000D01*
X179075000Y-108600000D02*
X179075000Y-118200000D01*
X176300000Y-124621004D02*
X176300000Y-125170000D01*
X179200000Y-121721004D02*
X176300000Y-124621004D01*
X179200000Y-121125000D02*
X179200000Y-121721004D01*
X166875000Y-109135000D02*
X166875000Y-113039990D01*
X166300000Y-108560000D02*
X166875000Y-109135000D01*
X164850000Y-108560000D02*
X166300000Y-108560000D01*
%TO.N,Net-(U2-Pad10)*%
X169950000Y-108525000D02*
X169900000Y-108575000D01*
X169950000Y-95875000D02*
X169950000Y-108525000D01*
%TO.N,Net-(U2-Pad3)*%
X167625000Y-106050000D02*
X167600000Y-106025000D01*
X167625000Y-110150000D02*
X167625000Y-106050000D01*
X181275000Y-129175000D02*
X181275000Y-111075000D01*
X180100000Y-130350000D02*
X181275000Y-129175000D01*
%TO.N,Net-(U2-Pad4)*%
X170675000Y-101136004D02*
X170675000Y-99950000D01*
X171604006Y-102065010D02*
X170675000Y-101136004D01*
X176876014Y-102065010D02*
X171604006Y-102065010D01*
X177825010Y-103014006D02*
X176876014Y-102065010D01*
X177825010Y-104494990D02*
X177825010Y-103014006D01*
X176300000Y-106020000D02*
X177825010Y-104494990D01*
X165195000Y-103480000D02*
X164850000Y-103480000D01*
X166875000Y-101800000D02*
X165195000Y-103480000D01*
X176300000Y-119541004D02*
X176300000Y-120090000D01*
X177825010Y-118015994D02*
X176300000Y-119541004D01*
X177825010Y-107545010D02*
X177825010Y-118015994D01*
X176300000Y-106020000D02*
X177825010Y-107545010D01*
%TO.N,Net-(U2-Pad7)*%
X174625000Y-105155000D02*
X174625000Y-116175000D01*
X176300000Y-103480000D02*
X174625000Y-105155000D01*
X167825000Y-96625000D02*
X167825000Y-102625000D01*
X167100000Y-95900000D02*
X167825000Y-96625000D01*
%TD*%
M02*
