%TF.GenerationSoftware,KiCad,Pcbnew,5.1.10-88a1d61d58~90~ubuntu20.04.1*%
%TF.CreationDate,2021-10-14T14:42:22+02:00*%
%TF.ProjectId,menelaos,6d656e65-6c61-46f7-932e-6b696361645f,rev?*%
%TF.SameCoordinates,Original*%
%TF.FileFunction,Legend,Top*%
%TF.FilePolarity,Positive*%
%FSLAX46Y46*%
G04 Gerber Fmt 4.6, Leading zero omitted, Abs format (unit mm)*
G04 Created by KiCad (PCBNEW 5.1.10-88a1d61d58~90~ubuntu20.04.1) date 2021-10-14 14:42:22*
%MOMM*%
%LPD*%
G01*
G04 APERTURE LIST*
%ADD10C,0.120000*%
%ADD11C,0.150000*%
G04 APERTURE END LIST*
D10*
%TO.C,J21*%
X69210000Y-101670000D02*
X69210000Y-106870000D01*
X84510000Y-101670000D02*
X69210000Y-101670000D01*
X87110000Y-106870000D02*
X69210000Y-106870000D01*
X84510000Y-101670000D02*
X84510000Y-104270000D01*
X84510000Y-104270000D02*
X87110000Y-104270000D01*
X87110000Y-104270000D02*
X87110000Y-106870000D01*
X85780000Y-101670000D02*
X87110000Y-101670000D01*
X87110000Y-101670000D02*
X87110000Y-103000000D01*
%TO.C,U14*%
X63170000Y-80210000D02*
X64800000Y-80210000D01*
X63170000Y-81840000D02*
X63170000Y-80210000D01*
D11*
X71150000Y-93270000D02*
X71150000Y-80570000D01*
X63530000Y-93270000D02*
X71150000Y-93270000D01*
X63530000Y-80570000D02*
X63530000Y-93270000D01*
X71150000Y-80570000D02*
X63530000Y-80570000D01*
%TO.C,U12*%
X95450000Y-80570000D02*
X87830000Y-80570000D01*
X87830000Y-80570000D02*
X87830000Y-93270000D01*
X87830000Y-93270000D02*
X95450000Y-93270000D01*
X95450000Y-93270000D02*
X95450000Y-80570000D01*
D10*
X87470000Y-81840000D02*
X87470000Y-80210000D01*
X87470000Y-80210000D02*
X89100000Y-80210000D01*
%TO.C,U10*%
X79370000Y-80210000D02*
X81000000Y-80210000D01*
X79370000Y-81840000D02*
X79370000Y-80210000D01*
D11*
X87350000Y-93270000D02*
X87350000Y-80570000D01*
X79730000Y-93270000D02*
X87350000Y-93270000D01*
X79730000Y-80570000D02*
X79730000Y-93270000D01*
X87350000Y-80570000D02*
X79730000Y-80570000D01*
%TO.C,U8*%
X79250000Y-80570000D02*
X71630000Y-80570000D01*
X71630000Y-80570000D02*
X71630000Y-93270000D01*
X71630000Y-93270000D02*
X79250000Y-93270000D01*
X79250000Y-93270000D02*
X79250000Y-80570000D01*
D10*
X71270000Y-81840000D02*
X71270000Y-80210000D01*
X71270000Y-80210000D02*
X72900000Y-80210000D01*
%TO.C,J2*%
X143550000Y-88780000D02*
X142220000Y-88780000D01*
X142220000Y-88780000D02*
X142220000Y-87450000D01*
X144820000Y-88780000D02*
X144820000Y-86180000D01*
X144820000Y-86180000D02*
X142220000Y-86180000D01*
X142220000Y-86180000D02*
X142220000Y-83580000D01*
X147420000Y-83580000D02*
X142220000Y-83580000D01*
X147420000Y-88780000D02*
X147420000Y-83580000D01*
X147420000Y-88780000D02*
X144820000Y-88780000D01*
%TO.C,J21*%
X69130000Y-146770000D02*
X69130000Y-151970000D01*
X84430000Y-146770000D02*
X69130000Y-146770000D01*
X87030000Y-151970000D02*
X69130000Y-151970000D01*
X84430000Y-146770000D02*
X84430000Y-149370000D01*
X84430000Y-149370000D02*
X87030000Y-149370000D01*
X87030000Y-149370000D02*
X87030000Y-151970000D01*
X85700000Y-146770000D02*
X87030000Y-146770000D01*
X87030000Y-146770000D02*
X87030000Y-148100000D01*
%TO.C,J20*%
X147930000Y-83620000D02*
X147930000Y-88820000D01*
X163230000Y-83620000D02*
X147930000Y-83620000D01*
X165830000Y-88820000D02*
X147930000Y-88820000D01*
X163230000Y-83620000D02*
X163230000Y-86220000D01*
X163230000Y-86220000D02*
X165830000Y-86220000D01*
X165830000Y-86220000D02*
X165830000Y-88820000D01*
X164500000Y-83620000D02*
X165830000Y-83620000D01*
X165830000Y-83620000D02*
X165830000Y-84950000D01*
%TO.C,S4*%
X113350000Y-140950000D02*
X113350000Y-153550000D01*
X113350000Y-153550000D02*
X123700000Y-153550000D01*
X123700000Y-153550000D02*
X123700000Y-152600000D01*
X123700000Y-152600000D02*
X124200000Y-152850000D01*
X124200000Y-152850000D02*
X124200000Y-150950000D01*
X124200000Y-150950000D02*
X124200000Y-150900000D01*
X124200000Y-150900000D02*
X123700000Y-151150000D01*
X123700000Y-151150000D02*
X123700000Y-145750000D01*
X123700000Y-145750000D02*
X124200000Y-146050000D01*
X124200000Y-146050000D02*
X124200000Y-140950000D01*
X124200000Y-140950000D02*
X113350000Y-140950000D01*
%TO.C,J1*%
X190660000Y-138520000D02*
X190660000Y-141180000D01*
X200880000Y-138520000D02*
X190660000Y-138520000D01*
X200880000Y-141180000D02*
X190660000Y-141180000D01*
X200880000Y-138520000D02*
X200880000Y-141180000D01*
X202150000Y-138520000D02*
X203480000Y-138520000D01*
X203480000Y-138520000D02*
X203480000Y-139850000D01*
%TO.C,J3*%
X127320000Y-99190000D02*
X129980000Y-99190000D01*
X127320000Y-88970000D02*
X127320000Y-99190000D01*
X129980000Y-88970000D02*
X129980000Y-99190000D01*
X127320000Y-88970000D02*
X129980000Y-88970000D01*
X127320000Y-87700000D02*
X127320000Y-86370000D01*
X127320000Y-86370000D02*
X128650000Y-86370000D01*
%TO.C,J4*%
X184930000Y-150170000D02*
X184930000Y-151500000D01*
X183600000Y-150170000D02*
X184930000Y-150170000D01*
X182330000Y-150170000D02*
X182330000Y-152830000D01*
X182330000Y-152830000D02*
X172110000Y-152830000D01*
X182330000Y-150170000D02*
X172110000Y-150170000D01*
X172110000Y-150170000D02*
X172110000Y-152830000D01*
%TO.C,J5*%
X189470000Y-141670000D02*
X190800000Y-141670000D01*
X189470000Y-143000000D02*
X189470000Y-141670000D01*
X189470000Y-144270000D02*
X192130000Y-144270000D01*
X192130000Y-144270000D02*
X192130000Y-154490000D01*
X189470000Y-144270000D02*
X189470000Y-154490000D01*
X189470000Y-154490000D02*
X192130000Y-154490000D01*
%TO.C,J6*%
X194730000Y-128020000D02*
X197330000Y-128020000D01*
X194730000Y-128020000D02*
X194730000Y-133220000D01*
X194730000Y-133220000D02*
X199930000Y-133220000D01*
X199930000Y-130620000D02*
X199930000Y-133220000D01*
X197330000Y-130620000D02*
X199930000Y-130620000D01*
X197330000Y-128020000D02*
X197330000Y-130620000D01*
X199930000Y-128020000D02*
X199930000Y-129350000D01*
X198600000Y-128020000D02*
X199930000Y-128020000D01*
%TO.C,J7*%
X149230000Y-131470000D02*
X151830000Y-131470000D01*
X149230000Y-131470000D02*
X149230000Y-136670000D01*
X149230000Y-136670000D02*
X154430000Y-136670000D01*
X154430000Y-134070000D02*
X154430000Y-136670000D01*
X151830000Y-134070000D02*
X154430000Y-134070000D01*
X151830000Y-131470000D02*
X151830000Y-134070000D01*
X154430000Y-131470000D02*
X154430000Y-132800000D01*
X153100000Y-131470000D02*
X154430000Y-131470000D01*
%TO.C,J8*%
X172500000Y-83770000D02*
X173830000Y-83770000D01*
X173830000Y-83770000D02*
X173830000Y-85100000D01*
X171230000Y-83770000D02*
X171230000Y-86370000D01*
X171230000Y-86370000D02*
X173830000Y-86370000D01*
X173830000Y-86370000D02*
X173830000Y-88970000D01*
X168630000Y-88970000D02*
X173830000Y-88970000D01*
X168630000Y-83770000D02*
X168630000Y-88970000D01*
X168630000Y-83770000D02*
X171230000Y-83770000D01*
%TO.C,J9*%
X156520000Y-97820000D02*
X157850000Y-97820000D01*
X156520000Y-99150000D02*
X156520000Y-97820000D01*
X156520000Y-100420000D02*
X159180000Y-100420000D01*
X159180000Y-100420000D02*
X159180000Y-136040000D01*
X156520000Y-100420000D02*
X156520000Y-136040000D01*
X156520000Y-136040000D02*
X159180000Y-136040000D01*
%TO.C,J10*%
X189920000Y-136040000D02*
X192580000Y-136040000D01*
X189920000Y-100420000D02*
X189920000Y-136040000D01*
X192580000Y-100420000D02*
X192580000Y-136040000D01*
X189920000Y-100420000D02*
X192580000Y-100420000D01*
X189920000Y-99150000D02*
X189920000Y-97820000D01*
X189920000Y-97820000D02*
X191250000Y-97820000D01*
%TO.C,J11*%
X129580000Y-109170000D02*
X129580000Y-110500000D01*
X128250000Y-109170000D02*
X129580000Y-109170000D01*
X126980000Y-109170000D02*
X126980000Y-111830000D01*
X126980000Y-111830000D02*
X124380000Y-111830000D01*
X126980000Y-109170000D02*
X124380000Y-109170000D01*
X124380000Y-109170000D02*
X124380000Y-111830000D01*
%TO.C,J12*%
X125470000Y-108180000D02*
X125470000Y-106850000D01*
X126800000Y-108180000D02*
X125470000Y-108180000D01*
X128070000Y-108180000D02*
X128070000Y-105520000D01*
X128070000Y-105520000D02*
X130670000Y-105520000D01*
X128070000Y-108180000D02*
X130670000Y-108180000D01*
X130670000Y-108180000D02*
X130670000Y-105520000D01*
%TO.C,J13*%
X129620000Y-115780000D02*
X129620000Y-113120000D01*
X127020000Y-115780000D02*
X129620000Y-115780000D01*
X127020000Y-113120000D02*
X129620000Y-113120000D01*
X127020000Y-115780000D02*
X127020000Y-113120000D01*
X125750000Y-115780000D02*
X124420000Y-115780000D01*
X124420000Y-115780000D02*
X124420000Y-114450000D01*
%TO.C,J14*%
X129520000Y-119680000D02*
X129520000Y-117020000D01*
X126920000Y-119680000D02*
X129520000Y-119680000D01*
X126920000Y-117020000D02*
X129520000Y-117020000D01*
X126920000Y-119680000D02*
X126920000Y-117020000D01*
X125650000Y-119680000D02*
X124320000Y-119680000D01*
X124320000Y-119680000D02*
X124320000Y-118350000D01*
%TO.C,J15*%
X128530000Y-130430000D02*
X125870000Y-130430000D01*
X128530000Y-133030000D02*
X128530000Y-130430000D01*
X125870000Y-133030000D02*
X125870000Y-130430000D01*
X128530000Y-133030000D02*
X125870000Y-133030000D01*
X128530000Y-134300000D02*
X128530000Y-135630000D01*
X128530000Y-135630000D02*
X127200000Y-135630000D01*
%TO.C,J16*%
X125520000Y-103330000D02*
X125520000Y-102000000D01*
X126850000Y-103330000D02*
X125520000Y-103330000D01*
X128120000Y-103330000D02*
X128120000Y-100670000D01*
X128120000Y-100670000D02*
X130720000Y-100670000D01*
X128120000Y-103330000D02*
X130720000Y-103330000D01*
X130720000Y-103330000D02*
X130720000Y-100670000D01*
%TO.C,J17*%
X150430000Y-97030000D02*
X149100000Y-97030000D01*
X150430000Y-95700000D02*
X150430000Y-97030000D01*
X150430000Y-94430000D02*
X147770000Y-94430000D01*
X147770000Y-94430000D02*
X147770000Y-91830000D01*
X150430000Y-94430000D02*
X150430000Y-91830000D01*
X150430000Y-91830000D02*
X147770000Y-91830000D01*
%TO.C,J18*%
X153930000Y-91830000D02*
X151270000Y-91830000D01*
X153930000Y-94430000D02*
X153930000Y-91830000D01*
X151270000Y-94430000D02*
X151270000Y-91830000D01*
X153930000Y-94430000D02*
X151270000Y-94430000D01*
X153930000Y-95700000D02*
X153930000Y-97030000D01*
X153930000Y-97030000D02*
X152600000Y-97030000D01*
%TO.C,J19*%
X175340000Y-87570000D02*
X175340000Y-90230000D01*
X180480000Y-87570000D02*
X175340000Y-87570000D01*
X180480000Y-90230000D02*
X175340000Y-90230000D01*
X180480000Y-87570000D02*
X180480000Y-90230000D01*
X181750000Y-87570000D02*
X183080000Y-87570000D01*
X183080000Y-87570000D02*
X183080000Y-88900000D01*
%TO.C,J23*%
X171290000Y-144190000D02*
X145890000Y-144190000D01*
X171290000Y-145460000D02*
X145890000Y-145460000D01*
X171290000Y-151810000D02*
X145890000Y-151810000D01*
X145890000Y-151810000D02*
X145890000Y-144190000D01*
X171290000Y-151810000D02*
X171290000Y-144190000D01*
%TO.C,R10*%
X182025000Y-135070000D02*
X182025000Y-136020000D01*
X182025000Y-140810000D02*
X182025000Y-139860000D01*
X181105000Y-136020000D02*
X181105000Y-139860000D01*
X182945000Y-136020000D02*
X181105000Y-136020000D01*
X182945000Y-139860000D02*
X182945000Y-136020000D01*
X181105000Y-139860000D02*
X182945000Y-139860000D01*
%TO.C,R11*%
X184350000Y-140780000D02*
X184350000Y-139830000D01*
X184350000Y-135040000D02*
X184350000Y-135990000D01*
X185270000Y-139830000D02*
X185270000Y-135990000D01*
X183430000Y-139830000D02*
X185270000Y-139830000D01*
X183430000Y-135990000D02*
X183430000Y-139830000D01*
X185270000Y-135990000D02*
X183430000Y-135990000D01*
%TO.C,R13*%
X201080000Y-107950000D02*
X200130000Y-107950000D01*
X195340000Y-107950000D02*
X196290000Y-107950000D01*
X200130000Y-107030000D02*
X196290000Y-107030000D01*
X200130000Y-108870000D02*
X200130000Y-107030000D01*
X196290000Y-108870000D02*
X200130000Y-108870000D01*
X196290000Y-107030000D02*
X196290000Y-108870000D01*
%TO.C,RV1*%
X113825000Y-105470000D02*
X123595000Y-105470000D01*
X113825000Y-110540000D02*
X123595000Y-110540000D01*
X113825000Y-105470000D02*
X113825000Y-110540000D01*
X123595000Y-105470000D02*
X123595000Y-110540000D01*
%TO.C,RV2*%
X123595000Y-112720000D02*
X123595000Y-117790000D01*
X113825000Y-112720000D02*
X113825000Y-117790000D01*
X113825000Y-117790000D02*
X123595000Y-117790000D01*
X113825000Y-112720000D02*
X123595000Y-112720000D01*
%TO.C,RV3*%
X113825000Y-119970000D02*
X123595000Y-119970000D01*
X113825000Y-125040000D02*
X123595000Y-125040000D01*
X113825000Y-119970000D02*
X113825000Y-125040000D01*
X123595000Y-119970000D02*
X123595000Y-125040000D01*
%TO.C,RV4*%
X123595000Y-127220000D02*
X123595000Y-132290000D01*
X113825000Y-127220000D02*
X113825000Y-132290000D01*
X113825000Y-132290000D02*
X123595000Y-132290000D01*
X113825000Y-127220000D02*
X123595000Y-127220000D01*
%TO.C,RV5*%
X113825000Y-134470000D02*
X123595000Y-134470000D01*
X113825000Y-139540000D02*
X123595000Y-139540000D01*
X113825000Y-134470000D02*
X113825000Y-139540000D01*
X123595000Y-134470000D02*
X123595000Y-139540000D01*
%TO.C,RV6*%
X123595000Y-99220000D02*
X123595000Y-104290000D01*
X113825000Y-99220000D02*
X113825000Y-104290000D01*
X113825000Y-104290000D02*
X123595000Y-104290000D01*
X113825000Y-99220000D02*
X123595000Y-99220000D01*
%TO.C,RV7*%
X136130000Y-86575000D02*
X136130000Y-96345000D01*
X131060000Y-86575000D02*
X131060000Y-96345000D01*
X136130000Y-86575000D02*
X131060000Y-86575000D01*
X136130000Y-96345000D02*
X131060000Y-96345000D01*
%TO.C,RV8*%
X144475000Y-98370000D02*
X154245000Y-98370000D01*
X144475000Y-103440000D02*
X154245000Y-103440000D01*
X144475000Y-98370000D02*
X144475000Y-103440000D01*
X154245000Y-98370000D02*
X154245000Y-103440000D01*
%TO.C,RV9*%
X130370000Y-126505000D02*
X135440000Y-126505000D01*
X130370000Y-136275000D02*
X135440000Y-136275000D01*
X135440000Y-136275000D02*
X135440000Y-126505000D01*
X130370000Y-136275000D02*
X130370000Y-126505000D01*
%TO.C,RV10*%
X125925000Y-148520000D02*
X135695000Y-148520000D01*
X125925000Y-153590000D02*
X135695000Y-153590000D01*
X125925000Y-148520000D02*
X125925000Y-153590000D01*
X135695000Y-148520000D02*
X135695000Y-153590000D01*
%TO.C,RV11*%
X198070000Y-116255000D02*
X203140000Y-116255000D01*
X198070000Y-126025000D02*
X203140000Y-126025000D01*
X203140000Y-126025000D02*
X203140000Y-116255000D01*
X198070000Y-126025000D02*
X198070000Y-116255000D01*
%TO.C,RV12*%
X155895000Y-138320000D02*
X155895000Y-143390000D01*
X146125000Y-138320000D02*
X146125000Y-143390000D01*
X146125000Y-143390000D02*
X155895000Y-143390000D01*
X146125000Y-138320000D02*
X155895000Y-138320000D01*
%TO.C,RV13*%
X183975000Y-148880000D02*
X174205000Y-148880000D01*
X183975000Y-143810000D02*
X174205000Y-143810000D01*
X183975000Y-148880000D02*
X183975000Y-143810000D01*
X174205000Y-148880000D02*
X174205000Y-143810000D01*
%TO.C,S1*%
X192850000Y-141700000D02*
X192850000Y-154300000D01*
X192850000Y-154300000D02*
X203200000Y-154300000D01*
X203200000Y-154300000D02*
X203200000Y-153350000D01*
X203200000Y-153350000D02*
X203700000Y-153600000D01*
X203700000Y-153600000D02*
X203700000Y-151700000D01*
X203700000Y-151700000D02*
X203700000Y-151650000D01*
X203700000Y-151650000D02*
X203200000Y-151900000D01*
X203200000Y-151900000D02*
X203200000Y-146500000D01*
X203200000Y-146500000D02*
X203700000Y-146800000D01*
X203700000Y-146800000D02*
X203700000Y-141700000D01*
X203700000Y-141700000D02*
X192850000Y-141700000D01*
%TO.C,S2*%
X191850000Y-83700000D02*
X191850000Y-96300000D01*
X191850000Y-96300000D02*
X202200000Y-96300000D01*
X202200000Y-96300000D02*
X202200000Y-95350000D01*
X202200000Y-95350000D02*
X202700000Y-95600000D01*
X202700000Y-95600000D02*
X202700000Y-93700000D01*
X202700000Y-93700000D02*
X202700000Y-93650000D01*
X202700000Y-93650000D02*
X202200000Y-93900000D01*
X202200000Y-93900000D02*
X202200000Y-88500000D01*
X202200000Y-88500000D02*
X202700000Y-88800000D01*
X202700000Y-88800000D02*
X202700000Y-83700000D01*
X202700000Y-83700000D02*
X191850000Y-83700000D01*
%TO.C,S3*%
X124700000Y-83700000D02*
X113850000Y-83700000D01*
X124700000Y-88800000D02*
X124700000Y-83700000D01*
X124200000Y-88500000D02*
X124700000Y-88800000D01*
X124200000Y-93900000D02*
X124200000Y-88500000D01*
X124700000Y-93650000D02*
X124200000Y-93900000D01*
X124700000Y-93700000D02*
X124700000Y-93650000D01*
X124700000Y-95600000D02*
X124700000Y-93700000D01*
X124200000Y-95350000D02*
X124700000Y-95600000D01*
X124200000Y-96300000D02*
X124200000Y-95350000D01*
X113850000Y-96300000D02*
X124200000Y-96300000D01*
X113850000Y-83700000D02*
X113850000Y-96300000D01*
D11*
%TO.C,U8*%
X79170000Y-125670000D02*
X71550000Y-125670000D01*
X71550000Y-125670000D02*
X71550000Y-138370000D01*
X71550000Y-138370000D02*
X79170000Y-138370000D01*
X79170000Y-138370000D02*
X79170000Y-125670000D01*
D10*
X71190000Y-126940000D02*
X71190000Y-125310000D01*
X71190000Y-125310000D02*
X72820000Y-125310000D01*
%TO.C,U10*%
X79290000Y-125310000D02*
X80920000Y-125310000D01*
X79290000Y-126940000D02*
X79290000Y-125310000D01*
D11*
X87270000Y-138370000D02*
X87270000Y-125670000D01*
X79650000Y-138370000D02*
X87270000Y-138370000D01*
X79650000Y-125670000D02*
X79650000Y-138370000D01*
X87270000Y-125670000D02*
X79650000Y-125670000D01*
%TO.C,U12*%
X95370000Y-125670000D02*
X87750000Y-125670000D01*
X87750000Y-125670000D02*
X87750000Y-138370000D01*
X87750000Y-138370000D02*
X95370000Y-138370000D01*
X95370000Y-138370000D02*
X95370000Y-125670000D01*
D10*
X87390000Y-126940000D02*
X87390000Y-125310000D01*
X87390000Y-125310000D02*
X89020000Y-125310000D01*
%TO.C,U14*%
X63090000Y-125310000D02*
X64720000Y-125310000D01*
X63090000Y-126940000D02*
X63090000Y-125310000D01*
D11*
X71070000Y-138370000D02*
X71070000Y-125670000D01*
X63450000Y-138370000D02*
X71070000Y-138370000D01*
X63450000Y-125670000D02*
X63450000Y-138370000D01*
X71070000Y-125670000D02*
X63450000Y-125670000D01*
D10*
%TO.C,U24*%
X159900000Y-91150000D02*
X159900000Y-143150000D01*
X188900000Y-91150000D02*
X188900000Y-143150000D01*
X159900000Y-91150000D02*
X188900000Y-91150000D01*
X159900000Y-143150000D02*
X188900000Y-143150000D01*
X171860000Y-143058000D02*
X171860000Y-140010000D01*
X171860000Y-140010000D02*
X176940000Y-140010000D01*
X176940000Y-140010000D02*
X176940000Y-143058000D01*
%TO.C,J21*%
D11*
X87562380Y-105079523D02*
X88276666Y-105079523D01*
X88419523Y-105127142D01*
X88514761Y-105222380D01*
X88562380Y-105365238D01*
X88562380Y-105460476D01*
X87657619Y-104650952D02*
X87610000Y-104603333D01*
X87562380Y-104508095D01*
X87562380Y-104270000D01*
X87610000Y-104174761D01*
X87657619Y-104127142D01*
X87752857Y-104079523D01*
X87848095Y-104079523D01*
X87990952Y-104127142D01*
X88562380Y-104698571D01*
X88562380Y-104079523D01*
X88562380Y-103127142D02*
X88562380Y-103698571D01*
X88562380Y-103412857D02*
X87562380Y-103412857D01*
X87705238Y-103508095D01*
X87800476Y-103603333D01*
X87848095Y-103698571D01*
%TO.C,H3*%
X59218095Y-104752380D02*
X59218095Y-103752380D01*
X59218095Y-104228571D02*
X59789523Y-104228571D01*
X59789523Y-104752380D02*
X59789523Y-103752380D01*
X60170476Y-103752380D02*
X60789523Y-103752380D01*
X60456190Y-104133333D01*
X60599047Y-104133333D01*
X60694285Y-104180952D01*
X60741904Y-104228571D01*
X60789523Y-104323809D01*
X60789523Y-104561904D01*
X60741904Y-104657142D01*
X60694285Y-104704761D01*
X60599047Y-104752380D01*
X60313333Y-104752380D01*
X60218095Y-104704761D01*
X60170476Y-104657142D01*
%TO.C,H1*%
X98218095Y-71752380D02*
X98218095Y-70752380D01*
X98218095Y-71228571D02*
X98789523Y-71228571D01*
X98789523Y-71752380D02*
X98789523Y-70752380D01*
X99789523Y-71752380D02*
X99218095Y-71752380D01*
X99503809Y-71752380D02*
X99503809Y-70752380D01*
X99408571Y-70895238D01*
X99313333Y-70990476D01*
X99218095Y-71038095D01*
%TO.C,U14*%
X66101904Y-79133380D02*
X66101904Y-79942904D01*
X66149523Y-80038142D01*
X66197142Y-80085761D01*
X66292380Y-80133380D01*
X66482857Y-80133380D01*
X66578095Y-80085761D01*
X66625714Y-80038142D01*
X66673333Y-79942904D01*
X66673333Y-79133380D01*
X67673333Y-80133380D02*
X67101904Y-80133380D01*
X67387619Y-80133380D02*
X67387619Y-79133380D01*
X67292380Y-79276238D01*
X67197142Y-79371476D01*
X67101904Y-79419095D01*
X68530476Y-79466714D02*
X68530476Y-80133380D01*
X68292380Y-79085761D02*
X68054285Y-79800047D01*
X68673333Y-79800047D01*
%TO.C,U12*%
X90401904Y-79133380D02*
X90401904Y-79942904D01*
X90449523Y-80038142D01*
X90497142Y-80085761D01*
X90592380Y-80133380D01*
X90782857Y-80133380D01*
X90878095Y-80085761D01*
X90925714Y-80038142D01*
X90973333Y-79942904D01*
X90973333Y-79133380D01*
X91973333Y-80133380D02*
X91401904Y-80133380D01*
X91687619Y-80133380D02*
X91687619Y-79133380D01*
X91592380Y-79276238D01*
X91497142Y-79371476D01*
X91401904Y-79419095D01*
X92354285Y-79228619D02*
X92401904Y-79181000D01*
X92497142Y-79133380D01*
X92735238Y-79133380D01*
X92830476Y-79181000D01*
X92878095Y-79228619D01*
X92925714Y-79323857D01*
X92925714Y-79419095D01*
X92878095Y-79561952D01*
X92306666Y-80133380D01*
X92925714Y-80133380D01*
%TO.C,U10*%
X82301904Y-79133380D02*
X82301904Y-79942904D01*
X82349523Y-80038142D01*
X82397142Y-80085761D01*
X82492380Y-80133380D01*
X82682857Y-80133380D01*
X82778095Y-80085761D01*
X82825714Y-80038142D01*
X82873333Y-79942904D01*
X82873333Y-79133380D01*
X83873333Y-80133380D02*
X83301904Y-80133380D01*
X83587619Y-80133380D02*
X83587619Y-79133380D01*
X83492380Y-79276238D01*
X83397142Y-79371476D01*
X83301904Y-79419095D01*
X84492380Y-79133380D02*
X84587619Y-79133380D01*
X84682857Y-79181000D01*
X84730476Y-79228619D01*
X84778095Y-79323857D01*
X84825714Y-79514333D01*
X84825714Y-79752428D01*
X84778095Y-79942904D01*
X84730476Y-80038142D01*
X84682857Y-80085761D01*
X84587619Y-80133380D01*
X84492380Y-80133380D01*
X84397142Y-80085761D01*
X84349523Y-80038142D01*
X84301904Y-79942904D01*
X84254285Y-79752428D01*
X84254285Y-79514333D01*
X84301904Y-79323857D01*
X84349523Y-79228619D01*
X84397142Y-79181000D01*
X84492380Y-79133380D01*
%TO.C,U8*%
X74678095Y-79133380D02*
X74678095Y-79942904D01*
X74725714Y-80038142D01*
X74773333Y-80085761D01*
X74868571Y-80133380D01*
X75059047Y-80133380D01*
X75154285Y-80085761D01*
X75201904Y-80038142D01*
X75249523Y-79942904D01*
X75249523Y-79133380D01*
X75868571Y-79561952D02*
X75773333Y-79514333D01*
X75725714Y-79466714D01*
X75678095Y-79371476D01*
X75678095Y-79323857D01*
X75725714Y-79228619D01*
X75773333Y-79181000D01*
X75868571Y-79133380D01*
X76059047Y-79133380D01*
X76154285Y-79181000D01*
X76201904Y-79228619D01*
X76249523Y-79323857D01*
X76249523Y-79371476D01*
X76201904Y-79466714D01*
X76154285Y-79514333D01*
X76059047Y-79561952D01*
X75868571Y-79561952D01*
X75773333Y-79609571D01*
X75725714Y-79657190D01*
X75678095Y-79752428D01*
X75678095Y-79942904D01*
X75725714Y-80038142D01*
X75773333Y-80085761D01*
X75868571Y-80133380D01*
X76059047Y-80133380D01*
X76154285Y-80085761D01*
X76201904Y-80038142D01*
X76249523Y-79942904D01*
X76249523Y-79752428D01*
X76201904Y-79657190D01*
X76154285Y-79609571D01*
X76059047Y-79561952D01*
%TO.C,H2*%
X59218095Y-71752380D02*
X59218095Y-70752380D01*
X59218095Y-71228571D02*
X59789523Y-71228571D01*
X59789523Y-71752380D02*
X59789523Y-70752380D01*
X60218095Y-70847619D02*
X60265714Y-70800000D01*
X60360952Y-70752380D01*
X60599047Y-70752380D01*
X60694285Y-70800000D01*
X60741904Y-70847619D01*
X60789523Y-70942857D01*
X60789523Y-71038095D01*
X60741904Y-71180952D01*
X60170476Y-71752380D01*
X60789523Y-71752380D01*
%TO.C,H4*%
X98218095Y-104752380D02*
X98218095Y-103752380D01*
X98218095Y-104228571D02*
X98789523Y-104228571D01*
X98789523Y-104752380D02*
X98789523Y-103752380D01*
X99694285Y-104085714D02*
X99694285Y-104752380D01*
X99456190Y-103704761D02*
X99218095Y-104419047D01*
X99837142Y-104419047D01*
%TO.C,J2*%
X144486666Y-89672380D02*
X144486666Y-90386666D01*
X144439047Y-90529523D01*
X144343809Y-90624761D01*
X144200952Y-90672380D01*
X144105714Y-90672380D01*
X144915238Y-89767619D02*
X144962857Y-89720000D01*
X145058095Y-89672380D01*
X145296190Y-89672380D01*
X145391428Y-89720000D01*
X145439047Y-89767619D01*
X145486666Y-89862857D01*
X145486666Y-89958095D01*
X145439047Y-90100952D01*
X144867619Y-90672380D01*
X145486666Y-90672380D01*
%TO.C,J21*%
X87482380Y-150179523D02*
X88196666Y-150179523D01*
X88339523Y-150227142D01*
X88434761Y-150322380D01*
X88482380Y-150465238D01*
X88482380Y-150560476D01*
X87577619Y-149750952D02*
X87530000Y-149703333D01*
X87482380Y-149608095D01*
X87482380Y-149370000D01*
X87530000Y-149274761D01*
X87577619Y-149227142D01*
X87672857Y-149179523D01*
X87768095Y-149179523D01*
X87910952Y-149227142D01*
X88482380Y-149798571D01*
X88482380Y-149179523D01*
X88482380Y-148227142D02*
X88482380Y-148798571D01*
X88482380Y-148512857D02*
X87482380Y-148512857D01*
X87625238Y-148608095D01*
X87720476Y-148703333D01*
X87768095Y-148798571D01*
%TO.C,J20*%
X166282380Y-87029523D02*
X166996666Y-87029523D01*
X167139523Y-87077142D01*
X167234761Y-87172380D01*
X167282380Y-87315238D01*
X167282380Y-87410476D01*
X166377619Y-86600952D02*
X166330000Y-86553333D01*
X166282380Y-86458095D01*
X166282380Y-86220000D01*
X166330000Y-86124761D01*
X166377619Y-86077142D01*
X166472857Y-86029523D01*
X166568095Y-86029523D01*
X166710952Y-86077142D01*
X167282380Y-86648571D01*
X167282380Y-86029523D01*
X166282380Y-85410476D02*
X166282380Y-85315238D01*
X166330000Y-85220000D01*
X166377619Y-85172380D01*
X166472857Y-85124761D01*
X166663333Y-85077142D01*
X166901428Y-85077142D01*
X167091904Y-85124761D01*
X167187142Y-85172380D01*
X167234761Y-85220000D01*
X167282380Y-85315238D01*
X167282380Y-85410476D01*
X167234761Y-85505714D01*
X167187142Y-85553333D01*
X167091904Y-85600952D01*
X166901428Y-85648571D01*
X166663333Y-85648571D01*
X166472857Y-85600952D01*
X166377619Y-85553333D01*
X166330000Y-85505714D01*
X166282380Y-85410476D01*
%TO.C,H4*%
X98138095Y-149852380D02*
X98138095Y-148852380D01*
X98138095Y-149328571D02*
X98709523Y-149328571D01*
X98709523Y-149852380D02*
X98709523Y-148852380D01*
X99614285Y-149185714D02*
X99614285Y-149852380D01*
X99376190Y-148804761D02*
X99138095Y-149519047D01*
X99757142Y-149519047D01*
%TO.C,H3*%
X59138095Y-149852380D02*
X59138095Y-148852380D01*
X59138095Y-149328571D02*
X59709523Y-149328571D01*
X59709523Y-149852380D02*
X59709523Y-148852380D01*
X60090476Y-148852380D02*
X60709523Y-148852380D01*
X60376190Y-149233333D01*
X60519047Y-149233333D01*
X60614285Y-149280952D01*
X60661904Y-149328571D01*
X60709523Y-149423809D01*
X60709523Y-149661904D01*
X60661904Y-149757142D01*
X60614285Y-149804761D01*
X60519047Y-149852380D01*
X60233333Y-149852380D01*
X60138095Y-149804761D01*
X60090476Y-149757142D01*
%TO.C,H2*%
X59138095Y-116852380D02*
X59138095Y-115852380D01*
X59138095Y-116328571D02*
X59709523Y-116328571D01*
X59709523Y-116852380D02*
X59709523Y-115852380D01*
X60138095Y-115947619D02*
X60185714Y-115900000D01*
X60280952Y-115852380D01*
X60519047Y-115852380D01*
X60614285Y-115900000D01*
X60661904Y-115947619D01*
X60709523Y-116042857D01*
X60709523Y-116138095D01*
X60661904Y-116280952D01*
X60090476Y-116852380D01*
X60709523Y-116852380D01*
%TO.C,H1*%
X98138095Y-116852380D02*
X98138095Y-115852380D01*
X98138095Y-116328571D02*
X98709523Y-116328571D01*
X98709523Y-116852380D02*
X98709523Y-115852380D01*
X99709523Y-116852380D02*
X99138095Y-116852380D01*
X99423809Y-116852380D02*
X99423809Y-115852380D01*
X99328571Y-115995238D01*
X99233333Y-116090476D01*
X99138095Y-116138095D01*
%TO.C,S4*%
X113318095Y-140664761D02*
X113460952Y-140712380D01*
X113699047Y-140712380D01*
X113794285Y-140664761D01*
X113841904Y-140617142D01*
X113889523Y-140521904D01*
X113889523Y-140426666D01*
X113841904Y-140331428D01*
X113794285Y-140283809D01*
X113699047Y-140236190D01*
X113508571Y-140188571D01*
X113413333Y-140140952D01*
X113365714Y-140093333D01*
X113318095Y-139998095D01*
X113318095Y-139902857D01*
X113365714Y-139807619D01*
X113413333Y-139760000D01*
X113508571Y-139712380D01*
X113746666Y-139712380D01*
X113889523Y-139760000D01*
X114746666Y-140045714D02*
X114746666Y-140712380D01*
X114508571Y-139664761D02*
X114270476Y-140379047D01*
X114889523Y-140379047D01*
%TO.C,J1*%
X203932380Y-140183333D02*
X204646666Y-140183333D01*
X204789523Y-140230952D01*
X204884761Y-140326190D01*
X204932380Y-140469047D01*
X204932380Y-140564285D01*
X204932380Y-139183333D02*
X204932380Y-139754761D01*
X204932380Y-139469047D02*
X203932380Y-139469047D01*
X204075238Y-139564285D01*
X204170476Y-139659523D01*
X204218095Y-139754761D01*
%TO.C,J3*%
X128316666Y-84822380D02*
X128316666Y-85536666D01*
X128269047Y-85679523D01*
X128173809Y-85774761D01*
X128030952Y-85822380D01*
X127935714Y-85822380D01*
X128697619Y-84822380D02*
X129316666Y-84822380D01*
X128983333Y-85203333D01*
X129126190Y-85203333D01*
X129221428Y-85250952D01*
X129269047Y-85298571D01*
X129316666Y-85393809D01*
X129316666Y-85631904D01*
X129269047Y-85727142D01*
X129221428Y-85774761D01*
X129126190Y-85822380D01*
X128840476Y-85822380D01*
X128745238Y-85774761D01*
X128697619Y-85727142D01*
%TO.C,J4*%
X185382380Y-151833333D02*
X186096666Y-151833333D01*
X186239523Y-151880952D01*
X186334761Y-151976190D01*
X186382380Y-152119047D01*
X186382380Y-152214285D01*
X185715714Y-150928571D02*
X186382380Y-150928571D01*
X185334761Y-151166666D02*
X186049047Y-151404761D01*
X186049047Y-150785714D01*
%TO.C,J5*%
X190466666Y-140122380D02*
X190466666Y-140836666D01*
X190419047Y-140979523D01*
X190323809Y-141074761D01*
X190180952Y-141122380D01*
X190085714Y-141122380D01*
X191419047Y-140122380D02*
X190942857Y-140122380D01*
X190895238Y-140598571D01*
X190942857Y-140550952D01*
X191038095Y-140503333D01*
X191276190Y-140503333D01*
X191371428Y-140550952D01*
X191419047Y-140598571D01*
X191466666Y-140693809D01*
X191466666Y-140931904D01*
X191419047Y-141027142D01*
X191371428Y-141074761D01*
X191276190Y-141122380D01*
X191038095Y-141122380D01*
X190942857Y-141074761D01*
X190895238Y-141027142D01*
%TO.C,J6*%
X196996666Y-126032380D02*
X196996666Y-126746666D01*
X196949047Y-126889523D01*
X196853809Y-126984761D01*
X196710952Y-127032380D01*
X196615714Y-127032380D01*
X197901428Y-126032380D02*
X197710952Y-126032380D01*
X197615714Y-126080000D01*
X197568095Y-126127619D01*
X197472857Y-126270476D01*
X197425238Y-126460952D01*
X197425238Y-126841904D01*
X197472857Y-126937142D01*
X197520476Y-126984761D01*
X197615714Y-127032380D01*
X197806190Y-127032380D01*
X197901428Y-126984761D01*
X197949047Y-126937142D01*
X197996666Y-126841904D01*
X197996666Y-126603809D01*
X197949047Y-126508571D01*
X197901428Y-126460952D01*
X197806190Y-126413333D01*
X197615714Y-126413333D01*
X197520476Y-126460952D01*
X197472857Y-126508571D01*
X197425238Y-126603809D01*
%TO.C,J7*%
X151496666Y-129482380D02*
X151496666Y-130196666D01*
X151449047Y-130339523D01*
X151353809Y-130434761D01*
X151210952Y-130482380D01*
X151115714Y-130482380D01*
X151877619Y-129482380D02*
X152544285Y-129482380D01*
X152115714Y-130482380D01*
%TO.C,J8*%
X170896666Y-81782380D02*
X170896666Y-82496666D01*
X170849047Y-82639523D01*
X170753809Y-82734761D01*
X170610952Y-82782380D01*
X170515714Y-82782380D01*
X171515714Y-82210952D02*
X171420476Y-82163333D01*
X171372857Y-82115714D01*
X171325238Y-82020476D01*
X171325238Y-81972857D01*
X171372857Y-81877619D01*
X171420476Y-81830000D01*
X171515714Y-81782380D01*
X171706190Y-81782380D01*
X171801428Y-81830000D01*
X171849047Y-81877619D01*
X171896666Y-81972857D01*
X171896666Y-82020476D01*
X171849047Y-82115714D01*
X171801428Y-82163333D01*
X171706190Y-82210952D01*
X171515714Y-82210952D01*
X171420476Y-82258571D01*
X171372857Y-82306190D01*
X171325238Y-82401428D01*
X171325238Y-82591904D01*
X171372857Y-82687142D01*
X171420476Y-82734761D01*
X171515714Y-82782380D01*
X171706190Y-82782380D01*
X171801428Y-82734761D01*
X171849047Y-82687142D01*
X171896666Y-82591904D01*
X171896666Y-82401428D01*
X171849047Y-82306190D01*
X171801428Y-82258571D01*
X171706190Y-82210952D01*
%TO.C,J9*%
X157516666Y-96272380D02*
X157516666Y-96986666D01*
X157469047Y-97129523D01*
X157373809Y-97224761D01*
X157230952Y-97272380D01*
X157135714Y-97272380D01*
X158040476Y-97272380D02*
X158230952Y-97272380D01*
X158326190Y-97224761D01*
X158373809Y-97177142D01*
X158469047Y-97034285D01*
X158516666Y-96843809D01*
X158516666Y-96462857D01*
X158469047Y-96367619D01*
X158421428Y-96320000D01*
X158326190Y-96272380D01*
X158135714Y-96272380D01*
X158040476Y-96320000D01*
X157992857Y-96367619D01*
X157945238Y-96462857D01*
X157945238Y-96700952D01*
X157992857Y-96796190D01*
X158040476Y-96843809D01*
X158135714Y-96891428D01*
X158326190Y-96891428D01*
X158421428Y-96843809D01*
X158469047Y-96796190D01*
X158516666Y-96700952D01*
%TO.C,J10*%
X190440476Y-96272380D02*
X190440476Y-96986666D01*
X190392857Y-97129523D01*
X190297619Y-97224761D01*
X190154761Y-97272380D01*
X190059523Y-97272380D01*
X191440476Y-97272380D02*
X190869047Y-97272380D01*
X191154761Y-97272380D02*
X191154761Y-96272380D01*
X191059523Y-96415238D01*
X190964285Y-96510476D01*
X190869047Y-96558095D01*
X192059523Y-96272380D02*
X192154761Y-96272380D01*
X192250000Y-96320000D01*
X192297619Y-96367619D01*
X192345238Y-96462857D01*
X192392857Y-96653333D01*
X192392857Y-96891428D01*
X192345238Y-97081904D01*
X192297619Y-97177142D01*
X192250000Y-97224761D01*
X192154761Y-97272380D01*
X192059523Y-97272380D01*
X191964285Y-97224761D01*
X191916666Y-97177142D01*
X191869047Y-97081904D01*
X191821428Y-96891428D01*
X191821428Y-96653333D01*
X191869047Y-96462857D01*
X191916666Y-96367619D01*
X191964285Y-96320000D01*
X192059523Y-96272380D01*
%TO.C,J11*%
X130032380Y-111309523D02*
X130746666Y-111309523D01*
X130889523Y-111357142D01*
X130984761Y-111452380D01*
X131032380Y-111595238D01*
X131032380Y-111690476D01*
X131032380Y-110309523D02*
X131032380Y-110880952D01*
X131032380Y-110595238D02*
X130032380Y-110595238D01*
X130175238Y-110690476D01*
X130270476Y-110785714D01*
X130318095Y-110880952D01*
X131032380Y-109357142D02*
X131032380Y-109928571D01*
X131032380Y-109642857D02*
X130032380Y-109642857D01*
X130175238Y-109738095D01*
X130270476Y-109833333D01*
X130318095Y-109928571D01*
%TO.C,J12*%
X123922380Y-107659523D02*
X124636666Y-107659523D01*
X124779523Y-107707142D01*
X124874761Y-107802380D01*
X124922380Y-107945238D01*
X124922380Y-108040476D01*
X124922380Y-106659523D02*
X124922380Y-107230952D01*
X124922380Y-106945238D02*
X123922380Y-106945238D01*
X124065238Y-107040476D01*
X124160476Y-107135714D01*
X124208095Y-107230952D01*
X124017619Y-106278571D02*
X123970000Y-106230952D01*
X123922380Y-106135714D01*
X123922380Y-105897619D01*
X123970000Y-105802380D01*
X124017619Y-105754761D01*
X124112857Y-105707142D01*
X124208095Y-105707142D01*
X124350952Y-105754761D01*
X124922380Y-106326190D01*
X124922380Y-105707142D01*
%TO.C,J13*%
X122872380Y-115259523D02*
X123586666Y-115259523D01*
X123729523Y-115307142D01*
X123824761Y-115402380D01*
X123872380Y-115545238D01*
X123872380Y-115640476D01*
X123872380Y-114259523D02*
X123872380Y-114830952D01*
X123872380Y-114545238D02*
X122872380Y-114545238D01*
X123015238Y-114640476D01*
X123110476Y-114735714D01*
X123158095Y-114830952D01*
X122872380Y-113926190D02*
X122872380Y-113307142D01*
X123253333Y-113640476D01*
X123253333Y-113497619D01*
X123300952Y-113402380D01*
X123348571Y-113354761D01*
X123443809Y-113307142D01*
X123681904Y-113307142D01*
X123777142Y-113354761D01*
X123824761Y-113402380D01*
X123872380Y-113497619D01*
X123872380Y-113783333D01*
X123824761Y-113878571D01*
X123777142Y-113926190D01*
%TO.C,J14*%
X122772380Y-119159523D02*
X123486666Y-119159523D01*
X123629523Y-119207142D01*
X123724761Y-119302380D01*
X123772380Y-119445238D01*
X123772380Y-119540476D01*
X123772380Y-118159523D02*
X123772380Y-118730952D01*
X123772380Y-118445238D02*
X122772380Y-118445238D01*
X122915238Y-118540476D01*
X123010476Y-118635714D01*
X123058095Y-118730952D01*
X123105714Y-117302380D02*
X123772380Y-117302380D01*
X122724761Y-117540476D02*
X123439047Y-117778571D01*
X123439047Y-117159523D01*
%TO.C,J15*%
X126390476Y-136082380D02*
X126390476Y-136796666D01*
X126342857Y-136939523D01*
X126247619Y-137034761D01*
X126104761Y-137082380D01*
X126009523Y-137082380D01*
X127390476Y-137082380D02*
X126819047Y-137082380D01*
X127104761Y-137082380D02*
X127104761Y-136082380D01*
X127009523Y-136225238D01*
X126914285Y-136320476D01*
X126819047Y-136368095D01*
X128295238Y-136082380D02*
X127819047Y-136082380D01*
X127771428Y-136558571D01*
X127819047Y-136510952D01*
X127914285Y-136463333D01*
X128152380Y-136463333D01*
X128247619Y-136510952D01*
X128295238Y-136558571D01*
X128342857Y-136653809D01*
X128342857Y-136891904D01*
X128295238Y-136987142D01*
X128247619Y-137034761D01*
X128152380Y-137082380D01*
X127914285Y-137082380D01*
X127819047Y-137034761D01*
X127771428Y-136987142D01*
%TO.C,J16*%
X123972380Y-102809523D02*
X124686666Y-102809523D01*
X124829523Y-102857142D01*
X124924761Y-102952380D01*
X124972380Y-103095238D01*
X124972380Y-103190476D01*
X124972380Y-101809523D02*
X124972380Y-102380952D01*
X124972380Y-102095238D02*
X123972380Y-102095238D01*
X124115238Y-102190476D01*
X124210476Y-102285714D01*
X124258095Y-102380952D01*
X123972380Y-100952380D02*
X123972380Y-101142857D01*
X124020000Y-101238095D01*
X124067619Y-101285714D01*
X124210476Y-101380952D01*
X124400952Y-101428571D01*
X124781904Y-101428571D01*
X124877142Y-101380952D01*
X124924761Y-101333333D01*
X124972380Y-101238095D01*
X124972380Y-101047619D01*
X124924761Y-100952380D01*
X124877142Y-100904761D01*
X124781904Y-100857142D01*
X124543809Y-100857142D01*
X124448571Y-100904761D01*
X124400952Y-100952380D01*
X124353333Y-101047619D01*
X124353333Y-101238095D01*
X124400952Y-101333333D01*
X124448571Y-101380952D01*
X124543809Y-101428571D01*
%TO.C,J17*%
X148290476Y-97482380D02*
X148290476Y-98196666D01*
X148242857Y-98339523D01*
X148147619Y-98434761D01*
X148004761Y-98482380D01*
X147909523Y-98482380D01*
X149290476Y-98482380D02*
X148719047Y-98482380D01*
X149004761Y-98482380D02*
X149004761Y-97482380D01*
X148909523Y-97625238D01*
X148814285Y-97720476D01*
X148719047Y-97768095D01*
X149623809Y-97482380D02*
X150290476Y-97482380D01*
X149861904Y-98482380D01*
%TO.C,J18*%
X151790476Y-97482380D02*
X151790476Y-98196666D01*
X151742857Y-98339523D01*
X151647619Y-98434761D01*
X151504761Y-98482380D01*
X151409523Y-98482380D01*
X152790476Y-98482380D02*
X152219047Y-98482380D01*
X152504761Y-98482380D02*
X152504761Y-97482380D01*
X152409523Y-97625238D01*
X152314285Y-97720476D01*
X152219047Y-97768095D01*
X153361904Y-97910952D02*
X153266666Y-97863333D01*
X153219047Y-97815714D01*
X153171428Y-97720476D01*
X153171428Y-97672857D01*
X153219047Y-97577619D01*
X153266666Y-97530000D01*
X153361904Y-97482380D01*
X153552380Y-97482380D01*
X153647619Y-97530000D01*
X153695238Y-97577619D01*
X153742857Y-97672857D01*
X153742857Y-97720476D01*
X153695238Y-97815714D01*
X153647619Y-97863333D01*
X153552380Y-97910952D01*
X153361904Y-97910952D01*
X153266666Y-97958571D01*
X153219047Y-98006190D01*
X153171428Y-98101428D01*
X153171428Y-98291904D01*
X153219047Y-98387142D01*
X153266666Y-98434761D01*
X153361904Y-98482380D01*
X153552380Y-98482380D01*
X153647619Y-98434761D01*
X153695238Y-98387142D01*
X153742857Y-98291904D01*
X153742857Y-98101428D01*
X153695238Y-98006190D01*
X153647619Y-97958571D01*
X153552380Y-97910952D01*
%TO.C,J19*%
X183532380Y-89709523D02*
X184246666Y-89709523D01*
X184389523Y-89757142D01*
X184484761Y-89852380D01*
X184532380Y-89995238D01*
X184532380Y-90090476D01*
X184532380Y-88709523D02*
X184532380Y-89280952D01*
X184532380Y-88995238D02*
X183532380Y-88995238D01*
X183675238Y-89090476D01*
X183770476Y-89185714D01*
X183818095Y-89280952D01*
X184532380Y-88233333D02*
X184532380Y-88042857D01*
X184484761Y-87947619D01*
X184437142Y-87900000D01*
X184294285Y-87804761D01*
X184103809Y-87757142D01*
X183722857Y-87757142D01*
X183627619Y-87804761D01*
X183580000Y-87852380D01*
X183532380Y-87947619D01*
X183532380Y-88138095D01*
X183580000Y-88233333D01*
X183627619Y-88280952D01*
X183722857Y-88328571D01*
X183960952Y-88328571D01*
X184056190Y-88280952D01*
X184103809Y-88233333D01*
X184151428Y-88138095D01*
X184151428Y-87947619D01*
X184103809Y-87852380D01*
X184056190Y-87804761D01*
X183960952Y-87757142D01*
%TO.C,J23*%
X157790476Y-152002380D02*
X157790476Y-152716666D01*
X157742857Y-152859523D01*
X157647619Y-152954761D01*
X157504761Y-153002380D01*
X157409523Y-153002380D01*
X158219047Y-152097619D02*
X158266666Y-152050000D01*
X158361904Y-152002380D01*
X158600000Y-152002380D01*
X158695238Y-152050000D01*
X158742857Y-152097619D01*
X158790476Y-152192857D01*
X158790476Y-152288095D01*
X158742857Y-152430952D01*
X158171428Y-153002380D01*
X158790476Y-153002380D01*
X159123809Y-152002380D02*
X159742857Y-152002380D01*
X159409523Y-152383333D01*
X159552380Y-152383333D01*
X159647619Y-152430952D01*
X159695238Y-152478571D01*
X159742857Y-152573809D01*
X159742857Y-152811904D01*
X159695238Y-152907142D01*
X159647619Y-152954761D01*
X159552380Y-153002380D01*
X159266666Y-153002380D01*
X159171428Y-152954761D01*
X159123809Y-152907142D01*
%TO.C,R10*%
X180557380Y-138582857D02*
X180081190Y-138916190D01*
X180557380Y-139154285D02*
X179557380Y-139154285D01*
X179557380Y-138773333D01*
X179605000Y-138678095D01*
X179652619Y-138630476D01*
X179747857Y-138582857D01*
X179890714Y-138582857D01*
X179985952Y-138630476D01*
X180033571Y-138678095D01*
X180081190Y-138773333D01*
X180081190Y-139154285D01*
X180557380Y-137630476D02*
X180557380Y-138201904D01*
X180557380Y-137916190D02*
X179557380Y-137916190D01*
X179700238Y-138011428D01*
X179795476Y-138106666D01*
X179843095Y-138201904D01*
X179557380Y-137011428D02*
X179557380Y-136916190D01*
X179605000Y-136820952D01*
X179652619Y-136773333D01*
X179747857Y-136725714D01*
X179938333Y-136678095D01*
X180176428Y-136678095D01*
X180366904Y-136725714D01*
X180462142Y-136773333D01*
X180509761Y-136820952D01*
X180557380Y-136916190D01*
X180557380Y-137011428D01*
X180509761Y-137106666D01*
X180462142Y-137154285D01*
X180366904Y-137201904D01*
X180176428Y-137249523D01*
X179938333Y-137249523D01*
X179747857Y-137201904D01*
X179652619Y-137154285D01*
X179605000Y-137106666D01*
X179557380Y-137011428D01*
%TO.C,R11*%
X186722380Y-138552857D02*
X186246190Y-138886190D01*
X186722380Y-139124285D02*
X185722380Y-139124285D01*
X185722380Y-138743333D01*
X185770000Y-138648095D01*
X185817619Y-138600476D01*
X185912857Y-138552857D01*
X186055714Y-138552857D01*
X186150952Y-138600476D01*
X186198571Y-138648095D01*
X186246190Y-138743333D01*
X186246190Y-139124285D01*
X186722380Y-137600476D02*
X186722380Y-138171904D01*
X186722380Y-137886190D02*
X185722380Y-137886190D01*
X185865238Y-137981428D01*
X185960476Y-138076666D01*
X186008095Y-138171904D01*
X186722380Y-136648095D02*
X186722380Y-137219523D01*
X186722380Y-136933809D02*
X185722380Y-136933809D01*
X185865238Y-137029047D01*
X185960476Y-137124285D01*
X186008095Y-137219523D01*
%TO.C,R13*%
X197567142Y-106482380D02*
X197233809Y-106006190D01*
X196995714Y-106482380D02*
X196995714Y-105482380D01*
X197376666Y-105482380D01*
X197471904Y-105530000D01*
X197519523Y-105577619D01*
X197567142Y-105672857D01*
X197567142Y-105815714D01*
X197519523Y-105910952D01*
X197471904Y-105958571D01*
X197376666Y-106006190D01*
X196995714Y-106006190D01*
X198519523Y-106482380D02*
X197948095Y-106482380D01*
X198233809Y-106482380D02*
X198233809Y-105482380D01*
X198138571Y-105625238D01*
X198043333Y-105720476D01*
X197948095Y-105768095D01*
X198852857Y-105482380D02*
X199471904Y-105482380D01*
X199138571Y-105863333D01*
X199281428Y-105863333D01*
X199376666Y-105910952D01*
X199424285Y-105958571D01*
X199471904Y-106053809D01*
X199471904Y-106291904D01*
X199424285Y-106387142D01*
X199376666Y-106434761D01*
X199281428Y-106482380D01*
X198995714Y-106482380D01*
X198900476Y-106434761D01*
X198852857Y-106387142D01*
%TO.C,RV1*%
X118114761Y-104792380D02*
X117781428Y-104316190D01*
X117543333Y-104792380D02*
X117543333Y-103792380D01*
X117924285Y-103792380D01*
X118019523Y-103840000D01*
X118067142Y-103887619D01*
X118114761Y-103982857D01*
X118114761Y-104125714D01*
X118067142Y-104220952D01*
X118019523Y-104268571D01*
X117924285Y-104316190D01*
X117543333Y-104316190D01*
X118400476Y-103792380D02*
X118733809Y-104792380D01*
X119067142Y-103792380D01*
X119924285Y-104792380D02*
X119352857Y-104792380D01*
X119638571Y-104792380D02*
X119638571Y-103792380D01*
X119543333Y-103935238D01*
X119448095Y-104030476D01*
X119352857Y-104078095D01*
%TO.C,RV2*%
X118114761Y-112042380D02*
X117781428Y-111566190D01*
X117543333Y-112042380D02*
X117543333Y-111042380D01*
X117924285Y-111042380D01*
X118019523Y-111090000D01*
X118067142Y-111137619D01*
X118114761Y-111232857D01*
X118114761Y-111375714D01*
X118067142Y-111470952D01*
X118019523Y-111518571D01*
X117924285Y-111566190D01*
X117543333Y-111566190D01*
X118400476Y-111042380D02*
X118733809Y-112042380D01*
X119067142Y-111042380D01*
X119352857Y-111137619D02*
X119400476Y-111090000D01*
X119495714Y-111042380D01*
X119733809Y-111042380D01*
X119829047Y-111090000D01*
X119876666Y-111137619D01*
X119924285Y-111232857D01*
X119924285Y-111328095D01*
X119876666Y-111470952D01*
X119305238Y-112042380D01*
X119924285Y-112042380D01*
%TO.C,RV3*%
X118114761Y-119292380D02*
X117781428Y-118816190D01*
X117543333Y-119292380D02*
X117543333Y-118292380D01*
X117924285Y-118292380D01*
X118019523Y-118340000D01*
X118067142Y-118387619D01*
X118114761Y-118482857D01*
X118114761Y-118625714D01*
X118067142Y-118720952D01*
X118019523Y-118768571D01*
X117924285Y-118816190D01*
X117543333Y-118816190D01*
X118400476Y-118292380D02*
X118733809Y-119292380D01*
X119067142Y-118292380D01*
X119305238Y-118292380D02*
X119924285Y-118292380D01*
X119590952Y-118673333D01*
X119733809Y-118673333D01*
X119829047Y-118720952D01*
X119876666Y-118768571D01*
X119924285Y-118863809D01*
X119924285Y-119101904D01*
X119876666Y-119197142D01*
X119829047Y-119244761D01*
X119733809Y-119292380D01*
X119448095Y-119292380D01*
X119352857Y-119244761D01*
X119305238Y-119197142D01*
%TO.C,RV4*%
X118114761Y-126542380D02*
X117781428Y-126066190D01*
X117543333Y-126542380D02*
X117543333Y-125542380D01*
X117924285Y-125542380D01*
X118019523Y-125590000D01*
X118067142Y-125637619D01*
X118114761Y-125732857D01*
X118114761Y-125875714D01*
X118067142Y-125970952D01*
X118019523Y-126018571D01*
X117924285Y-126066190D01*
X117543333Y-126066190D01*
X118400476Y-125542380D02*
X118733809Y-126542380D01*
X119067142Y-125542380D01*
X119829047Y-125875714D02*
X119829047Y-126542380D01*
X119590952Y-125494761D02*
X119352857Y-126209047D01*
X119971904Y-126209047D01*
%TO.C,RV5*%
X118114761Y-133792380D02*
X117781428Y-133316190D01*
X117543333Y-133792380D02*
X117543333Y-132792380D01*
X117924285Y-132792380D01*
X118019523Y-132840000D01*
X118067142Y-132887619D01*
X118114761Y-132982857D01*
X118114761Y-133125714D01*
X118067142Y-133220952D01*
X118019523Y-133268571D01*
X117924285Y-133316190D01*
X117543333Y-133316190D01*
X118400476Y-132792380D02*
X118733809Y-133792380D01*
X119067142Y-132792380D01*
X119876666Y-132792380D02*
X119400476Y-132792380D01*
X119352857Y-133268571D01*
X119400476Y-133220952D01*
X119495714Y-133173333D01*
X119733809Y-133173333D01*
X119829047Y-133220952D01*
X119876666Y-133268571D01*
X119924285Y-133363809D01*
X119924285Y-133601904D01*
X119876666Y-133697142D01*
X119829047Y-133744761D01*
X119733809Y-133792380D01*
X119495714Y-133792380D01*
X119400476Y-133744761D01*
X119352857Y-133697142D01*
%TO.C,RV6*%
X118114761Y-98542380D02*
X117781428Y-98066190D01*
X117543333Y-98542380D02*
X117543333Y-97542380D01*
X117924285Y-97542380D01*
X118019523Y-97590000D01*
X118067142Y-97637619D01*
X118114761Y-97732857D01*
X118114761Y-97875714D01*
X118067142Y-97970952D01*
X118019523Y-98018571D01*
X117924285Y-98066190D01*
X117543333Y-98066190D01*
X118400476Y-97542380D02*
X118733809Y-98542380D01*
X119067142Y-97542380D01*
X119829047Y-97542380D02*
X119638571Y-97542380D01*
X119543333Y-97590000D01*
X119495714Y-97637619D01*
X119400476Y-97780476D01*
X119352857Y-97970952D01*
X119352857Y-98351904D01*
X119400476Y-98447142D01*
X119448095Y-98494761D01*
X119543333Y-98542380D01*
X119733809Y-98542380D01*
X119829047Y-98494761D01*
X119876666Y-98447142D01*
X119924285Y-98351904D01*
X119924285Y-98113809D01*
X119876666Y-98018571D01*
X119829047Y-97970952D01*
X119733809Y-97923333D01*
X119543333Y-97923333D01*
X119448095Y-97970952D01*
X119400476Y-98018571D01*
X119352857Y-98113809D01*
%TO.C,RV7*%
X137712380Y-92055238D02*
X137236190Y-92388571D01*
X137712380Y-92626666D02*
X136712380Y-92626666D01*
X136712380Y-92245714D01*
X136760000Y-92150476D01*
X136807619Y-92102857D01*
X136902857Y-92055238D01*
X137045714Y-92055238D01*
X137140952Y-92102857D01*
X137188571Y-92150476D01*
X137236190Y-92245714D01*
X137236190Y-92626666D01*
X136712380Y-91769523D02*
X137712380Y-91436190D01*
X136712380Y-91102857D01*
X136712380Y-90864761D02*
X136712380Y-90198095D01*
X137712380Y-90626666D01*
%TO.C,RV8*%
X148764761Y-97692380D02*
X148431428Y-97216190D01*
X148193333Y-97692380D02*
X148193333Y-96692380D01*
X148574285Y-96692380D01*
X148669523Y-96740000D01*
X148717142Y-96787619D01*
X148764761Y-96882857D01*
X148764761Y-97025714D01*
X148717142Y-97120952D01*
X148669523Y-97168571D01*
X148574285Y-97216190D01*
X148193333Y-97216190D01*
X149050476Y-96692380D02*
X149383809Y-97692380D01*
X149717142Y-96692380D01*
X150193333Y-97120952D02*
X150098095Y-97073333D01*
X150050476Y-97025714D01*
X150002857Y-96930476D01*
X150002857Y-96882857D01*
X150050476Y-96787619D01*
X150098095Y-96740000D01*
X150193333Y-96692380D01*
X150383809Y-96692380D01*
X150479047Y-96740000D01*
X150526666Y-96787619D01*
X150574285Y-96882857D01*
X150574285Y-96930476D01*
X150526666Y-97025714D01*
X150479047Y-97073333D01*
X150383809Y-97120952D01*
X150193333Y-97120952D01*
X150098095Y-97168571D01*
X150050476Y-97216190D01*
X150002857Y-97311428D01*
X150002857Y-97501904D01*
X150050476Y-97597142D01*
X150098095Y-97644761D01*
X150193333Y-97692380D01*
X150383809Y-97692380D01*
X150479047Y-97644761D01*
X150526666Y-97597142D01*
X150574285Y-97501904D01*
X150574285Y-97311428D01*
X150526666Y-97216190D01*
X150479047Y-97168571D01*
X150383809Y-97120952D01*
%TO.C,RV9*%
X129692380Y-131985238D02*
X129216190Y-132318571D01*
X129692380Y-132556666D02*
X128692380Y-132556666D01*
X128692380Y-132175714D01*
X128740000Y-132080476D01*
X128787619Y-132032857D01*
X128882857Y-131985238D01*
X129025714Y-131985238D01*
X129120952Y-132032857D01*
X129168571Y-132080476D01*
X129216190Y-132175714D01*
X129216190Y-132556666D01*
X128692380Y-131699523D02*
X129692380Y-131366190D01*
X128692380Y-131032857D01*
X129692380Y-130651904D02*
X129692380Y-130461428D01*
X129644761Y-130366190D01*
X129597142Y-130318571D01*
X129454285Y-130223333D01*
X129263809Y-130175714D01*
X128882857Y-130175714D01*
X128787619Y-130223333D01*
X128740000Y-130270952D01*
X128692380Y-130366190D01*
X128692380Y-130556666D01*
X128740000Y-130651904D01*
X128787619Y-130699523D01*
X128882857Y-130747142D01*
X129120952Y-130747142D01*
X129216190Y-130699523D01*
X129263809Y-130651904D01*
X129311428Y-130556666D01*
X129311428Y-130366190D01*
X129263809Y-130270952D01*
X129216190Y-130223333D01*
X129120952Y-130175714D01*
%TO.C,RV10*%
X129738571Y-147842380D02*
X129405238Y-147366190D01*
X129167142Y-147842380D02*
X129167142Y-146842380D01*
X129548095Y-146842380D01*
X129643333Y-146890000D01*
X129690952Y-146937619D01*
X129738571Y-147032857D01*
X129738571Y-147175714D01*
X129690952Y-147270952D01*
X129643333Y-147318571D01*
X129548095Y-147366190D01*
X129167142Y-147366190D01*
X130024285Y-146842380D02*
X130357619Y-147842380D01*
X130690952Y-146842380D01*
X131548095Y-147842380D02*
X130976666Y-147842380D01*
X131262380Y-147842380D02*
X131262380Y-146842380D01*
X131167142Y-146985238D01*
X131071904Y-147080476D01*
X130976666Y-147128095D01*
X132167142Y-146842380D02*
X132262380Y-146842380D01*
X132357619Y-146890000D01*
X132405238Y-146937619D01*
X132452857Y-147032857D01*
X132500476Y-147223333D01*
X132500476Y-147461428D01*
X132452857Y-147651904D01*
X132405238Y-147747142D01*
X132357619Y-147794761D01*
X132262380Y-147842380D01*
X132167142Y-147842380D01*
X132071904Y-147794761D01*
X132024285Y-147747142D01*
X131976666Y-147651904D01*
X131929047Y-147461428D01*
X131929047Y-147223333D01*
X131976666Y-147032857D01*
X132024285Y-146937619D01*
X132071904Y-146890000D01*
X132167142Y-146842380D01*
%TO.C,RV11*%
X197392380Y-122211428D02*
X196916190Y-122544761D01*
X197392380Y-122782857D02*
X196392380Y-122782857D01*
X196392380Y-122401904D01*
X196440000Y-122306666D01*
X196487619Y-122259047D01*
X196582857Y-122211428D01*
X196725714Y-122211428D01*
X196820952Y-122259047D01*
X196868571Y-122306666D01*
X196916190Y-122401904D01*
X196916190Y-122782857D01*
X196392380Y-121925714D02*
X197392380Y-121592380D01*
X196392380Y-121259047D01*
X197392380Y-120401904D02*
X197392380Y-120973333D01*
X197392380Y-120687619D02*
X196392380Y-120687619D01*
X196535238Y-120782857D01*
X196630476Y-120878095D01*
X196678095Y-120973333D01*
X197392380Y-119449523D02*
X197392380Y-120020952D01*
X197392380Y-119735238D02*
X196392380Y-119735238D01*
X196535238Y-119830476D01*
X196630476Y-119925714D01*
X196678095Y-120020952D01*
%TO.C,RV12*%
X149938571Y-137642380D02*
X149605238Y-137166190D01*
X149367142Y-137642380D02*
X149367142Y-136642380D01*
X149748095Y-136642380D01*
X149843333Y-136690000D01*
X149890952Y-136737619D01*
X149938571Y-136832857D01*
X149938571Y-136975714D01*
X149890952Y-137070952D01*
X149843333Y-137118571D01*
X149748095Y-137166190D01*
X149367142Y-137166190D01*
X150224285Y-136642380D02*
X150557619Y-137642380D01*
X150890952Y-136642380D01*
X151748095Y-137642380D02*
X151176666Y-137642380D01*
X151462380Y-137642380D02*
X151462380Y-136642380D01*
X151367142Y-136785238D01*
X151271904Y-136880476D01*
X151176666Y-136928095D01*
X152129047Y-136737619D02*
X152176666Y-136690000D01*
X152271904Y-136642380D01*
X152510000Y-136642380D01*
X152605238Y-136690000D01*
X152652857Y-136737619D01*
X152700476Y-136832857D01*
X152700476Y-136928095D01*
X152652857Y-137070952D01*
X152081428Y-137642380D01*
X152700476Y-137642380D01*
%TO.C,RV13*%
X178018571Y-150462380D02*
X177685238Y-149986190D01*
X177447142Y-150462380D02*
X177447142Y-149462380D01*
X177828095Y-149462380D01*
X177923333Y-149510000D01*
X177970952Y-149557619D01*
X178018571Y-149652857D01*
X178018571Y-149795714D01*
X177970952Y-149890952D01*
X177923333Y-149938571D01*
X177828095Y-149986190D01*
X177447142Y-149986190D01*
X178304285Y-149462380D02*
X178637619Y-150462380D01*
X178970952Y-149462380D01*
X179828095Y-150462380D02*
X179256666Y-150462380D01*
X179542380Y-150462380D02*
X179542380Y-149462380D01*
X179447142Y-149605238D01*
X179351904Y-149700476D01*
X179256666Y-149748095D01*
X180161428Y-149462380D02*
X180780476Y-149462380D01*
X180447142Y-149843333D01*
X180590000Y-149843333D01*
X180685238Y-149890952D01*
X180732857Y-149938571D01*
X180780476Y-150033809D01*
X180780476Y-150271904D01*
X180732857Y-150367142D01*
X180685238Y-150414761D01*
X180590000Y-150462380D01*
X180304285Y-150462380D01*
X180209047Y-150414761D01*
X180161428Y-150367142D01*
%TO.C,S1*%
X192818095Y-141414761D02*
X192960952Y-141462380D01*
X193199047Y-141462380D01*
X193294285Y-141414761D01*
X193341904Y-141367142D01*
X193389523Y-141271904D01*
X193389523Y-141176666D01*
X193341904Y-141081428D01*
X193294285Y-141033809D01*
X193199047Y-140986190D01*
X193008571Y-140938571D01*
X192913333Y-140890952D01*
X192865714Y-140843333D01*
X192818095Y-140748095D01*
X192818095Y-140652857D01*
X192865714Y-140557619D01*
X192913333Y-140510000D01*
X193008571Y-140462380D01*
X193246666Y-140462380D01*
X193389523Y-140510000D01*
X194341904Y-141462380D02*
X193770476Y-141462380D01*
X194056190Y-141462380D02*
X194056190Y-140462380D01*
X193960952Y-140605238D01*
X193865714Y-140700476D01*
X193770476Y-140748095D01*
%TO.C,S2*%
X191818095Y-83414761D02*
X191960952Y-83462380D01*
X192199047Y-83462380D01*
X192294285Y-83414761D01*
X192341904Y-83367142D01*
X192389523Y-83271904D01*
X192389523Y-83176666D01*
X192341904Y-83081428D01*
X192294285Y-83033809D01*
X192199047Y-82986190D01*
X192008571Y-82938571D01*
X191913333Y-82890952D01*
X191865714Y-82843333D01*
X191818095Y-82748095D01*
X191818095Y-82652857D01*
X191865714Y-82557619D01*
X191913333Y-82510000D01*
X192008571Y-82462380D01*
X192246666Y-82462380D01*
X192389523Y-82510000D01*
X192770476Y-82557619D02*
X192818095Y-82510000D01*
X192913333Y-82462380D01*
X193151428Y-82462380D01*
X193246666Y-82510000D01*
X193294285Y-82557619D01*
X193341904Y-82652857D01*
X193341904Y-82748095D01*
X193294285Y-82890952D01*
X192722857Y-83462380D01*
X193341904Y-83462380D01*
%TO.C,S3*%
X113818095Y-83414761D02*
X113960952Y-83462380D01*
X114199047Y-83462380D01*
X114294285Y-83414761D01*
X114341904Y-83367142D01*
X114389523Y-83271904D01*
X114389523Y-83176666D01*
X114341904Y-83081428D01*
X114294285Y-83033809D01*
X114199047Y-82986190D01*
X114008571Y-82938571D01*
X113913333Y-82890952D01*
X113865714Y-82843333D01*
X113818095Y-82748095D01*
X113818095Y-82652857D01*
X113865714Y-82557619D01*
X113913333Y-82510000D01*
X114008571Y-82462380D01*
X114246666Y-82462380D01*
X114389523Y-82510000D01*
X114722857Y-82462380D02*
X115341904Y-82462380D01*
X115008571Y-82843333D01*
X115151428Y-82843333D01*
X115246666Y-82890952D01*
X115294285Y-82938571D01*
X115341904Y-83033809D01*
X115341904Y-83271904D01*
X115294285Y-83367142D01*
X115246666Y-83414761D01*
X115151428Y-83462380D01*
X114865714Y-83462380D01*
X114770476Y-83414761D01*
X114722857Y-83367142D01*
%TO.C,U8*%
X74598095Y-124233380D02*
X74598095Y-125042904D01*
X74645714Y-125138142D01*
X74693333Y-125185761D01*
X74788571Y-125233380D01*
X74979047Y-125233380D01*
X75074285Y-125185761D01*
X75121904Y-125138142D01*
X75169523Y-125042904D01*
X75169523Y-124233380D01*
X75788571Y-124661952D02*
X75693333Y-124614333D01*
X75645714Y-124566714D01*
X75598095Y-124471476D01*
X75598095Y-124423857D01*
X75645714Y-124328619D01*
X75693333Y-124281000D01*
X75788571Y-124233380D01*
X75979047Y-124233380D01*
X76074285Y-124281000D01*
X76121904Y-124328619D01*
X76169523Y-124423857D01*
X76169523Y-124471476D01*
X76121904Y-124566714D01*
X76074285Y-124614333D01*
X75979047Y-124661952D01*
X75788571Y-124661952D01*
X75693333Y-124709571D01*
X75645714Y-124757190D01*
X75598095Y-124852428D01*
X75598095Y-125042904D01*
X75645714Y-125138142D01*
X75693333Y-125185761D01*
X75788571Y-125233380D01*
X75979047Y-125233380D01*
X76074285Y-125185761D01*
X76121904Y-125138142D01*
X76169523Y-125042904D01*
X76169523Y-124852428D01*
X76121904Y-124757190D01*
X76074285Y-124709571D01*
X75979047Y-124661952D01*
%TO.C,U10*%
X82221904Y-124233380D02*
X82221904Y-125042904D01*
X82269523Y-125138142D01*
X82317142Y-125185761D01*
X82412380Y-125233380D01*
X82602857Y-125233380D01*
X82698095Y-125185761D01*
X82745714Y-125138142D01*
X82793333Y-125042904D01*
X82793333Y-124233380D01*
X83793333Y-125233380D02*
X83221904Y-125233380D01*
X83507619Y-125233380D02*
X83507619Y-124233380D01*
X83412380Y-124376238D01*
X83317142Y-124471476D01*
X83221904Y-124519095D01*
X84412380Y-124233380D02*
X84507619Y-124233380D01*
X84602857Y-124281000D01*
X84650476Y-124328619D01*
X84698095Y-124423857D01*
X84745714Y-124614333D01*
X84745714Y-124852428D01*
X84698095Y-125042904D01*
X84650476Y-125138142D01*
X84602857Y-125185761D01*
X84507619Y-125233380D01*
X84412380Y-125233380D01*
X84317142Y-125185761D01*
X84269523Y-125138142D01*
X84221904Y-125042904D01*
X84174285Y-124852428D01*
X84174285Y-124614333D01*
X84221904Y-124423857D01*
X84269523Y-124328619D01*
X84317142Y-124281000D01*
X84412380Y-124233380D01*
%TO.C,U12*%
X90321904Y-124233380D02*
X90321904Y-125042904D01*
X90369523Y-125138142D01*
X90417142Y-125185761D01*
X90512380Y-125233380D01*
X90702857Y-125233380D01*
X90798095Y-125185761D01*
X90845714Y-125138142D01*
X90893333Y-125042904D01*
X90893333Y-124233380D01*
X91893333Y-125233380D02*
X91321904Y-125233380D01*
X91607619Y-125233380D02*
X91607619Y-124233380D01*
X91512380Y-124376238D01*
X91417142Y-124471476D01*
X91321904Y-124519095D01*
X92274285Y-124328619D02*
X92321904Y-124281000D01*
X92417142Y-124233380D01*
X92655238Y-124233380D01*
X92750476Y-124281000D01*
X92798095Y-124328619D01*
X92845714Y-124423857D01*
X92845714Y-124519095D01*
X92798095Y-124661952D01*
X92226666Y-125233380D01*
X92845714Y-125233380D01*
%TO.C,U14*%
X66021904Y-124233380D02*
X66021904Y-125042904D01*
X66069523Y-125138142D01*
X66117142Y-125185761D01*
X66212380Y-125233380D01*
X66402857Y-125233380D01*
X66498095Y-125185761D01*
X66545714Y-125138142D01*
X66593333Y-125042904D01*
X66593333Y-124233380D01*
X67593333Y-125233380D02*
X67021904Y-125233380D01*
X67307619Y-125233380D02*
X67307619Y-124233380D01*
X67212380Y-124376238D01*
X67117142Y-124471476D01*
X67021904Y-124519095D01*
X68450476Y-124566714D02*
X68450476Y-125233380D01*
X68212380Y-124185761D02*
X67974285Y-124900047D01*
X68593333Y-124900047D01*
%TO.C,U24*%
X173161904Y-131602380D02*
X173161904Y-132411904D01*
X173209523Y-132507142D01*
X173257142Y-132554761D01*
X173352380Y-132602380D01*
X173542857Y-132602380D01*
X173638095Y-132554761D01*
X173685714Y-132507142D01*
X173733333Y-132411904D01*
X173733333Y-131602380D01*
X174161904Y-131697619D02*
X174209523Y-131650000D01*
X174304761Y-131602380D01*
X174542857Y-131602380D01*
X174638095Y-131650000D01*
X174685714Y-131697619D01*
X174733333Y-131792857D01*
X174733333Y-131888095D01*
X174685714Y-132030952D01*
X174114285Y-132602380D01*
X174733333Y-132602380D01*
X175590476Y-131935714D02*
X175590476Y-132602380D01*
X175352380Y-131554761D02*
X175114285Y-132269047D01*
X175733333Y-132269047D01*
X173138095Y-138192380D02*
X173138095Y-139001904D01*
X173185714Y-139097142D01*
X173233333Y-139144761D01*
X173328571Y-139192380D01*
X173519047Y-139192380D01*
X173614285Y-139144761D01*
X173661904Y-139097142D01*
X173709523Y-139001904D01*
X173709523Y-138192380D01*
X174138095Y-139144761D02*
X174280952Y-139192380D01*
X174519047Y-139192380D01*
X174614285Y-139144761D01*
X174661904Y-139097142D01*
X174709523Y-139001904D01*
X174709523Y-138906666D01*
X174661904Y-138811428D01*
X174614285Y-138763809D01*
X174519047Y-138716190D01*
X174328571Y-138668571D01*
X174233333Y-138620952D01*
X174185714Y-138573333D01*
X174138095Y-138478095D01*
X174138095Y-138382857D01*
X174185714Y-138287619D01*
X174233333Y-138240000D01*
X174328571Y-138192380D01*
X174566666Y-138192380D01*
X174709523Y-138240000D01*
X175471428Y-138668571D02*
X175614285Y-138716190D01*
X175661904Y-138763809D01*
X175709523Y-138859047D01*
X175709523Y-139001904D01*
X175661904Y-139097142D01*
X175614285Y-139144761D01*
X175519047Y-139192380D01*
X175138095Y-139192380D01*
X175138095Y-138192380D01*
X175471428Y-138192380D01*
X175566666Y-138240000D01*
X175614285Y-138287619D01*
X175661904Y-138382857D01*
X175661904Y-138478095D01*
X175614285Y-138573333D01*
X175566666Y-138620952D01*
X175471428Y-138668571D01*
X175138095Y-138668571D01*
%TD*%
M02*
