%TF.GenerationSoftware,KiCad,Pcbnew,5.1.10-88a1d61d58~90~ubuntu20.04.1*%
%TF.CreationDate,2021-10-14T14:42:22+02:00*%
%TF.ProjectId,menelaos,6d656e65-6c61-46f7-932e-6b696361645f,rev?*%
%TF.SameCoordinates,Original*%
%TF.FileFunction,Copper,L4,Bot*%
%TF.FilePolarity,Positive*%
%FSLAX46Y46*%
G04 Gerber Fmt 4.6, Leading zero omitted, Abs format (unit mm)*
G04 Created by KiCad (PCBNEW 5.1.10-88a1d61d58~90~ubuntu20.04.1) date 2021-10-14 14:42:22*
%MOMM*%
%LPD*%
G01*
G04 APERTURE LIST*
%TA.AperFunction,ComponentPad*%
%ADD10R,1.700000X1.700000*%
%TD*%
%TA.AperFunction,ComponentPad*%
%ADD11O,1.700000X1.700000*%
%TD*%
%TA.AperFunction,ComponentPad*%
%ADD12C,6.400000*%
%TD*%
%TA.AperFunction,ComponentPad*%
%ADD13C,0.800000*%
%TD*%
%TA.AperFunction,ComponentPad*%
%ADD14R,1.600000X1.600000*%
%TD*%
%TA.AperFunction,ComponentPad*%
%ADD15C,1.600000*%
%TD*%
%TA.AperFunction,ComponentPad*%
%ADD16C,2.000000*%
%TD*%
%TA.AperFunction,ComponentPad*%
%ADD17O,1.980000X3.960000*%
%TD*%
%TA.AperFunction,ComponentPad*%
%ADD18R,1.980000X3.960000*%
%TD*%
%TA.AperFunction,ComponentPad*%
%ADD19O,2.400000X1.600000*%
%TD*%
%TA.AperFunction,ComponentPad*%
%ADD20R,2.400000X1.600000*%
%TD*%
%TA.AperFunction,ComponentPad*%
%ADD21R,2.400000X2.400000*%
%TD*%
%TA.AperFunction,ComponentPad*%
%ADD22C,2.400000*%
%TD*%
%TA.AperFunction,ComponentPad*%
%ADD23R,2.200000X2.200000*%
%TD*%
%TA.AperFunction,ComponentPad*%
%ADD24O,2.200000X2.200000*%
%TD*%
%TA.AperFunction,ComponentPad*%
%ADD25C,3.000000*%
%TD*%
%TA.AperFunction,ComponentPad*%
%ADD26R,3.000000X3.000000*%
%TD*%
%TA.AperFunction,ComponentPad*%
%ADD27R,1.905000X2.000000*%
%TD*%
%TA.AperFunction,ComponentPad*%
%ADD28O,1.905000X2.000000*%
%TD*%
%TA.AperFunction,ComponentPad*%
%ADD29O,1.400000X1.400000*%
%TD*%
%TA.AperFunction,ComponentPad*%
%ADD30C,1.400000*%
%TD*%
%TA.AperFunction,ComponentPad*%
%ADD31C,1.440000*%
%TD*%
%TA.AperFunction,ComponentPad*%
%ADD32C,1.800000*%
%TD*%
%TA.AperFunction,ComponentPad*%
%ADD33R,1.800000X1.800000*%
%TD*%
%TA.AperFunction,ComponentPad*%
%ADD34C,1.524000*%
%TD*%
%TA.AperFunction,ViaPad*%
%ADD35C,0.800000*%
%TD*%
%TA.AperFunction,ViaPad*%
%ADD36C,1.500000*%
%TD*%
%TA.AperFunction,Conductor*%
%ADD37C,0.250000*%
%TD*%
%TA.AperFunction,Conductor*%
%ADD38C,0.800000*%
%TD*%
G04 APERTURE END LIST*
D10*
%TO.P,J21,1*%
%TO.N,N/C*%
X85780000Y-103000000D03*
D11*
%TO.P,J21,14*%
X85780000Y-105540000D03*
%TO.P,J21,2*%
X83240000Y-103000000D03*
%TO.P,J21,13*%
X83240000Y-105540000D03*
%TO.P,J21,3*%
X80700000Y-103000000D03*
%TO.P,J21,12*%
X80700000Y-105540000D03*
%TO.P,J21,4*%
X78160000Y-103000000D03*
%TO.P,J21,11*%
X78160000Y-105540000D03*
%TO.P,J21,5*%
X75620000Y-103000000D03*
%TO.P,J21,10*%
X75620000Y-105540000D03*
%TO.P,J21,6*%
X73080000Y-103000000D03*
%TO.P,J21,9*%
X73080000Y-105540000D03*
%TO.P,J21,7*%
X70540000Y-103000000D03*
%TO.P,J21,8*%
X70540000Y-105540000D03*
%TD*%
D12*
%TO.P,H3,1*%
%TO.N,N/C*%
X59980000Y-108500000D03*
D13*
X62380000Y-108500000D03*
X61677056Y-110197056D03*
X59980000Y-110900000D03*
X58282944Y-110197056D03*
X57580000Y-108500000D03*
X58282944Y-106802944D03*
X59980000Y-106100000D03*
X61677056Y-106802944D03*
%TD*%
D12*
%TO.P,H1,1*%
%TO.N,N/C*%
X98980000Y-75500000D03*
D13*
X101380000Y-75500000D03*
X100677056Y-77197056D03*
X98980000Y-77900000D03*
X97282944Y-77197056D03*
X96580000Y-75500000D03*
X97282944Y-73802944D03*
X98980000Y-73100000D03*
X100677056Y-73802944D03*
%TD*%
D14*
%TO.P,U14,1*%
%TO.N,N/C*%
X64800000Y-81840000D03*
D15*
%TO.P,U14,2*%
X64800000Y-84380000D03*
%TO.P,U14,3*%
X64800000Y-86920000D03*
%TO.P,U14,4*%
X64800000Y-89460000D03*
%TO.P,U14,5*%
X64800000Y-92000000D03*
%TO.P,U14,6*%
X69880000Y-92000000D03*
%TO.P,U14,7*%
X69880000Y-89460000D03*
%TO.P,U14,8*%
X69880000Y-86920000D03*
%TO.P,U14,9*%
X69880000Y-84380000D03*
%TO.P,U14,10*%
X69880000Y-81840000D03*
%TD*%
%TO.P,U12,10*%
%TO.N,N/C*%
X94180000Y-81840000D03*
%TO.P,U12,9*%
X94180000Y-84380000D03*
%TO.P,U12,8*%
X94180000Y-86920000D03*
%TO.P,U12,7*%
X94180000Y-89460000D03*
%TO.P,U12,6*%
X94180000Y-92000000D03*
%TO.P,U12,5*%
X89100000Y-92000000D03*
%TO.P,U12,4*%
X89100000Y-89460000D03*
%TO.P,U12,3*%
X89100000Y-86920000D03*
%TO.P,U12,2*%
X89100000Y-84380000D03*
D14*
%TO.P,U12,1*%
X89100000Y-81840000D03*
%TD*%
%TO.P,U10,1*%
%TO.N,N/C*%
X81000000Y-81840000D03*
D15*
%TO.P,U10,2*%
X81000000Y-84380000D03*
%TO.P,U10,3*%
X81000000Y-86920000D03*
%TO.P,U10,4*%
X81000000Y-89460000D03*
%TO.P,U10,5*%
X81000000Y-92000000D03*
%TO.P,U10,6*%
X86080000Y-92000000D03*
%TO.P,U10,7*%
X86080000Y-89460000D03*
%TO.P,U10,8*%
X86080000Y-86920000D03*
%TO.P,U10,9*%
X86080000Y-84380000D03*
%TO.P,U10,10*%
X86080000Y-81840000D03*
%TD*%
%TO.P,U8,10*%
%TO.N,N/C*%
X77980000Y-81840000D03*
%TO.P,U8,9*%
X77980000Y-84380000D03*
%TO.P,U8,8*%
X77980000Y-86920000D03*
%TO.P,U8,7*%
X77980000Y-89460000D03*
%TO.P,U8,6*%
X77980000Y-92000000D03*
%TO.P,U8,5*%
X72900000Y-92000000D03*
%TO.P,U8,4*%
X72900000Y-89460000D03*
%TO.P,U8,3*%
X72900000Y-86920000D03*
%TO.P,U8,2*%
X72900000Y-84380000D03*
D14*
%TO.P,U8,1*%
X72900000Y-81840000D03*
%TD*%
D12*
%TO.P,H2,1*%
%TO.N,N/C*%
X59980000Y-75500000D03*
D13*
X62380000Y-75500000D03*
X61677056Y-77197056D03*
X59980000Y-77900000D03*
X58282944Y-77197056D03*
X57580000Y-75500000D03*
X58282944Y-73802944D03*
X59980000Y-73100000D03*
X61677056Y-73802944D03*
%TD*%
D12*
%TO.P,H4,1*%
%TO.N,N/C*%
X98980000Y-108500000D03*
D13*
X101380000Y-108500000D03*
X100677056Y-110197056D03*
X98980000Y-110900000D03*
X97282944Y-110197056D03*
X96580000Y-108500000D03*
X97282944Y-106802944D03*
X98980000Y-106100000D03*
X100677056Y-106802944D03*
%TD*%
D11*
%TO.P,J2,2*%
%TO.N,_ones*%
X146090000Y-84910000D03*
%TO.P,J2,3*%
%TO.N,_onesBoard*%
X143550000Y-84910000D03*
%TO.P,J2,1*%
%TO.N,ones33*%
X146090000Y-87450000D03*
D10*
%TO.P,J2,4*%
%TO.N,_onesBoard*%
X143550000Y-87450000D03*
%TD*%
D11*
%TO.P,J21,8*%
%TO.N,Net-(J21-Pad8)*%
X70460000Y-150640000D03*
%TO.P,J21,7*%
%TO.N,Net-(J21-Pad7)*%
X70460000Y-148100000D03*
%TO.P,J21,9*%
%TO.N,+g*%
X73000000Y-150640000D03*
%TO.P,J21,6*%
%TO.N,+f*%
X73000000Y-148100000D03*
%TO.P,J21,10*%
%TO.N,+dp*%
X75540000Y-150640000D03*
%TO.P,J21,5*%
%TO.N,+e*%
X75540000Y-148100000D03*
%TO.P,J21,11*%
%TO.N,+ones*%
X78080000Y-150640000D03*
%TO.P,J21,4*%
%TO.N,+d*%
X78080000Y-148100000D03*
%TO.P,J21,12*%
%TO.N,+tens*%
X80620000Y-150640000D03*
%TO.P,J21,3*%
%TO.N,+c*%
X80620000Y-148100000D03*
%TO.P,J21,13*%
%TO.N,+hundreds*%
X83160000Y-150640000D03*
%TO.P,J21,2*%
%TO.N,+b*%
X83160000Y-148100000D03*
%TO.P,J21,14*%
%TO.N,+thousands*%
X85700000Y-150640000D03*
D10*
%TO.P,J21,1*%
%TO.N,+a*%
X85700000Y-148100000D03*
%TD*%
D11*
%TO.P,J20,8*%
%TO.N,Net-(J20-Pad8)*%
X149260000Y-87490000D03*
%TO.P,J20,7*%
%TO.N,Net-(J20-Pad7)*%
X149260000Y-84950000D03*
%TO.P,J20,9*%
%TO.N,_g*%
X151800000Y-87490000D03*
%TO.P,J20,6*%
%TO.N,_f*%
X151800000Y-84950000D03*
%TO.P,J20,10*%
%TO.N,_dp*%
X154340000Y-87490000D03*
%TO.P,J20,5*%
%TO.N,_e*%
X154340000Y-84950000D03*
%TO.P,J20,11*%
%TO.N,ones*%
X156880000Y-87490000D03*
%TO.P,J20,4*%
%TO.N,_d*%
X156880000Y-84950000D03*
%TO.P,J20,12*%
%TO.N,tens*%
X159420000Y-87490000D03*
%TO.P,J20,3*%
%TO.N,_c*%
X159420000Y-84950000D03*
%TO.P,J20,13*%
%TO.N,hundreds*%
X161960000Y-87490000D03*
%TO.P,J20,2*%
%TO.N,_b*%
X161960000Y-84950000D03*
%TO.P,J20,14*%
%TO.N,thousands*%
X164500000Y-87490000D03*
D10*
%TO.P,J20,1*%
%TO.N,_a*%
X164500000Y-84950000D03*
%TD*%
D13*
%TO.P,H4,1*%
%TO.N,N/C*%
X100597056Y-151902944D03*
X98900000Y-151200000D03*
X97202944Y-151902944D03*
X96500000Y-153600000D03*
X97202944Y-155297056D03*
X98900000Y-156000000D03*
X100597056Y-155297056D03*
X101300000Y-153600000D03*
D12*
X98900000Y-153600000D03*
%TD*%
D13*
%TO.P,H3,1*%
%TO.N,N/C*%
X61597056Y-151902944D03*
X59900000Y-151200000D03*
X58202944Y-151902944D03*
X57500000Y-153600000D03*
X58202944Y-155297056D03*
X59900000Y-156000000D03*
X61597056Y-155297056D03*
X62300000Y-153600000D03*
D12*
X59900000Y-153600000D03*
%TD*%
D13*
%TO.P,H2,1*%
%TO.N,N/C*%
X61597056Y-118902944D03*
X59900000Y-118200000D03*
X58202944Y-118902944D03*
X57500000Y-120600000D03*
X58202944Y-122297056D03*
X59900000Y-123000000D03*
X61597056Y-122297056D03*
X62300000Y-120600000D03*
D12*
X59900000Y-120600000D03*
%TD*%
D13*
%TO.P,H1,1*%
%TO.N,N/C*%
X100597056Y-118902944D03*
X98900000Y-118200000D03*
X97202944Y-118902944D03*
X96500000Y-120600000D03*
X97202944Y-122297056D03*
X98900000Y-123000000D03*
X100597056Y-122297056D03*
X101300000Y-120600000D03*
D12*
X98900000Y-120600000D03*
%TD*%
D15*
%TO.P,Murata-Ceramic-Capacitor-50v1-22uF1,2*%
%TO.N,POWER-IN-*%
X147300000Y-133900000D03*
%TO.P,Murata-Ceramic-Capacitor-50v1-22uF1,1*%
%TO.N,+12V*%
X147300000Y-136400000D03*
%TD*%
D16*
%TO.P,C2,2*%
%TO.N,POWER-IN-*%
X194300000Y-124400000D03*
%TO.P,C2,1*%
%TO.N,_chB*%
X194300000Y-116900000D03*
%TD*%
%TO.P,C3,2*%
%TO.N,POWER-IN-*%
X201800000Y-112050000D03*
%TO.P,C3,1*%
%TO.N,_chA*%
X194300000Y-112050000D03*
%TD*%
D15*
%TO.P,Murata-Ceramic-Capacitor-50v1-22uF2,2*%
%TO.N,POWER-IN-*%
X144450000Y-131450000D03*
%TO.P,Murata-Ceramic-Capacitor-50v1-22uF2,1*%
%TO.N,+12V*%
X146950000Y-131450000D03*
%TD*%
%TO.P,Murata-Ceramic-Capacitor-50v1-22uF3,2*%
%TO.N,POWER-IN-*%
X143600000Y-100200000D03*
%TO.P,Murata-Ceramic-Capacitor-50v1-22uF3,1*%
%TO.N,+5VP*%
X143600000Y-102700000D03*
%TD*%
%TO.P,Murata-Ceramic-Capacitor-50v1-22uF4,2*%
%TO.N,POWER-IN-*%
X133050000Y-120400000D03*
%TO.P,Murata-Ceramic-Capacitor-50v1-22uF4,1*%
%TO.N,+5VL*%
X135550000Y-120400000D03*
%TD*%
D17*
%TO.P,S4,2*%
%TO.N,POWER-IN+*%
X121000000Y-147250000D03*
D18*
%TO.P,S4,1*%
%TO.N,POWER-IN-*%
X116000000Y-147250000D03*
%TD*%
D19*
%TO.P,U16,8*%
%TO.N,+5VL*%
X134670000Y-146300000D03*
%TO.P,U16,4*%
%TO.N,POWER-IN-*%
X127050000Y-138680000D03*
%TO.P,U16,7*%
%TO.N,_save*%
X134670000Y-143760000D03*
%TO.P,U16,3*%
%TO.N,Net-(U16-Pad3)*%
X127050000Y-141220000D03*
%TO.P,U16,6*%
%TO.N,Net-(RV9-Pad2)*%
X134670000Y-141220000D03*
%TO.P,U16,2*%
%TO.N,Net-(U16-Pad2)*%
X127050000Y-143760000D03*
%TO.P,U16,5*%
%TO.N,Net-(RV10-Pad2)*%
X134670000Y-138680000D03*
D20*
%TO.P,U16,1*%
%TO.N,Net-(U16-Pad1)*%
X127050000Y-146300000D03*
%TD*%
D21*
%TO.P,C1,1*%
%TO.N,+5VL*%
X123700000Y-126000000D03*
D22*
%TO.P,C1,2*%
%TO.N,POWER-IN-*%
X128700000Y-126000000D03*
%TD*%
D23*
%TO.P,D1,1*%
%TO.N,+12V*%
X115350000Y-140175000D03*
D24*
%TO.P,D1,2*%
%TO.N,Net-(D1-Pad2)*%
X122970000Y-140175000D03*
%TD*%
D10*
%TO.P,J1,1*%
%TO.N,POWER-IN-*%
X202150000Y-139850000D03*
D11*
%TO.P,J1,2*%
X199610000Y-139850000D03*
%TO.P,J1,3*%
X197070000Y-139850000D03*
%TO.P,J1,4*%
X194530000Y-139850000D03*
%TO.P,J1,5*%
X191990000Y-139850000D03*
%TD*%
D10*
%TO.P,J3,1*%
%TO.N,+12V*%
X128650000Y-87700000D03*
D11*
%TO.P,J3,2*%
X128650000Y-90240000D03*
%TO.P,J3,3*%
X128650000Y-92780000D03*
%TO.P,J3,4*%
X128650000Y-95320000D03*
%TO.P,J3,5*%
X128650000Y-97860000D03*
%TD*%
%TO.P,J4,5*%
%TO.N,+5VP*%
X173440000Y-151500000D03*
%TO.P,J4,4*%
X175980000Y-151500000D03*
%TO.P,J4,3*%
X178520000Y-151500000D03*
%TO.P,J4,2*%
X181060000Y-151500000D03*
D10*
%TO.P,J4,1*%
X183600000Y-151500000D03*
%TD*%
D11*
%TO.P,J5,5*%
%TO.N,+3V3*%
X190800000Y-153160000D03*
%TO.P,J5,4*%
X190800000Y-150620000D03*
%TO.P,J5,3*%
X190800000Y-148080000D03*
%TO.P,J5,2*%
X190800000Y-145540000D03*
D10*
%TO.P,J5,1*%
X190800000Y-143000000D03*
%TD*%
%TO.P,J6,4*%
%TO.N,_thousandsBoard*%
X198600000Y-129350000D03*
D11*
%TO.P,J6,1*%
%TO.N,thousands33*%
X196060000Y-129350000D03*
%TO.P,J6,3*%
%TO.N,_thousandsBoard*%
X198600000Y-131890000D03*
%TO.P,J6,2*%
%TO.N,_thousands*%
X196060000Y-131890000D03*
%TD*%
D10*
%TO.P,J7,4*%
%TO.N,_tensBoard*%
X153100000Y-132800000D03*
D11*
%TO.P,J7,1*%
%TO.N,Net-(J7-Pad1)*%
X150560000Y-132800000D03*
%TO.P,J7,3*%
%TO.N,_tensBoard*%
X153100000Y-135340000D03*
%TO.P,J7,2*%
%TO.N,_tens*%
X150560000Y-135340000D03*
%TD*%
%TO.P,J8,2*%
%TO.N,_hundreds*%
X169960000Y-87640000D03*
%TO.P,J8,3*%
%TO.N,_hundredsBoard*%
X172500000Y-87640000D03*
%TO.P,J8,1*%
%TO.N,hundreds33*%
X169960000Y-85100000D03*
D10*
%TO.P,J8,4*%
%TO.N,_hundredsBoard*%
X172500000Y-85100000D03*
%TD*%
D11*
%TO.P,J9,15*%
%TO.N,+5VL*%
X157850000Y-134710000D03*
%TO.P,J9,14*%
%TO.N,POWER-IN-*%
X157850000Y-132170000D03*
%TO.P,J9,13*%
%TO.N,_mode*%
X157850000Y-129630000D03*
%TO.P,J9,12*%
%TO.N,_dpBoard*%
X157850000Y-127090000D03*
%TO.P,J9,11*%
%TO.N,_zero*%
X157850000Y-124550000D03*
%TO.P,J9,10*%
%TO.N,_a1*%
X157850000Y-122010000D03*
%TO.P,J9,9*%
%TO.N,_a2*%
X157850000Y-119470000D03*
%TO.P,J9,8*%
%TO.N,_onesBoard*%
X157850000Y-116930000D03*
%TO.P,J9,7*%
%TO.N,Net-(J9-Pad7)*%
X157850000Y-114390000D03*
%TO.P,J9,6*%
%TO.N,_clk*%
X157850000Y-111850000D03*
%TO.P,J9,5*%
%TO.N,Net-(J9-Pad5)*%
X157850000Y-109310000D03*
%TO.P,J9,4*%
%TO.N,_config*%
X157850000Y-106770000D03*
%TO.P,J9,3*%
%TO.N,Net-(J9-Pad3)*%
X157850000Y-104230000D03*
%TO.P,J9,2*%
%TO.N,Net-(J9-Pad2)*%
X157850000Y-101690000D03*
D10*
%TO.P,J9,1*%
%TO.N,Net-(J9-Pad1)*%
X157850000Y-99150000D03*
%TD*%
%TO.P,J10,1*%
%TO.N,_tensBoard*%
X191250000Y-99150000D03*
D11*
%TO.P,J10,2*%
%TO.N,_hundredsBoard*%
X191250000Y-101690000D03*
%TO.P,J10,3*%
%TO.N,Net-(J10-Pad3)*%
X191250000Y-104230000D03*
%TO.P,J10,4*%
%TO.N,Net-(J10-Pad4)*%
X191250000Y-106770000D03*
%TO.P,J10,5*%
%TO.N,_chA*%
X191250000Y-109310000D03*
%TO.P,J10,6*%
%TO.N,_a4*%
X191250000Y-111850000D03*
%TO.P,J10,7*%
%TO.N,_a3*%
X191250000Y-114390000D03*
%TO.P,J10,8*%
%TO.N,_chB*%
X191250000Y-116930000D03*
%TO.P,J10,9*%
%TO.N,Net-(J10-Pad9)*%
X191250000Y-119470000D03*
%TO.P,J10,10*%
%TO.N,Net-(J10-Pad10)*%
X191250000Y-122010000D03*
%TO.P,J10,11*%
%TO.N,_thousandsBoard*%
X191250000Y-124550000D03*
%TO.P,J10,12*%
%TO.N,Net-(J10-Pad12)*%
X191250000Y-127090000D03*
%TO.P,J10,13*%
%TO.N,_save*%
X191250000Y-129630000D03*
%TO.P,J10,14*%
%TO.N,POWER-IN-*%
X191250000Y-132170000D03*
%TO.P,J10,15*%
%TO.N,+3V3*%
X191250000Y-134710000D03*
%TD*%
%TO.P,J11,2*%
%TO.N,a*%
X125710000Y-110500000D03*
D10*
%TO.P,J11,1*%
%TO.N,_a*%
X128250000Y-110500000D03*
%TD*%
D11*
%TO.P,J12,2*%
%TO.N,b*%
X129340000Y-106850000D03*
D10*
%TO.P,J12,1*%
%TO.N,_b*%
X126800000Y-106850000D03*
%TD*%
%TO.P,J13,1*%
%TO.N,_c*%
X125750000Y-114450000D03*
D11*
%TO.P,J13,2*%
%TO.N,c*%
X128290000Y-114450000D03*
%TD*%
D10*
%TO.P,J14,1*%
%TO.N,_d*%
X125650000Y-118350000D03*
D11*
%TO.P,J14,2*%
%TO.N,d*%
X128190000Y-118350000D03*
%TD*%
D10*
%TO.P,J15,1*%
%TO.N,_e*%
X127200000Y-134300000D03*
D11*
%TO.P,J15,2*%
%TO.N,e*%
X127200000Y-131760000D03*
%TD*%
%TO.P,J16,2*%
%TO.N,f*%
X129390000Y-102000000D03*
D10*
%TO.P,J16,1*%
%TO.N,_f*%
X126850000Y-102000000D03*
%TD*%
D11*
%TO.P,J17,2*%
%TO.N,g*%
X149100000Y-93160000D03*
D10*
%TO.P,J17,1*%
%TO.N,_g*%
X149100000Y-95700000D03*
%TD*%
%TO.P,J18,1*%
%TO.N,_dp*%
X152600000Y-95700000D03*
D11*
%TO.P,J18,2*%
%TO.N,_dpBoard*%
X152600000Y-93160000D03*
%TD*%
D10*
%TO.P,J19,1*%
%TO.N,+5VP*%
X181750000Y-88900000D03*
D11*
%TO.P,J19,2*%
%TO.N,Net-(J19-Pad2)*%
X179210000Y-88900000D03*
%TO.P,J19,3*%
%TO.N,POWER-IN-*%
X176670000Y-88900000D03*
%TD*%
D25*
%TO.P,J23,2*%
%TO.N,POWER-IN-*%
X163670000Y-148000000D03*
%TO.P,J23,3*%
%TO.N,white*%
X158590000Y-148000000D03*
D26*
%TO.P,J23,1*%
%TO.N,POWER-IN-*%
X168750000Y-148000000D03*
D25*
%TO.P,J23,4*%
%TO.N,yellow*%
X153510000Y-148000000D03*
%TO.P,J23,5*%
%TO.N,gray*%
X148430000Y-148000000D03*
%TD*%
D27*
%TO.P,Q1,1*%
%TO.N,Net-(D1-Pad2)*%
X139300000Y-134050000D03*
D28*
%TO.P,Q1,2*%
%TO.N,POWER-IN+*%
X141840000Y-134050000D03*
%TO.P,Q1,3*%
%TO.N,+12V*%
X144380000Y-134050000D03*
%TD*%
D29*
%TO.P,R1,2*%
%TO.N,ones33*%
X141600000Y-91870000D03*
D30*
%TO.P,R1,1*%
%TO.N,_ones*%
X141600000Y-84250000D03*
%TD*%
%TO.P,R2,1*%
%TO.N,ones33*%
X136450000Y-84450000D03*
D29*
%TO.P,R2,2*%
%TO.N,POWER-IN-*%
X128830000Y-84450000D03*
%TD*%
D30*
%TO.P,R3,1*%
%TO.N,_tens*%
X157550000Y-142500000D03*
D29*
%TO.P,R3,2*%
%TO.N,tens33*%
X165170000Y-142500000D03*
%TD*%
D30*
%TO.P,R4,1*%
%TO.N,tens33*%
X167300000Y-142500000D03*
D29*
%TO.P,R4,2*%
%TO.N,POWER-IN-*%
X174920000Y-142500000D03*
%TD*%
%TO.P,R5,2*%
%TO.N,hundreds33*%
X183220000Y-86950000D03*
D30*
%TO.P,R5,1*%
%TO.N,_hundreds*%
X175600000Y-86950000D03*
%TD*%
%TO.P,R6,1*%
%TO.N,hundreds33*%
X183250000Y-84350000D03*
D29*
%TO.P,R6,2*%
%TO.N,POWER-IN-*%
X175630000Y-84350000D03*
%TD*%
D30*
%TO.P,R7,1*%
%TO.N,_thousands*%
X138750000Y-84300000D03*
D29*
%TO.P,R7,2*%
%TO.N,thousands33*%
X138750000Y-91920000D03*
%TD*%
%TO.P,R8,2*%
%TO.N,POWER-IN-*%
X201700000Y-136120000D03*
D30*
%TO.P,R8,1*%
%TO.N,thousands33*%
X201700000Y-128500000D03*
%TD*%
D29*
%TO.P,R9,2*%
%TO.N,POWER-IN-*%
X134375000Y-127630000D03*
D30*
%TO.P,R9,1*%
%TO.N,Net-(D1-Pad2)*%
X134375000Y-135250000D03*
%TD*%
D29*
%TO.P,R10,2*%
%TO.N,_save*%
X182025000Y-134130000D03*
D30*
%TO.P,R10,1*%
%TO.N,+5VL*%
X182025000Y-141750000D03*
%TD*%
D29*
%TO.P,R11,2*%
%TO.N,Net-(R11-Pad2)*%
X184350000Y-141720000D03*
D30*
%TO.P,R11,1*%
%TO.N,+5VL*%
X184350000Y-134100000D03*
%TD*%
%TO.P,R12,1*%
%TO.N,Net-(R11-Pad2)*%
X190550000Y-137150000D03*
D29*
%TO.P,R12,2*%
%TO.N,POWER-IN-*%
X198170000Y-137150000D03*
%TD*%
%TO.P,R13,2*%
%TO.N,Net-(R13-Pad2)*%
X202020000Y-107950000D03*
D30*
%TO.P,R13,1*%
%TO.N,+5VL*%
X194400000Y-107950000D03*
%TD*%
%TO.P,R14,1*%
%TO.N,Net-(R11-Pad2)*%
X187000000Y-141750000D03*
D29*
%TO.P,R14,2*%
%TO.N,_zero*%
X187000000Y-149370000D03*
%TD*%
D30*
%TO.P,R15,1*%
%TO.N,Net-(R13-Pad2)*%
X201500000Y-105300000D03*
D29*
%TO.P,R15,2*%
%TO.N,POWER-IN-*%
X201500000Y-97680000D03*
%TD*%
D30*
%TO.P,R16,1*%
%TO.N,+5VL*%
X125750000Y-87750000D03*
D29*
%TO.P,R16,2*%
%TO.N,Net-(R16-Pad2)*%
X125750000Y-95370000D03*
%TD*%
%TO.P,R17,2*%
%TO.N,POWER-IN-*%
X125050000Y-105170000D03*
D30*
%TO.P,R17,1*%
%TO.N,Net-(R16-Pad2)*%
X125050000Y-97550000D03*
%TD*%
%TO.P,R18,1*%
%TO.N,Net-(R13-Pad2)*%
X196400000Y-105300000D03*
D29*
%TO.P,R18,2*%
%TO.N,_mode*%
X196400000Y-97680000D03*
%TD*%
%TO.P,R19,2*%
%TO.N,_config*%
X115130000Y-97750000D03*
D30*
%TO.P,R19,1*%
%TO.N,Net-(R16-Pad2)*%
X122750000Y-97750000D03*
%TD*%
D31*
%TO.P,RV1,1*%
%TO.N,_a*%
X121250000Y-108000000D03*
%TO.P,RV1,2*%
%TO.N,a*%
X118710000Y-108000000D03*
%TO.P,RV1,3*%
%TO.N,POWER-IN-*%
X116170000Y-108000000D03*
%TD*%
%TO.P,RV2,3*%
%TO.N,POWER-IN-*%
X116170000Y-115250000D03*
%TO.P,RV2,2*%
%TO.N,b*%
X118710000Y-115250000D03*
%TO.P,RV2,1*%
%TO.N,_b*%
X121250000Y-115250000D03*
%TD*%
%TO.P,RV3,1*%
%TO.N,_c*%
X121250000Y-122500000D03*
%TO.P,RV3,2*%
%TO.N,c*%
X118710000Y-122500000D03*
%TO.P,RV3,3*%
%TO.N,POWER-IN-*%
X116170000Y-122500000D03*
%TD*%
%TO.P,RV4,3*%
%TO.N,POWER-IN-*%
X116170000Y-129750000D03*
%TO.P,RV4,2*%
%TO.N,d*%
X118710000Y-129750000D03*
%TO.P,RV4,1*%
%TO.N,_d*%
X121250000Y-129750000D03*
%TD*%
%TO.P,RV5,1*%
%TO.N,_e*%
X121250000Y-137000000D03*
%TO.P,RV5,2*%
%TO.N,e*%
X118710000Y-137000000D03*
%TO.P,RV5,3*%
%TO.N,POWER-IN-*%
X116170000Y-137000000D03*
%TD*%
%TO.P,RV6,3*%
%TO.N,POWER-IN-*%
X116170000Y-101750000D03*
%TO.P,RV6,2*%
%TO.N,f*%
X118710000Y-101750000D03*
%TO.P,RV6,1*%
%TO.N,_f*%
X121250000Y-101750000D03*
%TD*%
%TO.P,RV7,1*%
%TO.N,_g*%
X133600000Y-94000000D03*
%TO.P,RV7,2*%
%TO.N,g*%
X133600000Y-91460000D03*
%TO.P,RV7,3*%
%TO.N,POWER-IN-*%
X133600000Y-88920000D03*
%TD*%
%TO.P,RV8,1*%
%TO.N,_dp*%
X151900000Y-100900000D03*
%TO.P,RV8,2*%
%TO.N,_dpBoard*%
X149360000Y-100900000D03*
%TO.P,RV8,3*%
%TO.N,POWER-IN-*%
X146820000Y-100900000D03*
%TD*%
%TO.P,RV9,3*%
%TO.N,POWER-IN-*%
X132900000Y-133930000D03*
%TO.P,RV9,2*%
%TO.N,Net-(RV9-Pad2)*%
X132900000Y-131390000D03*
%TO.P,RV9,1*%
%TO.N,+12V*%
X132900000Y-128850000D03*
%TD*%
%TO.P,RV10,1*%
%TO.N,+5VL*%
X133350000Y-151050000D03*
%TO.P,RV10,2*%
%TO.N,Net-(RV10-Pad2)*%
X130810000Y-151050000D03*
%TO.P,RV10,3*%
%TO.N,POWER-IN-*%
X128270000Y-151050000D03*
%TD*%
%TO.P,RV11,3*%
%TO.N,POWER-IN-*%
X200600000Y-123680000D03*
%TO.P,RV11,2*%
%TO.N,_chB*%
X200600000Y-121140000D03*
%TO.P,RV11,1*%
%TO.N,gray*%
X200600000Y-118600000D03*
%TD*%
%TO.P,RV12,3*%
%TO.N,POWER-IN-*%
X148470000Y-140850000D03*
%TO.P,RV12,2*%
%TO.N,_chA*%
X151010000Y-140850000D03*
%TO.P,RV12,1*%
%TO.N,yellow*%
X153550000Y-140850000D03*
%TD*%
%TO.P,RV13,1*%
%TO.N,+5VP*%
X176550000Y-146350000D03*
%TO.P,RV13,2*%
%TO.N,white*%
X179090000Y-146350000D03*
%TO.P,RV13,3*%
%TO.N,POWER-IN-*%
X181630000Y-146350000D03*
%TD*%
D18*
%TO.P,S1,1*%
%TO.N,_zero*%
X195500000Y-148000000D03*
D17*
%TO.P,S1,2*%
%TO.N,POWER-IN-*%
X200500000Y-148000000D03*
%TD*%
D18*
%TO.P,S2,1*%
%TO.N,_mode*%
X194500000Y-90000000D03*
D17*
%TO.P,S2,2*%
%TO.N,POWER-IN-*%
X199500000Y-90000000D03*
%TD*%
%TO.P,S3,2*%
%TO.N,POWER-IN-*%
X121500000Y-90000000D03*
D18*
%TO.P,S3,1*%
%TO.N,_config*%
X116500000Y-90000000D03*
%TD*%
D19*
%TO.P,U1,20*%
%TO.N,+5VP*%
X172670000Y-137750000D03*
%TO.P,U1,10*%
%TO.N,POWER-IN-*%
X165050000Y-114890000D03*
%TO.P,U1,19*%
%TO.N,_ones*%
X172670000Y-135210000D03*
%TO.P,U1,9*%
%TO.N,/7-segmet-display/BCD_out4*%
X165050000Y-117430000D03*
%TO.P,U1,18*%
%TO.N,/7-segmet-display/BCD_out1*%
X172670000Y-132670000D03*
%TO.P,U1,8*%
%TO.N,_a4*%
X165050000Y-119970000D03*
%TO.P,U1,17*%
%TO.N,_a1*%
X172670000Y-130130000D03*
%TO.P,U1,7*%
%TO.N,/7-segmet-display/BCD_out3*%
X165050000Y-122510000D03*
%TO.P,U1,16*%
%TO.N,/7-segmet-display/BCD_out2*%
X172670000Y-127590000D03*
%TO.P,U1,6*%
%TO.N,_a3*%
X165050000Y-125050000D03*
%TO.P,U1,15*%
%TO.N,_a2*%
X172670000Y-125050000D03*
%TO.P,U1,5*%
%TO.N,/7-segmet-display/BCD_out2*%
X165050000Y-127590000D03*
%TO.P,U1,14*%
%TO.N,/7-segmet-display/BCD_out3*%
X172670000Y-122510000D03*
%TO.P,U1,4*%
%TO.N,_a2*%
X165050000Y-130130000D03*
%TO.P,U1,13*%
%TO.N,_a3*%
X172670000Y-119970000D03*
%TO.P,U1,3*%
%TO.N,/7-segmet-display/BCD_out1*%
X165050000Y-132670000D03*
%TO.P,U1,12*%
%TO.N,/7-segmet-display/BCD_out4*%
X172670000Y-117430000D03*
%TO.P,U1,2*%
%TO.N,_a1*%
X165050000Y-135210000D03*
%TO.P,U1,11*%
%TO.N,_a4*%
X172670000Y-114890000D03*
D20*
%TO.P,U1,1*%
%TO.N,_thousands*%
X165050000Y-137750000D03*
%TD*%
%TO.P,U2,1*%
%TO.N,Net-(U2-Pad1)*%
X164850000Y-111100000D03*
D19*
%TO.P,U2,9*%
%TO.N,Net-(U2-Pad9)*%
X172470000Y-93320000D03*
%TO.P,U2,2*%
%TO.N,Net-(U2-Pad2)*%
X164850000Y-108560000D03*
%TO.P,U2,10*%
%TO.N,Net-(U2-Pad10)*%
X172470000Y-95860000D03*
%TO.P,U2,3*%
%TO.N,Net-(U2-Pad3)*%
X164850000Y-106020000D03*
%TO.P,U2,11*%
%TO.N,Net-(U2-Pad11)*%
X172470000Y-98400000D03*
%TO.P,U2,4*%
%TO.N,Net-(U2-Pad4)*%
X164850000Y-103480000D03*
%TO.P,U2,12*%
%TO.N,Net-(J19-Pad2)*%
X172470000Y-100940000D03*
%TO.P,U2,5*%
%TO.N,Net-(U2-Pad5)*%
X164850000Y-100940000D03*
%TO.P,U2,13*%
%TO.N,POWER-IN-*%
X172470000Y-103480000D03*
%TO.P,U2,6*%
%TO.N,Net-(U2-Pad6)*%
X164850000Y-98400000D03*
%TO.P,U2,14*%
%TO.N,_clk*%
X172470000Y-106020000D03*
%TO.P,U2,7*%
%TO.N,Net-(U2-Pad7)*%
X164850000Y-95860000D03*
%TO.P,U2,15*%
%TO.N,Net-(U2-Pad10)*%
X172470000Y-108560000D03*
%TO.P,U2,8*%
%TO.N,POWER-IN-*%
X164850000Y-93320000D03*
%TO.P,U2,16*%
%TO.N,+5VP*%
X172470000Y-111100000D03*
%TD*%
D20*
%TO.P,U3,1*%
%TO.N,Net-(U2-Pad3)*%
X176300000Y-130250000D03*
D19*
%TO.P,U3,8*%
%TO.N,_hundreds*%
X183920000Y-115010000D03*
%TO.P,U3,2*%
%TO.N,_thousands*%
X176300000Y-127710000D03*
%TO.P,U3,9*%
%TO.N,Net-(U2-Pad7)*%
X183920000Y-117550000D03*
%TO.P,U3,3*%
%TO.N,Net-(U2-Pad2)*%
X176300000Y-125170000D03*
%TO.P,U3,10*%
%TO.N,N/C*%
X183920000Y-120090000D03*
%TO.P,U3,4*%
%TO.N,_ones*%
X176300000Y-122630000D03*
%TO.P,U3,11*%
%TO.N,N/C*%
X183920000Y-122630000D03*
%TO.P,U3,5*%
%TO.N,Net-(U2-Pad4)*%
X176300000Y-120090000D03*
%TO.P,U3,12*%
%TO.N,N/C*%
X183920000Y-125170000D03*
%TO.P,U3,6*%
%TO.N,_tens*%
X176300000Y-117550000D03*
%TO.P,U3,13*%
%TO.N,N/C*%
X183920000Y-127710000D03*
%TO.P,U3,7*%
%TO.N,POWER-IN-*%
X176300000Y-115010000D03*
%TO.P,U3,14*%
%TO.N,+5VP*%
X183920000Y-130250000D03*
%TD*%
%TO.P,U4,16*%
%TO.N,+5VP*%
X132880000Y-99500000D03*
%TO.P,U4,8*%
%TO.N,POWER-IN-*%
X140500000Y-117280000D03*
%TO.P,U4,15*%
%TO.N,f*%
X132880000Y-102040000D03*
%TO.P,U4,7*%
%TO.N,/7-segmet-display/BCD_out1*%
X140500000Y-114740000D03*
%TO.P,U4,14*%
%TO.N,g*%
X132880000Y-104580000D03*
%TO.P,U4,6*%
%TO.N,/7-segmet-display/BCD_out4*%
X140500000Y-112200000D03*
%TO.P,U4,13*%
%TO.N,a*%
X132880000Y-107120000D03*
%TO.P,U4,5*%
%TO.N,POWER-IN-*%
X140500000Y-109660000D03*
%TO.P,U4,12*%
%TO.N,b*%
X132880000Y-109660000D03*
%TO.P,U4,4*%
%TO.N,+5VP*%
X140500000Y-107120000D03*
%TO.P,U4,11*%
%TO.N,c*%
X132880000Y-112200000D03*
%TO.P,U4,3*%
%TO.N,+5VP*%
X140500000Y-104580000D03*
%TO.P,U4,10*%
%TO.N,d*%
X132880000Y-114740000D03*
%TO.P,U4,2*%
%TO.N,/7-segmet-display/BCD_out3*%
X140500000Y-102040000D03*
%TO.P,U4,9*%
%TO.N,e*%
X132880000Y-117280000D03*
D20*
%TO.P,U4,1*%
%TO.N,/7-segmet-display/BCD_out2*%
X140500000Y-99500000D03*
%TD*%
%TO.P,U5,1*%
%TO.N,_tens*%
X145750000Y-128600000D03*
D19*
%TO.P,U5,11*%
%TO.N,_a4*%
X153370000Y-105740000D03*
%TO.P,U5,2*%
%TO.N,_a1*%
X145750000Y-126060000D03*
%TO.P,U5,12*%
%TO.N,/7-segmet-display/BCD_out4*%
X153370000Y-108280000D03*
%TO.P,U5,3*%
%TO.N,/7-segmet-display/BCD_out1*%
X145750000Y-123520000D03*
%TO.P,U5,13*%
%TO.N,_a3*%
X153370000Y-110820000D03*
%TO.P,U5,4*%
%TO.N,_a2*%
X145750000Y-120980000D03*
%TO.P,U5,14*%
%TO.N,/7-segmet-display/BCD_out3*%
X153370000Y-113360000D03*
%TO.P,U5,5*%
%TO.N,/7-segmet-display/BCD_out2*%
X145750000Y-118440000D03*
%TO.P,U5,15*%
%TO.N,_a2*%
X153370000Y-115900000D03*
%TO.P,U5,6*%
%TO.N,_a3*%
X145750000Y-115900000D03*
%TO.P,U5,16*%
%TO.N,/7-segmet-display/BCD_out2*%
X153370000Y-118440000D03*
%TO.P,U5,7*%
%TO.N,/7-segmet-display/BCD_out3*%
X145750000Y-113360000D03*
%TO.P,U5,17*%
%TO.N,_a1*%
X153370000Y-120980000D03*
%TO.P,U5,8*%
%TO.N,_a4*%
X145750000Y-110820000D03*
%TO.P,U5,18*%
%TO.N,/7-segmet-display/BCD_out1*%
X153370000Y-123520000D03*
%TO.P,U5,9*%
%TO.N,/7-segmet-display/BCD_out4*%
X145750000Y-108280000D03*
%TO.P,U5,19*%
%TO.N,_hundreds*%
X153370000Y-126060000D03*
%TO.P,U5,10*%
%TO.N,POWER-IN-*%
X145750000Y-105740000D03*
%TO.P,U5,20*%
%TO.N,+5VP*%
X153370000Y-128600000D03*
%TD*%
D20*
%TO.P,U6,1*%
%TO.N,Net-(U2-Pad3)*%
X176300000Y-111100000D03*
D19*
%TO.P,U6,9*%
%TO.N,Net-(U6-Pad9)*%
X183920000Y-93320000D03*
%TO.P,U6,2*%
%TO.N,Net-(U2-Pad2)*%
X176300000Y-108560000D03*
%TO.P,U6,10*%
%TO.N,Net-(U6-Pad10)*%
X183920000Y-95860000D03*
%TO.P,U6,3*%
%TO.N,Net-(U2-Pad4)*%
X176300000Y-106020000D03*
%TO.P,U6,11*%
%TO.N,Net-(U6-Pad11)*%
X183920000Y-98400000D03*
%TO.P,U6,4*%
%TO.N,Net-(U2-Pad7)*%
X176300000Y-103480000D03*
%TO.P,U6,12*%
%TO.N,Net-(U6-Pad12)*%
X183920000Y-100940000D03*
%TO.P,U6,5*%
%TO.N,Net-(U6-Pad5)*%
X176300000Y-100940000D03*
%TO.P,U6,13*%
%TO.N,hundreds*%
X183920000Y-103480000D03*
%TO.P,U6,6*%
%TO.N,Net-(U6-Pad6)*%
X176300000Y-98400000D03*
%TO.P,U6,14*%
%TO.N,tens*%
X183920000Y-106020000D03*
%TO.P,U6,7*%
%TO.N,Net-(U6-Pad7)*%
X176300000Y-95860000D03*
%TO.P,U6,15*%
%TO.N,ones*%
X183920000Y-108560000D03*
%TO.P,U6,8*%
%TO.N,POWER-IN-*%
X176300000Y-93320000D03*
%TO.P,U6,16*%
%TO.N,thousands*%
X183920000Y-111100000D03*
%TD*%
D14*
%TO.P,U8,1*%
%TO.N,+ones*%
X72820000Y-126940000D03*
D15*
%TO.P,U8,2*%
%TO.N,+f*%
X72820000Y-129480000D03*
%TO.P,U8,3*%
%TO.N,+g*%
X72820000Y-132020000D03*
%TO.P,U8,4*%
%TO.N,+e*%
X72820000Y-134560000D03*
%TO.P,U8,5*%
%TO.N,+d*%
X72820000Y-137100000D03*
%TO.P,U8,6*%
%TO.N,+ones*%
X77900000Y-137100000D03*
%TO.P,U8,7*%
%TO.N,+dp*%
X77900000Y-134560000D03*
%TO.P,U8,8*%
%TO.N,+c*%
X77900000Y-132020000D03*
%TO.P,U8,9*%
%TO.N,+b*%
X77900000Y-129480000D03*
%TO.P,U8,10*%
%TO.N,+a*%
X77900000Y-126940000D03*
%TD*%
%TO.P,U10,10*%
%TO.N,+a*%
X86000000Y-126940000D03*
%TO.P,U10,9*%
%TO.N,+b*%
X86000000Y-129480000D03*
%TO.P,U10,8*%
%TO.N,+c*%
X86000000Y-132020000D03*
%TO.P,U10,7*%
%TO.N,+dp*%
X86000000Y-134560000D03*
%TO.P,U10,6*%
%TO.N,+tens*%
X86000000Y-137100000D03*
%TO.P,U10,5*%
%TO.N,+d*%
X80920000Y-137100000D03*
%TO.P,U10,4*%
%TO.N,+e*%
X80920000Y-134560000D03*
%TO.P,U10,3*%
%TO.N,+g*%
X80920000Y-132020000D03*
%TO.P,U10,2*%
%TO.N,+f*%
X80920000Y-129480000D03*
D14*
%TO.P,U10,1*%
%TO.N,+tens*%
X80920000Y-126940000D03*
%TD*%
%TO.P,U12,1*%
%TO.N,+hundreds*%
X89020000Y-126940000D03*
D15*
%TO.P,U12,2*%
%TO.N,+f*%
X89020000Y-129480000D03*
%TO.P,U12,3*%
%TO.N,+g*%
X89020000Y-132020000D03*
%TO.P,U12,4*%
%TO.N,+e*%
X89020000Y-134560000D03*
%TO.P,U12,5*%
%TO.N,+d*%
X89020000Y-137100000D03*
%TO.P,U12,6*%
%TO.N,+hundreds*%
X94100000Y-137100000D03*
%TO.P,U12,7*%
%TO.N,+dp*%
X94100000Y-134560000D03*
%TO.P,U12,8*%
%TO.N,+c*%
X94100000Y-132020000D03*
%TO.P,U12,9*%
%TO.N,+b*%
X94100000Y-129480000D03*
%TO.P,U12,10*%
%TO.N,+a*%
X94100000Y-126940000D03*
%TD*%
%TO.P,U14,10*%
%TO.N,+a*%
X69800000Y-126940000D03*
%TO.P,U14,9*%
%TO.N,+b*%
X69800000Y-129480000D03*
%TO.P,U14,8*%
%TO.N,+c*%
X69800000Y-132020000D03*
%TO.P,U14,7*%
%TO.N,+dp*%
X69800000Y-134560000D03*
%TO.P,U14,6*%
%TO.N,+thousands*%
X69800000Y-137100000D03*
%TO.P,U14,5*%
%TO.N,+d*%
X64720000Y-137100000D03*
%TO.P,U14,4*%
%TO.N,+e*%
X64720000Y-134560000D03*
%TO.P,U14,3*%
%TO.N,+g*%
X64720000Y-132020000D03*
%TO.P,U14,2*%
%TO.N,+f*%
X64720000Y-129480000D03*
D14*
%TO.P,U14,1*%
%TO.N,+thousands*%
X64720000Y-126940000D03*
%TD*%
D32*
%TO.P,U17,3*%
%TO.N,+5VP*%
X121430000Y-133150000D03*
%TO.P,U17,2*%
%TO.N,POWER-IN-*%
X118890000Y-133150000D03*
D33*
%TO.P,U17,1*%
%TO.N,+12V*%
X116350000Y-133150000D03*
%TD*%
%TO.P,U18,1*%
%TO.N,+12V*%
X139800000Y-122750000D03*
D32*
%TO.P,U18,2*%
%TO.N,POWER-IN-*%
X139800000Y-125290000D03*
%TO.P,U18,3*%
%TO.N,+5VL*%
X139800000Y-127830000D03*
%TD*%
D34*
%TO.P,U24,1*%
%TO.N,Net-(J9-Pad1)*%
X161954000Y-99116000D03*
%TO.P,U24,2*%
%TO.N,Net-(J9-Pad2)*%
X161954000Y-101656000D03*
%TO.P,U24,3*%
%TO.N,Net-(J9-Pad3)*%
X161954000Y-104196000D03*
%TO.P,U24,4*%
%TO.N,_config*%
X161954000Y-106736000D03*
%TO.P,U24,5*%
%TO.N,Net-(J9-Pad5)*%
X161954000Y-109276000D03*
%TO.P,U24,6*%
%TO.N,_clk*%
X161954000Y-111816000D03*
%TO.P,U24,7*%
%TO.N,Net-(J9-Pad7)*%
X161954000Y-114356000D03*
%TO.P,U24,8*%
%TO.N,_onesBoard*%
X161954000Y-116896000D03*
%TO.P,U24,9*%
%TO.N,_a2*%
X161954000Y-119436000D03*
%TO.P,U24,10*%
%TO.N,_a1*%
X161954000Y-121976000D03*
%TO.P,U24,11*%
%TO.N,_zero*%
X161954000Y-124516000D03*
%TO.P,U24,12*%
%TO.N,_dpBoard*%
X161954000Y-127056000D03*
%TO.P,U24,13*%
%TO.N,_mode*%
X161954000Y-129596000D03*
%TO.P,U24,14*%
%TO.N,POWER-IN-*%
X161954000Y-132136000D03*
X161954000Y-132136000D03*
%TO.P,U24,15*%
%TO.N,+5VL*%
X161954000Y-134676000D03*
%TO.P,U24,16*%
%TO.N,+3V3*%
X186846000Y-134676000D03*
%TO.P,U24,17*%
%TO.N,POWER-IN-*%
X186846000Y-132136000D03*
%TO.P,U24,18*%
%TO.N,_save*%
X186846000Y-129596000D03*
%TO.P,U24,19*%
%TO.N,Net-(J10-Pad12)*%
X186846000Y-127056000D03*
%TO.P,U24,20*%
%TO.N,_thousandsBoard*%
X186846000Y-124516000D03*
%TO.P,U24,21*%
%TO.N,Net-(J10-Pad10)*%
X186846000Y-121976000D03*
%TO.P,U24,22*%
%TO.N,Net-(J10-Pad9)*%
X186846000Y-119436000D03*
%TO.P,U24,23*%
%TO.N,_chB*%
X186846000Y-116896000D03*
%TO.P,U24,24*%
%TO.N,_a3*%
X186846000Y-114356000D03*
%TO.P,U24,25*%
%TO.N,_a4*%
X186846000Y-111816000D03*
%TO.P,U24,26*%
%TO.N,_chA*%
X186846000Y-109276000D03*
%TO.P,U24,27*%
%TO.N,Net-(J10-Pad4)*%
X186846000Y-106736000D03*
%TO.P,U24,28*%
%TO.N,Net-(J10-Pad3)*%
X186846000Y-104196000D03*
%TO.P,U24,29*%
%TO.N,_hundredsBoard*%
X186846000Y-101656000D03*
%TO.P,U24,30*%
%TO.N,_tensBoard*%
X186846000Y-99116000D03*
%TD*%
D35*
%TO.N,*%
X75500000Y-93430000D03*
X85570000Y-93830000D03*
X83380000Y-87100000D03*
X83580000Y-98900000D03*
X67280000Y-105450000D03*
X66630000Y-84600000D03*
X75670000Y-94690000D03*
X75670000Y-94690000D03*
X78880000Y-94500000D03*
X79279999Y-90949999D03*
X87620000Y-87500000D03*
X75680000Y-99250000D03*
X65905000Y-99250000D03*
X75980000Y-82050000D03*
X64780000Y-107500000D03*
X77980000Y-107550000D03*
X85250000Y-94790000D03*
X81210000Y-94310000D03*
X80150000Y-94920000D03*
X72734999Y-95415001D03*
X83030000Y-92250000D03*
X83080000Y-97700000D03*
X80830000Y-97700000D03*
X79580000Y-96550000D03*
X71430000Y-96550000D03*
X74780000Y-87350000D03*
X76830000Y-96550000D03*
X91480000Y-92200000D03*
X91080000Y-99250000D03*
X74440000Y-84630000D03*
X83780000Y-84350000D03*
X69930000Y-100900000D03*
X85830000Y-101000000D03*
X67680000Y-82150000D03*
X67680000Y-92200000D03*
X67930000Y-104300000D03*
X88730000Y-94850000D03*
X94180000Y-81840000D03*
D36*
%TO.N,+5VL*%
X138575001Y-137674999D03*
D35*
X113250000Y-126150000D03*
D36*
X198500000Y-107950000D03*
X198500000Y-125950000D03*
X185885851Y-140135851D03*
X188500000Y-153300000D03*
X161250000Y-153300000D03*
D35*
%TO.N,_chA*%
X189150000Y-138475000D03*
D36*
%TO.N,+12V*%
X133025000Y-96475000D03*
X113600000Y-133150000D03*
X116421849Y-131501993D03*
D35*
%TO.N,Net-(D1-Pad2)*%
X123375000Y-136150000D03*
%TO.N,_ones*%
X180100000Y-82550000D03*
X180025000Y-135250000D03*
X179400000Y-122925000D03*
%TO.N,_onesBoard*%
X149400000Y-117000000D03*
X143550000Y-87450000D03*
%TO.N,ones33*%
X141500000Y-87675000D03*
%TO.N,thousands33*%
X195675000Y-127125000D03*
X194797347Y-97102653D03*
%TO.N,_thousands*%
X178850000Y-131725000D03*
X178825000Y-127800000D03*
X167025000Y-131725000D03*
X166950000Y-137775000D03*
X156550000Y-137675000D03*
X147262347Y-82712347D03*
%TO.N,_tensBoard*%
X179725000Y-100425000D03*
X178300000Y-119075000D03*
X169025000Y-118975000D03*
X167950000Y-133875000D03*
%TO.N,_tens*%
X149650000Y-142500000D03*
X176350000Y-144250001D03*
X149475000Y-128925000D03*
%TO.N,_hundreds*%
X177100000Y-91125000D03*
X185500000Y-91425000D03*
X182000000Y-126350000D03*
%TO.N,_hundredsBoard*%
X181325000Y-102075000D03*
X181400000Y-91850000D03*
X172375000Y-91825000D03*
%TO.N,_mode*%
X194266693Y-128591999D03*
%TO.N,_dpBoard*%
X155625000Y-103475000D03*
X155225000Y-127125000D03*
%TO.N,_zero*%
X163175000Y-140275000D03*
X178180000Y-140550000D03*
%TO.N,_a1*%
X150875000Y-126300000D03*
X150825000Y-120950000D03*
X170300000Y-135125000D03*
X170050000Y-121325000D03*
%TO.N,_a2*%
X170575000Y-125050000D03*
X170575000Y-129875000D03*
X156025000Y-116025000D03*
X149450000Y-121125000D03*
X150975000Y-115850000D03*
X163375000Y-123850000D03*
%TO.N,_clk*%
X168850000Y-106025000D03*
X168850000Y-112225000D03*
%TO.N,_a4*%
X147800000Y-107350000D03*
X147750000Y-110825000D03*
X154550000Y-102425000D03*
X170675000Y-103825000D03*
X173900000Y-112314990D03*
%TO.N,_a3*%
X167125000Y-114700000D03*
X169725000Y-119875000D03*
X169250000Y-125350000D03*
X149250000Y-111025000D03*
X156225000Y-111275000D03*
X156250000Y-114425000D03*
%TO.N,_save*%
X181950000Y-139600000D03*
X137475000Y-139225000D03*
%TO.N,a*%
X123263618Y-104263618D03*
%TO.N,_a*%
X159875000Y-110550000D03*
%TO.N,b*%
X129350000Y-109025000D03*
%TO.N,_b*%
X160149990Y-96725000D03*
X128100000Y-99900010D03*
%TO.N,_c*%
X137250000Y-115875000D03*
X135475000Y-83125000D03*
X159625000Y-81575000D03*
%TO.N,_d*%
X124075000Y-86500000D03*
X111750000Y-118300000D03*
%TO.N,d*%
X125550000Y-129350000D03*
%TO.N,_e*%
X137425000Y-120600000D03*
X142950000Y-120775000D03*
X146774046Y-103425954D03*
X142474999Y-106625001D03*
%TO.N,_f*%
X145900000Y-97825000D03*
X126800000Y-99150000D03*
X148450000Y-89900000D03*
X145900000Y-90000000D03*
%TO.N,_dp*%
X154625000Y-95700000D03*
%TO.N,Net-(J19-Pad2)*%
X178850000Y-99475000D03*
%TO.N,thousands*%
X186375000Y-90750000D03*
X188275000Y-110600000D03*
%TO.N,hundreds*%
X182050000Y-92618222D03*
X168150000Y-94375000D03*
%TO.N,tens*%
X159000000Y-105675000D03*
%TO.N,ones*%
X156400000Y-108050000D03*
%TO.N,+g*%
X75420000Y-138530000D03*
X85490000Y-138930000D03*
X83300000Y-132200000D03*
X83500000Y-144000000D03*
%TO.N,+f*%
X67200000Y-150550000D03*
X66550000Y-129700000D03*
%TO.N,+dp*%
X75590000Y-139790000D03*
X75590000Y-139790000D03*
X78800000Y-139600000D03*
X79199999Y-136049999D03*
%TO.N,+e*%
X87540000Y-132600000D03*
X75600000Y-144350000D03*
X65825000Y-144350000D03*
%TO.N,+ones*%
X75900000Y-127150000D03*
%TO.N,+d*%
X64700000Y-152600000D03*
X77900000Y-152650000D03*
X85170000Y-139890000D03*
X81130000Y-139410000D03*
X80070000Y-140020000D03*
X72654999Y-140515001D03*
%TO.N,+tens*%
X82950000Y-137350000D03*
X83000000Y-142800000D03*
X80750000Y-142800000D03*
%TO.N,+c*%
X79500000Y-141650000D03*
X71350000Y-141650000D03*
X74700000Y-132450000D03*
X76750000Y-141650000D03*
%TO.N,+hundreds*%
X91400000Y-137300000D03*
X91000000Y-144350000D03*
%TO.N,+b*%
X74360000Y-129730000D03*
X83700000Y-129450000D03*
%TO.N,+thousands*%
X69850000Y-146000000D03*
X85750000Y-146100000D03*
X67600000Y-127250000D03*
X67600000Y-137300000D03*
%TO.N,+a*%
X67850000Y-149400000D03*
X88650000Y-139950000D03*
X94100000Y-126940000D03*
%TO.N,gray*%
X192550000Y-155700000D03*
X148000000Y-156100000D03*
%TO.N,Net-(RV9-Pad2)*%
X135400000Y-131150000D03*
%TO.N,Net-(RV10-Pad2)*%
X130825000Y-138725000D03*
%TO.N,/7-segmet-display/BCD_out4*%
X138525000Y-108225000D03*
X155950000Y-109375000D03*
X160225000Y-117825000D03*
%TO.N,/7-segmet-display/BCD_out1*%
X142950000Y-123575000D03*
X156050000Y-123525000D03*
X156025000Y-131075000D03*
%TO.N,/7-segmet-display/BCD_out3*%
X143218748Y-104047091D03*
X143300000Y-113475000D03*
X163250000Y-113350000D03*
%TO.N,/7-segmet-display/BCD_out2*%
X138150000Y-117775000D03*
X160300000Y-120925000D03*
X160400000Y-128000000D03*
%TO.N,Net-(U2-Pad2)*%
X179075000Y-108600000D03*
X179200000Y-118325000D03*
X179200000Y-121125000D03*
X166875000Y-113039990D03*
X179075000Y-112869001D03*
%TO.N,Net-(U2-Pad10)*%
X169950000Y-95875000D03*
X169900000Y-108575000D03*
%TO.N,Net-(U2-Pad3)*%
X167625000Y-110150000D03*
X167600000Y-106025000D03*
X180100000Y-130350000D03*
X181275000Y-111075000D03*
%TO.N,Net-(U2-Pad4)*%
X170675000Y-99950000D03*
X166875000Y-101800000D03*
%TO.N,Net-(U2-Pad7)*%
X174625000Y-116175000D03*
X167100000Y-95900000D03*
X167825000Y-102625000D03*
%TD*%
D37*
%TO.N,*%
X72930000Y-87100000D02*
X72910000Y-87120000D01*
X85170000Y-93430000D02*
X85570000Y-93830000D01*
X75500000Y-93430000D02*
X85170000Y-93430000D01*
X65935001Y-85994999D02*
X64810000Y-87120000D01*
X66280000Y-85650000D02*
X65935001Y-85994999D01*
X70323590Y-85650000D02*
X66280000Y-85650000D01*
X71593590Y-86920000D02*
X70323590Y-85650000D01*
X72900000Y-86920000D02*
X71593590Y-86920000D01*
X83200000Y-86920000D02*
X83380000Y-87100000D01*
X81000000Y-86920000D02*
X83200000Y-86920000D01*
X85975001Y-94235001D02*
X85570000Y-93830000D01*
X85975001Y-96504999D02*
X85975001Y-94235001D01*
X83580000Y-98900000D02*
X85975001Y-96504999D01*
X67290000Y-105440000D02*
X67280000Y-105450000D01*
X64830000Y-84600000D02*
X64810000Y-84580000D01*
X66630000Y-84600000D02*
X64830000Y-84600000D01*
X83108003Y-85505001D02*
X81983002Y-84380000D01*
X86620001Y-85505001D02*
X83108003Y-85505001D01*
X81983002Y-84380000D02*
X81000000Y-84380000D01*
X87745002Y-84380000D02*
X86620001Y-85505001D01*
X89100000Y-84380000D02*
X87745002Y-84380000D01*
X71904999Y-104175001D02*
X73080000Y-103000000D01*
X70165997Y-104175001D02*
X71904999Y-104175001D01*
X68890998Y-105450000D02*
X70165997Y-104175001D01*
X67280000Y-105450000D02*
X68890998Y-105450000D01*
X78690000Y-94690000D02*
X78880000Y-94500000D01*
X75670000Y-94690000D02*
X78690000Y-94690000D01*
X71015001Y-90785001D02*
X69890000Y-89660000D01*
X76864999Y-90785001D02*
X71015001Y-90785001D01*
X77990000Y-89660000D02*
X76864999Y-90785001D01*
X93064999Y-88534999D02*
X94190000Y-89660000D01*
X84790000Y-90750000D02*
X86080000Y-89460000D01*
X79880000Y-90750000D02*
X84790000Y-90750000D01*
X79680001Y-90949999D02*
X79880000Y-90750000D01*
X79279999Y-90949999D02*
X79680001Y-90949999D01*
X93064999Y-88534999D02*
X93064999Y-88484999D01*
X92914999Y-88334999D02*
X88245001Y-88334999D01*
X93064999Y-88484999D02*
X92914999Y-88334999D01*
X87120000Y-89460000D02*
X86080000Y-89460000D01*
X88245001Y-88334999D02*
X87120000Y-89460000D01*
X65925001Y-88334999D02*
X64800000Y-89460000D01*
X71774999Y-88334999D02*
X65925001Y-88334999D01*
X72900000Y-89460000D02*
X71774999Y-88334999D01*
X78758589Y-88334999D02*
X79883590Y-89460000D01*
X79883590Y-89460000D02*
X81000000Y-89460000D01*
X74025001Y-88334999D02*
X78758589Y-88334999D01*
X72900000Y-89460000D02*
X74025001Y-88334999D01*
X87074999Y-88045001D02*
X87620000Y-87500000D01*
X85829997Y-88045001D02*
X87074999Y-88045001D01*
X84414998Y-89460000D02*
X85829997Y-88045001D01*
X81000000Y-89460000D02*
X84414998Y-89460000D01*
X75680000Y-99250000D02*
X66180000Y-99250000D01*
X75970000Y-82040000D02*
X75980000Y-82050000D01*
X72910000Y-82040000D02*
X75970000Y-82040000D01*
X77930000Y-107500000D02*
X77980000Y-107550000D01*
X64780000Y-107500000D02*
X77930000Y-107500000D01*
X81690000Y-94790000D02*
X81210000Y-94310000D01*
X85250000Y-94790000D02*
X81690000Y-94790000D01*
X79654999Y-95415001D02*
X80150000Y-94920000D01*
X64800000Y-92000000D02*
X68215001Y-95415001D01*
X72734999Y-95415001D02*
X79654999Y-95415001D01*
X68215001Y-95415001D02*
X72734999Y-95415001D01*
X79335001Y-104175001D02*
X78160000Y-103000000D01*
X79335001Y-106194999D02*
X79335001Y-104175001D01*
X77980000Y-107550000D02*
X79335001Y-106194999D01*
X83080000Y-92200000D02*
X83030000Y-92250000D01*
X86090000Y-92200000D02*
X83080000Y-92200000D01*
X83080000Y-97700000D02*
X80830000Y-97700000D01*
X87205001Y-85794999D02*
X86080000Y-86920000D01*
X93054999Y-85794999D02*
X87205001Y-85794999D01*
X94180000Y-86920000D02*
X93054999Y-85794999D01*
X79105001Y-88045001D02*
X77980000Y-86920000D01*
X84954999Y-88045001D02*
X79105001Y-88045001D01*
X86080000Y-86920000D02*
X84954999Y-88045001D01*
X75210000Y-86920000D02*
X74780000Y-87350000D01*
X77980000Y-86920000D02*
X75210000Y-86920000D01*
X76830000Y-96550000D02*
X71430000Y-96550000D01*
X79580000Y-96550000D02*
X76830000Y-96550000D01*
X94190000Y-92200000D02*
X91480000Y-92200000D01*
X91030000Y-99300000D02*
X91080000Y-99250000D01*
X84415001Y-106715001D02*
X83240000Y-105540000D01*
X86344001Y-106715001D02*
X84415001Y-106715001D01*
X88680000Y-104379002D02*
X86344001Y-106715001D01*
X88680000Y-99300000D02*
X88680000Y-104379002D01*
X88680000Y-99300000D02*
X91030000Y-99300000D01*
X71110000Y-85800000D02*
X69890000Y-84580000D01*
X87205001Y-83254999D02*
X86080000Y-84380000D01*
X93054999Y-83254999D02*
X87205001Y-83254999D01*
X94180000Y-84380000D02*
X93054999Y-83254999D01*
X79105001Y-83254999D02*
X77980000Y-84380000D01*
X84954999Y-83254999D02*
X79105001Y-83254999D01*
X86080000Y-84380000D02*
X84954999Y-83254999D01*
X71005001Y-83254999D02*
X69880000Y-84380000D01*
X76854999Y-83254999D02*
X71005001Y-83254999D01*
X77980000Y-84380000D02*
X76854999Y-83254999D01*
X77730000Y-84630000D02*
X77980000Y-84380000D01*
X74440000Y-84630000D02*
X77730000Y-84630000D01*
X71110000Y-85800000D02*
X71580000Y-85800000D01*
X71585001Y-85794999D02*
X74324999Y-85794999D01*
X71580000Y-85800000D02*
X71585001Y-85794999D01*
X74440000Y-85679998D02*
X74440000Y-84630000D01*
X74324999Y-85794999D02*
X74440000Y-85679998D01*
X83810000Y-84380000D02*
X83780000Y-84350000D01*
X86080000Y-84380000D02*
X83810000Y-84380000D01*
X85730000Y-100900000D02*
X85830000Y-101000000D01*
X69930000Y-100900000D02*
X85730000Y-100900000D01*
X67570000Y-82040000D02*
X67680000Y-82150000D01*
X64810000Y-82040000D02*
X67570000Y-82040000D01*
X67680000Y-92200000D02*
X69890000Y-92200000D01*
X67965001Y-104264999D02*
X67930000Y-104300000D01*
X87205001Y-80714999D02*
X86080000Y-81840000D01*
X93054999Y-80714999D02*
X87205001Y-80714999D01*
X94180000Y-81840000D02*
X93054999Y-80714999D01*
X79105001Y-80714999D02*
X77980000Y-81840000D01*
X84954999Y-80714999D02*
X79105001Y-80714999D01*
X86080000Y-81840000D02*
X84954999Y-80714999D01*
X71005001Y-80714999D02*
X69880000Y-81840000D01*
X76854999Y-80714999D02*
X71005001Y-80714999D01*
X77980000Y-81840000D02*
X76854999Y-80714999D01*
X88730000Y-94850000D02*
X89730000Y-93850000D01*
X95305001Y-82965001D02*
X94180000Y-81840000D01*
X95305001Y-92540001D02*
X95305001Y-82965001D01*
X93995002Y-93850000D02*
X95305001Y-92540001D01*
X89730000Y-93850000D02*
X93995002Y-93850000D01*
%TO.N,+5VL*%
X182025000Y-141750000D02*
X181749999Y-141474999D01*
X134670000Y-146300000D02*
X135399998Y-146300000D01*
D38*
X157884000Y-134676000D02*
X157850000Y-134710000D01*
X161954000Y-134676000D02*
X157884000Y-134676000D01*
X138800003Y-137900001D02*
X138575001Y-137674999D01*
X154659999Y-137900001D02*
X138800003Y-137900001D01*
X157850000Y-134710000D02*
X154659999Y-137900001D01*
X123550000Y-126150000D02*
X123700000Y-126000000D01*
X113250000Y-126150000D02*
X123550000Y-126150000D01*
X129612001Y-127900001D02*
X125600001Y-127900001D01*
X125600001Y-127900001D02*
X123700000Y-126000000D01*
X131282003Y-126229999D02*
X129612001Y-127900001D01*
X138199999Y-126229999D02*
X131282003Y-126229999D01*
X139800000Y-127830000D02*
X138199999Y-126229999D01*
X138199999Y-123049999D02*
X135550000Y-120400000D01*
X138199999Y-126229999D02*
X138199999Y-123049999D01*
X194400000Y-107950000D02*
X198500000Y-107950000D01*
X187557533Y-140135851D02*
X185885851Y-140135851D01*
X203700001Y-141260001D02*
X203560001Y-141400001D01*
X188821683Y-141400001D02*
X187557533Y-140135851D01*
X203560001Y-141400001D02*
X188821683Y-141400001D01*
X203700001Y-128427999D02*
X203700001Y-141260001D01*
X201222002Y-125950000D02*
X203700001Y-128427999D01*
X198500000Y-125950000D02*
X201222002Y-125950000D01*
X188500000Y-153300000D02*
X161250000Y-153300000D01*
D37*
%TO.N,_chB*%
X186880000Y-116930000D02*
X186846000Y-116896000D01*
X191250000Y-116930000D02*
X186880000Y-116930000D01*
X194270000Y-116930000D02*
X194300000Y-116900000D01*
X191250000Y-116930000D02*
X194270000Y-116930000D01*
X196360000Y-116900000D02*
X200600000Y-121140000D01*
X194300000Y-116900000D02*
X196360000Y-116900000D01*
%TO.N,_chA*%
X186880000Y-109310000D02*
X186846000Y-109276000D01*
X191250000Y-109310000D02*
X186880000Y-109310000D01*
X185885000Y-138475000D02*
X189150000Y-138475000D01*
X181915001Y-143525001D02*
X183150001Y-142290001D01*
X161899168Y-140850000D02*
X164574169Y-143525001D01*
X183150001Y-141209999D02*
X185885000Y-138475000D01*
X155096602Y-140850000D02*
X161899168Y-140850000D01*
X183150001Y-142290001D02*
X183150001Y-141209999D01*
X154051601Y-141895001D02*
X155096602Y-140850000D01*
X152055001Y-141895001D02*
X154051601Y-141895001D01*
X164574169Y-143525001D02*
X181915001Y-143525001D01*
X151010000Y-140850000D02*
X152055001Y-141895001D01*
D38*
%TO.N,+12V*%
X129805000Y-96475000D02*
X128650000Y-95320000D01*
X133025000Y-96475000D02*
X129805000Y-96475000D01*
X146950000Y-131480000D02*
X144380000Y-134050000D01*
X146950000Y-131450000D02*
X146950000Y-131480000D01*
X144950000Y-134050000D02*
X147300000Y-136400000D01*
X144380000Y-134050000D02*
X144950000Y-134050000D01*
X142949999Y-125899999D02*
X139800000Y-122750000D01*
X142949999Y-132619999D02*
X142949999Y-125899999D01*
X144380000Y-134050000D02*
X142949999Y-132619999D01*
X116350000Y-133150000D02*
X113600000Y-133150000D01*
X123970007Y-131501993D02*
X116421849Y-131501993D01*
X125021999Y-130450001D02*
X123970007Y-131501993D01*
X126078001Y-130450001D02*
X125021999Y-130450001D01*
X131871999Y-129878001D02*
X126650001Y-129878001D01*
X126650001Y-129878001D02*
X126078001Y-130450001D01*
X132900000Y-128850000D02*
X131871999Y-129878001D01*
D37*
%TO.N,Net-(D1-Pad2)*%
X138100000Y-135250000D02*
X139300000Y-134050000D01*
X134375000Y-135250000D02*
X138100000Y-135250000D01*
X133475000Y-136150000D02*
X123375000Y-136150000D01*
X134375000Y-135250000D02*
X133475000Y-136150000D01*
%TO.N,_ones*%
X179985000Y-135210000D02*
X180025000Y-135250000D01*
X172670000Y-135210000D02*
X179985000Y-135210000D01*
X176595000Y-122925000D02*
X176300000Y-122630000D01*
X179400000Y-122925000D02*
X176595000Y-122925000D01*
X180025001Y-82475001D02*
X180100000Y-82550000D01*
X148524999Y-82475001D02*
X180025001Y-82475001D01*
X147449999Y-83550001D02*
X147525000Y-83475000D01*
X142299999Y-83550001D02*
X147449999Y-83550001D01*
X141600000Y-84250000D02*
X142299999Y-83550001D01*
X147525000Y-83475000D02*
X148524999Y-82475001D01*
X146090000Y-84910000D02*
X147525000Y-83475000D01*
%TO.N,_onesBoard*%
X149714990Y-117314990D02*
X157465010Y-117314990D01*
X157465010Y-117314990D02*
X157850000Y-116930000D01*
X149400000Y-117000000D02*
X149714990Y-117314990D01*
X157884000Y-116896000D02*
X157850000Y-116930000D01*
X161954000Y-116896000D02*
X157884000Y-116896000D01*
%TO.N,ones33*%
X142450001Y-88625001D02*
X141500000Y-87675000D01*
X144914999Y-88625001D02*
X142450001Y-88625001D01*
X146090000Y-87450000D02*
X144914999Y-88625001D01*
%TO.N,+3V3*%
X191216000Y-134676000D02*
X191250000Y-134710000D01*
X186846000Y-134676000D02*
X191216000Y-134676000D01*
%TO.N,_thousandsBoard*%
X186880000Y-124550000D02*
X186846000Y-124516000D01*
X191250000Y-124550000D02*
X186880000Y-124550000D01*
X194874999Y-128174999D02*
X191250000Y-124550000D01*
X197424999Y-128174999D02*
X194874999Y-128174999D01*
X198600000Y-129350000D02*
X197424999Y-128174999D01*
%TO.N,thousands33*%
X200325000Y-127125000D02*
X195675000Y-127125000D01*
X201700000Y-128500000D02*
X200325000Y-127125000D01*
X167424999Y-94723001D02*
X169804651Y-97102653D01*
X167424999Y-93272999D02*
X167424999Y-94723001D01*
X166136999Y-91984999D02*
X167424999Y-93272999D01*
X152014003Y-91984999D02*
X166136999Y-91984999D01*
X169804651Y-97102653D02*
X194797347Y-97102653D01*
X149664001Y-94335001D02*
X152014003Y-91984999D01*
X147095999Y-92895001D02*
X148535999Y-94335001D01*
X139725001Y-92895001D02*
X147095999Y-92895001D01*
X148535999Y-94335001D02*
X149664001Y-94335001D01*
X138750000Y-91920000D02*
X139725001Y-92895001D01*
%TO.N,_thousands*%
X185648238Y-131725000D02*
X178850000Y-131725000D01*
X186378239Y-130994999D02*
X185648238Y-131725000D01*
X195164999Y-130994999D02*
X186378239Y-130994999D01*
X196060000Y-131890000D02*
X195164999Y-130994999D01*
X176390000Y-127800000D02*
X176300000Y-127710000D01*
X178825000Y-127800000D02*
X176390000Y-127800000D01*
X178669990Y-131544990D02*
X167205010Y-131544990D01*
X167205010Y-131544990D02*
X167025000Y-131725000D01*
X178850000Y-131725000D02*
X178669990Y-131544990D01*
X165075000Y-137775000D02*
X165050000Y-137750000D01*
X166950000Y-137775000D02*
X165075000Y-137775000D01*
X164975000Y-137675000D02*
X165050000Y-137750000D01*
X156550000Y-137675000D02*
X164975000Y-137675000D01*
X140337653Y-82712347D02*
X147262347Y-82712347D01*
X138750000Y-84300000D02*
X140337653Y-82712347D01*
%TO.N,_tensBoard*%
X186880000Y-99150000D02*
X186846000Y-99116000D01*
X191250000Y-99150000D02*
X186880000Y-99150000D01*
X180624990Y-99525010D02*
X179725000Y-100425000D01*
X186436990Y-99525010D02*
X180624990Y-99525010D01*
X186846000Y-99116000D02*
X186436990Y-99525010D01*
X169324999Y-118675001D02*
X169025000Y-118975000D01*
X177900001Y-118675001D02*
X169324999Y-118675001D01*
X178300000Y-119075000D02*
X177900001Y-118675001D01*
X153550000Y-132350000D02*
X153100000Y-132800000D01*
X154225000Y-132525000D02*
X154050000Y-132350000D01*
X154050000Y-132350000D02*
X153550000Y-132350000D01*
X155775000Y-132525000D02*
X154225000Y-132525000D01*
X156684999Y-133434999D02*
X155775000Y-132525000D01*
X162469761Y-133434999D02*
X156684999Y-133434999D01*
X162909762Y-133875000D02*
X162469761Y-133434999D01*
X167950000Y-133875000D02*
X162909762Y-133875000D01*
X153100000Y-135340000D02*
X153100000Y-132800000D01*
%TO.N,_tens*%
X157550000Y-142500000D02*
X149650000Y-142500000D01*
X159300001Y-144250001D02*
X176350000Y-144250001D01*
X157550000Y-142500000D02*
X159300001Y-144250001D01*
X146075000Y-128925000D02*
X145750000Y-128600000D01*
X149475000Y-128925000D02*
X146075000Y-128925000D01*
%TO.N,_hundreds*%
X171135001Y-86464999D02*
X169960000Y-87640000D01*
X175114999Y-86464999D02*
X171135001Y-86464999D01*
X175600000Y-86950000D02*
X175114999Y-86464999D01*
X185200000Y-91125000D02*
X185500000Y-91425000D01*
X177100000Y-91125000D02*
X185200000Y-91125000D01*
X162856762Y-126350000D02*
X182000000Y-126350000D01*
X162421761Y-125914999D02*
X162856762Y-126350000D01*
X153515001Y-125914999D02*
X162421761Y-125914999D01*
X153370000Y-126060000D02*
X153515001Y-125914999D01*
%TO.N,_hundredsBoard*%
X186880000Y-101690000D02*
X186846000Y-101656000D01*
X191250000Y-101690000D02*
X186880000Y-101690000D01*
X186427000Y-102075000D02*
X181325000Y-102075000D01*
X186846000Y-101656000D02*
X186427000Y-102075000D01*
X172400000Y-91850000D02*
X172375000Y-91825000D01*
X181400000Y-91850000D02*
X172400000Y-91850000D01*
%TO.N,hundreds33*%
X182224999Y-83324999D02*
X183250000Y-84350000D01*
X171735001Y-83324999D02*
X182224999Y-83324999D01*
X169960000Y-85100000D02*
X171735001Y-83324999D01*
%TO.N,_mode*%
X157884000Y-129596000D02*
X157850000Y-129630000D01*
X161954000Y-129596000D02*
X157884000Y-129596000D01*
X194129693Y-128454999D02*
X194266693Y-128591999D01*
X186378239Y-128454999D02*
X194129693Y-128454999D01*
X185828248Y-129004990D02*
X186378239Y-128454999D01*
X162545010Y-129004990D02*
X185828248Y-129004990D01*
X161954000Y-129596000D02*
X162545010Y-129004990D01*
%TO.N,_dpBoard*%
X157884000Y-127056000D02*
X157850000Y-127090000D01*
X161954000Y-127056000D02*
X157884000Y-127056000D01*
X151935000Y-103475000D02*
X155625000Y-103475000D01*
X149360000Y-100900000D02*
X151935000Y-103475000D01*
X157815000Y-127125000D02*
X157850000Y-127090000D01*
X155225000Y-127125000D02*
X157815000Y-127125000D01*
%TO.N,_zero*%
X194130000Y-149370000D02*
X195500000Y-148000000D01*
X187000000Y-149370000D02*
X194130000Y-149370000D01*
X157884000Y-124516000D02*
X157850000Y-124550000D01*
X161954000Y-124516000D02*
X157884000Y-124516000D01*
X177905000Y-140275000D02*
X178180000Y-140550000D01*
X163175000Y-140275000D02*
X177905000Y-140275000D01*
%TO.N,_a1*%
X150635000Y-126060000D02*
X150875000Y-126300000D01*
X145750000Y-126060000D02*
X150635000Y-126060000D01*
X153340000Y-120950000D02*
X153370000Y-120980000D01*
X150825000Y-120950000D02*
X153340000Y-120950000D01*
X156820000Y-120980000D02*
X157850000Y-122010000D01*
X153370000Y-120980000D02*
X156820000Y-120980000D01*
X161920000Y-122010000D02*
X161954000Y-121976000D01*
X157850000Y-122010000D02*
X161920000Y-122010000D01*
X170215000Y-135210000D02*
X170300000Y-135125000D01*
X165050000Y-135210000D02*
X170215000Y-135210000D01*
X162715999Y-121214001D02*
X168264001Y-121214001D01*
X161954000Y-121976000D02*
X162715999Y-121214001D01*
X168375000Y-121325000D02*
X168264001Y-121214001D01*
X170050000Y-121325000D02*
X168375000Y-121325000D01*
%TO.N,_a2*%
X157884000Y-119436000D02*
X157850000Y-119470000D01*
X161954000Y-119436000D02*
X157884000Y-119436000D01*
X172670000Y-125050000D02*
X170575000Y-125050000D01*
X165305000Y-129875000D02*
X165050000Y-130130000D01*
X170575000Y-129875000D02*
X165305000Y-129875000D01*
X155900000Y-115900000D02*
X156025000Y-116025000D01*
X153370000Y-115900000D02*
X155900000Y-115900000D01*
X149305000Y-120980000D02*
X149450000Y-121125000D01*
X145750000Y-120980000D02*
X149305000Y-120980000D01*
X153320000Y-115850000D02*
X153370000Y-115900000D01*
X150975000Y-115850000D02*
X153320000Y-115850000D01*
X169375000Y-123850000D02*
X170575000Y-125050000D01*
X163375000Y-123850000D02*
X169375000Y-123850000D01*
%TO.N,Net-(J9-Pad7)*%
X157884000Y-114356000D02*
X157850000Y-114390000D01*
X161954000Y-114356000D02*
X157884000Y-114356000D01*
%TO.N,_clk*%
X157884000Y-111816000D02*
X157850000Y-111850000D01*
X161954000Y-111816000D02*
X157884000Y-111816000D01*
X168855000Y-106020000D02*
X168850000Y-106025000D01*
X172470000Y-106020000D02*
X168855000Y-106020000D01*
X162363000Y-112225000D02*
X161954000Y-111816000D01*
X168850000Y-112225000D02*
X162363000Y-112225000D01*
%TO.N,Net-(J9-Pad5)*%
X157884000Y-109276000D02*
X157850000Y-109310000D01*
X161954000Y-109276000D02*
X157884000Y-109276000D01*
%TO.N,_config*%
X157884000Y-106736000D02*
X157850000Y-106770000D01*
X161954000Y-106736000D02*
X157884000Y-106736000D01*
X155694990Y-104614990D02*
X157850000Y-106770000D01*
X148988388Y-104614990D02*
X155694990Y-104614990D01*
X145698399Y-101325001D02*
X148988388Y-104614990D01*
X143059999Y-101325001D02*
X145698399Y-101325001D01*
X142360008Y-100625010D02*
X143059999Y-101325001D01*
X118005010Y-100625010D02*
X142360008Y-100625010D01*
X115130000Y-97750000D02*
X118005010Y-100625010D01*
%TO.N,Net-(J9-Pad3)*%
X157884000Y-104196000D02*
X157850000Y-104230000D01*
X161954000Y-104196000D02*
X157884000Y-104196000D01*
%TO.N,Net-(J9-Pad2)*%
X157884000Y-101656000D02*
X157850000Y-101690000D01*
X161954000Y-101656000D02*
X157884000Y-101656000D01*
%TO.N,Net-(J9-Pad1)*%
X157884000Y-99116000D02*
X157850000Y-99150000D01*
X161954000Y-99116000D02*
X157884000Y-99116000D01*
%TO.N,Net-(J10-Pad3)*%
X186880000Y-104230000D02*
X186846000Y-104196000D01*
X191250000Y-104230000D02*
X186880000Y-104230000D01*
%TO.N,Net-(J10-Pad4)*%
X186880000Y-106770000D02*
X186846000Y-106736000D01*
X191250000Y-106770000D02*
X186880000Y-106770000D01*
%TO.N,_a4*%
X186880000Y-111850000D02*
X186846000Y-111816000D01*
X191250000Y-111850000D02*
X186880000Y-111850000D01*
X186846000Y-111816000D02*
X185937000Y-112725000D01*
X170130000Y-114890000D02*
X165050000Y-119970000D01*
X172670000Y-114890000D02*
X170130000Y-114890000D01*
X149410000Y-105740000D02*
X147800000Y-107350000D01*
X153370000Y-105740000D02*
X149410000Y-105740000D01*
X145755000Y-110825000D02*
X145750000Y-110820000D01*
X147750000Y-110825000D02*
X145755000Y-110825000D01*
X163984006Y-102354990D02*
X165715994Y-102354990D01*
X163324990Y-103014006D02*
X163984006Y-102354990D01*
X156237008Y-103014006D02*
X163324990Y-103014006D01*
X155648002Y-102425000D02*
X156237008Y-103014006D01*
X167186004Y-103825000D02*
X170675000Y-103825000D01*
X165715994Y-102354990D02*
X167186004Y-103825000D01*
X154550000Y-102425000D02*
X155648002Y-102425000D01*
X178556009Y-112314990D02*
X173900000Y-112314990D01*
X178726999Y-112144000D02*
X178556009Y-112314990D01*
X179423001Y-112144000D02*
X178726999Y-112144000D01*
X180004001Y-112725000D02*
X179423001Y-112144000D01*
X185937000Y-112725000D02*
X180004001Y-112725000D01*
%TO.N,_a3*%
X186880000Y-114390000D02*
X186846000Y-114356000D01*
X191250000Y-114390000D02*
X186880000Y-114390000D01*
X168230999Y-113594001D02*
X167125000Y-114700000D01*
X186084001Y-113594001D02*
X168230999Y-113594001D01*
X186846000Y-114356000D02*
X186084001Y-113594001D01*
X169820000Y-119970000D02*
X169725000Y-119875000D01*
X172670000Y-119970000D02*
X169820000Y-119970000D01*
X165350000Y-125350000D02*
X165050000Y-125050000D01*
X169250000Y-125350000D02*
X165350000Y-125350000D01*
X149455000Y-110820000D02*
X149250000Y-111025000D01*
X153370000Y-110820000D02*
X149455000Y-110820000D01*
X153825000Y-111275000D02*
X156225000Y-111275000D01*
X153370000Y-110820000D02*
X153825000Y-111275000D01*
X163059999Y-115565001D02*
X163510008Y-116015010D01*
X156824316Y-115565001D02*
X163059999Y-115565001D01*
X163510008Y-116015010D02*
X167034990Y-116015010D01*
X156250000Y-114990685D02*
X156824316Y-115565001D01*
X156250000Y-114425000D02*
X156250000Y-114990685D01*
X167125000Y-115925000D02*
X167125000Y-114700000D01*
X167034990Y-116015010D02*
X167125000Y-115925000D01*
%TO.N,Net-(J10-Pad9)*%
X186880000Y-119470000D02*
X186846000Y-119436000D01*
X191250000Y-119470000D02*
X186880000Y-119470000D01*
%TO.N,Net-(J10-Pad10)*%
X186880000Y-122010000D02*
X186846000Y-121976000D01*
X191250000Y-122010000D02*
X186880000Y-122010000D01*
%TO.N,Net-(J10-Pad12)*%
X186880000Y-127090000D02*
X186846000Y-127056000D01*
X191250000Y-127090000D02*
X186880000Y-127090000D01*
%TO.N,_save*%
X186880000Y-129630000D02*
X186846000Y-129596000D01*
X191250000Y-129630000D02*
X186880000Y-129630000D01*
X137850001Y-138849999D02*
X137475000Y-139225000D01*
X162223001Y-138849999D02*
X137850001Y-138849999D01*
X162573003Y-139200001D02*
X162223001Y-138849999D01*
X181550001Y-139200001D02*
X162573003Y-139200001D01*
X181950000Y-139600000D02*
X181550001Y-139200001D01*
%TO.N,a*%
X121210000Y-110500000D02*
X125710000Y-110500000D01*
X118710000Y-108000000D02*
X121210000Y-110500000D01*
X123382237Y-104144999D02*
X123263618Y-104263618D01*
X129904999Y-104144999D02*
X123382237Y-104144999D01*
X132880000Y-107120000D02*
X129904999Y-104144999D01*
%TO.N,_a*%
X128535010Y-110785010D02*
X128250000Y-110500000D01*
X154235994Y-109694990D02*
X142456014Y-109694990D01*
X141365994Y-110785010D02*
X128535010Y-110785010D01*
X155091004Y-110550000D02*
X154235994Y-109694990D01*
X142456014Y-109694990D02*
X141365994Y-110785010D01*
X159875000Y-110550000D02*
X155091004Y-110550000D01*
X125775001Y-108025001D02*
X128250000Y-110500000D01*
X121275001Y-108025001D02*
X125775001Y-108025001D01*
X121250000Y-108000000D02*
X121275001Y-108025001D01*
%TO.N,b*%
X129985000Y-109660000D02*
X132880000Y-109660000D01*
X129350000Y-109025000D02*
X129985000Y-109660000D01*
%TO.N,_b*%
X130488986Y-99900010D02*
X128100000Y-99900010D01*
X132014006Y-98374990D02*
X130488986Y-99900010D01*
X142359990Y-98374990D02*
X132014006Y-98374990D01*
X143059999Y-99074999D02*
X142359990Y-98374990D01*
X155639999Y-99074999D02*
X143059999Y-99074999D01*
X157989998Y-96725000D02*
X155639999Y-99074999D01*
X160149990Y-96725000D02*
X157989998Y-96725000D01*
%TO.N,_c*%
X127175000Y-115875000D02*
X137250000Y-115875000D01*
X125750000Y-114450000D02*
X127175000Y-115875000D01*
X159074999Y-81024999D02*
X159625000Y-81575000D01*
X137575001Y-81024999D02*
X159074999Y-81024999D01*
X135475000Y-83125000D02*
X137575001Y-81024999D01*
%TO.N,c*%
X130630000Y-114450000D02*
X132880000Y-112200000D01*
X128290000Y-114450000D02*
X130630000Y-114450000D01*
%TO.N,_d*%
X124389999Y-86185001D02*
X124075000Y-86500000D01*
X125600000Y-118300000D02*
X125650000Y-118350000D01*
X111750000Y-118300000D02*
X125600000Y-118300000D01*
X155704999Y-86125001D02*
X156880000Y-84950000D01*
X124449999Y-86125001D02*
X155704999Y-86125001D01*
X124075000Y-86500000D02*
X124449999Y-86125001D01*
%TO.N,d*%
X124904999Y-128704999D02*
X125550000Y-129350000D01*
X119755001Y-128704999D02*
X124904999Y-128704999D01*
X118710000Y-129750000D02*
X119755001Y-128704999D01*
%TO.N,_e*%
X123950000Y-134300000D02*
X127200000Y-134300000D01*
X121250000Y-137000000D02*
X123950000Y-134300000D01*
X142775000Y-120600000D02*
X142950000Y-120775000D01*
X137425000Y-120600000D02*
X142775000Y-120600000D01*
X145674046Y-103425954D02*
X142474999Y-106625001D01*
X146774046Y-103425954D02*
X145674046Y-103425954D01*
%TO.N,e*%
X124968233Y-131760000D02*
X127200000Y-131760000D01*
X119728233Y-137000000D02*
X124968233Y-131760000D01*
X118710000Y-137000000D02*
X119728233Y-137000000D01*
%TO.N,f*%
X131744999Y-103175001D02*
X132880000Y-102040000D01*
X120135001Y-103175001D02*
X131744999Y-103175001D01*
X118710000Y-101750000D02*
X120135001Y-103175001D01*
X132840000Y-102000000D02*
X132880000Y-102040000D01*
X129390000Y-102000000D02*
X132840000Y-102000000D01*
%TO.N,_f*%
X126600000Y-101750000D02*
X126850000Y-102000000D01*
X121250000Y-101750000D02*
X126600000Y-101750000D01*
X130424002Y-97825000D02*
X145900000Y-97825000D01*
X130050000Y-98199002D02*
X130424002Y-97825000D01*
X130050000Y-99150000D02*
X130050000Y-98199002D01*
X126800000Y-99150000D02*
X130050000Y-99150000D01*
X146000000Y-89900000D02*
X145900000Y-90000000D01*
X148450000Y-89900000D02*
X146000000Y-89900000D01*
%TO.N,g*%
X146680001Y-90740001D02*
X149100000Y-93160000D01*
X134319999Y-90740001D02*
X146680001Y-90740001D01*
X133600000Y-91460000D02*
X134319999Y-90740001D01*
%TO.N,_g*%
X147400000Y-94000000D02*
X149100000Y-95700000D01*
X133600000Y-94000000D02*
X147400000Y-94000000D01*
%TO.N,_dp*%
X154625000Y-95700000D02*
X152600000Y-95700000D01*
%TO.N,Net-(J19-Pad2)*%
X178510010Y-99814990D02*
X173595010Y-99814990D01*
X173595010Y-99814990D02*
X172470000Y-100940000D01*
X178850000Y-99475000D02*
X178510010Y-99814990D01*
%TO.N,thousands*%
X185700001Y-90075001D02*
X186375000Y-90750000D01*
X167185001Y-90075001D02*
X185700001Y-90075001D01*
X164650000Y-87540000D02*
X167185001Y-90075001D01*
X184420000Y-110600000D02*
X183920000Y-111100000D01*
X188275000Y-110600000D02*
X184420000Y-110600000D01*
%TO.N,hundreds*%
X168220010Y-94445010D02*
X168150000Y-94375000D01*
X180223212Y-94445010D02*
X168220010Y-94445010D01*
X182050000Y-92618222D02*
X180223212Y-94445010D01*
%TO.N,tens*%
X182794990Y-104894990D02*
X183920000Y-106020000D01*
X163984006Y-104894990D02*
X182794990Y-104894990D01*
X163229997Y-105648999D02*
X163984006Y-104894990D01*
X159026001Y-105648999D02*
X163229997Y-105648999D01*
X159000000Y-105675000D02*
X159026001Y-105648999D01*
%TO.N,ones*%
X162614760Y-108050000D02*
X156400000Y-108050000D01*
X182794990Y-107434990D02*
X163229770Y-107434990D01*
X163229770Y-107434990D02*
X162614760Y-108050000D01*
X183920000Y-108560000D02*
X182794990Y-107434990D01*
%TO.N,+g*%
X72850000Y-132200000D02*
X72830000Y-132220000D01*
X85090000Y-138530000D02*
X85490000Y-138930000D01*
X75420000Y-138530000D02*
X85090000Y-138530000D01*
X65855001Y-131094999D02*
X64730000Y-132220000D01*
X66200000Y-130750000D02*
X65855001Y-131094999D01*
X70243590Y-130750000D02*
X66200000Y-130750000D01*
X71513590Y-132020000D02*
X70243590Y-130750000D01*
X72820000Y-132020000D02*
X71513590Y-132020000D01*
X83120000Y-132020000D02*
X83300000Y-132200000D01*
X80920000Y-132020000D02*
X83120000Y-132020000D01*
X85895001Y-139335001D02*
X85490000Y-138930000D01*
X85895001Y-141604999D02*
X85895001Y-139335001D01*
X83500000Y-144000000D02*
X85895001Y-141604999D01*
%TO.N,+f*%
X67210000Y-150540000D02*
X67200000Y-150550000D01*
X64750000Y-129700000D02*
X64730000Y-129680000D01*
X66550000Y-129700000D02*
X64750000Y-129700000D01*
X83028003Y-130605001D02*
X81903002Y-129480000D01*
X86540001Y-130605001D02*
X83028003Y-130605001D01*
X81903002Y-129480000D02*
X80920000Y-129480000D01*
X87665002Y-129480000D02*
X86540001Y-130605001D01*
X89020000Y-129480000D02*
X87665002Y-129480000D01*
X71824999Y-149275001D02*
X73000000Y-148100000D01*
X70085997Y-149275001D02*
X71824999Y-149275001D01*
X68810998Y-150550000D02*
X70085997Y-149275001D01*
X67200000Y-150550000D02*
X68810998Y-150550000D01*
%TO.N,+dp*%
X78610000Y-139790000D02*
X78800000Y-139600000D01*
X75590000Y-139790000D02*
X78610000Y-139790000D01*
X70935001Y-135885001D02*
X69810000Y-134760000D01*
X76784999Y-135885001D02*
X70935001Y-135885001D01*
X77910000Y-134760000D02*
X76784999Y-135885001D01*
X92984999Y-133634999D02*
X94110000Y-134760000D01*
X84710000Y-135850000D02*
X86000000Y-134560000D01*
X79800000Y-135850000D02*
X84710000Y-135850000D01*
X79600001Y-136049999D02*
X79800000Y-135850000D01*
X79199999Y-136049999D02*
X79600001Y-136049999D01*
X92984999Y-133634999D02*
X92984999Y-133584999D01*
X92834999Y-133434999D02*
X88165001Y-133434999D01*
X92984999Y-133584999D02*
X92834999Y-133434999D01*
X87040000Y-134560000D02*
X86000000Y-134560000D01*
X88165001Y-133434999D02*
X87040000Y-134560000D01*
%TO.N,+e*%
X65845001Y-133434999D02*
X64720000Y-134560000D01*
X71694999Y-133434999D02*
X65845001Y-133434999D01*
X72820000Y-134560000D02*
X71694999Y-133434999D01*
X78678589Y-133434999D02*
X79803590Y-134560000D01*
X79803590Y-134560000D02*
X80920000Y-134560000D01*
X73945001Y-133434999D02*
X78678589Y-133434999D01*
X72820000Y-134560000D02*
X73945001Y-133434999D01*
X86994999Y-133145001D02*
X87540000Y-132600000D01*
X85749997Y-133145001D02*
X86994999Y-133145001D01*
X84334998Y-134560000D02*
X85749997Y-133145001D01*
X80920000Y-134560000D02*
X84334998Y-134560000D01*
X75600000Y-144350000D02*
X66100000Y-144350000D01*
%TO.N,+ones*%
X75890000Y-127140000D02*
X75900000Y-127150000D01*
X72830000Y-127140000D02*
X75890000Y-127140000D01*
%TO.N,+d*%
X77850000Y-152600000D02*
X77900000Y-152650000D01*
X64700000Y-152600000D02*
X77850000Y-152600000D01*
X81610000Y-139890000D02*
X81130000Y-139410000D01*
X85170000Y-139890000D02*
X81610000Y-139890000D01*
X79574999Y-140515001D02*
X80070000Y-140020000D01*
X64720000Y-137100000D02*
X68135001Y-140515001D01*
X72654999Y-140515001D02*
X79574999Y-140515001D01*
X68135001Y-140515001D02*
X72654999Y-140515001D01*
X79255001Y-149275001D02*
X78080000Y-148100000D01*
X79255001Y-151294999D02*
X79255001Y-149275001D01*
X77900000Y-152650000D02*
X79255001Y-151294999D01*
%TO.N,+tens*%
X83000000Y-137300000D02*
X82950000Y-137350000D01*
X86010000Y-137300000D02*
X83000000Y-137300000D01*
X83000000Y-142800000D02*
X80750000Y-142800000D01*
%TO.N,+c*%
X87125001Y-130894999D02*
X86000000Y-132020000D01*
X92974999Y-130894999D02*
X87125001Y-130894999D01*
X94100000Y-132020000D02*
X92974999Y-130894999D01*
X79025001Y-133145001D02*
X77900000Y-132020000D01*
X84874999Y-133145001D02*
X79025001Y-133145001D01*
X86000000Y-132020000D02*
X84874999Y-133145001D01*
X75130000Y-132020000D02*
X74700000Y-132450000D01*
X77900000Y-132020000D02*
X75130000Y-132020000D01*
X76750000Y-141650000D02*
X71350000Y-141650000D01*
X79500000Y-141650000D02*
X76750000Y-141650000D01*
%TO.N,+hundreds*%
X94110000Y-137300000D02*
X91400000Y-137300000D01*
X90950000Y-144400000D02*
X91000000Y-144350000D01*
X84335001Y-151815001D02*
X83160000Y-150640000D01*
X86264001Y-151815001D02*
X84335001Y-151815001D01*
X88600000Y-149479002D02*
X86264001Y-151815001D01*
X88600000Y-144400000D02*
X88600000Y-149479002D01*
X88600000Y-144400000D02*
X90950000Y-144400000D01*
%TO.N,+b*%
X71030000Y-130900000D02*
X69810000Y-129680000D01*
X87125001Y-128354999D02*
X86000000Y-129480000D01*
X92974999Y-128354999D02*
X87125001Y-128354999D01*
X94100000Y-129480000D02*
X92974999Y-128354999D01*
X79025001Y-128354999D02*
X77900000Y-129480000D01*
X84874999Y-128354999D02*
X79025001Y-128354999D01*
X86000000Y-129480000D02*
X84874999Y-128354999D01*
X70925001Y-128354999D02*
X69800000Y-129480000D01*
X76774999Y-128354999D02*
X70925001Y-128354999D01*
X77900000Y-129480000D02*
X76774999Y-128354999D01*
X77650000Y-129730000D02*
X77900000Y-129480000D01*
X74360000Y-129730000D02*
X77650000Y-129730000D01*
X71030000Y-130900000D02*
X71500000Y-130900000D01*
X71505001Y-130894999D02*
X74244999Y-130894999D01*
X71500000Y-130900000D02*
X71505001Y-130894999D01*
X74360000Y-130779998D02*
X74360000Y-129730000D01*
X74244999Y-130894999D02*
X74360000Y-130779998D01*
X83730000Y-129480000D02*
X83700000Y-129450000D01*
X86000000Y-129480000D02*
X83730000Y-129480000D01*
%TO.N,+thousands*%
X85650000Y-146000000D02*
X85750000Y-146100000D01*
X69850000Y-146000000D02*
X85650000Y-146000000D01*
X67490000Y-127140000D02*
X67600000Y-127250000D01*
X64730000Y-127140000D02*
X67490000Y-127140000D01*
X67600000Y-137300000D02*
X69810000Y-137300000D01*
%TO.N,+a*%
X67885001Y-149364999D02*
X67850000Y-149400000D01*
X87125001Y-125814999D02*
X86000000Y-126940000D01*
X92974999Y-125814999D02*
X87125001Y-125814999D01*
X94100000Y-126940000D02*
X92974999Y-125814999D01*
X79025001Y-125814999D02*
X77900000Y-126940000D01*
X84874999Y-125814999D02*
X79025001Y-125814999D01*
X86000000Y-126940000D02*
X84874999Y-125814999D01*
X70925001Y-125814999D02*
X69800000Y-126940000D01*
X76774999Y-125814999D02*
X70925001Y-125814999D01*
X77900000Y-126940000D02*
X76774999Y-125814999D01*
X88650000Y-139950000D02*
X89650000Y-138950000D01*
X95225001Y-128065001D02*
X94100000Y-126940000D01*
X95225001Y-137640001D02*
X95225001Y-128065001D01*
X93915002Y-138950000D02*
X95225001Y-137640001D01*
X89650000Y-138950000D02*
X93915002Y-138950000D01*
%TO.N,white*%
X175614999Y-149825001D02*
X160415001Y-149825001D01*
X160415001Y-149825001D02*
X158590000Y-148000000D01*
X179090000Y-146350000D02*
X175614999Y-149825001D01*
%TO.N,gray*%
X192150000Y-156100000D02*
X148000000Y-156100000D01*
X192550000Y-155700000D02*
X192150000Y-156100000D01*
%TO.N,tens33*%
X165170000Y-142500000D02*
X167300000Y-142500000D01*
%TO.N,Net-(R13-Pad2)*%
X196400000Y-105300000D02*
X201500000Y-105300000D01*
%TO.N,Net-(RV9-Pad2)*%
X133140000Y-131150000D02*
X132900000Y-131390000D01*
X135400000Y-131150000D02*
X133140000Y-131150000D01*
%TO.N,Net-(RV10-Pad2)*%
X134625000Y-138725000D02*
X134670000Y-138680000D01*
X130825000Y-138725000D02*
X134625000Y-138725000D01*
%TO.N,/7-segmet-display/BCD_out4*%
X145750000Y-108280000D02*
X153370000Y-108280000D01*
X138580000Y-108280000D02*
X138525000Y-108225000D01*
X145750000Y-108280000D02*
X138580000Y-108280000D01*
X154855000Y-108280000D02*
X155950000Y-109375000D01*
X153370000Y-108280000D02*
X154855000Y-108280000D01*
X160624999Y-118224999D02*
X164255001Y-118224999D01*
X164255001Y-118224999D02*
X165050000Y-117430000D01*
X160225000Y-117825000D02*
X160624999Y-118224999D01*
%TO.N,/7-segmet-display/BCD_out1*%
X145695000Y-123575000D02*
X145750000Y-123520000D01*
X142950000Y-123575000D02*
X145695000Y-123575000D01*
X153370000Y-123520000D02*
X145750000Y-123520000D01*
X165050000Y-132670000D02*
X172670000Y-132670000D01*
X156045000Y-123520000D02*
X156050000Y-123525000D01*
X153370000Y-123520000D02*
X156045000Y-123520000D01*
X163374999Y-130994999D02*
X165050000Y-132670000D01*
X156105001Y-130994999D02*
X163374999Y-130994999D01*
X156025000Y-131075000D02*
X156105001Y-130994999D01*
%TO.N,/7-segmet-display/BCD_out3*%
X141211657Y-102040000D02*
X143218748Y-104047091D01*
X140500000Y-102040000D02*
X141211657Y-102040000D01*
X145635000Y-113475000D02*
X145750000Y-113360000D01*
X143300000Y-113475000D02*
X145635000Y-113475000D01*
X153370000Y-113360000D02*
X145750000Y-113360000D01*
X163114999Y-113214999D02*
X163250000Y-113350000D01*
X153515001Y-113214999D02*
X163114999Y-113214999D01*
X153370000Y-113360000D02*
X153515001Y-113214999D01*
X165050000Y-122510000D02*
X172670000Y-122510000D01*
%TO.N,/7-segmet-display/BCD_out2*%
X138815000Y-118440000D02*
X145750000Y-118440000D01*
X138150000Y-117775000D02*
X138815000Y-118440000D01*
X145750000Y-118440000D02*
X153370000Y-118440000D01*
X160020001Y-120645001D02*
X160300000Y-120925000D01*
X157285999Y-120645001D02*
X160020001Y-120645001D01*
X155080998Y-118440000D02*
X157285999Y-120645001D01*
X153370000Y-118440000D02*
X155080998Y-118440000D01*
X164240001Y-128399999D02*
X165050000Y-127590000D01*
X160799999Y-128399999D02*
X164240001Y-128399999D01*
X160400000Y-128000000D02*
X160799999Y-128399999D01*
X165050000Y-127590000D02*
X172670000Y-127590000D01*
%TO.N,Net-(U2-Pad2)*%
X179035000Y-108560000D02*
X179075000Y-108600000D01*
X176300000Y-108560000D02*
X179035000Y-108560000D01*
X179200000Y-118325000D02*
X179200000Y-121125000D01*
X178904011Y-113039990D02*
X179075000Y-112869001D01*
X166875000Y-113039990D02*
X178904011Y-113039990D01*
%TO.N,Net-(U2-Pad10)*%
X169965000Y-95860000D02*
X169950000Y-95875000D01*
X172470000Y-95860000D02*
X169965000Y-95860000D01*
X172455000Y-108575000D02*
X172470000Y-108560000D01*
X169900000Y-108575000D02*
X172455000Y-108575000D01*
%TO.N,Net-(U2-Pad3)*%
X167800010Y-109974990D02*
X167625000Y-110150000D01*
X175174990Y-109974990D02*
X167800010Y-109974990D01*
X176300000Y-111100000D02*
X175174990Y-109974990D01*
X164855000Y-106025000D02*
X164850000Y-106020000D01*
X167600000Y-106025000D02*
X164855000Y-106025000D01*
X180000000Y-130250000D02*
X180100000Y-130350000D01*
X176300000Y-130250000D02*
X180000000Y-130250000D01*
X176325000Y-111075000D02*
X176300000Y-111100000D01*
X181275000Y-111075000D02*
X176325000Y-111075000D01*
%TO.N,Net-(U2-Pad4)*%
X168725000Y-99950000D02*
X166875000Y-101800000D01*
X170675000Y-99950000D02*
X168725000Y-99950000D01*
%TO.N,Net-(U2-Pad7)*%
X182545000Y-116175000D02*
X183920000Y-117550000D01*
X174625000Y-116175000D02*
X182545000Y-116175000D01*
X167060000Y-95860000D02*
X167100000Y-95900000D01*
X164850000Y-95860000D02*
X167060000Y-95860000D01*
X175045001Y-102225001D02*
X176300000Y-103480000D01*
X168224999Y-102225001D02*
X175045001Y-102225001D01*
X167825000Y-102625000D02*
X168224999Y-102225001D01*
%TD*%
M02*
