M48
; DRILL file {KiCad 7.0.8} date Fri 05 Apr 2024 12:05:20 PM CEST
; FORMAT={-:-/ absolute / metric / decimal}
; #@! TF.CreationDate,2024-04-05T12:05:20+02:00
; #@! TF.GenerationSoftware,Kicad,Pcbnew,7.0.8
; #@! TF.FileFunction,MixedPlating,1,4
FMAT,2
METRIC
; #@! TA.AperFunction,Plated,PTH,ViaDrill
T1C0.250
; #@! TA.AperFunction,Plated,PTH,ViaDrill
T2C0.400
; #@! TA.AperFunction,Plated,PTH,ComponentDrill
T3C0.500
; #@! TA.AperFunction,Plated,PTH,ComponentDrill
T4C0.600
; #@! TA.AperFunction,Plated,PTH,ComponentDrill
T5C1.000
; #@! TA.AperFunction,Plated,PTH,ComponentDrill
T6C1.150
; #@! TA.AperFunction,Plated,PTH,ComponentDrill
T7C2.000
%
G90
G05
T1
X189.055Y-52.755
X189.055Y-55.295
X189.055Y-57.835
X189.055Y-60.375
X189.055Y-62.915
X189.055Y-65.455
X189.055Y-67.995
X189.055Y-70.535
X189.055Y-73.075
X189.055Y-75.615
X189.055Y-78.155
X189.055Y-80.695
X189.055Y-83.235
X189.055Y-85.775
X189.055Y-88.315
X189.055Y-90.855
X189.055Y-93.395
X189.055Y-95.935
X189.055Y-98.475
X189.055Y-113.715
X189.055Y-116.255
X189.055Y-118.795
X189.055Y-121.335
X189.055Y-123.875
X189.055Y-126.415
X189.055Y-128.955
X189.055Y-131.495
X189.055Y-134.035
X191.595Y-52.755
X191.595Y-67.995
X191.595Y-70.535
X191.595Y-73.075
X191.595Y-75.615
X191.595Y-78.155
X191.595Y-80.695
X191.595Y-83.235
X191.595Y-85.775
X191.595Y-88.315
X191.595Y-90.855
X191.595Y-98.475
X191.595Y-113.715
X191.595Y-116.255
X191.595Y-118.795
X191.595Y-121.335
X193.4Y-115.2
X194.135Y-52.755
X194.135Y-55.295
X194.135Y-57.835
X194.135Y-60.375
X194.135Y-62.915
X194.135Y-67.995
X194.135Y-70.535
X194.135Y-73.075
X194.135Y-75.615
X194.135Y-83.235
X194.135Y-85.775
X194.135Y-88.315
X194.135Y-90.855
X194.135Y-98.475
X194.135Y-118.795
X194.135Y-121.335
X195.8Y-118.6
X196.675Y-52.755
X196.675Y-83.235
X196.675Y-85.775
X196.675Y-88.315
X196.675Y-90.855
X196.675Y-93.395
X196.675Y-95.935
X199.215Y-52.755
X199.215Y-55.295
X199.215Y-57.835
X199.215Y-60.375
X199.215Y-62.915
X199.215Y-70.535
X199.215Y-73.075
X199.215Y-75.615
X199.215Y-85.775
X199.215Y-88.315
X199.215Y-90.855
X199.215Y-128.955
X199.215Y-131.495
X201.0Y-65.85
X201.755Y-52.755
X201.755Y-55.295
X201.755Y-57.835
X201.755Y-60.375
X201.755Y-62.915
X201.755Y-70.535
X201.755Y-73.075
X201.755Y-88.315
X204.295Y-52.755
X204.295Y-55.295
X204.295Y-57.835
X204.295Y-60.375
X204.295Y-90.855
X205.0Y-64.2
X206.835Y-52.755
X206.835Y-55.295
X206.835Y-57.835
X206.835Y-60.375
X206.835Y-62.915
X206.835Y-67.995
X206.835Y-70.535
X206.835Y-73.075
X206.835Y-75.615
X206.835Y-78.155
X206.835Y-80.695
X209.375Y-52.755
X209.375Y-55.295
X209.375Y-57.835
X209.375Y-60.375
X209.375Y-62.915
X209.375Y-65.455
X209.375Y-67.995
X209.375Y-70.535
X209.375Y-73.075
X209.375Y-75.615
X209.375Y-78.155
X209.375Y-80.695
X209.375Y-83.235
X209.375Y-93.395
X209.375Y-98.475
X209.375Y-101.015
X209.375Y-111.175
X209.375Y-123.875
X210.4Y-89.6
X211.096Y-92.304
X211.915Y-52.755
X211.915Y-55.295
X211.915Y-57.835
X211.915Y-60.375
X211.915Y-62.915
X211.915Y-65.455
X211.915Y-67.995
X211.915Y-70.535
X211.915Y-73.075
X211.915Y-98.475
X211.915Y-101.015
X211.915Y-111.175
X211.915Y-113.715
X211.915Y-121.335
X211.915Y-123.875
X214.455Y-52.755
X214.455Y-55.295
X214.455Y-57.835
X214.455Y-60.375
X214.455Y-62.915
X214.455Y-95.935
X214.455Y-101.015
X214.455Y-123.875
X214.455Y-126.415
X214.455Y-128.955
X214.455Y-131.495
X214.455Y-134.035
X215.8Y-86.4
X216.6Y-71.2
X216.6Y-73.0
X216.995Y-52.755
X216.995Y-55.295
X216.995Y-57.835
X216.995Y-60.375
X216.995Y-62.915
X217.4Y-79.8
X217.4Y-87.0
X217.4Y-92.0
X218.2Y-74.6
X219.0Y-111.2
X219.535Y-52.755
X219.535Y-55.295
X219.535Y-57.835
X219.535Y-131.495
X219.6Y-69.2
X219.6Y-84.4
X220.0Y-66.0
X220.355Y-70.755
X221.0Y-63.0
X221.0Y-80.989
X221.2Y-82.8
X221.724Y-66.0
X222.075Y-113.715
X222.075Y-123.875
X222.075Y-126.415
X222.075Y-134.035
X222.25Y-63.0
X223.2Y-55.4
X224.3Y-62.2
X224.4Y-74.6
X224.485Y-78.115
X224.615Y-98.475
X224.615Y-106.095
X224.615Y-111.175
X224.615Y-113.715
X224.615Y-123.875
X224.615Y-126.415
X224.615Y-128.955
X224.8Y-79.2
X224.8Y-81.8
X225.0Y-71.4
X225.0Y-84.4
X225.05Y-63.1
X225.2Y-86.8
X225.2Y-92.0
X225.4Y-88.4
X225.6Y-64.165
X226.0Y-79.979
X226.2Y-83.0
X226.4Y-60.4
X226.8Y-66.2
X227.155Y-98.475
X227.155Y-101.015
X227.155Y-113.715
X227.2Y-59.0
X227.2Y-72.8
X228.0Y-74.4
X228.2Y-81.8
X228.6Y-84.0
X228.8Y-79.2
X229.0Y-86.8
X229.2Y-83.0
X229.4Y-80.6
X229.4Y-85.8
X229.695Y-101.015
X229.695Y-123.875
X229.695Y-126.415
X229.695Y-128.955
X229.695Y-131.495
X229.8Y-59.0
X232.2Y-62.125
X232.235Y-98.475
X232.235Y-101.015
X232.235Y-106.095
X232.378Y-68.222
X232.8Y-76.579
X233.0Y-58.8
X233.0Y-69.0
X233.2Y-86.2
X233.4Y-75.297
X233.4Y-77.85
X233.8Y-95.6
X234.0Y-67.2
X234.4Y-87.779
X234.6Y-62.125
X234.775Y-90.855
X234.775Y-106.095
X234.775Y-108.635
X234.775Y-111.175
X234.775Y-123.875
X234.775Y-126.415
X234.775Y-128.955
X235.357Y-67.8
X235.8Y-84.2
X236.0Y-81.8
X236.05Y-52.3
X236.2Y-59.0
X236.3Y-50.45
X236.534Y-62.813
X236.6Y-62.0
X237.0Y-106.3
X237.315Y-95.935
X237.315Y-101.015
X237.6Y-67.0
X237.6Y-67.8
X238.0Y-69.4
X238.1Y-113.8
X238.2Y-88.2
X238.8Y-60.8
X238.8Y-86.6
X239.0Y-50.4
X239.0Y-67.8
X239.2Y-73.8
X239.8Y-63.0
X239.855Y-95.935
X239.855Y-131.495
X239.855Y-134.035
X240.3Y-108.8
X240.4Y-58.8
X241.2Y-63.2
X241.285Y-90.4
X241.793Y-83.007
X242.0Y-88.0
X242.2Y-69.8
X242.4Y-84.2
X242.8Y-85.8
X243.554Y-90.4
X244.0Y-58.8
X244.0Y-70.4
X244.175Y-91.6
X244.6Y-62.2
X244.935Y-75.615
X244.935Y-78.155
X244.935Y-123.875
X244.935Y-126.415
X244.935Y-134.035
X245.4Y-54.6
X245.4Y-65.6
X245.561Y-71.839
X245.6Y-84.4
X246.8Y-84.4
X246.8Y-89.8
X247.2Y-112.0
X247.475Y-52.755
X247.475Y-55.295
X247.475Y-57.835
X247.475Y-60.375
X247.475Y-62.915
X247.475Y-103.555
X247.475Y-123.875
X247.6Y-84.4
X248.4Y-84.2
X248.8Y-94.495
X249.2Y-91.6
X249.8Y-84.2
X250.015Y-52.755
X250.015Y-55.295
X250.015Y-57.835
X250.015Y-60.375
X250.015Y-62.915
X250.015Y-123.875
X250.015Y-126.415
X250.015Y-128.955
X250.015Y-131.495
X250.015Y-134.035
X252.555Y-52.755
X252.555Y-55.295
X252.555Y-57.835
X252.555Y-60.375
X252.555Y-62.915
X252.555Y-67.995
X252.555Y-78.155
X252.555Y-128.955
X252.555Y-131.495
X252.555Y-134.035
X252.6Y-80.4
X252.6Y-93.4
X253.2Y-90.6
X253.5Y-98.7
X253.8Y-114.2
X253.8Y-115.294
X254.4Y-111.2
X255.0Y-109.6
X255.095Y-52.755
X255.095Y-55.295
X255.095Y-57.835
X255.095Y-60.375
X255.095Y-62.915
X255.095Y-67.995
X255.095Y-78.155
X255.095Y-98.475
X255.2Y-101.0
X255.4Y-115.2
X256.0Y-96.4
X256.2Y-114.8
X257.443Y-113.212
X257.635Y-52.755
X257.635Y-55.295
X257.635Y-57.835
X257.635Y-60.375
X257.635Y-62.915
X257.635Y-118.795
X257.639Y-106.161
X257.8Y-116.2
X258.4Y-122.2
X258.5Y-133.2
X259.05Y-129.85
X259.122Y-107.469
X259.378Y-112.361
X259.4Y-108.6
X259.598Y-111.118
X259.6Y-100.4
X259.6Y-130.4
X259.8Y-85.0
X259.89Y-107.12
X260.0Y-64.4
X260.0Y-117.762
X260.0Y-120.5
X260.172Y-103.028
X260.175Y-52.755
X260.175Y-55.295
X260.175Y-57.835
X260.175Y-60.375
X260.175Y-62.915
X260.175Y-83.235
X260.6Y-94.4
X260.721Y-112.788
X260.8Y-111.2
X261.6Y-107.825
X261.786Y-112.375
X262.2Y-107.2
X262.6Y-108.966
X262.715Y-52.755
X262.715Y-55.295
X262.715Y-57.835
X262.715Y-60.375
X262.715Y-62.915
X262.715Y-121.335
X262.9Y-117.4
X263.7Y-100.02
X264.3Y-103.9
X264.95Y-72.65
X265.05Y-70.4
X265.255Y-52.755
X265.255Y-57.835
X265.255Y-62.915
X265.255Y-128.955
X265.255Y-131.495
X265.255Y-134.035
X265.8Y-105.6
X266.2Y-59.2
X266.6Y-114.621
X267.4Y-116.1
X267.795Y-52.755
X267.795Y-57.835
X267.795Y-60.375
X267.795Y-62.915
X267.795Y-65.455
X267.795Y-118.795
X267.795Y-121.335
X267.795Y-128.955
X267.795Y-134.035
X268.2Y-123.6
X268.4Y-131.2
X268.8Y-105.8
X268.819Y-103.265
X269.3Y-108.3
X270.335Y-52.755
X270.335Y-65.455
X270.335Y-67.995
X270.335Y-70.535
X270.335Y-73.075
X270.335Y-118.795
X270.335Y-121.335
X270.335Y-134.035
X272.875Y-52.755
X272.875Y-55.295
X272.875Y-57.835
X272.875Y-60.375
X272.875Y-65.455
X272.875Y-67.995
X272.875Y-70.535
X272.875Y-73.075
X272.875Y-118.795
X272.875Y-121.335
X272.875Y-123.875
X272.875Y-128.955
X272.875Y-131.495
X272.875Y-134.035
X274.875Y-101.012
X275.202Y-104.222
X275.415Y-52.755
X275.415Y-67.995
X275.415Y-70.535
X275.415Y-73.075
X275.415Y-75.615
X275.415Y-78.155
X275.415Y-90.855
X275.415Y-134.035
X276.024Y-107.1
X276.3Y-95.8
X277.2Y-115.8
X277.955Y-52.755
X277.955Y-55.295
X277.955Y-57.835
X277.955Y-62.915
X277.955Y-65.455
X277.955Y-70.535
X277.955Y-73.075
X277.955Y-121.335
X277.955Y-123.875
X277.955Y-126.415
X277.955Y-128.955
X277.955Y-131.495
X277.955Y-134.035
X278.3Y-107.7
X280.6Y-109.0
T2
X191.1Y-92.5
X194.8Y-113.0
X199.0Y-95.25
X200.8Y-76.4
X201.0Y-91.75
X201.4Y-105.7
X202.1Y-102.5
X205.25Y-96.75
X206.8Y-93.8
X211.75Y-107.5
X214.0Y-106.5
X214.4Y-114.7
X217.3Y-107.4
X219.4Y-134.4
X221.4Y-58.9
X222.9Y-97.162
X222.9Y-98.7
X223.0Y-116.25
X226.25Y-116.0
X226.85Y-94.65
X228.1Y-65.4
X228.75Y-116.0
X230.2Y-98.6
X232.4Y-96.2
X233.5Y-117.5
X238.4Y-104.2
X241.8Y-110.6
X242.649Y-106.0
X244.8Y-106.2
X247.4Y-98.0
X248.922Y-99.83
X249.5Y-118.5
X251.22Y-106.8
X251.6Y-114.0
X252.6Y-117.1
X252.8Y-126.1
X254.3Y-133.7
X256.1Y-101.6
X257.575Y-98.5
X258.0Y-89.6
X259.029Y-104.395
X261.0Y-121.75
X263.4Y-133.65
X263.61Y-97.47
X264.18Y-99.32
X264.863Y-126.15
X265.1Y-121.5
X266.06Y-106.47
X266.61Y-100.23
X267.0Y-86.6
X268.14Y-95.28
X269.234Y-105.041
X269.5Y-102.8
X271.099Y-101.5
X273.4Y-76.0
X273.4Y-105.54
X274.115Y-97.161
X278.95Y-85.45
X279.0Y-77.0
X279.167Y-81.317
T3
X192.4Y-112.1
X204.2Y-116.9
X208.6Y-109.4
X222.9Y-90.6
X235.2Y-118.0
X241.4Y-99.4
X256.5Y-99.9
X265.2Y-66.2
X267.5Y-93.9
X269.6Y-110.6
T5
X208.7Y-103.735
X208.7Y-106.275
X216.9Y-124.2
X216.9Y-126.74
X216.9Y-129.28
X216.9Y-131.82
X216.9Y-134.36
X227.375Y-53.985
X227.375Y-56.525
X229.915Y-53.985
X229.915Y-56.525
X232.455Y-53.985
X232.455Y-56.525
X234.995Y-53.985
X234.995Y-56.525
X237.535Y-53.985
X237.535Y-56.525
X240.075Y-53.985
X240.075Y-56.525
X242.615Y-53.985
X242.615Y-56.525
X253.75Y-120.25
X253.75Y-122.79
X258.12Y-80.51
X260.66Y-80.51
X263.18Y-84.3
X263.18Y-86.84
X263.2Y-80.51
X267.5Y-69.52
X267.5Y-72.06
X267.5Y-74.6
X269.76Y-98.5
X271.05Y-79.12
X271.05Y-81.66
X271.05Y-84.2
X271.05Y-86.74
X271.05Y-89.28
X272.3Y-98.5
X273.59Y-79.12
X273.59Y-81.66
X273.59Y-84.2
X273.59Y-86.74
X273.59Y-89.28
X274.84Y-98.5
T6
X192.15Y-125.15
X192.15Y-130.15
X192.5Y-56.4
X192.5Y-61.4
X197.15Y-125.15
X197.15Y-130.15
X197.5Y-56.4
X197.5Y-61.4
X227.2Y-127.25
X227.2Y-132.25
X232.2Y-127.25
X232.2Y-132.25
X237.2Y-127.25
X237.2Y-132.25
X242.2Y-127.25
X242.2Y-132.25
X247.2Y-127.25
X247.2Y-132.25
X270.25Y-125.15
X270.25Y-130.15
X270.65Y-56.3
X270.65Y-61.3
X275.25Y-125.15
X275.25Y-130.15
X275.65Y-56.3
X275.65Y-61.3
T7
X196.772Y-79.57
X201.772Y-79.57
T4
G00X254.43Y-131.11
M15
G01X254.43Y-132.11
M16
G05
G00X254.43Y-136.22
M15
G01X254.43Y-137.72
M16
G05
G00X263.07Y-131.11
M15
G01X263.07Y-132.11
M16
G05
G00X263.07Y-136.22
M15
G01X263.07Y-137.72
M16
G05
T0
M30
