%TF.GenerationSoftware,KiCad,Pcbnew,7.0.8*%
%TF.CreationDate,2024-04-05T12:05:25+02:00*%
%TF.ProjectId,menelaos-rev-4,6d656e65-6c61-46f7-932d-7265762d342e,rev?*%
%TF.SameCoordinates,Original*%
%TF.FileFunction,Legend,Bot*%
%TF.FilePolarity,Positive*%
%FSLAX46Y46*%
G04 Gerber Fmt 4.6, Leading zero omitted, Abs format (unit mm)*
G04 Created by KiCad (PCBNEW 7.0.8) date 2024-04-05 12:05:25*
%MOMM*%
%LPD*%
G01*
G04 APERTURE LIST*
%ADD10C,0.125000*%
G04 APERTURE END LIST*
D10*
G36*
X276268787Y-78730509D02*
G01*
X276268604Y-78718932D01*
X276268054Y-78707555D01*
X276267138Y-78696380D01*
X276265855Y-78685406D01*
X276264205Y-78674634D01*
X276262189Y-78664062D01*
X276259807Y-78653691D01*
X276257058Y-78643522D01*
X276253942Y-78633553D01*
X276250460Y-78623786D01*
X276246611Y-78614220D01*
X276242395Y-78604855D01*
X276237813Y-78595691D01*
X276232865Y-78586728D01*
X276227550Y-78577967D01*
X276221868Y-78569406D01*
X276215831Y-78561070D01*
X276209499Y-78552983D01*
X276202875Y-78545143D01*
X276195956Y-78537552D01*
X276188744Y-78530208D01*
X276181239Y-78523113D01*
X276173440Y-78516266D01*
X276165347Y-78509668D01*
X276156961Y-78503317D01*
X276148282Y-78497214D01*
X276139308Y-78491360D01*
X276130041Y-78485754D01*
X276120481Y-78480396D01*
X276110627Y-78475286D01*
X276100479Y-78470424D01*
X276090038Y-78465811D01*
X276079340Y-78461487D01*
X276068421Y-78457442D01*
X276057282Y-78453675D01*
X276045922Y-78450188D01*
X276034341Y-78446980D01*
X276022540Y-78444051D01*
X276010518Y-78441401D01*
X275998276Y-78439030D01*
X275985813Y-78436937D01*
X275973130Y-78435124D01*
X275960226Y-78433590D01*
X275947101Y-78432334D01*
X275933756Y-78431358D01*
X275920190Y-78430660D01*
X275906404Y-78430242D01*
X275892397Y-78430102D01*
X275880754Y-78430130D01*
X275869336Y-78430317D01*
X275858144Y-78430662D01*
X275847178Y-78431166D01*
X275836436Y-78431830D01*
X275825921Y-78432652D01*
X275815630Y-78433633D01*
X275805565Y-78434774D01*
X275795726Y-78436073D01*
X275786112Y-78437531D01*
X275776724Y-78439148D01*
X275767561Y-78440924D01*
X275758623Y-78442859D01*
X275749911Y-78444953D01*
X275741424Y-78447206D01*
X275733163Y-78449617D01*
X275725074Y-78452161D01*
X275717158Y-78454808D01*
X275705605Y-78458973D01*
X275694439Y-78463371D01*
X275683660Y-78468004D01*
X275673268Y-78472869D01*
X275663263Y-78477969D01*
X275653645Y-78483302D01*
X275644413Y-78488868D01*
X275635568Y-78494668D01*
X275627110Y-78500702D01*
X275624377Y-78502765D01*
X275616369Y-78509053D01*
X275608692Y-78515462D01*
X275601348Y-78521991D01*
X275594336Y-78528641D01*
X275587656Y-78535411D01*
X275581308Y-78542302D01*
X275575292Y-78549313D01*
X275569608Y-78556444D01*
X275564256Y-78563696D01*
X275559236Y-78571068D01*
X275556074Y-78576050D01*
X275551572Y-78583561D01*
X275547328Y-78591068D01*
X275543344Y-78598572D01*
X275539618Y-78606072D01*
X275535054Y-78616066D01*
X275530951Y-78626054D01*
X275527308Y-78636035D01*
X275524126Y-78646010D01*
X275521404Y-78655978D01*
X275519069Y-78665885D01*
X275517044Y-78675571D01*
X275515332Y-78685037D01*
X275513930Y-78694282D01*
X275512840Y-78703306D01*
X275512062Y-78712110D01*
X275511595Y-78720693D01*
X275511439Y-78729056D01*
X275511576Y-78738132D01*
X275511986Y-78747142D01*
X275512671Y-78756086D01*
X275513629Y-78764965D01*
X275514860Y-78773778D01*
X275516366Y-78782526D01*
X275518145Y-78791207D01*
X275520197Y-78799824D01*
X275522524Y-78808374D01*
X275525124Y-78816859D01*
X275527010Y-78822479D01*
X275530007Y-78830853D01*
X275533238Y-78839081D01*
X275536702Y-78847163D01*
X275540400Y-78855099D01*
X275544332Y-78862889D01*
X275548497Y-78870533D01*
X275552895Y-78878031D01*
X275557528Y-78885383D01*
X275562393Y-78892590D01*
X275567493Y-78899650D01*
X275571022Y-78904275D01*
X275576472Y-78911040D01*
X275582155Y-78917552D01*
X275588072Y-78923812D01*
X275594222Y-78929821D01*
X275600606Y-78935578D01*
X275607224Y-78941083D01*
X275614075Y-78946336D01*
X275621159Y-78951337D01*
X275628477Y-78956087D01*
X275636029Y-78960585D01*
X275641193Y-78963443D01*
X275719253Y-78884760D01*
X275727765Y-78876664D01*
X275719253Y-78868360D01*
X275710437Y-78867572D01*
X275701894Y-78865598D01*
X275700776Y-78865245D01*
X275693049Y-78861849D01*
X275685272Y-78856923D01*
X275678175Y-78851609D01*
X275676279Y-78850090D01*
X275669635Y-78843976D01*
X275663330Y-78837624D01*
X275657362Y-78831033D01*
X275651732Y-78824204D01*
X275648667Y-78820195D01*
X275643667Y-78812862D01*
X275639204Y-78805032D01*
X275635277Y-78796706D01*
X275631886Y-78787883D01*
X275630190Y-78782618D01*
X275627932Y-78774329D01*
X275626142Y-78765500D01*
X275624818Y-78756131D01*
X275623962Y-78746222D01*
X275623605Y-78737552D01*
X275623547Y-78732170D01*
X275623839Y-78722263D01*
X275624714Y-78712473D01*
X275626174Y-78702800D01*
X275628218Y-78693244D01*
X275630845Y-78683804D01*
X275631851Y-78680683D01*
X275635281Y-78671543D01*
X275639500Y-78662651D01*
X275643617Y-78655430D01*
X275648283Y-78648382D01*
X275653495Y-78641506D01*
X275659255Y-78634802D01*
X275665547Y-78628301D01*
X275672356Y-78622034D01*
X275679682Y-78615999D01*
X275687525Y-78610198D01*
X275695885Y-78604629D01*
X275704762Y-78599294D01*
X275708458Y-78597226D01*
X275716084Y-78593294D01*
X275724119Y-78589596D01*
X275732563Y-78586132D01*
X275741415Y-78582901D01*
X275750676Y-78579903D01*
X275760346Y-78577140D01*
X275770425Y-78574609D01*
X275780912Y-78572313D01*
X275791779Y-78570269D01*
X275800227Y-78568915D01*
X275808931Y-78567715D01*
X275817890Y-78566667D01*
X275827105Y-78565773D01*
X275836575Y-78565032D01*
X275846300Y-78564445D01*
X275856281Y-78564011D01*
X275866517Y-78563730D01*
X275877009Y-78563602D01*
X275880563Y-78563593D01*
X275889264Y-78563640D01*
X275897824Y-78563782D01*
X275906242Y-78564017D01*
X275918606Y-78564546D01*
X275930652Y-78565287D01*
X275942380Y-78566239D01*
X275953791Y-78567403D01*
X275964884Y-78568779D01*
X275975660Y-78570367D01*
X275986118Y-78572166D01*
X275996259Y-78574176D01*
X276002843Y-78575635D01*
X276012427Y-78578015D01*
X276021715Y-78580564D01*
X276030708Y-78583280D01*
X276039405Y-78586164D01*
X276047806Y-78589216D01*
X276055912Y-78592436D01*
X276063722Y-78595824D01*
X276071237Y-78599380D01*
X276080796Y-78604382D01*
X276089831Y-78609682D01*
X276098320Y-78615323D01*
X276106244Y-78621243D01*
X276113605Y-78627442D01*
X276120401Y-78633920D01*
X276126632Y-78640677D01*
X276132299Y-78647713D01*
X276137402Y-78655028D01*
X276141940Y-78662622D01*
X276145881Y-78670449D01*
X276149297Y-78678465D01*
X276152187Y-78686668D01*
X276154552Y-78695060D01*
X276156391Y-78703640D01*
X276157705Y-78712408D01*
X276158493Y-78721365D01*
X276158756Y-78730509D01*
X276158594Y-78739592D01*
X276158107Y-78748674D01*
X276157296Y-78757757D01*
X276157095Y-78759574D01*
X276155880Y-78767849D01*
X276154336Y-78776091D01*
X276152464Y-78784300D01*
X276151282Y-78788846D01*
X276148733Y-78796955D01*
X276145757Y-78804933D01*
X276142354Y-78812779D01*
X276140279Y-78817081D01*
X276136046Y-78824722D01*
X276131287Y-78832233D01*
X276126003Y-78839612D01*
X276122840Y-78843654D01*
X275989764Y-78843654D01*
X275989764Y-78720751D01*
X275878072Y-78720751D01*
X275878072Y-78965104D01*
X276192388Y-78965104D01*
X276197435Y-78958410D01*
X276202298Y-78951665D01*
X276209249Y-78941453D01*
X276215788Y-78931129D01*
X276221915Y-78920691D01*
X276227629Y-78910140D01*
X276232931Y-78899476D01*
X276237821Y-78888699D01*
X276242298Y-78877809D01*
X276246363Y-78866806D01*
X276250015Y-78855689D01*
X276251141Y-78851959D01*
X276254294Y-78840767D01*
X276257138Y-78829535D01*
X276259671Y-78818263D01*
X276261894Y-78806950D01*
X276263807Y-78795598D01*
X276265410Y-78784205D01*
X276266702Y-78772772D01*
X276267684Y-78761300D01*
X276268356Y-78749787D01*
X276268718Y-78738233D01*
X276268787Y-78730509D01*
G37*
G36*
X275511439Y-79038597D02*
G01*
X275511439Y-79179354D01*
X276001183Y-79432426D01*
X275511439Y-79425368D01*
X275511439Y-79545779D01*
X275511439Y-79557198D01*
X275522235Y-79557198D01*
X275529171Y-79552019D01*
X275537275Y-79548807D01*
X275537805Y-79548686D01*
X275546540Y-79547610D01*
X275554915Y-79547187D01*
X275563959Y-79547031D01*
X275566455Y-79547025D01*
X276255501Y-79547025D01*
X276255501Y-79421631D01*
X275733578Y-79160254D01*
X276255501Y-79160254D01*
X276255501Y-79038597D01*
X275511439Y-79038597D01*
G37*
G36*
X276255501Y-79817121D02*
G01*
X276255401Y-79828103D01*
X276255102Y-79838887D01*
X276254603Y-79849473D01*
X276253905Y-79859862D01*
X276253007Y-79870052D01*
X276251910Y-79880045D01*
X276250613Y-79889840D01*
X276249117Y-79899437D01*
X276247421Y-79908836D01*
X276245526Y-79918037D01*
X276243431Y-79927040D01*
X276241137Y-79935846D01*
X276238643Y-79944453D01*
X276235950Y-79952863D01*
X276233057Y-79961075D01*
X276229965Y-79969089D01*
X276228334Y-79973024D01*
X276224945Y-79980759D01*
X276221383Y-79988314D01*
X276215718Y-79999309D01*
X276209666Y-80009898D01*
X276203227Y-80020083D01*
X276196402Y-80029863D01*
X276189190Y-80039237D01*
X276181591Y-80048207D01*
X276173605Y-80056771D01*
X276165232Y-80064930D01*
X276156472Y-80072684D01*
X276150401Y-80077664D01*
X276141009Y-80084829D01*
X276131274Y-80091629D01*
X276121196Y-80098064D01*
X276110774Y-80104134D01*
X276100010Y-80109839D01*
X276088903Y-80115179D01*
X276081307Y-80118536D01*
X276073559Y-80121731D01*
X276065659Y-80124764D01*
X276057606Y-80127635D01*
X276049401Y-80130344D01*
X276041043Y-80132890D01*
X276032542Y-80135309D01*
X276023906Y-80137584D01*
X276015135Y-80139715D01*
X276006230Y-80141701D01*
X275997190Y-80143542D01*
X275988016Y-80145240D01*
X275978707Y-80146793D01*
X275969263Y-80148201D01*
X275959685Y-80149466D01*
X275949972Y-80150585D01*
X275940124Y-80151561D01*
X275930142Y-80152392D01*
X275920026Y-80153079D01*
X275909774Y-80153622D01*
X275899388Y-80154020D01*
X275888868Y-80154274D01*
X275881587Y-80154237D01*
X275870805Y-80154046D01*
X275860192Y-80153690D01*
X275849746Y-80153170D01*
X275839469Y-80152486D01*
X275829359Y-80151637D01*
X275819417Y-80150624D01*
X275809643Y-80149448D01*
X275800036Y-80148106D01*
X275790598Y-80146601D01*
X275781327Y-80144931D01*
X275775229Y-80143756D01*
X275766179Y-80141869D01*
X275757245Y-80139832D01*
X275748428Y-80137646D01*
X275739728Y-80135309D01*
X275731145Y-80132824D01*
X275722679Y-80130188D01*
X275714329Y-80127403D01*
X275706096Y-80124468D01*
X275697980Y-80121384D01*
X275689981Y-80118150D01*
X275684722Y-80115940D01*
X275676964Y-80112513D01*
X275669363Y-80108951D01*
X275659472Y-80103991D01*
X275649861Y-80098791D01*
X275640528Y-80093351D01*
X275631475Y-80087671D01*
X275622700Y-80081751D01*
X275614204Y-80075591D01*
X275606017Y-80069350D01*
X275598167Y-80062875D01*
X275590654Y-80056167D01*
X275583479Y-80049225D01*
X275576640Y-80042050D01*
X275570140Y-80034641D01*
X275563976Y-80026998D01*
X275558151Y-80019122D01*
X275553965Y-80013049D01*
X275548686Y-80004590D01*
X275543750Y-79995714D01*
X275539159Y-79986424D01*
X275534911Y-79976718D01*
X275531007Y-79966598D01*
X275528305Y-79958734D01*
X275525796Y-79950638D01*
X275523480Y-79942308D01*
X275522022Y-79936620D01*
X275520011Y-79927777D01*
X275518212Y-79918563D01*
X275516625Y-79908976D01*
X275515249Y-79899017D01*
X275514085Y-79888686D01*
X275513132Y-79877982D01*
X275512392Y-79866906D01*
X275511862Y-79855458D01*
X275511545Y-79843638D01*
X275511439Y-79831446D01*
X275511439Y-79770617D01*
X275618564Y-79770617D01*
X275618564Y-79826671D01*
X275618695Y-79835938D01*
X275619086Y-79844950D01*
X275619739Y-79853708D01*
X275620653Y-79862210D01*
X275622514Y-79874487D01*
X275624962Y-79886191D01*
X275627997Y-79897322D01*
X275631621Y-79907881D01*
X275635831Y-79917866D01*
X275640629Y-79927278D01*
X275646015Y-79936117D01*
X275651989Y-79944384D01*
X275656274Y-79949606D01*
X275663103Y-79957075D01*
X275670414Y-79964106D01*
X275678206Y-79970699D01*
X275686480Y-79976855D01*
X275695236Y-79982572D01*
X275704474Y-79987851D01*
X275714194Y-79992693D01*
X275724395Y-79997096D01*
X275735077Y-80001062D01*
X275746242Y-80004590D01*
X275757837Y-80007780D01*
X275769812Y-80010657D01*
X275778006Y-80012401D01*
X275786368Y-80014005D01*
X275794900Y-80015469D01*
X275803600Y-80016795D01*
X275812468Y-80017980D01*
X275821506Y-80019026D01*
X275830712Y-80019933D01*
X275840087Y-80020700D01*
X275849630Y-80021328D01*
X275859342Y-80021816D01*
X275869223Y-80022165D01*
X275879272Y-80022374D01*
X275889490Y-80022444D01*
X275899121Y-80022440D01*
X275908603Y-80022272D01*
X275917936Y-80021940D01*
X275927119Y-80021445D01*
X275936153Y-80020785D01*
X275945038Y-80019962D01*
X275953774Y-80018975D01*
X275962360Y-80017824D01*
X275970797Y-80016510D01*
X275979086Y-80015031D01*
X275991238Y-80012507D01*
X276003054Y-80009613D01*
X276014535Y-80006352D01*
X276025680Y-80002721D01*
X276032873Y-80000103D01*
X276043287Y-79995799D01*
X276053253Y-79991043D01*
X276062770Y-79985834D01*
X276071838Y-79980173D01*
X276080457Y-79974059D01*
X276088627Y-79967493D01*
X276096348Y-79960474D01*
X276103621Y-79953003D01*
X276110445Y-79945079D01*
X276116819Y-79936702D01*
X276120792Y-79930871D01*
X276126269Y-79921669D01*
X276131170Y-79911919D01*
X276135495Y-79901622D01*
X276139243Y-79890777D01*
X276142414Y-79879385D01*
X276145008Y-79867446D01*
X276146418Y-79859182D01*
X276147571Y-79850675D01*
X276148468Y-79841925D01*
X276149109Y-79832931D01*
X276149493Y-79823695D01*
X276149621Y-79814214D01*
X276149621Y-79770617D01*
X275618564Y-79770617D01*
X275511439Y-79770617D01*
X275511439Y-79639410D01*
X276255501Y-79639410D01*
X276255501Y-79817121D01*
G37*
G36*
X275511439Y-80822351D02*
G01*
X275511439Y-80963108D01*
X276001183Y-81216181D01*
X275511439Y-81209122D01*
X275511439Y-81329534D01*
X275511439Y-81340952D01*
X275522235Y-81340952D01*
X275529171Y-81335773D01*
X275537275Y-81332562D01*
X275537805Y-81332440D01*
X275546540Y-81331365D01*
X275554915Y-81330942D01*
X275563959Y-81330786D01*
X275566455Y-81330779D01*
X276255501Y-81330779D01*
X276255501Y-81205385D01*
X275733578Y-80944009D01*
X276255501Y-80944009D01*
X276255501Y-80822351D01*
X275511439Y-80822351D01*
G37*
G36*
X276268787Y-81706547D02*
G01*
X276268596Y-81695167D01*
X276268021Y-81683914D01*
X276267063Y-81672789D01*
X276265722Y-81661792D01*
X276263998Y-81650922D01*
X276261890Y-81640180D01*
X276259399Y-81629566D01*
X276256526Y-81619080D01*
X276253269Y-81608721D01*
X276249628Y-81598490D01*
X276246989Y-81591741D01*
X276242690Y-81581807D01*
X276237967Y-81572093D01*
X276232822Y-81562597D01*
X276227253Y-81553320D01*
X276221261Y-81544263D01*
X276214845Y-81535424D01*
X276208006Y-81526804D01*
X276200744Y-81518404D01*
X276193059Y-81510222D01*
X276184950Y-81502259D01*
X276179309Y-81497072D01*
X276170484Y-81489522D01*
X276161213Y-81482285D01*
X276151497Y-81475362D01*
X276141336Y-81468753D01*
X276130730Y-81462458D01*
X276123412Y-81458436D01*
X276115896Y-81454553D01*
X276108182Y-81450809D01*
X276100271Y-81447206D01*
X276092161Y-81443741D01*
X276083853Y-81440416D01*
X276075348Y-81437231D01*
X276066645Y-81434185D01*
X276062219Y-81432714D01*
X276053189Y-81429924D01*
X276043953Y-81427313D01*
X276034511Y-81424883D01*
X276024863Y-81422632D01*
X276015009Y-81420562D01*
X276004949Y-81418671D01*
X275994683Y-81416961D01*
X275984211Y-81415431D01*
X275973533Y-81414081D01*
X275962649Y-81412910D01*
X275951559Y-81411920D01*
X275940263Y-81411110D01*
X275928761Y-81410480D01*
X275917053Y-81410030D01*
X275905140Y-81409760D01*
X275893020Y-81409670D01*
X275882359Y-81409740D01*
X275871863Y-81409949D01*
X275861533Y-81410297D01*
X275851369Y-81410786D01*
X275841369Y-81411413D01*
X275831536Y-81412181D01*
X275821867Y-81413087D01*
X275812365Y-81414133D01*
X275803027Y-81415319D01*
X275793855Y-81416644D01*
X275784849Y-81418109D01*
X275776008Y-81419713D01*
X275767332Y-81421456D01*
X275758822Y-81423339D01*
X275750477Y-81425362D01*
X275742297Y-81427524D01*
X275734281Y-81429805D01*
X275722558Y-81433413D01*
X275711195Y-81437242D01*
X275700194Y-81441295D01*
X275689555Y-81445570D01*
X275679277Y-81450068D01*
X275669359Y-81454788D01*
X275659804Y-81459732D01*
X275650609Y-81464897D01*
X275641776Y-81470285D01*
X275633304Y-81475896D01*
X275625164Y-81481691D01*
X275617327Y-81487632D01*
X275609793Y-81493720D01*
X275602562Y-81499953D01*
X275595634Y-81506332D01*
X275589008Y-81512857D01*
X275582686Y-81519528D01*
X275576666Y-81526345D01*
X275570950Y-81533308D01*
X275565536Y-81540416D01*
X275562095Y-81545237D01*
X275557133Y-81552547D01*
X275552444Y-81559919D01*
X275548029Y-81567354D01*
X275543887Y-81574850D01*
X275540020Y-81582408D01*
X275536426Y-81590029D01*
X275533105Y-81597711D01*
X275530059Y-81605456D01*
X275526422Y-81615878D01*
X275523273Y-81626411D01*
X275520499Y-81637044D01*
X275518095Y-81647665D01*
X275516062Y-81658272D01*
X275514397Y-81668866D01*
X275513103Y-81679448D01*
X275512179Y-81690016D01*
X275511624Y-81700572D01*
X275511439Y-81711114D01*
X275511588Y-81721629D01*
X275512036Y-81731946D01*
X275512782Y-81742065D01*
X275513827Y-81751987D01*
X275515170Y-81761710D01*
X275516811Y-81771236D01*
X275518751Y-81780564D01*
X275520989Y-81789693D01*
X275523526Y-81798625D01*
X275526361Y-81807359D01*
X275529494Y-81815896D01*
X275532926Y-81824234D01*
X275536657Y-81832374D01*
X275540686Y-81840317D01*
X275545013Y-81848062D01*
X275549639Y-81855608D01*
X275554534Y-81862947D01*
X275559672Y-81870066D01*
X275565051Y-81876967D01*
X275570672Y-81883648D01*
X275576534Y-81890111D01*
X275582638Y-81896354D01*
X275588984Y-81902379D01*
X275595572Y-81908185D01*
X275602401Y-81913771D01*
X275609471Y-81919139D01*
X275616784Y-81924288D01*
X275624338Y-81929218D01*
X275632134Y-81933929D01*
X275640171Y-81938421D01*
X275648450Y-81942694D01*
X275656971Y-81946748D01*
X275720706Y-81862044D01*
X275726727Y-81852702D01*
X275717800Y-81846266D01*
X275709121Y-81846671D01*
X275700466Y-81844990D01*
X275699946Y-81844813D01*
X275691659Y-81841252D01*
X275683420Y-81836881D01*
X275675661Y-81832362D01*
X275674618Y-81831734D01*
X275666858Y-81825256D01*
X275659774Y-81818693D01*
X275653364Y-81812047D01*
X275647629Y-81805316D01*
X275642568Y-81798500D01*
X275637192Y-81789863D01*
X275632869Y-81781093D01*
X275631436Y-81777548D01*
X275628326Y-81768615D01*
X275625743Y-81759590D01*
X275623687Y-81750473D01*
X275622158Y-81741266D01*
X275621157Y-81731967D01*
X275620682Y-81722577D01*
X275620640Y-81718796D01*
X275620906Y-81710225D01*
X275621704Y-81701746D01*
X275623034Y-81693357D01*
X275624896Y-81685060D01*
X275627290Y-81676853D01*
X275630216Y-81668737D01*
X275633674Y-81660711D01*
X275637664Y-81652777D01*
X275642134Y-81644992D01*
X275647136Y-81637414D01*
X275652670Y-81630044D01*
X275658736Y-81622882D01*
X275665334Y-81615927D01*
X275672464Y-81609180D01*
X275680126Y-81602640D01*
X275688320Y-81596308D01*
X275697029Y-81590297D01*
X275706239Y-81584617D01*
X275715948Y-81579268D01*
X275723557Y-81575473D01*
X275731448Y-81571865D01*
X275739619Y-81568442D01*
X275748071Y-81565206D01*
X275756805Y-81562156D01*
X275765819Y-81559292D01*
X275771985Y-81557486D01*
X275781427Y-81554963D01*
X275791147Y-81552688D01*
X275801143Y-81550661D01*
X275811417Y-81548883D01*
X275821969Y-81547353D01*
X275832798Y-81546070D01*
X275843904Y-81545036D01*
X275855287Y-81544251D01*
X275866948Y-81543713D01*
X275878886Y-81543423D01*
X275886999Y-81543368D01*
X275898677Y-81543478D01*
X275910121Y-81543806D01*
X275921332Y-81544354D01*
X275932309Y-81545120D01*
X275943053Y-81546105D01*
X275953563Y-81547310D01*
X275963839Y-81548733D01*
X275973882Y-81550375D01*
X275983692Y-81552236D01*
X275993268Y-81554316D01*
X275999522Y-81555825D01*
X276008697Y-81558285D01*
X276017618Y-81560917D01*
X276026282Y-81563720D01*
X276034692Y-81566695D01*
X276042845Y-81569841D01*
X276050744Y-81573159D01*
X276058387Y-81576648D01*
X276068180Y-81581568D01*
X276077519Y-81586792D01*
X276084225Y-81590910D01*
X276092740Y-81596642D01*
X276100743Y-81602627D01*
X276108233Y-81608865D01*
X276115210Y-81615356D01*
X276121675Y-81622100D01*
X276127628Y-81629097D01*
X276133068Y-81636347D01*
X276137995Y-81643850D01*
X276142374Y-81651560D01*
X276146170Y-81659433D01*
X276149381Y-81667468D01*
X276152009Y-81675665D01*
X276154052Y-81684025D01*
X276155512Y-81692546D01*
X276156388Y-81701230D01*
X276156680Y-81710076D01*
X276156477Y-81719097D01*
X276155869Y-81727865D01*
X276154855Y-81736379D01*
X276153436Y-81744639D01*
X276151198Y-81754218D01*
X276148376Y-81763431D01*
X276144933Y-81772394D01*
X276140834Y-81781065D01*
X276136077Y-81789444D01*
X276130664Y-81797530D01*
X276124594Y-81805325D01*
X276122425Y-81807859D01*
X276116621Y-81814131D01*
X276110240Y-81820230D01*
X276103281Y-81826157D01*
X276095744Y-81831912D01*
X276087629Y-81837494D01*
X276078937Y-81842905D01*
X276075298Y-81845020D01*
X276143808Y-81938859D01*
X276152066Y-81933584D01*
X276160024Y-81928193D01*
X276167682Y-81922685D01*
X276175040Y-81917060D01*
X276182098Y-81911318D01*
X276188856Y-81905460D01*
X276195313Y-81899485D01*
X276201471Y-81893393D01*
X276207329Y-81887184D01*
X276212886Y-81880858D01*
X276218144Y-81874416D01*
X276225467Y-81864534D01*
X276232116Y-81854389D01*
X276238089Y-81843981D01*
X276239930Y-81840453D01*
X276245087Y-81829646D01*
X276249737Y-81818477D01*
X276253880Y-81806947D01*
X276257515Y-81795055D01*
X276259657Y-81786927D01*
X276261573Y-81778638D01*
X276263264Y-81770189D01*
X276264729Y-81761579D01*
X276265969Y-81752808D01*
X276266984Y-81743877D01*
X276267773Y-81734785D01*
X276268336Y-81725533D01*
X276268675Y-81716120D01*
X276268787Y-81706547D01*
G37*
G36*
X275511439Y-82606106D02*
G01*
X275511439Y-82746863D01*
X276001183Y-82999935D01*
X275511439Y-82992876D01*
X275511439Y-83113288D01*
X275511439Y-83124706D01*
X275522235Y-83124706D01*
X275529171Y-83119527D01*
X275537275Y-83116316D01*
X275537805Y-83116195D01*
X275546540Y-83115119D01*
X275554915Y-83114696D01*
X275563959Y-83114540D01*
X275566455Y-83114534D01*
X276255501Y-83114534D01*
X276255501Y-82989139D01*
X275733578Y-82727763D01*
X276255501Y-82727763D01*
X276255501Y-82606106D01*
X275511439Y-82606106D01*
G37*
G36*
X276255501Y-83347260D02*
G01*
X275949904Y-83347260D01*
X275949904Y-83436116D01*
X276255501Y-83587461D01*
X276255501Y-83729464D01*
X275936825Y-83568777D01*
X275934661Y-83574104D01*
X275931184Y-83581927D01*
X275927430Y-83589550D01*
X275923399Y-83596972D01*
X275919091Y-83604194D01*
X275914505Y-83611214D01*
X275909641Y-83618034D01*
X275904500Y-83624654D01*
X275899082Y-83631072D01*
X275893387Y-83637290D01*
X275887414Y-83643307D01*
X275881230Y-83649096D01*
X275874900Y-83654630D01*
X275868423Y-83659908D01*
X275861801Y-83664931D01*
X275852744Y-83671230D01*
X275843428Y-83677076D01*
X275833852Y-83682467D01*
X275824017Y-83687404D01*
X275813922Y-83691887D01*
X275803694Y-83695926D01*
X275793459Y-83699426D01*
X275783219Y-83702387D01*
X275772971Y-83704811D01*
X275762717Y-83706695D01*
X275752457Y-83708042D01*
X275742190Y-83708849D01*
X275731917Y-83709118D01*
X275723702Y-83709011D01*
X275711617Y-83708444D01*
X275699816Y-83707393D01*
X275688300Y-83705856D01*
X275677068Y-83703833D01*
X275666122Y-83701326D01*
X275655460Y-83698333D01*
X275645082Y-83694854D01*
X275634989Y-83690890D01*
X275625181Y-83686441D01*
X275615658Y-83681507D01*
X275609493Y-83677936D01*
X275600585Y-83672133D01*
X275592081Y-83665794D01*
X275583983Y-83658918D01*
X275576289Y-83651505D01*
X275569001Y-83643556D01*
X275562118Y-83635071D01*
X275555640Y-83626049D01*
X275549566Y-83616491D01*
X275543898Y-83606396D01*
X275538636Y-83595765D01*
X275536962Y-83592113D01*
X275532261Y-83580763D01*
X275529393Y-83572869D01*
X275526737Y-83564715D01*
X275524294Y-83556300D01*
X275522063Y-83547623D01*
X275520044Y-83538686D01*
X275518238Y-83529487D01*
X275516645Y-83520027D01*
X275515264Y-83510306D01*
X275514095Y-83500324D01*
X275513139Y-83490081D01*
X275512395Y-83479576D01*
X275511864Y-83468811D01*
X275511545Y-83457784D01*
X275511439Y-83446496D01*
X275511439Y-83347260D01*
X275628322Y-83347260D01*
X275628322Y-83455423D01*
X275628552Y-83464873D01*
X275629243Y-83473913D01*
X275630394Y-83482545D01*
X275632482Y-83492760D01*
X275635288Y-83502337D01*
X275638815Y-83511275D01*
X275643062Y-83519574D01*
X275644915Y-83522741D01*
X275649867Y-83530211D01*
X275655275Y-83537042D01*
X275661139Y-83543235D01*
X275667459Y-83548789D01*
X275674236Y-83553704D01*
X275681469Y-83557981D01*
X275684453Y-83559515D01*
X275692141Y-83562916D01*
X275700153Y-83565698D01*
X275708490Y-83567862D01*
X275717151Y-83569408D01*
X275726137Y-83570336D01*
X275735446Y-83570645D01*
X275738398Y-83570617D01*
X275747017Y-83570191D01*
X275757959Y-83568828D01*
X275768271Y-83566558D01*
X275777954Y-83563379D01*
X275787007Y-83559292D01*
X275795432Y-83554296D01*
X275803227Y-83548392D01*
X275810392Y-83541580D01*
X275813711Y-83537838D01*
X275819705Y-83529695D01*
X275824844Y-83520678D01*
X275829126Y-83510784D01*
X275831775Y-83502789D01*
X275833943Y-83494301D01*
X275835629Y-83485321D01*
X275836833Y-83475848D01*
X275837556Y-83465882D01*
X275837796Y-83455423D01*
X275837796Y-83347260D01*
X275628322Y-83347260D01*
X275511439Y-83347260D01*
X275511439Y-83210033D01*
X276255501Y-83210033D01*
X276255501Y-83347260D01*
G37*
G36*
X276268787Y-84040874D02*
G01*
X276268701Y-84031619D01*
X276268440Y-84022435D01*
X276268006Y-84013324D01*
X276267399Y-84004283D01*
X276266618Y-83995314D01*
X276265663Y-83986416D01*
X276264535Y-83977589D01*
X276263234Y-83968834D01*
X276261759Y-83960150D01*
X276260110Y-83951538D01*
X276258288Y-83942997D01*
X276256292Y-83934527D01*
X276254123Y-83926129D01*
X276251780Y-83917802D01*
X276249263Y-83909546D01*
X276246573Y-83901362D01*
X276243706Y-83893298D01*
X276240657Y-83885402D01*
X276237426Y-83877675D01*
X276232239Y-83866401D01*
X276226643Y-83855507D01*
X276220639Y-83844992D01*
X276214226Y-83834857D01*
X276207404Y-83825101D01*
X276200173Y-83815724D01*
X276192534Y-83806728D01*
X276184486Y-83798110D01*
X276178894Y-83792576D01*
X276068032Y-83858595D01*
X276058067Y-83864200D01*
X276064295Y-83874581D01*
X276072354Y-83877236D01*
X276080369Y-83880290D01*
X276082149Y-83881017D01*
X276089769Y-83885464D01*
X276096288Y-83890754D01*
X276102663Y-83896862D01*
X276105193Y-83899494D01*
X276110572Y-83907023D01*
X276115704Y-83914766D01*
X276120589Y-83922723D01*
X276125227Y-83930894D01*
X276129620Y-83939279D01*
X276133765Y-83947879D01*
X276137664Y-83956692D01*
X276141317Y-83965720D01*
X276144590Y-83974997D01*
X276147454Y-83984456D01*
X276149910Y-83994097D01*
X276151957Y-84003920D01*
X276153595Y-84013924D01*
X276154824Y-84024109D01*
X276155645Y-84034477D01*
X276156057Y-84045026D01*
X276155920Y-84053782D01*
X276155510Y-84062275D01*
X276154656Y-84072118D01*
X276153408Y-84081582D01*
X276151765Y-84090667D01*
X276150452Y-84096512D01*
X276148075Y-84104942D01*
X276145304Y-84112949D01*
X276141573Y-84121755D01*
X276137305Y-84129985D01*
X276133220Y-84136580D01*
X276127846Y-84143650D01*
X276121895Y-84149966D01*
X276115368Y-84155526D01*
X276108265Y-84160332D01*
X276103948Y-84162739D01*
X276095888Y-84166298D01*
X276087332Y-84168983D01*
X276078279Y-84170794D01*
X276068729Y-84171730D01*
X276063049Y-84171873D01*
X276054348Y-84171529D01*
X276045889Y-84170495D01*
X276037674Y-84168771D01*
X276036061Y-84168344D01*
X276027967Y-84165720D01*
X276020036Y-84162002D01*
X276012267Y-84157189D01*
X276010733Y-84156095D01*
X276003742Y-84150566D01*
X275997556Y-84144604D01*
X275991396Y-84137656D01*
X275986027Y-84130767D01*
X275980478Y-84123064D01*
X275975564Y-84115765D01*
X275970504Y-84107824D01*
X275966175Y-84100716D01*
X275961745Y-84093162D01*
X275959039Y-84088415D01*
X275954387Y-84080142D01*
X275949644Y-84071280D01*
X275945783Y-84063767D01*
X275941865Y-84055878D01*
X275937888Y-84047613D01*
X275933852Y-84038971D01*
X275929759Y-84029953D01*
X275927690Y-84025303D01*
X275923585Y-84015801D01*
X275919470Y-84006550D01*
X275915345Y-83997551D01*
X275911211Y-83988803D01*
X275907067Y-83980307D01*
X275902913Y-83972062D01*
X275898750Y-83964068D01*
X275894577Y-83956326D01*
X275890394Y-83948835D01*
X275886201Y-83941596D01*
X275879894Y-83931208D01*
X275873565Y-83921386D01*
X275867214Y-83912129D01*
X275860841Y-83903438D01*
X275854378Y-83895254D01*
X275847834Y-83887520D01*
X275841211Y-83880234D01*
X275834507Y-83873397D01*
X275827723Y-83867009D01*
X275820859Y-83861069D01*
X275813914Y-83855579D01*
X275806889Y-83850537D01*
X275799784Y-83845945D01*
X275790185Y-83840519D01*
X275787763Y-83839288D01*
X275777892Y-83834811D01*
X275767690Y-83830932D01*
X275757158Y-83827649D01*
X275749041Y-83825578D01*
X275740738Y-83823844D01*
X275732249Y-83822445D01*
X275723574Y-83821382D01*
X275714713Y-83820654D01*
X275705665Y-83820263D01*
X275699531Y-83820188D01*
X275689512Y-83820458D01*
X275679698Y-83821268D01*
X275670088Y-83822618D01*
X275660682Y-83824509D01*
X275651481Y-83826939D01*
X275642484Y-83829910D01*
X275633692Y-83833420D01*
X275625104Y-83837471D01*
X275616720Y-83842062D01*
X275608541Y-83847193D01*
X275603201Y-83850914D01*
X275595415Y-83856879D01*
X275587940Y-83863253D01*
X275580774Y-83870036D01*
X275573919Y-83877228D01*
X275567374Y-83884828D01*
X275561139Y-83892837D01*
X275555214Y-83901255D01*
X275549600Y-83910081D01*
X275544295Y-83919317D01*
X275539301Y-83928961D01*
X275536144Y-83935617D01*
X275531729Y-83945901D01*
X275527748Y-83956433D01*
X275524202Y-83967213D01*
X275521090Y-83978241D01*
X275518412Y-83989518D01*
X275516168Y-84001042D01*
X275514358Y-84012815D01*
X275512983Y-84024836D01*
X275512042Y-84037105D01*
X275511656Y-84045422D01*
X275511463Y-84053850D01*
X275511439Y-84058105D01*
X275511534Y-84066883D01*
X275511819Y-84075544D01*
X275512293Y-84084088D01*
X275512957Y-84092516D01*
X275513811Y-84100826D01*
X275515245Y-84111726D01*
X275517016Y-84122417D01*
X275519125Y-84132902D01*
X275521570Y-84143178D01*
X275522235Y-84145715D01*
X275525092Y-84155751D01*
X275528268Y-84165619D01*
X275531762Y-84175318D01*
X275535573Y-84184849D01*
X275539703Y-84194210D01*
X275544150Y-84203403D01*
X275548915Y-84212428D01*
X275553998Y-84221284D01*
X275559419Y-84229954D01*
X275565196Y-84238424D01*
X275571330Y-84246693D01*
X275577821Y-84254760D01*
X275584669Y-84262626D01*
X275591874Y-84270292D01*
X275599435Y-84277756D01*
X275607353Y-84285019D01*
X275698285Y-84205505D01*
X275707212Y-84198239D01*
X275699531Y-84188897D01*
X275691254Y-84187489D01*
X275683136Y-84185445D01*
X275680846Y-84184745D01*
X275673139Y-84181232D01*
X275665645Y-84176029D01*
X275658950Y-84170379D01*
X275657179Y-84168759D01*
X275650961Y-84161547D01*
X275645412Y-84154182D01*
X275640532Y-84146665D01*
X275636321Y-84138997D01*
X275632779Y-84131176D01*
X275629906Y-84123203D01*
X275628944Y-84119972D01*
X275626851Y-84111704D01*
X275625113Y-84102990D01*
X275623729Y-84093830D01*
X275622700Y-84084224D01*
X275622026Y-84074172D01*
X275621742Y-84065810D01*
X275621678Y-84059351D01*
X275621882Y-84050417D01*
X275622496Y-84041834D01*
X275623727Y-84032263D01*
X275625516Y-84023169D01*
X275627491Y-84015753D01*
X275630263Y-84007564D01*
X275633491Y-83999892D01*
X275637741Y-83991757D01*
X275642587Y-83984296D01*
X275643892Y-83982536D01*
X275649368Y-83975984D01*
X275655962Y-83969574D01*
X275663016Y-83964182D01*
X275667974Y-83961153D01*
X275675614Y-83957540D01*
X275684219Y-83954912D01*
X275692944Y-83953745D01*
X275695586Y-83953679D01*
X275704227Y-83954003D01*
X275712503Y-83954976D01*
X275721185Y-83956796D01*
X275721952Y-83957001D01*
X275730324Y-83959947D01*
X275737850Y-83963774D01*
X275745294Y-83968697D01*
X275746034Y-83969249D01*
X275752640Y-83975028D01*
X275758621Y-83981240D01*
X275764707Y-83988464D01*
X275770117Y-83995615D01*
X275774776Y-84002505D01*
X275779566Y-84010096D01*
X275784488Y-84018387D01*
X275788690Y-84025832D01*
X275792983Y-84033763D01*
X275796483Y-84040458D01*
X275800921Y-84049341D01*
X275804602Y-84056908D01*
X275808401Y-84064883D01*
X275812316Y-84073266D01*
X275816348Y-84082059D01*
X275820497Y-84091260D01*
X275824763Y-84100870D01*
X275828039Y-84108346D01*
X275832851Y-84118773D01*
X275837634Y-84128879D01*
X275842388Y-84138664D01*
X275847113Y-84148128D01*
X275851808Y-84157271D01*
X275856474Y-84166093D01*
X275861112Y-84174593D01*
X275865719Y-84182773D01*
X275870298Y-84190631D01*
X275874848Y-84198168D01*
X275877864Y-84203014D01*
X275882400Y-84210038D01*
X275888510Y-84218971D01*
X275894691Y-84227412D01*
X275900943Y-84235359D01*
X275907267Y-84242814D01*
X275913663Y-84249775D01*
X275920129Y-84256243D01*
X275926667Y-84262218D01*
X275928313Y-84263635D01*
X275934979Y-84269039D01*
X275941794Y-84274042D01*
X275948759Y-84278641D01*
X275957674Y-84283825D01*
X275966823Y-84288381D01*
X275976205Y-84292308D01*
X275985820Y-84295607D01*
X275995674Y-84298418D01*
X276003827Y-84300323D01*
X276012221Y-84301924D01*
X276020854Y-84303220D01*
X276029728Y-84304211D01*
X276038842Y-84304897D01*
X276048195Y-84305278D01*
X276055368Y-84305364D01*
X276065226Y-84305121D01*
X276075026Y-84304393D01*
X276084767Y-84303180D01*
X276094450Y-84301481D01*
X276104074Y-84299297D01*
X276113640Y-84296628D01*
X276123148Y-84293473D01*
X276132597Y-84289833D01*
X276141988Y-84285707D01*
X276151321Y-84281096D01*
X276157510Y-84277752D01*
X276166577Y-84272341D01*
X276175326Y-84266381D01*
X276183758Y-84259874D01*
X276191872Y-84252820D01*
X276199669Y-84245219D01*
X276207148Y-84237070D01*
X276214310Y-84228373D01*
X276221155Y-84219130D01*
X276227681Y-84209338D01*
X276233891Y-84199000D01*
X276237854Y-84191803D01*
X276241600Y-84184353D01*
X276245104Y-84176638D01*
X276248366Y-84168659D01*
X276251387Y-84160416D01*
X276254166Y-84151908D01*
X276256704Y-84143136D01*
X276259000Y-84134099D01*
X276261054Y-84124798D01*
X276262866Y-84115233D01*
X276264437Y-84105403D01*
X276265766Y-84095309D01*
X276266854Y-84084951D01*
X276267700Y-84074328D01*
X276268304Y-84063441D01*
X276268666Y-84052289D01*
X276268787Y-84040874D01*
G37*
G36*
X276255501Y-84573799D02*
G01*
X275625623Y-84573799D01*
X275625623Y-84373667D01*
X275511439Y-84373667D01*
X275511439Y-84914481D01*
X275625623Y-84914481D01*
X275625623Y-84703968D01*
X276255501Y-84703968D01*
X276255501Y-84573799D01*
G37*
G36*
X276268787Y-85824628D02*
G01*
X276268701Y-85815373D01*
X276268440Y-85806190D01*
X276268006Y-85797078D01*
X276267399Y-85788037D01*
X276266618Y-85779068D01*
X276265663Y-85770170D01*
X276264535Y-85761344D01*
X276263234Y-85752588D01*
X276261759Y-85743905D01*
X276260110Y-85735292D01*
X276258288Y-85726751D01*
X276256292Y-85718282D01*
X276254123Y-85709883D01*
X276251780Y-85701556D01*
X276249263Y-85693301D01*
X276246573Y-85685116D01*
X276243706Y-85677052D01*
X276240657Y-85669157D01*
X276237426Y-85661430D01*
X276232239Y-85650156D01*
X276226643Y-85639261D01*
X276220639Y-85628746D01*
X276214226Y-85618611D01*
X276207404Y-85608855D01*
X276200173Y-85599479D01*
X276192534Y-85590482D01*
X276184486Y-85581865D01*
X276178894Y-85576331D01*
X276068032Y-85642349D01*
X276058067Y-85647955D01*
X276064295Y-85658335D01*
X276072354Y-85660990D01*
X276080369Y-85664044D01*
X276082149Y-85664771D01*
X276089769Y-85669218D01*
X276096288Y-85674508D01*
X276102663Y-85680616D01*
X276105193Y-85683248D01*
X276110572Y-85690777D01*
X276115704Y-85698520D01*
X276120589Y-85706477D01*
X276125227Y-85714648D01*
X276129620Y-85723034D01*
X276133765Y-85731633D01*
X276137664Y-85740447D01*
X276141317Y-85749474D01*
X276144590Y-85758752D01*
X276147454Y-85768211D01*
X276149910Y-85777852D01*
X276151957Y-85787674D01*
X276153595Y-85797678D01*
X276154824Y-85807864D01*
X276155645Y-85818231D01*
X276156057Y-85828780D01*
X276155920Y-85837536D01*
X276155510Y-85846029D01*
X276154656Y-85855873D01*
X276153408Y-85865337D01*
X276151765Y-85874421D01*
X276150452Y-85880266D01*
X276148075Y-85888696D01*
X276145304Y-85896703D01*
X276141573Y-85905509D01*
X276137305Y-85913739D01*
X276133220Y-85920334D01*
X276127846Y-85927405D01*
X276121895Y-85933720D01*
X276115368Y-85939281D01*
X276108265Y-85944086D01*
X276103948Y-85946493D01*
X276095888Y-85950052D01*
X276087332Y-85952737D01*
X276078279Y-85954548D01*
X276068729Y-85955485D01*
X276063049Y-85955628D01*
X276054348Y-85955283D01*
X276045889Y-85954249D01*
X276037674Y-85952526D01*
X276036061Y-85952098D01*
X276027967Y-85949475D01*
X276020036Y-85945757D01*
X276012267Y-85940943D01*
X276010733Y-85939849D01*
X276003742Y-85934321D01*
X275997556Y-85928359D01*
X275991396Y-85921410D01*
X275986027Y-85914521D01*
X275980478Y-85906818D01*
X275975564Y-85899519D01*
X275970504Y-85891579D01*
X275966175Y-85884470D01*
X275961745Y-85876916D01*
X275959039Y-85872170D01*
X275954387Y-85863896D01*
X275949644Y-85855034D01*
X275945783Y-85847521D01*
X275941865Y-85839632D01*
X275937888Y-85831367D01*
X275933852Y-85822725D01*
X275929759Y-85813707D01*
X275927690Y-85809057D01*
X275923585Y-85799555D01*
X275919470Y-85790305D01*
X275915345Y-85781305D01*
X275911211Y-85772558D01*
X275907067Y-85764061D01*
X275902913Y-85755816D01*
X275898750Y-85747822D01*
X275894577Y-85740080D01*
X275890394Y-85732589D01*
X275886201Y-85725350D01*
X275879894Y-85714962D01*
X275873565Y-85705140D01*
X275867214Y-85695883D01*
X275860841Y-85687192D01*
X275854378Y-85679009D01*
X275847834Y-85671274D01*
X275841211Y-85663988D01*
X275834507Y-85657151D01*
X275827723Y-85650763D01*
X275820859Y-85644824D01*
X275813914Y-85639333D01*
X275806889Y-85634292D01*
X275799784Y-85629699D01*
X275790185Y-85624274D01*
X275787763Y-85623042D01*
X275777892Y-85618566D01*
X275767690Y-85614686D01*
X275757158Y-85611403D01*
X275749041Y-85609333D01*
X275740738Y-85607598D01*
X275732249Y-85606199D01*
X275723574Y-85605136D01*
X275714713Y-85604409D01*
X275705665Y-85604017D01*
X275699531Y-85603942D01*
X275689512Y-85604212D01*
X275679698Y-85605022D01*
X275670088Y-85606373D01*
X275660682Y-85608263D01*
X275651481Y-85610694D01*
X275642484Y-85613664D01*
X275633692Y-85617175D01*
X275625104Y-85621226D01*
X275616720Y-85625816D01*
X275608541Y-85630947D01*
X275603201Y-85634668D01*
X275595415Y-85640633D01*
X275587940Y-85647008D01*
X275580774Y-85653791D01*
X275573919Y-85660982D01*
X275567374Y-85668582D01*
X275561139Y-85676592D01*
X275555214Y-85685009D01*
X275549600Y-85693836D01*
X275544295Y-85703071D01*
X275539301Y-85712715D01*
X275536144Y-85719371D01*
X275531729Y-85729655D01*
X275527748Y-85740187D01*
X275524202Y-85750967D01*
X275521090Y-85761996D01*
X275518412Y-85773272D01*
X275516168Y-85784797D01*
X275514358Y-85796569D01*
X275512983Y-85808590D01*
X275512042Y-85820859D01*
X275511656Y-85829177D01*
X275511463Y-85837604D01*
X275511439Y-85841859D01*
X275511534Y-85850637D01*
X275511819Y-85859298D01*
X275512293Y-85867842D01*
X275512957Y-85876270D01*
X275513811Y-85884581D01*
X275515245Y-85895480D01*
X275517016Y-85906172D01*
X275519125Y-85916656D01*
X275521570Y-85926932D01*
X275522235Y-85929469D01*
X275525092Y-85939506D01*
X275528268Y-85949373D01*
X275531762Y-85959073D01*
X275535573Y-85968603D01*
X275539703Y-85977965D01*
X275544150Y-85987158D01*
X275548915Y-85996182D01*
X275553998Y-86005038D01*
X275559419Y-86013709D01*
X275565196Y-86022178D01*
X275571330Y-86030447D01*
X275577821Y-86038514D01*
X275584669Y-86046381D01*
X275591874Y-86054046D01*
X275599435Y-86061510D01*
X275607353Y-86068773D01*
X275698285Y-85989260D01*
X275707212Y-85981994D01*
X275699531Y-85972651D01*
X275691254Y-85971243D01*
X275683136Y-85969200D01*
X275680846Y-85968499D01*
X275673139Y-85964986D01*
X275665645Y-85959784D01*
X275658950Y-85954133D01*
X275657179Y-85952513D01*
X275650961Y-85945301D01*
X275645412Y-85937936D01*
X275640532Y-85930420D01*
X275636321Y-85922751D01*
X275632779Y-85914930D01*
X275629906Y-85906958D01*
X275628944Y-85903726D01*
X275626851Y-85895458D01*
X275625113Y-85886744D01*
X275623729Y-85877585D01*
X275622700Y-85867979D01*
X275622026Y-85857927D01*
X275621742Y-85849564D01*
X275621678Y-85843105D01*
X275621882Y-85834171D01*
X275622496Y-85825588D01*
X275623727Y-85816017D01*
X275625516Y-85806923D01*
X275627491Y-85799508D01*
X275630263Y-85791319D01*
X275633491Y-85783647D01*
X275637741Y-85775511D01*
X275642587Y-85768050D01*
X275643892Y-85766290D01*
X275649368Y-85759738D01*
X275655962Y-85753328D01*
X275663016Y-85747936D01*
X275667974Y-85744907D01*
X275675614Y-85741294D01*
X275684219Y-85738667D01*
X275692944Y-85737499D01*
X275695586Y-85737433D01*
X275704227Y-85737758D01*
X275712503Y-85738731D01*
X275721185Y-85740551D01*
X275721952Y-85740755D01*
X275730324Y-85743701D01*
X275737850Y-85747529D01*
X275745294Y-85752451D01*
X275746034Y-85753004D01*
X275752640Y-85758782D01*
X275758621Y-85764994D01*
X275764707Y-85772218D01*
X275770117Y-85779370D01*
X275774776Y-85786260D01*
X275779566Y-85793850D01*
X275784488Y-85802142D01*
X275788690Y-85809586D01*
X275792983Y-85817517D01*
X275796483Y-85824213D01*
X275800921Y-85833096D01*
X275804602Y-85840662D01*
X275808401Y-85848637D01*
X275812316Y-85857021D01*
X275816348Y-85865813D01*
X275820497Y-85875014D01*
X275824763Y-85884624D01*
X275828039Y-85892100D01*
X275832851Y-85902527D01*
X275837634Y-85912634D01*
X275842388Y-85922419D01*
X275847113Y-85931883D01*
X275851808Y-85941025D01*
X275856474Y-85949847D01*
X275861112Y-85958348D01*
X275865719Y-85966527D01*
X275870298Y-85974385D01*
X275874848Y-85981922D01*
X275877864Y-85986769D01*
X275882400Y-85993792D01*
X275888510Y-86002726D01*
X275894691Y-86011166D01*
X275900943Y-86019114D01*
X275907267Y-86026568D01*
X275913663Y-86033529D01*
X275920129Y-86039998D01*
X275926667Y-86045973D01*
X275928313Y-86047390D01*
X275934979Y-86052794D01*
X275941794Y-86057796D01*
X275948759Y-86062396D01*
X275957674Y-86067580D01*
X275966823Y-86072135D01*
X275976205Y-86076062D01*
X275985820Y-86079361D01*
X275995674Y-86082172D01*
X276003827Y-86084078D01*
X276012221Y-86085679D01*
X276020854Y-86086974D01*
X276029728Y-86087965D01*
X276038842Y-86088652D01*
X276048195Y-86089033D01*
X276055368Y-86089118D01*
X276065226Y-86088876D01*
X276075026Y-86088148D01*
X276084767Y-86086934D01*
X276094450Y-86085236D01*
X276104074Y-86083051D01*
X276113640Y-86080382D01*
X276123148Y-86077227D01*
X276132597Y-86073587D01*
X276141988Y-86069461D01*
X276151321Y-86064850D01*
X276157510Y-86061507D01*
X276166577Y-86056095D01*
X276175326Y-86050136D01*
X276183758Y-86043629D01*
X276191872Y-86036575D01*
X276199669Y-86028973D01*
X276207148Y-86020824D01*
X276214310Y-86012128D01*
X276221155Y-86002884D01*
X276227681Y-85993093D01*
X276233891Y-85982754D01*
X276237854Y-85975558D01*
X276241600Y-85968107D01*
X276245104Y-85960393D01*
X276248366Y-85952414D01*
X276251387Y-85944170D01*
X276254166Y-85935662D01*
X276256704Y-85926890D01*
X276259000Y-85917854D01*
X276261054Y-85908553D01*
X276262866Y-85898987D01*
X276264437Y-85889158D01*
X276265766Y-85879064D01*
X276266854Y-85868705D01*
X276267700Y-85858083D01*
X276268304Y-85847195D01*
X276268666Y-85836044D01*
X276268787Y-85824628D01*
G37*
G36*
X276255501Y-86240048D02*
G01*
X275511439Y-86142058D01*
X275511439Y-86258525D01*
X275976270Y-86309181D01*
X275564586Y-86405095D01*
X275564586Y-86475889D01*
X275975024Y-86572219D01*
X275511439Y-86611041D01*
X275511439Y-86721072D01*
X276255501Y-86624951D01*
X276255501Y-86540247D01*
X275793369Y-86434576D01*
X276255501Y-86327243D01*
X276255501Y-86240048D01*
G37*
G36*
X275903880Y-86747353D02*
G01*
X275918607Y-86747721D01*
X275933049Y-86748333D01*
X275947205Y-86749190D01*
X275961076Y-86750292D01*
X275974661Y-86751639D01*
X275987961Y-86753231D01*
X276000975Y-86755068D01*
X276013704Y-86757150D01*
X276026147Y-86759476D01*
X276038305Y-86762048D01*
X276050178Y-86764864D01*
X276061765Y-86767926D01*
X276073066Y-86771232D01*
X276084082Y-86774783D01*
X276094813Y-86778579D01*
X276105220Y-86782642D01*
X276115318Y-86786942D01*
X276125105Y-86791479D01*
X276134583Y-86796252D01*
X276143751Y-86801262D01*
X276152609Y-86806509D01*
X276161157Y-86811993D01*
X276169396Y-86817713D01*
X276177325Y-86823671D01*
X276184944Y-86829865D01*
X276192253Y-86836296D01*
X276199252Y-86842963D01*
X276205942Y-86849868D01*
X276212322Y-86857009D01*
X276218392Y-86864387D01*
X276224152Y-86872002D01*
X276229557Y-86879851D01*
X276234613Y-86887930D01*
X276239321Y-86896239D01*
X276243680Y-86904778D01*
X276247690Y-86913548D01*
X276251352Y-86922548D01*
X276254664Y-86931778D01*
X276257628Y-86941239D01*
X276260244Y-86950930D01*
X276262510Y-86960851D01*
X276264428Y-86971003D01*
X276265998Y-86981385D01*
X276267218Y-86991997D01*
X276268090Y-87002840D01*
X276268613Y-87013913D01*
X276268787Y-87025216D01*
X276268615Y-87036493D01*
X276268100Y-87047540D01*
X276267240Y-87058357D01*
X276266037Y-87068943D01*
X276264489Y-87079299D01*
X276262598Y-87089425D01*
X276260363Y-87099320D01*
X276257784Y-87108985D01*
X276254861Y-87118420D01*
X276251595Y-87127624D01*
X276247984Y-87136598D01*
X276244030Y-87145342D01*
X276239732Y-87153856D01*
X276235090Y-87162139D01*
X276230104Y-87170192D01*
X276224775Y-87178014D01*
X276219087Y-87185630D01*
X276213081Y-87193010D01*
X276206754Y-87200156D01*
X276200109Y-87207066D01*
X276193143Y-87213741D01*
X276185858Y-87220181D01*
X276178254Y-87226386D01*
X276170330Y-87232355D01*
X276162087Y-87238089D01*
X276153524Y-87243589D01*
X276144641Y-87248853D01*
X276135439Y-87253881D01*
X276125918Y-87258675D01*
X276116077Y-87263233D01*
X276105916Y-87267557D01*
X276095436Y-87271645D01*
X276084630Y-87275491D01*
X276073543Y-87279089D01*
X276062176Y-87282439D01*
X276050528Y-87285541D01*
X276038600Y-87288395D01*
X276026391Y-87291001D01*
X276013901Y-87293358D01*
X276001131Y-87295467D01*
X275988080Y-87297329D01*
X275974748Y-87298942D01*
X275961136Y-87300307D01*
X275947244Y-87301423D01*
X275933071Y-87302292D01*
X275918617Y-87302912D01*
X275903883Y-87303284D01*
X275888868Y-87303408D01*
X275874159Y-87303284D01*
X275859722Y-87302912D01*
X275845555Y-87302292D01*
X275831659Y-87301423D01*
X275818034Y-87300307D01*
X275804680Y-87298942D01*
X275791597Y-87297329D01*
X275778784Y-87295467D01*
X275766243Y-87293358D01*
X275753972Y-87291001D01*
X275741972Y-87288395D01*
X275730243Y-87285541D01*
X275718785Y-87282439D01*
X275707598Y-87279089D01*
X275696682Y-87275491D01*
X275686036Y-87271645D01*
X275675678Y-87267557D01*
X275665623Y-87263233D01*
X275655871Y-87258675D01*
X275646422Y-87253881D01*
X275637277Y-87248853D01*
X275628435Y-87243589D01*
X275619896Y-87238089D01*
X275611661Y-87232355D01*
X275603729Y-87226386D01*
X275596100Y-87220181D01*
X275588775Y-87213741D01*
X275581753Y-87207066D01*
X275575034Y-87200156D01*
X275568618Y-87193010D01*
X275562506Y-87185630D01*
X275556697Y-87178014D01*
X275551217Y-87170192D01*
X275546090Y-87162139D01*
X275541317Y-87153856D01*
X275536897Y-87145342D01*
X275532831Y-87136598D01*
X275529118Y-87127624D01*
X275525759Y-87118420D01*
X275522754Y-87108985D01*
X275520102Y-87099320D01*
X275517804Y-87089425D01*
X275515859Y-87079299D01*
X275514268Y-87068943D01*
X275513030Y-87058357D01*
X275512146Y-87047540D01*
X275511616Y-87036493D01*
X275511439Y-87025216D01*
X275620848Y-87025216D01*
X275621334Y-87036320D01*
X275622794Y-87047002D01*
X275625227Y-87057262D01*
X275628633Y-87067100D01*
X275633012Y-87076517D01*
X275638364Y-87085513D01*
X275644690Y-87094086D01*
X275651989Y-87102238D01*
X275655968Y-87106177D01*
X275662360Y-87111874D01*
X275669259Y-87117315D01*
X275676665Y-87122501D01*
X275684579Y-87127431D01*
X275693000Y-87132106D01*
X275701928Y-87136525D01*
X275711363Y-87140689D01*
X275721306Y-87144598D01*
X275731756Y-87148251D01*
X275742713Y-87151648D01*
X275754111Y-87154802D01*
X275765961Y-87157645D01*
X275774113Y-87159369D01*
X275782466Y-87160954D01*
X275791020Y-87162402D01*
X275799775Y-87163711D01*
X275808731Y-87164883D01*
X275817889Y-87165917D01*
X275827247Y-87166813D01*
X275836807Y-87167571D01*
X275846568Y-87168192D01*
X275856530Y-87168674D01*
X275866693Y-87169019D01*
X275877057Y-87169226D01*
X275887622Y-87169295D01*
X275898919Y-87169226D01*
X275909975Y-87169019D01*
X275920789Y-87168674D01*
X275931362Y-87168192D01*
X275941693Y-87167571D01*
X275951782Y-87166813D01*
X275961630Y-87165917D01*
X275971235Y-87164883D01*
X275980600Y-87163711D01*
X275989722Y-87162402D01*
X275998603Y-87160954D01*
X276007242Y-87159369D01*
X276015640Y-87157645D01*
X276027783Y-87154802D01*
X276039382Y-87151648D01*
X276043115Y-87150544D01*
X276053960Y-87147061D01*
X276064272Y-87143323D01*
X276074051Y-87139330D01*
X276083297Y-87135081D01*
X276092010Y-87130576D01*
X276100191Y-87125816D01*
X276107839Y-87120801D01*
X276114954Y-87115530D01*
X276121536Y-87110004D01*
X276129483Y-87102238D01*
X276131310Y-87100239D01*
X276138036Y-87091982D01*
X276143834Y-87083303D01*
X276148705Y-87074203D01*
X276152648Y-87064680D01*
X276155663Y-87054736D01*
X276157751Y-87044371D01*
X276158910Y-87033583D01*
X276159171Y-87025216D01*
X276159142Y-87022387D01*
X276158707Y-87014054D01*
X276157316Y-87003300D01*
X276154996Y-86992956D01*
X276151749Y-86983020D01*
X276147574Y-86973493D01*
X276142472Y-86964374D01*
X276136441Y-86955664D01*
X276129483Y-86947363D01*
X276125628Y-86943376D01*
X276119401Y-86937623D01*
X276112641Y-86932143D01*
X276105349Y-86926938D01*
X276097523Y-86922005D01*
X276089165Y-86917347D01*
X276080274Y-86912962D01*
X276070850Y-86908851D01*
X276060894Y-86905014D01*
X276050404Y-86901451D01*
X276039382Y-86898161D01*
X276035576Y-86897126D01*
X276023796Y-86894219D01*
X276015640Y-86892446D01*
X276007242Y-86890804D01*
X275998603Y-86889293D01*
X275989722Y-86887913D01*
X275980600Y-86886665D01*
X275971235Y-86885549D01*
X275961630Y-86884563D01*
X275951782Y-86883709D01*
X275941693Y-86882987D01*
X275931362Y-86882396D01*
X275920789Y-86881936D01*
X275909975Y-86881607D01*
X275898919Y-86881410D01*
X275887622Y-86881345D01*
X275877057Y-86881410D01*
X275866693Y-86881607D01*
X275856530Y-86881936D01*
X275846568Y-86882396D01*
X275836807Y-86882987D01*
X275827247Y-86883709D01*
X275817889Y-86884563D01*
X275808731Y-86885549D01*
X275799775Y-86886665D01*
X275791020Y-86887913D01*
X275782466Y-86889293D01*
X275774113Y-86890804D01*
X275765961Y-86892446D01*
X275754111Y-86895155D01*
X275742713Y-86898161D01*
X275735352Y-86900324D01*
X275724733Y-86903796D01*
X275714621Y-86907542D01*
X275705016Y-86911562D01*
X275695919Y-86915855D01*
X275687329Y-86920422D01*
X275679247Y-86925263D01*
X275671671Y-86930378D01*
X275664603Y-86935766D01*
X275658042Y-86941428D01*
X275651989Y-86947363D01*
X275650073Y-86949400D01*
X275643017Y-86957804D01*
X275636935Y-86966615D01*
X275631826Y-86975836D01*
X275627690Y-86985465D01*
X275624527Y-86995504D01*
X275622338Y-87005950D01*
X275621121Y-87016806D01*
X275620848Y-87025216D01*
X275511439Y-87025216D01*
X275511616Y-87013913D01*
X275512146Y-87002840D01*
X275513030Y-86991997D01*
X275514268Y-86981385D01*
X275515859Y-86971003D01*
X275517804Y-86960851D01*
X275520102Y-86950930D01*
X275522754Y-86941239D01*
X275525759Y-86931778D01*
X275529118Y-86922548D01*
X275532831Y-86913548D01*
X275536897Y-86904778D01*
X275541317Y-86896239D01*
X275546090Y-86887930D01*
X275551217Y-86879851D01*
X275556697Y-86872002D01*
X275562506Y-86864387D01*
X275568618Y-86857009D01*
X275575034Y-86849868D01*
X275581753Y-86842963D01*
X275588775Y-86836296D01*
X275596100Y-86829865D01*
X275603729Y-86823671D01*
X275611661Y-86817713D01*
X275619896Y-86811993D01*
X275628435Y-86806509D01*
X275637277Y-86801262D01*
X275646422Y-86796252D01*
X275655871Y-86791479D01*
X275665623Y-86786942D01*
X275675678Y-86782642D01*
X275686036Y-86778579D01*
X275696682Y-86774783D01*
X275707598Y-86771232D01*
X275718785Y-86767926D01*
X275730243Y-86764864D01*
X275741972Y-86762048D01*
X275753972Y-86759476D01*
X275766243Y-86757150D01*
X275778784Y-86755068D01*
X275791597Y-86753231D01*
X275804680Y-86751639D01*
X275818034Y-86750292D01*
X275831659Y-86749190D01*
X275845555Y-86748333D01*
X275859722Y-86747721D01*
X275874159Y-86747353D01*
X275888868Y-86747231D01*
X275903880Y-86747353D01*
G37*
G36*
X276268787Y-88202967D02*
G01*
X276268701Y-88193712D01*
X276268440Y-88184529D01*
X276268006Y-88175417D01*
X276267399Y-88166376D01*
X276266618Y-88157407D01*
X276265663Y-88148509D01*
X276264535Y-88139683D01*
X276263234Y-88130928D01*
X276261759Y-88122244D01*
X276260110Y-88113631D01*
X276258288Y-88105090D01*
X276256292Y-88096621D01*
X276254123Y-88088222D01*
X276251780Y-88079895D01*
X276249263Y-88071640D01*
X276246573Y-88063456D01*
X276243706Y-88055391D01*
X276240657Y-88047496D01*
X276237426Y-88039769D01*
X276232239Y-88028495D01*
X276226643Y-88017600D01*
X276220639Y-88007086D01*
X276214226Y-87996950D01*
X276207404Y-87987194D01*
X276200173Y-87977818D01*
X276192534Y-87968821D01*
X276184486Y-87960204D01*
X276178894Y-87954670D01*
X276068032Y-88020689D01*
X276058067Y-88026294D01*
X276064295Y-88036674D01*
X276072354Y-88039329D01*
X276080369Y-88042383D01*
X276082149Y-88043110D01*
X276089769Y-88047557D01*
X276096288Y-88052847D01*
X276102663Y-88058955D01*
X276105193Y-88061587D01*
X276110572Y-88069116D01*
X276115704Y-88076859D01*
X276120589Y-88084816D01*
X276125227Y-88092988D01*
X276129620Y-88101373D01*
X276133765Y-88109972D01*
X276137664Y-88118786D01*
X276141317Y-88127814D01*
X276144590Y-88137091D01*
X276147454Y-88146550D01*
X276149910Y-88156191D01*
X276151957Y-88166013D01*
X276153595Y-88176017D01*
X276154824Y-88186203D01*
X276155645Y-88196570D01*
X276156057Y-88207119D01*
X276155920Y-88215876D01*
X276155510Y-88224368D01*
X276154656Y-88234212D01*
X276153408Y-88243676D01*
X276151765Y-88252760D01*
X276150452Y-88258606D01*
X276148075Y-88267036D01*
X276145304Y-88275042D01*
X276141573Y-88283848D01*
X276137305Y-88292078D01*
X276133220Y-88298674D01*
X276127846Y-88305744D01*
X276121895Y-88312059D01*
X276115368Y-88317620D01*
X276108265Y-88322425D01*
X276103948Y-88324832D01*
X276095888Y-88328391D01*
X276087332Y-88331076D01*
X276078279Y-88332887D01*
X276068729Y-88333824D01*
X276063049Y-88333967D01*
X276054348Y-88333622D01*
X276045889Y-88332588D01*
X276037674Y-88330865D01*
X276036061Y-88330437D01*
X276027967Y-88327814D01*
X276020036Y-88324096D01*
X276012267Y-88319283D01*
X276010733Y-88318189D01*
X276003742Y-88312660D01*
X275997556Y-88306698D01*
X275991396Y-88299749D01*
X275986027Y-88292861D01*
X275980478Y-88285157D01*
X275975564Y-88277859D01*
X275970504Y-88269918D01*
X275966175Y-88262810D01*
X275961745Y-88255255D01*
X275959039Y-88250509D01*
X275954387Y-88242235D01*
X275949644Y-88233373D01*
X275945783Y-88225861D01*
X275941865Y-88217971D01*
X275937888Y-88209706D01*
X275933852Y-88201065D01*
X275929759Y-88192047D01*
X275927690Y-88187397D01*
X275923585Y-88177895D01*
X275919470Y-88168644D01*
X275915345Y-88159645D01*
X275911211Y-88150897D01*
X275907067Y-88142400D01*
X275902913Y-88134155D01*
X275898750Y-88126162D01*
X275894577Y-88118419D01*
X275890394Y-88110928D01*
X275886201Y-88103689D01*
X275879894Y-88093301D01*
X275873565Y-88083479D01*
X275867214Y-88074222D01*
X275860841Y-88065532D01*
X275854378Y-88057348D01*
X275847834Y-88049613D01*
X275841211Y-88042327D01*
X275834507Y-88035490D01*
X275827723Y-88029102D01*
X275820859Y-88023163D01*
X275813914Y-88017672D01*
X275806889Y-88012631D01*
X275799784Y-88008038D01*
X275790185Y-88002613D01*
X275787763Y-88001381D01*
X275777892Y-87996905D01*
X275767690Y-87993025D01*
X275757158Y-87989742D01*
X275749041Y-87987672D01*
X275740738Y-87985937D01*
X275732249Y-87984538D01*
X275723574Y-87983475D01*
X275714713Y-87982748D01*
X275705665Y-87982356D01*
X275699531Y-87982281D01*
X275689512Y-87982551D01*
X275679698Y-87983362D01*
X275670088Y-87984712D01*
X275660682Y-87986602D01*
X275651481Y-87989033D01*
X275642484Y-87992003D01*
X275633692Y-87995514D01*
X275625104Y-87999565D01*
X275616720Y-88004156D01*
X275608541Y-88009286D01*
X275603201Y-88013007D01*
X275595415Y-88018973D01*
X275587940Y-88025347D01*
X275580774Y-88032130D01*
X275573919Y-88039321D01*
X275567374Y-88046922D01*
X275561139Y-88054931D01*
X275555214Y-88063348D01*
X275549600Y-88072175D01*
X275544295Y-88081410D01*
X275539301Y-88091054D01*
X275536144Y-88097711D01*
X275531729Y-88107994D01*
X275527748Y-88118526D01*
X275524202Y-88129307D01*
X275521090Y-88140335D01*
X275518412Y-88151611D01*
X275516168Y-88163136D01*
X275514358Y-88174909D01*
X275512983Y-88186929D01*
X275512042Y-88199199D01*
X275511656Y-88207516D01*
X275511463Y-88215943D01*
X275511439Y-88220198D01*
X275511534Y-88228976D01*
X275511819Y-88237637D01*
X275512293Y-88246182D01*
X275512957Y-88254609D01*
X275513811Y-88262920D01*
X275515245Y-88273819D01*
X275517016Y-88284511D01*
X275519125Y-88294995D01*
X275521570Y-88305272D01*
X275522235Y-88307808D01*
X275525092Y-88317845D01*
X275528268Y-88327713D01*
X275531762Y-88337412D01*
X275535573Y-88346942D01*
X275539703Y-88356304D01*
X275544150Y-88365497D01*
X275548915Y-88374521D01*
X275553998Y-88383377D01*
X275559419Y-88392048D01*
X275565196Y-88400518D01*
X275571330Y-88408786D01*
X275577821Y-88416854D01*
X275584669Y-88424720D01*
X275591874Y-88432385D01*
X275599435Y-88439849D01*
X275607353Y-88447112D01*
X275698285Y-88367599D01*
X275707212Y-88360333D01*
X275699531Y-88350990D01*
X275691254Y-88349583D01*
X275683136Y-88347539D01*
X275680846Y-88346838D01*
X275673139Y-88343325D01*
X275665645Y-88338123D01*
X275658950Y-88332472D01*
X275657179Y-88330853D01*
X275650961Y-88323640D01*
X275645412Y-88316276D01*
X275640532Y-88308759D01*
X275636321Y-88301090D01*
X275632779Y-88293270D01*
X275629906Y-88285297D01*
X275628944Y-88282065D01*
X275626851Y-88273797D01*
X275625113Y-88265084D01*
X275623729Y-88255924D01*
X275622700Y-88246318D01*
X275622026Y-88236266D01*
X275621742Y-88227903D01*
X275621678Y-88221444D01*
X275621882Y-88212510D01*
X275622496Y-88203927D01*
X275623727Y-88194356D01*
X275625516Y-88185262D01*
X275627491Y-88177847D01*
X275630263Y-88169658D01*
X275633491Y-88161986D01*
X275637741Y-88153850D01*
X275642587Y-88146389D01*
X275643892Y-88144630D01*
X275649368Y-88138077D01*
X275655962Y-88131667D01*
X275663016Y-88126275D01*
X275667974Y-88123246D01*
X275675614Y-88119633D01*
X275684219Y-88117006D01*
X275692944Y-88115838D01*
X275695586Y-88115772D01*
X275704227Y-88116097D01*
X275712503Y-88117070D01*
X275721185Y-88118890D01*
X275721952Y-88119094D01*
X275730324Y-88122040D01*
X275737850Y-88125868D01*
X275745294Y-88130790D01*
X275746034Y-88131343D01*
X275752640Y-88137122D01*
X275758621Y-88143334D01*
X275764707Y-88150558D01*
X275770117Y-88157709D01*
X275774776Y-88164599D01*
X275779566Y-88172189D01*
X275784488Y-88180481D01*
X275788690Y-88187925D01*
X275792983Y-88195857D01*
X275796483Y-88202552D01*
X275800921Y-88211435D01*
X275804602Y-88219001D01*
X275808401Y-88226976D01*
X275812316Y-88235360D01*
X275816348Y-88244152D01*
X275820497Y-88253354D01*
X275824763Y-88262963D01*
X275828039Y-88270439D01*
X275832851Y-88280866D01*
X275837634Y-88290973D01*
X275842388Y-88300758D01*
X275847113Y-88310222D01*
X275851808Y-88319365D01*
X275856474Y-88328186D01*
X275861112Y-88336687D01*
X275865719Y-88344866D01*
X275870298Y-88352724D01*
X275874848Y-88360261D01*
X275877864Y-88365108D01*
X275882400Y-88372131D01*
X275888510Y-88381065D01*
X275894691Y-88389505D01*
X275900943Y-88397453D01*
X275907267Y-88404907D01*
X275913663Y-88411869D01*
X275920129Y-88418337D01*
X275926667Y-88424312D01*
X275928313Y-88425729D01*
X275934979Y-88431133D01*
X275941794Y-88436135D01*
X275948759Y-88440735D01*
X275957674Y-88445919D01*
X275966823Y-88450474D01*
X275976205Y-88454402D01*
X275985820Y-88457700D01*
X275995674Y-88460511D01*
X276003827Y-88462417D01*
X276012221Y-88464018D01*
X276020854Y-88465314D01*
X276029728Y-88466305D01*
X276038842Y-88466991D01*
X276048195Y-88467372D01*
X276055368Y-88467458D01*
X276065226Y-88467215D01*
X276075026Y-88466487D01*
X276084767Y-88465274D01*
X276094450Y-88463575D01*
X276104074Y-88461391D01*
X276113640Y-88458721D01*
X276123148Y-88455566D01*
X276132597Y-88451926D01*
X276141988Y-88447801D01*
X276151321Y-88443190D01*
X276157510Y-88439846D01*
X276166577Y-88434434D01*
X276175326Y-88428475D01*
X276183758Y-88421968D01*
X276191872Y-88414914D01*
X276199669Y-88407312D01*
X276207148Y-88399163D01*
X276214310Y-88390467D01*
X276221155Y-88381223D01*
X276227681Y-88371432D01*
X276233891Y-88361093D01*
X276237854Y-88353897D01*
X276241600Y-88346447D01*
X276245104Y-88338732D01*
X276248366Y-88330753D01*
X276251387Y-88322509D01*
X276254166Y-88314002D01*
X276256704Y-88305229D01*
X276259000Y-88296193D01*
X276261054Y-88286892D01*
X276262866Y-88277327D01*
X276264437Y-88267497D01*
X276265766Y-88257403D01*
X276266854Y-88247044D01*
X276267700Y-88236422D01*
X276268304Y-88225535D01*
X276268666Y-88214383D01*
X276268787Y-88202967D01*
G37*
G36*
X276255501Y-88618387D02*
G01*
X275511439Y-88520397D01*
X275511439Y-88636864D01*
X275976270Y-88687520D01*
X275564586Y-88783435D01*
X275564586Y-88854228D01*
X275975024Y-88950558D01*
X275511439Y-88989380D01*
X275511439Y-89099412D01*
X276255501Y-89003290D01*
X276255501Y-88918586D01*
X275793369Y-88812915D01*
X276255501Y-88705582D01*
X276255501Y-88618387D01*
G37*
G36*
X276255501Y-89330478D02*
G01*
X276255401Y-89341460D01*
X276255102Y-89352244D01*
X276254603Y-89362830D01*
X276253905Y-89373218D01*
X276253007Y-89383409D01*
X276251910Y-89393402D01*
X276250613Y-89403197D01*
X276249117Y-89412793D01*
X276247421Y-89422193D01*
X276245526Y-89431394D01*
X276243431Y-89440397D01*
X276241137Y-89449202D01*
X276238643Y-89457810D01*
X276235950Y-89466220D01*
X276233057Y-89474431D01*
X276229965Y-89482445D01*
X276228334Y-89486380D01*
X276224945Y-89494115D01*
X276221383Y-89501670D01*
X276215718Y-89512665D01*
X276209666Y-89523255D01*
X276203227Y-89533440D01*
X276196402Y-89543219D01*
X276189190Y-89552594D01*
X276181591Y-89561563D01*
X276173605Y-89570128D01*
X276165232Y-89578287D01*
X276156472Y-89586041D01*
X276150401Y-89591020D01*
X276141009Y-89598185D01*
X276131274Y-89604985D01*
X276121196Y-89611420D01*
X276110774Y-89617490D01*
X276100010Y-89623195D01*
X276088903Y-89628535D01*
X276081307Y-89631893D01*
X276073559Y-89635088D01*
X276065659Y-89638121D01*
X276057606Y-89640992D01*
X276049401Y-89643700D01*
X276041043Y-89646247D01*
X276032542Y-89648666D01*
X276023906Y-89650941D01*
X276015135Y-89653071D01*
X276006230Y-89655057D01*
X275997190Y-89656899D01*
X275988016Y-89658596D01*
X275978707Y-89660149D01*
X275969263Y-89661558D01*
X275959685Y-89662822D01*
X275949972Y-89663942D01*
X275940124Y-89664918D01*
X275930142Y-89665749D01*
X275920026Y-89666436D01*
X275909774Y-89666978D01*
X275899388Y-89667377D01*
X275888868Y-89667630D01*
X275881587Y-89667594D01*
X275870805Y-89667402D01*
X275860192Y-89667046D01*
X275849746Y-89666526D01*
X275839469Y-89665842D01*
X275829359Y-89664994D01*
X275819417Y-89663981D01*
X275809643Y-89662804D01*
X275800036Y-89661463D01*
X275790598Y-89659958D01*
X275781327Y-89658288D01*
X275775229Y-89657113D01*
X275766179Y-89655226D01*
X275757245Y-89653189D01*
X275748428Y-89651002D01*
X275739728Y-89648666D01*
X275731145Y-89646180D01*
X275722679Y-89643545D01*
X275714329Y-89640760D01*
X275706096Y-89637825D01*
X275697980Y-89634741D01*
X275689981Y-89631507D01*
X275684722Y-89629297D01*
X275676964Y-89625870D01*
X275669363Y-89622307D01*
X275659472Y-89617347D01*
X275649861Y-89612148D01*
X275640528Y-89606708D01*
X275631475Y-89601028D01*
X275622700Y-89595108D01*
X275614204Y-89588948D01*
X275606017Y-89582706D01*
X275598167Y-89576232D01*
X275590654Y-89569523D01*
X275583479Y-89562581D01*
X275576640Y-89555406D01*
X275570140Y-89547997D01*
X275563976Y-89540355D01*
X275558151Y-89532479D01*
X275553965Y-89526406D01*
X275548686Y-89517946D01*
X275543750Y-89509071D01*
X275539159Y-89499781D01*
X275534911Y-89490075D01*
X275531007Y-89479954D01*
X275528305Y-89472091D01*
X275525796Y-89463994D01*
X275523480Y-89455664D01*
X275522022Y-89449976D01*
X275520011Y-89441134D01*
X275518212Y-89431919D01*
X275516625Y-89422332D01*
X275515249Y-89412373D01*
X275514085Y-89402042D01*
X275513132Y-89391339D01*
X275512392Y-89380263D01*
X275511862Y-89368815D01*
X275511545Y-89356995D01*
X275511439Y-89344802D01*
X275511439Y-89283974D01*
X275618564Y-89283974D01*
X275618564Y-89340027D01*
X275618695Y-89349294D01*
X275619086Y-89358307D01*
X275619739Y-89367064D01*
X275620653Y-89375567D01*
X275622514Y-89387844D01*
X275624962Y-89399548D01*
X275627997Y-89410679D01*
X275631621Y-89421237D01*
X275635831Y-89431222D01*
X275640629Y-89440635D01*
X275646015Y-89449474D01*
X275651989Y-89457740D01*
X275656274Y-89462963D01*
X275663103Y-89470432D01*
X275670414Y-89477463D01*
X275678206Y-89484056D01*
X275686480Y-89490211D01*
X275695236Y-89495928D01*
X275704474Y-89501208D01*
X275714194Y-89506049D01*
X275724395Y-89510453D01*
X275735077Y-89514418D01*
X275746242Y-89517946D01*
X275757837Y-89521137D01*
X275769812Y-89524014D01*
X275778006Y-89525757D01*
X275786368Y-89527361D01*
X275794900Y-89528826D01*
X275803600Y-89530151D01*
X275812468Y-89531337D01*
X275821506Y-89532383D01*
X275830712Y-89533290D01*
X275840087Y-89534057D01*
X275849630Y-89534684D01*
X275859342Y-89535173D01*
X275869223Y-89535521D01*
X275879272Y-89535731D01*
X275889490Y-89535800D01*
X275899121Y-89535796D01*
X275908603Y-89535628D01*
X275917936Y-89535297D01*
X275927119Y-89534801D01*
X275936153Y-89534142D01*
X275945038Y-89533319D01*
X275953774Y-89532332D01*
X275962360Y-89531181D01*
X275970797Y-89529866D01*
X275979086Y-89528388D01*
X275991238Y-89525863D01*
X276003054Y-89522970D01*
X276014535Y-89519708D01*
X276025680Y-89516078D01*
X276032873Y-89513460D01*
X276043287Y-89509156D01*
X276053253Y-89504400D01*
X276062770Y-89499191D01*
X276071838Y-89493530D01*
X276080457Y-89487416D01*
X276088627Y-89480849D01*
X276096348Y-89473831D01*
X276103621Y-89466359D01*
X276110445Y-89458435D01*
X276116819Y-89450059D01*
X276120792Y-89444228D01*
X276126269Y-89435026D01*
X276131170Y-89425276D01*
X276135495Y-89414979D01*
X276139243Y-89404134D01*
X276142414Y-89392742D01*
X276145008Y-89380803D01*
X276146418Y-89372539D01*
X276147571Y-89364032D01*
X276148468Y-89355282D01*
X276149109Y-89346288D01*
X276149493Y-89337051D01*
X276149621Y-89327571D01*
X276149621Y-89283974D01*
X275618564Y-89283974D01*
X275511439Y-89283974D01*
X275511439Y-89152766D01*
X276255501Y-89152766D01*
X276255501Y-89330478D01*
G37*
G36*
X276255501Y-89780983D02*
G01*
X276146092Y-89780983D01*
X276146092Y-89926723D01*
X275620640Y-89926723D01*
X275620640Y-89788665D01*
X275511439Y-89788665D01*
X275511439Y-90200556D01*
X275620640Y-90200556D01*
X275620640Y-90054816D01*
X276146715Y-90054816D01*
X276146715Y-90206992D01*
X276255501Y-90206992D01*
X276255501Y-89780983D01*
G37*
G36*
X275903880Y-90314862D02*
G01*
X275918607Y-90315229D01*
X275933049Y-90315842D01*
X275947205Y-90316699D01*
X275961076Y-90317801D01*
X275974661Y-90319148D01*
X275987961Y-90320740D01*
X276000975Y-90322577D01*
X276013704Y-90324658D01*
X276026147Y-90326985D01*
X276038305Y-90329557D01*
X276050178Y-90332373D01*
X276061765Y-90335435D01*
X276073066Y-90338741D01*
X276084082Y-90342292D01*
X276094813Y-90346088D01*
X276105220Y-90350151D01*
X276115318Y-90354451D01*
X276125105Y-90358987D01*
X276134583Y-90363761D01*
X276143751Y-90368771D01*
X276152609Y-90374018D01*
X276161157Y-90379501D01*
X276169396Y-90385222D01*
X276177325Y-90391179D01*
X276184944Y-90397373D01*
X276192253Y-90403804D01*
X276199252Y-90410472D01*
X276205942Y-90417377D01*
X276212322Y-90424518D01*
X276218392Y-90431896D01*
X276224152Y-90439511D01*
X276229557Y-90447360D01*
X276234613Y-90455438D01*
X276239321Y-90463747D01*
X276243680Y-90472287D01*
X276247690Y-90481057D01*
X276251352Y-90490057D01*
X276254664Y-90499287D01*
X276257628Y-90508748D01*
X276260244Y-90518439D01*
X276262510Y-90528360D01*
X276264428Y-90538512D01*
X276265998Y-90548894D01*
X276267218Y-90559506D01*
X276268090Y-90570348D01*
X276268613Y-90581421D01*
X276268787Y-90592725D01*
X276268615Y-90604002D01*
X276268100Y-90615049D01*
X276267240Y-90625865D01*
X276266037Y-90636452D01*
X276264489Y-90646808D01*
X276262598Y-90656933D01*
X276260363Y-90666829D01*
X276257784Y-90676494D01*
X276254861Y-90685928D01*
X276251595Y-90695133D01*
X276247984Y-90704107D01*
X276244030Y-90712851D01*
X276239732Y-90721364D01*
X276235090Y-90729647D01*
X276230104Y-90737700D01*
X276224775Y-90745523D01*
X276219087Y-90753139D01*
X276213081Y-90760519D01*
X276206754Y-90767665D01*
X276200109Y-90774575D01*
X276193143Y-90781250D01*
X276185858Y-90787690D01*
X276178254Y-90793894D01*
X276170330Y-90799864D01*
X276162087Y-90805598D01*
X276153524Y-90811097D01*
X276144641Y-90816361D01*
X276135439Y-90821390D01*
X276125918Y-90826184D01*
X276116077Y-90830742D01*
X276105916Y-90835065D01*
X276095436Y-90839153D01*
X276084630Y-90843000D01*
X276073543Y-90846598D01*
X276062176Y-90849948D01*
X276050528Y-90853050D01*
X276038600Y-90855904D01*
X276026391Y-90858509D01*
X276013901Y-90860867D01*
X276001131Y-90862976D01*
X275988080Y-90864837D01*
X275974748Y-90866450D01*
X275961136Y-90867815D01*
X275947244Y-90868932D01*
X275933071Y-90869800D01*
X275918617Y-90870421D01*
X275903883Y-90870793D01*
X275888868Y-90870917D01*
X275874159Y-90870793D01*
X275859722Y-90870421D01*
X275845555Y-90869800D01*
X275831659Y-90868932D01*
X275818034Y-90867815D01*
X275804680Y-90866450D01*
X275791597Y-90864837D01*
X275778784Y-90862976D01*
X275766243Y-90860867D01*
X275753972Y-90858509D01*
X275741972Y-90855904D01*
X275730243Y-90853050D01*
X275718785Y-90849948D01*
X275707598Y-90846598D01*
X275696682Y-90843000D01*
X275686036Y-90839153D01*
X275675678Y-90835065D01*
X275665623Y-90830742D01*
X275655871Y-90826184D01*
X275646422Y-90821390D01*
X275637277Y-90816361D01*
X275628435Y-90811097D01*
X275619896Y-90805598D01*
X275611661Y-90799864D01*
X275603729Y-90793894D01*
X275596100Y-90787690D01*
X275588775Y-90781250D01*
X275581753Y-90774575D01*
X275575034Y-90767665D01*
X275568618Y-90760519D01*
X275562506Y-90753139D01*
X275556697Y-90745523D01*
X275551217Y-90737700D01*
X275546090Y-90729647D01*
X275541317Y-90721364D01*
X275536897Y-90712851D01*
X275532831Y-90704107D01*
X275529118Y-90695133D01*
X275525759Y-90685928D01*
X275522754Y-90676494D01*
X275520102Y-90666829D01*
X275517804Y-90656933D01*
X275515859Y-90646808D01*
X275514268Y-90636452D01*
X275513030Y-90625865D01*
X275512146Y-90615049D01*
X275511616Y-90604002D01*
X275511439Y-90592725D01*
X275620848Y-90592725D01*
X275621334Y-90603828D01*
X275622794Y-90614510D01*
X275625227Y-90624771D01*
X275628633Y-90634609D01*
X275633012Y-90644026D01*
X275638364Y-90653021D01*
X275644690Y-90661595D01*
X275651989Y-90669747D01*
X275655968Y-90673686D01*
X275662360Y-90679383D01*
X275669259Y-90684824D01*
X275676665Y-90690010D01*
X275684579Y-90694940D01*
X275693000Y-90699615D01*
X275701928Y-90704034D01*
X275711363Y-90708198D01*
X275721306Y-90712106D01*
X275731756Y-90715759D01*
X275742713Y-90719157D01*
X275754111Y-90722310D01*
X275765961Y-90725154D01*
X275774113Y-90726877D01*
X275782466Y-90728463D01*
X275791020Y-90729910D01*
X275799775Y-90731220D01*
X275808731Y-90732392D01*
X275817889Y-90733426D01*
X275827247Y-90734322D01*
X275836807Y-90735080D01*
X275846568Y-90735700D01*
X275856530Y-90736183D01*
X275866693Y-90736528D01*
X275877057Y-90736734D01*
X275887622Y-90736803D01*
X275898919Y-90736734D01*
X275909975Y-90736528D01*
X275920789Y-90736183D01*
X275931362Y-90735700D01*
X275941693Y-90735080D01*
X275951782Y-90734322D01*
X275961630Y-90733426D01*
X275971235Y-90732392D01*
X275980600Y-90731220D01*
X275989722Y-90729910D01*
X275998603Y-90728463D01*
X276007242Y-90726877D01*
X276015640Y-90725154D01*
X276027783Y-90722310D01*
X276039382Y-90719157D01*
X276043115Y-90718053D01*
X276053960Y-90714570D01*
X276064272Y-90710832D01*
X276074051Y-90706838D01*
X276083297Y-90702589D01*
X276092010Y-90698085D01*
X276100191Y-90693325D01*
X276107839Y-90688309D01*
X276114954Y-90683039D01*
X276121536Y-90677512D01*
X276129483Y-90669747D01*
X276131310Y-90667748D01*
X276138036Y-90659491D01*
X276143834Y-90650812D01*
X276148705Y-90641711D01*
X276152648Y-90632189D01*
X276155663Y-90622245D01*
X276157751Y-90611879D01*
X276158910Y-90601092D01*
X276159171Y-90592725D01*
X276159142Y-90589896D01*
X276158707Y-90581562D01*
X276157316Y-90570809D01*
X276154996Y-90560464D01*
X276151749Y-90550529D01*
X276147574Y-90541001D01*
X276142472Y-90531883D01*
X276136441Y-90523173D01*
X276129483Y-90514872D01*
X276125628Y-90510885D01*
X276119401Y-90505131D01*
X276112641Y-90499652D01*
X276105349Y-90494446D01*
X276097523Y-90489514D01*
X276089165Y-90484856D01*
X276080274Y-90480471D01*
X276070850Y-90476360D01*
X276060894Y-90472523D01*
X276050404Y-90468959D01*
X276039382Y-90465669D01*
X276035576Y-90464635D01*
X276023796Y-90461728D01*
X276015640Y-90459955D01*
X276007242Y-90458312D01*
X275998603Y-90456802D01*
X275989722Y-90455422D01*
X275980600Y-90454174D01*
X275971235Y-90453057D01*
X275961630Y-90452072D01*
X275951782Y-90451218D01*
X275941693Y-90450496D01*
X275931362Y-90449904D01*
X275920789Y-90449444D01*
X275909975Y-90449116D01*
X275898919Y-90448919D01*
X275887622Y-90448853D01*
X275877057Y-90448919D01*
X275866693Y-90449116D01*
X275856530Y-90449444D01*
X275846568Y-90449904D01*
X275836807Y-90450496D01*
X275827247Y-90451218D01*
X275817889Y-90452072D01*
X275808731Y-90453057D01*
X275799775Y-90454174D01*
X275791020Y-90455422D01*
X275782466Y-90456802D01*
X275774113Y-90458312D01*
X275765961Y-90459955D01*
X275754111Y-90462664D01*
X275742713Y-90465669D01*
X275735352Y-90467832D01*
X275724733Y-90471305D01*
X275714621Y-90475051D01*
X275705016Y-90479070D01*
X275695919Y-90483364D01*
X275687329Y-90487931D01*
X275679247Y-90492772D01*
X275671671Y-90497886D01*
X275664603Y-90503275D01*
X275658042Y-90508937D01*
X275651989Y-90514872D01*
X275650073Y-90516909D01*
X275643017Y-90525312D01*
X275636935Y-90534124D01*
X275631826Y-90543345D01*
X275627690Y-90552974D01*
X275624527Y-90563012D01*
X275622338Y-90573459D01*
X275621121Y-90584315D01*
X275620848Y-90592725D01*
X275511439Y-90592725D01*
X275511616Y-90581421D01*
X275512146Y-90570348D01*
X275513030Y-90559506D01*
X275514268Y-90548894D01*
X275515859Y-90538512D01*
X275517804Y-90528360D01*
X275520102Y-90518439D01*
X275522754Y-90508748D01*
X275525759Y-90499287D01*
X275529118Y-90490057D01*
X275532831Y-90481057D01*
X275536897Y-90472287D01*
X275541317Y-90463747D01*
X275546090Y-90455438D01*
X275551217Y-90447360D01*
X275556697Y-90439511D01*
X275562506Y-90431896D01*
X275568618Y-90424518D01*
X275575034Y-90417377D01*
X275581753Y-90410472D01*
X275588775Y-90403804D01*
X275596100Y-90397373D01*
X275603729Y-90391179D01*
X275611661Y-90385222D01*
X275619896Y-90379501D01*
X275628435Y-90374018D01*
X275637277Y-90368771D01*
X275646422Y-90363761D01*
X275655871Y-90358987D01*
X275665623Y-90354451D01*
X275675678Y-90350151D01*
X275686036Y-90346088D01*
X275696682Y-90342292D01*
X275707598Y-90338741D01*
X275718785Y-90335435D01*
X275730243Y-90332373D01*
X275741972Y-90329557D01*
X275753972Y-90326985D01*
X275766243Y-90324658D01*
X275778784Y-90322577D01*
X275791597Y-90320740D01*
X275804680Y-90319148D01*
X275818034Y-90317801D01*
X275831659Y-90316699D01*
X275845555Y-90315842D01*
X275859722Y-90315229D01*
X275874159Y-90314862D01*
X275888868Y-90314740D01*
X275903880Y-90314862D01*
G37*
G36*
X268955501Y-78758262D02*
G01*
X268210816Y-78519099D01*
X268210816Y-78653005D01*
X268732946Y-78809333D01*
X268211439Y-78956111D01*
X268211439Y-79085865D01*
X268955501Y-78849609D01*
X268955501Y-78758262D01*
G37*
G36*
X268683661Y-79134047D02*
G01*
X268692521Y-79134190D01*
X268701238Y-79134476D01*
X268709809Y-79134904D01*
X268718237Y-79135475D01*
X268726520Y-79136188D01*
X268738674Y-79137526D01*
X268750504Y-79139186D01*
X268762008Y-79141166D01*
X268773188Y-79143467D01*
X268784043Y-79146090D01*
X268794573Y-79149034D01*
X268804778Y-79152299D01*
X268811405Y-79154662D01*
X268821091Y-79158407D01*
X268830470Y-79162394D01*
X268839542Y-79166621D01*
X268848307Y-79171089D01*
X268856767Y-79175798D01*
X268864919Y-79180747D01*
X268872765Y-79185938D01*
X268880305Y-79191369D01*
X268887538Y-79197042D01*
X268894464Y-79202955D01*
X268898907Y-79207014D01*
X268905297Y-79213239D01*
X268911358Y-79219628D01*
X268917091Y-79226182D01*
X268922496Y-79232900D01*
X268927572Y-79239782D01*
X268932320Y-79246828D01*
X268936739Y-79254038D01*
X268940830Y-79261413D01*
X268944593Y-79268952D01*
X268948027Y-79276655D01*
X268950138Y-79281863D01*
X268953051Y-79289742D01*
X268955656Y-79297701D01*
X268957955Y-79305741D01*
X268959948Y-79313860D01*
X268961634Y-79322061D01*
X268963013Y-79330341D01*
X268964086Y-79338701D01*
X268964853Y-79347142D01*
X268965312Y-79355664D01*
X268965466Y-79364265D01*
X268965435Y-79367859D01*
X268965088Y-79376731D01*
X268964356Y-79385441D01*
X268963239Y-79393988D01*
X268961737Y-79402374D01*
X268959849Y-79410597D01*
X268957577Y-79418658D01*
X268956058Y-79423406D01*
X268952550Y-79432660D01*
X268948414Y-79441594D01*
X268943650Y-79450206D01*
X268938259Y-79458498D01*
X268933287Y-79465162D01*
X268931177Y-79467786D01*
X268925613Y-79474148D01*
X268919633Y-79480226D01*
X268913238Y-79486021D01*
X268906427Y-79491531D01*
X268899200Y-79496758D01*
X268891558Y-79501700D01*
X268897354Y-79501710D01*
X268906365Y-79501774D01*
X268914810Y-79501908D01*
X268915976Y-79501942D01*
X268924619Y-79502715D01*
X268933079Y-79504399D01*
X268939662Y-79506529D01*
X268947423Y-79509493D01*
X268955501Y-79512911D01*
X268955501Y-79645779D01*
X268953119Y-79644765D01*
X268944872Y-79641584D01*
X268936764Y-79638980D01*
X268927668Y-79636710D01*
X268918754Y-79635191D01*
X268909749Y-79634283D01*
X268900589Y-79633634D01*
X268891272Y-79633245D01*
X268881800Y-79633115D01*
X268212892Y-79634153D01*
X268210421Y-79634061D01*
X268201462Y-79633918D01*
X268193150Y-79634192D01*
X268184450Y-79635399D01*
X268183932Y-79635546D01*
X268175979Y-79638997D01*
X268169087Y-79644118D01*
X268158292Y-79644118D01*
X268158292Y-79632908D01*
X268158292Y-79499417D01*
X268463058Y-79499417D01*
X268460113Y-79497752D01*
X268451756Y-79492397D01*
X268444115Y-79486502D01*
X268437188Y-79480067D01*
X268430977Y-79473092D01*
X268425481Y-79465577D01*
X268423795Y-79462963D01*
X268419046Y-79454898D01*
X268414764Y-79446497D01*
X268410949Y-79437761D01*
X268407601Y-79428689D01*
X268404721Y-79419281D01*
X268403841Y-79416078D01*
X268401889Y-79407980D01*
X268400293Y-79399750D01*
X268399051Y-79391387D01*
X268398278Y-79383988D01*
X268502296Y-79383988D01*
X268502315Y-79386413D01*
X268502772Y-79395845D01*
X268503839Y-79404842D01*
X268505516Y-79413404D01*
X268507803Y-79421531D01*
X268511520Y-79431079D01*
X268516189Y-79439948D01*
X268521811Y-79448138D01*
X268525645Y-79452768D01*
X268532814Y-79459959D01*
X268539250Y-79465236D01*
X268546308Y-79470092D01*
X268553990Y-79474527D01*
X268562294Y-79478539D01*
X268571221Y-79482130D01*
X268580771Y-79485300D01*
X268583256Y-79486040D01*
X268593589Y-79488768D01*
X268601752Y-79490568D01*
X268610269Y-79492155D01*
X268619140Y-79493531D01*
X268628365Y-79494695D01*
X268637944Y-79495647D01*
X268647877Y-79496388D01*
X268658164Y-79496917D01*
X268668804Y-79497235D01*
X268679799Y-79497341D01*
X268690546Y-79497234D01*
X268700988Y-79496913D01*
X268711125Y-79496377D01*
X268720957Y-79495628D01*
X268730484Y-79494665D01*
X268739707Y-79493487D01*
X268748624Y-79492095D01*
X268757236Y-79490490D01*
X268759327Y-79490068D01*
X268769432Y-79487758D01*
X268778960Y-79485113D01*
X268787910Y-79482134D01*
X268796282Y-79478820D01*
X268804077Y-79475171D01*
X268812667Y-79470352D01*
X268815350Y-79468637D01*
X268822892Y-79463151D01*
X268829675Y-79457153D01*
X268835699Y-79450646D01*
X268840963Y-79443627D01*
X268845469Y-79436097D01*
X268847398Y-79432177D01*
X268850688Y-79423945D01*
X268853218Y-79415186D01*
X268854989Y-79405902D01*
X268856001Y-79396093D01*
X268856265Y-79387517D01*
X268855924Y-79379349D01*
X268854540Y-79369376D01*
X268852092Y-79359667D01*
X268848580Y-79350221D01*
X268844003Y-79341039D01*
X268839575Y-79333883D01*
X268834466Y-79326896D01*
X268828731Y-79320214D01*
X268822425Y-79313869D01*
X268815548Y-79307861D01*
X268808100Y-79302191D01*
X268800081Y-79296858D01*
X268791491Y-79291862D01*
X268782331Y-79287204D01*
X268772599Y-79282883D01*
X268767528Y-79280897D01*
X268759688Y-79278158D01*
X268751566Y-79275708D01*
X268743164Y-79273546D01*
X268734480Y-79271672D01*
X268725515Y-79270086D01*
X268716270Y-79268789D01*
X268706743Y-79267780D01*
X268696936Y-79267059D01*
X268686847Y-79266627D01*
X268676477Y-79266482D01*
X268666587Y-79266602D01*
X268656949Y-79266962D01*
X268647565Y-79267563D01*
X268638434Y-79268403D01*
X268629555Y-79269483D01*
X268620930Y-79270803D01*
X268612557Y-79272364D01*
X268604438Y-79274164D01*
X268600452Y-79275176D01*
X268590807Y-79277933D01*
X268581618Y-79281015D01*
X268572885Y-79284421D01*
X268564608Y-79288151D01*
X268556787Y-79292206D01*
X268549422Y-79296585D01*
X268546585Y-79298457D01*
X268538588Y-79304422D01*
X268531365Y-79310913D01*
X268524915Y-79317930D01*
X268519239Y-79325472D01*
X268514337Y-79333539D01*
X268511515Y-79339232D01*
X268507987Y-79348100D01*
X268505306Y-79357362D01*
X268503472Y-79367018D01*
X268502590Y-79375366D01*
X268502296Y-79383988D01*
X268398278Y-79383988D01*
X268398164Y-79382894D01*
X268397632Y-79374268D01*
X268397454Y-79365511D01*
X268397523Y-79359514D01*
X268397880Y-79350606D01*
X268398544Y-79341805D01*
X268399515Y-79333109D01*
X268400792Y-79324519D01*
X268402376Y-79316035D01*
X268404267Y-79307657D01*
X268406463Y-79299384D01*
X268408967Y-79291218D01*
X268411777Y-79283157D01*
X268414893Y-79275202D01*
X268417144Y-79269974D01*
X268420784Y-79262285D01*
X268424742Y-79254779D01*
X268429017Y-79247454D01*
X268433610Y-79240313D01*
X268438520Y-79233353D01*
X268443747Y-79226577D01*
X268449293Y-79219982D01*
X268455155Y-79213570D01*
X268461335Y-79207341D01*
X268467833Y-79201294D01*
X268472339Y-79197403D01*
X268479353Y-79191767D01*
X268486673Y-79186372D01*
X268494300Y-79181218D01*
X268502234Y-79176305D01*
X268510474Y-79171633D01*
X268519021Y-79167201D01*
X268527874Y-79163010D01*
X268537034Y-79159061D01*
X268546500Y-79155352D01*
X268556273Y-79151884D01*
X268562957Y-79149722D01*
X268573233Y-79146740D01*
X268583807Y-79144072D01*
X268594681Y-79141719D01*
X268605854Y-79139679D01*
X268617326Y-79137953D01*
X268629098Y-79136540D01*
X268641169Y-79135442D01*
X268653539Y-79134657D01*
X268661952Y-79134308D01*
X268670497Y-79134099D01*
X268679176Y-79134030D01*
X268683661Y-79134047D01*
G37*
G36*
X268683661Y-79728632D02*
G01*
X268692521Y-79728775D01*
X268701238Y-79729060D01*
X268709809Y-79729489D01*
X268718237Y-79730059D01*
X268726520Y-79730773D01*
X268738674Y-79732111D01*
X268750504Y-79733770D01*
X268762008Y-79735751D01*
X268773188Y-79738052D01*
X268784043Y-79740675D01*
X268794573Y-79743619D01*
X268804778Y-79746884D01*
X268811405Y-79749247D01*
X268821091Y-79752992D01*
X268830470Y-79756979D01*
X268839542Y-79761206D01*
X268848307Y-79765674D01*
X268856767Y-79770383D01*
X268864919Y-79775332D01*
X268872765Y-79780523D01*
X268880305Y-79785954D01*
X268887538Y-79791626D01*
X268894464Y-79797540D01*
X268898907Y-79801598D01*
X268905297Y-79807824D01*
X268911358Y-79814213D01*
X268917091Y-79820767D01*
X268922496Y-79827484D01*
X268927572Y-79834366D01*
X268932320Y-79841413D01*
X268936739Y-79848623D01*
X268940830Y-79855998D01*
X268944593Y-79863537D01*
X268948027Y-79871240D01*
X268950138Y-79876448D01*
X268953051Y-79884327D01*
X268955656Y-79892286D01*
X268957955Y-79900325D01*
X268959948Y-79908445D01*
X268961634Y-79916645D01*
X268963013Y-79924926D01*
X268964086Y-79933286D01*
X268964853Y-79941727D01*
X268965312Y-79950248D01*
X268965466Y-79958850D01*
X268965435Y-79962444D01*
X268965088Y-79971316D01*
X268964356Y-79980026D01*
X268963239Y-79988573D01*
X268961737Y-79996959D01*
X268959849Y-80005182D01*
X268957577Y-80013243D01*
X268956058Y-80017990D01*
X268952550Y-80027245D01*
X268948414Y-80036179D01*
X268943650Y-80044791D01*
X268938259Y-80053082D01*
X268933287Y-80059747D01*
X268931177Y-80062371D01*
X268925613Y-80068733D01*
X268919633Y-80074811D01*
X268913238Y-80080605D01*
X268906427Y-80086116D01*
X268899200Y-80091342D01*
X268891558Y-80096285D01*
X268897354Y-80096295D01*
X268906365Y-80096358D01*
X268914810Y-80096493D01*
X268915976Y-80096527D01*
X268924619Y-80097299D01*
X268933079Y-80098984D01*
X268939662Y-80101114D01*
X268947423Y-80104078D01*
X268955501Y-80107496D01*
X268955501Y-80240364D01*
X268953119Y-80239350D01*
X268944872Y-80236169D01*
X268936764Y-80233565D01*
X268927668Y-80231294D01*
X268918754Y-80229776D01*
X268909749Y-80228868D01*
X268900589Y-80228219D01*
X268891272Y-80227830D01*
X268881800Y-80227700D01*
X268212892Y-80228738D01*
X268210421Y-80228646D01*
X268201462Y-80228503D01*
X268193150Y-80228777D01*
X268184450Y-80229984D01*
X268183932Y-80230131D01*
X268175979Y-80233582D01*
X268169087Y-80238703D01*
X268158292Y-80238703D01*
X268158292Y-80227493D01*
X268158292Y-80094002D01*
X268463058Y-80094002D01*
X268460113Y-80092337D01*
X268451756Y-80086982D01*
X268444115Y-80081087D01*
X268437188Y-80074652D01*
X268430977Y-80067677D01*
X268425481Y-80060162D01*
X268423795Y-80057548D01*
X268419046Y-80049483D01*
X268414764Y-80041082D01*
X268410949Y-80032346D01*
X268407601Y-80023273D01*
X268404721Y-80013866D01*
X268403841Y-80010663D01*
X268401889Y-80002565D01*
X268400293Y-79994334D01*
X268399051Y-79985972D01*
X268398278Y-79978572D01*
X268502296Y-79978572D01*
X268502315Y-79980998D01*
X268502772Y-79990430D01*
X268503839Y-79999427D01*
X268505516Y-80007989D01*
X268507803Y-80016116D01*
X268511520Y-80025664D01*
X268516189Y-80034533D01*
X268521811Y-80042723D01*
X268525645Y-80047353D01*
X268532814Y-80054543D01*
X268539250Y-80059821D01*
X268546308Y-80064677D01*
X268553990Y-80069112D01*
X268562294Y-80073124D01*
X268571221Y-80076715D01*
X268580771Y-80079884D01*
X268583256Y-80080625D01*
X268593589Y-80083353D01*
X268601752Y-80085152D01*
X268610269Y-80086740D01*
X268619140Y-80088116D01*
X268628365Y-80089280D01*
X268637944Y-80090232D01*
X268647877Y-80090973D01*
X268658164Y-80091502D01*
X268668804Y-80091820D01*
X268679799Y-80091926D01*
X268690546Y-80091818D01*
X268700988Y-80091497D01*
X268711125Y-80090962D01*
X268720957Y-80090213D01*
X268730484Y-80089249D01*
X268739707Y-80088072D01*
X268748624Y-80086680D01*
X268757236Y-80085075D01*
X268759327Y-80084653D01*
X268769432Y-80082342D01*
X268778960Y-80079698D01*
X268787910Y-80076718D01*
X268796282Y-80073405D01*
X268804077Y-80069756D01*
X268812667Y-80064937D01*
X268815350Y-80063222D01*
X268822892Y-80057735D01*
X268829675Y-80051738D01*
X268835699Y-80045230D01*
X268840963Y-80038211D01*
X268845469Y-80030682D01*
X268847398Y-80026762D01*
X268850688Y-80018529D01*
X268853218Y-80009771D01*
X268854989Y-80000487D01*
X268856001Y-79990678D01*
X268856265Y-79982102D01*
X268855924Y-79973934D01*
X268854540Y-79963961D01*
X268852092Y-79954252D01*
X268848580Y-79944806D01*
X268844003Y-79935624D01*
X268839575Y-79928468D01*
X268834466Y-79921481D01*
X268828731Y-79914798D01*
X268822425Y-79908453D01*
X268815548Y-79902446D01*
X268808100Y-79896775D01*
X268800081Y-79891443D01*
X268791491Y-79886447D01*
X268782331Y-79881789D01*
X268772599Y-79877468D01*
X268767528Y-79875482D01*
X268759688Y-79872743D01*
X268751566Y-79870293D01*
X268743164Y-79868130D01*
X268734480Y-79866257D01*
X268725515Y-79864671D01*
X268716270Y-79863374D01*
X268706743Y-79862365D01*
X268696936Y-79861644D01*
X268686847Y-79861211D01*
X268676477Y-79861067D01*
X268666587Y-79861187D01*
X268656949Y-79861547D01*
X268647565Y-79862147D01*
X268638434Y-79862988D01*
X268629555Y-79864068D01*
X268620930Y-79865388D01*
X268612557Y-79866948D01*
X268604438Y-79868749D01*
X268600452Y-79869761D01*
X268590807Y-79872518D01*
X268581618Y-79875600D01*
X268572885Y-79879006D01*
X268564608Y-79882736D01*
X268556787Y-79886791D01*
X268549422Y-79891170D01*
X268546585Y-79893042D01*
X268538588Y-79899007D01*
X268531365Y-79905498D01*
X268524915Y-79912515D01*
X268519239Y-79920057D01*
X268514337Y-79928124D01*
X268511515Y-79933817D01*
X268507987Y-79942685D01*
X268505306Y-79951947D01*
X268503472Y-79961603D01*
X268502590Y-79969951D01*
X268502296Y-79978572D01*
X268398278Y-79978572D01*
X268398164Y-79977478D01*
X268397632Y-79968853D01*
X268397454Y-79960095D01*
X268397523Y-79954098D01*
X268397880Y-79945191D01*
X268398544Y-79936389D01*
X268399515Y-79927694D01*
X268400792Y-79919104D01*
X268402376Y-79910620D01*
X268404267Y-79902241D01*
X268406463Y-79893969D01*
X268408967Y-79885802D01*
X268411777Y-79877742D01*
X268414893Y-79869787D01*
X268417144Y-79864559D01*
X268420784Y-79856870D01*
X268424742Y-79849363D01*
X268429017Y-79842039D01*
X268433610Y-79834897D01*
X268438520Y-79827938D01*
X268443747Y-79821161D01*
X268449293Y-79814567D01*
X268455155Y-79808155D01*
X268461335Y-79801926D01*
X268467833Y-79795879D01*
X268472339Y-79791988D01*
X268479353Y-79786352D01*
X268486673Y-79780957D01*
X268494300Y-79775803D01*
X268502234Y-79770890D01*
X268510474Y-79766217D01*
X268519021Y-79761786D01*
X268527874Y-79757595D01*
X268537034Y-79753645D01*
X268546500Y-79749937D01*
X268556273Y-79746468D01*
X268562957Y-79744306D01*
X268573233Y-79741325D01*
X268583807Y-79738657D01*
X268594681Y-79736303D01*
X268605854Y-79734263D01*
X268617326Y-79732537D01*
X268629098Y-79731125D01*
X268641169Y-79730027D01*
X268653539Y-79729242D01*
X268661952Y-79728893D01*
X268670497Y-79728684D01*
X268679176Y-79728614D01*
X268683661Y-79728632D01*
G37*
G36*
X268968787Y-81208848D02*
G01*
X268968604Y-81197271D01*
X268968054Y-81185895D01*
X268967138Y-81174720D01*
X268965855Y-81163746D01*
X268964205Y-81152973D01*
X268962189Y-81142401D01*
X268959807Y-81132030D01*
X268957058Y-81121861D01*
X268953942Y-81111893D01*
X268950460Y-81102125D01*
X268946611Y-81092559D01*
X268942395Y-81083194D01*
X268937813Y-81074030D01*
X268932865Y-81065068D01*
X268927550Y-81056306D01*
X268921868Y-81047745D01*
X268915831Y-81039410D01*
X268909499Y-81031322D01*
X268902875Y-81023482D01*
X268895956Y-81015891D01*
X268888744Y-81008548D01*
X268881239Y-81001452D01*
X268873440Y-80994606D01*
X268865347Y-80988007D01*
X268856961Y-80981656D01*
X268848282Y-80975554D01*
X268839308Y-80969699D01*
X268830041Y-80964093D01*
X268820481Y-80958735D01*
X268810627Y-80953625D01*
X268800479Y-80948763D01*
X268790038Y-80944150D01*
X268779340Y-80939826D01*
X268768421Y-80935781D01*
X268757282Y-80932015D01*
X268745922Y-80928528D01*
X268734341Y-80925319D01*
X268722540Y-80922390D01*
X268710518Y-80919740D01*
X268698276Y-80917369D01*
X268685813Y-80915276D01*
X268673130Y-80913463D01*
X268660226Y-80911929D01*
X268647101Y-80910673D01*
X268633756Y-80909697D01*
X268620190Y-80909000D01*
X268606404Y-80908581D01*
X268592397Y-80908442D01*
X268580754Y-80908469D01*
X268569336Y-80908656D01*
X268558144Y-80909001D01*
X268547178Y-80909506D01*
X268536436Y-80910169D01*
X268525921Y-80910991D01*
X268515630Y-80911973D01*
X268505565Y-80913113D01*
X268495726Y-80914412D01*
X268486112Y-80915870D01*
X268476724Y-80917487D01*
X268467561Y-80919263D01*
X268458623Y-80921198D01*
X268449911Y-80923292D01*
X268441424Y-80925545D01*
X268433163Y-80927957D01*
X268425074Y-80930500D01*
X268417158Y-80933147D01*
X268405605Y-80937312D01*
X268394439Y-80941711D01*
X268383660Y-80946343D01*
X268373268Y-80951209D01*
X268363263Y-80956308D01*
X268353645Y-80961641D01*
X268344413Y-80967207D01*
X268335568Y-80973007D01*
X268327110Y-80979041D01*
X268324377Y-80981104D01*
X268316369Y-80987392D01*
X268308692Y-80993801D01*
X268301348Y-81000330D01*
X268294336Y-81006980D01*
X268287656Y-81013750D01*
X268281308Y-81020641D01*
X268275292Y-81027652D01*
X268269608Y-81034783D01*
X268264256Y-81042035D01*
X268259236Y-81049407D01*
X268256074Y-81054389D01*
X268251572Y-81061900D01*
X268247328Y-81069407D01*
X268243344Y-81076911D01*
X268239618Y-81084411D01*
X268235054Y-81094405D01*
X268230951Y-81104393D01*
X268227308Y-81114374D01*
X268224126Y-81124349D01*
X268221404Y-81134317D01*
X268219069Y-81144224D01*
X268217044Y-81153910D01*
X268215332Y-81163376D01*
X268213930Y-81172621D01*
X268212840Y-81181645D01*
X268212062Y-81190449D01*
X268211595Y-81199032D01*
X268211439Y-81207395D01*
X268211576Y-81216471D01*
X268211986Y-81225481D01*
X268212671Y-81234425D01*
X268213629Y-81243304D01*
X268214860Y-81252117D01*
X268216366Y-81260865D01*
X268218145Y-81269547D01*
X268220197Y-81278163D01*
X268222524Y-81286713D01*
X268225124Y-81295198D01*
X268227010Y-81300818D01*
X268230007Y-81309192D01*
X268233238Y-81317420D01*
X268236702Y-81325502D01*
X268240400Y-81333438D01*
X268244332Y-81341228D01*
X268248497Y-81348872D01*
X268252895Y-81356370D01*
X268257528Y-81363722D01*
X268262393Y-81370929D01*
X268267493Y-81377989D01*
X268271022Y-81382615D01*
X268276472Y-81389379D01*
X268282155Y-81395891D01*
X268288072Y-81402151D01*
X268294222Y-81408160D01*
X268300606Y-81413917D01*
X268307224Y-81419422D01*
X268314075Y-81424675D01*
X268321159Y-81429676D01*
X268328477Y-81434426D01*
X268336029Y-81438924D01*
X268341193Y-81441782D01*
X268419253Y-81363100D01*
X268427765Y-81355003D01*
X268419253Y-81346699D01*
X268410437Y-81345911D01*
X268401894Y-81343937D01*
X268400776Y-81343585D01*
X268393049Y-81340188D01*
X268385272Y-81335262D01*
X268378175Y-81329948D01*
X268376279Y-81328429D01*
X268369635Y-81322316D01*
X268363330Y-81315963D01*
X268357362Y-81309373D01*
X268351732Y-81302543D01*
X268348667Y-81298534D01*
X268343667Y-81291201D01*
X268339204Y-81283371D01*
X268335277Y-81275045D01*
X268331886Y-81266222D01*
X268330190Y-81260957D01*
X268327932Y-81252668D01*
X268326142Y-81243839D01*
X268324818Y-81234470D01*
X268323962Y-81224561D01*
X268323605Y-81215891D01*
X268323547Y-81210509D01*
X268323839Y-81200602D01*
X268324714Y-81190812D01*
X268326174Y-81181139D01*
X268328218Y-81171583D01*
X268330845Y-81162143D01*
X268331851Y-81159023D01*
X268335281Y-81149882D01*
X268339500Y-81140990D01*
X268343617Y-81133769D01*
X268348283Y-81126721D01*
X268353495Y-81119845D01*
X268359255Y-81113142D01*
X268365547Y-81106641D01*
X268372356Y-81100373D01*
X268379682Y-81094338D01*
X268387525Y-81088537D01*
X268395885Y-81082969D01*
X268404762Y-81077634D01*
X268408458Y-81075565D01*
X268416084Y-81071633D01*
X268424119Y-81067935D01*
X268432563Y-81064471D01*
X268441415Y-81061240D01*
X268450676Y-81058243D01*
X268460346Y-81055479D01*
X268470425Y-81052949D01*
X268480912Y-81050652D01*
X268491779Y-81048608D01*
X268500227Y-81047254D01*
X268508931Y-81046054D01*
X268517890Y-81045006D01*
X268527105Y-81044112D01*
X268536575Y-81043372D01*
X268546300Y-81042784D01*
X268556281Y-81042350D01*
X268566517Y-81042069D01*
X268577009Y-81041941D01*
X268580563Y-81041933D01*
X268589264Y-81041980D01*
X268597824Y-81042121D01*
X268606242Y-81042356D01*
X268618606Y-81042885D01*
X268630652Y-81043626D01*
X268642380Y-81044578D01*
X268653791Y-81045742D01*
X268664884Y-81047118D01*
X268675660Y-81048706D01*
X268686118Y-81050505D01*
X268696259Y-81052516D01*
X268702843Y-81053974D01*
X268712427Y-81056354D01*
X268721715Y-81058903D01*
X268730708Y-81061619D01*
X268739405Y-81064503D01*
X268747806Y-81067555D01*
X268755912Y-81070775D01*
X268763722Y-81074163D01*
X268771237Y-81077719D01*
X268780796Y-81082721D01*
X268789831Y-81088021D01*
X268798320Y-81093662D01*
X268806244Y-81099582D01*
X268813605Y-81105781D01*
X268820401Y-81112259D01*
X268826632Y-81119016D01*
X268832299Y-81126052D01*
X268837402Y-81133367D01*
X268841940Y-81140961D01*
X268845881Y-81148788D01*
X268849297Y-81156804D01*
X268852187Y-81165007D01*
X268854552Y-81173399D01*
X268856391Y-81181979D01*
X268857705Y-81190747D01*
X268858493Y-81199704D01*
X268858756Y-81208848D01*
X268858594Y-81217931D01*
X268858107Y-81227014D01*
X268857296Y-81236096D01*
X268857095Y-81237913D01*
X268855880Y-81246188D01*
X268854336Y-81254430D01*
X268852464Y-81262639D01*
X268851282Y-81267185D01*
X268848733Y-81275294D01*
X268845757Y-81283272D01*
X268842354Y-81291118D01*
X268840279Y-81295420D01*
X268836046Y-81303062D01*
X268831287Y-81310572D01*
X268826003Y-81317951D01*
X268822840Y-81321994D01*
X268689764Y-81321994D01*
X268689764Y-81199091D01*
X268578072Y-81199091D01*
X268578072Y-81443443D01*
X268892388Y-81443443D01*
X268897435Y-81436749D01*
X268902298Y-81430004D01*
X268909249Y-81419793D01*
X268915788Y-81409468D01*
X268921915Y-81399030D01*
X268927629Y-81388480D01*
X268932931Y-81377816D01*
X268937821Y-81367038D01*
X268942298Y-81356148D01*
X268946363Y-81345145D01*
X268950015Y-81334028D01*
X268951141Y-81330298D01*
X268954294Y-81319106D01*
X268957138Y-81307874D01*
X268959671Y-81296602D01*
X268961894Y-81285289D01*
X268963807Y-81273937D01*
X268965410Y-81262544D01*
X268966702Y-81251112D01*
X268967684Y-81239639D01*
X268968356Y-81228126D01*
X268968718Y-81216572D01*
X268968787Y-81208848D01*
G37*
G36*
X268211439Y-81516936D02*
G01*
X268211439Y-81657693D01*
X268701183Y-81910765D01*
X268211439Y-81903707D01*
X268211439Y-82024118D01*
X268211439Y-82035537D01*
X268222235Y-82035537D01*
X268229171Y-82030358D01*
X268237275Y-82027146D01*
X268237805Y-82027025D01*
X268246540Y-82025950D01*
X268254915Y-82025526D01*
X268263959Y-82025371D01*
X268266455Y-82025364D01*
X268955501Y-82025364D01*
X268955501Y-81899970D01*
X268433578Y-81638593D01*
X268955501Y-81638593D01*
X268955501Y-81516936D01*
X268211439Y-81516936D01*
G37*
G36*
X268955501Y-82295460D02*
G01*
X268955401Y-82306442D01*
X268955102Y-82317226D01*
X268954603Y-82327813D01*
X268953905Y-82338201D01*
X268953007Y-82348392D01*
X268951910Y-82358384D01*
X268950613Y-82368179D01*
X268949117Y-82377776D01*
X268947421Y-82387175D01*
X268945526Y-82396376D01*
X268943431Y-82405380D01*
X268941137Y-82414185D01*
X268938643Y-82422793D01*
X268935950Y-82431202D01*
X268933057Y-82439414D01*
X268929965Y-82447428D01*
X268928334Y-82451363D01*
X268924945Y-82459098D01*
X268921383Y-82466653D01*
X268915718Y-82477648D01*
X268909666Y-82488237D01*
X268903227Y-82498422D01*
X268896402Y-82508202D01*
X268889190Y-82517576D01*
X268881591Y-82526546D01*
X268873605Y-82535110D01*
X268865232Y-82543269D01*
X268856472Y-82551024D01*
X268850401Y-82556003D01*
X268841009Y-82563168D01*
X268831274Y-82569968D01*
X268821196Y-82576403D01*
X268810774Y-82582473D01*
X268800010Y-82588178D01*
X268788903Y-82593518D01*
X268781307Y-82596875D01*
X268773559Y-82600071D01*
X268765659Y-82603104D01*
X268757606Y-82605974D01*
X268749401Y-82608683D01*
X268741043Y-82611229D01*
X268732542Y-82613649D01*
X268723906Y-82615923D01*
X268715135Y-82618054D01*
X268706230Y-82620040D01*
X268697190Y-82621881D01*
X268688016Y-82623579D01*
X268678707Y-82625132D01*
X268669263Y-82626540D01*
X268659685Y-82627805D01*
X268649972Y-82628925D01*
X268640124Y-82629900D01*
X268630142Y-82630731D01*
X268620026Y-82631418D01*
X268609774Y-82631961D01*
X268599388Y-82632359D01*
X268588868Y-82632613D01*
X268581587Y-82632576D01*
X268570805Y-82632385D01*
X268560192Y-82632029D01*
X268549746Y-82631509D01*
X268539469Y-82630825D01*
X268529359Y-82629976D01*
X268519417Y-82628964D01*
X268509643Y-82627787D01*
X268500036Y-82626446D01*
X268490598Y-82624940D01*
X268481327Y-82623271D01*
X268475229Y-82622096D01*
X268466179Y-82620208D01*
X268457245Y-82618171D01*
X268448428Y-82615985D01*
X268439728Y-82613649D01*
X268431145Y-82611163D01*
X268422679Y-82608527D01*
X268414329Y-82605742D01*
X268406096Y-82602808D01*
X268397980Y-82599723D01*
X268389981Y-82596489D01*
X268384722Y-82594280D01*
X268376964Y-82590852D01*
X268369363Y-82587290D01*
X268359472Y-82582330D01*
X268349861Y-82577130D01*
X268340528Y-82571690D01*
X268331475Y-82566010D01*
X268322700Y-82560090D01*
X268314204Y-82553930D01*
X268306017Y-82547689D01*
X268298167Y-82541214D01*
X268290654Y-82534506D01*
X268283479Y-82527564D01*
X268276640Y-82520389D01*
X268270140Y-82512980D01*
X268263976Y-82505337D01*
X268258151Y-82497461D01*
X268253965Y-82491389D01*
X268248686Y-82482929D01*
X268243750Y-82474053D01*
X268239159Y-82464763D01*
X268234911Y-82455058D01*
X268231007Y-82444937D01*
X268228305Y-82437074D01*
X268225796Y-82428977D01*
X268223480Y-82420647D01*
X268222022Y-82414959D01*
X268220011Y-82406116D01*
X268218212Y-82396902D01*
X268216625Y-82387315D01*
X268215249Y-82377356D01*
X268214085Y-82367025D01*
X268213132Y-82356321D01*
X268212392Y-82345245D01*
X268211862Y-82333798D01*
X268211545Y-82321977D01*
X268211439Y-82309785D01*
X268211439Y-82248956D01*
X268318564Y-82248956D01*
X268318564Y-82305010D01*
X268318695Y-82314277D01*
X268319086Y-82323289D01*
X268319739Y-82332047D01*
X268320653Y-82340550D01*
X268322514Y-82352827D01*
X268324962Y-82364531D01*
X268327997Y-82375662D01*
X268331621Y-82386220D01*
X268335831Y-82396205D01*
X268340629Y-82405617D01*
X268346015Y-82414456D01*
X268351989Y-82422723D01*
X268356274Y-82427945D01*
X268363103Y-82435414D01*
X268370414Y-82442445D01*
X268378206Y-82449039D01*
X268386480Y-82455194D01*
X268395236Y-82460911D01*
X268404474Y-82466190D01*
X268414194Y-82471032D01*
X268424395Y-82475435D01*
X268435077Y-82479401D01*
X268446242Y-82482929D01*
X268457837Y-82486119D01*
X268469812Y-82488996D01*
X268478006Y-82490740D01*
X268486368Y-82492344D01*
X268494900Y-82493809D01*
X268503600Y-82495134D01*
X268512468Y-82496319D01*
X268521506Y-82497365D01*
X268530712Y-82498272D01*
X268540087Y-82499039D01*
X268549630Y-82499667D01*
X268559342Y-82500155D01*
X268569223Y-82500504D01*
X268579272Y-82500713D01*
X268589490Y-82500783D01*
X268599121Y-82500779D01*
X268608603Y-82500611D01*
X268617936Y-82500279D01*
X268627119Y-82499784D01*
X268636153Y-82499124D01*
X268645038Y-82498301D01*
X268653774Y-82497314D01*
X268662360Y-82496164D01*
X268670797Y-82494849D01*
X268679086Y-82493371D01*
X268691238Y-82490846D01*
X268703054Y-82487953D01*
X268714535Y-82484691D01*
X268725680Y-82481060D01*
X268732873Y-82478442D01*
X268743287Y-82474139D01*
X268753253Y-82469382D01*
X268762770Y-82464174D01*
X268771838Y-82458512D01*
X268780457Y-82452398D01*
X268788627Y-82445832D01*
X268796348Y-82438813D01*
X268803621Y-82431342D01*
X268810445Y-82423418D01*
X268816819Y-82415041D01*
X268820792Y-82409211D01*
X268826269Y-82400008D01*
X268831170Y-82390258D01*
X268835495Y-82379961D01*
X268839243Y-82369117D01*
X268842414Y-82357725D01*
X268845008Y-82345785D01*
X268846418Y-82337521D01*
X268847571Y-82329014D01*
X268848468Y-82320264D01*
X268849109Y-82311271D01*
X268849493Y-82302034D01*
X268849621Y-82292554D01*
X268849621Y-82248956D01*
X268318564Y-82248956D01*
X268211439Y-82248956D01*
X268211439Y-82117749D01*
X268955501Y-82117749D01*
X268955501Y-82295460D01*
G37*
G36*
X268968787Y-83587187D02*
G01*
X268968604Y-83575610D01*
X268968054Y-83564234D01*
X268967138Y-83553059D01*
X268965855Y-83542085D01*
X268964205Y-83531312D01*
X268962189Y-83520740D01*
X268959807Y-83510370D01*
X268957058Y-83500200D01*
X268953942Y-83490232D01*
X268950460Y-83480465D01*
X268946611Y-83470898D01*
X268942395Y-83461533D01*
X268937813Y-83452370D01*
X268932865Y-83443407D01*
X268927550Y-83434645D01*
X268921868Y-83426085D01*
X268915831Y-83417749D01*
X268909499Y-83409661D01*
X268902875Y-83401821D01*
X268895956Y-83394230D01*
X268888744Y-83386887D01*
X268881239Y-83379792D01*
X268873440Y-83372945D01*
X268865347Y-83366346D01*
X268856961Y-83359995D01*
X268848282Y-83353893D01*
X268839308Y-83348038D01*
X268830041Y-83342432D01*
X268820481Y-83337074D01*
X268810627Y-83331964D01*
X268800479Y-83327103D01*
X268790038Y-83322489D01*
X268779340Y-83318165D01*
X268768421Y-83314120D01*
X268757282Y-83310354D01*
X268745922Y-83306867D01*
X268734341Y-83303658D01*
X268722540Y-83300729D01*
X268710518Y-83298079D01*
X268698276Y-83295708D01*
X268685813Y-83293616D01*
X268673130Y-83291802D01*
X268660226Y-83290268D01*
X268647101Y-83289012D01*
X268633756Y-83288036D01*
X268620190Y-83287339D01*
X268606404Y-83286920D01*
X268592397Y-83286781D01*
X268580754Y-83286808D01*
X268569336Y-83286995D01*
X268558144Y-83287340D01*
X268547178Y-83287845D01*
X268536436Y-83288508D01*
X268525921Y-83289330D01*
X268515630Y-83290312D01*
X268505565Y-83291452D01*
X268495726Y-83292751D01*
X268486112Y-83294209D01*
X268476724Y-83295826D01*
X268467561Y-83297602D01*
X268458623Y-83299537D01*
X268449911Y-83301631D01*
X268441424Y-83303884D01*
X268433163Y-83306296D01*
X268425074Y-83308839D01*
X268417158Y-83311486D01*
X268405605Y-83315651D01*
X268394439Y-83320050D01*
X268383660Y-83324682D01*
X268373268Y-83329548D01*
X268363263Y-83334647D01*
X268353645Y-83339980D01*
X268344413Y-83345546D01*
X268335568Y-83351346D01*
X268327110Y-83357380D01*
X268324377Y-83359443D01*
X268316369Y-83365731D01*
X268308692Y-83372140D01*
X268301348Y-83378669D01*
X268294336Y-83385319D01*
X268287656Y-83392089D01*
X268281308Y-83398980D01*
X268275292Y-83405991D01*
X268269608Y-83413122D01*
X268264256Y-83420374D01*
X268259236Y-83427746D01*
X268256074Y-83432728D01*
X268251572Y-83440239D01*
X268247328Y-83447746D01*
X268243344Y-83455250D01*
X268239618Y-83462750D01*
X268235054Y-83472744D01*
X268230951Y-83482732D01*
X268227308Y-83492713D01*
X268224126Y-83502688D01*
X268221404Y-83512657D01*
X268219069Y-83522563D01*
X268217044Y-83532249D01*
X268215332Y-83541715D01*
X268213930Y-83550960D01*
X268212840Y-83559984D01*
X268212062Y-83568788D01*
X268211595Y-83577371D01*
X268211439Y-83585734D01*
X268211576Y-83594810D01*
X268211986Y-83603820D01*
X268212671Y-83612765D01*
X268213629Y-83621643D01*
X268214860Y-83630457D01*
X268216366Y-83639204D01*
X268218145Y-83647886D01*
X268220197Y-83656502D01*
X268222524Y-83665052D01*
X268225124Y-83673537D01*
X268227010Y-83679157D01*
X268230007Y-83687531D01*
X268233238Y-83695759D01*
X268236702Y-83703841D01*
X268240400Y-83711777D01*
X268244332Y-83719567D01*
X268248497Y-83727211D01*
X268252895Y-83734709D01*
X268257528Y-83742062D01*
X268262393Y-83749268D01*
X268267493Y-83756328D01*
X268271022Y-83760954D01*
X268276472Y-83767718D01*
X268282155Y-83774230D01*
X268288072Y-83780490D01*
X268294222Y-83786499D01*
X268300606Y-83792256D01*
X268307224Y-83797761D01*
X268314075Y-83803014D01*
X268321159Y-83808016D01*
X268328477Y-83812765D01*
X268336029Y-83817263D01*
X268341193Y-83820122D01*
X268419253Y-83741439D01*
X268427765Y-83733342D01*
X268419253Y-83725038D01*
X268410437Y-83724250D01*
X268401894Y-83722277D01*
X268400776Y-83721924D01*
X268393049Y-83718527D01*
X268385272Y-83713601D01*
X268378175Y-83708287D01*
X268376279Y-83706769D01*
X268369635Y-83700655D01*
X268363330Y-83694302D01*
X268357362Y-83687712D01*
X268351732Y-83680883D01*
X268348667Y-83676873D01*
X268343667Y-83669540D01*
X268339204Y-83661711D01*
X268335277Y-83653384D01*
X268331886Y-83644561D01*
X268330190Y-83639296D01*
X268327932Y-83631008D01*
X268326142Y-83622179D01*
X268324818Y-83612810D01*
X268323962Y-83602900D01*
X268323605Y-83594230D01*
X268323547Y-83588848D01*
X268323839Y-83578941D01*
X268324714Y-83569151D01*
X268326174Y-83559478D01*
X268328218Y-83549922D01*
X268330845Y-83540482D01*
X268331851Y-83537362D01*
X268335281Y-83528221D01*
X268339500Y-83519329D01*
X268343617Y-83512109D01*
X268348283Y-83505060D01*
X268353495Y-83498184D01*
X268359255Y-83491481D01*
X268365547Y-83484980D01*
X268372356Y-83478712D01*
X268379682Y-83472677D01*
X268387525Y-83466876D01*
X268395885Y-83461308D01*
X268404762Y-83455973D01*
X268408458Y-83453904D01*
X268416084Y-83449972D01*
X268424119Y-83446274D01*
X268432563Y-83442810D01*
X268441415Y-83439579D01*
X268450676Y-83436582D01*
X268460346Y-83433818D01*
X268470425Y-83431288D01*
X268480912Y-83428991D01*
X268491779Y-83426948D01*
X268500227Y-83425594D01*
X268508931Y-83424393D01*
X268517890Y-83423346D01*
X268527105Y-83422452D01*
X268536575Y-83421711D01*
X268546300Y-83421123D01*
X268556281Y-83420689D01*
X268566517Y-83420408D01*
X268577009Y-83420280D01*
X268580563Y-83420272D01*
X268589264Y-83420319D01*
X268597824Y-83420460D01*
X268606242Y-83420695D01*
X268618606Y-83421224D01*
X268630652Y-83421965D01*
X268642380Y-83422917D01*
X268653791Y-83424082D01*
X268664884Y-83425457D01*
X268675660Y-83427045D01*
X268686118Y-83428844D01*
X268696259Y-83430855D01*
X268702843Y-83432313D01*
X268712427Y-83434693D01*
X268721715Y-83437242D01*
X268730708Y-83439958D01*
X268739405Y-83442842D01*
X268747806Y-83445894D01*
X268755912Y-83449114D01*
X268763722Y-83452502D01*
X268771237Y-83456058D01*
X268780796Y-83461060D01*
X268789831Y-83466360D01*
X268798320Y-83472001D01*
X268806244Y-83477921D01*
X268813605Y-83484120D01*
X268820401Y-83490598D01*
X268826632Y-83497355D01*
X268832299Y-83504391D01*
X268837402Y-83511706D01*
X268841940Y-83519300D01*
X268845881Y-83527127D01*
X268849297Y-83535143D01*
X268852187Y-83543347D01*
X268854552Y-83551738D01*
X268856391Y-83560318D01*
X268857705Y-83569087D01*
X268858493Y-83578043D01*
X268858756Y-83587187D01*
X268858594Y-83596270D01*
X268858107Y-83605353D01*
X268857296Y-83614436D01*
X268857095Y-83616252D01*
X268855880Y-83624527D01*
X268854336Y-83632769D01*
X268852464Y-83640978D01*
X268851282Y-83645525D01*
X268848733Y-83653633D01*
X268845757Y-83661611D01*
X268842354Y-83669457D01*
X268840279Y-83673759D01*
X268836046Y-83681401D01*
X268831287Y-83688911D01*
X268826003Y-83696290D01*
X268822840Y-83700333D01*
X268689764Y-83700333D01*
X268689764Y-83577430D01*
X268578072Y-83577430D01*
X268578072Y-83821782D01*
X268892388Y-83821782D01*
X268897435Y-83815088D01*
X268902298Y-83808343D01*
X268909249Y-83798132D01*
X268915788Y-83787807D01*
X268921915Y-83777369D01*
X268927629Y-83766819D01*
X268932931Y-83756155D01*
X268937821Y-83745378D01*
X268942298Y-83734487D01*
X268946363Y-83723484D01*
X268950015Y-83712368D01*
X268951141Y-83708637D01*
X268954294Y-83697445D01*
X268957138Y-83686213D01*
X268959671Y-83674941D01*
X268961894Y-83663629D01*
X268963807Y-83652276D01*
X268965410Y-83640883D01*
X268966702Y-83629451D01*
X268967684Y-83617978D01*
X268968356Y-83606465D01*
X268968718Y-83594912D01*
X268968787Y-83587187D01*
G37*
G36*
X268211439Y-83895275D02*
G01*
X268211439Y-84036032D01*
X268701183Y-84289105D01*
X268211439Y-84282046D01*
X268211439Y-84402458D01*
X268211439Y-84413876D01*
X268222235Y-84413876D01*
X268229171Y-84408697D01*
X268237275Y-84405486D01*
X268237805Y-84405364D01*
X268246540Y-84404289D01*
X268254915Y-84403865D01*
X268263959Y-84403710D01*
X268266455Y-84403703D01*
X268955501Y-84403703D01*
X268955501Y-84278309D01*
X268433578Y-84016933D01*
X268955501Y-84016933D01*
X268955501Y-83895275D01*
X268211439Y-83895275D01*
G37*
G36*
X268955501Y-84673799D02*
G01*
X268955401Y-84684781D01*
X268955102Y-84695565D01*
X268954603Y-84706152D01*
X268953905Y-84716540D01*
X268953007Y-84726731D01*
X268951910Y-84736723D01*
X268950613Y-84746518D01*
X268949117Y-84756115D01*
X268947421Y-84765514D01*
X268945526Y-84774715D01*
X268943431Y-84783719D01*
X268941137Y-84792524D01*
X268938643Y-84801132D01*
X268935950Y-84809541D01*
X268933057Y-84817753D01*
X268929965Y-84825767D01*
X268928334Y-84829702D01*
X268924945Y-84837437D01*
X268921383Y-84844992D01*
X268915718Y-84855987D01*
X268909666Y-84866577D01*
X268903227Y-84876761D01*
X268896402Y-84886541D01*
X268889190Y-84895915D01*
X268881591Y-84904885D01*
X268873605Y-84913449D01*
X268865232Y-84921609D01*
X268856472Y-84929363D01*
X268850401Y-84934342D01*
X268841009Y-84941507D01*
X268831274Y-84948307D01*
X268821196Y-84954742D01*
X268810774Y-84960812D01*
X268800010Y-84966517D01*
X268788903Y-84971857D01*
X268781307Y-84975215D01*
X268773559Y-84978410D01*
X268765659Y-84981443D01*
X268757606Y-84984314D01*
X268749401Y-84987022D01*
X268741043Y-84989569D01*
X268732542Y-84991988D01*
X268723906Y-84994262D01*
X268715135Y-84996393D01*
X268706230Y-84998379D01*
X268697190Y-85000221D01*
X268688016Y-85001918D01*
X268678707Y-85003471D01*
X268669263Y-85004880D01*
X268659685Y-85006144D01*
X268649972Y-85007264D01*
X268640124Y-85008239D01*
X268630142Y-85009071D01*
X268620026Y-85009757D01*
X268609774Y-85010300D01*
X268599388Y-85010698D01*
X268588868Y-85010952D01*
X268581587Y-85010916D01*
X268570805Y-85010724D01*
X268560192Y-85010368D01*
X268549746Y-85009848D01*
X268539469Y-85009164D01*
X268529359Y-85008315D01*
X268519417Y-85007303D01*
X268509643Y-85006126D01*
X268500036Y-85004785D01*
X268490598Y-85003279D01*
X268481327Y-85001610D01*
X268475229Y-85000435D01*
X268466179Y-84998547D01*
X268457245Y-84996510D01*
X268448428Y-84994324D01*
X268439728Y-84991988D01*
X268431145Y-84989502D01*
X268422679Y-84986866D01*
X268414329Y-84984081D01*
X268406096Y-84981147D01*
X268397980Y-84978062D01*
X268389981Y-84974829D01*
X268384722Y-84972619D01*
X268376964Y-84969191D01*
X268369363Y-84965629D01*
X268359472Y-84960669D01*
X268349861Y-84955469D01*
X268340528Y-84950029D01*
X268331475Y-84944349D01*
X268322700Y-84938429D01*
X268314204Y-84932269D01*
X268306017Y-84926028D01*
X268298167Y-84919553D01*
X268290654Y-84912845D01*
X268283479Y-84905903D01*
X268276640Y-84898728D01*
X268270140Y-84891319D01*
X268263976Y-84883676D01*
X268258151Y-84875800D01*
X268253965Y-84869728D01*
X268248686Y-84861268D01*
X268243750Y-84852393D01*
X268239159Y-84843102D01*
X268234911Y-84833397D01*
X268231007Y-84823276D01*
X268228305Y-84815413D01*
X268225796Y-84807316D01*
X268223480Y-84798986D01*
X268222022Y-84793298D01*
X268220011Y-84784455D01*
X268218212Y-84775241D01*
X268216625Y-84765654D01*
X268215249Y-84755695D01*
X268214085Y-84745364D01*
X268213132Y-84734660D01*
X268212392Y-84723585D01*
X268211862Y-84712137D01*
X268211545Y-84700316D01*
X268211439Y-84688124D01*
X268211439Y-84627295D01*
X268318564Y-84627295D01*
X268318564Y-84683349D01*
X268318695Y-84692616D01*
X268319086Y-84701628D01*
X268319739Y-84710386D01*
X268320653Y-84718889D01*
X268322514Y-84731166D01*
X268324962Y-84742870D01*
X268327997Y-84754001D01*
X268331621Y-84764559D01*
X268335831Y-84774544D01*
X268340629Y-84783956D01*
X268346015Y-84792796D01*
X268351989Y-84801062D01*
X268356274Y-84806285D01*
X268363103Y-84813754D01*
X268370414Y-84820785D01*
X268378206Y-84827378D01*
X268386480Y-84833533D01*
X268395236Y-84839250D01*
X268404474Y-84844530D01*
X268414194Y-84849371D01*
X268424395Y-84853775D01*
X268435077Y-84857740D01*
X268446242Y-84861268D01*
X268457837Y-84864459D01*
X268469812Y-84867335D01*
X268478006Y-84869079D01*
X268486368Y-84870683D01*
X268494900Y-84872148D01*
X268503600Y-84873473D01*
X268512468Y-84874658D01*
X268521506Y-84875705D01*
X268530712Y-84876611D01*
X268540087Y-84877378D01*
X268549630Y-84878006D01*
X268559342Y-84878494D01*
X268569223Y-84878843D01*
X268579272Y-84879052D01*
X268589490Y-84879122D01*
X268599121Y-84879118D01*
X268608603Y-84878950D01*
X268617936Y-84878618D01*
X268627119Y-84878123D01*
X268636153Y-84877464D01*
X268645038Y-84876640D01*
X268653774Y-84875653D01*
X268662360Y-84874503D01*
X268670797Y-84873188D01*
X268679086Y-84871710D01*
X268691238Y-84869185D01*
X268703054Y-84866292D01*
X268714535Y-84863030D01*
X268725680Y-84859399D01*
X268732873Y-84856782D01*
X268743287Y-84852478D01*
X268753253Y-84847721D01*
X268762770Y-84842513D01*
X268771838Y-84836851D01*
X268780457Y-84830738D01*
X268788627Y-84824171D01*
X268796348Y-84817152D01*
X268803621Y-84809681D01*
X268810445Y-84801757D01*
X268816819Y-84793381D01*
X268820792Y-84787550D01*
X268826269Y-84778347D01*
X268831170Y-84768598D01*
X268835495Y-84758300D01*
X268839243Y-84747456D01*
X268842414Y-84736064D01*
X268845008Y-84724124D01*
X268846418Y-84715861D01*
X268847571Y-84707354D01*
X268848468Y-84698603D01*
X268849109Y-84689610D01*
X268849493Y-84680373D01*
X268849621Y-84670893D01*
X268849621Y-84627295D01*
X268318564Y-84627295D01*
X268211439Y-84627295D01*
X268211439Y-84496088D01*
X268955501Y-84496088D01*
X268955501Y-84673799D01*
G37*
G36*
X268211439Y-85679030D02*
G01*
X268211439Y-85819787D01*
X268701183Y-86072859D01*
X268211439Y-86065800D01*
X268211439Y-86186212D01*
X268211439Y-86197630D01*
X268222235Y-86197630D01*
X268229171Y-86192451D01*
X268237275Y-86189240D01*
X268237805Y-86189118D01*
X268246540Y-86188043D01*
X268254915Y-86187620D01*
X268263959Y-86187464D01*
X268266455Y-86187458D01*
X268955501Y-86187458D01*
X268955501Y-86062063D01*
X268433578Y-85800687D01*
X268955501Y-85800687D01*
X268955501Y-85679030D01*
X268211439Y-85679030D01*
G37*
G36*
X268968787Y-86563225D02*
G01*
X268968596Y-86551845D01*
X268968021Y-86540592D01*
X268967063Y-86529467D01*
X268965722Y-86518470D01*
X268963998Y-86507600D01*
X268961890Y-86496859D01*
X268959399Y-86486244D01*
X268956526Y-86475758D01*
X268953269Y-86465399D01*
X268949628Y-86455169D01*
X268946989Y-86448419D01*
X268942690Y-86438485D01*
X268937967Y-86428771D01*
X268932822Y-86419275D01*
X268927253Y-86409999D01*
X268921261Y-86400941D01*
X268914845Y-86392102D01*
X268908006Y-86383483D01*
X268900744Y-86375082D01*
X268893059Y-86366900D01*
X268884950Y-86358937D01*
X268879309Y-86353750D01*
X268870484Y-86346200D01*
X268861213Y-86338963D01*
X268851497Y-86332040D01*
X268841336Y-86325432D01*
X268830730Y-86319136D01*
X268823412Y-86315114D01*
X268815896Y-86311231D01*
X268808182Y-86307488D01*
X268800271Y-86303884D01*
X268792161Y-86300419D01*
X268783853Y-86297094D01*
X268775348Y-86293909D01*
X268766645Y-86290863D01*
X268762219Y-86289392D01*
X268753189Y-86286602D01*
X268743953Y-86283991D01*
X268734511Y-86281561D01*
X268724863Y-86279310D01*
X268715009Y-86277240D01*
X268704949Y-86275350D01*
X268694683Y-86273639D01*
X268684211Y-86272109D01*
X268673533Y-86270759D01*
X268662649Y-86269589D01*
X268651559Y-86268598D01*
X268640263Y-86267788D01*
X268628761Y-86267158D01*
X268617053Y-86266708D01*
X268605140Y-86266438D01*
X268593020Y-86266348D01*
X268582359Y-86266418D01*
X268571863Y-86266627D01*
X268561533Y-86266976D01*
X268551369Y-86267464D01*
X268541369Y-86268092D01*
X268531536Y-86268859D01*
X268521867Y-86269765D01*
X268512365Y-86270812D01*
X268503027Y-86271997D01*
X268493855Y-86273322D01*
X268484849Y-86274787D01*
X268476008Y-86276391D01*
X268467332Y-86278135D01*
X268458822Y-86280018D01*
X268450477Y-86282040D01*
X268442297Y-86284202D01*
X268434281Y-86286483D01*
X268422558Y-86290091D01*
X268411195Y-86293921D01*
X268400194Y-86297973D01*
X268389555Y-86302249D01*
X268379277Y-86306746D01*
X268369359Y-86311467D01*
X268359804Y-86316410D01*
X268350609Y-86321575D01*
X268341776Y-86326964D01*
X268333304Y-86332575D01*
X268325164Y-86338370D01*
X268317327Y-86344311D01*
X268309793Y-86350398D01*
X268302562Y-86356631D01*
X268295634Y-86363010D01*
X268289008Y-86369535D01*
X268282686Y-86376206D01*
X268276666Y-86383023D01*
X268270950Y-86389986D01*
X268265536Y-86397095D01*
X268262095Y-86401915D01*
X268257133Y-86409225D01*
X268252444Y-86416598D01*
X268248029Y-86424032D01*
X268243887Y-86431528D01*
X268240020Y-86439087D01*
X268236426Y-86446707D01*
X268233105Y-86454389D01*
X268230059Y-86462134D01*
X268226422Y-86472556D01*
X268223273Y-86483089D01*
X268220499Y-86493723D01*
X268218095Y-86504343D01*
X268216062Y-86514950D01*
X268214397Y-86525545D01*
X268213103Y-86536126D01*
X268212179Y-86546695D01*
X268211624Y-86557250D01*
X268211439Y-86567793D01*
X268211588Y-86578308D01*
X268212036Y-86588625D01*
X268212782Y-86598744D01*
X268213827Y-86608665D01*
X268215170Y-86618389D01*
X268216811Y-86627914D01*
X268218751Y-86637242D01*
X268220989Y-86646372D01*
X268223526Y-86655304D01*
X268226361Y-86664038D01*
X268229494Y-86672574D01*
X268232926Y-86680912D01*
X268236657Y-86689053D01*
X268240686Y-86696995D01*
X268245013Y-86704740D01*
X268249639Y-86712287D01*
X268254534Y-86719625D01*
X268259672Y-86726745D01*
X268265051Y-86733645D01*
X268270672Y-86740327D01*
X268276534Y-86746789D01*
X268282638Y-86753033D01*
X268288984Y-86759057D01*
X268295572Y-86764863D01*
X268302401Y-86770450D01*
X268309471Y-86775817D01*
X268316784Y-86780966D01*
X268324338Y-86785896D01*
X268332134Y-86790607D01*
X268340171Y-86795099D01*
X268348450Y-86799372D01*
X268356971Y-86803426D01*
X268420706Y-86718722D01*
X268426727Y-86709380D01*
X268417800Y-86702944D01*
X268409121Y-86703349D01*
X268400466Y-86701669D01*
X268399946Y-86701491D01*
X268391659Y-86697930D01*
X268383420Y-86693559D01*
X268375661Y-86689041D01*
X268374618Y-86688412D01*
X268366858Y-86681934D01*
X268359774Y-86675372D01*
X268353364Y-86668725D01*
X268347629Y-86661994D01*
X268342568Y-86655179D01*
X268337192Y-86646541D01*
X268332869Y-86637771D01*
X268331436Y-86634227D01*
X268328326Y-86625293D01*
X268325743Y-86616268D01*
X268323687Y-86607152D01*
X268322158Y-86597944D01*
X268321157Y-86588645D01*
X268320682Y-86579256D01*
X268320640Y-86575474D01*
X268320906Y-86566904D01*
X268321704Y-86558424D01*
X268323034Y-86550036D01*
X268324896Y-86541738D01*
X268327290Y-86533531D01*
X268330216Y-86525415D01*
X268333674Y-86517390D01*
X268337664Y-86509455D01*
X268342134Y-86501670D01*
X268347136Y-86494092D01*
X268352670Y-86486722D01*
X268358736Y-86479560D01*
X268365334Y-86472605D01*
X268372464Y-86465858D01*
X268380126Y-86459318D01*
X268388320Y-86452986D01*
X268397029Y-86446975D01*
X268406239Y-86441295D01*
X268415948Y-86435946D01*
X268423557Y-86432152D01*
X268431448Y-86428543D01*
X268439619Y-86425121D01*
X268448071Y-86421884D01*
X268456805Y-86418834D01*
X268465819Y-86415970D01*
X268471985Y-86414164D01*
X268481427Y-86411641D01*
X268491147Y-86409366D01*
X268501143Y-86407340D01*
X268511417Y-86405561D01*
X268521969Y-86404031D01*
X268532798Y-86402749D01*
X268543904Y-86401715D01*
X268555287Y-86400929D01*
X268566948Y-86400391D01*
X268578886Y-86400102D01*
X268586999Y-86400047D01*
X268598677Y-86400156D01*
X268610121Y-86400485D01*
X268621332Y-86401032D01*
X268632309Y-86401798D01*
X268643053Y-86402784D01*
X268653563Y-86403988D01*
X268663839Y-86405411D01*
X268673882Y-86407053D01*
X268683692Y-86408914D01*
X268693268Y-86410995D01*
X268699522Y-86412503D01*
X268708697Y-86414963D01*
X268717618Y-86417595D01*
X268726282Y-86420398D01*
X268734692Y-86423373D01*
X268742845Y-86426519D01*
X268750744Y-86429837D01*
X268758387Y-86433327D01*
X268768180Y-86438246D01*
X268777519Y-86443470D01*
X268784225Y-86447588D01*
X268792740Y-86453320D01*
X268800743Y-86459305D01*
X268808233Y-86465543D01*
X268815210Y-86472034D01*
X268821675Y-86478778D01*
X268827628Y-86485775D01*
X268833068Y-86493025D01*
X268837995Y-86500528D01*
X268842374Y-86508239D01*
X268846170Y-86516112D01*
X268849381Y-86524147D01*
X268852009Y-86532344D01*
X268854052Y-86540703D01*
X268855512Y-86549225D01*
X268856388Y-86557909D01*
X268856680Y-86566755D01*
X268856477Y-86575776D01*
X268855869Y-86584543D01*
X268854855Y-86593057D01*
X268853436Y-86601318D01*
X268851198Y-86610896D01*
X268848376Y-86620109D01*
X268844933Y-86629072D01*
X268840834Y-86637743D01*
X268836077Y-86646122D01*
X268830664Y-86654209D01*
X268824594Y-86662004D01*
X268822425Y-86664537D01*
X268816621Y-86670809D01*
X268810240Y-86676908D01*
X268803281Y-86682836D01*
X268795744Y-86688590D01*
X268787629Y-86694173D01*
X268778937Y-86699583D01*
X268775298Y-86701699D01*
X268843808Y-86795537D01*
X268852066Y-86790262D01*
X268860024Y-86784871D01*
X268867682Y-86779363D01*
X268875040Y-86773738D01*
X268882098Y-86767997D01*
X268888856Y-86762138D01*
X268895313Y-86756163D01*
X268901471Y-86750071D01*
X268907329Y-86743862D01*
X268912886Y-86737537D01*
X268918144Y-86731095D01*
X268925467Y-86721212D01*
X268932116Y-86711067D01*
X268938089Y-86700659D01*
X268939930Y-86697131D01*
X268945087Y-86686324D01*
X268949737Y-86675155D01*
X268953880Y-86663625D01*
X268957515Y-86651734D01*
X268959657Y-86643605D01*
X268961573Y-86635317D01*
X268963264Y-86626867D01*
X268964729Y-86618257D01*
X268965969Y-86609487D01*
X268966984Y-86600555D01*
X268967773Y-86591464D01*
X268968336Y-86582212D01*
X268968675Y-86572799D01*
X268968787Y-86563225D01*
G37*
G36*
X268968787Y-87708382D02*
G01*
X268968701Y-87699128D01*
X268968440Y-87689944D01*
X268968006Y-87680832D01*
X268967399Y-87671792D01*
X268966618Y-87662822D01*
X268965663Y-87653925D01*
X268964535Y-87645098D01*
X268963234Y-87636343D01*
X268961759Y-87627659D01*
X268960110Y-87619047D01*
X268958288Y-87610506D01*
X268956292Y-87602036D01*
X268954123Y-87593638D01*
X268951780Y-87585311D01*
X268949263Y-87577055D01*
X268946573Y-87568871D01*
X268943706Y-87560807D01*
X268940657Y-87552911D01*
X268937426Y-87545184D01*
X268932239Y-87533910D01*
X268926643Y-87523016D01*
X268920639Y-87512501D01*
X268914226Y-87502365D01*
X268907404Y-87492609D01*
X268900173Y-87483233D01*
X268892534Y-87474236D01*
X268884486Y-87465619D01*
X268878894Y-87460085D01*
X268768032Y-87526104D01*
X268758067Y-87531709D01*
X268764295Y-87542090D01*
X268772354Y-87544744D01*
X268780369Y-87547798D01*
X268782149Y-87548525D01*
X268789769Y-87552973D01*
X268796288Y-87558262D01*
X268802663Y-87564371D01*
X268805193Y-87567002D01*
X268810572Y-87574531D01*
X268815704Y-87582274D01*
X268820589Y-87590232D01*
X268825227Y-87598403D01*
X268829620Y-87606788D01*
X268833765Y-87615388D01*
X268837664Y-87624201D01*
X268841317Y-87633229D01*
X268844590Y-87642506D01*
X268847454Y-87651965D01*
X268849910Y-87661606D01*
X268851957Y-87671428D01*
X268853595Y-87681432D01*
X268854824Y-87691618D01*
X268855645Y-87701985D01*
X268856057Y-87712534D01*
X268855920Y-87721291D01*
X268855510Y-87729784D01*
X268854656Y-87739627D01*
X268853408Y-87749091D01*
X268851765Y-87758175D01*
X268850452Y-87764021D01*
X268848075Y-87772451D01*
X268845304Y-87780457D01*
X268841573Y-87789263D01*
X268837305Y-87797493D01*
X268833220Y-87804089D01*
X268827846Y-87811159D01*
X268821895Y-87817475D01*
X268815368Y-87823035D01*
X268808265Y-87827840D01*
X268803948Y-87830247D01*
X268795888Y-87833807D01*
X268787332Y-87836492D01*
X268778279Y-87838303D01*
X268768729Y-87839239D01*
X268763049Y-87839382D01*
X268754348Y-87839037D01*
X268745889Y-87838003D01*
X268737674Y-87836280D01*
X268736061Y-87835853D01*
X268727967Y-87833229D01*
X268720036Y-87829511D01*
X268712267Y-87824698D01*
X268710733Y-87823604D01*
X268703742Y-87818075D01*
X268697556Y-87812113D01*
X268691396Y-87805165D01*
X268686027Y-87798276D01*
X268680478Y-87790573D01*
X268675564Y-87783274D01*
X268670504Y-87775333D01*
X268666175Y-87768225D01*
X268661745Y-87760671D01*
X268659039Y-87755924D01*
X268654387Y-87747650D01*
X268649644Y-87738788D01*
X268645783Y-87731276D01*
X268641865Y-87723387D01*
X268637888Y-87715121D01*
X268633852Y-87706480D01*
X268629759Y-87697462D01*
X268627690Y-87692812D01*
X268623585Y-87683310D01*
X268619470Y-87674059D01*
X268615345Y-87665060D01*
X268611211Y-87656312D01*
X268607067Y-87647816D01*
X268602913Y-87639570D01*
X268598750Y-87631577D01*
X268594577Y-87623835D01*
X268590394Y-87616344D01*
X268586201Y-87609104D01*
X268579894Y-87598716D01*
X268573565Y-87588894D01*
X268567214Y-87579638D01*
X268560841Y-87570947D01*
X268554378Y-87562763D01*
X268547834Y-87555028D01*
X268541211Y-87547743D01*
X268534507Y-87540906D01*
X268527723Y-87534517D01*
X268520859Y-87528578D01*
X268513914Y-87523088D01*
X268506889Y-87518046D01*
X268499784Y-87513453D01*
X268490185Y-87508028D01*
X268487763Y-87506796D01*
X268477892Y-87502320D01*
X268467690Y-87498440D01*
X268457158Y-87495157D01*
X268449041Y-87493087D01*
X268440738Y-87491352D01*
X268432249Y-87489954D01*
X268423574Y-87488890D01*
X268414713Y-87488163D01*
X268405665Y-87487771D01*
X268399531Y-87487697D01*
X268389512Y-87487967D01*
X268379698Y-87488777D01*
X268370088Y-87490127D01*
X268360682Y-87492017D01*
X268351481Y-87494448D01*
X268342484Y-87497418D01*
X268333692Y-87500929D01*
X268325104Y-87504980D01*
X268316720Y-87509571D01*
X268308541Y-87514702D01*
X268303201Y-87518422D01*
X268295415Y-87524388D01*
X268287940Y-87530762D01*
X268280774Y-87537545D01*
X268273919Y-87544737D01*
X268267374Y-87552337D01*
X268261139Y-87560346D01*
X268255214Y-87568764D01*
X268249600Y-87577590D01*
X268244295Y-87586825D01*
X268239301Y-87596469D01*
X268236144Y-87603126D01*
X268231729Y-87613410D01*
X268227748Y-87623942D01*
X268224202Y-87634722D01*
X268221090Y-87645750D01*
X268218412Y-87657026D01*
X268216168Y-87668551D01*
X268214358Y-87680324D01*
X268212983Y-87692345D01*
X268212042Y-87704614D01*
X268211656Y-87712931D01*
X268211463Y-87721358D01*
X268211439Y-87725614D01*
X268211534Y-87734391D01*
X268211819Y-87743053D01*
X268212293Y-87751597D01*
X268212957Y-87760024D01*
X268213811Y-87768335D01*
X268215245Y-87779234D01*
X268217016Y-87789926D01*
X268219125Y-87800410D01*
X268221570Y-87810687D01*
X268222235Y-87813224D01*
X268225092Y-87823260D01*
X268228268Y-87833128D01*
X268231762Y-87842827D01*
X268235573Y-87852357D01*
X268239703Y-87861719D01*
X268244150Y-87870912D01*
X268248915Y-87879937D01*
X268253998Y-87888792D01*
X268259419Y-87897463D01*
X268265196Y-87905933D01*
X268271330Y-87914201D01*
X268277821Y-87922269D01*
X268284669Y-87930135D01*
X268291874Y-87937800D01*
X268299435Y-87945264D01*
X268307353Y-87952527D01*
X268398285Y-87873014D01*
X268407212Y-87865748D01*
X268399531Y-87856406D01*
X268391254Y-87854998D01*
X268383136Y-87852954D01*
X268380846Y-87852254D01*
X268373139Y-87848740D01*
X268365645Y-87843538D01*
X268358950Y-87837887D01*
X268357179Y-87836268D01*
X268350961Y-87829055D01*
X268345412Y-87821691D01*
X268340532Y-87814174D01*
X268336321Y-87806505D01*
X268332779Y-87798685D01*
X268329906Y-87790712D01*
X268328944Y-87787480D01*
X268326851Y-87779213D01*
X268325113Y-87770499D01*
X268323729Y-87761339D01*
X268322700Y-87751733D01*
X268322026Y-87741681D01*
X268321742Y-87733319D01*
X268321678Y-87726859D01*
X268321882Y-87717926D01*
X268322496Y-87709342D01*
X268323727Y-87699771D01*
X268325516Y-87690677D01*
X268327491Y-87683262D01*
X268330263Y-87675073D01*
X268333491Y-87667401D01*
X268337741Y-87659266D01*
X268342587Y-87651805D01*
X268343892Y-87650045D01*
X268349368Y-87643492D01*
X268355962Y-87637082D01*
X268363016Y-87631690D01*
X268367974Y-87628661D01*
X268375614Y-87625049D01*
X268384219Y-87622421D01*
X268392944Y-87621253D01*
X268395586Y-87621188D01*
X268404227Y-87621512D01*
X268412503Y-87622485D01*
X268421185Y-87624305D01*
X268421952Y-87624509D01*
X268430324Y-87627455D01*
X268437850Y-87631283D01*
X268445294Y-87636206D01*
X268446034Y-87636758D01*
X268452640Y-87642537D01*
X268458621Y-87648749D01*
X268464707Y-87655973D01*
X268470117Y-87663124D01*
X268474776Y-87670014D01*
X268479566Y-87677605D01*
X268484488Y-87685896D01*
X268488690Y-87693341D01*
X268492983Y-87701272D01*
X268496483Y-87707967D01*
X268500921Y-87716850D01*
X268504602Y-87724416D01*
X268508401Y-87732391D01*
X268512316Y-87740775D01*
X268516348Y-87749568D01*
X268520497Y-87758769D01*
X268524763Y-87768379D01*
X268528039Y-87775854D01*
X268532851Y-87786282D01*
X268537634Y-87796388D01*
X268542388Y-87806173D01*
X268547113Y-87815637D01*
X268551808Y-87824780D01*
X268556474Y-87833601D01*
X268561112Y-87842102D01*
X268565719Y-87850281D01*
X268570298Y-87858139D01*
X268574848Y-87865677D01*
X268577864Y-87870523D01*
X268582400Y-87877547D01*
X268588510Y-87886480D01*
X268594691Y-87894921D01*
X268600943Y-87902868D01*
X268607267Y-87910322D01*
X268613663Y-87917284D01*
X268620129Y-87923752D01*
X268626667Y-87929727D01*
X268628313Y-87931144D01*
X268634979Y-87936548D01*
X268641794Y-87941550D01*
X268648759Y-87946150D01*
X268657674Y-87951334D01*
X268666823Y-87955890D01*
X268676205Y-87959817D01*
X268685820Y-87963115D01*
X268695674Y-87965926D01*
X268703827Y-87967832D01*
X268712221Y-87969433D01*
X268720854Y-87970729D01*
X268729728Y-87971720D01*
X268738842Y-87972406D01*
X268748195Y-87972787D01*
X268755368Y-87972873D01*
X268765226Y-87972630D01*
X268775026Y-87971902D01*
X268784767Y-87970689D01*
X268794450Y-87968990D01*
X268804074Y-87966806D01*
X268813640Y-87964136D01*
X268823148Y-87960981D01*
X268832597Y-87957341D01*
X268841988Y-87953216D01*
X268851321Y-87948605D01*
X268857510Y-87945261D01*
X268866577Y-87939849D01*
X268875326Y-87933890D01*
X268883758Y-87927383D01*
X268891872Y-87920329D01*
X268899669Y-87912727D01*
X268907148Y-87904578D01*
X268914310Y-87895882D01*
X268921155Y-87886638D01*
X268927681Y-87876847D01*
X268933891Y-87866509D01*
X268937854Y-87859312D01*
X268941600Y-87851862D01*
X268945104Y-87844147D01*
X268948366Y-87836168D01*
X268951387Y-87827925D01*
X268954166Y-87819417D01*
X268956704Y-87810645D01*
X268959000Y-87801608D01*
X268961054Y-87792307D01*
X268962866Y-87782742D01*
X268964437Y-87772912D01*
X268965766Y-87762818D01*
X268966854Y-87752460D01*
X268967700Y-87741837D01*
X268968304Y-87730950D01*
X268968666Y-87719798D01*
X268968787Y-87708382D01*
G37*
G36*
X268955501Y-88123803D02*
G01*
X268211439Y-88025812D01*
X268211439Y-88142280D01*
X268676270Y-88192936D01*
X268264586Y-88288850D01*
X268264586Y-88359644D01*
X268675024Y-88455973D01*
X268211439Y-88494795D01*
X268211439Y-88604827D01*
X268955501Y-88508705D01*
X268955501Y-88424002D01*
X268493369Y-88318330D01*
X268955501Y-88210997D01*
X268955501Y-88123803D01*
G37*
G36*
X268968787Y-88941564D02*
G01*
X268968596Y-88930184D01*
X268968021Y-88918931D01*
X268967063Y-88907806D01*
X268965722Y-88896809D01*
X268963998Y-88885939D01*
X268961890Y-88875198D01*
X268959399Y-88864584D01*
X268956526Y-88854097D01*
X268953269Y-88843739D01*
X268949628Y-88833508D01*
X268946989Y-88826758D01*
X268942690Y-88816825D01*
X268937967Y-88807110D01*
X268932822Y-88797614D01*
X268927253Y-88788338D01*
X268921261Y-88779280D01*
X268914845Y-88770442D01*
X268908006Y-88761822D01*
X268900744Y-88753421D01*
X268893059Y-88745239D01*
X268884950Y-88737276D01*
X268879309Y-88732090D01*
X268870484Y-88724539D01*
X268861213Y-88717302D01*
X268851497Y-88710380D01*
X268841336Y-88703771D01*
X268830730Y-88697476D01*
X268823412Y-88693453D01*
X268815896Y-88689570D01*
X268808182Y-88685827D01*
X268800271Y-88682223D01*
X268792161Y-88678759D01*
X268783853Y-88675434D01*
X268775348Y-88672248D01*
X268766645Y-88669202D01*
X268762219Y-88667732D01*
X268753189Y-88664941D01*
X268743953Y-88662331D01*
X268734511Y-88659900D01*
X268724863Y-88657650D01*
X268715009Y-88655579D01*
X268704949Y-88653689D01*
X268694683Y-88651979D01*
X268684211Y-88650448D01*
X268673533Y-88649098D01*
X268662649Y-88647928D01*
X268651559Y-88646938D01*
X268640263Y-88646127D01*
X268628761Y-88645497D01*
X268617053Y-88645047D01*
X268605140Y-88644777D01*
X268593020Y-88644687D01*
X268582359Y-88644757D01*
X268571863Y-88644966D01*
X268561533Y-88645315D01*
X268551369Y-88645803D01*
X268541369Y-88646431D01*
X268531536Y-88647198D01*
X268521867Y-88648105D01*
X268512365Y-88649151D01*
X268503027Y-88650336D01*
X268493855Y-88651661D01*
X268484849Y-88653126D01*
X268476008Y-88654730D01*
X268467332Y-88656474D01*
X268458822Y-88658357D01*
X268450477Y-88660379D01*
X268442297Y-88662541D01*
X268434281Y-88664823D01*
X268422558Y-88668430D01*
X268411195Y-88672260D01*
X268400194Y-88676313D01*
X268389555Y-88680588D01*
X268379277Y-88685086D01*
X268369359Y-88689806D01*
X268359804Y-88694749D01*
X268350609Y-88699915D01*
X268341776Y-88705303D01*
X268333304Y-88710914D01*
X268325164Y-88716709D01*
X268317327Y-88722650D01*
X268309793Y-88728737D01*
X268302562Y-88734970D01*
X268295634Y-88741349D01*
X268289008Y-88747874D01*
X268282686Y-88754545D01*
X268276666Y-88761362D01*
X268270950Y-88768325D01*
X268265536Y-88775434D01*
X268262095Y-88780254D01*
X268257133Y-88787564D01*
X268252444Y-88794937D01*
X268248029Y-88802371D01*
X268243887Y-88809867D01*
X268240020Y-88817426D01*
X268236426Y-88825046D01*
X268233105Y-88832729D01*
X268230059Y-88840473D01*
X268226422Y-88850896D01*
X268223273Y-88861428D01*
X268220499Y-88872062D01*
X268218095Y-88882682D01*
X268216062Y-88893289D01*
X268214397Y-88903884D01*
X268213103Y-88914465D01*
X268212179Y-88925034D01*
X268211624Y-88935589D01*
X268211439Y-88946132D01*
X268211588Y-88956647D01*
X268212036Y-88966964D01*
X268212782Y-88977083D01*
X268213827Y-88987004D01*
X268215170Y-88996728D01*
X268216811Y-89006253D01*
X268218751Y-89015581D01*
X268220989Y-89024711D01*
X268223526Y-89033643D01*
X268226361Y-89042377D01*
X268229494Y-89050913D01*
X268232926Y-89059251D01*
X268236657Y-89067392D01*
X268240686Y-89075334D01*
X268245013Y-89083079D01*
X268249639Y-89090626D01*
X268254534Y-89097964D01*
X268259672Y-89105084D01*
X268265051Y-89111984D01*
X268270672Y-89118666D01*
X268276534Y-89125128D01*
X268282638Y-89131372D01*
X268288984Y-89137396D01*
X268295572Y-89143202D01*
X268302401Y-89148789D01*
X268309471Y-89154157D01*
X268316784Y-89159305D01*
X268324338Y-89164235D01*
X268332134Y-89168946D01*
X268340171Y-89173438D01*
X268348450Y-89177711D01*
X268356971Y-89181765D01*
X268420706Y-89097062D01*
X268426727Y-89087719D01*
X268417800Y-89081284D01*
X268409121Y-89081688D01*
X268400466Y-89080008D01*
X268399946Y-89079830D01*
X268391659Y-89076270D01*
X268383420Y-89071898D01*
X268375661Y-89067380D01*
X268374618Y-89066751D01*
X268366858Y-89060273D01*
X268359774Y-89053711D01*
X268353364Y-89047064D01*
X268347629Y-89040333D01*
X268342568Y-89033518D01*
X268337192Y-89024880D01*
X268332869Y-89016111D01*
X268331436Y-89012566D01*
X268328326Y-89003632D01*
X268325743Y-88994607D01*
X268323687Y-88985491D01*
X268322158Y-88976283D01*
X268321157Y-88966985D01*
X268320682Y-88957595D01*
X268320640Y-88953813D01*
X268320906Y-88945243D01*
X268321704Y-88936764D01*
X268323034Y-88928375D01*
X268324896Y-88920077D01*
X268327290Y-88911870D01*
X268330216Y-88903754D01*
X268333674Y-88895729D01*
X268337664Y-88887794D01*
X268342134Y-88880009D01*
X268347136Y-88872431D01*
X268352670Y-88865061D01*
X268358736Y-88857899D01*
X268365334Y-88850944D01*
X268372464Y-88844197D01*
X268380126Y-88837657D01*
X268388320Y-88831325D01*
X268397029Y-88825315D01*
X268406239Y-88819635D01*
X268415948Y-88814285D01*
X268423557Y-88810491D01*
X268431448Y-88806882D01*
X268439619Y-88803460D01*
X268448071Y-88800223D01*
X268456805Y-88797173D01*
X268465819Y-88794309D01*
X268471985Y-88792503D01*
X268481427Y-88789980D01*
X268491147Y-88787705D01*
X268501143Y-88785679D01*
X268511417Y-88783900D01*
X268521969Y-88782370D01*
X268532798Y-88781088D01*
X268543904Y-88780054D01*
X268555287Y-88779268D01*
X268566948Y-88778730D01*
X268578886Y-88778441D01*
X268586999Y-88778386D01*
X268598677Y-88778495D01*
X268610121Y-88778824D01*
X268621332Y-88779371D01*
X268632309Y-88780137D01*
X268643053Y-88781123D01*
X268653563Y-88782327D01*
X268663839Y-88783750D01*
X268673882Y-88785392D01*
X268683692Y-88787254D01*
X268693268Y-88789334D01*
X268699522Y-88790842D01*
X268708697Y-88793302D01*
X268717618Y-88795934D01*
X268726282Y-88798737D01*
X268734692Y-88801712D01*
X268742845Y-88804859D01*
X268750744Y-88808176D01*
X268758387Y-88811666D01*
X268768180Y-88816585D01*
X268777519Y-88821809D01*
X268784225Y-88825928D01*
X268792740Y-88831660D01*
X268800743Y-88837644D01*
X268808233Y-88843882D01*
X268815210Y-88850373D01*
X268821675Y-88857117D01*
X268827628Y-88864114D01*
X268833068Y-88871364D01*
X268837995Y-88878867D01*
X268842374Y-88886578D01*
X268846170Y-88894451D01*
X268849381Y-88902486D01*
X268852009Y-88910683D01*
X268854052Y-88919042D01*
X268855512Y-88927564D01*
X268856388Y-88936248D01*
X268856680Y-88945094D01*
X268856477Y-88954115D01*
X268855869Y-88962882D01*
X268854855Y-88971396D01*
X268853436Y-88979657D01*
X268851198Y-88989235D01*
X268848376Y-88998449D01*
X268844933Y-89007411D01*
X268840834Y-89016082D01*
X268836077Y-89024461D01*
X268830664Y-89032548D01*
X268824594Y-89040343D01*
X268822425Y-89042876D01*
X268816621Y-89049148D01*
X268810240Y-89055248D01*
X268803281Y-89061175D01*
X268795744Y-89066929D01*
X268787629Y-89072512D01*
X268778937Y-89077922D01*
X268775298Y-89080038D01*
X268843808Y-89173876D01*
X268852066Y-89168601D01*
X268860024Y-89163210D01*
X268867682Y-89157702D01*
X268875040Y-89152077D01*
X268882098Y-89146336D01*
X268888856Y-89140477D01*
X268895313Y-89134502D01*
X268901471Y-89128410D01*
X268907329Y-89122201D01*
X268912886Y-89115876D01*
X268918144Y-89109434D01*
X268925467Y-89099551D01*
X268932116Y-89089406D01*
X268938089Y-89078998D01*
X268939930Y-89075471D01*
X268945087Y-89064663D01*
X268949737Y-89053494D01*
X268953880Y-89041964D01*
X268957515Y-89030073D01*
X268959657Y-89021945D01*
X268961573Y-89013656D01*
X268963264Y-89005206D01*
X268964729Y-88996596D01*
X268965969Y-88987826D01*
X268966984Y-88978895D01*
X268967773Y-88969803D01*
X268968336Y-88960551D01*
X268968675Y-88951138D01*
X268968787Y-88941564D01*
G37*
G36*
X268211439Y-89270621D02*
G01*
X268211439Y-89406395D01*
X268211439Y-89417606D01*
X268222235Y-89417606D01*
X268229171Y-89412324D01*
X268237275Y-89409203D01*
X268237805Y-89409094D01*
X268246505Y-89408019D01*
X268254817Y-89407595D01*
X268263776Y-89407440D01*
X268266247Y-89407433D01*
X268845054Y-89407433D01*
X268845054Y-89748946D01*
X268955501Y-89748946D01*
X268955501Y-89270621D01*
X268211439Y-89270621D01*
G37*
G36*
X268618763Y-90022779D02*
G01*
X268683121Y-89973576D01*
X268955501Y-89973576D01*
X268955501Y-89840915D01*
X268211439Y-89840915D01*
X268211439Y-89972330D01*
X268211439Y-89983749D01*
X268222235Y-89983749D01*
X268229171Y-89978570D01*
X268237275Y-89975358D01*
X268237805Y-89975237D01*
X268246540Y-89974161D01*
X268254915Y-89973738D01*
X268263959Y-89973582D01*
X268266455Y-89973576D01*
X268515998Y-89973576D01*
X268204588Y-90222081D01*
X268206104Y-90230306D01*
X268207298Y-90239012D01*
X268207702Y-90242634D01*
X268208607Y-90251567D01*
X268209386Y-90259859D01*
X268209986Y-90266716D01*
X268210508Y-90275133D01*
X268210965Y-90283979D01*
X268211231Y-90290383D01*
X268211366Y-90299044D01*
X268211436Y-90307504D01*
X268211439Y-90309483D01*
X268211439Y-90371350D01*
X268523056Y-90118485D01*
X268954878Y-90385467D01*
X268960275Y-90231215D01*
X268618763Y-90022779D01*
G37*
M02*
