%TF.GenerationSoftware,KiCad,Pcbnew,7.0.8*%
%TF.CreationDate,2024-04-05T12:05:25+02:00*%
%TF.ProjectId,menelaos-rev-4,6d656e65-6c61-46f7-932d-7265762d342e,rev?*%
%TF.SameCoordinates,Original*%
%TF.FileFunction,Copper,L1,Top*%
%TF.FilePolarity,Positive*%
%FSLAX46Y46*%
G04 Gerber Fmt 4.6, Leading zero omitted, Abs format (unit mm)*
G04 Created by KiCad (PCBNEW 7.0.8) date 2024-04-05 12:05:25*
%MOMM*%
%LPD*%
G01*
G04 APERTURE LIST*
G04 Aperture macros list*
%AMRoundRect*
0 Rectangle with rounded corners*
0 $1 Rounding radius*
0 $2 $3 $4 $5 $6 $7 $8 $9 X,Y pos of 4 corners*
0 Add a 4 corners polygon primitive as box body*
4,1,4,$2,$3,$4,$5,$6,$7,$8,$9,$2,$3,0*
0 Add four circle primitives for the rounded corners*
1,1,$1+$1,$2,$3*
1,1,$1+$1,$4,$5*
1,1,$1+$1,$6,$7*
1,1,$1+$1,$8,$9*
0 Add four rect primitives between the rounded corners*
20,1,$1+$1,$2,$3,$4,$5,0*
20,1,$1+$1,$4,$5,$6,$7,0*
20,1,$1+$1,$6,$7,$8,$9,0*
20,1,$1+$1,$8,$9,$2,$3,0*%
G04 Aperture macros list end*
%TA.AperFunction,SMDPad,CuDef*%
%ADD10RoundRect,0.250000X-0.312500X-0.625000X0.312500X-0.625000X0.312500X0.625000X-0.312500X0.625000X0*%
%TD*%
%TA.AperFunction,SMDPad,CuDef*%
%ADD11RoundRect,0.250000X-0.625000X0.312500X-0.625000X-0.312500X0.625000X-0.312500X0.625000X0.312500X0*%
%TD*%
%TA.AperFunction,SMDPad,CuDef*%
%ADD12RoundRect,0.250000X-0.400000X-0.625000X0.400000X-0.625000X0.400000X0.625000X-0.400000X0.625000X0*%
%TD*%
%TA.AperFunction,SMDPad,CuDef*%
%ADD13RoundRect,0.112500X0.112500X-0.187500X0.112500X0.187500X-0.112500X0.187500X-0.112500X-0.187500X0*%
%TD*%
%TA.AperFunction,ComponentPad*%
%ADD14R,1.500000X3.000000*%
%TD*%
%TA.AperFunction,ComponentPad*%
%ADD15O,1.500000X3.000000*%
%TD*%
%TA.AperFunction,SMDPad,CuDef*%
%ADD16RoundRect,0.150000X-0.512500X-0.150000X0.512500X-0.150000X0.512500X0.150000X-0.512500X0.150000X0*%
%TD*%
%TA.AperFunction,SMDPad,CuDef*%
%ADD17RoundRect,0.250000X-0.650000X0.412500X-0.650000X-0.412500X0.650000X-0.412500X0.650000X0.412500X0*%
%TD*%
%TA.AperFunction,SMDPad,CuDef*%
%ADD18RoundRect,0.150000X0.725000X0.150000X-0.725000X0.150000X-0.725000X-0.150000X0.725000X-0.150000X0*%
%TD*%
%TA.AperFunction,SMDPad,CuDef*%
%ADD19RoundRect,0.150000X-0.875000X-0.150000X0.875000X-0.150000X0.875000X0.150000X-0.875000X0.150000X0*%
%TD*%
%TA.AperFunction,ComponentPad*%
%ADD20R,1.700000X1.700000*%
%TD*%
%TA.AperFunction,ComponentPad*%
%ADD21O,1.700000X1.700000*%
%TD*%
%TA.AperFunction,SMDPad,CuDef*%
%ADD22RoundRect,0.250000X-0.625000X0.400000X-0.625000X-0.400000X0.625000X-0.400000X0.625000X0.400000X0*%
%TD*%
%TA.AperFunction,SMDPad,CuDef*%
%ADD23RoundRect,0.250000X1.950000X0.700000X-1.950000X0.700000X-1.950000X-0.700000X1.950000X-0.700000X0*%
%TD*%
%TA.AperFunction,SMDPad,CuDef*%
%ADD24RoundRect,0.250000X0.412500X0.650000X-0.412500X0.650000X-0.412500X-0.650000X0.412500X-0.650000X0*%
%TD*%
%TA.AperFunction,SMDPad,CuDef*%
%ADD25RoundRect,0.250001X-0.462499X-0.624999X0.462499X-0.624999X0.462499X0.624999X-0.462499X0.624999X0*%
%TD*%
%TA.AperFunction,SMDPad,CuDef*%
%ADD26RoundRect,0.250000X0.475000X-0.337500X0.475000X0.337500X-0.475000X0.337500X-0.475000X-0.337500X0*%
%TD*%
%TA.AperFunction,SMDPad,CuDef*%
%ADD27RoundRect,0.250001X-0.624999X0.462499X-0.624999X-0.462499X0.624999X-0.462499X0.624999X0.462499X0*%
%TD*%
%TA.AperFunction,ComponentPad*%
%ADD28R,1.000000X1.000000*%
%TD*%
%TA.AperFunction,SMDPad,CuDef*%
%ADD29RoundRect,0.150000X0.150000X-0.512500X0.150000X0.512500X-0.150000X0.512500X-0.150000X-0.512500X0*%
%TD*%
%TA.AperFunction,SMDPad,CuDef*%
%ADD30R,1.300000X3.400000*%
%TD*%
%TA.AperFunction,SMDPad,CuDef*%
%ADD31RoundRect,0.250000X0.625000X-0.312500X0.625000X0.312500X-0.625000X0.312500X-0.625000X-0.312500X0*%
%TD*%
%TA.AperFunction,SMDPad,CuDef*%
%ADD32RoundRect,0.250000X0.650000X-0.412500X0.650000X0.412500X-0.650000X0.412500X-0.650000X-0.412500X0*%
%TD*%
%TA.AperFunction,SMDPad,CuDef*%
%ADD33RoundRect,0.112500X-0.112500X0.187500X-0.112500X-0.187500X0.112500X-0.187500X0.112500X0.187500X0*%
%TD*%
%TA.AperFunction,SMDPad,CuDef*%
%ADD34RoundRect,0.250000X0.625000X-0.400000X0.625000X0.400000X-0.625000X0.400000X-0.625000X-0.400000X0*%
%TD*%
%TA.AperFunction,SMDPad,CuDef*%
%ADD35R,0.970000X1.220000*%
%TD*%
%TA.AperFunction,SMDPad,CuDef*%
%ADD36RoundRect,0.225000X-0.225000X-0.375000X0.225000X-0.375000X0.225000X0.375000X-0.225000X0.375000X0*%
%TD*%
%TA.AperFunction,SMDPad,CuDef*%
%ADD37RoundRect,0.250001X0.462499X0.624999X-0.462499X0.624999X-0.462499X-0.624999X0.462499X-0.624999X0*%
%TD*%
%TA.AperFunction,SMDPad,CuDef*%
%ADD38R,1.560000X0.650000*%
%TD*%
%TA.AperFunction,SMDPad,CuDef*%
%ADD39RoundRect,0.150000X-0.150000X0.825000X-0.150000X-0.825000X0.150000X-0.825000X0.150000X0.825000X0*%
%TD*%
%TA.AperFunction,SMDPad,CuDef*%
%ADD40RoundRect,0.250001X0.624999X-0.462499X0.624999X0.462499X-0.624999X0.462499X-0.624999X-0.462499X0*%
%TD*%
%TA.AperFunction,SMDPad,CuDef*%
%ADD41RoundRect,0.150000X-0.825000X-0.150000X0.825000X-0.150000X0.825000X0.150000X-0.825000X0.150000X0*%
%TD*%
%TA.AperFunction,SMDPad,CuDef*%
%ADD42RoundRect,0.150000X-0.150000X-0.200000X0.150000X-0.200000X0.150000X0.200000X-0.150000X0.200000X0*%
%TD*%
%TA.AperFunction,SMDPad,CuDef*%
%ADD43R,0.900000X0.600000*%
%TD*%
%TA.AperFunction,SMDPad,CuDef*%
%ADD44RoundRect,0.250000X-0.475000X0.337500X-0.475000X-0.337500X0.475000X-0.337500X0.475000X0.337500X0*%
%TD*%
%TA.AperFunction,SMDPad,CuDef*%
%ADD45RoundRect,0.250000X-0.337500X-0.475000X0.337500X-0.475000X0.337500X0.475000X-0.337500X0.475000X0*%
%TD*%
%TA.AperFunction,SMDPad,CuDef*%
%ADD46RoundRect,0.250000X-0.412500X-0.650000X0.412500X-0.650000X0.412500X0.650000X-0.412500X0.650000X0*%
%TD*%
%TA.AperFunction,SMDPad,CuDef*%
%ADD47RoundRect,0.112500X-0.187500X-0.112500X0.187500X-0.112500X0.187500X0.112500X-0.187500X0.112500X0*%
%TD*%
%TA.AperFunction,SMDPad,CuDef*%
%ADD48RoundRect,0.250000X0.337500X0.475000X-0.337500X0.475000X-0.337500X-0.475000X0.337500X-0.475000X0*%
%TD*%
%TA.AperFunction,SMDPad,CuDef*%
%ADD49RoundRect,0.250000X-0.300000X2.050000X-0.300000X-2.050000X0.300000X-2.050000X0.300000X2.050000X0*%
%TD*%
%TA.AperFunction,SMDPad,CuDef*%
%ADD50RoundRect,0.250000X-2.375000X2.025000X-2.375000X-2.025000X2.375000X-2.025000X2.375000X2.025000X0*%
%TD*%
%TA.AperFunction,SMDPad,CuDef*%
%ADD51RoundRect,0.250002X-5.149998X4.449998X-5.149998X-4.449998X5.149998X-4.449998X5.149998X4.449998X0*%
%TD*%
%TA.AperFunction,SMDPad,CuDef*%
%ADD52RoundRect,0.075000X-0.075000X0.662500X-0.075000X-0.662500X0.075000X-0.662500X0.075000X0.662500X0*%
%TD*%
%TA.AperFunction,SMDPad,CuDef*%
%ADD53RoundRect,0.075000X-0.662500X0.075000X-0.662500X-0.075000X0.662500X-0.075000X0.662500X0.075000X0*%
%TD*%
%TA.AperFunction,SMDPad,CuDef*%
%ADD54RoundRect,0.250000X0.700000X-1.950000X0.700000X1.950000X-0.700000X1.950000X-0.700000X-1.950000X0*%
%TD*%
%TA.AperFunction,ComponentPad*%
%ADD55R,4.000000X4.000000*%
%TD*%
%TA.AperFunction,ComponentPad*%
%ADD56C,4.000000*%
%TD*%
%TA.AperFunction,SMDPad,CuDef*%
%ADD57RoundRect,0.150000X0.150000X-0.825000X0.150000X0.825000X-0.150000X0.825000X-0.150000X-0.825000X0*%
%TD*%
%TA.AperFunction,SMDPad,CuDef*%
%ADD58R,0.300000X0.700000*%
%TD*%
%TA.AperFunction,SMDPad,CuDef*%
%ADD59R,1.000000X0.700000*%
%TD*%
%TA.AperFunction,ComponentPad*%
%ADD60O,1.100000X2.100000*%
%TD*%
%TA.AperFunction,ComponentPad*%
%ADD61O,1.100000X2.600000*%
%TD*%
%TA.AperFunction,ViaPad*%
%ADD62C,0.550000*%
%TD*%
%TA.AperFunction,ViaPad*%
%ADD63C,0.700000*%
%TD*%
%TA.AperFunction,ViaPad*%
%ADD64C,0.800000*%
%TD*%
%TA.AperFunction,Conductor*%
%ADD65C,0.300000*%
%TD*%
%TA.AperFunction,Conductor*%
%ADD66C,0.500000*%
%TD*%
%TA.AperFunction,Conductor*%
%ADD67C,0.293370*%
%TD*%
%TA.AperFunction,Conductor*%
%ADD68C,0.150000*%
%TD*%
G04 APERTURE END LIST*
D10*
%TO.P,R202,1*%
%TO.N,/power/POL-FET-G*%
X211037500Y-116450000D03*
%TO.P,R202,2*%
%TO.N,GND*%
X213962500Y-116450000D03*
%TD*%
D11*
%TO.P,R205,1*%
%TO.N,blue*%
X220950000Y-102737500D03*
%TO.P,R205,2*%
%TO.N,/power/V-REF*%
X220950000Y-105662500D03*
%TD*%
D12*
%TO.P,R601,1*%
%TO.N,_zero*%
X203050000Y-65850000D03*
%TO.P,R601,2*%
%TO.N,+3.3V*%
X206150000Y-65850000D03*
%TD*%
D13*
%TO.P,U408,1*%
%TO.N,e*%
X240600000Y-62100000D03*
%TO.P,U408,2*%
%TO.N,GND*%
X240600000Y-60000000D03*
%TD*%
D14*
%TO.P,J501,1*%
%TO.N,red*%
X227200000Y-127250000D03*
X227200000Y-132250000D03*
D15*
%TO.P,J501,2*%
%TO.N,white*%
X232200000Y-127250000D03*
X232200000Y-132250000D03*
%TO.P,J501,3*%
%TO.N,blue*%
X237200000Y-127250000D03*
X237200000Y-132250000D03*
%TO.P,J501,4*%
%TO.N,yellow*%
X242200000Y-127250000D03*
X242200000Y-132250000D03*
%TO.P,J501,5*%
%TO.N,black*%
X247200000Y-127250000D03*
X247200000Y-132250000D03*
%TD*%
D16*
%TO.P,U202,1,VIN*%
%TO.N,blue*%
X225462500Y-93700000D03*
%TO.P,U202,2,GND*%
%TO.N,GND*%
X225462500Y-94650000D03*
%TO.P,U202,3,EN*%
%TO.N,blue*%
X225462500Y-95600000D03*
%TO.P,U202,4,NC*%
%TO.N,unconnected-(U202-NC-Pad4)*%
X227737500Y-95600000D03*
%TO.P,U202,5,VOUT*%
%TO.N,+3.3V*%
X227737500Y-93700000D03*
%TD*%
D17*
%TO.P,C310,1*%
%TO.N,/mcu/JUMPER_NRST*%
X277900000Y-102837500D03*
%TO.P,C310,2*%
%TO.N,GND*%
X277900000Y-105962500D03*
%TD*%
D18*
%TO.P,U404,1,D1*%
%TO.N,/seven-segment-display/BCD_out2*%
X256250000Y-95220000D03*
%TO.P,U404,2,D2*%
%TO.N,/seven-segment-display/BCD_out3*%
X256250000Y-93950000D03*
%TO.P,U404,3,LT*%
%TO.N,blue*%
X256250000Y-92680000D03*
%TO.P,U404,4,BL*%
X256250000Y-91410000D03*
%TO.P,U404,5,LE*%
%TO.N,GND*%
X256250000Y-90140000D03*
%TO.P,U404,6,D3*%
%TO.N,/seven-segment-display/BCD_out4*%
X256250000Y-88870000D03*
%TO.P,U404,7,D0*%
%TO.N,/seven-segment-display/BCD_out1*%
X256250000Y-87600000D03*
%TO.P,U404,8,GND*%
%TO.N,GND*%
X256250000Y-86330000D03*
%TO.P,U404,9,e*%
%TO.N,e*%
X251100000Y-86330000D03*
%TO.P,U404,10,d*%
%TO.N,d*%
X251100000Y-87600000D03*
%TO.P,U404,11,c*%
%TO.N,c*%
X251100000Y-88870000D03*
%TO.P,U404,12,b*%
%TO.N,b*%
X251100000Y-90140000D03*
%TO.P,U404,13,a*%
%TO.N,a*%
X251100000Y-91410000D03*
%TO.P,U404,14,g*%
%TO.N,g*%
X251100000Y-92680000D03*
%TO.P,U404,15,f*%
%TO.N,f*%
X251100000Y-93950000D03*
%TO.P,U404,16,VCC*%
%TO.N,blue*%
X251100000Y-95220000D03*
%TD*%
D17*
%TO.P,C207,1*%
%TO.N,blue*%
X218350000Y-102825000D03*
%TO.P,C207,2*%
%TO.N,GND*%
X218350000Y-105950000D03*
%TD*%
D19*
%TO.P,U405,1,1OE*%
%TO.N,_tens*%
X231000000Y-76580000D03*
%TO.P,U405,2,1A0*%
%TO.N,_a1*%
X231000000Y-77850000D03*
%TO.P,U405,3,2Y0*%
%TO.N,/seven-segment-display/BCD_out1*%
X231000000Y-79120000D03*
%TO.P,U405,4,1A1*%
%TO.N,_a2*%
X231000000Y-80390000D03*
%TO.P,U405,5,2Y1*%
%TO.N,/seven-segment-display/BCD_out2*%
X231000000Y-81660000D03*
%TO.P,U405,6,1A2*%
%TO.N,_a3*%
X231000000Y-82930000D03*
%TO.P,U405,7,2Y2*%
%TO.N,/seven-segment-display/BCD_out3*%
X231000000Y-84200000D03*
%TO.P,U405,8,1A3*%
%TO.N,_a4*%
X231000000Y-85470000D03*
%TO.P,U405,9,2Y3*%
%TO.N,/seven-segment-display/BCD_out4*%
X231000000Y-86740000D03*
%TO.P,U405,10,GND*%
%TO.N,GND*%
X231000000Y-88010000D03*
%TO.P,U405,11,2A3*%
%TO.N,_a4*%
X240300000Y-88010000D03*
%TO.P,U405,12,1Y3*%
%TO.N,/seven-segment-display/BCD_out4*%
X240300000Y-86740000D03*
%TO.P,U405,13,2A2*%
%TO.N,_a3*%
X240300000Y-85470000D03*
%TO.P,U405,14,1Y2*%
%TO.N,/seven-segment-display/BCD_out3*%
X240300000Y-84200000D03*
%TO.P,U405,15,2A1*%
%TO.N,_a2*%
X240300000Y-82930000D03*
%TO.P,U405,16,1Y1*%
%TO.N,/seven-segment-display/BCD_out2*%
X240300000Y-81660000D03*
%TO.P,U405,17,2A0*%
%TO.N,_a1*%
X240300000Y-80390000D03*
%TO.P,U405,18,1Y0*%
%TO.N,/seven-segment-display/BCD_out1*%
X240300000Y-79120000D03*
%TO.P,U405,19,2OE*%
%TO.N,_hundreds*%
X240300000Y-77850000D03*
%TO.P,U405,20,VCC*%
%TO.N,blue*%
X240300000Y-76580000D03*
%TD*%
D14*
%TO.P,J201,1,Pin_1*%
%TO.N,/power/POL-FET-D*%
X192150000Y-125150000D03*
X192150000Y-130150000D03*
D15*
%TO.P,J201,2,Pin_2*%
%TO.N,/power/PowerIn-*%
X197150000Y-125150000D03*
X197150000Y-130150000D03*
%TD*%
D20*
%TO.P,J401,1,Pin_1*%
%TO.N,blue*%
X267500000Y-74600000D03*
D21*
%TO.P,J401,2,Pin_2*%
%TO.N,/seven-segment-display/4017_TC*%
X267500000Y-72060000D03*
%TO.P,J401,3,Pin_3*%
%TO.N,GND*%
X267500000Y-69520000D03*
%TD*%
D12*
%TO.P,R304,1*%
%TO.N,/mcu/USB_D+*%
X261450000Y-118400000D03*
%TO.P,R304,2*%
%TO.N,+3.3V*%
X264550000Y-118400000D03*
%TD*%
D22*
%TO.P,R311,1*%
%TO.N,/mcu/CONN_NRST*%
X277900000Y-97650000D03*
%TO.P,R311,2*%
%TO.N,/mcu/JUMPER_NRST*%
X277900000Y-100750000D03*
%TD*%
%TO.P,R310,1*%
%TO.N,/mcu/CONN_SWO*%
X277900000Y-92250000D03*
%TO.P,R310,2*%
%TO.N,/mcu/MCU_SWO*%
X277900000Y-95350000D03*
%TD*%
D23*
%TO.P,C208,1*%
%TO.N,blue*%
X217700000Y-96050000D03*
%TO.P,C208,2*%
%TO.N,GND*%
X209000000Y-96050000D03*
%TD*%
D11*
%TO.P,R501,1*%
%TO.N,GND*%
X224430000Y-117447500D03*
%TO.P,R501,2*%
%TO.N,red*%
X224430000Y-120372500D03*
%TD*%
D24*
%TO.P,C401,1*%
%TO.N,blue*%
X263162500Y-66400000D03*
%TO.P,C401,2*%
%TO.N,GND*%
X260037500Y-66400000D03*
%TD*%
D14*
%TO.P,J601,1,Pin_1*%
%TO.N,GND*%
X197500000Y-61400000D03*
X197500000Y-56400000D03*
D15*
%TO.P,J601,2,Pin_2*%
%TO.N,_zero*%
X192500000Y-61400000D03*
X192500000Y-56400000D03*
%TD*%
D11*
%TO.P,R503,1*%
%TO.N,GND*%
X231980000Y-117422500D03*
%TO.P,R503,2*%
%TO.N,white*%
X231980000Y-120347500D03*
%TD*%
D25*
%TO.P,D203,1,K*%
%TO.N,/power/12V-Unfiltered__LED_K*%
X200112500Y-114000000D03*
%TO.P,D203,2,A*%
%TO.N,/power/12V-Unfiltered*%
X203087500Y-114000000D03*
%TD*%
D26*
%TO.P,C304,1*%
%TO.N,+3.3V*%
X255300000Y-113237500D03*
%TO.P,C304,2*%
%TO.N,GND*%
X255300000Y-111162500D03*
%TD*%
D27*
%TO.P,D204,1,K*%
%TO.N,/power/LDO_LED_K*%
X203250000Y-96512500D03*
%TO.P,D204,2,A*%
%TO.N,/power/5V-Jumper*%
X203250000Y-99487500D03*
%TD*%
D20*
%TO.P,J402,1,Pin_1*%
%TO.N,a*%
X227375000Y-56525000D03*
D21*
%TO.P,J402,2,Pin_2*%
%TO.N,b*%
X229915000Y-56525000D03*
%TO.P,J402,3,Pin_3*%
%TO.N,c*%
X232455000Y-56525000D03*
%TO.P,J402,4,Pin_4*%
%TO.N,d*%
X234995000Y-56525000D03*
%TO.P,J402,5,Pin_5*%
%TO.N,e*%
X237535000Y-56525000D03*
%TO.P,J402,6,Pin_6*%
%TO.N,f*%
X240075000Y-56525000D03*
%TO.P,J402,7,Pin_7*%
%TO.N,unconnected-(J402-Pin_7-Pad7)*%
X242615000Y-56525000D03*
%TO.P,J402,8,Pin_8*%
%TO.N,unconnected-(J402-Pin_8-Pad8)*%
X242615000Y-53985000D03*
%TO.P,J402,9,Pin_9*%
%TO.N,g*%
X240075000Y-53985000D03*
%TO.P,J402,10,Pin_10*%
%TO.N,dp*%
X237535000Y-53985000D03*
%TO.P,J402,11,Pin_11*%
%TO.N,ones*%
X234995000Y-53985000D03*
%TO.P,J402,12,Pin_12*%
%TO.N,tens*%
X232455000Y-53985000D03*
%TO.P,J402,13,Pin_13*%
%TO.N,hundreds*%
X229915000Y-53985000D03*
%TO.P,J402,14,Pin_14*%
%TO.N,thousands*%
X227375000Y-53985000D03*
%TD*%
D28*
%TO.P,TP303,1,1*%
%TO.N,/mcu/BOOT0*%
X269600000Y-110600000D03*
%TD*%
D11*
%TO.P,R206,1*%
%TO.N,/power/V-REF*%
X220950000Y-107505000D03*
%TO.P,R206,2*%
%TO.N,GND*%
X220950000Y-110430000D03*
%TD*%
D29*
%TO.P,U307,1,I/O1*%
%TO.N,/mcu/USB_CONN_D+*%
X257800000Y-128887500D03*
%TO.P,U307,2,GND*%
%TO.N,GND*%
X258750000Y-128887500D03*
%TO.P,U307,3,I/O2*%
%TO.N,/mcu/USB_CONN_D-*%
X259700000Y-128887500D03*
%TO.P,U307,4,I/O2*%
%TO.N,/mcu/USB_CMC_D-*%
X259700000Y-126612500D03*
%TO.P,U307,5,VBUS*%
%TO.N,VBUS*%
X258750000Y-126612500D03*
%TO.P,U307,6,I/O1*%
%TO.N,/mcu/USB_CMC_D+*%
X257800000Y-126612500D03*
%TD*%
D28*
%TO.P,TP401,1,1*%
%TO.N,_clk*%
X265200000Y-66200000D03*
%TD*%
D30*
%TO.P,L202,1,1*%
%TO.N,Unfiltered_5V*%
X213950000Y-103900000D03*
%TO.P,L202,2,2*%
%TO.N,blue*%
X216050000Y-103900000D03*
%TD*%
D31*
%TO.P,R305,1*%
%TO.N,/mcu/MCU_LED2-K*%
X237450000Y-110482500D03*
%TO.P,R305,2*%
%TO.N,GND*%
X237450000Y-107557500D03*
%TD*%
D11*
%TO.P,R504,1*%
%TO.N,GND*%
X229530000Y-117422500D03*
%TO.P,R504,2*%
%TO.N,white*%
X229530000Y-120347500D03*
%TD*%
D17*
%TO.P,C210,1*%
%TO.N,+3.3V*%
X230200000Y-93975000D03*
%TO.P,C210,2*%
%TO.N,GND*%
X230200000Y-97100000D03*
%TD*%
D13*
%TO.P,U305,1*%
%TO.N,/mcu/CONN_SWO*%
X278300000Y-84450000D03*
%TO.P,U305,2*%
%TO.N,GND*%
X278300000Y-82350000D03*
%TD*%
D32*
%TO.P,C301,1*%
%TO.N,/mcu/HSE_IN*%
X262620000Y-101760000D03*
%TO.P,C301,2*%
%TO.N,GND*%
X262620000Y-98635000D03*
%TD*%
D20*
%TO.P,J301,1,Pin_1*%
%TO.N,+3.3V*%
X271050000Y-79120000D03*
D21*
%TO.P,J301,2,Pin_2*%
%TO.N,GND*%
X273590000Y-79120000D03*
%TO.P,J301,3,Pin_3*%
X271050000Y-81660000D03*
%TO.P,J301,4,Pin_4*%
%TO.N,unconnected-(J301-Pin_4-Pad4)*%
X273590000Y-81660000D03*
%TO.P,J301,5,Pin_5*%
%TO.N,GND*%
X271050000Y-84200000D03*
%TO.P,J301,6,Pin_6*%
%TO.N,/mcu/CONN_NRST*%
X273590000Y-84200000D03*
%TO.P,J301,7,Pin_7*%
%TO.N,unconnected-(J301-Pin_7-Pad7)*%
X271050000Y-86740000D03*
%TO.P,J301,8,Pin_8*%
%TO.N,/mcu/CONN_SWO*%
X273590000Y-86740000D03*
%TO.P,J301,9,Pin_9*%
%TO.N,/mcu/CONN_SWCLK*%
X271050000Y-89280000D03*
%TO.P,J301,10,Pin_10*%
%TO.N,/mcu/CONN_SWDIO*%
X273590000Y-89280000D03*
%TD*%
D12*
%TO.P,R603,1*%
%TO.N,_mode*%
X275400000Y-117950000D03*
%TO.P,R603,2*%
%TO.N,+3.3V*%
X278500000Y-117950000D03*
%TD*%
D22*
%TO.P,R602,1*%
%TO.N,_config*%
X264550000Y-56300000D03*
%TO.P,R602,2*%
%TO.N,+3.3V*%
X264550000Y-59400000D03*
%TD*%
D31*
%TO.P,R303,1*%
%TO.N,/mcu/MCU_LED1-K*%
X244070000Y-110472500D03*
%TO.P,R303,2*%
%TO.N,GND*%
X244070000Y-107547500D03*
%TD*%
D33*
%TO.P,U415,1*%
%TO.N,tens*%
X221800000Y-55550000D03*
%TO.P,U415,2*%
%TO.N,GND*%
X221800000Y-57650000D03*
%TD*%
D34*
%TO.P,R507,1*%
%TO.N,GND*%
X252300000Y-115400000D03*
%TO.P,R507,2*%
%TO.N,_chB*%
X252300000Y-112300000D03*
%TD*%
D22*
%TO.P,R308,1*%
%TO.N,/mcu/CONN_SWDIO*%
X273830000Y-92330000D03*
%TO.P,R308,2*%
%TO.N,/mcu/MCU_SWDIO*%
X273830000Y-95430000D03*
%TD*%
D35*
%TO.P,Y301,1*%
%TO.N,/mcu/HSE_IN*%
X267050000Y-98435000D03*
%TO.P,Y301,2,GND*%
%TO.N,GND*%
X267050000Y-96145000D03*
%TO.P,Y301,3*%
%TO.N,/mcu/XTAL_IN*%
X265210000Y-96145000D03*
%TO.P,Y301,4,GND__1*%
%TO.N,GND*%
X265210000Y-98435000D03*
%TD*%
D36*
%TO.P,D202,1,K*%
%TO.N,/power/12V-Unfiltered*%
X205150000Y-113700000D03*
%TO.P,D202,2,A*%
%TO.N,/power/POL-FET-G*%
X208450000Y-113700000D03*
%TD*%
D32*
%TO.P,C205,1*%
%TO.N,/power/5V-Jumper*%
X205750000Y-101562500D03*
%TO.P,C205,2*%
%TO.N,GND*%
X205750000Y-98437500D03*
%TD*%
D13*
%TO.P,U412,1*%
%TO.N,a*%
X231000000Y-62100000D03*
%TO.P,U412,2*%
%TO.N,GND*%
X231000000Y-60000000D03*
%TD*%
D17*
%TO.P,C206,1*%
%TO.N,Unfiltered_5V*%
X211750000Y-102812500D03*
%TO.P,C206,2*%
%TO.N,GND*%
X211750000Y-105937500D03*
%TD*%
D24*
%TO.P,C402,1*%
%TO.N,blue*%
X222862500Y-74100000D03*
%TO.P,C402,2*%
%TO.N,GND*%
X219737500Y-74100000D03*
%TD*%
D37*
%TO.P,D205,1,K*%
%TO.N,/power/LDO2_LED_K*%
X230625000Y-91400000D03*
%TO.P,D205,2,A*%
%TO.N,+3.3V*%
X227650000Y-91400000D03*
%TD*%
D33*
%TO.P,U414,1*%
%TO.N,hundreds*%
X225600000Y-60050000D03*
%TO.P,U414,2*%
%TO.N,GND*%
X225600000Y-62150000D03*
%TD*%
D13*
%TO.P,U303,1*%
%TO.N,/mcu/CONN_SWDIO*%
X278300000Y-88750000D03*
%TO.P,U303,2*%
%TO.N,GND*%
X278300000Y-86650000D03*
%TD*%
D32*
%TO.P,C404,1*%
%TO.N,blue*%
X260000000Y-89775000D03*
%TO.P,C404,2*%
%TO.N,GND*%
X260000000Y-86650000D03*
%TD*%
D38*
%TO.P,U201,1,Vin*%
%TO.N,+12V*%
X200700000Y-101600000D03*
%TO.P,U201,2,GND*%
%TO.N,GND*%
X200700000Y-102550000D03*
%TO.P,U201,3,EN*%
%TO.N,+12V*%
X200700000Y-103500000D03*
%TO.P,U201,4,NC*%
%TO.N,unconnected-(U201-NC-Pad4)*%
X203400000Y-103500000D03*
%TO.P,U201,5,Vout*%
%TO.N,/power/5V-Jumper*%
X203400000Y-101600000D03*
%TD*%
D39*
%TO.P,U406,1,I1*%
%TO.N,/seven-segment-display/COUNT_0*%
X238545000Y-65725000D03*
%TO.P,U406,2,I2*%
%TO.N,/seven-segment-display/COUNT_1*%
X237275000Y-65725000D03*
%TO.P,U406,3,I3*%
%TO.N,/seven-segment-display/COUNT_2*%
X236005000Y-65725000D03*
%TO.P,U406,4,I4*%
%TO.N,/seven-segment-display/COUNT_3*%
X234735000Y-65725000D03*
%TO.P,U406,5,I5*%
%TO.N,unconnected-(U406-I5-Pad5)*%
X233465000Y-65725000D03*
%TO.P,U406,6,I6*%
%TO.N,unconnected-(U406-I6-Pad6)*%
X232195000Y-65725000D03*
%TO.P,U406,7,I7*%
%TO.N,unconnected-(U406-I7-Pad7)*%
X230925000Y-65725000D03*
%TO.P,U406,8,GND*%
%TO.N,GND*%
X229655000Y-65725000D03*
%TO.P,U406,9,COM*%
%TO.N,unconnected-(U406-COM-Pad9)*%
X229655000Y-70675000D03*
%TO.P,U406,10,O7*%
%TO.N,unconnected-(U406-O7-Pad10)*%
X230925000Y-70675000D03*
%TO.P,U406,11,O6*%
%TO.N,unconnected-(U406-O6-Pad11)*%
X232195000Y-70675000D03*
%TO.P,U406,12,O5*%
%TO.N,unconnected-(U406-O5-Pad12)*%
X233465000Y-70675000D03*
%TO.P,U406,13,O4*%
%TO.N,hundreds*%
X234735000Y-70675000D03*
%TO.P,U406,14,O3*%
%TO.N,tens*%
X236005000Y-70675000D03*
%TO.P,U406,15,O2*%
%TO.N,ones*%
X237275000Y-70675000D03*
%TO.P,U406,16,O1*%
%TO.N,thousands*%
X238545000Y-70675000D03*
%TD*%
D28*
%TO.P,TP206,1,1*%
%TO.N,+3.3V*%
X222900000Y-90600000D03*
%TD*%
D34*
%TO.P,R302,1*%
%TO.N,/mcu/HSE_OUT*%
X260020000Y-101770000D03*
%TO.P,R302,2*%
%TO.N,/mcu/XTAL_IN*%
X260020000Y-98670000D03*
%TD*%
D40*
%TO.P,D302,1,K*%
%TO.N,/mcu/MCU_LED2-K*%
X240100000Y-110475000D03*
%TO.P,D302,2,A*%
%TO.N,/mcu/MCU_LED2*%
X240100000Y-107500000D03*
%TD*%
D31*
%TO.P,R208,1*%
%TO.N,+3.3V*%
X241310000Y-104292500D03*
%TO.P,R208,2*%
%TO.N,_save*%
X241310000Y-101367500D03*
%TD*%
D22*
%TO.P,R307,1*%
%TO.N,GND*%
X262950000Y-125800000D03*
%TO.P,R307,2*%
%TO.N,/mcu/USB_CONN_CC2*%
X262950000Y-128900000D03*
%TD*%
D28*
%TO.P,TP203,1,1*%
%TO.N,/power/5V-Jumper*%
X208600000Y-109400000D03*
%TD*%
D33*
%TO.P,U417,1*%
%TO.N,dp*%
X237600000Y-49150000D03*
%TO.P,U417,2*%
%TO.N,GND*%
X237600000Y-51250000D03*
%TD*%
D30*
%TO.P,L201,1,1*%
%TO.N,/power/12V-Unfiltered*%
X200900000Y-108850000D03*
%TO.P,L201,2,2*%
%TO.N,+12V*%
X198800000Y-108850000D03*
%TD*%
D11*
%TO.P,R502,1*%
%TO.N,GND*%
X227030000Y-117447500D03*
%TO.P,R502,2*%
%TO.N,red*%
X227030000Y-120372500D03*
%TD*%
D32*
%TO.P,C204,1*%
%TO.N,+12V*%
X200800000Y-99262500D03*
%TO.P,C204,2*%
%TO.N,GND*%
X200800000Y-96137500D03*
%TD*%
D41*
%TO.P,U402,1,5*%
%TO.N,unconnected-(U402-5-Pad1)*%
X258200000Y-68780000D03*
%TO.P,U402,2,1*%
%TO.N,/seven-segment-display/COUNT_1*%
X258200000Y-70050000D03*
%TO.P,U402,3,0*%
%TO.N,/seven-segment-display/COUNT_0*%
X258200000Y-71320000D03*
%TO.P,U402,4,2*%
%TO.N,/seven-segment-display/COUNT_2*%
X258200000Y-72590000D03*
%TO.P,U402,5,6*%
%TO.N,unconnected-(U402-6-Pad5)*%
X258200000Y-73860000D03*
%TO.P,U402,6,7*%
%TO.N,unconnected-(U402-7-Pad6)*%
X258200000Y-75130000D03*
%TO.P,U402,7,3*%
%TO.N,/seven-segment-display/COUNT_3*%
X258200000Y-76400000D03*
%TO.P,U402,8,GND*%
%TO.N,GND*%
X258200000Y-77670000D03*
%TO.P,U402,9,8*%
%TO.N,unconnected-(U402-8-Pad9)*%
X263150000Y-77670000D03*
%TO.P,U402,10,4*%
%TO.N,/seven-segment-display/4017_RST*%
X263150000Y-76400000D03*
%TO.P,U402,11,9*%
%TO.N,unconnected-(U402-9-Pad11)*%
X263150000Y-75130000D03*
%TO.P,U402,12,TERMINAL_COUNT*%
%TO.N,/seven-segment-display/4017_TC*%
X263150000Y-73860000D03*
%TO.P,U402,13,CLOCK_ENABLE*%
%TO.N,GND*%
X263150000Y-72590000D03*
%TO.P,U402,14,CLOCK*%
%TO.N,_clk*%
X263150000Y-71320000D03*
%TO.P,U402,15,MASTER_RESET*%
%TO.N,/seven-segment-display/4017_RST*%
X263150000Y-70050000D03*
%TO.P,U402,16,Vcc*%
%TO.N,blue*%
X263150000Y-68780000D03*
%TD*%
D13*
%TO.P,U306,1*%
%TO.N,/mcu/CONN_NRST*%
X278300000Y-80250000D03*
%TO.P,U306,2*%
%TO.N,GND*%
X278300000Y-78150000D03*
%TD*%
%TO.P,U409,1*%
%TO.N,d*%
X238200000Y-62050000D03*
%TO.P,U409,2*%
%TO.N,GND*%
X238200000Y-59950000D03*
%TD*%
D42*
%TO.P,D201,1,K*%
%TO.N,/power/POL-FET-D*%
X202500000Y-116000000D03*
%TO.P,D201,2,A*%
%TO.N,/power/PowerIn-*%
X201100000Y-116000000D03*
%TD*%
D20*
%TO.P,J303,1,Pin_1*%
%TO.N,GND*%
X216900000Y-124200000D03*
D21*
%TO.P,J303,2,Pin_2*%
X216900000Y-126740000D03*
%TO.P,J303,3,Pin_3*%
X216900000Y-129280000D03*
%TO.P,J303,4,Pin_4*%
X216900000Y-131820000D03*
%TO.P,J303,5,Pin_5*%
X216900000Y-134360000D03*
%TD*%
D11*
%TO.P,R207,1*%
%TO.N,/power/LDO2_LED_K*%
X233000000Y-91137500D03*
%TO.P,R207,2*%
%TO.N,GND*%
X233000000Y-94062500D03*
%TD*%
D20*
%TO.P,JP201,1,A*%
%TO.N,/power/5V-Jumper*%
X208700000Y-106275000D03*
D21*
%TO.P,JP201,2,B*%
%TO.N,Unfiltered_5V*%
X208700000Y-103735000D03*
%TD*%
D22*
%TO.P,R301,1*%
%TO.N,/mcu/BOOT_JUMPER*%
X271810000Y-105870000D03*
%TO.P,R301,2*%
%TO.N,/mcu/BOOT0*%
X271810000Y-108970000D03*
%TD*%
D24*
%TO.P,C405,1*%
%TO.N,blue*%
X222962500Y-61200000D03*
%TO.P,C405,2*%
%TO.N,GND*%
X219837500Y-61200000D03*
%TD*%
D43*
%TO.P,U308,1,1*%
%TO.N,/mcu/USB_D-*%
X259950000Y-123650000D03*
%TO.P,U308,2,2*%
%TO.N,/mcu/USB_D+*%
X257150000Y-123650000D03*
%TO.P,U308,3,3*%
%TO.N,/mcu/USB_CMC_D+*%
X257150000Y-124650000D03*
%TO.P,U308,4,4*%
%TO.N,/mcu/USB_CMC_D-*%
X259950000Y-124650000D03*
%TD*%
D13*
%TO.P,U413,1*%
%TO.N,thousands*%
X228200000Y-62100000D03*
%TO.P,U413,2*%
%TO.N,GND*%
X228200000Y-60000000D03*
%TD*%
D20*
%TO.P,JP304,1,A*%
%TO.N,+3.3V*%
X258120000Y-80510000D03*
D21*
%TO.P,JP304,2,C*%
%TO.N,/mcu/MCU_NRST*%
X260660000Y-80510000D03*
%TO.P,JP304,3,B*%
%TO.N,GND*%
X263200000Y-80510000D03*
%TD*%
D44*
%TO.P,C307,1*%
%TO.N,+3.3V*%
X267760000Y-106482500D03*
%TO.P,C307,2*%
%TO.N,GND*%
X267760000Y-108557500D03*
%TD*%
D20*
%TO.P,JP303,1,A*%
%TO.N,/mcu/JUMPER_NRST*%
X263180000Y-86840000D03*
D21*
%TO.P,JP303,2,B*%
%TO.N,/mcu/MCU_NRST*%
X263180000Y-84300000D03*
%TD*%
D12*
%TO.P,R506,1*%
%TO.N,/cable/SCHMITT_A*%
X249350000Y-107450000D03*
%TO.P,R506,2*%
%TO.N,_chA*%
X252450000Y-107450000D03*
%TD*%
D45*
%TO.P,C305,1*%
%TO.N,+3.3V*%
X265762500Y-104200000D03*
%TO.P,C305,2*%
%TO.N,GND*%
X267837500Y-104200000D03*
%TD*%
D12*
%TO.P,R505,1*%
%TO.N,/cable/SCHMITT_B*%
X249300000Y-109950000D03*
%TO.P,R505,2*%
%TO.N,_chB*%
X252400000Y-109950000D03*
%TD*%
D41*
%TO.P,U203,1*%
%TO.N,_save*%
X244290000Y-101330000D03*
%TO.P,U203,2,-*%
%TO.N,/power/V-REF*%
X244290000Y-102600000D03*
%TO.P,U203,3,+*%
%TO.N,+3.3V*%
X244290000Y-103870000D03*
%TO.P,U203,4,V-*%
%TO.N,GND*%
X244290000Y-105140000D03*
%TO.P,U203,5,+*%
%TO.N,unconnected-(U203B-+-Pad5)*%
X249240000Y-105140000D03*
%TO.P,U203,6,-*%
%TO.N,unconnected-(U203B---Pad6)*%
X249240000Y-103870000D03*
%TO.P,U203,7*%
%TO.N,unconnected-(U203-Pad7)*%
X249240000Y-102600000D03*
%TO.P,U203,8,V+*%
%TO.N,+3.3V*%
X249240000Y-101330000D03*
%TD*%
D10*
%TO.P,R204,1*%
%TO.N,GND*%
X200537500Y-93750000D03*
%TO.P,R204,2*%
%TO.N,/power/LDO_LED_K*%
X203462500Y-93750000D03*
%TD*%
D19*
%TO.P,U401,1,1OE*%
%TO.N,_thousands*%
X213600000Y-76530000D03*
%TO.P,U401,2,1A0*%
%TO.N,_a1*%
X213600000Y-77800000D03*
%TO.P,U401,3,2Y0*%
%TO.N,/seven-segment-display/BCD_out1*%
X213600000Y-79070000D03*
%TO.P,U401,4,1A1*%
%TO.N,_a2*%
X213600000Y-80340000D03*
%TO.P,U401,5,2Y1*%
%TO.N,/seven-segment-display/BCD_out2*%
X213600000Y-81610000D03*
%TO.P,U401,6,1A2*%
%TO.N,_a3*%
X213600000Y-82880000D03*
%TO.P,U401,7,2Y2*%
%TO.N,/seven-segment-display/BCD_out3*%
X213600000Y-84150000D03*
%TO.P,U401,8,1A3*%
%TO.N,_a4*%
X213600000Y-85420000D03*
%TO.P,U401,9,2Y3*%
%TO.N,/seven-segment-display/BCD_out4*%
X213600000Y-86690000D03*
%TO.P,U401,10,GND*%
%TO.N,GND*%
X213600000Y-87960000D03*
%TO.P,U401,11,2A3*%
%TO.N,_a4*%
X222900000Y-87960000D03*
%TO.P,U401,12,1Y3*%
%TO.N,/seven-segment-display/BCD_out4*%
X222900000Y-86690000D03*
%TO.P,U401,13,2A2*%
%TO.N,_a3*%
X222900000Y-85420000D03*
%TO.P,U401,14,1Y2*%
%TO.N,/seven-segment-display/BCD_out3*%
X222900000Y-84150000D03*
%TO.P,U401,15,2A1*%
%TO.N,_a2*%
X222900000Y-82880000D03*
%TO.P,U401,16,1Y1*%
%TO.N,/seven-segment-display/BCD_out2*%
X222900000Y-81610000D03*
%TO.P,U401,17,2A0*%
%TO.N,_a1*%
X222900000Y-80340000D03*
%TO.P,U401,18,1Y0*%
%TO.N,/seven-segment-display/BCD_out1*%
X222900000Y-79070000D03*
%TO.P,U401,19,2OE*%
%TO.N,_ones*%
X222900000Y-77800000D03*
%TO.P,U401,20,VCC*%
%TO.N,blue*%
X222900000Y-76530000D03*
%TD*%
D13*
%TO.P,U411,1*%
%TO.N,b*%
X233400000Y-62100000D03*
%TO.P,U411,2*%
%TO.N,GND*%
X233400000Y-60000000D03*
%TD*%
D28*
%TO.P,TP301,1,1*%
%TO.N,/mcu/HSE_IN*%
X267500000Y-93900000D03*
%TD*%
D46*
%TO.P,C303,1*%
%TO.N,+3.3V*%
X265037500Y-101750000D03*
%TO.P,C303,2*%
%TO.N,GND*%
X268162500Y-101750000D03*
%TD*%
D27*
%TO.P,D301,1,K*%
%TO.N,/mcu/MCU_LED1-K*%
X246700000Y-107512500D03*
%TO.P,D301,2,A*%
%TO.N,/mcu/MCU_LED1*%
X246700000Y-110487500D03*
%TD*%
D33*
%TO.P,U416,1*%
%TO.N,ones*%
X234188000Y-49150000D03*
%TO.P,U416,2*%
%TO.N,GND*%
X234188000Y-51250000D03*
%TD*%
D28*
%TO.P,TP202,1,1*%
%TO.N,+12V*%
X192400000Y-112100000D03*
%TD*%
D13*
%TO.P,U407,1*%
%TO.N,f*%
X243200000Y-62050000D03*
%TO.P,U407,2*%
%TO.N,GND*%
X243200000Y-59950000D03*
%TD*%
D24*
%TO.P,C309,1*%
%TO.N,GND*%
X264862500Y-123500000D03*
%TO.P,C309,2*%
%TO.N,VBUS*%
X261737500Y-123500000D03*
%TD*%
D28*
%TO.P,TP205,1,1*%
%TO.N,_save*%
X241400000Y-99400000D03*
%TD*%
%TO.P,TP302,1,1*%
%TO.N,/mcu/HSE_OUT*%
X256500000Y-99900000D03*
%TD*%
D26*
%TO.P,C501,1*%
%TO.N,blue*%
X238600000Y-117537500D03*
%TO.P,C501,2*%
%TO.N,GND*%
X238600000Y-115462500D03*
%TD*%
D47*
%TO.P,U302,1*%
%TO.N,+3.3V*%
X271050000Y-74450000D03*
%TO.P,U302,2*%
%TO.N,GND*%
X273150000Y-74450000D03*
%TD*%
D14*
%TO.P,J602,1,Pin_1*%
%TO.N,GND*%
X270250000Y-125150000D03*
X270250000Y-130150000D03*
D15*
%TO.P,J602,2,Pin_2*%
%TO.N,_mode*%
X275250000Y-125150000D03*
X275250000Y-130150000D03*
%TD*%
D24*
%TO.P,C302,1*%
%TO.N,/mcu/XTAL_IN*%
X263022500Y-95950000D03*
%TO.P,C302,2*%
%TO.N,GND*%
X259897500Y-95950000D03*
%TD*%
%TO.P,C403,1*%
%TO.N,blue*%
X240962500Y-74400000D03*
%TO.P,C403,2*%
%TO.N,GND*%
X237837500Y-74400000D03*
%TD*%
D41*
%TO.P,U403,1*%
%TO.N,/seven-segment-display/COUNT_0*%
X218325000Y-64190000D03*
%TO.P,U403,2*%
%TO.N,_thousands*%
X218325000Y-65460000D03*
%TO.P,U403,3*%
%TO.N,/seven-segment-display/COUNT_1*%
X218325000Y-66730000D03*
%TO.P,U403,4*%
%TO.N,_ones*%
X218325000Y-68000000D03*
%TO.P,U403,5*%
%TO.N,/seven-segment-display/COUNT_2*%
X218325000Y-69270000D03*
%TO.P,U403,6*%
%TO.N,_tens*%
X218325000Y-70540000D03*
%TO.P,U403,7,GND*%
%TO.N,GND*%
X218325000Y-71810000D03*
%TO.P,U403,8*%
%TO.N,_hundreds*%
X223275000Y-71810000D03*
%TO.P,U403,9*%
%TO.N,/seven-segment-display/COUNT_3*%
X223275000Y-70540000D03*
%TO.P,U403,10*%
%TO.N,unconnected-(U403-Pad10)*%
X223275000Y-69270000D03*
%TO.P,U403,11*%
%TO.N,unconnected-(U403-Pad11)*%
X223275000Y-68000000D03*
%TO.P,U403,12*%
%TO.N,unconnected-(U403-Pad12)*%
X223275000Y-66730000D03*
%TO.P,U403,13*%
%TO.N,unconnected-(U403-Pad13)*%
X223275000Y-65460000D03*
%TO.P,U403,14,VCC*%
%TO.N,blue*%
X223275000Y-64190000D03*
%TD*%
D48*
%TO.P,C306,1*%
%TO.N,+3.3V*%
X265575000Y-116100000D03*
%TO.P,C306,2*%
%TO.N,GND*%
X263500000Y-116100000D03*
%TD*%
%TO.P,C308,1*%
%TO.N,+3.3V*%
X257905000Y-103260000D03*
%TO.P,C308,2*%
%TO.N,GND*%
X255830000Y-103260000D03*
%TD*%
D17*
%TO.P,C209,1*%
%TO.N,blue*%
X222900000Y-94037500D03*
%TO.P,C209,2*%
%TO.N,GND*%
X222900000Y-97162500D03*
%TD*%
%TO.P,C202,1*%
%TO.N,+12V*%
X196400000Y-108937500D03*
%TO.P,C202,2*%
%TO.N,GND*%
X196400000Y-112062500D03*
%TD*%
D49*
%TO.P,Q201,1,G*%
%TO.N,/power/POL-FET-G*%
X210290000Y-120625000D03*
%TO.P,Q201,2,D*%
%TO.N,/power/POL-FET-D*%
X207750000Y-120625000D03*
D50*
X210525000Y-127350000D03*
X204975000Y-127350000D03*
D51*
X207750000Y-129775000D03*
D50*
X210525000Y-132200000D03*
X204975000Y-132200000D03*
D49*
%TO.P,Q201,3,S*%
%TO.N,/power/12V-Unfiltered*%
X205210000Y-120625000D03*
%TD*%
D13*
%TO.P,U304,1*%
%TO.N,/mcu/CONN_SWCLK*%
X267300000Y-89700000D03*
%TO.P,U304,2*%
%TO.N,GND*%
X267300000Y-87600000D03*
%TD*%
D22*
%TO.P,R309,1*%
%TO.N,/mcu/CONN_SWCLK*%
X270930000Y-92330000D03*
%TO.P,R309,2*%
%TO.N,/mcu/MCU_SWCLK*%
X270930000Y-95430000D03*
%TD*%
%TO.P,R508,1*%
%TO.N,GND*%
X252230000Y-102130000D03*
%TO.P,R508,2*%
%TO.N,_chA*%
X252230000Y-105230000D03*
%TD*%
D28*
%TO.P,TP204,1,1*%
%TO.N,blue*%
X235200000Y-118000000D03*
%TD*%
D10*
%TO.P,R201,1*%
%TO.N,GND*%
X196937500Y-118500000D03*
%TO.P,R201,2*%
%TO.N,/power/PowerIn-*%
X199862500Y-118500000D03*
%TD*%
D52*
%TO.P,U301,1,VBAT*%
%TO.N,+3.3V*%
X264250000Y-105675000D03*
%TO.P,U301,2,PC13*%
%TO.N,unconnected-(U301-PC13-Pad2)*%
X263750000Y-105675000D03*
%TO.P,U301,3,PC14*%
%TO.N,/mcu/MCU_LED2*%
X263250000Y-105675000D03*
%TO.P,U301,4,PC15*%
%TO.N,unconnected-(U301-PC15-Pad4)*%
X262750000Y-105675000D03*
%TO.P,U301,5,PD0*%
%TO.N,/mcu/HSE_IN*%
X262250000Y-105675000D03*
%TO.P,U301,6,PD1*%
%TO.N,/mcu/HSE_OUT*%
X261750000Y-105675000D03*
%TO.P,U301,7,NRST*%
%TO.N,/mcu/MCU_NRST*%
X261250000Y-105675000D03*
%TO.P,U301,8,VSSA*%
%TO.N,GND*%
X260750000Y-105675000D03*
%TO.P,U301,9,VDDA*%
%TO.N,+3.3V*%
X260250000Y-105675000D03*
%TO.P,U301,10,PA0*%
%TO.N,unconnected-(U301-PA0-Pad10)*%
X259750000Y-105675000D03*
%TO.P,U301,11,PA1*%
%TO.N,unconnected-(U301-PA1-Pad11)*%
X259250000Y-105675000D03*
%TO.P,U301,12,PA2*%
%TO.N,_chA*%
X258750000Y-105675000D03*
D53*
%TO.P,U301,13,PA3*%
%TO.N,_chB*%
X257337500Y-107087500D03*
%TO.P,U301,14,PA4*%
%TO.N,unconnected-(U301-PA4-Pad14)*%
X257337500Y-107587500D03*
%TO.P,U301,15,PA5*%
%TO.N,unconnected-(U301-PA5-Pad15)*%
X257337500Y-108087500D03*
%TO.P,U301,16,PA6*%
%TO.N,unconnected-(U301-PA6-Pad16)*%
X257337500Y-108587500D03*
%TO.P,U301,17,PA7*%
%TO.N,unconnected-(U301-PA7-Pad17)*%
X257337500Y-109087500D03*
%TO.P,U301,18,PB0*%
%TO.N,_zero*%
X257337500Y-109587500D03*
%TO.P,U301,19,PB1*%
%TO.N,_config*%
X257337500Y-110087500D03*
%TO.P,U301,20,PB2*%
%TO.N,_mode*%
X257337500Y-110587500D03*
%TO.P,U301,21,PB10*%
%TO.N,unconnected-(U301-PB10-Pad21)*%
X257337500Y-111087500D03*
%TO.P,U301,22,PB11*%
%TO.N,_dpBoard*%
X257337500Y-111587500D03*
%TO.P,U301,23,VSS*%
%TO.N,GND*%
X257337500Y-112087500D03*
%TO.P,U301,24,VDD*%
%TO.N,+3.3V*%
X257337500Y-112587500D03*
D52*
%TO.P,U301,25,PB12*%
%TO.N,_ones*%
X258750000Y-114000000D03*
%TO.P,U301,26,PB13*%
%TO.N,_tens*%
X259250000Y-114000000D03*
%TO.P,U301,27,PB14*%
%TO.N,_hundreds*%
X259750000Y-114000000D03*
%TO.P,U301,28,PB15*%
%TO.N,_thousands*%
X260250000Y-114000000D03*
%TO.P,U301,29,PA8*%
%TO.N,unconnected-(U301-PA8-Pad29)*%
X260750000Y-114000000D03*
%TO.P,U301,30,PA9*%
%TO.N,_clk*%
X261250000Y-114000000D03*
%TO.P,U301,31,PA10*%
%TO.N,unconnected-(U301-PA10-Pad31)*%
X261750000Y-114000000D03*
%TO.P,U301,32,PA11*%
%TO.N,/mcu/USB_D-*%
X262250000Y-114000000D03*
%TO.P,U301,33,PA12*%
%TO.N,/mcu/USB_D+*%
X262750000Y-114000000D03*
%TO.P,U301,34,PA13*%
%TO.N,/mcu/MCU_SWDIO*%
X263250000Y-114000000D03*
%TO.P,U301,35,VSS*%
%TO.N,GND*%
X263750000Y-114000000D03*
%TO.P,U301,36,VDD*%
%TO.N,+3.3V*%
X264250000Y-114000000D03*
D53*
%TO.P,U301,37,PA14*%
%TO.N,/mcu/MCU_SWCLK*%
X265662500Y-112587500D03*
%TO.P,U301,38,PA15*%
%TO.N,_save*%
X265662500Y-112087500D03*
%TO.P,U301,39,PB3*%
%TO.N,/mcu/MCU_SWO*%
X265662500Y-111587500D03*
%TO.P,U301,40,PB4*%
%TO.N,_a1*%
X265662500Y-111087500D03*
%TO.P,U301,41,PB5*%
%TO.N,_a2*%
X265662500Y-110587500D03*
%TO.P,U301,42,PB6*%
%TO.N,_a3*%
X265662500Y-110087500D03*
%TO.P,U301,43,PB7*%
%TO.N,_a4*%
X265662500Y-109587500D03*
%TO.P,U301,44,BOOT0*%
%TO.N,/mcu/BOOT0*%
X265662500Y-109087500D03*
%TO.P,U301,45,PB8*%
%TO.N,/mcu/MCU_LED1*%
X265662500Y-108587500D03*
%TO.P,U301,46,PB9*%
%TO.N,unconnected-(U301-PB9-Pad46)*%
X265662500Y-108087500D03*
%TO.P,U301,47,VSS*%
%TO.N,GND*%
X265662500Y-107587500D03*
%TO.P,U301,48,VDD*%
%TO.N,+3.3V*%
X265662500Y-107087500D03*
%TD*%
D54*
%TO.P,C203,1*%
%TO.N,+12V*%
X192750000Y-103150000D03*
%TO.P,C203,2*%
%TO.N,GND*%
X192750000Y-94450000D03*
%TD*%
D14*
%TO.P,J603,1,Pin_1*%
%TO.N,GND*%
X275650000Y-61300000D03*
X275650000Y-56300000D03*
D15*
%TO.P,J603,2,Pin_2*%
%TO.N,_config*%
X270650000Y-61300000D03*
X270650000Y-56300000D03*
%TD*%
D33*
%TO.P,U418,1*%
%TO.N,g*%
X240000000Y-49150000D03*
%TO.P,U418,2*%
%TO.N,GND*%
X240000000Y-51250000D03*
%TD*%
D20*
%TO.P,JP301,1,A*%
%TO.N,GND*%
X274840000Y-98500000D03*
D21*
%TO.P,JP301,2,C*%
%TO.N,/mcu/BOOT_JUMPER*%
X272300000Y-98500000D03*
%TO.P,JP301,3,B*%
%TO.N,+3.3V*%
X269760000Y-98500000D03*
%TD*%
D13*
%TO.P,U410,1*%
%TO.N,c*%
X235800000Y-62100000D03*
%TO.P,U410,2*%
%TO.N,GND*%
X235800000Y-60000000D03*
%TD*%
D48*
%TO.P,C212,1*%
%TO.N,GND*%
X252175000Y-99000000D03*
%TO.P,C212,2*%
%TO.N,+3.3V*%
X250100000Y-99000000D03*
%TD*%
D22*
%TO.P,R306,1*%
%TO.N,GND*%
X254800000Y-125800000D03*
%TO.P,R306,2*%
%TO.N,/mcu/USB_CONN_CC1*%
X254800000Y-128900000D03*
%TD*%
D55*
%TO.P,C211,1*%
%TO.N,+3.3V*%
X196772169Y-79570000D03*
D56*
%TO.P,C211,2*%
%TO.N,GND*%
X201772169Y-79570000D03*
%TD*%
D57*
%TO.P,U501,1*%
%TO.N,black*%
X240450000Y-118920000D03*
%TO.P,U501,2*%
%TO.N,/cable/SCHMITT_B*%
X241720000Y-118920000D03*
%TO.P,U501,3*%
%TO.N,yellow*%
X242990000Y-118920000D03*
%TO.P,U501,4*%
%TO.N,/cable/SCHMITT_A*%
X244260000Y-118920000D03*
%TO.P,U501,5*%
%TO.N,unconnected-(U501-Pad5)*%
X245530000Y-118920000D03*
%TO.P,U501,6*%
%TO.N,unconnected-(U501-Pad6)*%
X246800000Y-118920000D03*
%TO.P,U501,7,GND*%
%TO.N,GND*%
X248070000Y-118920000D03*
%TO.P,U501,8*%
%TO.N,unconnected-(U501-Pad8)*%
X248070000Y-113970000D03*
%TO.P,U501,9*%
%TO.N,unconnected-(U501-Pad9)*%
X246800000Y-113970000D03*
%TO.P,U501,10*%
%TO.N,unconnected-(U501-Pad10)*%
X245530000Y-113970000D03*
%TO.P,U501,11*%
%TO.N,unconnected-(U501-Pad11)*%
X244260000Y-113970000D03*
%TO.P,U501,12*%
%TO.N,unconnected-(U501-Pad12)*%
X242990000Y-113970000D03*
%TO.P,U501,13*%
%TO.N,unconnected-(U501-Pad13)*%
X241720000Y-113970000D03*
%TO.P,U501,14,VCC*%
%TO.N,blue*%
X240450000Y-113970000D03*
%TD*%
D20*
%TO.P,JP302,1,A*%
%TO.N,Unfiltered_5V*%
X253750000Y-120250000D03*
D21*
%TO.P,JP302,2,B*%
%TO.N,VBUS*%
X253750000Y-122790000D03*
%TD*%
D26*
%TO.P,C201,1*%
%TO.N,/power/12V-Unfiltered*%
X203300000Y-108337500D03*
%TO.P,C201,2*%
%TO.N,GND*%
X203300000Y-106262500D03*
%TD*%
D58*
%TO.P,J302,A1,GND*%
%TO.N,GND*%
X255750000Y-131200000D03*
%TO.P,J302,A2*%
%TO.N,N/C*%
X256250000Y-131200000D03*
%TO.P,J302,A3*%
X256750000Y-131200000D03*
%TO.P,J302,A4,VBUS*%
%TO.N,VBUS*%
X257250000Y-131200000D03*
%TO.P,J302,A5,CC1*%
%TO.N,/mcu/USB_CONN_CC1*%
X257750000Y-131200000D03*
%TO.P,J302,A6,D+*%
%TO.N,/mcu/USB_CONN_D+*%
X258250000Y-131200000D03*
%TO.P,J302,A7,D-*%
%TO.N,/mcu/USB_CONN_D-*%
X259250000Y-131200000D03*
%TO.P,J302,A8,SBU1*%
%TO.N,unconnected-(J302-SBU1-PadA8)*%
X259750000Y-131200000D03*
%TO.P,J302,A9,VBUS*%
%TO.N,VBUS*%
X260250000Y-131200000D03*
%TO.P,J302,A10*%
%TO.N,N/C*%
X260750000Y-131200000D03*
%TO.P,J302,A11*%
X261250000Y-131200000D03*
%TO.P,J302,A12,GND*%
%TO.N,GND*%
X261750000Y-131200000D03*
D59*
%TO.P,J302,B1,GND*%
X261850000Y-132500000D03*
D58*
%TO.P,J302,B2*%
%TO.N,N/C*%
X261000000Y-132500000D03*
%TO.P,J302,B3*%
X260500000Y-132500000D03*
%TO.P,J302,B4,VBUS*%
%TO.N,VBUS*%
X260000000Y-132500000D03*
%TO.P,J302,B5,CC2*%
%TO.N,/mcu/USB_CONN_CC2*%
X259500000Y-132500000D03*
%TO.P,J302,B6,D+*%
%TO.N,/mcu/USB_CONN_D+*%
X259000000Y-132500000D03*
%TO.P,J302,B7,D-*%
%TO.N,/mcu/USB_CONN_D-*%
X258500000Y-132500000D03*
%TO.P,J302,B8,SBU2*%
%TO.N,unconnected-(J302-SBU2-PadB8)*%
X258000000Y-132500000D03*
%TO.P,J302,B9,VBUS*%
%TO.N,VBUS*%
X257500000Y-132500000D03*
%TO.P,J302,B10*%
%TO.N,N/C*%
X257000000Y-132500000D03*
%TO.P,J302,B11*%
X256500000Y-132500000D03*
D59*
%TO.P,J302,B12,GND*%
%TO.N,GND*%
X255650000Y-132500000D03*
D60*
%TO.P,J302,S1,SHIELD*%
%TO.N,unconnected-(J302-SHIELD-PadS1)*%
X254430000Y-131610000D03*
D61*
X254430000Y-136970000D03*
D60*
X263070000Y-131610000D03*
D61*
X263070000Y-136970000D03*
%TD*%
D28*
%TO.P,TP201,1,1*%
%TO.N,/power/12V-Unfiltered*%
X204200000Y-116900000D03*
%TD*%
D10*
%TO.P,R203,1*%
%TO.N,GND*%
X194787500Y-114700000D03*
%TO.P,R203,2*%
%TO.N,/power/12V-Unfiltered__LED_K*%
X197712500Y-114700000D03*
%TD*%
D62*
%TO.N,/mcu/MCU_LED2*%
X259890000Y-107120000D03*
D63*
X251220000Y-106800000D03*
X259029295Y-104394959D03*
D62*
%TO.N,GND*%
X189055000Y-98475000D03*
X252555000Y-60375000D03*
X191595000Y-85775000D03*
X194135000Y-55295000D03*
X253500000Y-98700000D03*
D63*
X265100000Y-121500000D03*
D62*
X252555000Y-134035000D03*
X275415000Y-78155000D03*
X227155000Y-98475000D03*
X209375000Y-67995000D03*
X209375000Y-78155000D03*
X191595000Y-118795000D03*
X232235000Y-106095000D03*
X199215000Y-62915000D03*
X211915000Y-52755000D03*
X267795000Y-134035000D03*
X268400000Y-131200000D03*
X191595000Y-67995000D03*
X201755000Y-70535000D03*
X260175000Y-60375000D03*
X238100000Y-113800000D03*
X262715000Y-55295000D03*
X211915000Y-123875000D03*
X277955000Y-134035000D03*
X194135000Y-88315000D03*
X255095000Y-60375000D03*
D63*
X252800000Y-126100000D03*
D62*
X199215000Y-128955000D03*
X199215000Y-131495000D03*
X233800000Y-95600000D03*
X255095000Y-57835000D03*
X219000000Y-111200000D03*
X189055000Y-116255000D03*
X211915000Y-70535000D03*
X189055000Y-65455000D03*
X199215000Y-70535000D03*
X222075000Y-123875000D03*
D63*
X254300000Y-133700000D03*
X228750000Y-116000000D03*
D62*
X201755000Y-55295000D03*
X191595000Y-75615000D03*
X250015000Y-52755000D03*
X216995000Y-62915000D03*
X194135000Y-75615000D03*
X201755000Y-57835000D03*
X250015000Y-123875000D03*
X194135000Y-98475000D03*
D63*
X258000000Y-89600000D03*
X205250000Y-96750000D03*
D62*
X194135000Y-70535000D03*
X214455000Y-128955000D03*
X189055000Y-55295000D03*
X194135000Y-60375000D03*
X189055000Y-85775000D03*
X211915000Y-98475000D03*
X275415000Y-52755000D03*
X209375000Y-70535000D03*
X218200000Y-74600000D03*
X277955000Y-131495000D03*
X216995000Y-57835000D03*
X196675000Y-88315000D03*
X191595000Y-52755000D03*
X270335000Y-67995000D03*
X272875000Y-57835000D03*
X191595000Y-80695000D03*
X234775000Y-108635000D03*
X244935000Y-134035000D03*
X219535000Y-57835000D03*
X204295000Y-55295000D03*
X250015000Y-128955000D03*
X211915000Y-60375000D03*
X257635000Y-57835000D03*
D63*
X230200000Y-98600000D03*
D62*
X265255000Y-52755000D03*
D63*
X226850000Y-94650000D03*
D62*
X255095000Y-98475000D03*
X214455000Y-123875000D03*
X189055000Y-75615000D03*
X252555000Y-78155000D03*
D64*
X244800000Y-106200000D03*
D62*
X201755000Y-60375000D03*
X204295000Y-52755000D03*
X196675000Y-83235000D03*
X260175000Y-62915000D03*
X260600000Y-94400000D03*
X206835000Y-67995000D03*
X224615000Y-113715000D03*
X255095000Y-67995000D03*
X189055000Y-90855000D03*
X224615000Y-123875000D03*
X270335000Y-73075000D03*
X250015000Y-62915000D03*
X189055000Y-70535000D03*
X222075000Y-126415000D03*
X209375000Y-101015000D03*
X272875000Y-134035000D03*
X229800000Y-59000000D03*
X275415000Y-75615000D03*
X260171646Y-103028354D03*
X206835000Y-75615000D03*
X237000000Y-106300000D03*
X234775000Y-90855000D03*
X267795000Y-128955000D03*
X209375000Y-75615000D03*
D63*
X191100000Y-92500000D03*
D62*
X277955000Y-128955000D03*
D63*
X279000000Y-77000000D03*
D62*
X267795000Y-62915000D03*
X194135000Y-73075000D03*
X277955000Y-73075000D03*
D63*
X222900000Y-98700000D03*
D62*
X209375000Y-98475000D03*
X275415000Y-134035000D03*
X214455000Y-131495000D03*
X189055000Y-88315000D03*
X277955000Y-52755000D03*
X236050000Y-52300000D03*
X277955000Y-70535000D03*
X196675000Y-95935000D03*
X265255000Y-131495000D03*
X194135000Y-62915000D03*
X262715000Y-52755000D03*
X255095000Y-52755000D03*
X199215000Y-73075000D03*
X229695000Y-101015000D03*
D63*
X202100000Y-102500000D03*
D62*
X229695000Y-123875000D03*
X270335000Y-118795000D03*
X194135000Y-85775000D03*
X214455000Y-62915000D03*
X275415000Y-90855000D03*
D64*
X274115124Y-97160856D03*
D62*
X260175000Y-83235000D03*
X238800000Y-60800000D03*
X247475000Y-55295000D03*
X272875000Y-70535000D03*
X189055000Y-62915000D03*
X209375000Y-57835000D03*
X259800000Y-85000000D03*
X216995000Y-60375000D03*
X277955000Y-121335000D03*
X267795000Y-52755000D03*
X244935000Y-123875000D03*
X229695000Y-131495000D03*
X275415000Y-70535000D03*
X234400000Y-87778815D03*
X257635000Y-55295000D03*
X189055000Y-73075000D03*
X193400000Y-115200000D03*
X272875000Y-128955000D03*
X189055000Y-57835000D03*
X191595000Y-121335000D03*
D63*
X211750000Y-107500000D03*
D62*
X189055000Y-80695000D03*
X214455000Y-57835000D03*
X214455000Y-126415000D03*
D63*
X264180000Y-99320500D03*
D62*
X250015000Y-126415000D03*
X277955000Y-57835000D03*
D63*
X222900000Y-97162500D03*
D62*
X257635000Y-52755000D03*
D63*
X199000000Y-95250000D03*
D62*
X221000000Y-63000000D03*
X211915000Y-121335000D03*
X234775000Y-106095000D03*
X189055000Y-83235000D03*
X201755000Y-62915000D03*
X211915000Y-101015000D03*
X270335000Y-134035000D03*
X265255000Y-62915000D03*
X206835000Y-52755000D03*
X277955000Y-62915000D03*
X232235000Y-101015000D03*
X267795000Y-121335000D03*
D63*
X214400000Y-114700000D03*
D62*
X211915000Y-57835000D03*
X222075000Y-113715000D03*
X267795000Y-60375000D03*
X206835000Y-60375000D03*
X247475000Y-123875000D03*
X265255000Y-57835000D03*
X229695000Y-128955000D03*
X239855000Y-134035000D03*
X209375000Y-62915000D03*
X277955000Y-126415000D03*
X272875000Y-123875000D03*
D63*
X267000000Y-86600000D03*
D62*
X206835000Y-80695000D03*
D63*
X226250000Y-116000000D03*
D62*
X194135000Y-67995000D03*
X214455000Y-52755000D03*
X209375000Y-123875000D03*
X209375000Y-73075000D03*
X211915000Y-111175000D03*
X250015000Y-131495000D03*
X196675000Y-90855000D03*
X209375000Y-52755000D03*
X232235000Y-98475000D03*
X199215000Y-75615000D03*
D63*
X206800000Y-93800000D03*
D62*
X191595000Y-90855000D03*
X196675000Y-52755000D03*
D63*
X278950000Y-85450000D03*
D62*
X252555000Y-62915000D03*
X260175000Y-52755000D03*
X214455000Y-55295000D03*
X224615000Y-128955000D03*
X199215000Y-90855000D03*
D63*
X223000000Y-116250000D03*
D62*
X211915000Y-65455000D03*
X199215000Y-85775000D03*
X275415000Y-67995000D03*
X260000000Y-64400000D03*
X191595000Y-83235000D03*
X191595000Y-73075000D03*
X206835000Y-78155000D03*
D63*
X263400000Y-133650000D03*
D62*
X211915000Y-113715000D03*
D63*
X249500000Y-118500000D03*
D62*
X191595000Y-78155000D03*
X227155000Y-101015000D03*
X219535000Y-131495000D03*
X209375000Y-65455000D03*
X189055000Y-60375000D03*
X189055000Y-126415000D03*
X254400000Y-111200000D03*
X209375000Y-55295000D03*
D64*
X269233875Y-105040719D03*
D62*
X199215000Y-52755000D03*
X244935000Y-126415000D03*
X211915000Y-55295000D03*
X267795000Y-118795000D03*
X255200000Y-101000000D03*
X277955000Y-65455000D03*
X277955000Y-55295000D03*
X204295000Y-57835000D03*
X191595000Y-70535000D03*
X252555000Y-57835000D03*
X255095000Y-62915000D03*
X206835000Y-62915000D03*
X252555000Y-131495000D03*
X239200000Y-73800000D03*
X206835000Y-57835000D03*
X199215000Y-55295000D03*
X209375000Y-83235000D03*
X272875000Y-131495000D03*
X252555000Y-55295000D03*
X270335000Y-65455000D03*
X250015000Y-134035000D03*
D63*
X264862500Y-126150000D03*
D62*
X237315000Y-95935000D03*
X234775000Y-126415000D03*
X196675000Y-85775000D03*
D63*
X201000000Y-91750000D03*
X221400000Y-58900000D03*
X217300000Y-107400000D03*
D62*
X262715000Y-57835000D03*
X189055000Y-134035000D03*
D63*
X233500000Y-117500000D03*
D62*
X272875000Y-55295000D03*
X206835000Y-70535000D03*
X272875000Y-60375000D03*
X234775000Y-111175000D03*
X211915000Y-73075000D03*
D63*
X263610000Y-97470000D03*
D62*
X257635000Y-118795000D03*
X237315000Y-101015000D03*
X247475000Y-62915000D03*
X209375000Y-80695000D03*
X199215000Y-60375000D03*
X189055000Y-131495000D03*
X260175000Y-57835000D03*
D63*
X228100000Y-65400000D03*
D62*
X189055000Y-93395000D03*
X224615000Y-98475000D03*
D64*
X200800000Y-76400000D03*
D62*
X267795000Y-57835000D03*
X250015000Y-55295000D03*
X209375000Y-93395000D03*
D63*
X268140000Y-95280000D03*
D62*
X270335000Y-70535000D03*
X224615000Y-126415000D03*
X214455000Y-134035000D03*
X211915000Y-67995000D03*
X272875000Y-65455000D03*
X206835000Y-73075000D03*
X264950000Y-72650000D03*
X219535000Y-52755000D03*
X227200000Y-59000000D03*
X262715000Y-121335000D03*
X272875000Y-52755000D03*
X214455000Y-60375000D03*
D63*
X279166972Y-81316972D03*
D62*
X201755000Y-88315000D03*
X265255000Y-128955000D03*
X267795000Y-65455000D03*
X194135000Y-121335000D03*
X255095000Y-78155000D03*
X260175000Y-55295000D03*
X255095000Y-55295000D03*
D64*
X242649500Y-106000000D03*
D62*
X277955000Y-123875000D03*
X222075000Y-134035000D03*
X224615000Y-106095000D03*
X262900000Y-117400000D03*
X252555000Y-67995000D03*
X270335000Y-52755000D03*
X194135000Y-83235000D03*
X275415000Y-73075000D03*
X257635000Y-62915000D03*
X206835000Y-55295000D03*
X250015000Y-57835000D03*
X189055000Y-123875000D03*
X191595000Y-113715000D03*
X247475000Y-57835000D03*
D63*
X201400000Y-105700000D03*
D62*
X211915000Y-62915000D03*
D64*
X219400000Y-134400000D03*
D62*
X272875000Y-73075000D03*
X209375000Y-111175000D03*
X195800000Y-118600000D03*
X239855000Y-131495000D03*
X257635000Y-60375000D03*
X268200000Y-123600000D03*
X189055000Y-113715000D03*
X272875000Y-121335000D03*
X201755000Y-52755000D03*
X216600000Y-73000000D03*
X204295000Y-60375000D03*
D63*
X273400000Y-76000000D03*
D62*
X244935000Y-75615000D03*
X194135000Y-90855000D03*
X250015000Y-60375000D03*
D63*
X256100000Y-101600000D03*
D62*
X199215000Y-57835000D03*
X244000000Y-58800000D03*
X239855000Y-95935000D03*
X189055000Y-78155000D03*
X191595000Y-88315000D03*
X247475000Y-60375000D03*
X269300000Y-108300000D03*
X199215000Y-88315000D03*
X236300000Y-50450000D03*
X259050000Y-129850000D03*
X201755000Y-73075000D03*
X189055000Y-52755000D03*
X189055000Y-121335000D03*
X239000000Y-50400000D03*
X234775000Y-128955000D03*
D63*
X194800000Y-113000000D03*
D62*
X217400000Y-87000000D03*
X278300000Y-107700000D03*
X247475000Y-52755000D03*
X270335000Y-121335000D03*
X227155000Y-113715000D03*
X265800000Y-105600000D03*
D63*
X269500000Y-102800000D03*
D62*
X244935000Y-78155000D03*
X224300000Y-62200000D03*
X189055000Y-118795000D03*
X196675000Y-93395000D03*
X214455000Y-95935000D03*
X189055000Y-67995000D03*
X194135000Y-57835000D03*
X189055000Y-95935000D03*
X191595000Y-98475000D03*
X204295000Y-90855000D03*
X219535000Y-55295000D03*
X247475000Y-103555000D03*
X216995000Y-55295000D03*
X262715000Y-60375000D03*
X262715000Y-62915000D03*
D63*
X252600000Y-117100000D03*
D62*
X216995000Y-52755000D03*
X272875000Y-67995000D03*
X240400000Y-58800000D03*
X236200000Y-59000000D03*
X220355000Y-70755000D03*
X265255000Y-134035000D03*
X189055000Y-128955000D03*
X224615000Y-111175000D03*
X194135000Y-118795000D03*
X209375000Y-60375000D03*
X214455000Y-101015000D03*
X234775000Y-123875000D03*
X252555000Y-52755000D03*
X252555000Y-128955000D03*
X272875000Y-118795000D03*
X229695000Y-126415000D03*
X194135000Y-52755000D03*
X191595000Y-116255000D03*
X233000000Y-58800000D03*
D63*
%TO.N,VBUS*%
X261000000Y-121750000D03*
D62*
X258400000Y-122200000D03*
%TO.N,blue*%
X220000000Y-66000000D03*
X228000000Y-74400000D03*
X224400000Y-74600000D03*
%TO.N,+3.3V*%
X217400000Y-92000000D03*
D63*
X266610000Y-100230000D03*
D62*
X266200000Y-59200000D03*
D64*
X257575000Y-98500000D03*
D62*
X264300000Y-103900000D03*
X211096192Y-92303808D03*
D63*
X247400000Y-98000000D03*
X232400000Y-96200000D03*
D62*
X267400000Y-116100000D03*
D63*
X266060000Y-106470000D03*
X238400000Y-104200000D03*
D62*
X268800000Y-105800000D03*
D63*
X241800000Y-110600000D03*
D62*
X205000000Y-64200000D03*
D63*
X251600000Y-114000000D03*
D62*
X276024500Y-107100000D03*
X225200000Y-92000000D03*
X277200000Y-115800000D03*
X261600000Y-107825000D03*
%TO.N,/mcu/HSE_IN*%
X263700000Y-100020000D03*
%TO.N,ones*%
X245400000Y-54600000D03*
X245400000Y-65600000D03*
%TO.N,tens*%
X227200000Y-72800000D03*
X223200000Y-55400000D03*
%TO.N,hundreds*%
X226800000Y-66200000D03*
X226400000Y-60400000D03*
%TO.N,thousands*%
X238000000Y-69400000D03*
X236534098Y-62812587D03*
%TO.N,_zero*%
X201000000Y-65850000D03*
X255000000Y-109600000D03*
%TO.N,_mode*%
X257800000Y-116200000D03*
%TO.N,_config*%
X280600000Y-109000000D03*
X260721138Y-112788000D03*
X266600000Y-114621185D03*
D63*
%TO.N,_save*%
X248921878Y-99830216D03*
D62*
X259598435Y-111118389D03*
%TO.N,/mcu/HSE_OUT*%
X259600000Y-100400000D03*
%TO.N,/mcu/MCU_SWO*%
X276300000Y-95800000D03*
X275201651Y-104222129D03*
%TO.N,_clk*%
X265050000Y-70400000D03*
X261786458Y-112375500D03*
%TO.N,/mcu/USB_D-*%
X260000000Y-117761918D03*
X260000000Y-120500000D03*
%TO.N,_a1*%
X233400000Y-77850000D03*
X226000000Y-79978815D03*
X260800000Y-111200000D03*
X252600000Y-80400000D03*
%TO.N,_a2*%
X257639245Y-106160755D03*
X229400000Y-80600000D03*
X241793255Y-83006745D03*
X221000000Y-80988815D03*
X221200000Y-82800000D03*
X241284945Y-90400000D03*
X243554315Y-90400000D03*
%TO.N,_a3*%
X226200000Y-83000000D03*
X229200000Y-83000000D03*
X259400000Y-108600000D03*
X242800000Y-85800000D03*
%TO.N,_a4*%
X229400000Y-85800000D03*
X238200000Y-88200000D03*
X225400000Y-88400000D03*
X242000000Y-88000000D03*
X259122394Y-107469026D03*
%TO.N,/mcu/USB_CONN_D-*%
X258500000Y-133200000D03*
X259600000Y-130400000D03*
%TO.N,_thousands*%
X253800000Y-115293870D03*
X210400000Y-89600000D03*
%TO.N,/seven-segment-display/BCD_out1*%
X224800000Y-79200000D03*
X228800000Y-79200000D03*
X217400000Y-79800000D03*
%TO.N,/seven-segment-display/BCD_out2*%
X256000000Y-96400000D03*
X236000000Y-81800000D03*
X248800000Y-94495500D03*
X224800000Y-81800000D03*
X228200000Y-81800000D03*
%TO.N,/seven-segment-display/BCD_out3*%
X242400000Y-84200000D03*
X219600000Y-84400000D03*
X228600000Y-84000000D03*
X244175500Y-91600000D03*
X225000000Y-84400000D03*
X235800000Y-84200000D03*
%TO.N,/seven-segment-display/BCD_out4*%
X225200000Y-86800000D03*
X238800000Y-86600000D03*
X253200000Y-90600000D03*
X229000000Y-86800000D03*
X215800000Y-86400000D03*
X246800000Y-89800000D03*
X233200000Y-86200000D03*
%TO.N,_ones*%
X256200000Y-114800000D03*
X224485201Y-78114799D03*
%TO.N,/seven-segment-display/COUNT_1*%
X237600000Y-67000000D03*
X244000000Y-70400000D03*
X221724500Y-66000000D03*
X225600000Y-64164500D03*
%TO.N,/seven-segment-display/COUNT_0*%
X225050000Y-63100000D03*
X222250000Y-63000000D03*
%TO.N,/seven-segment-display/COUNT_2*%
X233000000Y-69000000D03*
X245560755Y-71839245D03*
X237600000Y-67800000D03*
X219600000Y-69200000D03*
X225000000Y-71400000D03*
X235357130Y-67800000D03*
%TO.N,/seven-segment-display/COUNT_3*%
X232378255Y-68221745D03*
X239000000Y-67800000D03*
X234000000Y-67200000D03*
X242200000Y-69800000D03*
%TO.N,_tens*%
X216600000Y-71200000D03*
X255400000Y-115200000D03*
X232800000Y-76578815D03*
%TO.N,_hundreds*%
X233400000Y-75297157D03*
X259378307Y-112361259D03*
%TO.N,e*%
X249800000Y-84200000D03*
X241200000Y-63200000D03*
%TO.N,d*%
X239800000Y-63000000D03*
X248400000Y-84200000D03*
%TO.N,c*%
X236600000Y-62000000D03*
X247600000Y-84400000D03*
%TO.N,b*%
X246800000Y-84400000D03*
X234600000Y-62125500D03*
%TO.N,a*%
X232200000Y-62125500D03*
X245600000Y-84400000D03*
%TO.N,g*%
X249200000Y-91600000D03*
%TO.N,f*%
X244600000Y-62200000D03*
X252600000Y-93400000D03*
D63*
%TO.N,/mcu/BOOT_JUMPER*%
X273400000Y-105540000D03*
X271099500Y-101500000D03*
%TO.N,Unfiltered_5V*%
X214000000Y-106500000D03*
D62*
%TO.N,/mcu/MCU_LED1*%
X257442870Y-113212000D03*
X262600000Y-108966315D03*
X253800000Y-114200000D03*
X247200000Y-112000000D03*
%TO.N,/mcu/MCU_LED2*%
X240300000Y-108800000D03*
%TO.N,/mcu/JUMPER_NRST*%
X268819292Y-103265233D03*
X274874500Y-101012341D03*
%TO.N,/mcu/MCU_NRST*%
X262200000Y-107200000D03*
%TD*%
D65*
%TO.N,/mcu/MCU_LED2*%
X259029295Y-104394959D02*
X258984740Y-104350404D01*
X258984740Y-104350404D02*
X253223934Y-104350404D01*
X251005000Y-104581470D02*
X251005000Y-106585000D01*
X253223934Y-104350404D02*
X253103530Y-104230000D01*
X253103530Y-104230000D02*
X251356470Y-104230000D01*
X251356470Y-104230000D02*
X251005000Y-104581470D01*
X251005000Y-106585000D02*
X251220000Y-106800000D01*
X261220000Y-108450000D02*
X259890000Y-107120000D01*
X261858884Y-108450000D02*
X261220000Y-108450000D01*
X263250000Y-107058884D02*
X261858884Y-108450000D01*
X263250000Y-105675000D02*
X263250000Y-107058884D01*
%TO.N,_chB*%
X257337500Y-107087500D02*
X255588897Y-107087500D01*
X255588897Y-107087500D02*
X254322582Y-108353815D01*
X254322582Y-108353815D02*
X254322582Y-109357418D01*
X254322582Y-109357418D02*
X253730000Y-109950000D01*
X253730000Y-109950000D02*
X252400000Y-109950000D01*
D66*
%TO.N,/power/12V-Unfiltered*%
X204400000Y-116900000D02*
X204400000Y-119815000D01*
X204400000Y-119815000D02*
X205210000Y-120625000D01*
%TO.N,GND*%
X229530000Y-117422500D02*
X229530000Y-116780000D01*
X218325000Y-71810000D02*
X219300000Y-71810000D01*
X264862500Y-121737500D02*
X265100000Y-121500000D01*
X193050000Y-94450000D02*
X191100000Y-92500000D01*
X244070000Y-106930000D02*
X244800000Y-106200000D01*
X196400000Y-112062500D02*
X195737500Y-112062500D01*
X279000000Y-77000000D02*
X279000000Y-77450000D01*
D67*
X263750000Y-115717500D02*
X263832500Y-115800000D01*
D66*
X264862500Y-123500000D02*
X264862500Y-121737500D01*
D67*
X240600000Y-59000000D02*
X240400000Y-58800000D01*
D66*
X278950000Y-85450000D02*
X278950000Y-86000000D01*
D65*
X264950000Y-72650000D02*
X264890000Y-72590000D01*
D67*
X263750000Y-114000000D02*
X263750000Y-115717500D01*
D66*
X229530000Y-116780000D02*
X228750000Y-116000000D01*
D65*
X259175000Y-77670000D02*
X260700000Y-76145000D01*
D66*
X252309568Y-101859568D02*
X252500000Y-102050000D01*
D65*
X255832500Y-111632500D02*
X255300000Y-111632500D01*
X260750000Y-104517500D02*
X261267500Y-104000000D01*
X265662500Y-107587500D02*
X266790000Y-107587500D01*
D67*
X230800000Y-60000000D02*
X229800000Y-59000000D01*
X238200000Y-60200000D02*
X238800000Y-60800000D01*
D66*
X224197500Y-117447500D02*
X223000000Y-116250000D01*
D67*
X270250000Y-125150000D02*
X269750000Y-125150000D01*
D66*
X279000000Y-77450000D02*
X278300000Y-78150000D01*
X219770000Y-110430000D02*
X219000000Y-111200000D01*
X243509500Y-105140000D02*
X242649500Y-106000000D01*
X221000000Y-62962500D02*
X219837500Y-61800000D01*
D67*
X239850000Y-51250000D02*
X239000000Y-50400000D01*
D66*
X230200000Y-97100000D02*
X230200000Y-98600000D01*
D67*
X269042500Y-108557500D02*
X269300000Y-108300000D01*
D66*
X253100000Y-125800000D02*
X252800000Y-126100000D01*
X200800000Y-96137500D02*
X199887500Y-96137500D01*
D65*
X261850000Y-132500000D02*
X262116950Y-132500000D01*
X193900000Y-114700000D02*
X193400000Y-115200000D01*
D66*
X211750000Y-105937500D02*
X211750000Y-107500000D01*
X200700000Y-102550000D02*
X202050000Y-102550000D01*
D67*
X274840000Y-98500000D02*
X274840000Y-97885732D01*
D66*
X264762500Y-126050000D02*
X264862500Y-126150000D01*
X218325000Y-71810000D02*
X217790000Y-71810000D01*
X253200000Y-99000000D02*
X253500000Y-98700000D01*
X249000000Y-118000000D02*
X249500000Y-118500000D01*
X237450000Y-107557500D02*
X237450000Y-106750000D01*
D67*
X228200000Y-60000000D02*
X227200000Y-59000000D01*
X270250000Y-130150000D02*
X269450000Y-130150000D01*
D65*
X268393156Y-104200000D02*
X269233875Y-105040719D01*
D66*
X230200000Y-97100000D02*
X222962500Y-97100000D01*
D67*
X243200000Y-59950000D02*
X243200000Y-59600000D01*
D66*
X209000000Y-96050000D02*
X209000000Y-96000000D01*
X257460000Y-90140000D02*
X258000000Y-89600000D01*
X252300000Y-116800000D02*
X252600000Y-117100000D01*
X221800000Y-57650000D02*
X221800000Y-58500000D01*
X222900000Y-97162500D02*
X222900000Y-98700000D01*
D65*
X260700000Y-76145000D02*
X260700000Y-70817894D01*
X258200000Y-77670000D02*
X259175000Y-77670000D01*
X264400000Y-107000000D02*
X264400000Y-107300000D01*
X264687500Y-107587500D02*
X265662500Y-107587500D01*
D66*
X233800000Y-94862500D02*
X233800000Y-95600000D01*
D67*
X221000000Y-62962500D02*
X221000000Y-63000000D01*
D66*
X205750000Y-97250000D02*
X205250000Y-96750000D01*
D65*
X255650000Y-132500000D02*
X255500000Y-132500000D01*
X237600000Y-51250000D02*
X237100000Y-51250000D01*
D66*
X201437500Y-105737500D02*
X201400000Y-105700000D01*
X260000000Y-86650000D02*
X259750000Y-86650000D01*
D65*
X255650000Y-132500000D02*
X255650000Y-131300000D01*
D66*
X268450000Y-101750000D02*
X269500000Y-102800000D01*
X225462500Y-94650000D02*
X226850000Y-94650000D01*
X238600000Y-115462500D02*
X238600000Y-114300000D01*
D67*
X237100000Y-51250000D02*
X236300000Y-50450000D01*
D66*
X259897500Y-95950000D02*
X259897500Y-95102500D01*
D67*
X263832500Y-115800000D02*
X263832500Y-115967500D01*
X260037500Y-64437500D02*
X260000000Y-64400000D01*
X234188000Y-51250000D02*
X235000000Y-51250000D01*
D65*
X238600000Y-74400000D02*
X239200000Y-73800000D01*
D66*
X263500000Y-116800000D02*
X262900000Y-117400000D01*
D67*
X260000000Y-85200000D02*
X259800000Y-85000000D01*
D65*
X232721185Y-87778815D02*
X234400000Y-87778815D01*
D67*
X240600000Y-60000000D02*
X240600000Y-59000000D01*
D66*
X259700000Y-86600000D02*
X259750000Y-86650000D01*
D67*
X263832500Y-115967500D02*
X263400000Y-116400000D01*
D65*
X261850000Y-132500000D02*
X261850000Y-131300000D01*
D67*
X231000000Y-60000000D02*
X230800000Y-60000000D01*
X274840000Y-97885732D02*
X274115124Y-97160856D01*
D66*
X199887500Y-96137500D02*
X199000000Y-95250000D01*
X209000000Y-96000000D02*
X206800000Y-93800000D01*
X200537500Y-93750000D02*
X200537500Y-92212500D01*
X219737500Y-74100000D02*
X218700000Y-74100000D01*
X255830000Y-103260000D02*
X255830000Y-101870000D01*
D67*
X243200000Y-59600000D02*
X244000000Y-58800000D01*
D66*
X244070000Y-107547500D02*
X244070000Y-106930000D01*
X260000000Y-86650000D02*
X259650000Y-86650000D01*
X259897500Y-95102500D02*
X260600000Y-94400000D01*
X226900000Y-94600000D02*
X226850000Y-94650000D01*
X220950000Y-110430000D02*
X219770000Y-110430000D01*
X252500000Y-102050000D02*
X254150000Y-102050000D01*
D65*
X237100000Y-51250000D02*
X236050000Y-52300000D01*
X194787500Y-114700000D02*
X193900000Y-114700000D01*
D67*
X235000000Y-51250000D02*
X236050000Y-52300000D01*
D65*
X267837500Y-104200000D02*
X268393156Y-104200000D01*
D67*
X235800000Y-60000000D02*
X235800000Y-59400000D01*
X233400000Y-59200000D02*
X233000000Y-58800000D01*
D65*
X195900000Y-118500000D02*
X195800000Y-118600000D01*
X262620000Y-98635000D02*
X262620000Y-98460000D01*
X255500000Y-132500000D02*
X254300000Y-133700000D01*
D67*
X238200000Y-59950000D02*
X238200000Y-60200000D01*
D66*
X273150000Y-74450000D02*
X273150000Y-75750000D01*
X267300000Y-87600000D02*
X267300000Y-86900000D01*
X195737500Y-112062500D02*
X194800000Y-113000000D01*
X254150000Y-102050000D02*
X255200000Y-101000000D01*
D67*
X240000000Y-51250000D02*
X239850000Y-51250000D01*
D66*
X258600000Y-85600000D02*
X256980000Y-85600000D01*
D65*
X260700000Y-70817894D02*
X261096685Y-70421209D01*
D66*
X221800000Y-58500000D02*
X221400000Y-58900000D01*
X273150000Y-75750000D02*
X273400000Y-76000000D01*
X227030000Y-117447500D02*
X227030000Y-116780000D01*
D65*
X267275000Y-96145000D02*
X268140000Y-95280000D01*
X267050000Y-96145000D02*
X267275000Y-96145000D01*
D66*
X217400000Y-87000000D02*
X216440000Y-87960000D01*
X200537500Y-92212500D02*
X201000000Y-91750000D01*
X279166972Y-81483028D02*
X278300000Y-82350000D01*
X200800000Y-76400000D02*
X200800000Y-78597831D01*
X213962500Y-116450000D02*
X213962500Y-115137500D01*
X222962500Y-97100000D02*
X222900000Y-97162500D01*
X217790000Y-71810000D02*
X216600000Y-73000000D01*
X244290000Y-105140000D02*
X243509500Y-105140000D01*
X238600000Y-114300000D02*
X238100000Y-113800000D01*
D65*
X254832500Y-111632500D02*
X254400000Y-111200000D01*
D66*
X224430000Y-117447500D02*
X224197500Y-117447500D01*
D67*
X233400000Y-60000000D02*
X233400000Y-59200000D01*
D65*
X265210000Y-98435000D02*
X265065500Y-98435000D01*
D67*
X260037500Y-66400000D02*
X260037500Y-64437500D01*
X267760000Y-108557500D02*
X269042500Y-108557500D01*
D66*
X228425000Y-65725000D02*
X228100000Y-65400000D01*
X277900000Y-107300000D02*
X278300000Y-107700000D01*
X203300000Y-105737500D02*
X201437500Y-105737500D01*
D67*
X224350000Y-62150000D02*
X225600000Y-62150000D01*
D66*
X251937500Y-99000000D02*
X253200000Y-99000000D01*
D65*
X256287500Y-112087500D02*
X255832500Y-111632500D01*
D67*
X269450000Y-130150000D02*
X268400000Y-131200000D01*
D66*
X233000000Y-94062500D02*
X233800000Y-94862500D01*
D65*
X261750000Y-131200000D02*
X261750000Y-131021434D01*
X261850000Y-131300000D02*
X261750000Y-131200000D01*
X260295854Y-103028354D02*
X260171646Y-103028354D01*
D66*
X229655000Y-65725000D02*
X228425000Y-65725000D01*
D65*
X258750000Y-129550000D02*
X258750000Y-128887500D01*
D67*
X265817500Y-105582500D02*
X265800000Y-105600000D01*
D65*
X261096685Y-70421209D02*
X261096685Y-67459185D01*
D66*
X254800000Y-125800000D02*
X253100000Y-125800000D01*
X193150000Y-94450000D02*
X193050000Y-94450000D01*
X200800000Y-78597831D02*
X201772169Y-79570000D01*
X219300000Y-71810000D02*
X220355000Y-70755000D01*
X218350000Y-105950000D02*
X218350000Y-106350000D01*
X237450000Y-106750000D02*
X237000000Y-106300000D01*
X278950000Y-86000000D02*
X278300000Y-86650000D01*
D67*
X269750000Y-125150000D02*
X268200000Y-123600000D01*
D65*
X266790000Y-107587500D02*
X267760000Y-108557500D01*
X260750000Y-105675000D02*
X260750000Y-104517500D01*
D66*
X218350000Y-106350000D02*
X217300000Y-107400000D01*
D65*
X255650000Y-131300000D02*
X255750000Y-131200000D01*
X261096685Y-67459185D02*
X260037500Y-66400000D01*
X255300000Y-111632500D02*
X254832500Y-111632500D01*
D66*
X202050000Y-102550000D02*
X202100000Y-102500000D01*
X233422500Y-117422500D02*
X233500000Y-117500000D01*
D67*
X224300000Y-62200000D02*
X224350000Y-62150000D01*
D65*
X197175000Y-118500000D02*
X195900000Y-118500000D01*
X264400000Y-107300000D02*
X264687500Y-107587500D01*
D66*
X277900000Y-105962500D02*
X277900000Y-107300000D01*
X248120000Y-118000000D02*
X249000000Y-118000000D01*
X252300000Y-115400000D02*
X252300000Y-116800000D01*
X262800000Y-126050000D02*
X264762500Y-126050000D01*
X267300000Y-86900000D02*
X267000000Y-86600000D01*
D67*
X260000000Y-86650000D02*
X260000000Y-85200000D01*
D66*
X256980000Y-85600000D02*
X256250000Y-86330000D01*
X263500000Y-116100000D02*
X263500000Y-116800000D01*
X227030000Y-116780000D02*
X226250000Y-116000000D01*
D65*
X262116950Y-132500000D02*
X263266950Y-133650000D01*
X237837500Y-74400000D02*
X238600000Y-74400000D01*
D67*
X235800000Y-59400000D02*
X236200000Y-59000000D01*
D66*
X231980000Y-117422500D02*
X233422500Y-117422500D01*
D65*
X265817500Y-105582500D02*
X264400000Y-107000000D01*
D66*
X213962500Y-115137500D02*
X214400000Y-114700000D01*
X279166972Y-81316972D02*
X279166972Y-81483028D01*
D65*
X259050000Y-129850000D02*
X258750000Y-129550000D01*
X264890000Y-72590000D02*
X263150000Y-72590000D01*
D66*
X218700000Y-74100000D02*
X218200000Y-74600000D01*
D65*
X263266950Y-133650000D02*
X263400000Y-133650000D01*
D66*
X232490000Y-88010000D02*
X231000000Y-88010000D01*
D65*
X265065500Y-98435000D02*
X264180000Y-99320500D01*
D66*
X205750000Y-98437500D02*
X205750000Y-97250000D01*
D65*
X262620000Y-98460000D02*
X263610000Y-97470000D01*
X257337500Y-112087500D02*
X256287500Y-112087500D01*
D66*
X255830000Y-101870000D02*
X256100000Y-101600000D01*
X216440000Y-87960000D02*
X213600000Y-87960000D01*
X219737500Y-74100000D02*
X219737500Y-74762500D01*
X256250000Y-90140000D02*
X257460000Y-90140000D01*
X259650000Y-86650000D02*
X258600000Y-85600000D01*
D65*
X261267500Y-104000000D02*
X260295854Y-103028354D01*
X232490000Y-88010000D02*
X232721185Y-87778815D01*
%TO.N,+12V*%
X193237500Y-112100000D02*
X196400000Y-108937500D01*
X192400000Y-112100000D02*
X193237500Y-112100000D01*
D67*
%TO.N,VBUS*%
X259600710Y-127878315D02*
X260060423Y-127878315D01*
D65*
X260250000Y-131753554D02*
X260000000Y-132003554D01*
D67*
X260191054Y-128008946D02*
X261728315Y-126471685D01*
D65*
X260250000Y-131200000D02*
X260250000Y-131753554D01*
X260700000Y-129900000D02*
X261000000Y-129900000D01*
D67*
X253578315Y-127968370D02*
X254750000Y-126796685D01*
X257500000Y-133700000D02*
X256803315Y-134396685D01*
X261728315Y-126471685D02*
X261728315Y-123509185D01*
D65*
X261000000Y-128817892D02*
X260191054Y-128008946D01*
D67*
X253578315Y-133963577D02*
X253578315Y-127968370D01*
X254011423Y-134396685D02*
X253578315Y-133963577D01*
X257250000Y-131830422D02*
X257500000Y-132080422D01*
X257500000Y-132500000D02*
X257500000Y-133700000D01*
X254750000Y-126796685D02*
X255672157Y-126796685D01*
D65*
X260250000Y-131200000D02*
X260250000Y-130350000D01*
X257500000Y-132853554D02*
X257500000Y-132500000D01*
D67*
X260000000Y-132500000D02*
X260000000Y-132003554D01*
X257500000Y-132080422D02*
X257500000Y-132500000D01*
X255672157Y-126796685D02*
X256100000Y-126368842D01*
X260060423Y-127878315D02*
X260191054Y-128008946D01*
D66*
X255450000Y-123600000D02*
X254560000Y-123600000D01*
X254560000Y-123600000D02*
X253750000Y-122790000D01*
D65*
X257500000Y-132146446D02*
X257500000Y-132500000D01*
D67*
X257250000Y-131200000D02*
X257250000Y-131830422D01*
D66*
X258750000Y-122550000D02*
X258400000Y-122200000D01*
D67*
X256100000Y-126368842D02*
X256100000Y-124250000D01*
X256803315Y-134396685D02*
X254011423Y-134396685D01*
X261728315Y-123509185D02*
X261737500Y-123500000D01*
D66*
X253750000Y-122790000D02*
X253750000Y-122450000D01*
D65*
X260250000Y-130350000D02*
X260700000Y-129900000D01*
D66*
X261737500Y-123500000D02*
X261737500Y-122487500D01*
D65*
X261000000Y-129900000D02*
X261000000Y-128817892D01*
D67*
X258750000Y-127027605D02*
X259600710Y-127878315D01*
D66*
X256100000Y-124250000D02*
X255450000Y-123600000D01*
D67*
X258750000Y-126612500D02*
X258750000Y-127027605D01*
D66*
X258750000Y-126612500D02*
X258750000Y-122550000D01*
X253800000Y-122400000D02*
X253750000Y-122450000D01*
X261737500Y-122487500D02*
X261000000Y-121750000D01*
%TO.N,blue*%
X227300000Y-89600000D02*
X226650000Y-88950000D01*
X222900000Y-94037500D02*
X223237500Y-93700000D01*
X245220000Y-95220000D02*
X251100000Y-95220000D01*
X232696607Y-134200000D02*
X226263604Y-134200000D01*
X262581396Y-89775000D02*
X267400000Y-84956396D01*
D67*
X223275000Y-64190000D02*
X222962500Y-63877500D01*
D66*
X244900000Y-89700000D02*
X244800000Y-89600000D01*
X244900000Y-89700000D02*
X244900000Y-94900000D01*
X227000000Y-79605000D02*
X227000000Y-88600000D01*
X254090000Y-91410000D02*
X253500000Y-92000000D01*
D67*
X223275000Y-64190000D02*
X222651685Y-64813315D01*
D66*
X244800000Y-89600000D02*
X234800000Y-89600000D01*
X238600000Y-117537500D02*
X240450000Y-115687500D01*
X225462500Y-95600000D02*
X223500000Y-95600000D01*
X237200000Y-127250000D02*
X237200000Y-120068629D01*
X233531260Y-74400000D02*
X228000000Y-74400000D01*
X240300000Y-73460050D02*
X239433320Y-72593370D01*
X222900000Y-94037500D02*
X219712500Y-94037500D01*
D67*
X222651685Y-64813315D02*
X221186685Y-64813315D01*
D66*
X240300000Y-76580000D02*
X239275000Y-76580000D01*
X217125000Y-102825000D02*
X216050000Y-103900000D01*
X223925000Y-76530000D02*
X227000000Y-79605000D01*
X253080000Y-95220000D02*
X251100000Y-95220000D01*
X216050000Y-111250000D02*
X216050000Y-103900000D01*
X222900000Y-76530000D02*
X223925000Y-76530000D01*
X235337890Y-72593370D02*
X233531260Y-74400000D01*
X218350000Y-102825000D02*
X217125000Y-102825000D01*
X226263604Y-134200000D02*
X220200000Y-128136396D01*
X260000000Y-90500000D02*
X260000000Y-89775000D01*
X269000000Y-72930000D02*
X269000000Y-68850000D01*
X240962500Y-75917500D02*
X240300000Y-76580000D01*
X237200000Y-127250000D02*
X237200000Y-129696607D01*
X256250000Y-91410000D02*
X256250000Y-92680000D01*
X239275000Y-76580000D02*
X239255000Y-76600000D01*
X224400000Y-74600000D02*
X223362500Y-74600000D01*
X269000000Y-68850000D02*
X268150000Y-68000000D01*
X240450000Y-115687500D02*
X240450000Y-113970000D01*
X237200000Y-129696607D02*
X232696607Y-134200000D01*
X222900000Y-92700000D02*
X222900000Y-94037500D01*
X238600000Y-117537500D02*
X238600000Y-118668629D01*
X260000000Y-90500000D02*
X259090000Y-91410000D01*
X220200000Y-115400000D02*
X216050000Y-111250000D01*
X260000000Y-89775000D02*
X262581396Y-89775000D01*
X240962500Y-74400000D02*
X240962500Y-75917500D01*
X222862500Y-74100000D02*
X222862500Y-76492500D01*
X220950000Y-102737500D02*
X218437500Y-102737500D01*
X237200000Y-120068629D02*
X225648871Y-108517500D01*
X217700000Y-96050000D02*
X217700000Y-102175000D01*
X256250000Y-91410000D02*
X254090000Y-91410000D01*
X263930000Y-68000000D02*
X263150000Y-68780000D01*
X222862500Y-76492500D02*
X222900000Y-76530000D01*
X223362500Y-74600000D02*
X222862500Y-74100000D01*
X227000000Y-88600000D02*
X226650000Y-88950000D01*
X220200000Y-128136396D02*
X220200000Y-115400000D01*
X253500000Y-92000000D02*
X253500000Y-94800000D01*
X267400000Y-84956396D02*
X267400000Y-74530000D01*
X223500000Y-95600000D02*
X222900000Y-95000000D01*
X219712500Y-94037500D02*
X217700000Y-96050000D01*
D67*
X222962500Y-63877500D02*
X222962500Y-61200000D01*
D66*
X234800000Y-89600000D02*
X227300000Y-89600000D01*
X259090000Y-91410000D02*
X256250000Y-91410000D01*
X237200000Y-132250000D02*
X237200000Y-127250000D01*
X244900000Y-94900000D02*
X245220000Y-95220000D01*
X238600000Y-118668629D02*
X237200000Y-120068629D01*
X218437500Y-102737500D02*
X218350000Y-102825000D01*
X253500000Y-94800000D02*
X253080000Y-95220000D01*
X239433320Y-72593370D02*
X235337890Y-72593370D01*
X216050000Y-107418629D02*
X216050000Y-105600000D01*
X268150000Y-68000000D02*
X263930000Y-68000000D01*
X223237500Y-93700000D02*
X225462500Y-93700000D01*
X263162500Y-68767500D02*
X263150000Y-68780000D01*
X267400000Y-74530000D02*
X269000000Y-72930000D01*
X225648871Y-108517500D02*
X217148871Y-108517500D01*
X226650000Y-88950000D02*
X222900000Y-92700000D01*
X217148871Y-108517500D02*
X216050000Y-107418629D01*
X263162500Y-66400000D02*
X263162500Y-68767500D01*
D67*
X221186685Y-64813315D02*
X220000000Y-66000000D01*
D66*
X222900000Y-95000000D02*
X222900000Y-94037500D01*
X240300000Y-76580000D02*
X240300000Y-73460050D01*
X217700000Y-102175000D02*
X218350000Y-102825000D01*
%TO.N,+3.3V*%
X227737500Y-93700000D02*
X227737500Y-91487500D01*
X259765000Y-104000000D02*
X260132500Y-104000000D01*
D65*
X260250000Y-106513542D02*
X260250000Y-105675000D01*
D66*
X278500000Y-117950000D02*
X278500000Y-117100000D01*
X258402500Y-102762500D02*
X257905000Y-103260000D01*
X250100000Y-99000000D02*
X250100000Y-100470000D01*
X255087500Y-113450000D02*
X252750000Y-113450000D01*
X264967500Y-117582500D02*
X264967500Y-115800000D01*
D65*
X265662500Y-106867500D02*
X266060000Y-106470000D01*
D66*
X259312500Y-103547500D02*
X259765000Y-104000000D01*
X263342004Y-92562500D02*
X258022550Y-92562500D01*
X243867500Y-104292500D02*
X244290000Y-103870000D01*
D65*
X256050000Y-112767500D02*
X255300000Y-112767500D01*
D66*
X232400000Y-96200000D02*
X232400000Y-96175000D01*
X252400000Y-113800000D02*
X251800000Y-113800000D01*
D65*
X266610000Y-100230000D02*
X266557500Y-100230000D01*
X261600000Y-107825000D02*
X261561458Y-107825000D01*
D66*
X257905000Y-103260000D02*
X259025000Y-103260000D01*
X257905000Y-103260000D02*
X257905000Y-102140000D01*
X225800000Y-91400000D02*
X225200000Y-92000000D01*
X264550000Y-118000000D02*
X264967500Y-117582500D01*
X249100000Y-98000000D02*
X250100000Y-99000000D01*
X257575000Y-93010050D02*
X257575000Y-98500000D01*
D65*
X260250000Y-105675000D02*
X260250000Y-104117500D01*
X266550000Y-107087500D02*
X266845000Y-107087500D01*
D66*
X264750000Y-59200000D02*
X264550000Y-59400000D01*
X271050000Y-79120000D02*
X271050000Y-74450000D01*
D67*
X264250000Y-115082500D02*
X264967500Y-115800000D01*
D66*
X241310000Y-104292500D02*
X238492500Y-104292500D01*
D65*
X266557500Y-100230000D02*
X265037500Y-101750000D01*
D66*
X257905000Y-102140000D02*
X257837500Y-102072500D01*
D67*
X276100000Y-109500000D02*
X271600000Y-114000000D01*
X276100000Y-109000000D02*
X276100000Y-109500000D01*
X264287500Y-105675000D02*
X265762500Y-104200000D01*
D66*
X247400000Y-98000000D02*
X249100000Y-98000000D01*
D65*
X268132500Y-105800000D02*
X267250000Y-106682500D01*
D66*
X267760000Y-106482500D02*
X268117500Y-106482500D01*
X257837500Y-102072500D02*
X258527500Y-102762500D01*
X232400000Y-96175000D02*
X230200000Y-93975000D01*
X265575000Y-116100000D02*
X267400000Y-116100000D01*
X211400000Y-92000000D02*
X211096192Y-92303808D01*
D67*
X271600000Y-114000000D02*
X264250000Y-114000000D01*
X276024500Y-107200000D02*
X276024500Y-108924500D01*
D66*
X227737500Y-91487500D02*
X227650000Y-91400000D01*
X278500000Y-117100000D02*
X277200000Y-115800000D01*
D65*
X255300000Y-112767500D02*
X254767500Y-113300000D01*
D66*
X227737500Y-93700000D02*
X229925000Y-93700000D01*
D67*
X276024500Y-108924500D02*
X276100000Y-109000000D01*
D66*
X268400000Y-81770000D02*
X268400000Y-88683315D01*
X259025000Y-103260000D02*
X259312500Y-103547500D01*
X205000000Y-64200000D02*
X205000000Y-64700000D01*
X241800000Y-104782500D02*
X241310000Y-104292500D01*
X241800000Y-110600000D02*
X241800000Y-104782500D01*
X252750000Y-113450000D02*
X252400000Y-113800000D01*
X196850000Y-79600000D02*
X197200000Y-79600000D01*
X241310000Y-104292500D02*
X243867500Y-104292500D01*
X251800000Y-113800000D02*
X251600000Y-114000000D01*
D65*
X266845000Y-107087500D02*
X267250000Y-106682500D01*
D66*
X250100000Y-100470000D02*
X249240000Y-101330000D01*
D65*
X256230000Y-112587500D02*
X256050000Y-112767500D01*
X265662500Y-107087500D02*
X266550000Y-107087500D01*
D66*
X217400000Y-92000000D02*
X211400000Y-92000000D01*
X227650000Y-91400000D02*
X225800000Y-91400000D01*
X258527500Y-102762500D02*
X258402500Y-102762500D01*
X238492500Y-104292500D02*
X238400000Y-104200000D01*
D65*
X257337500Y-112587500D02*
X256230000Y-112587500D01*
X276024500Y-107200000D02*
X276024500Y-107100000D01*
D66*
X205000000Y-64700000D02*
X206150000Y-65850000D01*
X257575000Y-101810000D02*
X257837500Y-102072500D01*
D67*
X264250000Y-114000000D02*
X264250000Y-115082500D01*
D65*
X261561458Y-107825000D02*
X260250000Y-106513542D01*
D66*
X258527500Y-102762500D02*
X259312500Y-103547500D01*
X268400000Y-88683315D02*
X267221189Y-88683315D01*
X257575000Y-98500000D02*
X257575000Y-101810000D01*
D65*
X222900000Y-90600000D02*
X218800000Y-90600000D01*
D66*
X271050000Y-79120000D02*
X268400000Y-81770000D01*
X258022550Y-92562500D02*
X257575000Y-93010050D01*
X255300000Y-113237500D02*
X255087500Y-113450000D01*
D67*
X265762500Y-104200000D02*
X264600000Y-104200000D01*
D66*
X229925000Y-93700000D02*
X230200000Y-93975000D01*
D65*
X265662500Y-107087500D02*
X265662500Y-106867500D01*
D67*
X264250000Y-105675000D02*
X264287500Y-105675000D01*
D66*
X264550000Y-118400000D02*
X265100000Y-118400000D01*
X268117500Y-106482500D02*
X268800000Y-105800000D01*
D67*
X264600000Y-104200000D02*
X264300000Y-103900000D01*
D65*
X218800000Y-90600000D02*
X217400000Y-92000000D01*
D66*
X265100000Y-118400000D02*
X267400000Y-116100000D01*
X266200000Y-59200000D02*
X264750000Y-59200000D01*
D65*
X260250000Y-104117500D02*
X260132500Y-104000000D01*
D66*
X267221189Y-88683315D02*
X263342004Y-92562500D01*
D65*
X268800000Y-105800000D02*
X268132500Y-105800000D01*
D66*
%TO.N,/power/V-REF*%
X220950000Y-105662500D02*
X220950000Y-107505000D01*
X244290000Y-102600000D02*
X224012500Y-102600000D01*
X224012500Y-102600000D02*
X220950000Y-105662500D01*
D68*
%TO.N,/mcu/HSE_IN*%
X262250000Y-105675000D02*
X262250000Y-104937500D01*
D65*
X262250000Y-104836458D02*
X262250000Y-105675000D01*
D68*
X262250000Y-104937500D02*
X262260000Y-104927500D01*
D65*
X262335000Y-102397500D02*
X262335000Y-104751458D01*
X262620000Y-100760000D02*
X262620000Y-101760000D01*
X265465000Y-100020000D02*
X263700000Y-100020000D01*
X262000000Y-102062500D02*
X262335000Y-102397500D01*
X263360000Y-100020000D02*
X262620000Y-100760000D01*
X262335000Y-104751458D02*
X262250000Y-104836458D01*
X262000000Y-102062500D02*
X262813970Y-102062500D01*
X267050000Y-98435000D02*
X265465000Y-100020000D01*
X263700000Y-100020000D02*
X263360000Y-100020000D01*
%TO.N,/mcu/XTAL_IN*%
X265210000Y-96145000D02*
X263217500Y-96145000D01*
X262740000Y-95950000D02*
X260020000Y-98670000D01*
X263217500Y-96145000D02*
X263022500Y-95950000D01*
X263022500Y-95950000D02*
X262740000Y-95950000D01*
D66*
%TO.N,/power/PowerIn-*%
X197150000Y-125150000D02*
X197150000Y-130150000D01*
D65*
X200100000Y-117700000D02*
X201250000Y-116550000D01*
X201100000Y-116400000D02*
X201100000Y-116000000D01*
D66*
X199850000Y-119450000D02*
X197150000Y-122150000D01*
X199850000Y-119650000D02*
X199850000Y-118800000D01*
D65*
X201250000Y-116550000D02*
X201100000Y-116400000D01*
X200100000Y-118500000D02*
X200100000Y-117700000D01*
D66*
X197150000Y-122150000D02*
X197150000Y-125150000D01*
X199850000Y-118800000D02*
X199850000Y-119450000D01*
%TO.N,/power/POL-FET-G*%
X211037500Y-116287500D02*
X208450000Y-113700000D01*
X211037500Y-119877500D02*
X210290000Y-120625000D01*
X211037500Y-116450000D02*
X211037500Y-116287500D01*
X211037500Y-116450000D02*
X211037500Y-119877500D01*
D65*
%TO.N,/power/12V-Unfiltered__LED_K*%
X199412500Y-114700000D02*
X200112500Y-114000000D01*
X197712500Y-114700000D02*
X199412500Y-114700000D01*
D66*
%TO.N,/power/LDO_LED_K*%
X203462500Y-93750000D02*
X203462500Y-96300000D01*
X203462500Y-96300000D02*
X203250000Y-96512500D01*
X202637500Y-96137500D02*
X202700000Y-96200000D01*
D67*
%TO.N,ones*%
X232918000Y-48260000D02*
X233031315Y-48146685D01*
X237621685Y-71996685D02*
X239003315Y-71996685D01*
X232918000Y-51816000D02*
X232918000Y-48260000D01*
X233655000Y-52553000D02*
X232918000Y-51816000D01*
X245400000Y-54600000D02*
X244200000Y-53400000D01*
X237275000Y-70675000D02*
X237275000Y-71650000D01*
X244200000Y-53400000D02*
X244200000Y-48146685D01*
D65*
X233655000Y-52645000D02*
X234995000Y-53985000D01*
D67*
X234442000Y-48146685D02*
X235403315Y-48146685D01*
X244200000Y-48146685D02*
X235403315Y-48146685D01*
X234442000Y-48146685D02*
X234188000Y-48400685D01*
X237275000Y-71650000D02*
X237621685Y-71996685D01*
X239003315Y-71996685D02*
X245400000Y-65600000D01*
X233655000Y-52645000D02*
X233655000Y-52553000D01*
X234188000Y-48400685D02*
X234188000Y-49150000D01*
X233031315Y-48146685D02*
X234442000Y-48146685D01*
%TO.N,tens*%
X232455000Y-52255000D02*
X232000000Y-51800000D01*
X221800000Y-53400000D02*
X221800000Y-55550000D01*
X236005000Y-70675000D02*
X236005000Y-71082420D01*
X223400000Y-51800000D02*
X221800000Y-53400000D01*
X232000000Y-51800000D02*
X223400000Y-51800000D01*
X232455000Y-53985000D02*
X232455000Y-52255000D01*
X236005000Y-71082420D02*
X234287420Y-72800000D01*
X221950000Y-55400000D02*
X221800000Y-55550000D01*
X234287420Y-72800000D02*
X227200000Y-72800000D01*
X223200000Y-55400000D02*
X221950000Y-55400000D01*
%TO.N,hundreds*%
X225950000Y-60400000D02*
X225600000Y-60050000D01*
X234735000Y-70675000D02*
X234735000Y-69700000D01*
X229915000Y-53985000D02*
X228223370Y-52293370D01*
X225506630Y-52293370D02*
X224800000Y-53000000D01*
X226400000Y-60400000D02*
X225950000Y-60400000D01*
X227646685Y-67046685D02*
X226800000Y-66200000D01*
X224800000Y-57400000D02*
X225600000Y-58200000D01*
X228223370Y-52293370D02*
X225506630Y-52293370D01*
X225600000Y-58200000D02*
X225600000Y-60050000D01*
X234735000Y-69700000D02*
X232081685Y-67046685D01*
X232081685Y-67046685D02*
X227646685Y-67046685D01*
X224800000Y-53000000D02*
X224800000Y-57400000D01*
%TO.N,thousands*%
X238545000Y-69945000D02*
X238000000Y-69400000D01*
X228846685Y-62746685D02*
X236468196Y-62746685D01*
X227375000Y-53985000D02*
X226100000Y-55260000D01*
X226100000Y-59100000D02*
X228200000Y-61200000D01*
X226100000Y-55260000D02*
X226100000Y-59100000D01*
X228200000Y-61200000D02*
X228200000Y-62100000D01*
X238545000Y-70675000D02*
X238545000Y-69945000D01*
X236468196Y-62746685D02*
X236534098Y-62812587D01*
X228846685Y-62746685D02*
X228200000Y-62100000D01*
D66*
%TO.N,red*%
X227030000Y-127080000D02*
X227200000Y-127250000D01*
X227200000Y-132250000D02*
X227200000Y-127250000D01*
D65*
X227200000Y-126462500D02*
X227200000Y-127250000D01*
D66*
X224430000Y-120372500D02*
X227030000Y-120372500D01*
X227030000Y-120372500D02*
X227030000Y-127080000D01*
%TO.N,white*%
X229530000Y-120347500D02*
X231980000Y-120347500D01*
D65*
X232200000Y-126387500D02*
X232200000Y-127250000D01*
D66*
X231980000Y-120347500D02*
X231980000Y-127030000D01*
X231980000Y-127030000D02*
X232200000Y-127250000D01*
X232200000Y-132250000D02*
X232200000Y-127250000D01*
D65*
%TO.N,yellow*%
X243040000Y-126410000D02*
X243040000Y-118000000D01*
X242200000Y-127250000D02*
X243040000Y-126410000D01*
%TO.N,black*%
X240500000Y-118000000D02*
X240500000Y-128550000D01*
X240500000Y-128550000D02*
X241750000Y-129800000D01*
X241750000Y-129800000D02*
X244750000Y-129800000D01*
X247200000Y-125675000D02*
X247200000Y-127250000D01*
X244750000Y-129800000D02*
X247200000Y-132250000D01*
D66*
%TO.N,_zero*%
X203050000Y-65850000D02*
X201000000Y-65850000D01*
X192500000Y-56400000D02*
X192500000Y-61400000D01*
X193250000Y-65850000D02*
X192500000Y-65100000D01*
X192500000Y-65100000D02*
X192500000Y-61400000D01*
D67*
X257337500Y-109587500D02*
X255012500Y-109587500D01*
X255012500Y-109587500D02*
X255000000Y-109600000D01*
D66*
X201000000Y-65850000D02*
X193250000Y-65850000D01*
D67*
%TO.N,_mode*%
X258256630Y-115743370D02*
X257800000Y-116200000D01*
X275250000Y-118100000D02*
X275400000Y-117950000D01*
X258253315Y-114837169D02*
X258256630Y-114840484D01*
X258421685Y-110621685D02*
X258421685Y-112994461D01*
X258253315Y-113162831D02*
X258253315Y-114837169D01*
X258421685Y-112994461D02*
X258253315Y-113162831D01*
X275250000Y-130150000D02*
X275250000Y-125150000D01*
X275250000Y-125150000D02*
X275250000Y-118100000D01*
X258387500Y-110587500D02*
X258421685Y-110621685D01*
X257337500Y-110587500D02*
X258387500Y-110587500D01*
X258256630Y-114840484D02*
X258256630Y-115743370D01*
D65*
%TO.N,_config*%
X274978815Y-114621185D02*
X280600000Y-109000000D01*
D67*
X259999992Y-112600000D02*
X259999992Y-112103748D01*
D65*
X258800000Y-110216643D02*
X258670857Y-110087500D01*
X266600000Y-114621185D02*
X274978815Y-114621185D01*
D67*
X259999992Y-112103748D02*
X259635818Y-111739574D01*
D65*
X257337500Y-110087500D02*
X256498958Y-110087500D01*
D67*
X258915055Y-111515055D02*
X258915055Y-110331698D01*
X258915055Y-110331698D02*
X258800000Y-110216643D01*
X259139574Y-111739574D02*
X258915055Y-111515055D01*
D66*
X270650000Y-61300000D02*
X270650000Y-56300000D01*
D67*
X260721138Y-112788000D02*
X260533138Y-112600000D01*
D66*
X264550000Y-56300000D02*
X270650000Y-56300000D01*
D65*
X258670857Y-110087500D02*
X257337500Y-110087500D01*
D67*
X260533138Y-112600000D02*
X259999992Y-112600000D01*
X259635818Y-111739574D02*
X259139574Y-111739574D01*
D66*
%TO.N,/power/POL-FET-D*%
X203000000Y-124100000D02*
X203000000Y-124800000D01*
X192150000Y-125150000D02*
X192150000Y-130150000D01*
X203000000Y-124800000D02*
X203000000Y-125375000D01*
D65*
X202650000Y-116550000D02*
X202500000Y-116400000D01*
D66*
X207525000Y-124800000D02*
X207750000Y-124575000D01*
X207750000Y-124575000D02*
X204975000Y-127350000D01*
D65*
X202500000Y-116400000D02*
X202500000Y-116000000D01*
D66*
X202650000Y-119650000D02*
X202650000Y-116550000D01*
X207750000Y-120625000D02*
X207750000Y-123900000D01*
X203000000Y-120000000D02*
X202650000Y-119650000D01*
X207750000Y-123900000D02*
X207750000Y-124575000D01*
X203000000Y-124800000D02*
X207525000Y-124800000D01*
X203000000Y-120000000D02*
X203000000Y-124100000D01*
X207550000Y-124100000D02*
X207750000Y-123900000D01*
X203000000Y-124100000D02*
X207550000Y-124100000D01*
X203000000Y-125375000D02*
X204975000Y-127350000D01*
D67*
%TO.N,_save*%
X260421185Y-111821185D02*
X261221185Y-111821185D01*
D65*
X245720831Y-99899169D02*
X244290000Y-101330000D01*
D67*
X264322016Y-111708685D02*
X264449831Y-111708685D01*
X259598435Y-111118389D02*
X259718389Y-111118389D01*
D65*
X248921878Y-99830216D02*
X248852925Y-99899169D01*
D67*
X261333685Y-111708685D02*
X264322016Y-111708685D01*
X259718389Y-111118389D02*
X260421185Y-111821185D01*
D65*
X241310000Y-101367500D02*
X244252500Y-101367500D01*
D67*
X264828646Y-112087500D02*
X265662500Y-112087500D01*
D65*
X241400000Y-101277500D02*
X241310000Y-101367500D01*
D67*
X261221185Y-111821185D02*
X261333685Y-111708685D01*
X264449831Y-111708685D02*
X264828646Y-112087500D01*
D65*
X248852925Y-99899169D02*
X245720831Y-99899169D01*
X244252500Y-101367500D02*
X244290000Y-101330000D01*
X241400000Y-99400000D02*
X241400000Y-101277500D01*
D66*
%TO.N,/mcu/BOOT0*%
X269600000Y-110600000D02*
X270180000Y-110600000D01*
X270180000Y-110600000D02*
X271810000Y-108970000D01*
D67*
X266633658Y-109087500D02*
X267037843Y-109491685D01*
X271288315Y-109491685D02*
X271810000Y-108970000D01*
X267037843Y-109491685D02*
X271288315Y-109491685D01*
X265662500Y-109087500D02*
X266633658Y-109087500D01*
D65*
%TO.N,/mcu/HSE_OUT*%
X261750000Y-105675000D02*
X261750000Y-104140000D01*
X259600000Y-101350000D02*
X260020000Y-101770000D01*
X261750000Y-104140000D02*
X261835000Y-104055000D01*
X261835000Y-103585000D02*
X261835000Y-104055000D01*
X259600000Y-100400000D02*
X259600000Y-101350000D01*
X260020000Y-101770000D02*
X261835000Y-103585000D01*
%TO.N,/mcu/USB_D+*%
X261450000Y-118400000D02*
X260800000Y-118400000D01*
X261450000Y-117525000D02*
X261450000Y-118400000D01*
D67*
X262750000Y-115193658D02*
X262750000Y-114000000D01*
D65*
X262750000Y-114000000D02*
X262750000Y-115188970D01*
X260800000Y-118400000D02*
X257150000Y-122050000D01*
X262400000Y-116575000D02*
X261450000Y-117525000D01*
X262750000Y-115188970D02*
X262400000Y-115538970D01*
X262400000Y-115538970D02*
X262400000Y-116575000D01*
X257150000Y-122050000D02*
X257150000Y-123650000D01*
%TO.N,/mcu/USB_CONN_CC1*%
X257750000Y-130775736D02*
X257224264Y-130250000D01*
X256150000Y-130250000D02*
X254800000Y-128900000D01*
X257224264Y-130250000D02*
X256150000Y-130250000D01*
X257750000Y-131200000D02*
X257750000Y-130775736D01*
D67*
%TO.N,/mcu/USB_CONN_CC2*%
X264200000Y-130150000D02*
X262950000Y-128900000D01*
X259500000Y-132500000D02*
X259500000Y-133310803D01*
X259500000Y-133310803D02*
X260535882Y-134346685D01*
X263688577Y-134346685D02*
X264200000Y-133835262D01*
X264200000Y-133835262D02*
X264200000Y-130150000D01*
X260535882Y-134346685D02*
X263688577Y-134346685D01*
%TO.N,/mcu/CONN_SWDIO*%
X273850000Y-93100000D02*
X273850000Y-89540000D01*
X273850000Y-89540000D02*
X273590000Y-89280000D01*
X277770000Y-89280000D02*
X278300000Y-88750000D01*
X273590000Y-89280000D02*
X277770000Y-89280000D01*
%TO.N,/mcu/MCU_SWDIO*%
X275403315Y-109173611D02*
X275403315Y-105596685D01*
X271376926Y-113200000D02*
X275403315Y-109173611D01*
D65*
X278768842Y-98650000D02*
X278772157Y-98646685D01*
D67*
X264499669Y-112915815D02*
X264783854Y-113200000D01*
D65*
X273830000Y-96180000D02*
X273830000Y-95700000D01*
X277026470Y-98650000D02*
X278768842Y-98650000D01*
D67*
X276400000Y-104600000D02*
X278741572Y-104600000D01*
X263250000Y-113166146D02*
X263500331Y-112915815D01*
X274040000Y-96390000D02*
X273850000Y-96200000D01*
X264783854Y-113200000D02*
X271376926Y-113200000D01*
D65*
X275834976Y-97300000D02*
X276040000Y-97505024D01*
D67*
X280000000Y-103341572D02*
X280000000Y-99874528D01*
D65*
X276040000Y-97505024D02*
X276040000Y-97663530D01*
X274040000Y-96390000D02*
X274766470Y-96390000D01*
D67*
X263500331Y-112915815D02*
X264499669Y-112915815D01*
X275403315Y-105596685D02*
X276400000Y-104600000D01*
X278741572Y-104600000D02*
X280000000Y-103341572D01*
X263250000Y-114000000D02*
X263250000Y-113166146D01*
D65*
X275676470Y-97300000D02*
X275834976Y-97300000D01*
X276040000Y-97663530D02*
X277026470Y-98650000D01*
X274040000Y-96390000D02*
X273830000Y-96180000D01*
D67*
X280000000Y-99874528D02*
X278772157Y-98646685D01*
D65*
X274766470Y-96390000D02*
X275676470Y-97300000D01*
D67*
%TO.N,/mcu/CONN_SWCLK*%
X271050000Y-89280000D02*
X267720000Y-89280000D01*
X267720000Y-89280000D02*
X267300000Y-89700000D01*
X270950000Y-89380000D02*
X271050000Y-89280000D01*
X270950000Y-93100000D02*
X270950000Y-89380000D01*
%TO.N,/mcu/MCU_SWCLK*%
X271291696Y-112587500D02*
X274909945Y-108969251D01*
X279146685Y-102177843D02*
X278797157Y-101828315D01*
D65*
X270950000Y-96370000D02*
X270950000Y-95700000D01*
D67*
X279146685Y-103497157D02*
X279146685Y-102177843D01*
X271100000Y-100100000D02*
X271100000Y-96520000D01*
X265662500Y-112587500D02*
X271291696Y-112587500D01*
X273770000Y-102770000D02*
X271100000Y-100100000D01*
X274909945Y-108969251D02*
X274909945Y-105392325D01*
D65*
X270950000Y-95700000D02*
X270930000Y-95700000D01*
D67*
X276061158Y-102770000D02*
X273770000Y-102770000D01*
X278797157Y-101828315D02*
X277002843Y-101828315D01*
X277002843Y-101828315D02*
X276061158Y-102770000D01*
X276195640Y-104106630D02*
X278537212Y-104106630D01*
X271100000Y-96520000D02*
X270950000Y-96370000D01*
X274909945Y-105392325D02*
X276195640Y-104106630D01*
X278537212Y-104106630D02*
X279146685Y-103497157D01*
X270950000Y-96370000D02*
X270950000Y-96200000D01*
%TO.N,/mcu/CONN_SWO*%
X277703315Y-81796073D02*
X277703315Y-83853315D01*
X277900000Y-92250000D02*
X277025000Y-92250000D01*
X273590000Y-86740000D02*
X276010000Y-86740000D01*
X278871685Y-79872297D02*
X278871685Y-80627703D01*
X276010000Y-86740000D02*
X278300000Y-84450000D01*
X277025000Y-92250000D02*
X275178315Y-94096685D01*
X277703315Y-83853315D02*
X278300000Y-84450000D01*
X270400000Y-88000000D02*
X269800000Y-87400000D01*
X273050000Y-82950000D02*
X274142270Y-82950000D01*
X275178315Y-94096685D02*
X272977843Y-94096685D01*
X272393315Y-83606685D02*
X273050000Y-82950000D01*
X269800000Y-87400000D02*
X269800000Y-86000000D01*
X272977843Y-94096685D02*
X272200000Y-93318842D01*
X271687352Y-85400000D02*
X272393315Y-84694037D01*
X272200000Y-93318842D02*
X272200000Y-89900000D01*
X278602703Y-79603315D02*
X278871685Y-79872297D01*
X272393315Y-88793315D02*
X271600000Y-88000000D01*
X270400000Y-85400000D02*
X271687352Y-85400000D01*
X272200000Y-89900000D02*
X272393315Y-89706685D01*
X271600000Y-88000000D02*
X270400000Y-88000000D01*
X272393315Y-84694037D02*
X272393315Y-83606685D01*
X272393315Y-89706685D02*
X272393315Y-88793315D01*
X277488955Y-79603315D02*
X278602703Y-79603315D01*
X278871685Y-80627703D02*
X277703315Y-81796073D01*
X269800000Y-86000000D02*
X270400000Y-85400000D01*
X274142270Y-82950000D02*
X277488955Y-79603315D01*
D65*
%TO.N,/mcu/MCU_SWO*%
X275201651Y-104398201D02*
X274360000Y-105239852D01*
D67*
X277753315Y-95203315D02*
X277900000Y-95350000D01*
D65*
X271322500Y-111587500D02*
X274360000Y-108550000D01*
X277450000Y-95800000D02*
X277900000Y-95350000D01*
D67*
X265662500Y-111587500D02*
X268412500Y-111587500D01*
D65*
X275201651Y-104222129D02*
X275201651Y-104398201D01*
X268412500Y-111587500D02*
X271322500Y-111587500D01*
X276300000Y-95800000D02*
X277450000Y-95800000D01*
X274360000Y-108550000D02*
X274360000Y-105239852D01*
D67*
%TO.N,/mcu/CONN_NRST*%
X272246685Y-86245963D02*
X272200000Y-86199278D01*
X273590000Y-84200000D02*
X277540000Y-80250000D01*
X272200000Y-85590000D02*
X273590000Y-84200000D01*
X279121685Y-88622297D02*
X278499388Y-88000000D01*
X272200000Y-86199278D02*
X272200000Y-85590000D01*
X278499388Y-88000000D02*
X272800000Y-88000000D01*
X277900000Y-97650000D02*
X279121685Y-96428315D01*
X272800000Y-88000000D02*
X272246685Y-87446685D01*
X279121685Y-96428315D02*
X279121685Y-88622297D01*
X272246685Y-87446685D02*
X272246685Y-86245963D01*
X277540000Y-80250000D02*
X278300000Y-80250000D01*
D65*
%TO.N,/cable/SCHMITT_B*%
X241770000Y-118000000D02*
X241770000Y-117025000D01*
X249200000Y-115600000D02*
X249300000Y-115500000D01*
X243195000Y-115600000D02*
X249200000Y-115600000D01*
X249300000Y-115500000D02*
X249300000Y-109950000D01*
X241770000Y-117025000D02*
X243195000Y-115600000D01*
%TO.N,_chB*%
X252300000Y-112300000D02*
X252300000Y-110050000D01*
X252300000Y-110050000D02*
X252400000Y-109950000D01*
%TO.N,/cable/SCHMITT_A*%
X249726470Y-116100000D02*
X250400000Y-115426470D01*
X245235000Y-116100000D02*
X249726470Y-116100000D01*
X250400000Y-115426470D02*
X250400000Y-108500000D01*
X244310000Y-118000000D02*
X244310000Y-117025000D01*
X250400000Y-108500000D02*
X249350000Y-107450000D01*
X244310000Y-117025000D02*
X245235000Y-116100000D01*
%TO.N,_chA*%
X252450000Y-105200000D02*
X252500000Y-105150000D01*
X258750000Y-105675000D02*
X258225000Y-105150000D01*
X258225000Y-105150000D02*
X252500000Y-105150000D01*
X252450000Y-107450000D02*
X252450000Y-105200000D01*
D67*
%TO.N,_clk*%
X261705729Y-112705729D02*
X261786458Y-112625000D01*
D65*
X261705729Y-112705729D02*
X261250000Y-113161458D01*
X264130000Y-71320000D02*
X263150000Y-71320000D01*
X265050000Y-70400000D02*
X264130000Y-71320000D01*
X261250000Y-113161458D02*
X261250000Y-114000000D01*
D67*
X261786458Y-112625000D02*
X261786458Y-112375500D01*
D65*
%TO.N,/mcu/USB_D-*%
X259950000Y-120550000D02*
X260000000Y-120500000D01*
D67*
X261846973Y-115084185D02*
X261999669Y-115084185D01*
X261600000Y-115331158D02*
X261846973Y-115084185D01*
X261600000Y-115981158D02*
X261600000Y-115331158D01*
D65*
X260000000Y-117761918D02*
X261600000Y-116161918D01*
D67*
X262250000Y-114833854D02*
X262250000Y-114000000D01*
D65*
X259950000Y-123650000D02*
X259950000Y-120550000D01*
X261600000Y-116161918D02*
X261600000Y-115981158D01*
D67*
X261999669Y-115084185D02*
X262250000Y-114833854D01*
%TO.N,_a1*%
X261912500Y-111087500D02*
X265662500Y-111087500D01*
X237161160Y-77850000D02*
X239701160Y-80390000D01*
X231000000Y-77850000D02*
X233400000Y-77850000D01*
X225638815Y-80340000D02*
X226000000Y-79978815D01*
X219000000Y-80400000D02*
X219060000Y-80340000D01*
X252600000Y-80400000D02*
X252590000Y-80390000D01*
X260800000Y-111200000D02*
X261800000Y-111200000D01*
X239701160Y-80390000D02*
X240300000Y-80390000D01*
X233400000Y-77850000D02*
X237161160Y-77850000D01*
X213600000Y-77800000D02*
X216400000Y-77800000D01*
X216400000Y-77800000D02*
X219000000Y-80400000D01*
X222900000Y-80340000D02*
X225638815Y-80340000D01*
X219060000Y-80340000D02*
X222900000Y-80340000D01*
X252590000Y-80390000D02*
X240300000Y-80390000D01*
D65*
%TO.N,_a2*%
X243554315Y-90400000D02*
X241284945Y-90400000D01*
D67*
X258421685Y-106837831D02*
X258421685Y-108821685D01*
X257983854Y-106400000D02*
X258421685Y-106837831D01*
X230790000Y-80600000D02*
X231000000Y-80390000D01*
X261066696Y-110587500D02*
X265662500Y-110587500D01*
X229400000Y-80600000D02*
X230790000Y-80600000D01*
X260000000Y-110400000D02*
X260879196Y-110400000D01*
X232025000Y-80390000D02*
X234565000Y-82930000D01*
X260879196Y-110400000D02*
X261066696Y-110587500D01*
X215273815Y-80988815D02*
X221000000Y-80988815D01*
D65*
X257878490Y-106400000D02*
X257639245Y-106160755D01*
D67*
X258421685Y-108821685D02*
X260000000Y-110400000D01*
D65*
X257983854Y-106400000D02*
X257878490Y-106400000D01*
D67*
X214625000Y-80340000D02*
X215273815Y-80988815D01*
X240376745Y-83006745D02*
X240300000Y-82930000D01*
X231000000Y-80390000D02*
X232025000Y-80390000D01*
X213600000Y-80340000D02*
X214625000Y-80340000D01*
X222820000Y-82800000D02*
X222900000Y-82880000D01*
X221200000Y-82800000D02*
X222820000Y-82800000D01*
X234565000Y-82930000D02*
X240300000Y-82930000D01*
X241793255Y-83006745D02*
X240376745Y-83006745D01*
%TO.N,_a3*%
X213600000Y-82880000D02*
X219902580Y-82880000D01*
X242800000Y-85800000D02*
X240630000Y-85800000D01*
X232025000Y-82930000D02*
X234565000Y-85470000D01*
X222442580Y-85420000D02*
X222900000Y-85420000D01*
X226200000Y-84079196D02*
X226200000Y-83000000D01*
X231000000Y-82930000D02*
X232025000Y-82930000D01*
X259400000Y-108600000D02*
X259748865Y-108948865D01*
X261083557Y-109906630D02*
X261264427Y-110087500D01*
X224559196Y-85720000D02*
X226200000Y-84079196D01*
X240630000Y-85800000D02*
X240300000Y-85470000D01*
X229200000Y-83000000D02*
X230930000Y-83000000D01*
X219902580Y-82880000D02*
X222442580Y-85420000D01*
X223200000Y-85720000D02*
X224559196Y-85720000D01*
X260204360Y-109906630D02*
X261083557Y-109906630D01*
X222900000Y-85420000D02*
X223200000Y-85720000D01*
X259748865Y-108948865D02*
X259748865Y-109451135D01*
X234565000Y-85470000D02*
X240300000Y-85470000D01*
X259748865Y-109451135D02*
X260204360Y-109906630D01*
X261264427Y-110087500D02*
X265662500Y-110087500D01*
X230930000Y-83000000D02*
X231000000Y-82930000D01*
%TO.N,_a4*%
X240110000Y-88200000D02*
X240300000Y-88010000D01*
X224960000Y-87960000D02*
X225400000Y-88400000D01*
X230670000Y-85800000D02*
X231000000Y-85470000D01*
X261462158Y-109587500D02*
X265662500Y-109587500D01*
X231000000Y-85470000D02*
X233867270Y-85470000D01*
X236597270Y-88200000D02*
X238400000Y-88200000D01*
X222442580Y-87960000D02*
X222900000Y-87960000D01*
X238400000Y-88200000D02*
X240110000Y-88200000D01*
X259122394Y-107469026D02*
X259343684Y-107469026D01*
X242000000Y-88000000D02*
X240310000Y-88000000D01*
X213600000Y-85420000D02*
X219902580Y-85420000D01*
X219902580Y-85420000D02*
X222442580Y-87960000D01*
X229400000Y-85800000D02*
X230670000Y-85800000D01*
X259343684Y-107469026D02*
X261462158Y-109587500D01*
X233867270Y-85470000D02*
X236597270Y-88200000D01*
X238200000Y-88200000D02*
X238400000Y-88200000D01*
X222900000Y-87960000D02*
X224960000Y-87960000D01*
X240310000Y-88000000D02*
X240300000Y-88010000D01*
D65*
%TO.N,/mcu/USB_CONN_D-*%
X259250000Y-130533884D02*
X259700000Y-130083884D01*
D68*
X259700000Y-128573958D02*
X259700000Y-128887500D01*
D65*
X259250000Y-131200000D02*
X259250000Y-130533884D01*
X258500000Y-132500000D02*
X258500000Y-133200000D01*
D68*
X259600000Y-130500000D02*
X259250000Y-130850000D01*
X259250000Y-130850000D02*
X259250000Y-131200000D01*
D65*
X259700000Y-130083884D02*
X259700000Y-129312500D01*
D68*
X259600000Y-130400000D02*
X259600000Y-130500000D01*
D65*
%TO.N,/mcu/USB_CONN_D+*%
X258250000Y-131200000D02*
X258250000Y-130250000D01*
X259000000Y-131950000D02*
X258250000Y-131200000D01*
X257800000Y-129800000D02*
X257800000Y-128887500D01*
X259000000Y-132100000D02*
X259000000Y-131950000D01*
X258250000Y-130250000D02*
X257800000Y-129800000D01*
D68*
X259000000Y-132500000D02*
X259000000Y-132100000D01*
D65*
%TO.N,/mcu/USB_CMC_D+*%
X257800000Y-125300000D02*
X257150000Y-124650000D01*
X257800000Y-126612500D02*
X257800000Y-125300000D01*
D67*
%TO.N,/mcu/USB_CMC_D-*%
X259840620Y-124759380D02*
X259950000Y-124650000D01*
D65*
X259700000Y-124900000D02*
X259950000Y-124650000D01*
X259700000Y-126612500D02*
X259700000Y-124900000D01*
%TO.N,_thousands*%
X253800000Y-115293870D02*
X254609986Y-115293870D01*
X210400000Y-89600000D02*
X210400000Y-78705000D01*
X212575000Y-76530000D02*
X213600000Y-76530000D01*
X254609986Y-115293870D02*
X257127856Y-117811740D01*
D67*
X213200000Y-76130000D02*
X213600000Y-76530000D01*
D65*
X260250000Y-115000000D02*
X260250000Y-114000000D01*
D67*
X215540000Y-65460000D02*
X213200000Y-67800000D01*
D65*
X257127856Y-117811740D02*
X259067000Y-117811740D01*
D67*
X213200000Y-67800000D02*
X213200000Y-76130000D01*
D65*
X260800000Y-115550000D02*
X260250000Y-115000000D01*
X259067000Y-117811740D02*
X260800000Y-116078740D01*
X260800000Y-116078740D02*
X260800000Y-115550000D01*
X210400000Y-78705000D02*
X212575000Y-76530000D01*
D67*
X218325000Y-65460000D02*
X215540000Y-65460000D01*
%TO.N,/seven-segment-display/BCD_out1*%
X255028315Y-81628315D02*
X255028315Y-86685735D01*
X235942205Y-75933315D02*
X239128890Y-79120000D01*
X255942580Y-87600000D02*
X256250000Y-87600000D01*
X213600000Y-79070000D02*
X216670000Y-79070000D01*
X239128890Y-79120000D02*
X240300000Y-79120000D01*
X240300000Y-79120000D02*
X252520000Y-79120000D01*
X230920000Y-79200000D02*
X231000000Y-79120000D01*
X223030000Y-79200000D02*
X222900000Y-79070000D01*
X231000000Y-79120000D02*
X229975000Y-79120000D01*
X229975000Y-79120000D02*
X229628315Y-78773315D01*
X229919265Y-75933315D02*
X235942205Y-75933315D01*
X255028315Y-86685735D02*
X255942580Y-87600000D01*
X252520000Y-79120000D02*
X255028315Y-81628315D01*
X229628315Y-78773315D02*
X229628315Y-76224265D01*
X216670000Y-79070000D02*
X217400000Y-79800000D01*
X224800000Y-79200000D02*
X223030000Y-79200000D01*
X228800000Y-79200000D02*
X230920000Y-79200000D01*
X229628315Y-76224265D02*
X229919265Y-75933315D01*
%TO.N,/seven-segment-display/BCD_out2*%
X223090000Y-81800000D02*
X222900000Y-81610000D01*
X248578315Y-94273815D02*
X248800000Y-94495500D01*
X240300000Y-81660000D02*
X241325000Y-81660000D01*
X256000000Y-95470000D02*
X256250000Y-95220000D01*
X231000000Y-81660000D02*
X228340000Y-81660000D01*
X256000000Y-96400000D02*
X256000000Y-95470000D01*
X236000000Y-81800000D02*
X236140000Y-81660000D01*
X228340000Y-81660000D02*
X228200000Y-81800000D01*
X248578315Y-90461045D02*
X248578315Y-94273815D01*
X245000000Y-86882730D02*
X248578315Y-90461045D01*
X241325000Y-81660000D02*
X245000000Y-85335000D01*
X245000000Y-85335000D02*
X245000000Y-86882730D01*
X224800000Y-81800000D02*
X223090000Y-81800000D01*
X222900000Y-81610000D02*
X213600000Y-81610000D01*
X236140000Y-81660000D02*
X240300000Y-81660000D01*
%TO.N,/seven-segment-display/BCD_out3*%
X245022845Y-95866685D02*
X244175500Y-95019340D01*
X240300000Y-84200000D02*
X235800000Y-84200000D01*
X228600000Y-84000000D02*
X230800000Y-84000000D01*
X225000000Y-84400000D02*
X223150000Y-84400000D01*
X230800000Y-84000000D02*
X231000000Y-84200000D01*
X223150000Y-84400000D02*
X222900000Y-84150000D01*
X253277155Y-95866685D02*
X245022845Y-95866685D01*
X256250000Y-93950000D02*
X255193840Y-93950000D01*
X219350000Y-84150000D02*
X219600000Y-84400000D01*
X255193840Y-93950000D02*
X253277155Y-95866685D01*
X213600000Y-84150000D02*
X219350000Y-84150000D01*
X242400000Y-84200000D02*
X240300000Y-84200000D01*
X244175500Y-95019340D02*
X244175500Y-91600000D01*
%TO.N,/seven-segment-display/BCD_out4*%
X242621685Y-87742489D02*
X242621685Y-88257511D01*
X238800000Y-86600000D02*
X240160000Y-86600000D01*
D65*
X253200000Y-90600000D02*
X254930000Y-88870000D01*
D67*
X215510000Y-86690000D02*
X215800000Y-86400000D01*
X230940000Y-86800000D02*
X231000000Y-86740000D01*
X225200000Y-86800000D02*
X223010000Y-86800000D01*
X232660000Y-86740000D02*
X233200000Y-86200000D01*
X231000000Y-86740000D02*
X232660000Y-86740000D01*
X242621685Y-88257511D02*
X241875881Y-89003315D01*
X223010000Y-86800000D02*
X222900000Y-86690000D01*
X234439540Y-86740000D02*
X231000000Y-86740000D01*
X213600000Y-86690000D02*
X215510000Y-86690000D01*
X241619196Y-86740000D02*
X242621685Y-87742489D01*
X236702855Y-89003315D02*
X234439540Y-86740000D01*
D65*
X240300000Y-86740000D02*
X243740000Y-86740000D01*
X254930000Y-88870000D02*
X256250000Y-88870000D01*
D67*
X229000000Y-86800000D02*
X230940000Y-86800000D01*
X240300000Y-86740000D02*
X241619196Y-86740000D01*
X240160000Y-86600000D02*
X240300000Y-86740000D01*
X241875881Y-89003315D02*
X236702855Y-89003315D01*
D65*
X243740000Y-86740000D02*
X246800000Y-89800000D01*
D67*
%TO.N,_ones*%
X215000000Y-70350000D02*
X215000000Y-75200000D01*
X258057511Y-116821685D02*
X257542489Y-116821685D01*
X217600000Y-77800000D02*
X222900000Y-77800000D01*
X223214799Y-78114799D02*
X222900000Y-77800000D01*
X257542489Y-116821685D02*
X256200000Y-115479196D01*
X258750000Y-114000000D02*
X258750000Y-116129196D01*
X218325000Y-68000000D02*
X217350000Y-68000000D01*
X258750000Y-116129196D02*
X258057511Y-116821685D01*
X217350000Y-68000000D02*
X215000000Y-70350000D01*
X215000000Y-75200000D02*
X217600000Y-77800000D01*
X224485201Y-78114799D02*
X223214799Y-78114799D01*
X256200000Y-115479196D02*
X256200000Y-114800000D01*
%TO.N,/seven-segment-display/COUNT_1*%
X237275000Y-66675000D02*
X237600000Y-67000000D01*
X244000000Y-70400000D02*
X244350000Y-70050000D01*
X244350000Y-70050000D02*
X258200000Y-70050000D01*
X236689500Y-64164500D02*
X225600000Y-64164500D01*
X237275000Y-64750000D02*
X236689500Y-64164500D01*
X237275000Y-65725000D02*
X237275000Y-64750000D01*
X218325000Y-66730000D02*
X220994500Y-66730000D01*
X220994500Y-66730000D02*
X221724500Y-66000000D01*
X237275000Y-65725000D02*
X237275000Y-66675000D01*
%TO.N,/seven-segment-display/COUNT_0*%
X239291685Y-64978315D02*
X256709473Y-64978315D01*
X218325000Y-64190000D02*
X221597580Y-64190000D01*
X260331158Y-68600000D02*
X260600000Y-68600000D01*
X238545000Y-64745000D02*
X238545000Y-65725000D01*
X259175000Y-71320000D02*
X258200000Y-71320000D01*
X221597580Y-64190000D02*
X222244265Y-63543315D01*
X260600000Y-68600000D02*
X260600000Y-69895000D01*
X260600000Y-69895000D02*
X259175000Y-71320000D01*
X225493315Y-63543315D02*
X237343315Y-63543315D01*
X222250000Y-63000000D02*
X222244265Y-63005735D01*
X222244265Y-63543315D02*
X222244265Y-63005735D01*
X256709473Y-64978315D02*
X260331158Y-68600000D01*
X225050000Y-63100000D02*
X225493315Y-63543315D01*
X238545000Y-65725000D02*
X239291685Y-64978315D01*
X237343315Y-63543315D02*
X238545000Y-64745000D01*
%TO.N,/seven-segment-display/COUNT_2*%
X233000000Y-69000000D02*
X227697730Y-69000000D01*
X218395000Y-69200000D02*
X218325000Y-69270000D01*
X246311510Y-72590000D02*
X258200000Y-72590000D01*
X227697730Y-69000000D02*
X225297730Y-71400000D01*
X236005000Y-65725000D02*
X236005000Y-67152130D01*
X237105000Y-67800000D02*
X237600000Y-67800000D01*
X236005000Y-67152130D02*
X235357130Y-67800000D01*
X236005000Y-66700000D02*
X237105000Y-67800000D01*
X236005000Y-65725000D02*
X236005000Y-66700000D01*
X245560755Y-71839245D02*
X246311510Y-72590000D01*
X219600000Y-69200000D02*
X218395000Y-69200000D01*
X225297730Y-71400000D02*
X225000000Y-71400000D01*
%TO.N,/seven-segment-display/COUNT_3*%
X258200000Y-76400000D02*
X248800000Y-76400000D01*
X234000000Y-67200000D02*
X234735000Y-66465000D01*
X234735000Y-66465000D02*
X234735000Y-65725000D01*
X228400000Y-67600000D02*
X231756510Y-67600000D01*
X238378315Y-68421685D02*
X234735000Y-68421685D01*
X248800000Y-76400000D02*
X242200000Y-69800000D01*
X231756510Y-67600000D02*
X232378255Y-68221745D01*
X223275000Y-70540000D02*
X225460000Y-70540000D01*
X234735000Y-68421685D02*
X234735000Y-65725000D01*
X239000000Y-67800000D02*
X238378315Y-68421685D01*
X225460000Y-70540000D02*
X228400000Y-67600000D01*
%TO.N,_tens*%
X257338129Y-117315055D02*
X255400000Y-115376926D01*
X231001185Y-76578815D02*
X231000000Y-76580000D01*
X259250000Y-116326926D02*
X258261871Y-117315055D01*
X232800000Y-76578815D02*
X231001185Y-76578815D01*
X217260000Y-70540000D02*
X218325000Y-70540000D01*
X216600000Y-71200000D02*
X217260000Y-70540000D01*
X259250000Y-114000000D02*
X259250000Y-116326926D01*
X255400000Y-115376926D02*
X255400000Y-115200000D01*
X258261871Y-117315055D02*
X257338129Y-117315055D01*
D65*
%TO.N,_hundreds*%
X259750000Y-113161458D02*
X259750000Y-114000000D01*
X259378307Y-112789765D02*
X259750000Y-113161458D01*
D67*
X233400000Y-75297157D02*
X236828315Y-75297157D01*
X236828315Y-75297157D02*
X239381158Y-77850000D01*
X223275000Y-71810000D02*
X226762157Y-75297157D01*
X226762157Y-75297157D02*
X233400000Y-75297157D01*
X239381158Y-77850000D02*
X240300000Y-77850000D01*
D65*
X259378307Y-112361259D02*
X259378307Y-112789765D01*
D67*
%TO.N,e*%
X251100000Y-85500000D02*
X249800000Y-84200000D01*
X237535000Y-57884388D02*
X237535000Y-56525000D01*
X240600000Y-62100000D02*
X240600000Y-60949388D01*
X240600000Y-60949388D02*
X237535000Y-57884388D01*
X241200000Y-63200000D02*
X241200000Y-62700000D01*
X241200000Y-62700000D02*
X240600000Y-62100000D01*
X251100000Y-86330000D02*
X251100000Y-85500000D01*
%TO.N,d*%
X237628315Y-59158315D02*
X234995000Y-56525000D01*
X239150000Y-63000000D02*
X238200000Y-62050000D01*
X238200000Y-62050000D02*
X237628315Y-61478315D01*
X251100000Y-87600000D02*
X250225000Y-87600000D01*
X239800000Y-63000000D02*
X239150000Y-63000000D01*
X250225000Y-87600000D02*
X248400000Y-85775000D01*
X237628315Y-61478315D02*
X237628315Y-59158315D01*
X248400000Y-85775000D02*
X248400000Y-84200000D01*
%TO.N,c*%
X236500000Y-62100000D02*
X236600000Y-62000000D01*
X235228315Y-61528315D02*
X235228315Y-59298315D01*
X247600000Y-86245000D02*
X250225000Y-88870000D01*
X247600000Y-84400000D02*
X247600000Y-86245000D01*
X235228315Y-59298315D02*
X232455000Y-56525000D01*
X235800000Y-62100000D02*
X235228315Y-61528315D01*
X250225000Y-88870000D02*
X251100000Y-88870000D01*
X235800000Y-62100000D02*
X236500000Y-62100000D01*
%TO.N,b*%
X234600000Y-62125500D02*
X233425500Y-62125500D01*
X251100000Y-90140000D02*
X250225000Y-90140000D01*
X233425500Y-62125500D02*
X233400000Y-62100000D01*
X250225000Y-90140000D02*
X246800000Y-86715000D01*
X229915000Y-57464388D02*
X229915000Y-56525000D01*
X246800000Y-86715000D02*
X246800000Y-84400000D01*
X233400000Y-60949388D02*
X229915000Y-57464388D01*
X233400000Y-62100000D02*
X233400000Y-60949388D01*
%TO.N,a*%
X231000000Y-62100000D02*
X231000000Y-61800000D01*
X232174500Y-62100000D02*
X232200000Y-62125500D01*
X231000000Y-62100000D02*
X232174500Y-62100000D01*
X245600000Y-86785000D02*
X250225000Y-91410000D01*
X245600000Y-84400000D02*
X245600000Y-86785000D01*
X231000000Y-61800000D02*
X227375000Y-58175000D01*
X250225000Y-91410000D02*
X251100000Y-91410000D01*
X227375000Y-58175000D02*
X227375000Y-56525000D01*
%TO.N,g*%
X240000000Y-49150000D02*
X240673568Y-49823568D01*
X251100000Y-92680000D02*
X250280000Y-92680000D01*
X250280000Y-92680000D02*
X249200000Y-91600000D01*
X240673568Y-53386432D02*
X240075000Y-53985000D01*
X240673568Y-49823568D02*
X240673568Y-53386432D01*
%TO.N,f*%
X251100000Y-93950000D02*
X252050000Y-93950000D01*
X242628315Y-61478315D02*
X242628315Y-59078315D01*
X252050000Y-93950000D02*
X252600000Y-93400000D01*
X243350000Y-62200000D02*
X243200000Y-62050000D01*
X242628315Y-59078315D02*
X240075000Y-56525000D01*
X244600000Y-62200000D02*
X243350000Y-62200000D01*
X243200000Y-62050000D02*
X242628315Y-61478315D01*
%TO.N,dp*%
X237600000Y-49150000D02*
X238171685Y-49721685D01*
X238171685Y-53348315D02*
X237535000Y-53985000D01*
X238171685Y-49721685D02*
X238171685Y-53348315D01*
D66*
%TO.N,/power/LDO2_LED_K*%
X232737500Y-91400000D02*
X233000000Y-91137500D01*
X230625000Y-91400000D02*
X232737500Y-91400000D01*
D65*
%TO.N,/seven-segment-display/4017_RST*%
X262175000Y-70050000D02*
X261200000Y-71025000D01*
X263150000Y-70050000D02*
X262175000Y-70050000D01*
X261200000Y-75425000D02*
X262175000Y-76400000D01*
X262175000Y-76400000D02*
X263150000Y-76400000D01*
X261200000Y-71025000D02*
X261200000Y-75425000D01*
%TO.N,/seven-segment-display/4017_TC*%
X263150000Y-73860000D02*
X265530000Y-73860000D01*
X265530000Y-73860000D02*
X267400000Y-71990000D01*
%TO.N,/mcu/BOOT_JUMPER*%
X270500000Y-101500000D02*
X268560000Y-99560000D01*
X270056470Y-94430000D02*
X271803530Y-94430000D01*
X272270000Y-94896470D02*
X272270000Y-98700000D01*
X271803530Y-94430000D02*
X272270000Y-94896470D01*
X271099500Y-101500000D02*
X270500000Y-101500000D01*
X273070000Y-105870000D02*
X273400000Y-105540000D01*
X268560000Y-95926470D02*
X270056470Y-94430000D01*
X271810000Y-105870000D02*
X273070000Y-105870000D01*
X268560000Y-99560000D02*
X268560000Y-95926470D01*
D66*
%TO.N,Unfiltered_5V*%
X208700000Y-103735000D02*
X210827500Y-103735000D01*
X213950000Y-106450000D02*
X214000000Y-106500000D01*
X212862500Y-102812500D02*
X213950000Y-103900000D01*
X210827500Y-103735000D02*
X211750000Y-102812500D01*
X211750000Y-102812500D02*
X212862500Y-102812500D01*
X213950000Y-103900000D02*
X213950000Y-106450000D01*
%TO.N,/mcu/MCU_LED1-K*%
X244070000Y-110472500D02*
X244070000Y-110125000D01*
X244070000Y-110125000D02*
X246670000Y-107525000D01*
D67*
%TO.N,/mcu/MCU_LED1*%
X256981842Y-113212000D02*
X255993842Y-114200000D01*
X265662500Y-108587500D02*
X262978815Y-108587500D01*
X255993842Y-114200000D02*
X253800000Y-114200000D01*
X247200000Y-112000000D02*
X247200000Y-111030000D01*
X247200000Y-111030000D02*
X246670000Y-110500000D01*
X257442870Y-113212000D02*
X256981842Y-113212000D01*
X262978815Y-108587500D02*
X262600000Y-108966315D01*
D66*
%TO.N,/mcu/MCU_LED2-K*%
X237450000Y-110482500D02*
X239985000Y-110482500D01*
X239985000Y-110482500D02*
X240000000Y-110497500D01*
D67*
%TO.N,/mcu/MCU_LED2*%
X240300000Y-108800000D02*
X240300000Y-107822500D01*
X240300000Y-107822500D02*
X240000000Y-107522500D01*
D65*
%TO.N,/power/5V-Jumper*%
X208600000Y-109400000D02*
X208600000Y-106375000D01*
D66*
X205750000Y-103325000D02*
X205750000Y-101562500D01*
X208700000Y-106275000D02*
X205750000Y-103325000D01*
D65*
X208600000Y-106375000D02*
X208700000Y-106275000D01*
D67*
%TO.N,/mcu/JUMPER_NRST*%
X268914738Y-103200000D02*
X269314738Y-103600000D01*
X275136841Y-100750000D02*
X277900000Y-100750000D01*
X269314738Y-103600000D02*
X277137500Y-103600000D01*
X277137500Y-103600000D02*
X277900000Y-102837500D01*
X274874500Y-101012341D02*
X275136841Y-100750000D01*
D65*
%TO.N,/mcu/MCU_NRST*%
X261250000Y-106513542D02*
X261936458Y-107200000D01*
X263180000Y-84300000D02*
X260660000Y-81780000D01*
X261936458Y-107200000D02*
X262200000Y-107200000D01*
X260660000Y-81780000D02*
X260660000Y-80510000D01*
X261250000Y-105675000D02*
X261250000Y-106513542D01*
%TD*%
%TA.AperFunction,Conductor*%
%TO.N,/power/PowerIn-*%
G36*
X201642539Y-116019685D02*
G01*
X201688294Y-116072489D01*
X201699500Y-116124000D01*
X201699500Y-116265696D01*
X201702401Y-116302567D01*
X201702402Y-116302573D01*
X201748254Y-116460393D01*
X201748255Y-116460396D01*
X201748256Y-116460398D01*
X201782732Y-116518694D01*
X201800000Y-116581814D01*
X201800000Y-127876000D01*
X201780315Y-127943039D01*
X201727511Y-127988794D01*
X201676000Y-128000000D01*
X195924000Y-128000000D01*
X195856961Y-127980315D01*
X195811206Y-127927511D01*
X195800000Y-127876000D01*
X195800000Y-119924000D01*
X195819685Y-119856961D01*
X195872489Y-119811206D01*
X195924000Y-119800000D01*
X196257130Y-119800000D01*
X196298287Y-119809122D01*
X196298811Y-119807542D01*
X196305664Y-119809812D01*
X196305666Y-119809814D01*
X196472203Y-119864999D01*
X196574991Y-119875500D01*
X197300008Y-119875499D01*
X197300016Y-119875498D01*
X197300019Y-119875498D01*
X197356302Y-119869748D01*
X197402797Y-119864999D01*
X197569334Y-119809814D01*
X197569335Y-119809812D01*
X197576189Y-119807542D01*
X197576712Y-119809122D01*
X197617870Y-119800000D01*
X199000000Y-119800000D01*
X199000000Y-116124000D01*
X199019685Y-116056961D01*
X199072489Y-116011206D01*
X199124000Y-116000000D01*
X201575500Y-116000000D01*
X201642539Y-116019685D01*
G37*
%TD.AperFunction*%
%TD*%
%TA.AperFunction,Conductor*%
%TO.N,/power/POL-FET-D*%
G36*
X194978819Y-123297245D02*
G01*
X195045392Y-123318448D01*
X195089936Y-123372278D01*
X195100000Y-123421213D01*
X195100000Y-132800000D01*
X201100000Y-132800000D01*
X201100000Y-130324000D01*
X201119685Y-130256961D01*
X201172489Y-130211206D01*
X201224000Y-130200000D01*
X203367048Y-130200000D01*
X203434087Y-130219685D01*
X203479842Y-130272489D01*
X203490747Y-130332630D01*
X203207984Y-134385551D01*
X203183682Y-134451058D01*
X203127821Y-134493027D01*
X203085277Y-134500917D01*
X190824992Y-134599000D01*
X190757797Y-134579852D01*
X190711621Y-134527416D01*
X190700000Y-134475004D01*
X190700000Y-123326850D01*
X190719685Y-123259811D01*
X190772489Y-123214056D01*
X190826816Y-123202882D01*
X194978819Y-123297245D01*
G37*
%TD.AperFunction*%
%TD*%
%TA.AperFunction,Conductor*%
%TO.N,Unfiltered_5V*%
G36*
X214844849Y-102019685D02*
G01*
X214890604Y-102072489D01*
X214901099Y-102137256D01*
X214899500Y-102152119D01*
X214899500Y-102152135D01*
X214899501Y-105626000D01*
X214879816Y-105693039D01*
X214827012Y-105738794D01*
X214775501Y-105750000D01*
X213274499Y-105750000D01*
X213207460Y-105730315D01*
X213161705Y-105677511D01*
X213150499Y-105626000D01*
X213150499Y-105474998D01*
X213150498Y-105474981D01*
X213139999Y-105372203D01*
X213139998Y-105372200D01*
X213121878Y-105317517D01*
X213084814Y-105205666D01*
X213084810Y-105205659D01*
X213018461Y-105098089D01*
X213000000Y-105032993D01*
X213000000Y-104250000D01*
X207874000Y-104250000D01*
X207806961Y-104230315D01*
X207761206Y-104177511D01*
X207750000Y-104126000D01*
X207750000Y-102124000D01*
X207769685Y-102056961D01*
X207822489Y-102011206D01*
X207874000Y-102000000D01*
X214777810Y-102000000D01*
X214844849Y-102019685D01*
G37*
%TD.AperFunction*%
%TD*%
%TA.AperFunction,Conductor*%
%TO.N,/power/5V-Jumper*%
G36*
X204292540Y-98519685D02*
G01*
X204338295Y-98572489D01*
X204349501Y-98624000D01*
X204349501Y-98900018D01*
X204360000Y-99002796D01*
X204360001Y-99002799D01*
X204387289Y-99085147D01*
X204415186Y-99169334D01*
X204481539Y-99276910D01*
X204500000Y-99342006D01*
X204500000Y-100000000D01*
X206626000Y-100000000D01*
X206693039Y-100019685D01*
X206738794Y-100072489D01*
X206750000Y-100124000D01*
X206750000Y-105000000D01*
X208190011Y-105000000D01*
X208232424Y-105007479D01*
X208236337Y-105008903D01*
X208464592Y-105070063D01*
X208652918Y-105086539D01*
X208699999Y-105090659D01*
X208700000Y-105090659D01*
X208700001Y-105090659D01*
X208739234Y-105087226D01*
X208935408Y-105070063D01*
X209163663Y-105008903D01*
X209163666Y-105008901D01*
X209167576Y-105007479D01*
X209209989Y-105000000D01*
X209626000Y-105000000D01*
X209693039Y-105019685D01*
X209738794Y-105072489D01*
X209750000Y-105124000D01*
X209750000Y-107126000D01*
X209730315Y-107193039D01*
X209677511Y-107238794D01*
X209626000Y-107250000D01*
X207184415Y-107250000D01*
X207117376Y-107230315D01*
X207103212Y-107219712D01*
X207016339Y-107144435D01*
X207016331Y-107144430D01*
X206885465Y-107084664D01*
X206885460Y-107084662D01*
X206885459Y-107084662D01*
X206862858Y-107078025D01*
X206818425Y-107064978D01*
X206818419Y-107064976D01*
X206732966Y-107052690D01*
X206676000Y-107044500D01*
X206675998Y-107044500D01*
X205124000Y-107044500D01*
X205056961Y-107024815D01*
X205011206Y-106972011D01*
X205000000Y-106920500D01*
X205000000Y-102500000D01*
X204124000Y-102500000D01*
X204056961Y-102480315D01*
X204011206Y-102427511D01*
X204000000Y-102376000D01*
X204000000Y-102000000D01*
X202849467Y-102000000D01*
X202782428Y-101980315D01*
X202757317Y-101958972D01*
X202672235Y-101864478D01*
X202672232Y-101864476D01*
X202672231Y-101864475D01*
X202672230Y-101864474D01*
X202527593Y-101759388D01*
X202527592Y-101759387D01*
X202429064Y-101715519D01*
X202375827Y-101670269D01*
X202355506Y-101603419D01*
X202355500Y-101602240D01*
X202355500Y-98624000D01*
X202375185Y-98556961D01*
X202427989Y-98511206D01*
X202479500Y-98500000D01*
X204225501Y-98500000D01*
X204292540Y-98519685D01*
G37*
%TD.AperFunction*%
%TD*%
%TA.AperFunction,Conductor*%
%TO.N,blue*%
G36*
X223253039Y-93209685D02*
G01*
X223298794Y-93262489D01*
X223310000Y-93314000D01*
X223310000Y-94556600D01*
X223290315Y-94623639D01*
X223237511Y-94669394D01*
X223186602Y-94680599D01*
X221250000Y-94690000D01*
X221250000Y-102676000D01*
X221230315Y-102743039D01*
X221177511Y-102788794D01*
X221126000Y-102800000D01*
X215874000Y-102800000D01*
X215806961Y-102780315D01*
X215761206Y-102727511D01*
X215750000Y-102676000D01*
X215750000Y-93314000D01*
X215769685Y-93246961D01*
X215822489Y-93201206D01*
X215874000Y-93190000D01*
X223186000Y-93190000D01*
X223253039Y-93209685D01*
G37*
%TD.AperFunction*%
%TD*%
%TA.AperFunction,Conductor*%
%TO.N,/power/12V-Unfiltered*%
G36*
X202187773Y-107019685D02*
G01*
X202226267Y-107058895D01*
X202231533Y-107067432D01*
X202250000Y-107132536D01*
X202250000Y-107550000D01*
X206676000Y-107550000D01*
X206743039Y-107569685D01*
X206788794Y-107622489D01*
X206800000Y-107674000D01*
X206800000Y-115250000D01*
X203031815Y-115250000D01*
X202968694Y-115232732D01*
X202910396Y-115198255D01*
X202910393Y-115198254D01*
X202752573Y-115152402D01*
X202752567Y-115152401D01*
X202715696Y-115149500D01*
X202715694Y-115149500D01*
X202284306Y-115149500D01*
X202284304Y-115149500D01*
X202247432Y-115152401D01*
X202247426Y-115152402D01*
X202089606Y-115198254D01*
X202089603Y-115198255D01*
X202031306Y-115232732D01*
X201968185Y-115250000D01*
X201724000Y-115250000D01*
X201656961Y-115230315D01*
X201611206Y-115177511D01*
X201600000Y-115126000D01*
X201600000Y-111849999D01*
X201599999Y-111849999D01*
X200278273Y-111895576D01*
X200210595Y-111878214D01*
X200163048Y-111827018D01*
X200150000Y-111771650D01*
X200150000Y-107124000D01*
X200169685Y-107056961D01*
X200222489Y-107011206D01*
X200274000Y-107000000D01*
X202120734Y-107000000D01*
X202187773Y-107019685D01*
G37*
%TD.AperFunction*%
%TD*%
%TA.AperFunction,Conductor*%
%TO.N,+12V*%
G36*
X201793039Y-97719685D02*
G01*
X201838794Y-97772489D01*
X201850000Y-97824000D01*
X201850000Y-101599793D01*
X201830315Y-101666832D01*
X201777511Y-101712587D01*
X201776496Y-101713044D01*
X201747386Y-101726005D01*
X201714792Y-101740517D01*
X201645542Y-101749801D01*
X201621025Y-101743419D01*
X201587482Y-101730908D01*
X201587483Y-101730908D01*
X201527883Y-101724501D01*
X201527881Y-101724500D01*
X201527873Y-101724500D01*
X201527864Y-101724500D01*
X199872129Y-101724500D01*
X199872123Y-101724501D01*
X199812516Y-101730908D01*
X199677671Y-101781202D01*
X199677664Y-101781206D01*
X199562455Y-101867452D01*
X199562452Y-101867455D01*
X199476206Y-101982664D01*
X199476202Y-101982671D01*
X199425910Y-102117513D01*
X199425909Y-102117517D01*
X199419500Y-102177127D01*
X199419500Y-102177134D01*
X199419500Y-102177135D01*
X199419500Y-102922870D01*
X199419501Y-102922876D01*
X199425908Y-102982483D01*
X199476202Y-103117328D01*
X199476206Y-103117335D01*
X199562452Y-103232544D01*
X199562455Y-103232547D01*
X199677664Y-103318793D01*
X199677671Y-103318797D01*
X199812517Y-103369091D01*
X199812516Y-103369091D01*
X199819444Y-103369835D01*
X199872127Y-103375500D01*
X201527872Y-103375499D01*
X201587483Y-103369091D01*
X201606251Y-103362091D01*
X201682667Y-103333590D01*
X201752359Y-103328606D01*
X201813682Y-103362091D01*
X201847166Y-103423415D01*
X201850000Y-103449772D01*
X201850000Y-104576000D01*
X201830315Y-104643039D01*
X201777511Y-104688794D01*
X201726000Y-104700000D01*
X199900000Y-104700000D01*
X199884966Y-106579159D01*
X199864746Y-106646039D01*
X199842178Y-106671875D01*
X199838656Y-106674927D01*
X199744433Y-106783664D01*
X199744430Y-106783668D01*
X199684664Y-106914534D01*
X199664978Y-106981575D01*
X199664976Y-106981580D01*
X199644500Y-107124001D01*
X199644500Y-110826000D01*
X199624815Y-110893039D01*
X199572011Y-110938794D01*
X199520500Y-110950000D01*
X197343516Y-110950000D01*
X197304512Y-110943706D01*
X197264100Y-110930315D01*
X197202797Y-110910001D01*
X197202795Y-110910000D01*
X197100010Y-110899500D01*
X195699998Y-110899500D01*
X195699981Y-110899501D01*
X195597203Y-110910000D01*
X195597200Y-110910001D01*
X195495488Y-110943706D01*
X195456484Y-110950000D01*
X189124000Y-110950000D01*
X189056961Y-110930315D01*
X189011206Y-110877511D01*
X189000000Y-110826000D01*
X189000000Y-100474000D01*
X189019685Y-100406961D01*
X189072489Y-100361206D01*
X189124000Y-100350000D01*
X197400000Y-100350000D01*
X197400000Y-97824000D01*
X197419685Y-97756961D01*
X197472489Y-97711206D01*
X197524000Y-97700000D01*
X201726000Y-97700000D01*
X201793039Y-97719685D01*
G37*
%TD.AperFunction*%
%TD*%
%TA.AperFunction,Conductor*%
%TO.N,/power/12V-Unfiltered*%
G36*
X206800000Y-117076000D02*
G01*
X206780315Y-117143039D01*
X206727511Y-117188794D01*
X206676000Y-117200000D01*
X206450000Y-117200000D01*
X206403996Y-123226447D01*
X206383801Y-123293334D01*
X206330649Y-123338684D01*
X206280000Y-123349500D01*
X204024000Y-123349500D01*
X203956961Y-123329815D01*
X203911206Y-123277011D01*
X203900000Y-123225500D01*
X203900000Y-118224000D01*
X203919685Y-118156961D01*
X203972489Y-118111206D01*
X204024000Y-118100000D01*
X204699999Y-118100000D01*
X204700000Y-118100000D01*
X204650000Y-115250000D01*
X206800000Y-115250000D01*
X206800000Y-117076000D01*
G37*
%TD.AperFunction*%
%TD*%
M02*
