%TF.GenerationSoftware,KiCad,Pcbnew,7.0.8*%
%TF.CreationDate,2024-04-05T12:05:25+02:00*%
%TF.ProjectId,menelaos-rev-4,6d656e65-6c61-46f7-932d-7265762d342e,rev?*%
%TF.SameCoordinates,Original*%
%TF.FileFunction,Soldermask,Bot*%
%TF.FilePolarity,Negative*%
%FSLAX46Y46*%
G04 Gerber Fmt 4.6, Leading zero omitted, Abs format (unit mm)*
G04 Created by KiCad (PCBNEW 7.0.8) date 2024-04-05 12:05:25*
%MOMM*%
%LPD*%
G01*
G04 APERTURE LIST*
%ADD10R,1.500000X3.000000*%
%ADD11O,1.500000X3.000000*%
%ADD12R,1.700000X1.700000*%
%ADD13O,1.700000X1.700000*%
%ADD14R,1.000000X1.000000*%
%ADD15R,4.000000X4.000000*%
%ADD16C,4.000000*%
%ADD17O,1.100000X2.100000*%
%ADD18O,1.100000X2.600000*%
G04 APERTURE END LIST*
D10*
%TO.C,J501*%
X227200000Y-127250000D03*
X227200000Y-132250000D03*
D11*
X232200000Y-127250000D03*
X232200000Y-132250000D03*
X237200000Y-127250000D03*
X237200000Y-132250000D03*
X242200000Y-127250000D03*
X242200000Y-132250000D03*
X247200000Y-127250000D03*
X247200000Y-132250000D03*
%TD*%
D10*
%TO.C,J201*%
X192150000Y-125150000D03*
X192150000Y-130150000D03*
D11*
X197150000Y-125150000D03*
X197150000Y-130150000D03*
%TD*%
D12*
%TO.C,J401*%
X267500000Y-74600000D03*
D13*
X267500000Y-72060000D03*
X267500000Y-69520000D03*
%TD*%
D10*
%TO.C,J601*%
X197500000Y-61400000D03*
X197500000Y-56400000D03*
D11*
X192500000Y-61400000D03*
X192500000Y-56400000D03*
%TD*%
D12*
%TO.C,J402*%
X227375000Y-56525000D03*
D13*
X229915000Y-56525000D03*
X232455000Y-56525000D03*
X234995000Y-56525000D03*
X237535000Y-56525000D03*
X240075000Y-56525000D03*
X242615000Y-56525000D03*
X242615000Y-53985000D03*
X240075000Y-53985000D03*
X237535000Y-53985000D03*
X234995000Y-53985000D03*
X232455000Y-53985000D03*
X229915000Y-53985000D03*
X227375000Y-53985000D03*
%TD*%
D14*
%TO.C,TP303*%
X269600000Y-110600000D03*
%TD*%
%TO.C,TP401*%
X265200000Y-66200000D03*
%TD*%
D12*
%TO.C,J301*%
X271050000Y-79120000D03*
D13*
X273590000Y-79120000D03*
X271050000Y-81660000D03*
X273590000Y-81660000D03*
X271050000Y-84200000D03*
X273590000Y-84200000D03*
X271050000Y-86740000D03*
X273590000Y-86740000D03*
X271050000Y-89280000D03*
X273590000Y-89280000D03*
%TD*%
D14*
%TO.C,TP206*%
X222900000Y-90600000D03*
%TD*%
%TO.C,TP203*%
X208600000Y-109400000D03*
%TD*%
D12*
%TO.C,J303*%
X216900000Y-124200000D03*
D13*
X216900000Y-126740000D03*
X216900000Y-129280000D03*
X216900000Y-131820000D03*
X216900000Y-134360000D03*
%TD*%
D12*
%TO.C,JP201*%
X208700000Y-106275000D03*
D13*
X208700000Y-103735000D03*
%TD*%
D12*
%TO.C,JP304*%
X258120000Y-80510000D03*
D13*
X260660000Y-80510000D03*
X263200000Y-80510000D03*
%TD*%
D12*
%TO.C,JP303*%
X263180000Y-86840000D03*
D13*
X263180000Y-84300000D03*
%TD*%
D14*
%TO.C,TP301*%
X267500000Y-93900000D03*
%TD*%
%TO.C,TP202*%
X192400000Y-112100000D03*
%TD*%
%TO.C,TP205*%
X241400000Y-99400000D03*
%TD*%
%TO.C,TP302*%
X256500000Y-99900000D03*
%TD*%
D10*
%TO.C,J602*%
X270250000Y-125150000D03*
X270250000Y-130150000D03*
D11*
X275250000Y-125150000D03*
X275250000Y-130150000D03*
%TD*%
D14*
%TO.C,TP204*%
X235200000Y-118000000D03*
%TD*%
D10*
%TO.C,J603*%
X275650000Y-61300000D03*
X275650000Y-56300000D03*
D11*
X270650000Y-61300000D03*
X270650000Y-56300000D03*
%TD*%
D12*
%TO.C,JP301*%
X274840000Y-98500000D03*
D13*
X272300000Y-98500000D03*
X269760000Y-98500000D03*
%TD*%
D15*
%TO.C,C211*%
X196772169Y-79570000D03*
D16*
X201772169Y-79570000D03*
%TD*%
D12*
%TO.C,JP302*%
X253750000Y-120250000D03*
D13*
X253750000Y-122790000D03*
%TD*%
D17*
%TO.C,J302*%
X254430000Y-131610000D03*
D18*
X254430000Y-136970000D03*
D17*
X263070000Y-131610000D03*
D18*
X263070000Y-136970000D03*
%TD*%
D14*
%TO.C,TP201*%
X204200000Y-116900000D03*
%TD*%
M02*
