%TF.GenerationSoftware,KiCad,Pcbnew,7.0.8*%
%TF.CreationDate,2024-04-05T12:05:25+02:00*%
%TF.ProjectId,menelaos-rev-4,6d656e65-6c61-46f7-932d-7265762d342e,rev?*%
%TF.SameCoordinates,Original*%
%TF.FileFunction,Copper,L4,Bot*%
%TF.FilePolarity,Positive*%
%FSLAX46Y46*%
G04 Gerber Fmt 4.6, Leading zero omitted, Abs format (unit mm)*
G04 Created by KiCad (PCBNEW 7.0.8) date 2024-04-05 12:05:25*
%MOMM*%
%LPD*%
G01*
G04 APERTURE LIST*
%TA.AperFunction,ComponentPad*%
%ADD10R,1.500000X3.000000*%
%TD*%
%TA.AperFunction,ComponentPad*%
%ADD11O,1.500000X3.000000*%
%TD*%
%TA.AperFunction,ComponentPad*%
%ADD12R,1.700000X1.700000*%
%TD*%
%TA.AperFunction,ComponentPad*%
%ADD13O,1.700000X1.700000*%
%TD*%
%TA.AperFunction,ComponentPad*%
%ADD14R,1.000000X1.000000*%
%TD*%
%TA.AperFunction,ComponentPad*%
%ADD15R,4.000000X4.000000*%
%TD*%
%TA.AperFunction,ComponentPad*%
%ADD16C,4.000000*%
%TD*%
%TA.AperFunction,ComponentPad*%
%ADD17O,1.100000X2.100000*%
%TD*%
%TA.AperFunction,ComponentPad*%
%ADD18O,1.100000X2.600000*%
%TD*%
%TA.AperFunction,ViaPad*%
%ADD19C,0.550000*%
%TD*%
%TA.AperFunction,ViaPad*%
%ADD20C,0.700000*%
%TD*%
%TA.AperFunction,ViaPad*%
%ADD21C,0.800000*%
%TD*%
%TA.AperFunction,Conductor*%
%ADD22C,0.300000*%
%TD*%
%TA.AperFunction,Conductor*%
%ADD23C,0.500000*%
%TD*%
%TA.AperFunction,Conductor*%
%ADD24C,0.293370*%
%TD*%
G04 APERTURE END LIST*
D10*
%TO.P,J501,1*%
%TO.N,red*%
X227200000Y-127250000D03*
X227200000Y-132250000D03*
D11*
%TO.P,J501,2*%
%TO.N,white*%
X232200000Y-127250000D03*
X232200000Y-132250000D03*
%TO.P,J501,3*%
%TO.N,blue*%
X237200000Y-127250000D03*
X237200000Y-132250000D03*
%TO.P,J501,4*%
%TO.N,yellow*%
X242200000Y-127250000D03*
X242200000Y-132250000D03*
%TO.P,J501,5*%
%TO.N,black*%
X247200000Y-127250000D03*
X247200000Y-132250000D03*
%TD*%
D10*
%TO.P,J201,1,Pin_1*%
%TO.N,/power/POL-FET-D*%
X192150000Y-125150000D03*
X192150000Y-130150000D03*
D11*
%TO.P,J201,2,Pin_2*%
%TO.N,/power/PowerIn-*%
X197150000Y-125150000D03*
X197150000Y-130150000D03*
%TD*%
D12*
%TO.P,J401,1,Pin_1*%
%TO.N,blue*%
X267500000Y-74600000D03*
D13*
%TO.P,J401,2,Pin_2*%
%TO.N,/seven-segment-display/4017_TC*%
X267500000Y-72060000D03*
%TO.P,J401,3,Pin_3*%
%TO.N,GND*%
X267500000Y-69520000D03*
%TD*%
D10*
%TO.P,J601,1,Pin_1*%
%TO.N,GND*%
X197500000Y-61400000D03*
X197500000Y-56400000D03*
D11*
%TO.P,J601,2,Pin_2*%
%TO.N,_zero*%
X192500000Y-61400000D03*
X192500000Y-56400000D03*
%TD*%
D12*
%TO.P,J402,1,Pin_1*%
%TO.N,a*%
X227375000Y-56525000D03*
D13*
%TO.P,J402,2,Pin_2*%
%TO.N,b*%
X229915000Y-56525000D03*
%TO.P,J402,3,Pin_3*%
%TO.N,c*%
X232455000Y-56525000D03*
%TO.P,J402,4,Pin_4*%
%TO.N,d*%
X234995000Y-56525000D03*
%TO.P,J402,5,Pin_5*%
%TO.N,e*%
X237535000Y-56525000D03*
%TO.P,J402,6,Pin_6*%
%TO.N,f*%
X240075000Y-56525000D03*
%TO.P,J402,7,Pin_7*%
%TO.N,unconnected-(J402-Pin_7-Pad7)*%
X242615000Y-56525000D03*
%TO.P,J402,8,Pin_8*%
%TO.N,unconnected-(J402-Pin_8-Pad8)*%
X242615000Y-53985000D03*
%TO.P,J402,9,Pin_9*%
%TO.N,g*%
X240075000Y-53985000D03*
%TO.P,J402,10,Pin_10*%
%TO.N,dp*%
X237535000Y-53985000D03*
%TO.P,J402,11,Pin_11*%
%TO.N,ones*%
X234995000Y-53985000D03*
%TO.P,J402,12,Pin_12*%
%TO.N,tens*%
X232455000Y-53985000D03*
%TO.P,J402,13,Pin_13*%
%TO.N,hundreds*%
X229915000Y-53985000D03*
%TO.P,J402,14,Pin_14*%
%TO.N,thousands*%
X227375000Y-53985000D03*
%TD*%
D14*
%TO.P,TP303,1,1*%
%TO.N,/mcu/BOOT0*%
X269600000Y-110600000D03*
%TD*%
%TO.P,TP401,1,1*%
%TO.N,_clk*%
X265200000Y-66200000D03*
%TD*%
D12*
%TO.P,J301,1,Pin_1*%
%TO.N,+3.3V*%
X271050000Y-79120000D03*
D13*
%TO.P,J301,2,Pin_2*%
%TO.N,GND*%
X273590000Y-79120000D03*
%TO.P,J301,3,Pin_3*%
X271050000Y-81660000D03*
%TO.P,J301,4,Pin_4*%
%TO.N,unconnected-(J301-Pin_4-Pad4)*%
X273590000Y-81660000D03*
%TO.P,J301,5,Pin_5*%
%TO.N,GND*%
X271050000Y-84200000D03*
%TO.P,J301,6,Pin_6*%
%TO.N,/mcu/CONN_NRST*%
X273590000Y-84200000D03*
%TO.P,J301,7,Pin_7*%
%TO.N,unconnected-(J301-Pin_7-Pad7)*%
X271050000Y-86740000D03*
%TO.P,J301,8,Pin_8*%
%TO.N,/mcu/CONN_SWO*%
X273590000Y-86740000D03*
%TO.P,J301,9,Pin_9*%
%TO.N,/mcu/CONN_SWCLK*%
X271050000Y-89280000D03*
%TO.P,J301,10,Pin_10*%
%TO.N,/mcu/CONN_SWDIO*%
X273590000Y-89280000D03*
%TD*%
D14*
%TO.P,TP206,1,1*%
%TO.N,+3.3V*%
X222900000Y-90600000D03*
%TD*%
%TO.P,TP203,1,1*%
%TO.N,/power/5V-Jumper*%
X208600000Y-109400000D03*
%TD*%
D12*
%TO.P,J303,1,Pin_1*%
%TO.N,GND*%
X216900000Y-124200000D03*
D13*
%TO.P,J303,2,Pin_2*%
X216900000Y-126740000D03*
%TO.P,J303,3,Pin_3*%
X216900000Y-129280000D03*
%TO.P,J303,4,Pin_4*%
X216900000Y-131820000D03*
%TO.P,J303,5,Pin_5*%
X216900000Y-134360000D03*
%TD*%
D12*
%TO.P,JP201,1,A*%
%TO.N,/power/5V-Jumper*%
X208700000Y-106275000D03*
D13*
%TO.P,JP201,2,B*%
%TO.N,Unfiltered_5V*%
X208700000Y-103735000D03*
%TD*%
D12*
%TO.P,JP304,1,A*%
%TO.N,+3.3V*%
X258120000Y-80510000D03*
D13*
%TO.P,JP304,2,C*%
%TO.N,/mcu/MCU_NRST*%
X260660000Y-80510000D03*
%TO.P,JP304,3,B*%
%TO.N,GND*%
X263200000Y-80510000D03*
%TD*%
D12*
%TO.P,JP303,1,A*%
%TO.N,/mcu/JUMPER_NRST*%
X263180000Y-86840000D03*
D13*
%TO.P,JP303,2,B*%
%TO.N,/mcu/MCU_NRST*%
X263180000Y-84300000D03*
%TD*%
D14*
%TO.P,TP301,1,1*%
%TO.N,/mcu/HSE_IN*%
X267500000Y-93900000D03*
%TD*%
%TO.P,TP202,1,1*%
%TO.N,+12V*%
X192400000Y-112100000D03*
%TD*%
%TO.P,TP205,1,1*%
%TO.N,_save*%
X241400000Y-99400000D03*
%TD*%
%TO.P,TP302,1,1*%
%TO.N,/mcu/HSE_OUT*%
X256500000Y-99900000D03*
%TD*%
D10*
%TO.P,J602,1,Pin_1*%
%TO.N,GND*%
X270250000Y-125150000D03*
X270250000Y-130150000D03*
D11*
%TO.P,J602,2,Pin_2*%
%TO.N,_mode*%
X275250000Y-125150000D03*
X275250000Y-130150000D03*
%TD*%
D14*
%TO.P,TP204,1,1*%
%TO.N,blue*%
X235200000Y-118000000D03*
%TD*%
D10*
%TO.P,J603,1,Pin_1*%
%TO.N,GND*%
X275650000Y-61300000D03*
X275650000Y-56300000D03*
D11*
%TO.P,J603,2,Pin_2*%
%TO.N,_config*%
X270650000Y-61300000D03*
X270650000Y-56300000D03*
%TD*%
D12*
%TO.P,JP301,1,A*%
%TO.N,GND*%
X274840000Y-98500000D03*
D13*
%TO.P,JP301,2,C*%
%TO.N,/mcu/BOOT_JUMPER*%
X272300000Y-98500000D03*
%TO.P,JP301,3,B*%
%TO.N,+3.3V*%
X269760000Y-98500000D03*
%TD*%
D15*
%TO.P,C211,1*%
%TO.N,+3.3V*%
X196772169Y-79570000D03*
D16*
%TO.P,C211,2*%
%TO.N,GND*%
X201772169Y-79570000D03*
%TD*%
D12*
%TO.P,JP302,1,A*%
%TO.N,Unfiltered_5V*%
X253750000Y-120250000D03*
D13*
%TO.P,JP302,2,B*%
%TO.N,VBUS*%
X253750000Y-122790000D03*
%TD*%
D17*
%TO.P,J302,S1,SHIELD*%
%TO.N,unconnected-(J302-SHIELD-PadS1)*%
X254430000Y-131610000D03*
D18*
X254430000Y-136970000D03*
D17*
X263070000Y-131610000D03*
D18*
X263070000Y-136970000D03*
%TD*%
D14*
%TO.P,TP201,1,1*%
%TO.N,/power/12V-Unfiltered*%
X204200000Y-116900000D03*
%TD*%
D19*
%TO.N,/mcu/MCU_LED2*%
X259890000Y-107120000D03*
D20*
X251220000Y-106800000D03*
X259029295Y-104394959D03*
D19*
%TO.N,GND*%
X189055000Y-98475000D03*
X252555000Y-60375000D03*
X191595000Y-85775000D03*
X194135000Y-55295000D03*
X253500000Y-98700000D03*
D20*
X265100000Y-121500000D03*
D19*
X252555000Y-134035000D03*
X275415000Y-78155000D03*
X227155000Y-98475000D03*
X209375000Y-67995000D03*
X209375000Y-78155000D03*
X191595000Y-118795000D03*
X232235000Y-106095000D03*
X199215000Y-62915000D03*
X211915000Y-52755000D03*
X267795000Y-134035000D03*
X268400000Y-131200000D03*
X191595000Y-67995000D03*
X201755000Y-70535000D03*
X260175000Y-60375000D03*
X238100000Y-113800000D03*
X262715000Y-55295000D03*
X211915000Y-123875000D03*
X277955000Y-134035000D03*
X194135000Y-88315000D03*
X255095000Y-60375000D03*
D20*
X252800000Y-126100000D03*
D19*
X199215000Y-128955000D03*
X199215000Y-131495000D03*
X233800000Y-95600000D03*
X255095000Y-57835000D03*
X219000000Y-111200000D03*
X189055000Y-116255000D03*
X211915000Y-70535000D03*
X189055000Y-65455000D03*
X199215000Y-70535000D03*
X222075000Y-123875000D03*
D20*
X254300000Y-133700000D03*
X228750000Y-116000000D03*
D19*
X201755000Y-55295000D03*
X191595000Y-75615000D03*
X250015000Y-52755000D03*
X216995000Y-62915000D03*
X194135000Y-75615000D03*
X201755000Y-57835000D03*
X250015000Y-123875000D03*
X194135000Y-98475000D03*
D20*
X258000000Y-89600000D03*
X205250000Y-96750000D03*
D19*
X194135000Y-70535000D03*
X214455000Y-128955000D03*
X189055000Y-55295000D03*
X194135000Y-60375000D03*
X189055000Y-85775000D03*
X211915000Y-98475000D03*
X275415000Y-52755000D03*
X209375000Y-70535000D03*
X218200000Y-74600000D03*
X277955000Y-131495000D03*
X216995000Y-57835000D03*
X196675000Y-88315000D03*
X191595000Y-52755000D03*
X270335000Y-67995000D03*
X272875000Y-57835000D03*
X191595000Y-80695000D03*
X234775000Y-108635000D03*
X244935000Y-134035000D03*
X219535000Y-57835000D03*
X204295000Y-55295000D03*
X250015000Y-128955000D03*
X211915000Y-60375000D03*
X257635000Y-57835000D03*
D20*
X230200000Y-98600000D03*
D19*
X265255000Y-52755000D03*
D20*
X226850000Y-94650000D03*
D19*
X255095000Y-98475000D03*
X214455000Y-123875000D03*
X189055000Y-75615000D03*
X252555000Y-78155000D03*
D21*
X244800000Y-106200000D03*
D19*
X201755000Y-60375000D03*
X204295000Y-52755000D03*
X196675000Y-83235000D03*
X260175000Y-62915000D03*
X260600000Y-94400000D03*
X206835000Y-67995000D03*
X224615000Y-113715000D03*
X255095000Y-67995000D03*
X189055000Y-90855000D03*
X224615000Y-123875000D03*
X270335000Y-73075000D03*
X250015000Y-62915000D03*
X189055000Y-70535000D03*
X222075000Y-126415000D03*
X209375000Y-101015000D03*
X272875000Y-134035000D03*
X229800000Y-59000000D03*
X275415000Y-75615000D03*
X260171646Y-103028354D03*
X206835000Y-75615000D03*
X237000000Y-106300000D03*
X234775000Y-90855000D03*
X267795000Y-128955000D03*
X209375000Y-75615000D03*
D20*
X191100000Y-92500000D03*
D19*
X277955000Y-128955000D03*
D20*
X279000000Y-77000000D03*
D19*
X267795000Y-62915000D03*
X194135000Y-73075000D03*
X277955000Y-73075000D03*
D20*
X222900000Y-98700000D03*
D19*
X209375000Y-98475000D03*
X275415000Y-134035000D03*
X214455000Y-131495000D03*
X189055000Y-88315000D03*
X277955000Y-52755000D03*
X236050000Y-52300000D03*
X277955000Y-70535000D03*
X196675000Y-95935000D03*
X265255000Y-131495000D03*
X194135000Y-62915000D03*
X262715000Y-52755000D03*
X255095000Y-52755000D03*
X199215000Y-73075000D03*
X229695000Y-101015000D03*
D20*
X202100000Y-102500000D03*
D19*
X229695000Y-123875000D03*
X270335000Y-118795000D03*
X194135000Y-85775000D03*
X214455000Y-62915000D03*
X275415000Y-90855000D03*
D21*
X274115124Y-97160856D03*
D19*
X260175000Y-83235000D03*
X238800000Y-60800000D03*
X247475000Y-55295000D03*
X272875000Y-70535000D03*
X189055000Y-62915000D03*
X209375000Y-57835000D03*
X259800000Y-85000000D03*
X216995000Y-60375000D03*
X277955000Y-121335000D03*
X267795000Y-52755000D03*
X244935000Y-123875000D03*
X229695000Y-131495000D03*
X275415000Y-70535000D03*
X234400000Y-87778815D03*
X257635000Y-55295000D03*
X189055000Y-73075000D03*
X193400000Y-115200000D03*
X272875000Y-128955000D03*
X189055000Y-57835000D03*
X191595000Y-121335000D03*
D20*
X211750000Y-107500000D03*
D19*
X189055000Y-80695000D03*
X214455000Y-57835000D03*
X214455000Y-126415000D03*
D20*
X264180000Y-99320500D03*
D19*
X250015000Y-126415000D03*
X277955000Y-57835000D03*
D20*
X222900000Y-97162500D03*
D19*
X257635000Y-52755000D03*
D20*
X199000000Y-95250000D03*
D19*
X221000000Y-63000000D03*
X211915000Y-121335000D03*
X234775000Y-106095000D03*
X189055000Y-83235000D03*
X201755000Y-62915000D03*
X211915000Y-101015000D03*
X270335000Y-134035000D03*
X265255000Y-62915000D03*
X206835000Y-52755000D03*
X277955000Y-62915000D03*
X232235000Y-101015000D03*
X267795000Y-121335000D03*
D20*
X214400000Y-114700000D03*
D19*
X211915000Y-57835000D03*
X222075000Y-113715000D03*
X267795000Y-60375000D03*
X206835000Y-60375000D03*
X247475000Y-123875000D03*
X265255000Y-57835000D03*
X229695000Y-128955000D03*
X239855000Y-134035000D03*
X209375000Y-62915000D03*
X277955000Y-126415000D03*
X272875000Y-123875000D03*
D20*
X267000000Y-86600000D03*
D19*
X206835000Y-80695000D03*
D20*
X226250000Y-116000000D03*
D19*
X194135000Y-67995000D03*
X214455000Y-52755000D03*
X209375000Y-123875000D03*
X209375000Y-73075000D03*
X211915000Y-111175000D03*
X250015000Y-131495000D03*
X196675000Y-90855000D03*
X209375000Y-52755000D03*
X232235000Y-98475000D03*
X199215000Y-75615000D03*
D20*
X206800000Y-93800000D03*
D19*
X191595000Y-90855000D03*
X196675000Y-52755000D03*
D20*
X278950000Y-85450000D03*
D19*
X252555000Y-62915000D03*
X260175000Y-52755000D03*
X214455000Y-55295000D03*
X224615000Y-128955000D03*
X199215000Y-90855000D03*
D20*
X223000000Y-116250000D03*
D19*
X211915000Y-65455000D03*
X199215000Y-85775000D03*
X275415000Y-67995000D03*
X260000000Y-64400000D03*
X191595000Y-83235000D03*
X191595000Y-73075000D03*
X206835000Y-78155000D03*
D20*
X263400000Y-133650000D03*
D19*
X211915000Y-113715000D03*
D20*
X249500000Y-118500000D03*
D19*
X191595000Y-78155000D03*
X227155000Y-101015000D03*
X219535000Y-131495000D03*
X209375000Y-65455000D03*
X189055000Y-60375000D03*
X189055000Y-126415000D03*
X254400000Y-111200000D03*
X209375000Y-55295000D03*
D21*
X269233875Y-105040719D03*
D19*
X199215000Y-52755000D03*
X244935000Y-126415000D03*
X211915000Y-55295000D03*
X267795000Y-118795000D03*
X255200000Y-101000000D03*
X277955000Y-65455000D03*
X277955000Y-55295000D03*
X204295000Y-57835000D03*
X191595000Y-70535000D03*
X252555000Y-57835000D03*
X255095000Y-62915000D03*
X206835000Y-62915000D03*
X252555000Y-131495000D03*
X239200000Y-73800000D03*
X206835000Y-57835000D03*
X199215000Y-55295000D03*
X209375000Y-83235000D03*
X272875000Y-131495000D03*
X252555000Y-55295000D03*
X270335000Y-65455000D03*
X250015000Y-134035000D03*
D20*
X264862500Y-126150000D03*
D19*
X237315000Y-95935000D03*
X234775000Y-126415000D03*
X196675000Y-85775000D03*
D20*
X201000000Y-91750000D03*
X221400000Y-58900000D03*
X217300000Y-107400000D03*
D19*
X262715000Y-57835000D03*
X189055000Y-134035000D03*
D20*
X233500000Y-117500000D03*
D19*
X272875000Y-55295000D03*
X206835000Y-70535000D03*
X272875000Y-60375000D03*
X234775000Y-111175000D03*
X211915000Y-73075000D03*
D20*
X263610000Y-97470000D03*
D19*
X257635000Y-118795000D03*
X237315000Y-101015000D03*
X247475000Y-62915000D03*
X209375000Y-80695000D03*
X199215000Y-60375000D03*
X189055000Y-131495000D03*
X260175000Y-57835000D03*
D20*
X228100000Y-65400000D03*
D19*
X189055000Y-93395000D03*
X224615000Y-98475000D03*
D21*
X200800000Y-76400000D03*
D19*
X267795000Y-57835000D03*
X250015000Y-55295000D03*
X209375000Y-93395000D03*
D20*
X268140000Y-95280000D03*
D19*
X270335000Y-70535000D03*
X224615000Y-126415000D03*
X214455000Y-134035000D03*
X211915000Y-67995000D03*
X272875000Y-65455000D03*
X206835000Y-73075000D03*
X264950000Y-72650000D03*
X219535000Y-52755000D03*
X227200000Y-59000000D03*
X262715000Y-121335000D03*
X272875000Y-52755000D03*
X214455000Y-60375000D03*
D20*
X279166972Y-81316972D03*
D19*
X201755000Y-88315000D03*
X265255000Y-128955000D03*
X267795000Y-65455000D03*
X194135000Y-121335000D03*
X255095000Y-78155000D03*
X260175000Y-55295000D03*
X255095000Y-55295000D03*
D21*
X242649500Y-106000000D03*
D19*
X277955000Y-123875000D03*
X222075000Y-134035000D03*
X224615000Y-106095000D03*
X262900000Y-117400000D03*
X252555000Y-67995000D03*
X270335000Y-52755000D03*
X194135000Y-83235000D03*
X275415000Y-73075000D03*
X257635000Y-62915000D03*
X206835000Y-55295000D03*
X250015000Y-57835000D03*
X189055000Y-123875000D03*
X191595000Y-113715000D03*
X247475000Y-57835000D03*
D20*
X201400000Y-105700000D03*
D19*
X211915000Y-62915000D03*
D21*
X219400000Y-134400000D03*
D19*
X272875000Y-73075000D03*
X209375000Y-111175000D03*
X195800000Y-118600000D03*
X239855000Y-131495000D03*
X257635000Y-60375000D03*
X268200000Y-123600000D03*
X189055000Y-113715000D03*
X272875000Y-121335000D03*
X201755000Y-52755000D03*
X216600000Y-73000000D03*
X204295000Y-60375000D03*
D20*
X273400000Y-76000000D03*
D19*
X244935000Y-75615000D03*
X194135000Y-90855000D03*
X250015000Y-60375000D03*
D20*
X256100000Y-101600000D03*
D19*
X199215000Y-57835000D03*
X244000000Y-58800000D03*
X239855000Y-95935000D03*
X189055000Y-78155000D03*
X191595000Y-88315000D03*
X247475000Y-60375000D03*
X269300000Y-108300000D03*
X199215000Y-88315000D03*
X236300000Y-50450000D03*
X259050000Y-129850000D03*
X201755000Y-73075000D03*
X189055000Y-52755000D03*
X189055000Y-121335000D03*
X239000000Y-50400000D03*
X234775000Y-128955000D03*
D20*
X194800000Y-113000000D03*
D19*
X217400000Y-87000000D03*
X278300000Y-107700000D03*
X247475000Y-52755000D03*
X270335000Y-121335000D03*
X227155000Y-113715000D03*
X265800000Y-105600000D03*
D20*
X269500000Y-102800000D03*
D19*
X244935000Y-78155000D03*
X224300000Y-62200000D03*
X189055000Y-118795000D03*
X196675000Y-93395000D03*
X214455000Y-95935000D03*
X189055000Y-67995000D03*
X194135000Y-57835000D03*
X189055000Y-95935000D03*
X191595000Y-98475000D03*
X204295000Y-90855000D03*
X219535000Y-55295000D03*
X247475000Y-103555000D03*
X216995000Y-55295000D03*
X262715000Y-60375000D03*
X262715000Y-62915000D03*
D20*
X252600000Y-117100000D03*
D19*
X216995000Y-52755000D03*
X272875000Y-67995000D03*
X240400000Y-58800000D03*
X236200000Y-59000000D03*
X220355000Y-70755000D03*
X265255000Y-134035000D03*
X189055000Y-128955000D03*
X224615000Y-111175000D03*
X194135000Y-118795000D03*
X209375000Y-60375000D03*
X214455000Y-101015000D03*
X234775000Y-123875000D03*
X252555000Y-52755000D03*
X252555000Y-128955000D03*
X272875000Y-118795000D03*
X229695000Y-126415000D03*
X194135000Y-52755000D03*
X191595000Y-116255000D03*
X233000000Y-58800000D03*
D20*
%TO.N,VBUS*%
X261000000Y-121750000D03*
D19*
X258400000Y-122200000D03*
%TO.N,blue*%
X220000000Y-66000000D03*
X228000000Y-74400000D03*
X224400000Y-74600000D03*
%TO.N,+3.3V*%
X217400000Y-92000000D03*
D20*
X266610000Y-100230000D03*
D19*
X266200000Y-59200000D03*
D21*
X257575000Y-98500000D03*
D19*
X264300000Y-103900000D03*
X211096192Y-92303808D03*
D20*
X247400000Y-98000000D03*
X232400000Y-96200000D03*
D19*
X267400000Y-116100000D03*
D20*
X266060000Y-106470000D03*
X238400000Y-104200000D03*
D19*
X268800000Y-105800000D03*
D20*
X241800000Y-110600000D03*
D19*
X205000000Y-64200000D03*
D20*
X251600000Y-114000000D03*
D19*
X276024500Y-107100000D03*
X225200000Y-92000000D03*
X277200000Y-115800000D03*
X261600000Y-107825000D03*
%TO.N,/mcu/HSE_IN*%
X263700000Y-100020000D03*
%TO.N,ones*%
X245400000Y-54600000D03*
X245400000Y-65600000D03*
%TO.N,tens*%
X227200000Y-72800000D03*
X223200000Y-55400000D03*
%TO.N,hundreds*%
X226800000Y-66200000D03*
X226400000Y-60400000D03*
%TO.N,thousands*%
X238000000Y-69400000D03*
X236534098Y-62812587D03*
%TO.N,_zero*%
X201000000Y-65850000D03*
X255000000Y-109600000D03*
%TO.N,_mode*%
X257800000Y-116200000D03*
%TO.N,_config*%
X280600000Y-109000000D03*
X260721138Y-112788000D03*
X266600000Y-114621185D03*
D20*
%TO.N,_save*%
X248921878Y-99830216D03*
D19*
X259598435Y-111118389D03*
%TO.N,/mcu/HSE_OUT*%
X259600000Y-100400000D03*
%TO.N,/mcu/MCU_SWO*%
X276300000Y-95800000D03*
X275201651Y-104222129D03*
%TO.N,_clk*%
X265050000Y-70400000D03*
X261786458Y-112375500D03*
%TO.N,/mcu/USB_D-*%
X260000000Y-117761918D03*
X260000000Y-120500000D03*
%TO.N,_a1*%
X233400000Y-77850000D03*
X226000000Y-79978815D03*
X260800000Y-111200000D03*
X252600000Y-80400000D03*
%TO.N,_a2*%
X257639245Y-106160755D03*
X229400000Y-80600000D03*
X241793255Y-83006745D03*
X221000000Y-80988815D03*
X221200000Y-82800000D03*
X241284945Y-90400000D03*
X243554315Y-90400000D03*
%TO.N,_a3*%
X226200000Y-83000000D03*
X229200000Y-83000000D03*
X259400000Y-108600000D03*
X242800000Y-85800000D03*
%TO.N,_a4*%
X229400000Y-85800000D03*
X238200000Y-88200000D03*
X225400000Y-88400000D03*
X242000000Y-88000000D03*
X259122394Y-107469026D03*
%TO.N,/mcu/USB_CONN_D-*%
X258500000Y-133200000D03*
X259600000Y-130400000D03*
%TO.N,_thousands*%
X253800000Y-115293870D03*
X210400000Y-89600000D03*
%TO.N,/seven-segment-display/BCD_out1*%
X224800000Y-79200000D03*
X228800000Y-79200000D03*
X217400000Y-79800000D03*
%TO.N,/seven-segment-display/BCD_out2*%
X256000000Y-96400000D03*
X236000000Y-81800000D03*
X248800000Y-94495500D03*
X224800000Y-81800000D03*
X228200000Y-81800000D03*
%TO.N,/seven-segment-display/BCD_out3*%
X242400000Y-84200000D03*
X219600000Y-84400000D03*
X228600000Y-84000000D03*
X244175500Y-91600000D03*
X225000000Y-84400000D03*
X235800000Y-84200000D03*
%TO.N,/seven-segment-display/BCD_out4*%
X225200000Y-86800000D03*
X238800000Y-86600000D03*
X253200000Y-90600000D03*
X229000000Y-86800000D03*
X215800000Y-86400000D03*
X246800000Y-89800000D03*
X233200000Y-86200000D03*
%TO.N,_ones*%
X256200000Y-114800000D03*
X224485201Y-78114799D03*
%TO.N,/seven-segment-display/COUNT_1*%
X237600000Y-67000000D03*
X244000000Y-70400000D03*
X221724500Y-66000000D03*
X225600000Y-64164500D03*
%TO.N,/seven-segment-display/COUNT_0*%
X225050000Y-63100000D03*
X222250000Y-63000000D03*
%TO.N,/seven-segment-display/COUNT_2*%
X233000000Y-69000000D03*
X245560755Y-71839245D03*
X237600000Y-67800000D03*
X219600000Y-69200000D03*
X225000000Y-71400000D03*
X235357130Y-67800000D03*
%TO.N,/seven-segment-display/COUNT_3*%
X232378255Y-68221745D03*
X239000000Y-67800000D03*
X234000000Y-67200000D03*
X242200000Y-69800000D03*
%TO.N,_tens*%
X216600000Y-71200000D03*
X255400000Y-115200000D03*
X232800000Y-76578815D03*
%TO.N,_hundreds*%
X233400000Y-75297157D03*
X259378307Y-112361259D03*
%TO.N,e*%
X249800000Y-84200000D03*
X241200000Y-63200000D03*
%TO.N,d*%
X239800000Y-63000000D03*
X248400000Y-84200000D03*
%TO.N,c*%
X236600000Y-62000000D03*
X247600000Y-84400000D03*
%TO.N,b*%
X246800000Y-84400000D03*
X234600000Y-62125500D03*
%TO.N,a*%
X232200000Y-62125500D03*
X245600000Y-84400000D03*
%TO.N,g*%
X249200000Y-91600000D03*
%TO.N,f*%
X244600000Y-62200000D03*
X252600000Y-93400000D03*
D20*
%TO.N,/mcu/BOOT_JUMPER*%
X273400000Y-105540000D03*
X271099500Y-101500000D03*
%TO.N,Unfiltered_5V*%
X214000000Y-106500000D03*
D19*
%TO.N,/mcu/MCU_LED1*%
X257442870Y-113212000D03*
X262600000Y-108966315D03*
X253800000Y-114200000D03*
X247200000Y-112000000D03*
%TO.N,/mcu/MCU_LED2*%
X240300000Y-108800000D03*
%TO.N,/mcu/JUMPER_NRST*%
X268819292Y-103265233D03*
X274874500Y-101012341D03*
%TO.N,/mcu/MCU_NRST*%
X262200000Y-107200000D03*
%TD*%
D22*
%TO.N,/mcu/MCU_LED2*%
X259890000Y-105255664D02*
X259890000Y-107120000D01*
X259029295Y-104394959D02*
X259890000Y-105255664D01*
X240300000Y-108800000D02*
X249220000Y-108800000D01*
X249220000Y-108800000D02*
X251220000Y-106800000D01*
X251210000Y-106810000D02*
X251220000Y-106800000D01*
%TO.N,GND*%
X225416116Y-52300000D02*
X221400000Y-56316116D01*
D23*
X221000000Y-70110000D02*
X220355000Y-70755000D01*
D22*
X238825000Y-87941116D02*
X238825000Y-90575000D01*
D24*
X217400000Y-87000000D02*
X216200000Y-85800000D01*
D23*
X221000000Y-63000000D02*
X221000000Y-70110000D01*
D22*
X234603815Y-87575000D02*
X238458884Y-87575000D01*
D23*
X216900000Y-124660000D02*
X216900000Y-134820000D01*
D22*
X239000000Y-50400000D02*
X236350000Y-50400000D01*
D23*
X216900000Y-134820000D02*
X218980000Y-134820000D01*
D24*
X216200000Y-85800000D02*
X216200000Y-76600000D01*
D23*
X218980000Y-134820000D02*
X219400000Y-134400000D01*
D22*
X238825000Y-90575000D02*
X233800000Y-95600000D01*
X236350000Y-50400000D02*
X236300000Y-50450000D01*
X234400000Y-87778815D02*
X234603815Y-87575000D01*
X221400000Y-56316116D02*
X221400000Y-58900000D01*
X238458884Y-87575000D02*
X238825000Y-87941116D01*
D24*
X216200000Y-76600000D02*
X218200000Y-74600000D01*
D22*
X236050000Y-52300000D02*
X225416116Y-52300000D01*
%TO.N,VBUS*%
X258400000Y-122200000D02*
X257810000Y-122790000D01*
D23*
X261000000Y-121750000D02*
X258850000Y-121750000D01*
X258850000Y-121750000D02*
X258400000Y-122200000D01*
D22*
X257810000Y-122790000D02*
X253750000Y-122790000D01*
D24*
%TO.N,blue*%
X218978315Y-70955241D02*
X222623074Y-74600000D01*
D23*
X224600000Y-74400000D02*
X224400000Y-74600000D01*
D24*
X222623074Y-74600000D02*
X224400000Y-74600000D01*
X218978315Y-67021685D02*
X218978315Y-70955241D01*
D23*
X228000000Y-74400000D02*
X224600000Y-74400000D01*
D24*
X220000000Y-66000000D02*
X218978315Y-67021685D01*
D23*
%TO.N,+3.3V*%
X211096192Y-92303808D02*
X210950000Y-92303808D01*
X257573036Y-115150000D02*
X256704666Y-116018370D01*
X232018370Y-116018370D02*
X211096192Y-95096192D01*
X271200000Y-115800000D02*
X270900000Y-116100000D01*
X196772169Y-79570000D02*
X196772169Y-69052526D01*
D22*
X264705000Y-107825000D02*
X266060000Y-106470000D01*
D23*
X277200000Y-115800000D02*
X281600000Y-111400000D01*
D22*
X261600000Y-107825000D02*
X264705000Y-107825000D01*
D23*
X281600000Y-63400000D02*
X277400000Y-59200000D01*
X201624695Y-64200000D02*
X205000000Y-64200000D01*
X277200000Y-115800000D02*
X271200000Y-115800000D01*
X266103510Y-115150000D02*
X257573036Y-115150000D01*
X225200000Y-92000000D02*
X217400000Y-92000000D01*
X256704666Y-116018370D02*
X232018370Y-116018370D01*
X281600000Y-111400000D02*
X281600000Y-63400000D01*
X267053510Y-116100000D02*
X266103510Y-115150000D01*
X270900000Y-116100000D02*
X267400000Y-116100000D01*
X241800000Y-110600000D02*
X245200000Y-114000000D01*
X245200000Y-114000000D02*
X251600000Y-114000000D01*
X267400000Y-116100000D02*
X267053510Y-116100000D01*
X196772169Y-69052526D02*
X201624695Y-64200000D01*
X277400000Y-59200000D02*
X266200000Y-59200000D01*
X211096192Y-95096192D02*
X211096192Y-92303808D01*
D22*
%TO.N,/mcu/HSE_IN*%
X267500000Y-93900000D02*
X267500000Y-94900000D01*
X263480000Y-99800000D02*
X263700000Y-100020000D01*
X267500000Y-94900000D02*
X263480000Y-98920000D01*
X263480000Y-98920000D02*
X263480000Y-99800000D01*
D24*
%TO.N,ones*%
X245400000Y-60520804D02*
X245400000Y-54600000D01*
X243978315Y-62457511D02*
X243978315Y-61942489D01*
X243978315Y-61942489D02*
X245400000Y-60520804D01*
X245400000Y-65600000D02*
X245400000Y-63879196D01*
X245400000Y-63879196D02*
X243978315Y-62457511D01*
%TO.N,tens*%
X227200000Y-72800000D02*
X225857511Y-71457511D01*
X223200000Y-58400000D02*
X223200000Y-55400000D01*
X225857511Y-71457511D02*
X225857511Y-64786185D01*
X225857511Y-64786185D02*
X226221685Y-64422011D01*
X226221685Y-64422011D02*
X226221685Y-61421685D01*
X226221685Y-61421685D02*
X223200000Y-58400000D01*
%TO.N,hundreds*%
X226800000Y-66200000D02*
X226800000Y-60800000D01*
X226800000Y-60800000D02*
X226400000Y-60400000D01*
%TO.N,thousands*%
X238000000Y-69400000D02*
X236978315Y-68378315D01*
X236978315Y-63256804D02*
X236534098Y-62812587D01*
X236978315Y-68378315D02*
X236978315Y-63256804D01*
D22*
%TO.N,yellow*%
X242200000Y-132250000D02*
X242200000Y-127250000D01*
%TO.N,black*%
X247200000Y-127250000D02*
X247200000Y-132250000D01*
D24*
%TO.N,_zero*%
X204196685Y-69046685D02*
X201000000Y-65850000D01*
X204196685Y-81996685D02*
X204196685Y-69046685D01*
X255000000Y-109600000D02*
X231800000Y-109600000D01*
X231800000Y-109600000D02*
X204196685Y-81996685D01*
%TO.N,_mode*%
X252103315Y-122396685D02*
X252103315Y-126388577D01*
X255000000Y-121500000D02*
X253000000Y-121500000D01*
X252711423Y-126996685D02*
X273403315Y-126996685D01*
X255200000Y-118800000D02*
X255200000Y-121603315D01*
X257800000Y-116200000D02*
X255200000Y-118800000D01*
X273403315Y-126996685D02*
X275250000Y-125150000D01*
X255200000Y-121603315D02*
X255103315Y-121603315D01*
X253000000Y-121500000D02*
X252103315Y-122396685D01*
X252103315Y-126388577D02*
X252711423Y-126996685D01*
X255103315Y-121603315D02*
X255000000Y-121500000D01*
%TO.N,_config*%
X260933138Y-113000000D02*
X261400000Y-113000000D01*
D22*
X263000000Y-113000000D02*
X264500000Y-114500000D01*
X266478815Y-114500000D02*
X266600000Y-114621185D01*
X261400000Y-113000000D02*
X263000000Y-113000000D01*
X280600000Y-71250000D02*
X280600000Y-109000000D01*
D24*
X260721138Y-112788000D02*
X260933138Y-113000000D01*
D22*
X264500000Y-114500000D02*
X266478815Y-114500000D01*
X270650000Y-61300000D02*
X280600000Y-71250000D01*
D24*
%TO.N,_save*%
X259400000Y-110719196D02*
X259400000Y-110919954D01*
D22*
X248921878Y-99830216D02*
X259420000Y-110328338D01*
D24*
X259400000Y-110919954D02*
X259598435Y-111118389D01*
X259420000Y-110699196D02*
X259400000Y-110719196D01*
D22*
X259420000Y-110328338D02*
X259420000Y-110699196D01*
%TO.N,/mcu/HSE_OUT*%
X256500000Y-99900000D02*
X259100000Y-99900000D01*
X259100000Y-99900000D02*
X259600000Y-100400000D01*
%TO.N,/mcu/MCU_SWO*%
X275200707Y-104221185D02*
X275201651Y-104222129D01*
X275200000Y-104221185D02*
X275200707Y-104221185D01*
X276300000Y-103121185D02*
X276300000Y-95800000D01*
X275200000Y-104221185D02*
X276300000Y-103121185D01*
%TO.N,_clk*%
X265050000Y-70400000D02*
X265200000Y-70250000D01*
X274470725Y-102300000D02*
X275499500Y-101271225D01*
X265625000Y-70975000D02*
X265050000Y-70400000D01*
D24*
X261853828Y-112442870D02*
X261786458Y-112375500D01*
D22*
X266900000Y-110600000D02*
X266900000Y-103300000D01*
X267690233Y-103890233D02*
X270760283Y-103890233D01*
X274839358Y-100093315D02*
X273500000Y-100093315D01*
X270760283Y-103890233D02*
X273110050Y-106240000D01*
X263742870Y-112442870D02*
X265057130Y-112442870D01*
X273300000Y-96252893D02*
X265625000Y-88577893D01*
X275499500Y-100753457D02*
X274839358Y-100093315D01*
X273300000Y-97500000D02*
X273300000Y-96252893D01*
X273689950Y-106240000D02*
X274100000Y-105829950D01*
X274100000Y-105829950D02*
X274100000Y-104179900D01*
X267000000Y-103200000D02*
X267690233Y-103890233D01*
X273500000Y-97700000D02*
X273300000Y-97500000D01*
D24*
X263742870Y-112442870D02*
X261853828Y-112442870D01*
D22*
X273110050Y-103189950D02*
X273110050Y-102589950D01*
X275499500Y-101271225D02*
X275499500Y-100753457D01*
X266900000Y-103300000D02*
X267000000Y-103200000D01*
X273110050Y-102589950D02*
X273400000Y-102300000D01*
X265200000Y-70250000D02*
X265200000Y-66200000D01*
X265057130Y-112442870D02*
X266900000Y-110600000D01*
X273110050Y-106240000D02*
X273689950Y-106240000D01*
X273400000Y-102300000D02*
X274470725Y-102300000D01*
X265625000Y-88577893D02*
X265625000Y-70975000D01*
X274100000Y-104179900D02*
X273110050Y-103189950D01*
X273500000Y-100093315D02*
X273500000Y-97700000D01*
%TO.N,/mcu/USB_D-*%
X260000000Y-117761918D02*
X260000000Y-120500000D01*
D24*
%TO.N,_a1*%
X260942489Y-96927751D02*
X252600000Y-88585262D01*
X252600000Y-88585262D02*
X252600000Y-80400000D01*
X228900381Y-79978815D02*
X231029196Y-77850000D01*
X260800000Y-111200000D02*
X260578315Y-110978315D01*
X260942489Y-107178315D02*
X260942489Y-96927751D01*
X260578315Y-107542489D02*
X260942489Y-107178315D01*
X226000000Y-79978815D02*
X228900381Y-79978815D01*
X231029196Y-77850000D02*
X233400000Y-77850000D01*
X260578315Y-110978315D02*
X260578315Y-107542489D01*
D22*
%TO.N,_a2*%
X243550500Y-92072010D02*
X243550500Y-90403815D01*
X257639245Y-106160755D02*
X252667509Y-101189019D01*
D24*
X221000000Y-80988815D02*
X221388815Y-80600000D01*
X221388815Y-80600000D02*
X229400000Y-80600000D01*
X221000000Y-80988815D02*
X221000000Y-82600000D01*
X241284945Y-90400000D02*
X241284945Y-83515055D01*
D22*
X243550500Y-90403815D02*
X243554315Y-90400000D01*
D24*
X241284945Y-83515055D02*
X241793255Y-83006745D01*
D22*
X252667509Y-101189019D02*
X243550500Y-92072010D01*
D24*
X221000000Y-82600000D02*
X221200000Y-82800000D01*
%TO.N,_a3*%
X258800000Y-108000000D02*
X258600000Y-108000000D01*
X259400000Y-108600000D02*
X258800000Y-108000000D01*
X226200000Y-83000000D02*
X229200000Y-83000000D01*
X258600000Y-108000000D02*
X242800000Y-92200000D01*
X242800000Y-92200000D02*
X242800000Y-85800000D01*
%TO.N,_a4*%
X242657511Y-83578315D02*
X242142489Y-83578315D01*
X241778315Y-86378315D02*
X242200000Y-86800000D01*
X242200000Y-86800000D02*
X242200000Y-87800000D01*
X259122394Y-107469026D02*
X259122394Y-106182720D01*
X229621685Y-87057511D02*
X229621685Y-86021685D01*
X225400000Y-88400000D02*
X228279196Y-88400000D01*
X242142489Y-83578315D02*
X241778315Y-83942489D01*
X238000000Y-88400000D02*
X238200000Y-88200000D01*
X242200000Y-87800000D02*
X242000000Y-88000000D01*
X241778315Y-83942489D02*
X241778315Y-86378315D01*
X228279196Y-88400000D02*
X238000000Y-88400000D01*
X228279196Y-88400000D02*
X229621685Y-87057511D01*
X259122394Y-106182720D02*
X244797185Y-91857511D01*
X244797185Y-85717989D02*
X242657511Y-83578315D01*
X244797185Y-91857511D02*
X244797185Y-85717989D01*
X229621685Y-86021685D02*
X229400000Y-85800000D01*
D22*
%TO.N,/mcu/USB_CONN_D-*%
X259600000Y-132100000D02*
X259600000Y-130400000D01*
X258500000Y-133200000D02*
X259600000Y-132100000D01*
%TO.N,_thousands*%
X253675500Y-115418370D02*
X236218370Y-115418370D01*
X236218370Y-115418370D02*
X210400000Y-89600000D01*
X253800000Y-115293870D02*
X253675500Y-115418370D01*
D24*
%TO.N,/seven-segment-display/BCD_out1*%
X224800000Y-79200000D02*
X228800000Y-79200000D01*
X224200000Y-79800000D02*
X224800000Y-79200000D01*
X217400000Y-79800000D02*
X224200000Y-79800000D01*
%TO.N,/seven-segment-display/BCD_out2*%
X248800000Y-94495500D02*
X250904500Y-96600000D01*
X255800000Y-96600000D02*
X256000000Y-96400000D01*
X251200000Y-96600000D02*
X255800000Y-96600000D01*
X250904500Y-96600000D02*
X251200000Y-96600000D01*
X228200000Y-81800000D02*
X224800000Y-81800000D01*
X228200000Y-81800000D02*
X236000000Y-81800000D01*
%TO.N,/seven-segment-display/BCD_out3*%
X244175500Y-91600000D02*
X244175500Y-85975500D01*
X219600000Y-84400000D02*
X225000000Y-84400000D01*
X228200000Y-84400000D02*
X228600000Y-84000000D01*
X228800000Y-84200000D02*
X228600000Y-84000000D01*
X235800000Y-84200000D02*
X228800000Y-84200000D01*
X244175500Y-85975500D02*
X242400000Y-84200000D01*
X225000000Y-84400000D02*
X228200000Y-84400000D01*
D22*
%TO.N,/seven-segment-display/BCD_out4*%
X253225000Y-90625000D02*
X253200000Y-90600000D01*
D24*
X228178315Y-87621685D02*
X229000000Y-86800000D01*
X215800000Y-86400000D02*
X217021685Y-87621685D01*
D22*
X252858884Y-94025000D02*
X253225000Y-93658884D01*
X252341116Y-94025000D02*
X252858884Y-94025000D01*
D24*
X217021685Y-87621685D02*
X228178315Y-87621685D01*
D22*
X251975000Y-93658884D02*
X252341116Y-94025000D01*
X248297581Y-89800000D02*
X251975000Y-93477419D01*
D24*
X238400000Y-86200000D02*
X238800000Y-86600000D01*
D22*
X251975000Y-93477419D02*
X251975000Y-93658884D01*
D24*
X233200000Y-86200000D02*
X238400000Y-86200000D01*
X229000000Y-86800000D02*
X225200000Y-86800000D01*
D22*
X246800000Y-89800000D02*
X248297581Y-89800000D01*
X253225000Y-93658884D02*
X253225000Y-90625000D01*
D24*
%TO.N,_ones*%
X239421685Y-92915055D02*
X239421685Y-82992489D01*
X255621685Y-109857511D02*
X255621685Y-109115055D01*
X225400000Y-77200000D02*
X224485201Y-78114799D01*
X255621685Y-109115055D02*
X239421685Y-92915055D01*
X233629196Y-77200000D02*
X225400000Y-77200000D01*
X254378315Y-110221685D02*
X255257511Y-110221685D01*
X255257511Y-110221685D02*
X255621685Y-109857511D01*
X253778315Y-112378315D02*
X253778315Y-110821685D01*
X256200000Y-114800000D02*
X253778315Y-112378315D01*
X239421685Y-82992489D02*
X233629196Y-77200000D01*
X253778315Y-110821685D02*
X254378315Y-110221685D01*
%TO.N,/seven-segment-display/COUNT_1*%
X223560000Y-64164500D02*
X221724500Y-66000000D01*
X237600000Y-67000000D02*
X240600000Y-67000000D01*
X240600000Y-67000000D02*
X244000000Y-70400000D01*
X225600000Y-64164500D02*
X223560000Y-64164500D01*
%TO.N,/seven-segment-display/COUNT_0*%
X224950000Y-63000000D02*
X225050000Y-63100000D01*
X222250000Y-63000000D02*
X224950000Y-63000000D01*
%TO.N,/seven-segment-display/COUNT_2*%
X241639245Y-71839245D02*
X245560755Y-71839245D01*
X225000000Y-71400000D02*
X220120804Y-71400000D01*
X234200000Y-67800000D02*
X233000000Y-69000000D01*
X219600000Y-70879196D02*
X219600000Y-69200000D01*
X220120804Y-71400000D02*
X219600000Y-70879196D01*
X237600000Y-67800000D02*
X241639245Y-71839245D01*
X235357130Y-67800000D02*
X234200000Y-67800000D01*
%TO.N,/seven-segment-display/COUNT_3*%
X240200000Y-67800000D02*
X239000000Y-67800000D01*
X232978255Y-68221745D02*
X234000000Y-67200000D01*
X232378255Y-68221745D02*
X232978255Y-68221745D01*
X242200000Y-69800000D02*
X240200000Y-67800000D01*
%TO.N,_tens*%
X232800000Y-76578815D02*
X221978815Y-76578815D01*
X255621685Y-115421685D02*
X256457511Y-115421685D01*
X255400000Y-115200000D02*
X255621685Y-115421685D01*
X239915055Y-92515055D02*
X239915055Y-82788129D01*
X256821685Y-115057511D02*
X256821685Y-109421685D01*
X256457511Y-115421685D02*
X256821685Y-115057511D01*
X221978815Y-76578815D02*
X216600000Y-71200000D01*
X239915055Y-82788129D02*
X233705741Y-76578815D01*
X256821685Y-109421685D02*
X239915055Y-92515055D01*
X233705741Y-76578815D02*
X232800000Y-76578815D01*
D22*
%TO.N,_hundreds*%
X240659945Y-82557102D02*
X233400000Y-75297157D01*
X240659945Y-92557527D02*
X240659945Y-82557102D01*
X257318370Y-109215952D02*
X240659945Y-92557527D01*
X259378307Y-112361259D02*
X257318370Y-110301322D01*
X257318370Y-110301322D02*
X257318370Y-109215952D01*
D24*
%TO.N,e*%
X249800000Y-84200000D02*
X249800000Y-71800000D01*
X249800000Y-71800000D02*
X241200000Y-63200000D01*
%TO.N,d*%
X248400000Y-84200000D02*
X248400000Y-71097730D01*
X246651135Y-69348865D02*
X246148865Y-69348865D01*
X248400000Y-71097730D02*
X246651135Y-69348865D01*
X246148865Y-69348865D02*
X239800000Y-63000000D01*
%TO.N,c*%
X247600000Y-73000000D02*
X247600000Y-84400000D01*
X236600000Y-62000000D02*
X247600000Y-73000000D01*
%TO.N,b*%
X235978315Y-63503815D02*
X234600000Y-62125500D01*
X246800000Y-84400000D02*
X235978315Y-73578315D01*
X235978315Y-73578315D02*
X235978315Y-63503815D01*
%TO.N,a*%
X231600000Y-70400000D02*
X245600000Y-84400000D01*
X231600000Y-62725500D02*
X231600000Y-70400000D01*
X232200000Y-62125500D02*
X231600000Y-62725500D01*
%TO.N,g*%
X236250000Y-57196304D02*
X236250000Y-53350000D01*
X231106630Y-70785826D02*
X231106630Y-62339674D01*
X238690000Y-52600000D02*
X240075000Y-53985000D01*
X231106630Y-62339674D02*
X236250000Y-57196304D01*
X246890555Y-91600000D02*
X245290555Y-90000000D01*
X245290555Y-84969751D02*
X231106630Y-70785826D01*
X249200000Y-91600000D02*
X246890555Y-91600000D01*
X236250000Y-53350000D02*
X237000000Y-52600000D01*
X237000000Y-52600000D02*
X238690000Y-52600000D01*
X245290555Y-90000000D02*
X245290555Y-84969751D01*
%TO.N,f*%
X252600000Y-93400000D02*
X252106630Y-92906630D01*
X252106630Y-81506630D02*
X250293370Y-79693370D01*
X250293370Y-67893370D02*
X244600000Y-62200000D01*
X250293370Y-79693370D02*
X250293370Y-67893370D01*
X252106630Y-92906630D02*
X252106630Y-81506630D01*
D22*
%TO.N,/mcu/BOOT_JUMPER*%
X272800000Y-104940000D02*
X273400000Y-105540000D01*
X271099500Y-101999500D02*
X272800000Y-103700000D01*
X271099500Y-101500000D02*
X271099500Y-101999500D01*
X272800000Y-103700000D02*
X272800000Y-104940000D01*
D24*
%TO.N,/mcu/MCU_LED1*%
X260452447Y-112166315D02*
X259418762Y-113200000D01*
X262600000Y-110682762D02*
X261116447Y-112166315D01*
X253800000Y-114200000D02*
X251600000Y-112000000D01*
X261116447Y-112166315D02*
X260452447Y-112166315D01*
X257430870Y-113200000D02*
X257442870Y-113212000D01*
X262600000Y-108966315D02*
X262600000Y-110682762D01*
X251600000Y-112000000D02*
X247200000Y-112000000D01*
X257400000Y-113200000D02*
X257430870Y-113200000D01*
X259418762Y-113200000D02*
X257400000Y-113200000D01*
%TO.N,unconnected-(J302-SHIELD-PadS1)*%
X254430000Y-131610000D02*
X254996685Y-132176685D01*
X254430000Y-136970000D02*
X263070000Y-136970000D01*
X254996685Y-136403315D02*
X254430000Y-136970000D01*
X262526042Y-136426042D02*
X263070000Y-136970000D01*
X254996685Y-132176685D02*
X254996685Y-136403315D01*
X263070000Y-131610000D02*
X262526042Y-132153958D01*
X262526042Y-132153958D02*
X262526042Y-136426042D01*
%TO.N,/mcu/JUMPER_NRST*%
X268803315Y-103249256D02*
X268819292Y-103265233D01*
D22*
X271000000Y-94660000D02*
X271000000Y-100310050D01*
D24*
X274874500Y-101012341D02*
X274452159Y-100590000D01*
D22*
X271000000Y-100310050D02*
X268800000Y-102510050D01*
X268800000Y-102510050D02*
X268800000Y-103245941D01*
D24*
X268803315Y-102511423D02*
X268803315Y-103249256D01*
X274452159Y-100590000D02*
X270724738Y-100590000D01*
D22*
X268800000Y-103245941D02*
X268819292Y-103265233D01*
X263180000Y-86840000D02*
X271000000Y-94660000D01*
D24*
X270724738Y-100590000D02*
X268803315Y-102511423D01*
D22*
%TO.N,/mcu/MCU_NRST*%
X263180000Y-84300000D02*
X261980000Y-85500000D01*
X261980000Y-106980000D02*
X262200000Y-107200000D01*
X261980000Y-85500000D02*
X261980000Y-106980000D01*
%TD*%
%TA.AperFunction,Conductor*%
%TO.N,Unfiltered_5V*%
G36*
X214943039Y-102269685D02*
G01*
X214988794Y-102322489D01*
X215000000Y-102374000D01*
X215000000Y-110750000D01*
X224750000Y-119250000D01*
X249067136Y-119250000D01*
X249117570Y-119260719D01*
X249235733Y-119313329D01*
X249410609Y-119350500D01*
X249410610Y-119350500D01*
X249589389Y-119350500D01*
X249589391Y-119350500D01*
X249764267Y-119313329D01*
X249882429Y-119260719D01*
X249932864Y-119250000D01*
X254428815Y-119250000D01*
X254495854Y-119269685D01*
X254541609Y-119322489D01*
X254552815Y-119374000D01*
X254552815Y-120728815D01*
X254533130Y-120795854D01*
X254480326Y-120841609D01*
X254428815Y-120852815D01*
X253085140Y-120852815D01*
X253069177Y-120851052D01*
X253069154Y-120851300D01*
X253061392Y-120850566D01*
X253061390Y-120850566D01*
X252989837Y-120852815D01*
X252959278Y-120852815D01*
X252952058Y-120853726D01*
X252946240Y-120854184D01*
X252897954Y-120855702D01*
X252897951Y-120855703D01*
X252877725Y-120861579D01*
X252858677Y-120865523D01*
X252856744Y-120865768D01*
X252837775Y-120868164D01*
X252837764Y-120868167D01*
X252792849Y-120885951D01*
X252787320Y-120887844D01*
X252740933Y-120901320D01*
X252740927Y-120901323D01*
X252722797Y-120912045D01*
X252705328Y-120920603D01*
X252685737Y-120928360D01*
X252646652Y-120956755D01*
X252641772Y-120959961D01*
X252600180Y-120984560D01*
X252585284Y-120999456D01*
X252570496Y-121012087D01*
X252553451Y-121024471D01*
X252553445Y-121024477D01*
X252522647Y-121061704D01*
X252518716Y-121066025D01*
X252121060Y-121463681D01*
X252059737Y-121497166D01*
X252033379Y-121500000D01*
X213124000Y-121500000D01*
X213056961Y-121480315D01*
X213011206Y-121427511D01*
X213000000Y-121376000D01*
X213000000Y-114700000D01*
X213544815Y-114700000D01*
X213563503Y-114877805D01*
X213563504Y-114877807D01*
X213618747Y-115047829D01*
X213618750Y-115047835D01*
X213708141Y-115202665D01*
X213749812Y-115248946D01*
X213827764Y-115335521D01*
X213827767Y-115335523D01*
X213827770Y-115335526D01*
X213972407Y-115440612D01*
X214135733Y-115513329D01*
X214310609Y-115550500D01*
X214310610Y-115550500D01*
X214489389Y-115550500D01*
X214489391Y-115550500D01*
X214664267Y-115513329D01*
X214827593Y-115440612D01*
X214972230Y-115335526D01*
X214996718Y-115308330D01*
X214998148Y-115306741D01*
X215091859Y-115202665D01*
X215181250Y-115047835D01*
X215236497Y-114877803D01*
X215255185Y-114700000D01*
X215236497Y-114522197D01*
X215200090Y-114410147D01*
X215181252Y-114352170D01*
X215181249Y-114352164D01*
X215143382Y-114286576D01*
X215091859Y-114197335D01*
X215038979Y-114138606D01*
X214972235Y-114064478D01*
X214972232Y-114064476D01*
X214972231Y-114064475D01*
X214972230Y-114064474D01*
X214827593Y-113959388D01*
X214664267Y-113886671D01*
X214664265Y-113886670D01*
X214536594Y-113859533D01*
X214489391Y-113849500D01*
X214310609Y-113849500D01*
X214279954Y-113856015D01*
X214135733Y-113886670D01*
X214135728Y-113886672D01*
X213972408Y-113959387D01*
X213827768Y-114064475D01*
X213708140Y-114197336D01*
X213618750Y-114352164D01*
X213618747Y-114352170D01*
X213563504Y-114522192D01*
X213563503Y-114522194D01*
X213544815Y-114700000D01*
X213000000Y-114700000D01*
X213000000Y-102374000D01*
X213019685Y-102306961D01*
X213072489Y-102261206D01*
X213124000Y-102250000D01*
X214876000Y-102250000D01*
X214943039Y-102269685D01*
G37*
%TD.AperFunction*%
%TD*%
M02*
