%TF.GenerationSoftware,KiCad,Pcbnew,7.0.8*%
%TF.CreationDate,2024-05-03T13:39:42+02:00*%
%TF.ProjectId,menelaos-fix,6d656e65-6c61-46f7-932d-6669782e6b69,rev?*%
%TF.SameCoordinates,Original*%
%TF.FileFunction,Soldermask,Bot*%
%TF.FilePolarity,Negative*%
%FSLAX46Y46*%
G04 Gerber Fmt 4.6, Leading zero omitted, Abs format (unit mm)*
G04 Created by KiCad (PCBNEW 7.0.8) date 2024-05-03 13:39:42*
%MOMM*%
%LPD*%
G01*
G04 APERTURE LIST*
%ADD10C,1.400000*%
%ADD11O,1.400000X1.400000*%
%ADD12R,3.960000X1.980000*%
%ADD13O,3.960000X1.980000*%
%ADD14C,1.600000*%
%ADD15C,4.300000*%
%ADD16R,1.600000X1.600000*%
%ADD17O,1.600000X1.600000*%
G04 APERTURE END LIST*
D10*
%TO.C,R101*%
X223060000Y-74590000D03*
D11*
X223060000Y-82210000D03*
%TD*%
D12*
%TO.C,J101*%
X232500000Y-89670000D03*
D13*
X232500000Y-84670000D03*
X232500000Y-79670000D03*
X232500000Y-74670000D03*
%TD*%
D14*
%TO.C,C101*%
X228100000Y-70110000D03*
X228100000Y-67610000D03*
%TD*%
D10*
%TO.C,R105*%
X214970000Y-82250000D03*
D11*
X214970000Y-74630000D03*
%TD*%
D15*
%TO.C,H102*%
X234470000Y-64980000D03*
%TD*%
D10*
%TO.C,R103*%
X217550000Y-82290000D03*
D11*
X217550000Y-74670000D03*
%TD*%
D16*
%TO.C,U101*%
X223750000Y-63990000D03*
D17*
X221210000Y-63990000D03*
X218670000Y-63990000D03*
X216130000Y-63990000D03*
X213590000Y-63990000D03*
X211050000Y-63990000D03*
X208510000Y-63990000D03*
X208510000Y-71610000D03*
X211050000Y-71610000D03*
X213590000Y-71610000D03*
X216130000Y-71610000D03*
X218670000Y-71610000D03*
X221210000Y-71610000D03*
X223750000Y-71610000D03*
%TD*%
D10*
%TO.C,R102*%
X220240000Y-74660000D03*
D11*
X220240000Y-82280000D03*
%TD*%
D15*
%TO.C,H104*%
X195470000Y-97980000D03*
%TD*%
D12*
%TO.C,J102*%
X197400000Y-78140000D03*
D13*
X197400000Y-83140000D03*
%TD*%
D10*
%TO.C,R104*%
X209670000Y-82080000D03*
D11*
X209670000Y-74460000D03*
%TD*%
D15*
%TO.C,H103*%
X234470000Y-97980000D03*
%TD*%
D10*
%TO.C,R107*%
X212300000Y-82220000D03*
D11*
X212300000Y-74600000D03*
%TD*%
D10*
%TO.C,R106*%
X207200000Y-82090000D03*
D11*
X207200000Y-74470000D03*
%TD*%
D15*
%TO.C,H101*%
X195470000Y-64980000D03*
%TD*%
M02*
