%TF.GenerationSoftware,KiCad,Pcbnew,7.0.8*%
%TF.CreationDate,2024-05-03T13:39:42+02:00*%
%TF.ProjectId,menelaos-fix,6d656e65-6c61-46f7-932d-6669782e6b69,rev?*%
%TF.SameCoordinates,Original*%
%TF.FileFunction,Copper,L1,Top*%
%TF.FilePolarity,Positive*%
%FSLAX46Y46*%
G04 Gerber Fmt 4.6, Leading zero omitted, Abs format (unit mm)*
G04 Created by KiCad (PCBNEW 7.0.8) date 2024-05-03 13:39:42*
%MOMM*%
%LPD*%
G01*
G04 APERTURE LIST*
%TA.AperFunction,ComponentPad*%
%ADD10C,1.400000*%
%TD*%
%TA.AperFunction,ComponentPad*%
%ADD11O,1.400000X1.400000*%
%TD*%
%TA.AperFunction,ComponentPad*%
%ADD12R,3.960000X1.980000*%
%TD*%
%TA.AperFunction,ComponentPad*%
%ADD13O,3.960000X1.980000*%
%TD*%
%TA.AperFunction,ComponentPad*%
%ADD14C,1.600000*%
%TD*%
%TA.AperFunction,ComponentPad*%
%ADD15R,1.600000X1.600000*%
%TD*%
%TA.AperFunction,ComponentPad*%
%ADD16O,1.600000X1.600000*%
%TD*%
%TA.AperFunction,Conductor*%
%ADD17C,1.000000*%
%TD*%
%TA.AperFunction,Conductor*%
%ADD18C,0.250000*%
%TD*%
G04 APERTURE END LIST*
D10*
%TO.P,R101,1*%
%TO.N,+6V*%
X223060000Y-74590000D03*
D11*
%TO.P,R101,2*%
%TO.N,/12V_IN*%
X223060000Y-82210000D03*
%TD*%
D12*
%TO.P,J101,1,Pin_1*%
%TO.N,/12V_IN*%
X232500000Y-89670000D03*
D13*
%TO.P,J101,2,Pin_2*%
%TO.N,/ch_A-IN*%
X232500000Y-84670000D03*
%TO.P,J101,3,Pin_3*%
%TO.N,/ch_B-IN*%
X232500000Y-79670000D03*
%TO.P,J101,4,Pin_4*%
%TO.N,GND*%
X232500000Y-74670000D03*
%TD*%
D14*
%TO.P,C101,1*%
%TO.N,+6V*%
X228100000Y-70110000D03*
%TO.P,C101,2*%
%TO.N,GND*%
X228100000Y-67610000D03*
%TD*%
D10*
%TO.P,R105,1*%
%TO.N,/ch_A-IN*%
X214970000Y-82250000D03*
D11*
%TO.P,R105,2*%
%TO.N,/SCHMITT_A_IN*%
X214970000Y-74630000D03*
%TD*%
D10*
%TO.P,R103,1*%
%TO.N,GND*%
X217550000Y-82290000D03*
D11*
%TO.P,R103,2*%
%TO.N,+6V*%
X217550000Y-74670000D03*
%TD*%
D15*
%TO.P,U101,1*%
%TO.N,/SCHMITT_A_IN*%
X223750000Y-63990000D03*
D16*
%TO.P,U101,2*%
%TO.N,/ch_A-OUT*%
X221210000Y-63990000D03*
%TO.P,U101,3*%
%TO.N,/SCHMITT_B_IN*%
X218670000Y-63990000D03*
%TO.P,U101,4*%
%TO.N,/ch_B-OUT*%
X216130000Y-63990000D03*
%TO.P,U101,5*%
%TO.N,unconnected-(U101-Pad5)*%
X213590000Y-63990000D03*
%TO.P,U101,6*%
%TO.N,unconnected-(U101-Pad6)*%
X211050000Y-63990000D03*
%TO.P,U101,7,GND*%
%TO.N,GND*%
X208510000Y-63990000D03*
%TO.P,U101,8*%
%TO.N,unconnected-(U101-Pad8)*%
X208510000Y-71610000D03*
%TO.P,U101,9*%
%TO.N,unconnected-(U101-Pad9)*%
X211050000Y-71610000D03*
%TO.P,U101,10*%
%TO.N,unconnected-(U101-Pad10)*%
X213590000Y-71610000D03*
%TO.P,U101,11*%
%TO.N,unconnected-(U101-Pad11)*%
X216130000Y-71610000D03*
%TO.P,U101,12*%
%TO.N,unconnected-(U101-Pad12)*%
X218670000Y-71610000D03*
%TO.P,U101,13*%
%TO.N,unconnected-(U101-Pad13)*%
X221210000Y-71610000D03*
%TO.P,U101,14,VCC*%
%TO.N,+6V*%
X223750000Y-71610000D03*
%TD*%
D10*
%TO.P,R102,1*%
%TO.N,+6V*%
X220240000Y-74660000D03*
D11*
%TO.P,R102,2*%
%TO.N,/12V_IN*%
X220240000Y-82280000D03*
%TD*%
D12*
%TO.P,J102,1,Pin_1*%
%TO.N,/ch_A-OUT*%
X197400000Y-78140000D03*
D13*
%TO.P,J102,2,Pin_2*%
%TO.N,/ch_B-OUT*%
X197400000Y-83140000D03*
%TD*%
D10*
%TO.P,R104,1*%
%TO.N,/ch_B-IN*%
X209670000Y-82080000D03*
D11*
%TO.P,R104,2*%
%TO.N,/SCHMITT_B_IN*%
X209670000Y-74460000D03*
%TD*%
D10*
%TO.P,R107,1*%
%TO.N,GND*%
X212300000Y-82220000D03*
D11*
%TO.P,R107,2*%
%TO.N,/SCHMITT_A_IN*%
X212300000Y-74600000D03*
%TD*%
D10*
%TO.P,R106,1*%
%TO.N,GND*%
X207200000Y-82090000D03*
D11*
%TO.P,R106,2*%
%TO.N,/SCHMITT_B_IN*%
X207200000Y-74470000D03*
%TD*%
D17*
%TO.N,+6V*%
X223750000Y-71610000D02*
X226600000Y-71610000D01*
X226600000Y-71610000D02*
X228100000Y-70110000D01*
X223060000Y-74590000D02*
X223060000Y-72300000D01*
X223060000Y-72300000D02*
X223750000Y-71610000D01*
X217550000Y-74670000D02*
X222980000Y-74670000D01*
X222980000Y-74670000D02*
X223060000Y-74590000D01*
%TO.N,/12V_IN*%
X223060000Y-82210000D02*
X220310000Y-82210000D01*
X220310000Y-82210000D02*
X220240000Y-82280000D01*
X232500000Y-89670000D02*
X230520000Y-89670000D01*
X230520000Y-89670000D02*
X223060000Y-82210000D01*
D18*
%TO.N,/ch_A-IN*%
X216750000Y-80470000D02*
X214970000Y-82250000D01*
X227830000Y-80000000D02*
X216750000Y-80000000D01*
X232500000Y-84670000D02*
X227830000Y-80000000D01*
X216750000Y-80000000D02*
X216750000Y-80470000D01*
%TO.N,/ch_B-IN*%
X212000000Y-79750000D02*
X209670000Y-82080000D01*
X212000000Y-78500000D02*
X212000000Y-79750000D01*
X232500000Y-79670000D02*
X231330000Y-78500000D01*
X231330000Y-78500000D02*
X212000000Y-78500000D01*
%TO.N,/ch_A-OUT*%
X207885000Y-62865000D02*
X197400000Y-73350000D01*
X197400000Y-73350000D02*
X197400000Y-78140000D01*
X220085000Y-62865000D02*
X207885000Y-62865000D01*
X221210000Y-63990000D02*
X220085000Y-62865000D01*
%TO.N,/ch_B-OUT*%
X199705000Y-80835000D02*
X197400000Y-83140000D01*
X216130000Y-63990000D02*
X215005000Y-65115000D01*
X199705000Y-78250000D02*
X199705000Y-80835000D01*
X212840000Y-65115000D02*
X199705000Y-78250000D01*
X215005000Y-65115000D02*
X212840000Y-65115000D01*
%TO.N,/SCHMITT_B_IN*%
X209670000Y-74460000D02*
X210370000Y-74460000D01*
X207200000Y-74470000D02*
X209660000Y-74470000D01*
X210370000Y-74460000D02*
X212250000Y-72580000D01*
X212250000Y-72580000D02*
X212250000Y-70410000D01*
X212250000Y-70410000D02*
X218670000Y-63990000D01*
X209660000Y-74470000D02*
X209670000Y-74460000D01*
%TO.N,/SCHMITT_A_IN*%
X214970000Y-69970000D02*
X214970000Y-74630000D01*
X215440000Y-69500000D02*
X214970000Y-69970000D01*
X214940000Y-74600000D02*
X214970000Y-74630000D01*
X218240000Y-69500000D02*
X215440000Y-69500000D01*
X212300000Y-74600000D02*
X214940000Y-74600000D01*
X223750000Y-63990000D02*
X218240000Y-69500000D01*
%TD*%
M02*
