%TF.GenerationSoftware,KiCad,Pcbnew,7.0.8*%
%TF.CreationDate,2024-05-03T13:39:42+02:00*%
%TF.ProjectId,menelaos-fix,6d656e65-6c61-46f7-932d-6669782e6b69,rev?*%
%TF.SameCoordinates,Original*%
%TF.FileFunction,Copper,L2,Bot*%
%TF.FilePolarity,Positive*%
%FSLAX46Y46*%
G04 Gerber Fmt 4.6, Leading zero omitted, Abs format (unit mm)*
G04 Created by KiCad (PCBNEW 7.0.8) date 2024-05-03 13:39:42*
%MOMM*%
%LPD*%
G01*
G04 APERTURE LIST*
%TA.AperFunction,ComponentPad*%
%ADD10C,1.400000*%
%TD*%
%TA.AperFunction,ComponentPad*%
%ADD11O,1.400000X1.400000*%
%TD*%
%TA.AperFunction,ComponentPad*%
%ADD12R,3.960000X1.980000*%
%TD*%
%TA.AperFunction,ComponentPad*%
%ADD13O,3.960000X1.980000*%
%TD*%
%TA.AperFunction,ComponentPad*%
%ADD14C,1.600000*%
%TD*%
%TA.AperFunction,ComponentPad*%
%ADD15R,1.600000X1.600000*%
%TD*%
%TA.AperFunction,ComponentPad*%
%ADD16O,1.600000X1.600000*%
%TD*%
G04 APERTURE END LIST*
D10*
%TO.P,R101,1*%
%TO.N,+6V*%
X223060000Y-74590000D03*
D11*
%TO.P,R101,2*%
%TO.N,/12V_IN*%
X223060000Y-82210000D03*
%TD*%
D12*
%TO.P,J101,1,Pin_1*%
%TO.N,/12V_IN*%
X232500000Y-89670000D03*
D13*
%TO.P,J101,2,Pin_2*%
%TO.N,/ch_A-IN*%
X232500000Y-84670000D03*
%TO.P,J101,3,Pin_3*%
%TO.N,/ch_B-IN*%
X232500000Y-79670000D03*
%TO.P,J101,4,Pin_4*%
%TO.N,GND*%
X232500000Y-74670000D03*
%TD*%
D14*
%TO.P,C101,1*%
%TO.N,+6V*%
X228100000Y-70110000D03*
%TO.P,C101,2*%
%TO.N,GND*%
X228100000Y-67610000D03*
%TD*%
D10*
%TO.P,R105,1*%
%TO.N,/ch_A-IN*%
X214970000Y-82250000D03*
D11*
%TO.P,R105,2*%
%TO.N,/SCHMITT_A_IN*%
X214970000Y-74630000D03*
%TD*%
D10*
%TO.P,R103,1*%
%TO.N,GND*%
X217550000Y-82290000D03*
D11*
%TO.P,R103,2*%
%TO.N,+6V*%
X217550000Y-74670000D03*
%TD*%
D15*
%TO.P,U101,1*%
%TO.N,/SCHMITT_A_IN*%
X223750000Y-63990000D03*
D16*
%TO.P,U101,2*%
%TO.N,/ch_A-OUT*%
X221210000Y-63990000D03*
%TO.P,U101,3*%
%TO.N,/SCHMITT_B_IN*%
X218670000Y-63990000D03*
%TO.P,U101,4*%
%TO.N,/ch_B-OUT*%
X216130000Y-63990000D03*
%TO.P,U101,5*%
%TO.N,unconnected-(U101-Pad5)*%
X213590000Y-63990000D03*
%TO.P,U101,6*%
%TO.N,unconnected-(U101-Pad6)*%
X211050000Y-63990000D03*
%TO.P,U101,7,GND*%
%TO.N,GND*%
X208510000Y-63990000D03*
%TO.P,U101,8*%
%TO.N,unconnected-(U101-Pad8)*%
X208510000Y-71610000D03*
%TO.P,U101,9*%
%TO.N,unconnected-(U101-Pad9)*%
X211050000Y-71610000D03*
%TO.P,U101,10*%
%TO.N,unconnected-(U101-Pad10)*%
X213590000Y-71610000D03*
%TO.P,U101,11*%
%TO.N,unconnected-(U101-Pad11)*%
X216130000Y-71610000D03*
%TO.P,U101,12*%
%TO.N,unconnected-(U101-Pad12)*%
X218670000Y-71610000D03*
%TO.P,U101,13*%
%TO.N,unconnected-(U101-Pad13)*%
X221210000Y-71610000D03*
%TO.P,U101,14,VCC*%
%TO.N,+6V*%
X223750000Y-71610000D03*
%TD*%
D10*
%TO.P,R102,1*%
%TO.N,+6V*%
X220240000Y-74660000D03*
D11*
%TO.P,R102,2*%
%TO.N,/12V_IN*%
X220240000Y-82280000D03*
%TD*%
D12*
%TO.P,J102,1,Pin_1*%
%TO.N,/ch_A-OUT*%
X197400000Y-78140000D03*
D13*
%TO.P,J102,2,Pin_2*%
%TO.N,/ch_B-OUT*%
X197400000Y-83140000D03*
%TD*%
D10*
%TO.P,R104,1*%
%TO.N,/ch_B-IN*%
X209670000Y-82080000D03*
D11*
%TO.P,R104,2*%
%TO.N,/SCHMITT_B_IN*%
X209670000Y-74460000D03*
%TD*%
D10*
%TO.P,R107,1*%
%TO.N,GND*%
X212300000Y-82220000D03*
D11*
%TO.P,R107,2*%
%TO.N,/SCHMITT_A_IN*%
X212300000Y-74600000D03*
%TD*%
D10*
%TO.P,R106,1*%
%TO.N,GND*%
X207200000Y-82090000D03*
D11*
%TO.P,R106,2*%
%TO.N,/SCHMITT_B_IN*%
X207200000Y-74470000D03*
%TD*%
%TA.AperFunction,Conductor*%
%TO.N,GND*%
G36*
X238695273Y-60519685D02*
G01*
X238741028Y-60572489D01*
X238752213Y-60621743D01*
X238989050Y-73647761D01*
X239247692Y-87873083D01*
X239229229Y-87940469D01*
X239177265Y-87987176D01*
X239123063Y-87999335D01*
X191622224Y-87750639D01*
X191555288Y-87730604D01*
X191509810Y-87677561D01*
X191498878Y-87627782D01*
X191472876Y-84793504D01*
X230019500Y-84793504D01*
X230060157Y-85037153D01*
X230140359Y-85270771D01*
X230140362Y-85270780D01*
X230257928Y-85488022D01*
X230257932Y-85488028D01*
X230409639Y-85682941D01*
X230409641Y-85682943D01*
X230409645Y-85682948D01*
X230591379Y-85850245D01*
X230798169Y-85985348D01*
X231024377Y-86084572D01*
X231263831Y-86145210D01*
X231448355Y-86160500D01*
X231448357Y-86160500D01*
X233551643Y-86160500D01*
X233551645Y-86160500D01*
X233736169Y-86145210D01*
X233975623Y-86084572D01*
X234201831Y-85985348D01*
X234408621Y-85850245D01*
X234590355Y-85682948D01*
X234742073Y-85488020D01*
X234859638Y-85270779D01*
X234939843Y-85037150D01*
X234980500Y-84793506D01*
X234980500Y-84546494D01*
X234939843Y-84302850D01*
X234859638Y-84069221D01*
X234742073Y-83851980D01*
X234742071Y-83851977D01*
X234742067Y-83851971D01*
X234590360Y-83657058D01*
X234590357Y-83657055D01*
X234590355Y-83657052D01*
X234408621Y-83489755D01*
X234408618Y-83489753D01*
X234408617Y-83489752D01*
X234301853Y-83420000D01*
X234201831Y-83354652D01*
X234201828Y-83354650D01*
X234201827Y-83354650D01*
X233975623Y-83255428D01*
X233913187Y-83239617D01*
X233736169Y-83194790D01*
X233736168Y-83194789D01*
X233736165Y-83194789D01*
X233588297Y-83182537D01*
X233551645Y-83179500D01*
X231448355Y-83179500D01*
X231415014Y-83182262D01*
X231263834Y-83194789D01*
X231024376Y-83255428D01*
X230798172Y-83354650D01*
X230591382Y-83489752D01*
X230409642Y-83657055D01*
X230409639Y-83657058D01*
X230257932Y-83851971D01*
X230257928Y-83851977D01*
X230140362Y-84069219D01*
X230140359Y-84069228D01*
X230060157Y-84302846D01*
X230019500Y-84546495D01*
X230019500Y-84793504D01*
X191472876Y-84793504D01*
X191458839Y-83263506D01*
X194919500Y-83263506D01*
X194923921Y-83290000D01*
X194960157Y-83507153D01*
X195040359Y-83740771D01*
X195040362Y-83740780D01*
X195157928Y-83958022D01*
X195157932Y-83958028D01*
X195309639Y-84152941D01*
X195309641Y-84152943D01*
X195309645Y-84152948D01*
X195491379Y-84320245D01*
X195698169Y-84455348D01*
X195924377Y-84554572D01*
X196163831Y-84615210D01*
X196348355Y-84630500D01*
X196348357Y-84630500D01*
X198451643Y-84630500D01*
X198451645Y-84630500D01*
X198636169Y-84615210D01*
X198875623Y-84554572D01*
X199101831Y-84455348D01*
X199308621Y-84320245D01*
X199490355Y-84152948D01*
X199642073Y-83958020D01*
X199759638Y-83740779D01*
X199839843Y-83507150D01*
X199880500Y-83263506D01*
X199880500Y-83096880D01*
X206546672Y-83096880D01*
X206662821Y-83168797D01*
X206662822Y-83168798D01*
X206870195Y-83249134D01*
X207088807Y-83290000D01*
X207311193Y-83290000D01*
X207529809Y-83249133D01*
X207737168Y-83168801D01*
X207737181Y-83168795D01*
X207853326Y-83096879D01*
X207200001Y-82443553D01*
X207200000Y-82443553D01*
X206546672Y-83096879D01*
X206546672Y-83096880D01*
X199880500Y-83096880D01*
X199880500Y-83016494D01*
X199839843Y-82772850D01*
X199759638Y-82539221D01*
X199642073Y-82321980D01*
X199642071Y-82321977D01*
X199642067Y-82321971D01*
X199490360Y-82127058D01*
X199490357Y-82127055D01*
X199490355Y-82127052D01*
X199450106Y-82090000D01*
X205994859Y-82090000D01*
X206015378Y-82311439D01*
X206076240Y-82525350D01*
X206175369Y-82724428D01*
X206191137Y-82745308D01*
X206191138Y-82745308D01*
X206817145Y-82119302D01*
X206846372Y-82119302D01*
X206875047Y-82232538D01*
X206938936Y-82330327D01*
X207031115Y-82402072D01*
X207141595Y-82440000D01*
X207229005Y-82440000D01*
X207315216Y-82425614D01*
X207417947Y-82370019D01*
X207497060Y-82284079D01*
X207543982Y-82177108D01*
X207551200Y-82090000D01*
X207553553Y-82090000D01*
X208208861Y-82745308D01*
X208224631Y-82724425D01*
X208224636Y-82724418D01*
X208326210Y-82520429D01*
X208373712Y-82469192D01*
X208441375Y-82451770D01*
X208507716Y-82473695D01*
X208548210Y-82520428D01*
X208644938Y-82714683D01*
X208644943Y-82714691D01*
X208779020Y-82892238D01*
X208943437Y-83042123D01*
X208943439Y-83042125D01*
X209132595Y-83159245D01*
X209132596Y-83159245D01*
X209132599Y-83159247D01*
X209340060Y-83239618D01*
X209558757Y-83280500D01*
X209558759Y-83280500D01*
X209781241Y-83280500D01*
X209781243Y-83280500D01*
X209999940Y-83239618D01*
X210032820Y-83226880D01*
X211646672Y-83226880D01*
X211762821Y-83298797D01*
X211762822Y-83298798D01*
X211970195Y-83379134D01*
X212188807Y-83420000D01*
X212411193Y-83420000D01*
X212629809Y-83379133D01*
X212837168Y-83298801D01*
X212837181Y-83298795D01*
X212953326Y-83226879D01*
X212300001Y-82573553D01*
X212300000Y-82573553D01*
X211646672Y-83226879D01*
X211646672Y-83226880D01*
X210032820Y-83226880D01*
X210207401Y-83159247D01*
X210396562Y-83042124D01*
X210560981Y-82892236D01*
X210695058Y-82714689D01*
X210794229Y-82515528D01*
X210855115Y-82301536D01*
X210855292Y-82299616D01*
X210855634Y-82298755D01*
X210856169Y-82295898D01*
X210856727Y-82296002D01*
X210881072Y-82234679D01*
X210937868Y-82193986D01*
X211007649Y-82190459D01*
X211068259Y-82225218D01*
X211100455Y-82287228D01*
X211102235Y-82299606D01*
X211115378Y-82441439D01*
X211176240Y-82655350D01*
X211275369Y-82854428D01*
X211291137Y-82875308D01*
X211291138Y-82875308D01*
X211917145Y-82249302D01*
X211946372Y-82249302D01*
X211975047Y-82362538D01*
X212038936Y-82460327D01*
X212131115Y-82532072D01*
X212241595Y-82570000D01*
X212329005Y-82570000D01*
X212415216Y-82555614D01*
X212517947Y-82500019D01*
X212597060Y-82414079D01*
X212643982Y-82307108D01*
X212651200Y-82220000D01*
X212653553Y-82220000D01*
X213308861Y-82875308D01*
X213324631Y-82854425D01*
X213324633Y-82854422D01*
X213423759Y-82655350D01*
X213484621Y-82441439D01*
X213502361Y-82250000D01*
X213764357Y-82250000D01*
X213784884Y-82471535D01*
X213784885Y-82471537D01*
X213845769Y-82685523D01*
X213845775Y-82685538D01*
X213944938Y-82884683D01*
X213944943Y-82884691D01*
X214079020Y-83062238D01*
X214243437Y-83212123D01*
X214243439Y-83212125D01*
X214432595Y-83329245D01*
X214432596Y-83329245D01*
X214432599Y-83329247D01*
X214640060Y-83409618D01*
X214858757Y-83450500D01*
X214858759Y-83450500D01*
X215081241Y-83450500D01*
X215081243Y-83450500D01*
X215299940Y-83409618D01*
X215507401Y-83329247D01*
X215559676Y-83296880D01*
X216896672Y-83296880D01*
X217012821Y-83368797D01*
X217012822Y-83368798D01*
X217220195Y-83449134D01*
X217438807Y-83490000D01*
X217661193Y-83490000D01*
X217879809Y-83449133D01*
X218087168Y-83368801D01*
X218087181Y-83368795D01*
X218203326Y-83296879D01*
X217550001Y-82643553D01*
X217550000Y-82643553D01*
X216896672Y-83296879D01*
X216896672Y-83296880D01*
X215559676Y-83296880D01*
X215696562Y-83212124D01*
X215860981Y-83062236D01*
X215995058Y-82884689D01*
X216094229Y-82685528D01*
X216135303Y-82541164D01*
X216172582Y-82482073D01*
X216235891Y-82452515D01*
X216305131Y-82461877D01*
X216358317Y-82507186D01*
X216373836Y-82541166D01*
X216426240Y-82725350D01*
X216525369Y-82924428D01*
X216541137Y-82945308D01*
X216541138Y-82945308D01*
X217167145Y-82319302D01*
X217196372Y-82319302D01*
X217225047Y-82432538D01*
X217288936Y-82530327D01*
X217381115Y-82602072D01*
X217491595Y-82640000D01*
X217579005Y-82640000D01*
X217665216Y-82625614D01*
X217767947Y-82570019D01*
X217847060Y-82484079D01*
X217893982Y-82377108D01*
X217901200Y-82290000D01*
X217903553Y-82290000D01*
X218558861Y-82945308D01*
X218574631Y-82924425D01*
X218574633Y-82924422D01*
X218673759Y-82725350D01*
X218734621Y-82511439D01*
X218755141Y-82290000D01*
X218755141Y-82289999D01*
X218754214Y-82280000D01*
X219034357Y-82280000D01*
X219054884Y-82501535D01*
X219054885Y-82501537D01*
X219115769Y-82715523D01*
X219115775Y-82715538D01*
X219214938Y-82914683D01*
X219214943Y-82914691D01*
X219349020Y-83092238D01*
X219513437Y-83242123D01*
X219513439Y-83242125D01*
X219702595Y-83359245D01*
X219702596Y-83359245D01*
X219702599Y-83359247D01*
X219910060Y-83439618D01*
X220128757Y-83480500D01*
X220128759Y-83480500D01*
X220351241Y-83480500D01*
X220351243Y-83480500D01*
X220569940Y-83439618D01*
X220777401Y-83359247D01*
X220966562Y-83242124D01*
X221130981Y-83092236D01*
X221265058Y-82914689D01*
X221364229Y-82715528D01*
X221425115Y-82501536D01*
X221445643Y-82280000D01*
X221443854Y-82260698D01*
X221439156Y-82210000D01*
X221854357Y-82210000D01*
X221874884Y-82431535D01*
X221874885Y-82431537D01*
X221935769Y-82645523D01*
X221935775Y-82645538D01*
X222034938Y-82844683D01*
X222034943Y-82844691D01*
X222169020Y-83022238D01*
X222245805Y-83092236D01*
X222329788Y-83168797D01*
X222333437Y-83172123D01*
X222333439Y-83172125D01*
X222522595Y-83289245D01*
X222522596Y-83289245D01*
X222522599Y-83289247D01*
X222730060Y-83369618D01*
X222948757Y-83410500D01*
X222948759Y-83410500D01*
X223171241Y-83410500D01*
X223171243Y-83410500D01*
X223389940Y-83369618D01*
X223597401Y-83289247D01*
X223786562Y-83172124D01*
X223950981Y-83022236D01*
X224085058Y-82844689D01*
X224184229Y-82645528D01*
X224245115Y-82431536D01*
X224265643Y-82210000D01*
X224263854Y-82190698D01*
X224245115Y-81988464D01*
X224245114Y-81988462D01*
X224242613Y-81979673D01*
X224184229Y-81774472D01*
X224184224Y-81774461D01*
X224085061Y-81575316D01*
X224085056Y-81575308D01*
X223950979Y-81397761D01*
X223786562Y-81247876D01*
X223786560Y-81247874D01*
X223597404Y-81130754D01*
X223597398Y-81130752D01*
X223570630Y-81120382D01*
X223389940Y-81050382D01*
X223171243Y-81009500D01*
X222948757Y-81009500D01*
X222730060Y-81050382D01*
X222598864Y-81101207D01*
X222522601Y-81130752D01*
X222522595Y-81130754D01*
X222333439Y-81247874D01*
X222333437Y-81247876D01*
X222169020Y-81397761D01*
X222034943Y-81575308D01*
X222034938Y-81575316D01*
X221935775Y-81774461D01*
X221935769Y-81774476D01*
X221874885Y-81988462D01*
X221874884Y-81988464D01*
X221854357Y-82209999D01*
X221854357Y-82210000D01*
X221439156Y-82210000D01*
X221425115Y-82058464D01*
X221425114Y-82058462D01*
X221424961Y-82057925D01*
X221364229Y-81844472D01*
X221349291Y-81814472D01*
X221265061Y-81645316D01*
X221265056Y-81645308D01*
X221130979Y-81467761D01*
X220966562Y-81317876D01*
X220966560Y-81317874D01*
X220777404Y-81200754D01*
X220777398Y-81200752D01*
X220569940Y-81120382D01*
X220351243Y-81079500D01*
X220128757Y-81079500D01*
X219910060Y-81120382D01*
X219856318Y-81141202D01*
X219702601Y-81200752D01*
X219702595Y-81200754D01*
X219513439Y-81317874D01*
X219513437Y-81317876D01*
X219349020Y-81467761D01*
X219214943Y-81645308D01*
X219214938Y-81645316D01*
X219115775Y-81844461D01*
X219115769Y-81844476D01*
X219054885Y-82058462D01*
X219054884Y-82058464D01*
X219034357Y-82279999D01*
X219034357Y-82280000D01*
X218754214Y-82280000D01*
X218734621Y-82068560D01*
X218673759Y-81854649D01*
X218574635Y-81655580D01*
X218574630Y-81655572D01*
X218558860Y-81634690D01*
X217903553Y-82289999D01*
X217903553Y-82290000D01*
X217901200Y-82290000D01*
X217903628Y-82260698D01*
X217874953Y-82147462D01*
X217811064Y-82049673D01*
X217718885Y-81977928D01*
X217608405Y-81940000D01*
X217520995Y-81940000D01*
X217434784Y-81954386D01*
X217332053Y-82009981D01*
X217252940Y-82095921D01*
X217206018Y-82202892D01*
X217196372Y-82319302D01*
X217167145Y-82319302D01*
X217196447Y-82290000D01*
X216541138Y-81634691D01*
X216541137Y-81634691D01*
X216525368Y-81655574D01*
X216426239Y-81854651D01*
X216426236Y-81854657D01*
X216385216Y-81998832D01*
X216347937Y-82057925D01*
X216284628Y-82087483D01*
X216215388Y-82078121D01*
X216162202Y-82032812D01*
X216146684Y-81998832D01*
X216128934Y-81936447D01*
X216094229Y-81814472D01*
X216079379Y-81784649D01*
X215995061Y-81615316D01*
X215995056Y-81615308D01*
X215860979Y-81437761D01*
X215696562Y-81287876D01*
X215696560Y-81287874D01*
X215688880Y-81283119D01*
X216896671Y-81283119D01*
X217550000Y-81936447D01*
X217550001Y-81936447D01*
X218203327Y-81283119D01*
X218087178Y-81211202D01*
X218087177Y-81211201D01*
X217879804Y-81130865D01*
X217661193Y-81090000D01*
X217438807Y-81090000D01*
X217220195Y-81130865D01*
X217012824Y-81211200D01*
X217012823Y-81211201D01*
X216896671Y-81283119D01*
X215688880Y-81283119D01*
X215507404Y-81170754D01*
X215507398Y-81170752D01*
X215299940Y-81090382D01*
X215081243Y-81049500D01*
X214858757Y-81049500D01*
X214640060Y-81090382D01*
X214535853Y-81130752D01*
X214432601Y-81170752D01*
X214432595Y-81170754D01*
X214243439Y-81287874D01*
X214243437Y-81287876D01*
X214079020Y-81437761D01*
X213944943Y-81615308D01*
X213944938Y-81615316D01*
X213845775Y-81814461D01*
X213845769Y-81814476D01*
X213784885Y-82028462D01*
X213784884Y-82028464D01*
X213764357Y-82249999D01*
X213764357Y-82250000D01*
X213502361Y-82250000D01*
X213505141Y-82220000D01*
X213505141Y-82219999D01*
X213484621Y-81998560D01*
X213423759Y-81784649D01*
X213324635Y-81585580D01*
X213324630Y-81585572D01*
X213308860Y-81564690D01*
X212653553Y-82219999D01*
X212653553Y-82220000D01*
X212651200Y-82220000D01*
X212653628Y-82190698D01*
X212624953Y-82077462D01*
X212561064Y-81979673D01*
X212468885Y-81907928D01*
X212358405Y-81870000D01*
X212270995Y-81870000D01*
X212184784Y-81884386D01*
X212082053Y-81939981D01*
X212002940Y-82025921D01*
X211956018Y-82132892D01*
X211946372Y-82249302D01*
X211917145Y-82249302D01*
X211946447Y-82220000D01*
X211291138Y-81564691D01*
X211291137Y-81564691D01*
X211275368Y-81585574D01*
X211176240Y-81784649D01*
X211115377Y-81998562D01*
X211115207Y-82000405D01*
X211114878Y-82001230D01*
X211114325Y-82004194D01*
X211113745Y-82004085D01*
X211089415Y-82065340D01*
X211032611Y-82106023D01*
X210962830Y-82109536D01*
X210902226Y-82074766D01*
X210870042Y-82012750D01*
X210868267Y-82000404D01*
X210855115Y-81858464D01*
X210794229Y-81644472D01*
X210789359Y-81634691D01*
X210695061Y-81445316D01*
X210695056Y-81445308D01*
X210560979Y-81267761D01*
X210501039Y-81213119D01*
X211646671Y-81213119D01*
X212300000Y-81866447D01*
X212300001Y-81866447D01*
X212953327Y-81213119D01*
X212837178Y-81141202D01*
X212837177Y-81141201D01*
X212629804Y-81060865D01*
X212411193Y-81020000D01*
X212188807Y-81020000D01*
X211970195Y-81060865D01*
X211762824Y-81141200D01*
X211762823Y-81141201D01*
X211646671Y-81213119D01*
X210501039Y-81213119D01*
X210396562Y-81117876D01*
X210396560Y-81117874D01*
X210207404Y-81000754D01*
X210207398Y-81000752D01*
X209999940Y-80920382D01*
X209781243Y-80879500D01*
X209558757Y-80879500D01*
X209340060Y-80920382D01*
X209208864Y-80971207D01*
X209132601Y-81000752D01*
X209132595Y-81000754D01*
X208943439Y-81117874D01*
X208943437Y-81117876D01*
X208779020Y-81267761D01*
X208644943Y-81445308D01*
X208644938Y-81445316D01*
X208543231Y-81649571D01*
X208495728Y-81700808D01*
X208428065Y-81718229D01*
X208361725Y-81696303D01*
X208321231Y-81649571D01*
X208224635Y-81455580D01*
X208224630Y-81455572D01*
X208208860Y-81434690D01*
X207553553Y-82089999D01*
X207553553Y-82090000D01*
X207551200Y-82090000D01*
X207553628Y-82060698D01*
X207524953Y-81947462D01*
X207461064Y-81849673D01*
X207368885Y-81777928D01*
X207258405Y-81740000D01*
X207170995Y-81740000D01*
X207084784Y-81754386D01*
X206982053Y-81809981D01*
X206902940Y-81895921D01*
X206856018Y-82002892D01*
X206846372Y-82119302D01*
X206817145Y-82119302D01*
X206846447Y-82090000D01*
X206191138Y-81434691D01*
X206191137Y-81434691D01*
X206175368Y-81455574D01*
X206076240Y-81654649D01*
X206015378Y-81868560D01*
X205994859Y-82089999D01*
X205994859Y-82090000D01*
X199450106Y-82090000D01*
X199308621Y-81959755D01*
X199308618Y-81959753D01*
X199308617Y-81959752D01*
X199169037Y-81868560D01*
X199101831Y-81824652D01*
X199101828Y-81824650D01*
X199101827Y-81824650D01*
X198875623Y-81725428D01*
X198636165Y-81664789D01*
X198488297Y-81652537D01*
X198451645Y-81649500D01*
X196348355Y-81649500D01*
X196315014Y-81652262D01*
X196163834Y-81664789D01*
X195924376Y-81725428D01*
X195698172Y-81824650D01*
X195491382Y-81959752D01*
X195400512Y-82043403D01*
X195343463Y-82095921D01*
X195309642Y-82127055D01*
X195309639Y-82127058D01*
X195157932Y-82321971D01*
X195157928Y-82321977D01*
X195040362Y-82539219D01*
X195040359Y-82539228D01*
X194960157Y-82772846D01*
X194934863Y-82924428D01*
X194919500Y-83016494D01*
X194919500Y-83263506D01*
X191458839Y-83263506D01*
X191438835Y-81083119D01*
X206546671Y-81083119D01*
X207200000Y-81736447D01*
X207200001Y-81736447D01*
X207853327Y-81083119D01*
X207737178Y-81011202D01*
X207737177Y-81011201D01*
X207529804Y-80930865D01*
X207311193Y-80890000D01*
X207088807Y-80890000D01*
X206870195Y-80930865D01*
X206662824Y-81011200D01*
X206662823Y-81011201D01*
X206546671Y-81083119D01*
X191438835Y-81083119D01*
X191427004Y-79793504D01*
X230019500Y-79793504D01*
X230060157Y-80037153D01*
X230140359Y-80270771D01*
X230140362Y-80270780D01*
X230257928Y-80488022D01*
X230257932Y-80488028D01*
X230409639Y-80682941D01*
X230409641Y-80682943D01*
X230409645Y-80682948D01*
X230591379Y-80850245D01*
X230798169Y-80985348D01*
X231024377Y-81084572D01*
X231263831Y-81145210D01*
X231448355Y-81160500D01*
X231448357Y-81160500D01*
X233551643Y-81160500D01*
X233551645Y-81160500D01*
X233736169Y-81145210D01*
X233975623Y-81084572D01*
X234201831Y-80985348D01*
X234408621Y-80850245D01*
X234590355Y-80682948D01*
X234742073Y-80488020D01*
X234859638Y-80270779D01*
X234939843Y-80037150D01*
X234980500Y-79793506D01*
X234980500Y-79546494D01*
X234939843Y-79302850D01*
X234917402Y-79237483D01*
X234859640Y-79069228D01*
X234859637Y-79069219D01*
X234742071Y-78851977D01*
X234742067Y-78851971D01*
X234590360Y-78657058D01*
X234590357Y-78657055D01*
X234590355Y-78657052D01*
X234408621Y-78489755D01*
X234408618Y-78489753D01*
X234408617Y-78489752D01*
X234328659Y-78437513D01*
X234201831Y-78354652D01*
X234201828Y-78354650D01*
X234201827Y-78354650D01*
X233975623Y-78255428D01*
X233736165Y-78194789D01*
X233588297Y-78182537D01*
X233551645Y-78179500D01*
X231448355Y-78179500D01*
X231415014Y-78182262D01*
X231263834Y-78194789D01*
X231024376Y-78255428D01*
X230798172Y-78354650D01*
X230591382Y-78489752D01*
X230409642Y-78657055D01*
X230409639Y-78657058D01*
X230257932Y-78851971D01*
X230257928Y-78851977D01*
X230140362Y-79069219D01*
X230140359Y-79069228D01*
X230060157Y-79302846D01*
X230019500Y-79546495D01*
X230019500Y-79793504D01*
X191427004Y-79793504D01*
X191421356Y-79177870D01*
X194919500Y-79177870D01*
X194919501Y-79177876D01*
X194925908Y-79237483D01*
X194976202Y-79372328D01*
X194976206Y-79372335D01*
X195062452Y-79487544D01*
X195062455Y-79487547D01*
X195177664Y-79573793D01*
X195177671Y-79573797D01*
X195312517Y-79624091D01*
X195312516Y-79624091D01*
X195319444Y-79624835D01*
X195372127Y-79630500D01*
X199427872Y-79630499D01*
X199487483Y-79624091D01*
X199622331Y-79573796D01*
X199737546Y-79487546D01*
X199823796Y-79372331D01*
X199874091Y-79237483D01*
X199880500Y-79177873D01*
X199880499Y-77102128D01*
X199874091Y-77042517D01*
X199823796Y-76907669D01*
X199823795Y-76907668D01*
X199823793Y-76907664D01*
X199737547Y-76792455D01*
X199737544Y-76792452D01*
X199622335Y-76706206D01*
X199622328Y-76706202D01*
X199487482Y-76655908D01*
X199487483Y-76655908D01*
X199427883Y-76649501D01*
X199427881Y-76649500D01*
X199427873Y-76649500D01*
X199427864Y-76649500D01*
X195372129Y-76649500D01*
X195372123Y-76649501D01*
X195312516Y-76655908D01*
X195177671Y-76706202D01*
X195177664Y-76706206D01*
X195062455Y-76792452D01*
X195062452Y-76792455D01*
X194976206Y-76907664D01*
X194976202Y-76907671D01*
X194925908Y-77042517D01*
X194919501Y-77102116D01*
X194919501Y-77102123D01*
X194919500Y-77102135D01*
X194919500Y-79177870D01*
X191421356Y-79177870D01*
X191378165Y-74470000D01*
X205994357Y-74470000D01*
X206014884Y-74691535D01*
X206014885Y-74691537D01*
X206075769Y-74905523D01*
X206075775Y-74905538D01*
X206174938Y-75104683D01*
X206174943Y-75104691D01*
X206309020Y-75282238D01*
X206473437Y-75432123D01*
X206473439Y-75432125D01*
X206662595Y-75549245D01*
X206662596Y-75549245D01*
X206662599Y-75549247D01*
X206870060Y-75629618D01*
X207088757Y-75670500D01*
X207088759Y-75670500D01*
X207311241Y-75670500D01*
X207311243Y-75670500D01*
X207529940Y-75629618D01*
X207737401Y-75549247D01*
X207926562Y-75432124D01*
X208090981Y-75282236D01*
X208225058Y-75104689D01*
X208324229Y-74905528D01*
X208324229Y-74905527D01*
X208326489Y-74900989D01*
X208373992Y-74849751D01*
X208441654Y-74832330D01*
X208507995Y-74854255D01*
X208548489Y-74900988D01*
X208644938Y-75094683D01*
X208644943Y-75094691D01*
X208779020Y-75272238D01*
X208943437Y-75422123D01*
X208943439Y-75422125D01*
X209132595Y-75539245D01*
X209132596Y-75539245D01*
X209132599Y-75539247D01*
X209340060Y-75619618D01*
X209558757Y-75660500D01*
X209558759Y-75660500D01*
X209781241Y-75660500D01*
X209781243Y-75660500D01*
X209999940Y-75619618D01*
X210207401Y-75539247D01*
X210396562Y-75422124D01*
X210560981Y-75272236D01*
X210695058Y-75094689D01*
X210794229Y-74895528D01*
X210855115Y-74681536D01*
X210855115Y-74681527D01*
X210856169Y-74675898D01*
X210857495Y-74676146D01*
X210880818Y-74617392D01*
X210937613Y-74576697D01*
X211007394Y-74573168D01*
X211068005Y-74607926D01*
X211100203Y-74669934D01*
X211101984Y-74682316D01*
X211108269Y-74750138D01*
X211113958Y-74811537D01*
X211114885Y-74821535D01*
X211114885Y-74821537D01*
X211175769Y-75035523D01*
X211175775Y-75035538D01*
X211274938Y-75234683D01*
X211274943Y-75234691D01*
X211409020Y-75412238D01*
X211573437Y-75562123D01*
X211573439Y-75562125D01*
X211762595Y-75679245D01*
X211762596Y-75679245D01*
X211762599Y-75679247D01*
X211970060Y-75759618D01*
X212188757Y-75800500D01*
X212188759Y-75800500D01*
X212411241Y-75800500D01*
X212411243Y-75800500D01*
X212629940Y-75759618D01*
X212837401Y-75679247D01*
X213026562Y-75562124D01*
X213180133Y-75422125D01*
X213190979Y-75412238D01*
X213198533Y-75402236D01*
X213325058Y-75234689D01*
X213424229Y-75035528D01*
X213485115Y-74821536D01*
X213502863Y-74630000D01*
X213764357Y-74630000D01*
X213784884Y-74851535D01*
X213784885Y-74851537D01*
X213845769Y-75065523D01*
X213845775Y-75065538D01*
X213944938Y-75264683D01*
X213944943Y-75264691D01*
X214079020Y-75442238D01*
X214243437Y-75592123D01*
X214243439Y-75592125D01*
X214432595Y-75709245D01*
X214432596Y-75709245D01*
X214432599Y-75709247D01*
X214640060Y-75789618D01*
X214858757Y-75830500D01*
X214858759Y-75830500D01*
X215081241Y-75830500D01*
X215081243Y-75830500D01*
X215299940Y-75789618D01*
X215507401Y-75709247D01*
X215696562Y-75592124D01*
X215860981Y-75442236D01*
X215995058Y-75264689D01*
X216094229Y-75065528D01*
X216135043Y-74922078D01*
X216172322Y-74862987D01*
X216235631Y-74833429D01*
X216304871Y-74842791D01*
X216358057Y-74888100D01*
X216373575Y-74922079D01*
X216425770Y-75105525D01*
X216425775Y-75105538D01*
X216524938Y-75304683D01*
X216524943Y-75304691D01*
X216659020Y-75482238D01*
X216823437Y-75632123D01*
X216823439Y-75632125D01*
X217012595Y-75749245D01*
X217012596Y-75749245D01*
X217012599Y-75749247D01*
X217220060Y-75829618D01*
X217438757Y-75870500D01*
X217438759Y-75870500D01*
X217661241Y-75870500D01*
X217661243Y-75870500D01*
X217879940Y-75829618D01*
X218087401Y-75749247D01*
X218276562Y-75632124D01*
X218440981Y-75482236D01*
X218575058Y-75304689D01*
X218674229Y-75105528D01*
X218735115Y-74891536D01*
X218755643Y-74670000D01*
X218754716Y-74660000D01*
X219034357Y-74660000D01*
X219054884Y-74881535D01*
X219054885Y-74881537D01*
X219115769Y-75095523D01*
X219115775Y-75095538D01*
X219214938Y-75294683D01*
X219214943Y-75294691D01*
X219349020Y-75472238D01*
X219513437Y-75622123D01*
X219513439Y-75622125D01*
X219702595Y-75739245D01*
X219702596Y-75739245D01*
X219702599Y-75739247D01*
X219910060Y-75819618D01*
X220128757Y-75860500D01*
X220128759Y-75860500D01*
X220351241Y-75860500D01*
X220351243Y-75860500D01*
X220569940Y-75819618D01*
X220777401Y-75739247D01*
X220966562Y-75622124D01*
X221130981Y-75472236D01*
X221265058Y-75294689D01*
X221364229Y-75095528D01*
X221425115Y-74881536D01*
X221445643Y-74660000D01*
X221439157Y-74590000D01*
X221854357Y-74590000D01*
X221874884Y-74811535D01*
X221874885Y-74811537D01*
X221935769Y-75025523D01*
X221935775Y-75025538D01*
X222034938Y-75224683D01*
X222034943Y-75224691D01*
X222169020Y-75402238D01*
X222333437Y-75552123D01*
X222333439Y-75552125D01*
X222522595Y-75669245D01*
X222522596Y-75669245D01*
X222522599Y-75669247D01*
X222730060Y-75749618D01*
X222948757Y-75790500D01*
X222948759Y-75790500D01*
X223171241Y-75790500D01*
X223171243Y-75790500D01*
X223389940Y-75749618D01*
X223597401Y-75669247D01*
X223786562Y-75552124D01*
X223950981Y-75402236D01*
X224085058Y-75224689D01*
X224184229Y-75025528D01*
X224245115Y-74811536D01*
X224265643Y-74590000D01*
X224256082Y-74486824D01*
X224249890Y-74419999D01*
X230041114Y-74419999D01*
X230041116Y-74420000D01*
X231885832Y-74420000D01*
X231878357Y-74434242D01*
X231840000Y-74589862D01*
X231840000Y-74750138D01*
X231878357Y-74905758D01*
X231885832Y-74920000D01*
X230041115Y-74920000D01*
X230060643Y-75037029D01*
X230140818Y-75270570D01*
X230140821Y-75270578D01*
X230258348Y-75487748D01*
X230258352Y-75487754D01*
X230410008Y-75682601D01*
X230410011Y-75682605D01*
X230591688Y-75849851D01*
X230798408Y-75984907D01*
X231024539Y-76084098D01*
X231263909Y-76144715D01*
X231448369Y-76160000D01*
X232250000Y-76160000D01*
X232250000Y-75281057D01*
X232340892Y-75315528D01*
X232460081Y-75330000D01*
X232539919Y-75330000D01*
X232659108Y-75315528D01*
X232750000Y-75281057D01*
X232750000Y-76160000D01*
X233551631Y-76160000D01*
X233736090Y-76144715D01*
X233975460Y-76084098D01*
X234201591Y-75984907D01*
X234408311Y-75849851D01*
X234589988Y-75682605D01*
X234589991Y-75682601D01*
X234741647Y-75487754D01*
X234741651Y-75487748D01*
X234859178Y-75270578D01*
X234859181Y-75270570D01*
X234939356Y-75037029D01*
X234958885Y-74920000D01*
X233114168Y-74920000D01*
X233121643Y-74905758D01*
X233160000Y-74750138D01*
X233160000Y-74589862D01*
X233121643Y-74434242D01*
X233114168Y-74420000D01*
X234958884Y-74420000D01*
X234958885Y-74419999D01*
X234939356Y-74302970D01*
X234859181Y-74069429D01*
X234859178Y-74069421D01*
X234741651Y-73852251D01*
X234741647Y-73852245D01*
X234589991Y-73657398D01*
X234589988Y-73657394D01*
X234408311Y-73490148D01*
X234201591Y-73355092D01*
X233975460Y-73255901D01*
X233736090Y-73195284D01*
X233551631Y-73180000D01*
X232750000Y-73180000D01*
X232750000Y-74058942D01*
X232659108Y-74024472D01*
X232539919Y-74010000D01*
X232460081Y-74010000D01*
X232340892Y-74024472D01*
X232250000Y-74058942D01*
X232250000Y-73180000D01*
X231448369Y-73180000D01*
X231263909Y-73195284D01*
X231024539Y-73255901D01*
X230798408Y-73355092D01*
X230591688Y-73490148D01*
X230410011Y-73657394D01*
X230410008Y-73657398D01*
X230258352Y-73852245D01*
X230258348Y-73852251D01*
X230140821Y-74069421D01*
X230140818Y-74069429D01*
X230060643Y-74302970D01*
X230041114Y-74419999D01*
X224249890Y-74419999D01*
X224245115Y-74368464D01*
X224245114Y-74368462D01*
X224206991Y-74234474D01*
X224184229Y-74154472D01*
X224184224Y-74154461D01*
X224085061Y-73955316D01*
X224085056Y-73955308D01*
X223950979Y-73777761D01*
X223786562Y-73627876D01*
X223786560Y-73627874D01*
X223597404Y-73510754D01*
X223597398Y-73510752D01*
X223596443Y-73510382D01*
X223389940Y-73430382D01*
X223171243Y-73389500D01*
X222948757Y-73389500D01*
X222730060Y-73430382D01*
X222598864Y-73481207D01*
X222522601Y-73510752D01*
X222522595Y-73510754D01*
X222333439Y-73627874D01*
X222333437Y-73627876D01*
X222169020Y-73777761D01*
X222034943Y-73955308D01*
X222034938Y-73955316D01*
X221935775Y-74154461D01*
X221935769Y-74154476D01*
X221874885Y-74368462D01*
X221874884Y-74368464D01*
X221854357Y-74589999D01*
X221854357Y-74590000D01*
X221439157Y-74590000D01*
X221425115Y-74438464D01*
X221364229Y-74224472D01*
X221349291Y-74194472D01*
X221265061Y-74025316D01*
X221265056Y-74025308D01*
X221130979Y-73847761D01*
X220966562Y-73697876D01*
X220966560Y-73697874D01*
X220777404Y-73580754D01*
X220777398Y-73580752D01*
X220569940Y-73500382D01*
X220351243Y-73459500D01*
X220128757Y-73459500D01*
X219910060Y-73500382D01*
X219780040Y-73550752D01*
X219702601Y-73580752D01*
X219702595Y-73580754D01*
X219513439Y-73697874D01*
X219513437Y-73697876D01*
X219349020Y-73847761D01*
X219214943Y-74025308D01*
X219214938Y-74025316D01*
X219115775Y-74224461D01*
X219115769Y-74224476D01*
X219054885Y-74438462D01*
X219054884Y-74438464D01*
X219034357Y-74659999D01*
X219034357Y-74660000D01*
X218754716Y-74660000D01*
X218735115Y-74448464D01*
X218674229Y-74234472D01*
X218669250Y-74224472D01*
X218575061Y-74035316D01*
X218575056Y-74035308D01*
X218440979Y-73857761D01*
X218276562Y-73707876D01*
X218276560Y-73707874D01*
X218087404Y-73590754D01*
X218087398Y-73590752D01*
X217879940Y-73510382D01*
X217661243Y-73469500D01*
X217438757Y-73469500D01*
X217220060Y-73510382D01*
X217115853Y-73550752D01*
X217012601Y-73590752D01*
X217012595Y-73590754D01*
X216823439Y-73707874D01*
X216823437Y-73707876D01*
X216659020Y-73857761D01*
X216524943Y-74035308D01*
X216524938Y-74035316D01*
X216425775Y-74234461D01*
X216425770Y-74234474D01*
X216384956Y-74377920D01*
X216347677Y-74437013D01*
X216284367Y-74466570D01*
X216215127Y-74457208D01*
X216161941Y-74411898D01*
X216146424Y-74377919D01*
X216105610Y-74234474D01*
X216094229Y-74194472D01*
X216079291Y-74164472D01*
X215995061Y-73995316D01*
X215995056Y-73995308D01*
X215860979Y-73817761D01*
X215696562Y-73667876D01*
X215696560Y-73667874D01*
X215507404Y-73550754D01*
X215507398Y-73550752D01*
X215299940Y-73470382D01*
X215081243Y-73429500D01*
X214858757Y-73429500D01*
X214640060Y-73470382D01*
X214535853Y-73510752D01*
X214432601Y-73550752D01*
X214432595Y-73550754D01*
X214243439Y-73667874D01*
X214243437Y-73667876D01*
X214079020Y-73817761D01*
X213944943Y-73995308D01*
X213944938Y-73995316D01*
X213845775Y-74194461D01*
X213845769Y-74194476D01*
X213784885Y-74408462D01*
X213784884Y-74408464D01*
X213764357Y-74629999D01*
X213764357Y-74630000D01*
X213502863Y-74630000D01*
X213505643Y-74600000D01*
X213485115Y-74378464D01*
X213424229Y-74164472D01*
X213419250Y-74154472D01*
X213325061Y-73965316D01*
X213325056Y-73965308D01*
X213190979Y-73787761D01*
X213026562Y-73637876D01*
X213026560Y-73637874D01*
X212837404Y-73520754D01*
X212837398Y-73520752D01*
X212629940Y-73440382D01*
X212411243Y-73399500D01*
X212188757Y-73399500D01*
X211970060Y-73440382D01*
X211841599Y-73490148D01*
X211762601Y-73520752D01*
X211762595Y-73520754D01*
X211573439Y-73637874D01*
X211573437Y-73637876D01*
X211409020Y-73787761D01*
X211274943Y-73965308D01*
X211274938Y-73965316D01*
X211175775Y-74164461D01*
X211175769Y-74164476D01*
X211114885Y-74378462D01*
X211113831Y-74384102D01*
X211112508Y-74383854D01*
X211089164Y-74442628D01*
X211032360Y-74483311D01*
X210962579Y-74486824D01*
X210901975Y-74452054D01*
X210869791Y-74390038D01*
X210868015Y-74377682D01*
X210855115Y-74238464D01*
X210855114Y-74238462D01*
X210853979Y-74234474D01*
X210794229Y-74024472D01*
X210779711Y-73995316D01*
X210695061Y-73825316D01*
X210695056Y-73825308D01*
X210560979Y-73647761D01*
X210396562Y-73497876D01*
X210396560Y-73497874D01*
X210207404Y-73380754D01*
X210207398Y-73380752D01*
X209999940Y-73300382D01*
X209781243Y-73259500D01*
X209558757Y-73259500D01*
X209340060Y-73300382D01*
X209208864Y-73351207D01*
X209132601Y-73380752D01*
X209132595Y-73380754D01*
X208943439Y-73497874D01*
X208943437Y-73497876D01*
X208779020Y-73647761D01*
X208644943Y-73825308D01*
X208644938Y-73825316D01*
X208543510Y-74029011D01*
X208496007Y-74080248D01*
X208428344Y-74097669D01*
X208362004Y-74075743D01*
X208321510Y-74029011D01*
X208225061Y-73835316D01*
X208225056Y-73835308D01*
X208090979Y-73657761D01*
X207926562Y-73507876D01*
X207926560Y-73507874D01*
X207737404Y-73390754D01*
X207737398Y-73390752D01*
X207529940Y-73310382D01*
X207311243Y-73269500D01*
X207088757Y-73269500D01*
X206870060Y-73310382D01*
X206738864Y-73361207D01*
X206662601Y-73390752D01*
X206662595Y-73390754D01*
X206473439Y-73507874D01*
X206473437Y-73507876D01*
X206309020Y-73657761D01*
X206174943Y-73835308D01*
X206174938Y-73835316D01*
X206075775Y-74034461D01*
X206075769Y-74034476D01*
X206014885Y-74248462D01*
X206014884Y-74248464D01*
X205994357Y-74469999D01*
X205994357Y-74470000D01*
X191378165Y-74470000D01*
X191351926Y-71610001D01*
X207204532Y-71610001D01*
X207224364Y-71836686D01*
X207224366Y-71836697D01*
X207283258Y-72056488D01*
X207283261Y-72056497D01*
X207379431Y-72262732D01*
X207379432Y-72262734D01*
X207509954Y-72449141D01*
X207670858Y-72610045D01*
X207670861Y-72610047D01*
X207857266Y-72740568D01*
X208063504Y-72836739D01*
X208283308Y-72895635D01*
X208445230Y-72909801D01*
X208509998Y-72915468D01*
X208510000Y-72915468D01*
X208510002Y-72915468D01*
X208566673Y-72910509D01*
X208736692Y-72895635D01*
X208956496Y-72836739D01*
X209162734Y-72740568D01*
X209349139Y-72610047D01*
X209510047Y-72449139D01*
X209640568Y-72262734D01*
X209667618Y-72204724D01*
X209713790Y-72152285D01*
X209780983Y-72133133D01*
X209847865Y-72153348D01*
X209892382Y-72204725D01*
X209919429Y-72262728D01*
X209919432Y-72262734D01*
X210049954Y-72449141D01*
X210210858Y-72610045D01*
X210210861Y-72610047D01*
X210397266Y-72740568D01*
X210603504Y-72836739D01*
X210823308Y-72895635D01*
X210985230Y-72909801D01*
X211049998Y-72915468D01*
X211050000Y-72915468D01*
X211050002Y-72915468D01*
X211106673Y-72910509D01*
X211276692Y-72895635D01*
X211496496Y-72836739D01*
X211702734Y-72740568D01*
X211889139Y-72610047D01*
X212050047Y-72449139D01*
X212180568Y-72262734D01*
X212207618Y-72204724D01*
X212253790Y-72152285D01*
X212320983Y-72133133D01*
X212387865Y-72153348D01*
X212432382Y-72204725D01*
X212459429Y-72262728D01*
X212459432Y-72262734D01*
X212589954Y-72449141D01*
X212750858Y-72610045D01*
X212750861Y-72610047D01*
X212937266Y-72740568D01*
X213143504Y-72836739D01*
X213363308Y-72895635D01*
X213525230Y-72909801D01*
X213589998Y-72915468D01*
X213590000Y-72915468D01*
X213590002Y-72915468D01*
X213646673Y-72910509D01*
X213816692Y-72895635D01*
X214036496Y-72836739D01*
X214242734Y-72740568D01*
X214429139Y-72610047D01*
X214590047Y-72449139D01*
X214720568Y-72262734D01*
X214747618Y-72204724D01*
X214793790Y-72152285D01*
X214860983Y-72133133D01*
X214927865Y-72153348D01*
X214972382Y-72204725D01*
X214999429Y-72262728D01*
X214999432Y-72262734D01*
X215129954Y-72449141D01*
X215290858Y-72610045D01*
X215290861Y-72610047D01*
X215477266Y-72740568D01*
X215683504Y-72836739D01*
X215903308Y-72895635D01*
X216065230Y-72909801D01*
X216129998Y-72915468D01*
X216130000Y-72915468D01*
X216130002Y-72915468D01*
X216186673Y-72910509D01*
X216356692Y-72895635D01*
X216576496Y-72836739D01*
X216782734Y-72740568D01*
X216969139Y-72610047D01*
X217130047Y-72449139D01*
X217260568Y-72262734D01*
X217287618Y-72204724D01*
X217333790Y-72152285D01*
X217400983Y-72133133D01*
X217467865Y-72153348D01*
X217512382Y-72204725D01*
X217539429Y-72262728D01*
X217539432Y-72262734D01*
X217669954Y-72449141D01*
X217830858Y-72610045D01*
X217830861Y-72610047D01*
X218017266Y-72740568D01*
X218223504Y-72836739D01*
X218443308Y-72895635D01*
X218605230Y-72909801D01*
X218669998Y-72915468D01*
X218670000Y-72915468D01*
X218670002Y-72915468D01*
X218726673Y-72910509D01*
X218896692Y-72895635D01*
X219116496Y-72836739D01*
X219322734Y-72740568D01*
X219509139Y-72610047D01*
X219670047Y-72449139D01*
X219800568Y-72262734D01*
X219827618Y-72204724D01*
X219873790Y-72152285D01*
X219940983Y-72133133D01*
X220007865Y-72153348D01*
X220052382Y-72204725D01*
X220079429Y-72262728D01*
X220079432Y-72262734D01*
X220209954Y-72449141D01*
X220370858Y-72610045D01*
X220370861Y-72610047D01*
X220557266Y-72740568D01*
X220763504Y-72836739D01*
X220983308Y-72895635D01*
X221145230Y-72909801D01*
X221209998Y-72915468D01*
X221210000Y-72915468D01*
X221210002Y-72915468D01*
X221266673Y-72910509D01*
X221436692Y-72895635D01*
X221656496Y-72836739D01*
X221862734Y-72740568D01*
X222049139Y-72610047D01*
X222210047Y-72449139D01*
X222340568Y-72262734D01*
X222367618Y-72204724D01*
X222413790Y-72152285D01*
X222480983Y-72133133D01*
X222547865Y-72153348D01*
X222592382Y-72204725D01*
X222619429Y-72262728D01*
X222619432Y-72262734D01*
X222749954Y-72449141D01*
X222910858Y-72610045D01*
X222910861Y-72610047D01*
X223097266Y-72740568D01*
X223303504Y-72836739D01*
X223523308Y-72895635D01*
X223685230Y-72909801D01*
X223749998Y-72915468D01*
X223750000Y-72915468D01*
X223750002Y-72915468D01*
X223806673Y-72910509D01*
X223976692Y-72895635D01*
X224196496Y-72836739D01*
X224402734Y-72740568D01*
X224589139Y-72610047D01*
X224750047Y-72449139D01*
X224880568Y-72262734D01*
X224976739Y-72056496D01*
X225035635Y-71836692D01*
X225055468Y-71610000D01*
X225035635Y-71383308D01*
X224976739Y-71163504D01*
X224880568Y-70957266D01*
X224750047Y-70770861D01*
X224750045Y-70770858D01*
X224589141Y-70609954D01*
X224402734Y-70479432D01*
X224402732Y-70479431D01*
X224196497Y-70383261D01*
X224196488Y-70383258D01*
X223976697Y-70324366D01*
X223976693Y-70324365D01*
X223976692Y-70324365D01*
X223976691Y-70324364D01*
X223976686Y-70324364D01*
X223750002Y-70304532D01*
X223749998Y-70304532D01*
X223523313Y-70324364D01*
X223523302Y-70324366D01*
X223303511Y-70383258D01*
X223303502Y-70383261D01*
X223097267Y-70479431D01*
X223097265Y-70479432D01*
X222910858Y-70609954D01*
X222749954Y-70770858D01*
X222619432Y-70957265D01*
X222619431Y-70957267D01*
X222592382Y-71015275D01*
X222546209Y-71067714D01*
X222479016Y-71086866D01*
X222412135Y-71066650D01*
X222367618Y-71015275D01*
X222340568Y-70957267D01*
X222340567Y-70957265D01*
X222210045Y-70770858D01*
X222049141Y-70609954D01*
X221862734Y-70479432D01*
X221862732Y-70479431D01*
X221656497Y-70383261D01*
X221656488Y-70383258D01*
X221436697Y-70324366D01*
X221436693Y-70324365D01*
X221436692Y-70324365D01*
X221436691Y-70324364D01*
X221436686Y-70324364D01*
X221210002Y-70304532D01*
X221209998Y-70304532D01*
X220983313Y-70324364D01*
X220983302Y-70324366D01*
X220763511Y-70383258D01*
X220763502Y-70383261D01*
X220557267Y-70479431D01*
X220557265Y-70479432D01*
X220370858Y-70609954D01*
X220209954Y-70770858D01*
X220079432Y-70957265D01*
X220079431Y-70957267D01*
X220052382Y-71015275D01*
X220006209Y-71067714D01*
X219939016Y-71086866D01*
X219872135Y-71066650D01*
X219827618Y-71015275D01*
X219800568Y-70957267D01*
X219800567Y-70957265D01*
X219670045Y-70770858D01*
X219509141Y-70609954D01*
X219322734Y-70479432D01*
X219322732Y-70479431D01*
X219116497Y-70383261D01*
X219116488Y-70383258D01*
X218896697Y-70324366D01*
X218896693Y-70324365D01*
X218896692Y-70324365D01*
X218896691Y-70324364D01*
X218896686Y-70324364D01*
X218670002Y-70304532D01*
X218669998Y-70304532D01*
X218443313Y-70324364D01*
X218443302Y-70324366D01*
X218223511Y-70383258D01*
X218223502Y-70383261D01*
X218017267Y-70479431D01*
X218017265Y-70479432D01*
X217830858Y-70609954D01*
X217669954Y-70770858D01*
X217539432Y-70957265D01*
X217539431Y-70957267D01*
X217512382Y-71015275D01*
X217466209Y-71067714D01*
X217399016Y-71086866D01*
X217332135Y-71066650D01*
X217287618Y-71015275D01*
X217260568Y-70957267D01*
X217260567Y-70957265D01*
X217130045Y-70770858D01*
X216969141Y-70609954D01*
X216782734Y-70479432D01*
X216782732Y-70479431D01*
X216576497Y-70383261D01*
X216576488Y-70383258D01*
X216356697Y-70324366D01*
X216356693Y-70324365D01*
X216356692Y-70324365D01*
X216356691Y-70324364D01*
X216356686Y-70324364D01*
X216130002Y-70304532D01*
X216129998Y-70304532D01*
X215903313Y-70324364D01*
X215903302Y-70324366D01*
X215683511Y-70383258D01*
X215683502Y-70383261D01*
X215477267Y-70479431D01*
X215477265Y-70479432D01*
X215290858Y-70609954D01*
X215129954Y-70770858D01*
X214999432Y-70957265D01*
X214999431Y-70957267D01*
X214972382Y-71015275D01*
X214926209Y-71067714D01*
X214859016Y-71086866D01*
X214792135Y-71066650D01*
X214747618Y-71015275D01*
X214720568Y-70957267D01*
X214720567Y-70957265D01*
X214590045Y-70770858D01*
X214429141Y-70609954D01*
X214242734Y-70479432D01*
X214242732Y-70479431D01*
X214036497Y-70383261D01*
X214036488Y-70383258D01*
X213816697Y-70324366D01*
X213816693Y-70324365D01*
X213816692Y-70324365D01*
X213816691Y-70324364D01*
X213816686Y-70324364D01*
X213590002Y-70304532D01*
X213589998Y-70304532D01*
X213363313Y-70324364D01*
X213363302Y-70324366D01*
X213143511Y-70383258D01*
X213143502Y-70383261D01*
X212937267Y-70479431D01*
X212937265Y-70479432D01*
X212750858Y-70609954D01*
X212589954Y-70770858D01*
X212459432Y-70957265D01*
X212459431Y-70957267D01*
X212432382Y-71015275D01*
X212386209Y-71067714D01*
X212319016Y-71086866D01*
X212252135Y-71066650D01*
X212207618Y-71015275D01*
X212180568Y-70957267D01*
X212180567Y-70957265D01*
X212050045Y-70770858D01*
X211889141Y-70609954D01*
X211702734Y-70479432D01*
X211702732Y-70479431D01*
X211496497Y-70383261D01*
X211496488Y-70383258D01*
X211276697Y-70324366D01*
X211276693Y-70324365D01*
X211276692Y-70324365D01*
X211276691Y-70324364D01*
X211276686Y-70324364D01*
X211050002Y-70304532D01*
X211049998Y-70304532D01*
X210823313Y-70324364D01*
X210823302Y-70324366D01*
X210603511Y-70383258D01*
X210603502Y-70383261D01*
X210397267Y-70479431D01*
X210397265Y-70479432D01*
X210210858Y-70609954D01*
X210049954Y-70770858D01*
X209919432Y-70957265D01*
X209919431Y-70957267D01*
X209892382Y-71015275D01*
X209846209Y-71067714D01*
X209779016Y-71086866D01*
X209712135Y-71066650D01*
X209667618Y-71015275D01*
X209640568Y-70957267D01*
X209640567Y-70957265D01*
X209510045Y-70770858D01*
X209349141Y-70609954D01*
X209162734Y-70479432D01*
X209162732Y-70479431D01*
X208956497Y-70383261D01*
X208956488Y-70383258D01*
X208736697Y-70324366D01*
X208736693Y-70324365D01*
X208736692Y-70324365D01*
X208736691Y-70324364D01*
X208736686Y-70324364D01*
X208510002Y-70304532D01*
X208509998Y-70304532D01*
X208283313Y-70324364D01*
X208283302Y-70324366D01*
X208063511Y-70383258D01*
X208063502Y-70383261D01*
X207857267Y-70479431D01*
X207857265Y-70479432D01*
X207670858Y-70609954D01*
X207509954Y-70770858D01*
X207379432Y-70957265D01*
X207379431Y-70957267D01*
X207283261Y-71163502D01*
X207283258Y-71163511D01*
X207224366Y-71383302D01*
X207224364Y-71383313D01*
X207204532Y-71609998D01*
X207204532Y-71610001D01*
X191351926Y-71610001D01*
X191338165Y-70110001D01*
X226794532Y-70110001D01*
X226814364Y-70336686D01*
X226814366Y-70336697D01*
X226873258Y-70556488D01*
X226873261Y-70556497D01*
X226969431Y-70762732D01*
X226969432Y-70762734D01*
X227099954Y-70949141D01*
X227260858Y-71110045D01*
X227260861Y-71110047D01*
X227447266Y-71240568D01*
X227653504Y-71336739D01*
X227873308Y-71395635D01*
X228035230Y-71409801D01*
X228099998Y-71415468D01*
X228100000Y-71415468D01*
X228100002Y-71415468D01*
X228156673Y-71410509D01*
X228326692Y-71395635D01*
X228546496Y-71336739D01*
X228752734Y-71240568D01*
X228939139Y-71110047D01*
X229100047Y-70949139D01*
X229230568Y-70762734D01*
X229326739Y-70556496D01*
X229385635Y-70336692D01*
X229405468Y-70110000D01*
X229385635Y-69883308D01*
X229326739Y-69663504D01*
X229230568Y-69457266D01*
X229100047Y-69270861D01*
X229100045Y-69270858D01*
X228939141Y-69109954D01*
X228752734Y-68979432D01*
X228752730Y-68979430D01*
X228737022Y-68972105D01*
X228684583Y-68925931D01*
X228665433Y-68858737D01*
X228685650Y-68791857D01*
X228737028Y-68747340D01*
X228752481Y-68740134D01*
X228825472Y-68689025D01*
X228144401Y-68007953D01*
X228225148Y-67995165D01*
X228338045Y-67937641D01*
X228427641Y-67848045D01*
X228485165Y-67735148D01*
X228497953Y-67654400D01*
X229179025Y-68335472D01*
X229230136Y-68262478D01*
X229326264Y-68056331D01*
X229326269Y-68056317D01*
X229385139Y-67836610D01*
X229385141Y-67836599D01*
X229404966Y-67610002D01*
X229404966Y-67609997D01*
X229385141Y-67383400D01*
X229385139Y-67383389D01*
X229326269Y-67163682D01*
X229326265Y-67163673D01*
X229230133Y-66957516D01*
X229230131Y-66957512D01*
X229179026Y-66884526D01*
X229179025Y-66884526D01*
X228497953Y-67565598D01*
X228485165Y-67484852D01*
X228427641Y-67371955D01*
X228338045Y-67282359D01*
X228225148Y-67224835D01*
X228144400Y-67212046D01*
X228825472Y-66530974D01*
X228825471Y-66530973D01*
X228752483Y-66479866D01*
X228752481Y-66479865D01*
X228546326Y-66383734D01*
X228546317Y-66383730D01*
X228326610Y-66324860D01*
X228326599Y-66324858D01*
X228100002Y-66305034D01*
X228099998Y-66305034D01*
X227873400Y-66324858D01*
X227873389Y-66324860D01*
X227653682Y-66383730D01*
X227653673Y-66383734D01*
X227447513Y-66479868D01*
X227374527Y-66530972D01*
X227374526Y-66530973D01*
X228055600Y-67212046D01*
X227974852Y-67224835D01*
X227861955Y-67282359D01*
X227772359Y-67371955D01*
X227714835Y-67484852D01*
X227702046Y-67565599D01*
X227020973Y-66884526D01*
X227020972Y-66884527D01*
X226969868Y-66957513D01*
X226873734Y-67163673D01*
X226873730Y-67163682D01*
X226814860Y-67383389D01*
X226814858Y-67383400D01*
X226795034Y-67609997D01*
X226795034Y-67610002D01*
X226814858Y-67836599D01*
X226814860Y-67836610D01*
X226873730Y-68056317D01*
X226873734Y-68056326D01*
X226969865Y-68262481D01*
X226969866Y-68262483D01*
X227020973Y-68335471D01*
X227020974Y-68335472D01*
X227702046Y-67654399D01*
X227714835Y-67735148D01*
X227772359Y-67848045D01*
X227861955Y-67937641D01*
X227974852Y-67995165D01*
X228055599Y-68007953D01*
X227374526Y-68689025D01*
X227374526Y-68689026D01*
X227447512Y-68740131D01*
X227447515Y-68740132D01*
X227462974Y-68747341D01*
X227515414Y-68793513D01*
X227534567Y-68860706D01*
X227514352Y-68927587D01*
X227462978Y-68972105D01*
X227447269Y-68979430D01*
X227447265Y-68979432D01*
X227260858Y-69109954D01*
X227099954Y-69270858D01*
X226969432Y-69457265D01*
X226969431Y-69457267D01*
X226873261Y-69663502D01*
X226873258Y-69663511D01*
X226814366Y-69883302D01*
X226814364Y-69883313D01*
X226794532Y-70109998D01*
X226794532Y-70110001D01*
X191338165Y-70110001D01*
X191290393Y-64902903D01*
X193065793Y-64902903D01*
X193075672Y-65210970D01*
X193075672Y-65210975D01*
X193075673Y-65210978D01*
X193124867Y-65515261D01*
X193169137Y-65664419D01*
X193212571Y-65810763D01*
X193337333Y-66092601D01*
X193337337Y-66092609D01*
X193497123Y-66356193D01*
X193497127Y-66356198D01*
X193497133Y-66356207D01*
X193689297Y-66597174D01*
X193689299Y-66597176D01*
X193689303Y-66597180D01*
X193689304Y-66597181D01*
X193910724Y-66811614D01*
X194077862Y-66936352D01*
X194157741Y-66995968D01*
X194157743Y-66995969D01*
X194157747Y-66995972D01*
X194426318Y-67147228D01*
X194567057Y-67204207D01*
X194712018Y-67262897D01*
X194712023Y-67262898D01*
X194712025Y-67262899D01*
X195010179Y-67341084D01*
X195315883Y-67380500D01*
X195315890Y-67380500D01*
X195546980Y-67380500D01*
X195645814Y-67374154D01*
X195777601Y-67365693D01*
X196080151Y-67306772D01*
X196372683Y-67209644D01*
X196372689Y-67209640D01*
X196372693Y-67209640D01*
X196563571Y-67117717D01*
X196650393Y-67075907D01*
X196908720Y-66907754D01*
X197143424Y-66707948D01*
X197350650Y-66479769D01*
X197526996Y-66226963D01*
X197669567Y-65953683D01*
X197776020Y-65664415D01*
X197844609Y-65363908D01*
X197874206Y-65057098D01*
X197864327Y-64749022D01*
X197815133Y-64444739D01*
X197727431Y-64149244D01*
X197727429Y-64149239D01*
X197727428Y-64149236D01*
X197602666Y-63867398D01*
X197602663Y-63867391D01*
X197525437Y-63739999D01*
X207231127Y-63739999D01*
X207231128Y-63740000D01*
X208194314Y-63740000D01*
X208182359Y-63751955D01*
X208124835Y-63864852D01*
X208105014Y-63990000D01*
X208124835Y-64115148D01*
X208182359Y-64228045D01*
X208194314Y-64240000D01*
X207231128Y-64240000D01*
X207283730Y-64436317D01*
X207283734Y-64436326D01*
X207379865Y-64642482D01*
X207510342Y-64828820D01*
X207671179Y-64989657D01*
X207857517Y-65120134D01*
X208063673Y-65216265D01*
X208063682Y-65216269D01*
X208259999Y-65268872D01*
X208260000Y-65268871D01*
X208260000Y-64305686D01*
X208271955Y-64317641D01*
X208384852Y-64375165D01*
X208478519Y-64390000D01*
X208541481Y-64390000D01*
X208635148Y-64375165D01*
X208748045Y-64317641D01*
X208760000Y-64305686D01*
X208760000Y-65268872D01*
X208956317Y-65216269D01*
X208956326Y-65216265D01*
X209162482Y-65120134D01*
X209348820Y-64989657D01*
X209509657Y-64828820D01*
X209640132Y-64642484D01*
X209667341Y-64584134D01*
X209713513Y-64531695D01*
X209780707Y-64512542D01*
X209847588Y-64532757D01*
X209892105Y-64584132D01*
X209914088Y-64631275D01*
X209919431Y-64642732D01*
X209919432Y-64642734D01*
X210049954Y-64829141D01*
X210210858Y-64990045D01*
X210210861Y-64990047D01*
X210397266Y-65120568D01*
X210603504Y-65216739D01*
X210823308Y-65275635D01*
X210985230Y-65289801D01*
X211049998Y-65295468D01*
X211050000Y-65295468D01*
X211050002Y-65295468D01*
X211106807Y-65290498D01*
X211276692Y-65275635D01*
X211496496Y-65216739D01*
X211702734Y-65120568D01*
X211889139Y-64990047D01*
X212050047Y-64829139D01*
X212180568Y-64642734D01*
X212207618Y-64584724D01*
X212253790Y-64532285D01*
X212320983Y-64513133D01*
X212387865Y-64533348D01*
X212432382Y-64584725D01*
X212459429Y-64642728D01*
X212459432Y-64642734D01*
X212589954Y-64829141D01*
X212750858Y-64990045D01*
X212750861Y-64990047D01*
X212937266Y-65120568D01*
X213143504Y-65216739D01*
X213363308Y-65275635D01*
X213525230Y-65289801D01*
X213589998Y-65295468D01*
X213590000Y-65295468D01*
X213590002Y-65295468D01*
X213646807Y-65290498D01*
X213816692Y-65275635D01*
X214036496Y-65216739D01*
X214242734Y-65120568D01*
X214429139Y-64990047D01*
X214590047Y-64829139D01*
X214720568Y-64642734D01*
X214747618Y-64584724D01*
X214793790Y-64532285D01*
X214860983Y-64513133D01*
X214927865Y-64533348D01*
X214972382Y-64584725D01*
X214999429Y-64642728D01*
X214999432Y-64642734D01*
X215129954Y-64829141D01*
X215290858Y-64990045D01*
X215290861Y-64990047D01*
X215477266Y-65120568D01*
X215683504Y-65216739D01*
X215903308Y-65275635D01*
X216065230Y-65289801D01*
X216129998Y-65295468D01*
X216130000Y-65295468D01*
X216130002Y-65295468D01*
X216186807Y-65290498D01*
X216356692Y-65275635D01*
X216576496Y-65216739D01*
X216782734Y-65120568D01*
X216969139Y-64990047D01*
X217130047Y-64829139D01*
X217260568Y-64642734D01*
X217287618Y-64584724D01*
X217333790Y-64532285D01*
X217400983Y-64513133D01*
X217467865Y-64533348D01*
X217512382Y-64584725D01*
X217539429Y-64642728D01*
X217539432Y-64642734D01*
X217669954Y-64829141D01*
X217830858Y-64990045D01*
X217830861Y-64990047D01*
X218017266Y-65120568D01*
X218223504Y-65216739D01*
X218443308Y-65275635D01*
X218605230Y-65289801D01*
X218669998Y-65295468D01*
X218670000Y-65295468D01*
X218670002Y-65295468D01*
X218726807Y-65290498D01*
X218896692Y-65275635D01*
X219116496Y-65216739D01*
X219322734Y-65120568D01*
X219509139Y-64990047D01*
X219670047Y-64829139D01*
X219800568Y-64642734D01*
X219827618Y-64584724D01*
X219873790Y-64532285D01*
X219940983Y-64513133D01*
X220007865Y-64533348D01*
X220052382Y-64584725D01*
X220079429Y-64642728D01*
X220079432Y-64642734D01*
X220209954Y-64829141D01*
X220370858Y-64990045D01*
X220370861Y-64990047D01*
X220557266Y-65120568D01*
X220763504Y-65216739D01*
X220983308Y-65275635D01*
X221145230Y-65289801D01*
X221209998Y-65295468D01*
X221210000Y-65295468D01*
X221210002Y-65295468D01*
X221266807Y-65290498D01*
X221436692Y-65275635D01*
X221656496Y-65216739D01*
X221862734Y-65120568D01*
X222049139Y-64990047D01*
X222210047Y-64829139D01*
X222227272Y-64804539D01*
X222281848Y-64760913D01*
X222351346Y-64753718D01*
X222413701Y-64785239D01*
X222449116Y-64845468D01*
X222452138Y-64862406D01*
X222455908Y-64897483D01*
X222506202Y-65032328D01*
X222506206Y-65032335D01*
X222592452Y-65147544D01*
X222592455Y-65147547D01*
X222707664Y-65233793D01*
X222707671Y-65233797D01*
X222842517Y-65284091D01*
X222842516Y-65284091D01*
X222849444Y-65284835D01*
X222902127Y-65290500D01*
X224597872Y-65290499D01*
X224657483Y-65284091D01*
X224792331Y-65233796D01*
X224907546Y-65147546D01*
X224993796Y-65032331D01*
X225042069Y-64902903D01*
X232065793Y-64902903D01*
X232075672Y-65210970D01*
X232075672Y-65210975D01*
X232075673Y-65210978D01*
X232124867Y-65515261D01*
X232169137Y-65664419D01*
X232212571Y-65810763D01*
X232337333Y-66092601D01*
X232337337Y-66092609D01*
X232497123Y-66356193D01*
X232497127Y-66356198D01*
X232497133Y-66356207D01*
X232689297Y-66597174D01*
X232689299Y-66597176D01*
X232689303Y-66597180D01*
X232689304Y-66597181D01*
X232910724Y-66811614D01*
X233077862Y-66936352D01*
X233157741Y-66995968D01*
X233157743Y-66995969D01*
X233157747Y-66995972D01*
X233426318Y-67147228D01*
X233567057Y-67204207D01*
X233712018Y-67262897D01*
X233712023Y-67262898D01*
X233712025Y-67262899D01*
X234010179Y-67341084D01*
X234315883Y-67380500D01*
X234315890Y-67380500D01*
X234546980Y-67380500D01*
X234645814Y-67374154D01*
X234777601Y-67365693D01*
X235080151Y-67306772D01*
X235372683Y-67209644D01*
X235372689Y-67209640D01*
X235372693Y-67209640D01*
X235563571Y-67117717D01*
X235650393Y-67075907D01*
X235908720Y-66907754D01*
X236143424Y-66707948D01*
X236350650Y-66479769D01*
X236526996Y-66226963D01*
X236669567Y-65953683D01*
X236776020Y-65664415D01*
X236844609Y-65363908D01*
X236874206Y-65057098D01*
X236864327Y-64749022D01*
X236815133Y-64444739D01*
X236727431Y-64149244D01*
X236727429Y-64149239D01*
X236727428Y-64149236D01*
X236602666Y-63867398D01*
X236602663Y-63867391D01*
X236442877Y-63603807D01*
X236442870Y-63603799D01*
X236442866Y-63603792D01*
X236250702Y-63362825D01*
X236250700Y-63362823D01*
X236224570Y-63337518D01*
X236029276Y-63148386D01*
X235900450Y-63052241D01*
X235782258Y-62964031D01*
X235753209Y-62947671D01*
X235513682Y-62812772D01*
X235476383Y-62797671D01*
X235227981Y-62697102D01*
X235060660Y-62653226D01*
X234929821Y-62618916D01*
X234624117Y-62579500D01*
X234393026Y-62579500D01*
X234393020Y-62579500D01*
X234162406Y-62594306D01*
X234162389Y-62594308D01*
X233859854Y-62653226D01*
X233859849Y-62653228D01*
X233567310Y-62750358D01*
X233567306Y-62750359D01*
X233289613Y-62884089D01*
X233289605Y-62884094D01*
X233031286Y-63052241D01*
X233031276Y-63052248D01*
X232796581Y-63252046D01*
X232796571Y-63252056D01*
X232589354Y-63480225D01*
X232589350Y-63480229D01*
X232413005Y-63733033D01*
X232413003Y-63733037D01*
X232270432Y-64006319D01*
X232270429Y-64006326D01*
X232163981Y-64295580D01*
X232163979Y-64295590D01*
X232095391Y-64596089D01*
X232065794Y-64902902D01*
X232065793Y-64902903D01*
X225042069Y-64902903D01*
X225044091Y-64897483D01*
X225050500Y-64837873D01*
X225050499Y-63142128D01*
X225044091Y-63082517D01*
X225032801Y-63052248D01*
X224993797Y-62947671D01*
X224993793Y-62947664D01*
X224907547Y-62832455D01*
X224907544Y-62832452D01*
X224792335Y-62746206D01*
X224792328Y-62746202D01*
X224657482Y-62695908D01*
X224657483Y-62695908D01*
X224597883Y-62689501D01*
X224597881Y-62689500D01*
X224597873Y-62689500D01*
X224597864Y-62689500D01*
X222902129Y-62689500D01*
X222902123Y-62689501D01*
X222842516Y-62695908D01*
X222707671Y-62746202D01*
X222707664Y-62746206D01*
X222592455Y-62832452D01*
X222592452Y-62832455D01*
X222506206Y-62947664D01*
X222506202Y-62947671D01*
X222455908Y-63082516D01*
X222452137Y-63117596D01*
X222425398Y-63182146D01*
X222368006Y-63221994D01*
X222298180Y-63224487D01*
X222238092Y-63188834D01*
X222227273Y-63175462D01*
X222210045Y-63150858D01*
X222049141Y-62989954D01*
X221862734Y-62859432D01*
X221862732Y-62859431D01*
X221656497Y-62763261D01*
X221656488Y-62763258D01*
X221436697Y-62704366D01*
X221436693Y-62704365D01*
X221436692Y-62704365D01*
X221436691Y-62704364D01*
X221436686Y-62704364D01*
X221210002Y-62684532D01*
X221209998Y-62684532D01*
X220983313Y-62704364D01*
X220983302Y-62704366D01*
X220763511Y-62763258D01*
X220763502Y-62763261D01*
X220557267Y-62859431D01*
X220557265Y-62859432D01*
X220370858Y-62989954D01*
X220209954Y-63150858D01*
X220079432Y-63337265D01*
X220079431Y-63337267D01*
X220052382Y-63395275D01*
X220006209Y-63447714D01*
X219939016Y-63466866D01*
X219872135Y-63446650D01*
X219827618Y-63395275D01*
X219812486Y-63362825D01*
X219800568Y-63337266D01*
X219670047Y-63150861D01*
X219670045Y-63150858D01*
X219509141Y-62989954D01*
X219322734Y-62859432D01*
X219322732Y-62859431D01*
X219116497Y-62763261D01*
X219116488Y-62763258D01*
X218896697Y-62704366D01*
X218896693Y-62704365D01*
X218896692Y-62704365D01*
X218896691Y-62704364D01*
X218896686Y-62704364D01*
X218670002Y-62684532D01*
X218669998Y-62684532D01*
X218443313Y-62704364D01*
X218443302Y-62704366D01*
X218223511Y-62763258D01*
X218223502Y-62763261D01*
X218017267Y-62859431D01*
X218017265Y-62859432D01*
X217830858Y-62989954D01*
X217669954Y-63150858D01*
X217539432Y-63337265D01*
X217539431Y-63337267D01*
X217512382Y-63395275D01*
X217466209Y-63447714D01*
X217399016Y-63466866D01*
X217332135Y-63446650D01*
X217287618Y-63395275D01*
X217272486Y-63362825D01*
X217260568Y-63337266D01*
X217130047Y-63150861D01*
X217130045Y-63150858D01*
X216969141Y-62989954D01*
X216782734Y-62859432D01*
X216782732Y-62859431D01*
X216576497Y-62763261D01*
X216576488Y-62763258D01*
X216356697Y-62704366D01*
X216356693Y-62704365D01*
X216356692Y-62704365D01*
X216356691Y-62704364D01*
X216356686Y-62704364D01*
X216130002Y-62684532D01*
X216129998Y-62684532D01*
X215903313Y-62704364D01*
X215903302Y-62704366D01*
X215683511Y-62763258D01*
X215683502Y-62763261D01*
X215477267Y-62859431D01*
X215477265Y-62859432D01*
X215290858Y-62989954D01*
X215129954Y-63150858D01*
X214999432Y-63337265D01*
X214999431Y-63337267D01*
X214972382Y-63395275D01*
X214926209Y-63447714D01*
X214859016Y-63466866D01*
X214792135Y-63446650D01*
X214747618Y-63395275D01*
X214732486Y-63362825D01*
X214720568Y-63337266D01*
X214590047Y-63150861D01*
X214590045Y-63150858D01*
X214429141Y-62989954D01*
X214242734Y-62859432D01*
X214242732Y-62859431D01*
X214036497Y-62763261D01*
X214036488Y-62763258D01*
X213816697Y-62704366D01*
X213816693Y-62704365D01*
X213816692Y-62704365D01*
X213816691Y-62704364D01*
X213816686Y-62704364D01*
X213590002Y-62684532D01*
X213589998Y-62684532D01*
X213363313Y-62704364D01*
X213363302Y-62704366D01*
X213143511Y-62763258D01*
X213143502Y-62763261D01*
X212937267Y-62859431D01*
X212937265Y-62859432D01*
X212750858Y-62989954D01*
X212589954Y-63150858D01*
X212459432Y-63337265D01*
X212459431Y-63337267D01*
X212432382Y-63395275D01*
X212386209Y-63447714D01*
X212319016Y-63466866D01*
X212252135Y-63446650D01*
X212207618Y-63395275D01*
X212192486Y-63362825D01*
X212180568Y-63337266D01*
X212050047Y-63150861D01*
X212050045Y-63150858D01*
X211889141Y-62989954D01*
X211702734Y-62859432D01*
X211702732Y-62859431D01*
X211496497Y-62763261D01*
X211496488Y-62763258D01*
X211276697Y-62704366D01*
X211276693Y-62704365D01*
X211276692Y-62704365D01*
X211276691Y-62704364D01*
X211276686Y-62704364D01*
X211050002Y-62684532D01*
X211049998Y-62684532D01*
X210823313Y-62704364D01*
X210823302Y-62704366D01*
X210603511Y-62763258D01*
X210603502Y-62763261D01*
X210397267Y-62859431D01*
X210397265Y-62859432D01*
X210210858Y-62989954D01*
X210049954Y-63150858D01*
X209919433Y-63337264D01*
X209919432Y-63337266D01*
X209907515Y-63362823D01*
X209892106Y-63395867D01*
X209845933Y-63448306D01*
X209778739Y-63467457D01*
X209711858Y-63447241D01*
X209667342Y-63395865D01*
X209640135Y-63337520D01*
X209640134Y-63337518D01*
X209509657Y-63151179D01*
X209348820Y-62990342D01*
X209162482Y-62859865D01*
X208956328Y-62763734D01*
X208760000Y-62711127D01*
X208760000Y-63674314D01*
X208748045Y-63662359D01*
X208635148Y-63604835D01*
X208541481Y-63590000D01*
X208478519Y-63590000D01*
X208384852Y-63604835D01*
X208271955Y-63662359D01*
X208260000Y-63674314D01*
X208260000Y-62711127D01*
X208063671Y-62763734D01*
X207857517Y-62859865D01*
X207671179Y-62990342D01*
X207510342Y-63151179D01*
X207379865Y-63337517D01*
X207283734Y-63543673D01*
X207283730Y-63543682D01*
X207231127Y-63739999D01*
X197525437Y-63739999D01*
X197442877Y-63603807D01*
X197442870Y-63603799D01*
X197442866Y-63603792D01*
X197250702Y-63362825D01*
X197250700Y-63362823D01*
X197224570Y-63337518D01*
X197029276Y-63148386D01*
X196900450Y-63052241D01*
X196782258Y-62964031D01*
X196753209Y-62947671D01*
X196513682Y-62812772D01*
X196476383Y-62797671D01*
X196227981Y-62697102D01*
X196060660Y-62653226D01*
X195929821Y-62618916D01*
X195624117Y-62579500D01*
X195393026Y-62579500D01*
X195393020Y-62579500D01*
X195162406Y-62594306D01*
X195162389Y-62594308D01*
X194859854Y-62653226D01*
X194859849Y-62653228D01*
X194567310Y-62750358D01*
X194567306Y-62750359D01*
X194289613Y-62884089D01*
X194289605Y-62884094D01*
X194031286Y-63052241D01*
X194031276Y-63052248D01*
X193796581Y-63252046D01*
X193796571Y-63252056D01*
X193589354Y-63480225D01*
X193589350Y-63480229D01*
X193413005Y-63733033D01*
X193413003Y-63733037D01*
X193270432Y-64006319D01*
X193270429Y-64006326D01*
X193163981Y-64295580D01*
X193163979Y-64295590D01*
X193095391Y-64596089D01*
X193065794Y-64902902D01*
X193065793Y-64902903D01*
X191290393Y-64902903D01*
X191251148Y-60625137D01*
X191270217Y-60557920D01*
X191322599Y-60511683D01*
X191375143Y-60500000D01*
X238628234Y-60500000D01*
X238695273Y-60519685D01*
G37*
%TD.AperFunction*%
%TD*%
M02*
