M48
; DRILL file {KiCad 7.0.8} date Fri 03 May 2024 01:39:37 PM CEST
; FORMAT={-:-/ absolute / metric / decimal}
; #@! TF.CreationDate,2024-05-03T13:39:37+02:00
; #@! TF.GenerationSoftware,Kicad,Pcbnew,7.0.8
; #@! TF.FileFunction,MixedPlating,1,2
FMAT,2
METRIC
; #@! TA.AperFunction,Plated,PTH,ComponentDrill
T1C0.700
; #@! TA.AperFunction,Plated,PTH,ComponentDrill
T2C0.800
; #@! TA.AperFunction,Plated,PTH,ComponentDrill
T3C1.320
; #@! TA.AperFunction,NonPlated,NPTH,ComponentDrill
T4C4.300
%
G90
G05
T1
X207.2Y-74.47
X207.2Y-82.09
X209.67Y-74.46
X209.67Y-82.08
X212.3Y-74.6
X212.3Y-82.22
X214.97Y-74.63
X214.97Y-82.25
X217.55Y-74.67
X217.55Y-82.29
X220.24Y-74.66
X220.24Y-82.28
X223.06Y-74.59
X223.06Y-82.21
T2
X208.51Y-63.99
X208.51Y-71.61
X211.05Y-63.99
X211.05Y-71.61
X213.59Y-63.99
X213.59Y-71.61
X216.13Y-63.99
X216.13Y-71.61
X218.67Y-63.99
X218.67Y-71.61
X221.21Y-63.99
X221.21Y-71.61
X223.75Y-63.99
X223.75Y-71.61
X228.1Y-67.61
X228.1Y-70.11
T3
X197.4Y-78.14
X197.4Y-83.14
X232.5Y-74.67
X232.5Y-79.67
X232.5Y-84.67
X232.5Y-89.67
T4
X195.47Y-64.98
X195.47Y-97.98
X234.47Y-64.98
X234.47Y-97.98
T0
M30
