%TF.GenerationSoftware,KiCad,Pcbnew,7.0.8*%
%TF.CreationDate,2023-11-24T11:58:06+01:00*%
%TF.ProjectId,menelaos-rev3,6d656e65-6c61-46f7-932d-726576332e6b,rev?*%
%TF.SameCoordinates,Original*%
%TF.FileFunction,Soldermask,Bot*%
%TF.FilePolarity,Negative*%
%FSLAX46Y46*%
G04 Gerber Fmt 4.6, Leading zero omitted, Abs format (unit mm)*
G04 Created by KiCad (PCBNEW 7.0.8) date 2023-11-24 11:58:06*
%MOMM*%
%LPD*%
G01*
G04 APERTURE LIST*
%ADD10R,1.500000X3.000000*%
%ADD11O,1.500000X3.000000*%
%ADD12R,1.700000X1.700000*%
%ADD13O,1.700000X1.700000*%
%ADD14C,3.500000*%
%ADD15R,4.000000X4.000000*%
%ADD16C,4.000000*%
%ADD17O,1.100000X2.100000*%
%ADD18O,1.100000X2.600000*%
G04 APERTURE END LIST*
D10*
%TO.C,J501*%
X227200000Y-127250000D03*
X227200000Y-132250000D03*
D11*
X232200000Y-127250000D03*
X232200000Y-132250000D03*
X237200000Y-127250000D03*
X237200000Y-132250000D03*
X242200000Y-127250000D03*
X242200000Y-132250000D03*
X247200000Y-127250000D03*
X247200000Y-132250000D03*
%TD*%
D10*
%TO.C,J201*%
X192150000Y-125150000D03*
X192150000Y-130150000D03*
D11*
X197150000Y-125150000D03*
X197150000Y-130150000D03*
%TD*%
D10*
%TO.C,J601*%
X197500000Y-61400000D03*
X197500000Y-56400000D03*
D11*
X192500000Y-61400000D03*
X192500000Y-56400000D03*
%TD*%
D12*
%TO.C,J402*%
X227375000Y-56525000D03*
D13*
X229915000Y-56525000D03*
X232455000Y-56525000D03*
X234995000Y-56525000D03*
X237535000Y-56525000D03*
X240075000Y-56525000D03*
X242615000Y-56525000D03*
X242615000Y-53985000D03*
X240075000Y-53985000D03*
X237535000Y-53985000D03*
X234995000Y-53985000D03*
X232455000Y-53985000D03*
X229915000Y-53985000D03*
X227375000Y-53985000D03*
%TD*%
D14*
%TO.C,H404*%
X112450000Y-185200000D03*
%TD*%
%TO.C,H403*%
X112450000Y-176650000D03*
%TD*%
D12*
%TO.C,J301*%
X271050000Y-79120000D03*
D13*
X273590000Y-79120000D03*
X271050000Y-81660000D03*
X273590000Y-81660000D03*
X271050000Y-84200000D03*
X273590000Y-84200000D03*
X271050000Y-86740000D03*
X273590000Y-86740000D03*
X271050000Y-89280000D03*
X273590000Y-89280000D03*
%TD*%
D15*
%TO.C,C214*%
X196850000Y-79600000D03*
D16*
X201850000Y-79600000D03*
%TD*%
D12*
%TO.C,J303*%
X216900000Y-124660000D03*
D13*
X216900000Y-127200000D03*
X216900000Y-129740000D03*
X216900000Y-132280000D03*
X216900000Y-134820000D03*
%TD*%
D14*
%TO.C,H401*%
X112200000Y-158750000D03*
%TD*%
%TO.C,H402*%
X112450000Y-168100000D03*
%TD*%
D12*
%TO.C,J401*%
X267400000Y-74530000D03*
D13*
X267400000Y-71990000D03*
X267400000Y-69450000D03*
%TD*%
D10*
%TO.C,J602*%
X270250000Y-125150000D03*
X270250000Y-130150000D03*
D11*
X275250000Y-125150000D03*
X275250000Y-130150000D03*
%TD*%
D10*
%TO.C,J603*%
X275650000Y-61300000D03*
X275650000Y-56300000D03*
D11*
X270650000Y-61300000D03*
X270650000Y-56300000D03*
%TD*%
D17*
%TO.C,J302*%
X254430000Y-131610000D03*
D18*
X254430000Y-136970000D03*
D17*
X263070000Y-131610000D03*
D18*
X263070000Y-136970000D03*
%TD*%
M02*
